<svg xmlns="http://www.w3.org/2000/svg" width="165.661" height="169.516" viewBox="0 0 165.661 169.516">
  <g id="Grupo_16591" data-name="Grupo 16591" transform="translate(-881.339 -2710.484)">
    <g id="Grupo_16083" data-name="Grupo 16083" transform="translate(1.888)">
      <circle id="Elipse_676" data-name="Elipse 676" cx="64.384" cy="64.384" r="64.384" transform="translate(899.682 2725.044)" fill="#f6ff9b"/>
      <g id="Grupo_16081" data-name="Grupo 16081" transform="translate(945.647 2780.535)">
        <g id="Grupo_16079" data-name="Grupo 16079" transform="translate(1.604 1.604)">
          <g id="Grupo_16064" data-name="Grupo 16064" transform="translate(12.834 59.503)">
            <path id="Trazado_9733" data-name="Trazado 9733" d="M2033.919-284.557l1.765-1.444,8.021,8.021-1.6,1.6-13.059,13.059a10.212,10.212,0,0,1-7.219,2.984,10.208,10.208,0,0,1-10.2-10.2v-11.775a15.587,15.587,0,0,1,.433-3.69,15.9,15.9,0,0,1,2.776-5.936,16.1,16.1,0,0,1,6.562-5.15Z" transform="translate(-2011.619 297.086)" fill="#b4dd7f"/>
          </g>
          <g id="Grupo_16065" data-name="Grupo 16065" transform="translate(23.037 80.214)">
            <path id="Trazado_9734" data-name="Trazado 9734" d="M2098.82-177.763H2062.5a10.212,10.212,0,0,0,7.22-2.984l13.059-13.059Z" transform="translate(-2062.499 193.806)" fill="#b4dd7f"/>
          </g>
          <g id="Grupo_16066" data-name="Grupo 16066" transform="translate(48.128 38.503)">
            <path id="Trazado_9735" data-name="Trazado 9735" d="M2222.913-379.346v-22.46h12.835v25.668a9.634,9.634,0,0,1-9.626,9.626h-22.46v17.647l-16.043-16.043,3.161-3.16a5.58,5.58,0,0,0,1.572-3.08l4.636-10.8Z" transform="translate(-2187.619 401.806)" fill="#b4dd7f"/>
          </g>
          <g id="Grupo_16067" data-name="Grupo 16067" transform="translate(30.401 56.15)">
            <path id="Trazado_9736" data-name="Trazado 9736" d="M2107.321-313.806l8.021,6.465a5.471,5.471,0,0,0-3.208,1.556h-1.6a4.8,4.8,0,0,0-3.4,1.412l-7.909-7.909Z" transform="translate(-2099.219 313.806)" fill="#a0d468"/>
          </g>
          <g id="Grupo_16068" data-name="Grupo 16068" transform="translate(46.524 57.754)">
            <path id="Trazado_9737" data-name="Trazado 9737" d="M2190.593-305.2l-4.637,10.8a5.9,5.9,0,0,0,.081-.914,5.649,5.649,0,0,0-1.669-4.011,5.649,5.649,0,0,0-4.011-1.668h-.08a4.529,4.529,0,0,0-.658.048l4.813-4.861Z" transform="translate(-2179.619 305.806)" fill="#a0d468"/>
          </g>
          <g id="Grupo_16069" data-name="Grupo 16069" transform="translate(22.46 0)">
            <path id="Trazado_9738" data-name="Trazado 9738" d="M2098.972-585.64l2.358,7.877h-41.711l1.6-8.005a10,10,0,0,1,9.8-8.037,9.909,9.909,0,0,1,5.551,1.685,4.7,4.7,0,0,0,2.631.8,4.8,4.8,0,0,0,2.134-.513l1.524-.77a11.6,11.6,0,0,1,5.134-1.2,11.49,11.49,0,0,1,6.834,2.262A11.493,11.493,0,0,1,2098.972-585.64Z" transform="translate(-2059.619 593.806)" fill="#cf9e76"/>
          </g>
          <g id="Grupo_16070" data-name="Grupo 16070" transform="translate(16.043 16.043)">
            <path id="Trazado_9739" data-name="Trazado 9739" d="M2083.769-512.2v3.209a1.609,1.609,0,0,1-1.6,1.6h-52.941a1.609,1.609,0,0,1-1.6-1.6V-512.2a1.609,1.609,0,0,1,1.6-1.6h52.941A1.609,1.609,0,0,1,2083.769-512.2Z" transform="translate(-2027.619 513.806)" fill="#b27946"/>
          </g>
          <g id="Grupo_16071" data-name="Grupo 16071" transform="translate(0 41.711)">
            <path id="Trazado_9740" data-name="Trazado 9740" d="M1963.662-374.576v11.711a15.9,15.9,0,0,0-2.775,5.936h-11.663a1.609,1.609,0,0,1-1.6-1.6V-376.18a9.633,9.633,0,0,1,9.626-9.626h4.813a4.8,4.8,0,0,0-3.4,1.412,4.8,4.8,0,0,0-1.412,3.4Z" transform="translate(-1947.619 385.806)" fill="#e6e9ed"/>
          </g>
          <g id="Grupo_16072" data-name="Grupo 16072" transform="translate(9.626 41.711)">
            <path id="Trazado_9741" data-name="Trazado 9741" d="M2022.892-358.533v1.6l-1.765,1.444L2008.6-368.015l-6.561-6.561-6.417-6.417a4.8,4.8,0,0,1,1.412-3.4,4.8,4.8,0,0,1,3.4-1.412l15.963,15.963,7.909,7.909a4.8,4.8,0,0,0-1.412,3.4Z" transform="translate(-1995.619 385.806)" fill="#d3a06c"/>
          </g>
          <g id="Grupo_16073" data-name="Grupo 16073" transform="translate(43.316 75.401)">
            <path id="Trazado_9742" data-name="Trazado 9742" d="M2168.432-217.806l16.043,16.043a4.8,4.8,0,0,1-1.412,3.4,4.8,4.8,0,0,1-3.4,1.412l-16.042-16.043,1.6-1.6Z" transform="translate(-2163.619 217.806)" fill="#d3a06c"/>
          </g>
          <g id="Grupo_16074" data-name="Grupo 16074" transform="translate(22.46 22.46)">
            <path id="Trazado_9743" data-name="Trazado 9743" d="M2077.266-481.806l-1.6,6.417h-1.187a5.231,5.231,0,0,0-5.23,5.23v.1a5.357,5.357,0,0,0,2.134,4.3c1.877,1.4,4.283,3.209,4.283,3.209v11.23l-5.1-3.561a25.713,25.713,0,0,1-10.941-21.032v-5.888Z" transform="translate(-2059.619 481.806)" fill="#656d78"/>
          </g>
          <g id="Grupo_16075" data-name="Grupo 16075" transform="translate(80.214 22.46)">
            <path id="Trazado_9744" data-name="Trazado 9744" d="M2363.662-475.389v9.626h-12.834l-1.845-1.845a4.664,4.664,0,0,1-1.364-3.289,4.651,4.651,0,0,1,2.583-4.171l.626-.321a6.458,6.458,0,0,1,1.877-4.54,6.457,6.457,0,0,1,4.54-1.877,6.458,6.458,0,0,1,4.541,1.877A6.457,6.457,0,0,1,2363.662-475.389Z" transform="translate(-2347.619 481.806)" fill="#f0d0b4"/>
          </g>
          <g id="Grupo_16076" data-name="Grupo 16076" transform="translate(36.898 62.567)">
            <path id="Trazado_9745" data-name="Trazado 9745" d="M2147.662-276.127a5.842,5.842,0,0,1-.08.914,5.584,5.584,0,0,1-1.572,3.08l-3.16,3.16-3.208,3.209-8.022-8.021v-1.6a4.8,4.8,0,0,1,1.412-3.4,4.8,4.8,0,0,1,3.4-1.412h1.6a5.473,5.473,0,0,1,3.209-1.556,4.541,4.541,0,0,1,.658-.048h.08a5.65,5.65,0,0,1,4.01,1.668A5.649,5.649,0,0,1,2147.662-276.127Z" transform="translate(-2131.619 281.806)" fill="#f0d0b4"/>
          </g>
          <g id="Grupo_16077" data-name="Grupo 16077" transform="translate(32.086 22.46)">
            <path id="Trazado_9746" data-name="Trazado 9746" d="M2139.7-460.95a9.633,9.633,0,0,1-9.626,9.626h-3.208v4.813l-4.813,4.861-8.022-6.465v-14.439s-2.406-1.813-4.283-3.209a5.356,5.356,0,0,1-2.134-4.3v-.1a5.231,5.231,0,0,1,5.23-5.23h1.188l1.6-6.417H2139.7a30.558,30.558,0,0,1,3.192,12.433l-.015.016a4.771,4.771,0,0,0-3.177-1.219,8.056,8.056,0,0,0-5.679,2.342,8.056,8.056,0,0,0-2.342,5.679,1.609,1.609,0,0,0,1.6,1.6h6.417Z" transform="translate(-2107.619 481.806)" fill="#f0d0b4"/>
          </g>
          <g id="Grupo_16078" data-name="Grupo 16078" transform="translate(56.15 33.69)">
            <path id="Trazado_9747" data-name="Trazado 9747" d="M2234.036-416.18h-4.813a1.609,1.609,0,0,1-1.6-1.6,8.056,8.056,0,0,1,2.342-5.679,8.057,8.057,0,0,1,5.679-2.342,4.772,4.772,0,0,1,3.177,1.219,1.305,1.305,0,0,1,.225.193,4.8,4.8,0,0,1,1.412,3.4v3.209a1.609,1.609,0,0,1-1.6,1.6h-4.813Z" transform="translate(-2227.62 425.806)" fill="#aab2bd"/>
          </g>
        </g>
        <g id="Grupo_16080" data-name="Grupo 16080" transform="translate(0 0)">
          <path id="Trazado_9748" data-name="Trazado 9748" d="M2216.432-452.993a4.819,4.819,0,0,0,4.813-4.813h-3.208a1.607,1.607,0,0,1-1.6,1.6,1.607,1.607,0,0,1-1.6-1.6h-3.208A4.819,4.819,0,0,0,2216.432-452.993Z" transform="translate(-2157.074 486.683)" fill="#00223d"/>
          <path id="Trazado_9749" data-name="Trazado 9749" d="M2091.619-553.806h6.417v3.209h-6.417Z" transform="translate(-2061.137 563.432)" fill="#00223d"/>
          <path id="Trazado_9750" data-name="Trazado 9750" d="M2139.619-553.806h3.209v3.209h-3.209Z" transform="translate(-2099.512 563.432)" fill="#00223d"/>
          <path id="Trazado_9751" data-name="Trazado 9751" d="M2187.619-569.806h6.417v3.209h-6.417Z" transform="translate(-2137.886 576.223)" fill="#00223d"/>
          <path id="Trazado_9752" data-name="Trazado 9752" d="M2031.063-579.346a8.034,8.034,0,0,0-7.957,7,6.231,6.231,0,0,0-3.273,5.506,6.224,6.224,0,0,0,1.835,4.431l1.373,1.373v20.023l-28.877-2.888v-1.757h1.6a11.238,11.238,0,0,0,11.1-9.626h1.732a3.212,3.212,0,0,0,3.209-3.209V-561.7a6.369,6.369,0,0,0-1.685-4.3,31.69,31.69,0,0,0-2.286-10.142h3.971a3.212,3.212,0,0,0,3.208-3.209v-3.209a3.212,3.212,0,0,0-3.208-3.208h-5.224l-2.02-6.733a12.982,12.982,0,0,0-12.512-9.31,13.135,13.135,0,0,0-5.841,1.378l-1.534.767a3.149,3.149,0,0,1-3.149-.2,11.576,11.576,0,0,0-6.44-1.949,11.639,11.639,0,0,0-11.383,9.331l-1.343,6.712h-3.5a3.212,3.212,0,0,0-3.209,3.208v3.209a3.212,3.212,0,0,0,3.209,3.209h3.208v4.282a27.3,27.3,0,0,0,11.633,22.343l4.41,3.088v1.041l-5.965,1.12-15.831-15.831h-5.477a11.242,11.242,0,0,0-11.23,11.23v17.647a3.212,3.212,0,0,0,3.208,3.209h9.759a17.9,17.9,0,0,0-.133,2.084v11.771a11.828,11.828,0,0,0,11.814,11.814h36.315a6.423,6.423,0,0,0,6.417-6.417V-524.8h20.856a11.243,11.243,0,0,0,11.23-11.23v-35.294a8.03,8.03,0,0,0-8.022-8.021Zm-6.33,9.772,1.518-.759v-.991a4.819,4.819,0,0,1,4.813-4.813,4.819,4.819,0,0,1,4.813,4.813v8.021h-10.565l-1.373-1.373a3.085,3.085,0,0,1-.9-2.162,3.041,3.041,0,0,1,1.691-2.735Zm-28.354,29.121-1.883,4.394a7.318,7.318,0,0,0-3.374-2.658l2.041-2.057Zm-10.235,16.593-6.417-6.417v-.94a3.212,3.212,0,0,1,3.209-3.208h2.27l.47-.47a3.891,3.891,0,0,1,2.817-1.134,4.074,4.074,0,0,1,4.069,4.068,4.034,4.034,0,0,1-1.186,2.87Zm19.251-34.63V-561.7h-3.208v3.208h-3.209a6.424,6.424,0,0,1,6.417-6.417,3.212,3.212,0,0,1,3.208,3.209l0,3.208Zm1.335-9.481a6.419,6.419,0,0,0-1.335-.144,9.636,9.636,0,0,0-9.626,9.626,3.212,3.212,0,0,0,3.209,3.209h4.651a8.035,8.035,0,0,1-7.86,6.417h-8.021v3.208h3.208v2.548l-3.329,3.358-6.3-5.07v-14.472l-4.922-3.691a3.779,3.779,0,0,1-1.5-3.1,3.607,3.607,0,0,1,1.064-2.568,3.607,3.607,0,0,1,2.569-1.064h2.434l1.6-6.417h21.762a28.5,28.5,0,0,1,2.384,8.166Zm-39.873-23.873a8.422,8.422,0,0,1,8.236-6.752,8.371,8.371,0,0,1,4.659,1.41,6.363,6.363,0,0,0,6.364.4l1.534-.767a9.914,9.914,0,0,1,4.407-1.04,9.793,9.793,0,0,1,9.438,7.022l1.744,5.812h-37.6Zm-7.986,9.29h52.941v3.209h-52.943Zm16.681,30.414a24.084,24.084,0,0,1-10.264-19.715v-4.282h13.988l-.8,3.209a6.8,6.8,0,0,0-4.765,2,6.847,6.847,0,0,0-2,4.928,6.909,6.909,0,0,0,2.779,5.58l3.639,2.729v7.346Zm3.743,9.8,5.283,4.253a7.016,7.016,0,0,0-.656.451h-.986a6.334,6.334,0,0,0-3.239.91l-4.79-4.79Zm-1.867,7.882a6.333,6.333,0,0,0-.91,3.239v.844l-.053.043-23.954-23.953a3.216,3.216,0,0,1,2.548-2.541Zm-18.557-8.931,2.267,2.267a17.727,17.727,0,0,0-2.267,1.58Zm-16.043,12.17v-17.647a8.005,8.005,0,0,1,7.269-7.946,6.343,6.343,0,0,0-.852,3.133v.664l6.417,6.417v10.529a17.631,17.631,0,0,0-2.4,4.85Zm12.834,17.063v-11.771a14.38,14.38,0,0,1,7.859-12.81l10.447,10.447-5.472,4.478v-7.407h-3.209v10.032l-5.828,4.768,2.032,2.485,16.522-13.521,5.861,5.862-13.529,13.531a8.546,8.546,0,0,1-6.079,2.512A8.615,8.615,0,0,1,1955.662-514.155Zm16.683,8.605c.088-.083.183-.159.27-.244l11.924-11.926,12.17,12.17Zm28.843-.058-14.381-14.381,2.544-2.544,14.381,14.381A3.214,3.214,0,0,1,2001.188-505.607Zm26.667-22.4H2007v-3.209h-3.208v18.587l-12.17-12.17,2.023-2.023a7.2,7.2,0,0,0,1.991-3.751l4.091-9.546,24.193,2.419,2.8,2.8,2.268-2.268-2.739-2.737v-20.191h9.625v24.064a8.03,8.03,0,0,1-8.021,8.021Z" transform="translate(-1939.619 601.806)" fill="#00223d"/>
        </g>
      </g>
      <g id="Grupo_16082" data-name="Grupo 16082" transform="translate(879.451 2710.484)">
        <path id="Trazado_9412" data-name="Trazado 9412" d="M1608.4,1431.893h0a30.585,30.585,0,0,0,30.592,5.726l1.718-.625-6.8-10.2-2.37.677a12.926,12.926,0,0,1-14.636-5.778h-10.2Z" transform="translate(-1553.984 -1374.574)" fill="#395166"/>
        <path id="Trazado_9413" data-name="Trazado 9413" d="M1588.96,1458.057h0a10.942,10.942,0,0,1,2.422,11.8l-.721,1.8h8.5l.1-.342a20.436,20.436,0,0,0-5.2-20.064h0l-5.1.766Z" transform="translate(-1546.448 -1387.135)" fill="#395166"/>
        <path id="Trazado_9414" data-name="Trazado 9414" d="M1520.959,1441.96l13.6,13.6,61.218-69.72v-3.4l-5.1-5.1h-6.8l-10.2,10.2-3.4-3.4-5.1,5.1v6.8l-15.3,15.3v10.2l-8.5,8.5h-8.5Z" transform="translate(-1517.558 -1355.733)" fill="sienna"/>
        <path id="Trazado_9415" data-name="Trazado 9415" d="M1635.347,1383.7v3.4l-15.1,17.2-6.152-6.151,17.855-17.855Z" transform="translate(-1557.125 -1356.989)" fill="sienna"/>
        <path id="Trazado_9416" data-name="Trazado 9416" d="M1602.03,1417.493l-23.057,26.258-7.752-7.752,24.657-24.657Z" transform="translate(-1538.912 -1370.178)" fill="#2f4054"/>
        <path id="Trazado_9417" data-name="Trazado 9417" d="M1562.351,1459.313l8.083,8.083,4.77-5.433-7.752-7.752Z" transform="translate(-1535.143 -1388.391)" fill="#395166"/>
        <path id="Trazado_9418" data-name="Trazado 9418" d="M1600.129,1397.67l-28.908,28.908v-10.2l15.3-15.3v-6.8l5.1-5.1Z" transform="translate(-1538.912 -1360.757)" fill="#395166"/>
        <rect id="Rectángulo_3878" data-name="Rectángulo 3878" width="9.619" height="7.215" transform="translate(73.121 21.608) rotate(-45)" fill="#395166"/>
        <path id="Trazado_9419" data-name="Trazado 9419" d="M1615.374,1391.989a18.723,18.723,0,0,1-8.978-2.268q.455-.407.888-.841l2.2-2.2a8.436,8.436,0,0,0,2.416-4.9h1.775v-3.4h-1.7a8.517,8.517,0,0,0-6.8-8.332v-1.871h-3.4v1.871a8.517,8.517,0,0,0-6.8,8.332h-1.7v3.4h1.775a8.438,8.438,0,0,0,2.416,4.9l2.2,2.2q.432.432.882.836a18.81,18.81,0,0,1-3.978,1.6l-.177-.267a1.7,1.7,0,0,0-1.883-.692l-2.369.678a11.293,11.293,0,0,1-11.848-3.783L1594.546,1371a1.7,1.7,0,0,0,.423-1.122v-2.7l6.3-6.3a1.7,1.7,0,0,0,0-2.4l-1.348-1.348,14.952-14.952-2.405-2.4-2.2,2.2-2.2-2.2-2.4,2.4,2.2,2.2-10.349,10.349-1.348-1.348a1.7,1.7,0,0,0-2.4,0l-6.3,6.3h-6.1a1.7,1.7,0,0,0-1.2.5l-9,9-2.2-2.2a1.7,1.7,0,0,0-2.4,0l-5.056,5.055a8.487,8.487,0,0,0-3.945-1.981v-1.871h-3.4v1.871a8.517,8.517,0,0,0-6.8,8.332h-1.7v3.4h1.775a8.439,8.439,0,0,0,2.416,4.9l1.907,1.907-2.692,2.692a18.847,18.847,0,0,1-14.083-1.559q.453-.407.887-.841l2.2-2.2a8.434,8.434,0,0,0,2.416-4.9h1.775v-3.4h-1.7a8.517,8.517,0,0,0-6.8-8.332v-1.871h-3.4v1.871a8.517,8.517,0,0,0-6.8,8.332h-1.7v3.4h1.775a8.438,8.438,0,0,0,2.416,4.9l2.2,2.2q.434.435.888.841a18.726,18.726,0,0,1-8.977,2.268h-5.1v3.4h5.1a22.085,22.085,0,0,0,11.9-3.447,22.083,22.083,0,0,0,11.9,3.447q.854,0,1.7-.067c0,.022,0,.044,0,.067v9.5l-7.506,7.506h-7.8a1.7,1.7,0,0,0-1.2.5l-11.9,11.9a1.7,1.7,0,0,0,0,2.4l13.6,13.6a1.7,1.7,0,0,0,1.2.5h.055a1.7,1.7,0,0,0,1.222-.577l24.136-27.488a9.229,9.229,0,0,1,.937,8.626l-.721,1.8a1.7,1.7,0,0,0,1.579,2.332h8.5a1.7,1.7,0,0,0,1.635-1.234l.1-.342a22.174,22.174,0,0,0-.22-12.837l7.771-7.77a32.277,32.277,0,0,0,23.59.6l1.717-.625a1.7,1.7,0,0,0,1.017-2.179,1.721,1.721,0,0,0-.183-.362l-4.655-6.982a22.118,22.118,0,0,0,4.935-2.327,22.08,22.08,0,0,0,11.909,3.45h1.7v-3.4Zm-83.323-4.238q-.732-.6-1.409-1.276l-2.2-2.2a5.067,5.067,0,0,1-1.371-2.491h1.577v-3.4h-1.7a5.109,5.109,0,0,1,3.4-4.809v1.408h3.4v-1.408a5.109,5.109,0,0,1,3.4,4.809h-1.7v3.4h1.577a5.067,5.067,0,0,1-1.371,2.491l-2.2,2.2Q1532.782,1387.152,1532.051,1387.751Zm62.918-30.768,2.7,2.7-4.4,4.4-2.7-2.7Zm-5.1,8.5,1.7,1.7v2.055l-13.485,15.359-3.665-3.665Zm-7.8-2.4h5.393l-11.2,11.2-2.7-2.7Zm-31.19,18.705h1.577v-3.4h-1.7a5.109,5.109,0,0,1,3.4-4.809v1.408h3.4v-1.408a5.108,5.108,0,0,1,3.4,4.809v1l-6.8,6.8-1.907-1.906A5.066,5.066,0,0,1,1550.879,1381.786Zm-1.824,14.308,14.807-14.806a1.7,1.7,0,0,0,.5-1.2v-6.1l3.4-3.4,2.2,2.2,3.9,3.9-24.8,24.8Zm-17.086,41.023L1520.852,1426l10.2-10.2h7.8a1.7,1.7,0,0,0,1.2-.5l2.2-2.2,5.753,5.753Zm18.286-20.825-5.6-5.6,2.7-2.7,5.422,5.423Zm4.77-5.433-5.266-5.266,22.252-22.252,3.821,3.821Zm11.428,11.739h-4.7a12.627,12.627,0,0,0-2-11.977l3.274-3.729A18.837,18.837,0,0,1,1566.454,1422.6Zm1.411-14.413a22.044,22.044,0,0,0-2.55-3.889l4.285-4.881a32.316,32.316,0,0,0,4.214,2.821Zm31.288-6.853a28.884,28.884,0,0,1-27.3-4.478l2.026-2.308a22.959,22.959,0,0,0,15.529,6.028,23.518,23.518,0,0,0,4.165-.373l-.6-3.347a19.638,19.638,0,0,1-16.846-4.864l1.894-2.157a14.717,14.717,0,0,0,15.052,4.468l1.176-.336Zm4.317-13.582q-.731-.6-1.408-1.275l-2.2-2.2a5.064,5.064,0,0,1-1.371-2.491h1.577v-3.4h-1.7a5.109,5.109,0,0,1,3.4-4.809v1.408h3.4v-1.408a5.109,5.109,0,0,1,3.4,4.809h-1.7v3.4h1.577a5.063,5.063,0,0,1-1.371,2.491l-2.2,2.2Q1604.207,1387.147,1603.47,1387.75Z" transform="translate(-1515.046 -1339.772)" fill="#00223d"/>
      </g>
    </g>
  </g>
</svg>
