<svg xmlns="http://www.w3.org/2000/svg" width="147.649" height="164.13" viewBox="0 0 147.649 164.13">
  <g id="Grupo_16593" data-name="Grupo 16593" transform="translate(-2295.056 3311)">
    <g id="Grupo_16592" data-name="Grupo 16592" transform="translate(1396.833 -6776.657)">
      <g id="Grupo_16191" data-name="Grupo 16191" transform="translate(528.925 1674.758)">
        <circle id="Elipse_638" data-name="Elipse 638" cx="50.742" cy="50.742" r="50.742" transform="translate(394.5 1797)" fill="#f6ff9b"/>
      </g>
      <g id="Grupo_16190" data-name="Grupo 16190" transform="translate(-818.456 3712.827)">
        <g id="Grupo_16155" data-name="Grupo 16155" transform="translate(1779.912 -221.497)">
          <g id="Grupo_16154" data-name="Grupo 16154">
            <ellipse id="Elipse_686" data-name="Elipse 686" cx="18.239" cy="14.927" rx="18.239" ry="14.927" transform="translate(0 32.899) rotate(-64.409)" fill="#f2bb88"/>
          </g>
        </g>
        <g id="Grupo_16157" data-name="Grupo 16157" transform="translate(1762.658 -221.473)">
          <g id="Grupo_16156" data-name="Grupo 16156">
            <ellipse id="Elipse_687" data-name="Elipse 687" cx="14.927" cy="18.239" rx="14.927" ry="18.239" transform="translate(0 12.895) rotate(-25.591)" fill="#f2bb88"/>
          </g>
        </g>
        <g id="Grupo_16159" data-name="Grupo 16159" transform="translate(1800.534 -186.511)">
          <g id="Grupo_16158" data-name="Grupo 16158">
            <circle id="Elipse_688" data-name="Elipse 688" cx="10.406" cy="10.406" r="10.406" fill="#f2bb88"/>
          </g>
        </g>
        <g id="Grupo_16161" data-name="Grupo 16161" transform="translate(1806.852 -216.693)">
          <g id="Grupo_16160" data-name="Grupo 16160">
            <circle id="Elipse_689" data-name="Elipse 689" cx="5.615" cy="5.615" r="5.615" fill="#ffcdbe"/>
          </g>
        </g>
        <g id="Grupo_16163" data-name="Grupo 16163" transform="translate(1754.933 -194.51)">
          <g id="Grupo_16162" data-name="Grupo 16162">
            <path id="Trazado_9855" data-name="Trazado 9855" d="M1827.019-146.342a9.893,9.893,0,0,0-5.463-5.3l-17.277-6.813a2.472,2.472,0,0,1-1.566-2.3v-11.479h-18.931v11.479a2.473,2.473,0,0,1-1.566,2.3l-17.277,6.813a9.892,9.892,0,0,0-5.462,5.3,48.4,48.4,0,0,0-3.918,19.079,1.742,1.742,0,0,0,1.742,1.742h71.895a1.742,1.742,0,0,0,1.742-1.742A48.405,48.405,0,0,0,1827.019-146.342Z" transform="translate(-1755.558 172.237)" fill="#ffcdbe"/>
          </g>
        </g>
        <g id="Grupo_16165" data-name="Grupo 16165" transform="translate(1754.932 -182.644)">
          <g id="Grupo_16164" data-name="Grupo 16164" transform="translate(0 0)">
            <path id="Trazado_9856" data-name="Trazado 9856" d="M1827.018-141.323a9.892,9.892,0,0,0-5.463-5.3l-7.6-3a.583.583,0,0,1-.718.28,21.883,21.883,0,0,1-4.545-2.292q-.572-.259-1.146-.516l-3.271-1.29a2.459,2.459,0,0,1-1.058-.805c-.155-.085-.311-.17-.465-.258a.6.6,0,0,1-.317-.465l-.939,1.183a10.536,10.536,0,0,1-16.506,0l-1.243-1.567a2.475,2.475,0,0,1-1.535,1.913l-12.17,4.8a.581.581,0,0,1-.4.157l-4.71,1.857a9.811,9.811,0,0,0-5.426,5.218,48.407,48.407,0,0,0-3.955,19.165,1.743,1.743,0,0,0,1.743,1.742h71.894a1.742,1.742,0,0,0,1.743-1.742,48.405,48.405,0,0,0-3.918-19.079Z" transform="translate(-1755.557 155.352)" fill="#ddebfd"/>
          </g>
        </g>
        <g id="Grupo_16167" data-name="Grupo 16167" transform="translate(1767.392 -216.697)">
          <g id="Grupo_16166" data-name="Grupo 16166">
            <circle id="Elipse_690" data-name="Elipse 690" cx="5.615" cy="5.615" r="5.615" fill="#ffcdbe"/>
          </g>
        </g>
        <g id="Grupo_16169" data-name="Grupo 16169" transform="translate(1773.418 -236.879)">
          <g id="Grupo_16168" data-name="Grupo 16168">
            <path id="Trazado_9857" data-name="Trazado 9857" d="M1813.646-229.708c-2.508-1.44-6.292-2.2-9.169-2.588a25.36,25.36,0,0,0-6.812,0c-2.876.39-6.662,1.148-9.168,2.588a4.8,4.8,0,0,0-2.051,2.347c-2.413,5.9-11.727,31.877,6.117,43.185a15.939,15.939,0,0,0,17.019,0c17.844-11.308,8.53-37.286,6.117-43.185a4.805,4.805,0,0,0-2.051-2.347Z" transform="translate(-1781.861 232.526)" fill="#ffcdbe"/>
          </g>
        </g>
        <g id="Grupo_16171" data-name="Grupo 16171" transform="translate(1789.781 -236.877)">
          <g id="Grupo_16170" data-name="Grupo 16170">
            <path id="Trazado_9858" data-name="Trazado 9858" d="M1822.618-227.36a4.806,4.806,0,0,0-2.052-2.347c-2.507-1.44-6.292-2.2-9.169-2.588a25.362,25.362,0,0,0-6.252-.066c.187.021.374.041.56.066,2.876.39,6.662,1.148,9.169,2.588a4.806,4.806,0,0,1,2.052,2.347c2.412,5.9,11.727,31.877-6.117,43.185a15.844,15.844,0,0,1-5.664,2.205,15.93,15.93,0,0,0,11.356-2.205C1834.345-195.483,1825.031-221.46,1822.618-227.36Z" transform="translate(-1805.145 232.523)" fill="#ebae9d"/>
          </g>
        </g>
        <g id="Grupo_16173" data-name="Grupo 16173" transform="translate(1757.734 -223.052)">
          <g id="Grupo_16172" data-name="Grupo 16172">
            <path id="Trazado_9859" data-name="Trazado 9859" d="M1826.3-206.5h-63.729a3.024,3.024,0,0,1-3.024-3.023v-.308a3.024,3.024,0,0,1,3.024-3.023h63.73a3.023,3.023,0,0,1,3.023,3.023v.308a3.023,3.023,0,0,1-3.024,3.023Z" transform="translate(-1759.543 212.851)" fill="#f8e076"/>
          </g>
        </g>
        <g id="Grupo_16175" data-name="Grupo 16175" transform="translate(1772.099 -245.693)">
          <g id="Grupo_16174" data-name="Grupo 16174">
            <path id="Trazado_9860" data-name="Trazado 9860" d="M1820.037-222.427h-39.06a.994.994,0,0,1-.994-.994v-1.124a20.523,20.523,0,0,1,20.523-20.523,20.523,20.523,0,0,1,20.524,20.523v1.124A.994.994,0,0,1,1820.037-222.427Z" transform="translate(-1779.984 245.068)" fill="#f7d958"/>
          </g>
        </g>
        <g id="Grupo_16177" data-name="Grupo 16177" transform="translate(1796.178 -187.205)">
          <g id="Grupo_16176" data-name="Grupo 16176" transform="translate(0 0)">
            <path id="Trazado_9861" data-name="Trazado 9861" d="M1844.463-143.252a9.892,9.892,0,0,0-5.463-5.3l-17.277-6.813a2.472,2.472,0,0,1-1.566-2.3v-4.174h-5.91v6.144a2.472,2.472,0,0,0,1.566,2.3l17.277,6.813a9.892,9.892,0,0,1,5.463,5.3,48.419,48.419,0,0,1,3.916,18.852h4.169a1.742,1.742,0,0,0,1.742-1.742A48.394,48.394,0,0,0,1844.463-143.252Z" transform="translate(-1814.248 161.843)" fill="#ebae9d"/>
          </g>
        </g>
        <g id="Grupo_16179" data-name="Grupo 16179" transform="translate(1798.1 -182.644)">
          <g id="Grupo_16178" data-name="Grupo 16178" transform="translate(0 0)">
            <path id="Trazado_9862" data-name="Trazado 9862" d="M1845.276-141.323a9.893,9.893,0,0,0-5.463-5.3l-17.277-6.813a2.472,2.472,0,0,1-1.535-1.913l-1.244,1.568a10.521,10.521,0,0,1-2.774,2.455l16.921,6.672a9.894,9.894,0,0,1,5.463,5.3,48.4,48.4,0,0,1,3.915,18.852h4.17a1.743,1.743,0,0,0,1.742-1.743,48.392,48.392,0,0,0-3.918-19.079Z" transform="translate(-1816.983 155.352)" fill="#bed9fd"/>
          </g>
        </g>
        <g id="Grupo_16181" data-name="Grupo 16181" transform="translate(1818.578 -223.052)">
          <g id="Grupo_16180" data-name="Grupo 16180">
            <path id="Trazado_9863" data-name="Trazado 9863" d="M1852.031-212.851h-5.909a3.023,3.023,0,0,1,3.023,3.023v.308a3.023,3.023,0,0,1-3.023,3.023h5.909a3.024,3.024,0,0,0,3.024-3.023v-.308A3.023,3.023,0,0,0,1852.031-212.851Z" transform="translate(-1846.122 212.851)" fill="#f7d958"/>
          </g>
        </g>
        <g id="Grupo_16183" data-name="Grupo 16183" transform="translate(1769.518 -180.401)">
          <g id="Grupo_16182" data-name="Grupo 16182">
            <path id="Trazado_9864" data-name="Trazado 9864" d="M1821.226-127.588l-2.262-2.391a7.663,7.663,0,0,1-2.1-5.265v-14.718l-5.576-2.2v14.779a4.351,4.351,0,0,1-4.351,4.351H1791.9a4.35,4.35,0,0,1-4.351-4.351v-14.779l-5.577,2.2v14.718a7.661,7.661,0,0,1-2.1,5.264l-2.263,2.392a4.759,4.759,0,0,0-1.3,3.27v4.765h46.217v-4.764a4.762,4.762,0,0,0-1.3-3.271Z" transform="translate(-1776.312 152.161)" fill="#80b6fc"/>
          </g>
        </g>
        <g id="Grupo_16185" data-name="Grupo 16185" transform="translate(1782.171 -154.039)">
          <g id="Grupo_16184" data-name="Grupo 16184">
            <path id="Trazado_9865" data-name="Trazado 9865" d="M1815.22-108.4h-20.9v-4.119a2.127,2.127,0,0,1,2.127-2.127h16.648a2.128,2.128,0,0,1,2.128,2.127Z" transform="translate(-1794.316 114.649)" fill="#5392f9"/>
          </g>
        </g>
        <g id="Grupo_16187" data-name="Grupo 16187" transform="translate(1789.668 -245.693)">
          <g id="Grupo_16186" data-name="Grupo 16186">
            <path id="Trazado_9866" data-name="Trazado 9866" d="M1807.938-245.068a20.685,20.685,0,0,0-2.954.213,20.526,20.526,0,0,1,17.568,20.311v1.124a.994.994,0,0,1-.994.994h5.91a.994.994,0,0,0,.994-.994v-1.124A20.523,20.523,0,0,0,1807.938-245.068Z" transform="translate(-1804.984 245.068)" fill="#f3c625"/>
          </g>
        </g>
        <g id="Grupo_16189" data-name="Grupo 16189" transform="translate(1815.041 -180.06)">
          <g id="Grupo_16188" data-name="Grupo 16188" transform="translate(0 0)">
            <path id="Trazado_9867" data-name="Trazado 9867" d="M1851.471-145.7c-.606,4.123-6.495,8.3-6.495,8.3s-4.439-5.674-3.829-9.82a5.217,5.217,0,0,1,5.921-4.4A5.218,5.218,0,0,1,1851.471-145.7Z" transform="translate(-1841.089 151.675)" fill="#f2bb88"/>
          </g>
        </g>
        <path id="Trazado_9868" data-name="Trazado 9868" d="M1826.087-147.857l5.576,2.2v-4.3l-5.576-2.2Z" transform="translate(-21.589 -28.242)" fill="#62a4fb"/>
        <path id="Trazado_9869" data-name="Trazado 9869" d="M1827.751-169.2a11.351,11.351,0,0,0-1.517-2.552,7.869,7.869,0,0,0,.651-2.118,6.7,6.7,0,0,0-5.291-7.535c0-.01-.009-.02-.013-.031a11.823,11.823,0,0,0-7.845-6.231,23.625,23.625,0,0,0,2.307-3.836,21.954,21.954,0,0,0,1.66-14.791,7.067,7.067,0,0,0,1.869-4.791,7.05,7.05,0,0,0-1.339-4.138h6.255a4.506,4.506,0,0,0,4.5-4.5v-.307a4.506,4.506,0,0,0-4.5-4.5h-9.864v-.64a22.027,22.027,0,0,0-22-22,22.026,22.026,0,0,0-22,22v.64h-9.863a4.506,4.506,0,0,0-4.5,4.5v.308a4.506,4.506,0,0,0,4.5,4.5h6.506a7.07,7.07,0,0,0-1.343,4.138,7.059,7.059,0,0,0,1.68,4.577,21.9,21.9,0,0,0,1.6,15.005,21.919,21.919,0,0,0,9.759,10.218l-15.189,5.989a11.445,11.445,0,0,0-6.279,6.1,49.614,49.614,0,0,0-4.037,19.661,3.223,3.223,0,0,0,3.22,3.22h71.893a3.223,3.223,0,0,0,3.22-3.22,49.61,49.61,0,0,0-4.038-19.661Zm-3.79-5.1c-.335,2.28-2.928,4.9-4.724,6.4-1.285-1.954-3.014-5.2-2.678-7.49a3.719,3.719,0,0,1,1.469-2.457,3.713,3.713,0,0,1,2.224-.74,3.765,3.765,0,0,1,.552.041A3.745,3.745,0,0,1,1823.961-174.3Zm-5.7-6.938a6.68,6.68,0,0,0-2,1.021,6.672,6.672,0,0,0-1.866,2.132l-10.1-3.981a8.952,8.952,0,0,1,6.65-2.973A8.88,8.88,0,0,1,1818.266-181.235ZM1811.1-157.2l2.263,2.392a3.27,3.27,0,0,1,.9,2.255v3.287h-9.705v-2.641a3.61,3.61,0,0,0-3.605-3.606H1784.3a3.61,3.61,0,0,0-3.605,3.606v2.641H1771v-3.287a3.271,3.271,0,0,1,.9-2.255l2.263-2.392a9.1,9.1,0,0,0,2.5-6.28V-177.2l2.6-1.025.024-.009v12.608a5.834,5.834,0,0,0,5.828,5.828h1.943a1.478,1.478,0,0,0,1.478-1.477,1.478,1.478,0,0,0-1.478-1.477h-1.943a2.877,2.877,0,0,1-2.874-2.874V-179.4a3.981,3.981,0,0,0,1.06-.663,11.946,11.946,0,0,0,9.331,4.451,11.945,11.945,0,0,0,9.331-4.451,3.972,3.972,0,0,0,1.068.667v13.774a2.877,2.877,0,0,1-2.874,2.874h-7.189a1.477,1.477,0,0,0-1.477,1.477,1.478,1.478,0,0,0,1.477,1.478h7.189a5.835,5.835,0,0,0,5.828-5.829v-12.6l2.622,1.034v13.709a9.1,9.1,0,0,0,2.5,6.279Zm-9.5,7.934h-17.948v-2.641a.651.651,0,0,1,.65-.651h16.648a.651.651,0,0,1,.65.651Zm-.986-33.839c-.028.03-.056.059-.081.091l-.812,1.024a9.012,9.012,0,0,1-7.1,3.427,9.011,9.011,0,0,1-7.1-3.427l-.825-1.04c-.021-.027-.044-.051-.067-.077v-3.422a17.414,17.414,0,0,0,7.993,1.938,17.426,17.426,0,0,0,7.984-1.933Zm12.767-9.667a20.4,20.4,0,0,1-3.156,4.763c-.015.016-.027.033-.041.05a11.907,11.907,0,0,0-6.616,2.557v-3.005A24,24,0,0,0,1812.792-204a7.051,7.051,0,0,0,2.287-.488A19.254,19.254,0,0,1,1813.378-192.776Zm-.2-14.232a42.767,42.767,0,0,0-.144-8.17,4.142,4.142,0,0,1,3.582,4.1A4.141,4.141,0,0,1,1813.178-207.008Zm-39.6-18.161a19.068,19.068,0,0,1,19.046-19.046,19.068,19.068,0,0,1,19.046,19.046v.64h-38.093Zm-14.365,5.449v-.308a1.548,1.548,0,0,1,1.547-1.546h63.729a1.548,1.548,0,0,1,1.547,1.546v.308a1.548,1.548,0,0,1-1.547,1.546h-38.27a1.477,1.477,0,0,0-1.477,1.477,1.477,1.477,0,0,0,1.477,1.477h23.841a34.538,34.538,0,0,1-.786,13.412,20.468,20.468,0,0,1-8.927,12.032,14.481,14.481,0,0,1-15.437,0,20.449,20.449,0,0,1-8.884-11.887,34.388,34.388,0,0,1-.828-13.557h5.11a1.478,1.478,0,0,0,1.478-1.478,1.478,1.478,0,0,0-1.478-1.477h-19.549A1.549,1.549,0,0,1,1759.211-219.721Zm9.665,8.639a4.15,4.15,0,0,1,3.3-4.054l.038-.01a42.742,42.742,0,0,0-.145,8.089A4.143,4.143,0,0,1,1768.875-211.082Zm2.992,18.306a19.228,19.228,0,0,1-1.681-11.8,7.018,7.018,0,0,0,2.278.566,24.016,24.016,0,0,0,9.216,15.594v5.111a18.535,18.535,0,0,1-9.812-9.468Zm-15.457,43.241a46.668,46.668,0,0,1,3.8-18.5,8.47,8.47,0,0,1,4.646-4.512l8.845-3.488v12.547a6.161,6.161,0,0,1-1.691,4.25l-2.262,2.392a6.211,6.211,0,0,0-1.706,4.286v3.287h-11.365A.266.266,0,0,1,1756.41-149.535Zm72.159.265h-11.358v-3.287a6.212,6.212,0,0,0-1.706-4.285l-2.262-2.392a6.158,6.158,0,0,1-1.692-4.25v-12.544l2.028.8c-.269,4.517,3.711,9.753,4.184,10.359a1.478,1.478,0,0,0,1.165.566,1.474,1.474,0,0,0,.854-.272,25.387,25.387,0,0,0,4.737-4.456,8.428,8.428,0,0,1,.515,1,46.653,46.653,0,0,1,3.8,18.5.265.265,0,0,1-.265.265Z" fill="#00223d"/>
      </g>
    </g>
    <path id="Trazado_25753" data-name="Trazado 25753" d="M15.336,14l-.827-2.3H10.154L9.334,14H8.056L11.6,4.375h1.463L16.614,14Zm-4.792-3.384h3.582L12.335,5.605Zm9.81,3.514a3.186,3.186,0,0,1-1.812-.485,2.007,2.007,0,0,1-.882-1.381l1.032-.294a1.44,1.44,0,0,0,.55.933,1.785,1.785,0,0,0,1.1.332,2.2,2.2,0,0,0,.646-.089,1.036,1.036,0,0,0,.5-.332.925.925,0,0,0,.144-.889,1.187,1.187,0,0,0-.109-.222.677.677,0,0,0-.191-.185,2.524,2.524,0,0,0-.232-.144,2.386,2.386,0,0,0-.3-.126q-.2-.072-.325-.109t-.376-.109l-.39-.113a7.289,7.289,0,0,1-.7-.246,3.058,3.058,0,0,1-.567-.325A1.306,1.306,0,0,1,18,9.816a1.792,1.792,0,0,1-.147-.752,1.738,1.738,0,0,1,.328-1.073,1.846,1.846,0,0,1,.851-.632,3.4,3.4,0,0,1,1.193-.195,2.92,2.92,0,0,1,1.637.438,1.867,1.867,0,0,1,.817,1.313l-.971.246a1.287,1.287,0,0,0-.513-.851,1.632,1.632,0,0,0-.964-.284,1.664,1.664,0,0,0-.9.236.793.793,0,0,0-.376.721.718.718,0,0,0,.1.373,1.183,1.183,0,0,0,.2.263,1.24,1.24,0,0,0,.369.2q.267.106.4.144t.492.126q.068.021.1.027.4.1.646.181a3.971,3.971,0,0,1,.581.246,1.932,1.932,0,0,1,.523.366,1.694,1.694,0,0,1,.328.52,1.834,1.834,0,0,1,.137.725,1.957,1.957,0,0,1-.2.906,1.577,1.577,0,0,1-.55.619,2.661,2.661,0,0,1-.783.338A3.729,3.729,0,0,1,20.354,14.13Zm7.164,0a3.542,3.542,0,0,1-1.723-.417,3.036,3.036,0,0,1-1.213-1.22,3.748,3.748,0,0,1-.448-1.856A3.423,3.423,0,0,1,25.087,8.1a3.578,3.578,0,0,1,4.864,0,3.43,3.43,0,0,1,.95,2.533,3.432,3.432,0,0,1-.954,2.54A3.292,3.292,0,0,1,27.518,14.13Zm-.007-.984a2.064,2.064,0,0,0,1.589-.69,2.587,2.587,0,0,0,.632-1.818A2.577,2.577,0,0,0,29.1,8.825a2.064,2.064,0,0,0-1.589-.69,2.035,2.035,0,0,0-1.576.69,2.594,2.594,0,0,0-.625,1.812,2.6,2.6,0,0,0,.625,1.818A2.035,2.035,0,0,0,27.511,13.146Zm8.032.978a3.237,3.237,0,0,1-2.406-.964,3.438,3.438,0,0,1-.95-2.522,3.445,3.445,0,0,1,.947-2.522,3.5,3.5,0,0,1,4.354-.376,2.967,2.967,0,0,1,1.131,1.634l-1.107.178A2.045,2.045,0,0,0,36.753,8.5a2.066,2.066,0,0,0-1.217-.369,1.987,1.987,0,0,0-1.555.69,2.63,2.63,0,0,0-.612,1.812,2.617,2.617,0,0,0,.612,1.808,1.991,1.991,0,0,0,1.555.687,2.066,2.066,0,0,0,1.217-.369,2.045,2.045,0,0,0,.759-1.046l1.107.185a2.97,2.97,0,0,1-1.138,1.63A3.255,3.255,0,0,1,35.543,14.123ZM40.964,5.7a.805.805,0,0,1-.8-.8.758.758,0,0,1,.236-.561.775.775,0,0,1,.564-.232.767.767,0,0,1,.557.232.758.758,0,0,1,.236.561.77.77,0,0,1-.236.564A.762.762,0,0,1,40.964,5.7Zm-.6,8.3V7.28h1.189V14Zm5.147.13a2.287,2.287,0,0,1-1.473-.461,1.657,1.657,0,0,1-.578-1.377,1.957,1.957,0,0,1,.185-.878,1.549,1.549,0,0,1,.547-.612,3.281,3.281,0,0,1,.79-.379A7.3,7.3,0,0,1,46,10.179L47.089,10q.595-.109.595-.622a1.174,1.174,0,0,0-.42-1A1.713,1.713,0,0,0,46.2,8.06a1.745,1.745,0,0,0-1.053.308,1.287,1.287,0,0,0-.5.943l-1.066-.226a2.052,2.052,0,0,1,.841-1.439,3.141,3.141,0,0,1,1.832-.482,3.716,3.716,0,0,1,.974.12,2.647,2.647,0,0,1,.813.376,1.686,1.686,0,0,1,.581.725,2.7,2.7,0,0,1,.208,1.1v2.775a1.136,1.136,0,0,0,.154.7.664.664,0,0,0,.53.181h.109V14h-.588a1.121,1.121,0,0,1-1.271-.909h-.055A2.568,2.568,0,0,1,45.51,14.13Zm.273-.957a1.793,1.793,0,0,0,1.442-.649,2.674,2.674,0,0,0,.547-1.777L46,11.088a2.392,2.392,0,0,0-1.042.373.867.867,0,0,0-.338.735.857.857,0,0,0,.325.738A1.388,1.388,0,0,0,45.783,13.173Zm8.162.95a3.237,3.237,0,0,1-2.406-.964,3.438,3.438,0,0,1-.95-2.522,3.445,3.445,0,0,1,.947-2.522,3.5,3.5,0,0,1,4.354-.376,2.967,2.967,0,0,1,1.131,1.634l-1.107.178A2.045,2.045,0,0,0,55.155,8.5a2.066,2.066,0,0,0-1.217-.369,1.987,1.987,0,0,0-1.555.69,2.63,2.63,0,0,0-.612,1.812,2.617,2.617,0,0,0,.612,1.808,1.991,1.991,0,0,0,1.555.687,2.066,2.066,0,0,0,1.217-.369,2.045,2.045,0,0,0,.759-1.046l1.107.185a2.97,2.97,0,0,1-1.138,1.63A3.255,3.255,0,0,1,53.945,14.123ZM59.366,5.7a.805.805,0,0,1-.8-.8.758.758,0,0,1,.236-.561.775.775,0,0,1,.564-.232.767.767,0,0,1,.557.232.758.758,0,0,1,.236.561.77.77,0,0,1-.236.564A.762.762,0,0,1,59.366,5.7Zm-.6,8.3V7.28h1.189V14Zm5.975-7.875L66.455,3.9l.629.458L65.553,6.125Zm.451,8a3.542,3.542,0,0,1-1.723-.417,3.036,3.036,0,0,1-1.213-1.22,3.748,3.748,0,0,1-.448-1.856A3.423,3.423,0,0,1,62.76,8.1a3.578,3.578,0,0,1,4.864,0,3.43,3.43,0,0,1,.95,2.533,3.432,3.432,0,0,1-.954,2.54A3.292,3.292,0,0,1,65.19,14.13Zm-.007-.984a2.064,2.064,0,0,0,1.589-.69,2.587,2.587,0,0,0,.632-1.818,2.577,2.577,0,0,0-.632-1.812,2.064,2.064,0,0,0-1.589-.69,2.035,2.035,0,0,0-1.576.69,2.594,2.594,0,0,0-.625,1.812,2.6,2.6,0,0,0,.625,1.818A2.035,2.035,0,0,0,65.184,13.146Zm8.415-6a2.337,2.337,0,0,1,1.692.608,2.269,2.269,0,0,1,.632,1.716V14H74.74V9.741a1.589,1.589,0,0,0-.41-1.2,1.466,1.466,0,0,0-1.053-.39,1.626,1.626,0,0,0-1.2.461,1.872,1.872,0,0,0-.472,1.371V14H70.427V7.28h1.183v.861A2.244,2.244,0,0,1,73.6,7.15ZM88.617,4.375h1.217V14H88.542L83.354,6.214V14h-1.2V4.375h1.278l5.188,7.752ZM94,14.13a2.287,2.287,0,0,1-1.473-.461,1.657,1.657,0,0,1-.578-1.377,1.957,1.957,0,0,1,.185-.878,1.549,1.549,0,0,1,.547-.612,3.281,3.281,0,0,1,.79-.379,7.3,7.3,0,0,1,1.022-.243L95.583,10q.595-.109.595-.622a1.174,1.174,0,0,0-.42-1,1.713,1.713,0,0,0-1.063-.318,1.745,1.745,0,0,0-1.053.308,1.287,1.287,0,0,0-.5.943l-1.066-.226a2.052,2.052,0,0,1,.841-1.439,3.141,3.141,0,0,1,1.832-.482,3.716,3.716,0,0,1,.974.12,2.647,2.647,0,0,1,.813.376,1.686,1.686,0,0,1,.581.725,2.7,2.7,0,0,1,.208,1.1v2.775a1.136,1.136,0,0,0,.154.7.664.664,0,0,0,.53.181h.109V14h-.588a1.121,1.121,0,0,1-1.271-.909h-.055A2.568,2.568,0,0,1,94,14.13Zm.273-.957a1.793,1.793,0,0,0,1.442-.649,2.674,2.674,0,0,0,.547-1.777l-1.777.342a2.392,2.392,0,0,0-1.042.373.867.867,0,0,0-.338.735.857.857,0,0,0,.325.738A1.388,1.388,0,0,0,94.277,13.173Zm8.162.95a3.237,3.237,0,0,1-2.406-.964,3.438,3.438,0,0,1-.95-2.522,3.445,3.445,0,0,1,.947-2.522,3.5,3.5,0,0,1,4.354-.376,2.967,2.967,0,0,1,1.131,1.634l-1.107.178a2.045,2.045,0,0,0-.759-1.046,2.066,2.066,0,0,0-1.217-.369,1.987,1.987,0,0,0-1.555.69,2.63,2.63,0,0,0-.612,1.812,2.617,2.617,0,0,0,.612,1.808,1.991,1.991,0,0,0,1.555.687,2.066,2.066,0,0,0,1.217-.369,2.045,2.045,0,0,0,.759-1.046l1.107.185a2.97,2.97,0,0,1-1.138,1.63A3.255,3.255,0,0,1,102.439,14.123ZM107.86,5.7a.805.805,0,0,1-.8-.8.758.758,0,0,1,.236-.561.775.775,0,0,1,.564-.232.767.767,0,0,1,.557.232.758.758,0,0,1,.236.561.77.77,0,0,1-.236.564A.762.762,0,0,1,107.86,5.7Zm-.6,8.3V7.28h1.189V14Zm6.426.13a3.542,3.542,0,0,1-1.723-.417,3.036,3.036,0,0,1-1.213-1.22,3.748,3.748,0,0,1-.448-1.856,3.423,3.423,0,0,1,.954-2.533,3.578,3.578,0,0,1,4.864,0,3.43,3.43,0,0,1,.95,2.533,3.432,3.432,0,0,1-.954,2.54A3.292,3.292,0,0,1,113.685,14.13Zm-.007-.984a2.064,2.064,0,0,0,1.589-.69,2.587,2.587,0,0,0,.632-1.818,2.577,2.577,0,0,0-.632-1.812,2.064,2.064,0,0,0-1.589-.69,2.035,2.035,0,0,0-1.576.69,2.594,2.594,0,0,0-.625,1.812,2.6,2.6,0,0,0,.625,1.818A2.035,2.035,0,0,0,113.678,13.146Zm8.415-6a2.337,2.337,0,0,1,1.692.608,2.269,2.269,0,0,1,.632,1.716V14h-1.183V9.741a1.589,1.589,0,0,0-.41-1.2,1.466,1.466,0,0,0-1.053-.39,1.626,1.626,0,0,0-1.2.461A1.872,1.872,0,0,0,120.1,9.98V14h-1.183V7.28H120.1v.861A2.244,2.244,0,0,1,122.093,7.15Zm6.159,6.979a2.287,2.287,0,0,1-1.473-.461,1.657,1.657,0,0,1-.578-1.377,1.957,1.957,0,0,1,.185-.878,1.549,1.549,0,0,1,.547-.612,3.281,3.281,0,0,1,.79-.379,7.3,7.3,0,0,1,1.022-.243L129.831,10q.595-.109.595-.622a1.174,1.174,0,0,0-.42-1,1.713,1.713,0,0,0-1.063-.318,1.745,1.745,0,0,0-1.053.308,1.287,1.287,0,0,0-.5.943l-1.066-.226a2.052,2.052,0,0,1,.841-1.439A3.141,3.141,0,0,1,129,7.164a3.716,3.716,0,0,1,.974.12,2.647,2.647,0,0,1,.813.376,1.686,1.686,0,0,1,.581.725,2.7,2.7,0,0,1,.208,1.1v2.775a1.136,1.136,0,0,0,.154.7.664.664,0,0,0,.53.181h.109V14h-.588a1.121,1.121,0,0,1-1.271-.909h-.055A2.568,2.568,0,0,1,128.252,14.13Zm.273-.957a1.793,1.793,0,0,0,1.442-.649,2.674,2.674,0,0,0,.547-1.777l-1.777.342a2.392,2.392,0,0,0-1.042.373.867.867,0,0,0-.338.735.857.857,0,0,0,.325.738A1.388,1.388,0,0,0,128.525,13.173Zm5.51.827V3.5h1.2V14Zm12.2-10.5h1.183V14h-1.142l-.027-1.306a2.472,2.472,0,0,1-.957,1.06,2.667,2.667,0,0,1-1.422.39,3.054,3.054,0,0,1-2.218-.947,3.236,3.236,0,0,1-.677-1.111,4.064,4.064,0,0,1-.25-1.442,3.533,3.533,0,0,1,.913-2.522,2.946,2.946,0,0,1,2.232-.971,2.678,2.678,0,0,1,1.4.379,2.487,2.487,0,0,1,.96,1.029Zm-2.119,9.618a2.012,2.012,0,0,0,1.562-.708,2.554,2.554,0,0,0,.632-1.767,2.549,2.549,0,0,0-.636-1.764,2.011,2.011,0,0,0-1.559-.711,2.057,2.057,0,0,0-1.572.687,2.528,2.528,0,0,0-.636,1.788,2.528,2.528,0,0,0,.636,1.788A2.057,2.057,0,0,0,144.118,13.118Zm11.587-2.611-.014.321h-5.25a2.375,2.375,0,0,0,.643,1.719,2.11,2.11,0,0,0,1.531.6,2.015,2.015,0,0,0,1.114-.321,2.085,2.085,0,0,0,.766-.889l1.066.226a3.031,3.031,0,0,1-1.148,1.442,3.133,3.133,0,0,1-1.784.526,3.246,3.246,0,0,1-2.42-.937,3.484,3.484,0,0,1-.923-2.557,3.467,3.467,0,0,1,.926-2.55,3.206,3.206,0,0,1,2.382-.937,3.034,3.034,0,0,1,2.259.861A3.4,3.4,0,0,1,155.705,10.507Zm-3.11-2.447a2.1,2.1,0,0,0-1.4.475,2.177,2.177,0,0,0-.708,1.384h4.026a2,2,0,0,0-.588-1.384A1.9,1.9,0,0,0,152.595,8.06ZM19.106,32.13a3.6,3.6,0,0,1-2.512-.889,3.119,3.119,0,0,1-.981-2.434V22.375h1.224v6.262a2.344,2.344,0,0,0,.632,1.771,2.263,2.263,0,0,0,1.637.608,2.292,2.292,0,0,0,1.647-.612,2.325,2.325,0,0,0,.643-1.767V22.375H22.62v6.433a3.108,3.108,0,0,1-.988,2.434A3.633,3.633,0,0,1,19.106,32.13Zm8.155,0a3.186,3.186,0,0,1-1.812-.485,2.007,2.007,0,0,1-.882-1.381L25.6,29.97a1.44,1.44,0,0,0,.55.933,1.785,1.785,0,0,0,1.1.332,2.2,2.2,0,0,0,.646-.089,1.036,1.036,0,0,0,.5-.332.925.925,0,0,0,.144-.889,1.187,1.187,0,0,0-.109-.222.677.677,0,0,0-.191-.185,2.524,2.524,0,0,0-.232-.144,2.386,2.386,0,0,0-.3-.126q-.2-.072-.325-.109T27,29.03l-.39-.113a7.289,7.289,0,0,1-.7-.246,3.058,3.058,0,0,1-.567-.325,1.306,1.306,0,0,1-.441-.53,1.792,1.792,0,0,1-.147-.752,1.738,1.738,0,0,1,.328-1.073,1.846,1.846,0,0,1,.851-.632,3.4,3.4,0,0,1,1.193-.195,2.92,2.92,0,0,1,1.637.438,1.867,1.867,0,0,1,.817,1.313l-.971.246a1.287,1.287,0,0,0-.513-.851,1.632,1.632,0,0,0-.964-.284,1.664,1.664,0,0,0-.9.236.793.793,0,0,0-.376.721.718.718,0,0,0,.1.373,1.183,1.183,0,0,0,.2.263,1.24,1.24,0,0,0,.369.2q.267.106.4.144t.492.126q.068.021.1.027.4.1.646.181a3.97,3.97,0,0,1,.581.246,1.932,1.932,0,0,1,.523.366,1.694,1.694,0,0,1,.328.52,1.834,1.834,0,0,1,.137.725,1.957,1.957,0,0,1-.2.906,1.577,1.577,0,0,1-.55.619,2.661,2.661,0,0,1-.783.338A3.729,3.729,0,0,1,27.261,32.13Zm8.518-6.85h1.183V32H35.827l-.027-.889a2.1,2.1,0,0,1-.834.755,2.565,2.565,0,0,1-1.176.263,2.337,2.337,0,0,1-1.692-.608,2.269,2.269,0,0,1-.632-1.716V25.28h1.183v4.259a1.6,1.6,0,0,0,.414,1.2,1.464,1.464,0,0,0,1.056.4,1.608,1.608,0,0,0,1.193-.465,1.893,1.893,0,0,0,.468-1.374Zm5.141,6.85a2.287,2.287,0,0,1-1.473-.461,1.657,1.657,0,0,1-.578-1.377,1.957,1.957,0,0,1,.185-.878A1.549,1.549,0,0,1,39.6,28.8a3.28,3.28,0,0,1,.79-.379,7.3,7.3,0,0,1,1.022-.243L42.5,28q.595-.109.595-.622a1.174,1.174,0,0,0-.42-1,1.713,1.713,0,0,0-1.063-.318,1.745,1.745,0,0,0-1.053.308,1.287,1.287,0,0,0-.5.943l-1.066-.226a2.052,2.052,0,0,1,.841-1.439,3.141,3.141,0,0,1,1.832-.482,3.716,3.716,0,0,1,.974.12,2.647,2.647,0,0,1,.813.376,1.686,1.686,0,0,1,.581.725,2.7,2.7,0,0,1,.208,1.1v2.775a1.136,1.136,0,0,0,.154.7.664.664,0,0,0,.53.181h.109V32h-.588a1.121,1.121,0,0,1-1.271-.909h-.055A2.568,2.568,0,0,1,40.919,32.13Zm.273-.957a1.793,1.793,0,0,0,1.442-.649,2.674,2.674,0,0,0,.547-1.777l-1.777.342a2.392,2.392,0,0,0-1.042.373.867.867,0,0,0-.338.735.857.857,0,0,0,.325.738A1.388,1.388,0,0,0,41.193,31.173Zm6.665-4.71a2.032,2.032,0,0,1,.834-.9,2.512,2.512,0,0,1,1.292-.355v1.114a2.214,2.214,0,0,0-1.562.5,2.084,2.084,0,0,0-.537,1.593V32H46.7V25.28h1.155ZM51.973,23.7a.805.805,0,0,1-.8-.8.758.758,0,0,1,.236-.561.775.775,0,0,1,.564-.232.767.767,0,0,1,.557.232.758.758,0,0,1,.236.561.77.77,0,0,1-.236.564A.762.762,0,0,1,51.973,23.7Zm-.6,8.3V25.28h1.189V32Zm6.426.13a3.542,3.542,0,0,1-1.723-.417,3.036,3.036,0,0,1-1.213-1.22,3.748,3.748,0,0,1-.448-1.856,3.423,3.423,0,0,1,.954-2.533,3.578,3.578,0,0,1,4.864,0,3.43,3.43,0,0,1,.95,2.533,3.432,3.432,0,0,1-.954,2.54A3.292,3.292,0,0,1,57.8,32.13Zm-.007-.984a2.064,2.064,0,0,0,1.589-.69,2.921,2.921,0,0,0,0-3.63,2.064,2.064,0,0,0-1.589-.69,2.035,2.035,0,0,0-1.576.69,2.946,2.946,0,0,0,0,3.63A2.035,2.035,0,0,0,57.791,31.146Zm7.369.984a3.186,3.186,0,0,1-1.812-.485,2.007,2.007,0,0,1-.882-1.381L63.5,29.97a1.44,1.44,0,0,0,.55.933,1.785,1.785,0,0,0,1.1.332,2.2,2.2,0,0,0,.646-.089,1.036,1.036,0,0,0,.5-.332.925.925,0,0,0,.144-.889,1.187,1.187,0,0,0-.109-.222.677.677,0,0,0-.191-.185,2.524,2.524,0,0,0-.232-.144,2.386,2.386,0,0,0-.3-.126q-.2-.072-.325-.109T64.9,29.03l-.39-.113a7.289,7.289,0,0,1-.7-.246,3.058,3.058,0,0,1-.567-.325,1.306,1.306,0,0,1-.441-.53,1.793,1.793,0,0,1-.147-.752,1.738,1.738,0,0,1,.328-1.073,1.846,1.846,0,0,1,.851-.632,3.4,3.4,0,0,1,1.193-.195,2.92,2.92,0,0,1,1.637.438,1.867,1.867,0,0,1,.817,1.313l-.971.246A1.287,1.287,0,0,0,66,26.309a1.632,1.632,0,0,0-.964-.284,1.664,1.664,0,0,0-.9.236.793.793,0,0,0-.376.721.718.718,0,0,0,.1.373,1.183,1.183,0,0,0,.2.263,1.24,1.24,0,0,0,.369.2q.267.106.4.144t.492.126q.068.021.1.027.4.1.646.181a3.97,3.97,0,0,1,.581.246,1.932,1.932,0,0,1,.523.366,1.694,1.694,0,0,1,.328.52,1.834,1.834,0,0,1,.137.725,1.957,1.957,0,0,1-.2.906,1.577,1.577,0,0,1-.55.619,2.661,2.661,0,0,1-.783.338A3.729,3.729,0,0,1,65.16,32.13Zm12.4,0a5.113,5.113,0,0,1-1.894-.345,4.573,4.573,0,0,1-1.521-.971,4.33,4.33,0,0,1-1.012-1.562,5.649,5.649,0,0,1-.366-2.071,5.557,5.557,0,0,1,.369-2.061,4.322,4.322,0,0,1,2.529-2.533,5.159,5.159,0,0,1,1.894-.342,4.89,4.89,0,0,1,2.56.677,4.216,4.216,0,0,1,1.692,1.88l-1.128.465A3.169,3.169,0,0,0,79.423,23.9a3.62,3.62,0,0,0-1.863-.482,3.828,3.828,0,0,0-1.4.253,3.358,3.358,0,0,0-1.135.725,3.271,3.271,0,0,0-.762,1.189,4.769,4.769,0,0,0,0,3.2,3.267,3.267,0,0,0,.762,1.193,3.4,3.4,0,0,0,1.135.728,3.782,3.782,0,0,0,1.4.256,3.62,3.62,0,0,0,1.863-.482,3.177,3.177,0,0,0,1.261-1.364l1.128.458a4.2,4.2,0,0,1-1.688,1.883A4.9,4.9,0,0,1,77.56,32.13Zm7.595,0a2.287,2.287,0,0,1-1.473-.461,1.657,1.657,0,0,1-.578-1.377,1.957,1.957,0,0,1,.185-.878,1.549,1.549,0,0,1,.547-.612,3.281,3.281,0,0,1,.79-.379,7.3,7.3,0,0,1,1.022-.243L86.734,28q.595-.109.595-.622a1.174,1.174,0,0,0-.42-1,1.713,1.713,0,0,0-1.063-.318,1.745,1.745,0,0,0-1.053.308,1.287,1.287,0,0,0-.5.943l-1.066-.226a2.052,2.052,0,0,1,.841-1.439,3.141,3.141,0,0,1,1.832-.482,3.716,3.716,0,0,1,.974.12,2.647,2.647,0,0,1,.813.376,1.686,1.686,0,0,1,.581.725,2.7,2.7,0,0,1,.208,1.1v2.775a1.136,1.136,0,0,0,.154.7.664.664,0,0,0,.53.181h.109V32h-.588a1.121,1.121,0,0,1-1.271-.909h-.055A2.568,2.568,0,0,1,85.155,32.13Zm.273-.957a1.793,1.793,0,0,0,1.442-.649,2.674,2.674,0,0,0,.547-1.777l-1.777.342a2.392,2.392,0,0,0-1.042.373.867.867,0,0,0-.338.735.857.857,0,0,0,.325.738A1.388,1.388,0,0,0,85.428,31.173Zm12.38-6.022a2.166,2.166,0,0,1,1.565.571,2.117,2.117,0,0,1,.595,1.6V32H98.786V27.632a1.518,1.518,0,0,0-.369-1.107,1.257,1.257,0,0,0-.937-.376,1.327,1.327,0,0,0-1.025.424,1.822,1.822,0,0,0-.39,1.271V32h-1.2V27.68a1.588,1.588,0,0,0-.373-1.145,1.267,1.267,0,0,0-.954-.386,1.315,1.315,0,0,0-1.022.434,1.885,1.885,0,0,0-.393,1.3V32H90.938V25.28h1.183v.868a2.041,2.041,0,0,1,.769-.738,2.193,2.193,0,0,1,1.07-.26,2.283,2.283,0,0,1,1.148.284,1.766,1.766,0,0,1,.745.817,2.091,2.091,0,0,1,.807-.817A2.307,2.307,0,0,1,97.808,25.15Zm8,0a3.056,3.056,0,0,1,1.217.246,2.993,2.993,0,0,1,1,.69,3.227,3.227,0,0,1,.673,1.107,4.083,4.083,0,0,1,.25,1.449,3.553,3.553,0,0,1-.906,2.536,2.942,2.942,0,0,1-2.232.964,2.66,2.66,0,0,1-1.4-.383,2.509,2.509,0,0,1-.96-1.032v4.655h-1.183V25.28H103.4l.027,1.306a2.46,2.46,0,0,1,.957-1.049A2.685,2.685,0,0,1,105.806,25.15Zm-.232,5.968a2.04,2.04,0,0,0,1.555-.68,2.857,2.857,0,0,0,0-3.585,2.121,2.121,0,0,0-3.134.031,2.742,2.742,0,0,0,0,3.527A2.05,2.05,0,0,0,105.574,31.118Zm11.115-2.611-.014.321h-5.25a2.374,2.374,0,0,0,.643,1.719,2.11,2.11,0,0,0,1.531.6,2.015,2.015,0,0,0,1.114-.321,2.085,2.085,0,0,0,.766-.889l1.066.226A3.031,3.031,0,0,1,115.4,31.6a3.133,3.133,0,0,1-1.784.526,3.246,3.246,0,0,1-2.42-.937,3.484,3.484,0,0,1-.923-2.557,3.467,3.467,0,0,1,.926-2.55,3.206,3.206,0,0,1,2.382-.937,3.034,3.034,0,0,1,2.259.861A3.4,3.4,0,0,1,116.689,28.507Zm-3.11-2.447a2.1,2.1,0,0,0-1.4.475,2.177,2.177,0,0,0-.708,1.384H115.5a2,2,0,0,0-.588-1.384A1.9,1.9,0,0,0,113.579,26.06Zm7.089,6.07a3.186,3.186,0,0,1-1.812-.485,2.007,2.007,0,0,1-.882-1.381l1.032-.294a1.44,1.44,0,0,0,.55.933,1.785,1.785,0,0,0,1.1.332,2.2,2.2,0,0,0,.646-.089,1.036,1.036,0,0,0,.5-.332.925.925,0,0,0,.144-.889,1.187,1.187,0,0,0-.109-.222.677.677,0,0,0-.191-.185,2.524,2.524,0,0,0-.232-.144,2.386,2.386,0,0,0-.3-.126q-.2-.072-.325-.109t-.376-.109l-.39-.113a7.288,7.288,0,0,1-.7-.246,3.058,3.058,0,0,1-.567-.325,1.306,1.306,0,0,1-.441-.53,1.792,1.792,0,0,1-.147-.752,1.738,1.738,0,0,1,.328-1.073,1.846,1.846,0,0,1,.851-.632,3.4,3.4,0,0,1,1.193-.195,2.92,2.92,0,0,1,1.637.438,1.867,1.867,0,0,1,.817,1.313l-.971.246a1.287,1.287,0,0,0-.513-.851,1.632,1.632,0,0,0-.964-.284,1.664,1.664,0,0,0-.9.236.793.793,0,0,0-.376.721.718.718,0,0,0,.1.373,1.183,1.183,0,0,0,.2.263,1.24,1.24,0,0,0,.369.2q.267.106.4.144t.492.126q.068.021.1.027.4.1.646.181a3.97,3.97,0,0,1,.581.246,1.932,1.932,0,0,1,.523.366,1.694,1.694,0,0,1,.328.52,1.834,1.834,0,0,1,.137.725,1.957,1.957,0,0,1-.2.906,1.577,1.577,0,0,1-.55.619,2.661,2.661,0,0,1-.783.338A3.729,3.729,0,0,1,120.667,32.13ZM125.6,23.7a.805.805,0,0,1-.8-.8.758.758,0,0,1,.236-.561.775.775,0,0,1,.564-.232.767.767,0,0,1,.557.232.758.758,0,0,1,.236.561.77.77,0,0,1-.236.564A.762.762,0,0,1,125.6,23.7ZM125,32V25.28h1.189V32Zm6.768-6.85a2.337,2.337,0,0,1,1.692.608,2.269,2.269,0,0,1,.632,1.716V32h-1.183V27.741a1.589,1.589,0,0,0-.41-1.2,1.466,1.466,0,0,0-1.053-.39,1.626,1.626,0,0,0-1.2.461,1.872,1.872,0,0,0-.472,1.371V32H128.6V25.28h1.183v.861A2.244,2.244,0,0,1,131.769,25.15Zm7.438,6.979a3.542,3.542,0,0,1-1.723-.417,3.036,3.036,0,0,1-1.213-1.22,3.748,3.748,0,0,1-.448-1.856,3.423,3.423,0,0,1,.954-2.533,3.578,3.578,0,0,1,4.864,0,3.43,3.43,0,0,1,.95,2.533,3.432,3.432,0,0,1-.954,2.54A3.292,3.292,0,0,1,139.207,32.13Zm-.007-.984a2.064,2.064,0,0,0,1.589-.69,2.921,2.921,0,0,0,0-3.63,2.064,2.064,0,0,0-1.589-.69,2.035,2.035,0,0,0-1.576.69,2.946,2.946,0,0,0,0,3.63A2.035,2.035,0,0,0,139.2,31.146Zm7.369.984a3.186,3.186,0,0,1-1.812-.485,2.007,2.007,0,0,1-.882-1.381l1.032-.294a1.44,1.44,0,0,0,.55.933,1.785,1.785,0,0,0,1.1.332,2.2,2.2,0,0,0,.646-.089,1.036,1.036,0,0,0,.5-.332.925.925,0,0,0,.144-.889,1.187,1.187,0,0,0-.109-.222.677.677,0,0,0-.191-.185,2.525,2.525,0,0,0-.232-.144,2.385,2.385,0,0,0-.3-.126q-.2-.072-.325-.109t-.376-.109l-.39-.113a7.29,7.29,0,0,1-.7-.246,3.058,3.058,0,0,1-.567-.325,1.306,1.306,0,0,1-.441-.53,1.793,1.793,0,0,1-.147-.752,1.738,1.738,0,0,1,.328-1.073,1.846,1.846,0,0,1,.851-.632,3.4,3.4,0,0,1,1.193-.195,2.92,2.92,0,0,1,1.637.438,1.867,1.867,0,0,1,.817,1.313l-.971.246a1.287,1.287,0,0,0-.513-.851,1.632,1.632,0,0,0-.964-.284,1.664,1.664,0,0,0-.9.236.793.793,0,0,0-.376.721.718.718,0,0,0,.1.373,1.183,1.183,0,0,0,.2.263,1.24,1.24,0,0,0,.369.2q.267.106.4.144t.492.126q.068.021.1.027.4.1.646.181a3.97,3.97,0,0,1,.581.246,1.932,1.932,0,0,1,.523.366,1.694,1.694,0,0,1,.328.52,1.834,1.834,0,0,1,.137.725,1.957,1.957,0,0,1-.2.906,1.577,1.577,0,0,1-.55.619,2.662,2.662,0,0,1-.783.338A3.729,3.729,0,0,1,146.569,32.13ZM57.647,46.849v-.978h4.9v.978ZM71.415,50l-.827-2.3H66.233l-.82,2.3H64.134l3.548-9.625h1.463L72.693,50Zm-4.792-3.384H70.2l-1.791-5.011Zm14.458-6.241H82.3V50H81.005l-5.188-7.786V50h-1.2V40.375h1.278l5.188,7.752Zm7.533,9.755a3.6,3.6,0,0,1-2.512-.889,3.119,3.119,0,0,1-.981-2.434V40.375h1.224v6.262a2.344,2.344,0,0,0,.632,1.771,2.263,2.263,0,0,0,1.637.608,2.292,2.292,0,0,0,1.647-.612,2.325,2.325,0,0,0,.643-1.767V40.375h1.224v6.433a3.108,3.108,0,0,1-.988,2.434A3.633,3.633,0,0,1,88.614,50.13Zm10.459,0a5.113,5.113,0,0,1-1.894-.345,4.573,4.573,0,0,1-1.521-.971,4.33,4.33,0,0,1-1.012-1.562,5.649,5.649,0,0,1-.366-2.071,5.557,5.557,0,0,1,.369-2.061,4.322,4.322,0,0,1,2.529-2.533,5.159,5.159,0,0,1,1.894-.342,4.89,4.89,0,0,1,2.56.677,4.216,4.216,0,0,1,1.692,1.88l-1.128.465a3.169,3.169,0,0,0-1.261-1.371,3.62,3.62,0,0,0-1.863-.482,3.828,3.828,0,0,0-1.4.253,3.358,3.358,0,0,0-1.135.725,3.271,3.271,0,0,0-.762,1.189,4.769,4.769,0,0,0,0,3.2,3.267,3.267,0,0,0,.762,1.193,3.4,3.4,0,0,0,1.135.728,3.782,3.782,0,0,0,1.4.256,3.62,3.62,0,0,0,1.863-.482,3.177,3.177,0,0,0,1.261-1.364l1.128.458a4.2,4.2,0,0,1-1.688,1.883A4.9,4.9,0,0,1,99.073,50.13Zm6.009-3.281v-.978h4.9v.978Z" transform="translate(2287 -3197)" fill="#707070"/>
  </g>
</svg>
