<svg xmlns="http://www.w3.org/2000/svg" width="139.71" height="139.71" viewBox="0 0 139.71 139.71">
  <g id="Grupo_16581" data-name="Grupo 16581" transform="translate(-473.145 -5960)">
    <circle id="Elipse_653" data-name="Elipse 653" cx="69.855" cy="69.855" r="69.855" transform="translate(473.145 6099.71) rotate(-90)" fill="#fcfcae"/>
    <g id="Page-1" transform="translate(-1149.881 4810.914)">
      <g id="Grupo_15958" data-name="Grupo 15958">
        <path id="Shape" d="M1759.116,1247.418v34.138a2.283,2.283,0,0,1-2.284,2.284h-127.9a2.284,2.284,0,0,1-2.284-2.284v-34.138a2.27,2.27,0,0,1,2.474-2.284c8.631.943,9.451,6.731,19.589,6.731,11.032,0,11.032-6.852,22.086-6.852s11.032,6.852,22.063,6.852,11.055-6.852,22.086-6.852,11.032,6.852,22.086,6.852c10.141,0,10.963-5.79,19.613-6.724a2.268,2.268,0,0,1,2.473,2.277Z" fill="sienna"/>
        <path id="Trazado_9358" data-name="Trazado 9358" d="M1756.643,1245.141a16.322,16.322,0,0,0-4.685,1.19,2.224,2.224,0,0,1,.306,1.087v34.138a2.283,2.283,0,0,1-2.284,2.284h6.852a2.283,2.283,0,0,0,2.284-2.284v-34.138a2.268,2.268,0,0,0-2.473-2.277Z" fill="#783e22"/>
        <path id="Trazado_9359" data-name="Trazado 9359" d="M1649.486,1251.865v-22.84" fill="none" stroke="#000" stroke-linejoin="round" stroke-width="2"/>
        <path id="Trazado_9360" data-name="Trazado 9360" d="M1667.392,1199.288a15.4,15.4,0,0,0-4.2,10.575v5.458a13.724,13.724,0,0,1-13.7,13.7V1208.47a11.42,11.42,0,0,1,11.42-11.42h5.5a1.331,1.331,0,0,1,.982,2.238Z" fill="#008a00"/>
        <path id="Trazado_9361" data-name="Trazado 9361" d="M1666.41,1197.05h-5.5c-.3,0-.585.066-.882.089a1.327,1.327,0,0,1,.516,2.149,15.4,15.4,0,0,0-4.2,10.575v5.458a13.7,13.7,0,0,1-6.852,11.856v1.848a13.724,13.724,0,0,0,13.7-13.7v-5.458a15.4,15.4,0,0,1,4.2-10.575,1.331,1.331,0,0,0-.982-2.238Z" fill="#007900"/>
        <path id="Trazado_9362" data-name="Trazado 9362" d="M1649.486,1208.47v20.555a13.725,13.725,0,0,1-13.7-13.7v-5.458a15.4,15.4,0,0,0-4.2-10.575,1.331,1.331,0,0,1,.982-2.238h5.5a11.42,11.42,0,0,1,11.42,11.42Z" fill="#60a917"/>
        <path id="Trazado_9363" data-name="Trazado 9363" d="M1638.066,1197.05h-5.5a1.348,1.348,0,0,0-.457.089,11.387,11.387,0,0,1,10.529,11.331v18.707a13.589,13.589,0,0,0,6.852,1.848V1208.47A11.42,11.42,0,0,0,1638.066,1197.05Z" fill="#549414"/>
        <path id="Trazado_9364" data-name="Trazado 9364" d="M1710.788,1183.3a15.4,15.4,0,0,0-4.2,10.575v5.459a13.724,13.724,0,0,1-13.7,13.7v-20.555a11.42,11.42,0,0,1,11.42-11.42h5.505a1.332,1.332,0,0,1,.982,2.238Z" fill="#008a00"/>
        <path id="Trazado_9365" data-name="Trazado 9365" d="M1709.806,1181.062H1704.3c-.3,0-.585.066-.881.089a1.327,1.327,0,0,1,.516,2.149,15.4,15.4,0,0,0-4.2,10.575v5.459a13.7,13.7,0,0,1-6.852,11.856v1.847a13.724,13.724,0,0,0,13.7-13.7v-5.459a15.4,15.4,0,0,1,4.2-10.575,1.332,1.332,0,0,0-.982-2.238Z" fill="#007900"/>
        <path id="Trazado_9366" data-name="Trazado 9366" d="M1692.881,1192.482v20.555a13.723,13.723,0,0,1-13.7-13.7v-5.459a15.4,15.4,0,0,0-4.2-10.575,1.332,1.332,0,0,1,.982-2.238h5.505A11.419,11.419,0,0,1,1692.881,1192.482Z" fill="#60a917"/>
        <path id="Trazado_9367" data-name="Trazado 9367" d="M1681.462,1181.062h-5.505a1.348,1.348,0,0,0-.457.089,11.387,11.387,0,0,1,10.529,11.331v18.708a13.6,13.6,0,0,0,6.852,1.847v-20.555A11.419,11.419,0,0,0,1681.462,1181.062Z" fill="#549414"/>
        <path id="Trazado_9368" data-name="Trazado 9368" d="M1754.183,1199.288a15.4,15.4,0,0,0-4.2,10.575v5.458a13.724,13.724,0,0,1-13.7,13.7V1208.47a11.419,11.419,0,0,1,11.419-11.42h5.505a1.331,1.331,0,0,1,.982,2.238Z" fill="#008a00"/>
        <path id="Trazado_9369" data-name="Trazado 9369" d="M1753.2,1197.05H1747.7c-.3,0-.584.066-.881.089a1.327,1.327,0,0,1,.516,2.149,15.4,15.4,0,0,0-4.2,10.575v5.458a13.7,13.7,0,0,1-6.852,11.856v1.848a13.724,13.724,0,0,0,13.7-13.7v-5.458a15.4,15.4,0,0,1,4.2-10.575,1.331,1.331,0,0,0-.982-2.238Z" fill="#007900"/>
        <path id="Trazado_9370" data-name="Trazado 9370" d="M1736.277,1208.47v20.555a13.724,13.724,0,0,1-13.7-13.7v-5.458a15.4,15.4,0,0,0-4.2-10.575,1.331,1.331,0,0,1,.982-2.238h5.505a11.42,11.42,0,0,1,11.42,11.42Z" fill="#60a917"/>
        <path id="Trazado_9371" data-name="Trazado 9371" d="M1724.857,1197.05h-5.505a1.342,1.342,0,0,0-.456.089,11.388,11.388,0,0,1,10.529,11.331v18.707a13.586,13.586,0,0,0,6.852,1.848V1208.47A11.42,11.42,0,0,0,1724.857,1197.05Z" fill="#549414"/>
        <path id="Trazado_9372" data-name="Trazado 9372" d="M1660.906,1182.2v14.846a11.42,11.42,0,0,0-11.42,11.42,11.42,11.42,0,0,0-11.42-11.42V1182.2c0-8.2,5.116-14.846,11.42-14.846S1660.906,1174.005,1660.906,1182.2Z" fill="#f5b955"/>
        <path id="Trazado_9373" data-name="Trazado 9373" d="M1649.486,1167.358a9.008,9.008,0,0,0-3.426.685c4.632,1.892,7.994,7.517,7.994,14.161v14.846a11.372,11.372,0,0,0-7.994,3.28,11.377,11.377,0,0,1,3.426,8.14,11.42,11.42,0,0,1,11.42-11.42V1182.2C1660.906,1174.005,1655.79,1167.358,1649.486,1167.358Z" fill="#fec108"/>
        <path id="Trazado_9374" data-name="Trazado 9374" d="M1692.858,1251.865l.023-38.828" fill="none" stroke="#000" stroke-linejoin="round" stroke-width="2"/>
        <path id="Trazado_9375" data-name="Trazado 9375" d="M1736.277,1251.865v-22.84" fill="none" stroke="#000" stroke-linejoin="round" stroke-width="2"/>
        <path id="Trazado_9376" data-name="Trazado 9376" d="M1747.7,1182.2v14.846a11.419,11.419,0,0,0-11.419,11.42,11.42,11.42,0,0,0-11.42-11.42V1182.2c0-8.2,5.116-14.846,11.42-14.846S1747.7,1174.005,1747.7,1182.2Z" fill="#f5b955"/>
        <path id="Trazado_9377" data-name="Trazado 9377" d="M1736.277,1167.358a9.009,9.009,0,0,0-3.426.685c4.632,1.892,7.994,7.517,7.994,14.161v14.846a11.369,11.369,0,0,0-7.994,3.28,11.381,11.381,0,0,1,3.426,8.14,11.419,11.419,0,0,1,11.419-11.42V1182.2C1747.7,1174.005,1742.58,1167.358,1736.277,1167.358Z" fill="#fec108"/>
        <path id="Trazado_9378" data-name="Trazado 9378" d="M1704.3,1166.216v14.846a11.42,11.42,0,0,0-11.42,11.42,11.419,11.419,0,0,0-11.419-11.42v-14.846c0-8.2,5.116-14.846,11.419-14.846S1704.3,1158.017,1704.3,1166.216Z" fill="#f5b955"/>
        <path id="Trazado_9379" data-name="Trazado 9379" d="M1692.881,1151.37a9.018,9.018,0,0,0-3.426.686c4.632,1.888,7.994,7.514,7.994,14.16v14.846a11.376,11.376,0,0,0-7.994,3.28,11.373,11.373,0,0,1,3.426,8.14,11.42,11.42,0,0,1,11.42-11.42v-14.846C1704.3,1158.017,1699.185,1151.37,1692.881,1151.37Z" fill="#fec108"/>
        <path id="Trazado_9380" data-name="Trazado 9380" d="M1628.93,1286.124h127.9a4.568,4.568,0,0,0,4.568-4.568v-34.138a4.551,4.551,0,0,0-5-4.547c-8.663.934-10.111,6.107-17.837,6.653v-18.4a15.986,15.986,0,0,0,13.7-15.8v-5.481a13.035,13.035,0,0,1,3.577-8.987,3.622,3.622,0,0,0-2.645-6.087h-3.216V1182.2c0-9.447-6.146-17.13-13.7-17.13s-13.7,7.683-13.7,17.13v12.562h-3.216a3.622,3.622,0,0,0-2.649,6.1c4.179,4.422,3.581,8.83,3.581,14.457a15.987,15.987,0,0,0,13.7,15.8v18.226c-7.181-1.141-8.494-6.623-19.049-6.623-10.99,0-11.812,5.822-19.8,6.717l.02-34.307a15.988,15.988,0,0,0,13.7-15.805v-5.482a13.031,13.031,0,0,1,3.577-8.987,3.623,3.623,0,0,0-2.645-6.087h-3.216v-12.562c0-9.446-6.146-17.13-13.7-17.13s-13.7,7.684-13.7,17.13v12.562h-3.216a3.622,3.622,0,0,0-2.65,6.1c4.18,4.422,3.582,8.83,3.582,14.458a15.987,15.987,0,0,0,13.7,15.805l-.018,34.307c-7.909-.891-8.921-6.717-19.784-6.717-10.666,0-11.826,5.482-19.025,6.623v-18.226a15.988,15.988,0,0,0,13.7-15.8v-5.481a13.029,13.029,0,0,1,3.576-8.987,3.622,3.622,0,0,0-2.644-6.087h-3.216V1182.2c0-9.447-6.146-17.13-13.7-17.13s-13.7,7.683-13.7,17.13v12.562h-3.216a3.622,3.622,0,0,0-2.649,6.1c4.18,4.422,3.581,8.83,3.581,14.457a15.988,15.988,0,0,0,13.7,15.8v18.4c-7.8-.542-9.086-5.71-17.835-6.653a4.554,4.554,0,0,0-5,4.547v34.138A4.568,4.568,0,0,0,1628.93,1286.124Zm118.766-70.8a11.438,11.438,0,0,1-9.135,11.192V1208.47a9.135,9.135,0,0,1,9.135-9.136h3.479C1747.187,1204.7,1747.7,1209.333,1747.7,1215.321Zm-11.419-45.679c5.038,0,9.135,5.635,9.135,12.562v12.767a13.721,13.721,0,0,0-9.135,5.939,13.725,13.725,0,0,0-9.136-5.939V1182.2C1727.141,1175.277,1731.238,1169.642,1736.277,1169.642Zm-11.42,45.679c0-6.054.525-10.6-3.479-15.987h3.479a9.136,9.136,0,0,1,9.136,9.136v18.043A11.439,11.439,0,0,1,1724.857,1215.321Zm-20.556-15.987a11.438,11.438,0,0,1-9.136,11.191v-18.043a9.136,9.136,0,0,1,9.136-9.136h3.479C1703.792,1188.711,1704.3,1193.345,1704.3,1199.334Zm-11.42-45.68c5.039,0,9.136,5.635,9.136,12.562v12.768a13.72,13.72,0,0,0-9.136,5.938,13.715,13.715,0,0,0-9.136-5.938v-12.768C1683.745,1159.289,1687.843,1153.654,1692.881,1153.654Zm-11.419,45.68c0-6.055.525-10.6-3.479-15.988h3.479a9.136,9.136,0,0,1,9.135,9.136v18.043A11.436,11.436,0,0,1,1681.462,1199.334Zm-20.556,15.987a11.439,11.439,0,0,1-9.136,11.192V1208.47a9.136,9.136,0,0,1,9.136-9.136h3.478C1660.4,1204.7,1660.906,1209.333,1660.906,1215.321Zm-11.42-45.679c5.038,0,9.136,5.635,9.136,12.562v12.767a13.723,13.723,0,0,0-9.136,5.939,13.721,13.721,0,0,0-9.136-5.939V1182.2C1640.35,1175.277,1644.448,1169.642,1649.486,1169.642Zm-11.42,45.679c0-6.054.526-10.6-3.478-15.987h3.478a9.136,9.136,0,0,1,9.136,9.136v18.043A11.439,11.439,0,0,1,1638.066,1215.321Zm11.42,38.828a1.966,1.966,0,0,0,.2-.041,20.617,20.617,0,0,0,11.26-3.725,16.058,16.058,0,0,1,9.85-3.086c9.895,0,10.468,6.852,22.063,6.852s12.174-6.852,22.086-6.852c9.694,0,10.278,6.422,21.141,6.813q.094.024.192.039c12.349,0,12.292-5.808,20.555-6.752a.026.026,0,0,1,0,.021v34.138h-127.9l-.057-34.145C1637.134,1248.309,1637.153,1254.149,1649.486,1254.149Z" fill="#00223d"/>
        <path id="Trazado_9381" data-name="Trazado 9381" d="M1665.474,1259.384a2.288,2.288,0,0,0,.616-.085,17.219,17.219,0,0,1,4.705-.582,18.675,18.675,0,0,1,3.4.285,2.285,2.285,0,0,0,.822-4.495,23.209,23.209,0,0,0-4.226-.358,21.719,21.719,0,0,0-5.938.751,2.284,2.284,0,0,0,.617,4.484Z" fill="#00223d"/>
        <path id="Trazado_9382" data-name="Trazado 9382" d="M1697.449,1266.236a2.336,2.336,0,0,0,.617-.085,17.213,17.213,0,0,1,4.7-.582,18.667,18.667,0,0,1,3.4.285,2.285,2.285,0,1,0,.822-4.495,23.187,23.187,0,0,0-4.225-.358,21.719,21.719,0,0,0-5.938.751,2.284,2.284,0,0,0,.616,4.484Z" fill="#00223d"/>
        <path id="Trazado_9383" data-name="Trazado 9383" d="M1722.573,1263.952a2.34,2.34,0,0,0,.617-.085,17.215,17.215,0,0,1,4.705-.582,18.672,18.672,0,0,1,3.4.285,2.285,2.285,0,0,0,.822-4.495,23.206,23.206,0,0,0-4.225-.358,21.726,21.726,0,0,0-5.939.751,2.284,2.284,0,0,0,.617,4.484Z" fill="#00223d"/>
        <path id="Trazado_9384" data-name="Trazado 9384" d="M1640.35,1266.236a2.336,2.336,0,0,0,.617-.085,17.213,17.213,0,0,1,4.7-.582,18.667,18.667,0,0,1,3.4.285,2.285,2.285,0,0,0,.822-4.495,23.187,23.187,0,0,0-4.225-.358,21.719,21.719,0,0,0-5.938.751,2.284,2.284,0,0,0,.616,4.484Z" fill="#00223d"/>
        <path id="Trazado_9385" data-name="Trazado 9385" d="M1715.721,1275.371a2.3,2.3,0,0,0,.617-.084,17.252,17.252,0,0,1,4.7-.583,18.772,18.772,0,0,1,3.4.286,2.285,2.285,0,1,0,.822-4.495,23.194,23.194,0,0,0-4.225-.358,21.736,21.736,0,0,0-5.939.751,2.284,2.284,0,0,0,.617,4.483Z" fill="#00223d"/>
        <path id="Trazado_9386" data-name="Trazado 9386" d="M1738.561,1272.421a2.338,2.338,0,0,0,.616-.085,17.3,17.3,0,0,1,4.7-.582,18.746,18.746,0,0,1,3.4.285,2.285,2.285,0,0,0,.823-4.495,23.211,23.211,0,0,0-4.226-.358,21.72,21.72,0,0,0-5.938.751,2.284,2.284,0,0,0,.617,4.484Z" fill="#00223d"/>
        <path id="Trazado_9387" data-name="Trazado 9387" d="M1674.694,1271.42a2.284,2.284,0,0,0,2.816,1.583,17.214,17.214,0,0,1,4.7-.582,18.648,18.648,0,0,1,3.4.285,2.285,2.285,0,0,0,.823-4.495,23.2,23.2,0,0,0-4.226-.358,21.725,21.725,0,0,0-5.938.751,2.283,2.283,0,0,0-1.583,2.816Z" fill="#00223d"/>
        <path id="Trazado_9388" data-name="Trazado 9388" d="M1649.571,1273.7a2.283,2.283,0,0,0,2.816,1.583,17.253,17.253,0,0,1,4.705-.583,18.771,18.771,0,0,1,3.4.286,2.285,2.285,0,0,0,.822-4.495,23.2,23.2,0,0,0-4.225-.358,21.737,21.737,0,0,0-5.939.751,2.284,2.284,0,0,0-1.582,2.816Z" fill="#00223d"/>
      </g>
    </g>
  </g>
</svg>
