<?xml version="1.0" encoding="utf-8"?>
<!-- Generator: Adobe Illustrator 25.2.0, SVG Export Plug-In . SVG Version: 6.00 Build 0)  -->
<svg version="1.1" id="Layer_1" xmlns="http://www.w3.org/2000/svg" xmlns:xlink="http://www.w3.org/1999/xlink" x="0px" y="0px"
	 viewBox="0 0 109.7 153.1" style="enable-background:new 0 0 109.7 153.1;" xml:space="preserve">
<style type="text/css">
	.st0{fill:#00223D;}
	.st1{fill:#FFDA8F;}
	.st2{fill:#FF7B79;}
	.st3{fill:#FCE8D0;}
	.st4{fill:#9BC5FF;}
</style>
<path id="Trazado_25752" class="st0" d="M16.9,116.3c0.6,0,1.3,0.1,1.8,0.4c0.5,0.3,1,0.7,1.3,1.2c0.3,0.5,0.5,1.1,0.5,1.8
	c0,0.9-0.3,1.7-0.9,2.4l-3.1,4.2h-2.2l2.6-3.3c-0.1,0-0.3,0-0.4,0c-0.5,0-1.1-0.1-1.6-0.4c-0.5-0.3-0.9-0.7-1.2-1.1
	c-0.3-0.5-0.5-1.1-0.5-1.7c0-0.9,0.4-1.8,1.1-2.5C15,116.6,15.9,116.3,16.9,116.3z M18.7,119.8c0.1-0.9-0.6-1.7-1.5-1.7
	c-0.1,0-0.2,0-0.2,0c-0.5,0-0.9,0.2-1.3,0.5c-0.3,0.3-0.5,0.8-0.5,1.2c0,0.5,0.1,0.9,0.5,1.3c0.3,0.3,0.8,0.5,1.3,0.5
	c0.5,0,0.9-0.2,1.3-0.5C18.5,120.7,18.7,120.3,18.7,119.8L18.7,119.8z M31.5,124.4c0,0.6,0,1.2,0.2,1.7v0.2h-1.8l-0.2-0.8
	c-0.3,0.3-0.6,0.5-1,0.7c-0.4,0.2-0.8,0.2-1.3,0.2c-0.2,0-0.4,0-0.7-0.1c-0.2,0-0.4-0.1-0.6-0.2c-0.2-0.1-0.3-0.2-0.5-0.4
	c-0.1-0.2-0.3-0.4-0.3-0.6c-0.1-0.2-0.1-0.5-0.1-0.8c0-0.3,0-0.5,0.1-0.8c0.1-0.2,0.2-0.4,0.3-0.6c0.2-0.2,0.3-0.3,0.6-0.4
	c0.2-0.1,0.5-0.2,0.7-0.3c0.3-0.1,0.6-0.2,0.8-0.2l1.2-0.3c0.2,0,0.4-0.1,0.5-0.2c0.1-0.1,0.2-0.2,0.2-0.4c0-0.3-0.1-0.5-0.4-0.7
	c-0.3-0.1-0.5-0.2-0.8-0.2c-0.7-0.1-1.3,0.4-1.4,1c0,0,0,0,0,0.1l-1.7-0.3c0.1-0.7,0.5-1.2,1-1.6c0.7-0.4,1.4-0.6,2.2-0.5
	c2,0,3,0.8,3,2.5L31.5,124.4z M28,125.1c0.5,0,0.9-0.2,1.2-0.5c0.3-0.4,0.5-1,0.5-1.5l-1.7,0.5c-0.2,0-0.5,0.1-0.7,0.3
	c-0.2,0.1-0.3,0.3-0.2,0.5c0,0.2,0.1,0.4,0.3,0.6C27.5,125,27.8,125.1,28,125.1z M37.5,119.1c0.4,0,0.9,0.1,1.3,0.3
	c0.8,0.3,1.5,1,1.8,1.9c0.4,1,0.4,2.1,0,3.1c-0.3,0.9-1,1.5-1.8,1.9c-0.4,0.2-0.9,0.3-1.3,0.3c-0.5,0-0.9-0.1-1.3-0.3
	c-0.4-0.2-0.7-0.4-0.9-0.8l0,0.9h-1.9v-10.5h2v4.3c0.2-0.3,0.5-0.6,0.9-0.7C36.6,119.2,37.1,119.1,37.5,119.1L37.5,119.1z
	 M37.1,124.8c0.5,0,1-0.2,1.3-0.6c0.4-0.4,0.6-0.9,0.5-1.5c0-0.5-0.2-1.1-0.5-1.5c-0.3-0.4-0.8-0.6-1.3-0.6c-0.5,0-1,0.2-1.3,0.6
	c-0.4,0.4-0.6,0.9-0.5,1.5c0,0.5,0.2,1.1,0.5,1.5C36.1,124.6,36.6,124.8,37.1,124.8z M44.3,120.4c0.2-0.4,0.5-0.7,0.9-0.8
	c0.4-0.2,0.9-0.4,1.4-0.4v1.8c-0.6-0.1-1.2,0.1-1.7,0.4c-0.4,0.4-0.6,0.9-0.5,1.5v3.4h-2v-7h1.9L44.3,120.4z M48.7,118.2
	c-0.3,0-0.6-0.1-0.8-0.3c-0.2-0.2-0.3-0.5-0.3-0.8c0-0.3,0.1-0.6,0.3-0.8c0.2-0.2,0.5-0.3,0.8-0.3c0.6,0,1.1,0.5,1.1,1.1
	C49.9,117.7,49.4,118.2,48.7,118.2z M47.7,126.3v-7h2v7H47.7z M51.8,126.3v-10.5h2v10.5H51.8z M62.3,116.4h1.9v9.9h-2v-7.9l-2.3,2.1
	v-2L62.3,116.4z M70.9,116.3c0.6,0,1.3,0.1,1.8,0.4c0.5,0.3,1,0.7,1.3,1.2c0.3,0.5,0.5,1.1,0.5,1.8c0,0.9-0.3,1.7-0.9,2.4l-3.1,4.2
	h-2.2l2.6-3.3c-0.1,0-0.3,0-0.4,0c-0.5,0-1.1-0.1-1.6-0.4c-0.5-0.3-0.9-0.7-1.2-1.1c-0.3-0.5-0.5-1.1-0.5-1.7c0-0.9,0.4-1.8,1.1-2.5
	C69.1,116.6,70,116.3,70.9,116.3z M72.7,119.8c0.1-0.9-0.6-1.7-1.5-1.7c-0.1,0-0.2,0-0.2,0c-0.5,0-0.9,0.2-1.3,0.5
	c-0.3,0.3-0.5,0.8-0.5,1.2c0,0.5,0.1,0.9,0.5,1.3c0.3,0.3,0.8,0.5,1.3,0.5c0.5,0,0.9-0.2,1.3-0.5C72.6,120.7,72.7,120.3,72.7,119.8
	L72.7,119.8z M83.1,122.7v1.8h-1.2v1.9h-2v-1.9h-4.5v-1.8l3.5-6.2h3v6.2H83.1z M77.2,122.7H80v-5.1L77.2,122.7z M87.7,126.4
	c-0.9,0-1.8-0.3-2.6-0.8c-0.7-0.5-1.1-1.4-1-2.2c0-0.5,0.1-1.1,0.4-1.5c0.3-0.4,0.7-0.8,1.1-1c-0.3-0.2-0.6-0.5-0.8-0.8
	c-0.2-0.3-0.3-0.7-0.3-1.1c0-0.7,0.3-1.4,0.9-1.9c0.6-0.5,1.5-0.8,2.3-0.7c0.8,0,1.6,0.2,2.2,0.7c0.6,0.5,0.9,1.2,0.9,1.9
	c0,0.4-0.1,0.8-0.3,1.1c-0.2,0.3-0.5,0.6-0.8,0.8c0.5,0.2,0.9,0.6,1.1,1c0.3,0.5,0.4,1,0.4,1.5c0,0.6-0.2,1.1-0.5,1.6
	c-0.3,0.5-0.8,0.8-1.3,1.1C88.9,126.3,88.3,126.4,87.7,126.4z M87.7,120.3c0.3,0,0.7-0.1,0.9-0.4c0.3-0.2,0.4-0.6,0.4-0.9
	c0-0.3-0.1-0.7-0.4-0.9c-0.5-0.5-1.3-0.5-1.9,0c-0.3,0.2-0.4,0.6-0.4,0.9c0,0.3,0.1,0.7,0.4,0.9C87,120.2,87.3,120.3,87.7,120.3z
	 M87.7,124.7c0.4,0,0.8-0.1,1.2-0.4c0.3-0.3,0.5-0.7,0.5-1.1c0-0.4-0.2-0.8-0.5-1.1c-0.3-0.3-0.7-0.4-1.2-0.4
	c-0.4,0-0.8,0.1-1.2,0.4c-0.3,0.3-0.5,0.7-0.5,1.1c0,0.4,0.1,0.8,0.5,1.1C86.8,124.5,87.2,124.7,87.7,124.7L87.7,124.7z M28.7,139.3
	c0.5,0.1,1,0.4,1.4,0.8c0.4,0.4,0.5,1,0.5,1.6c0,0.7-0.2,1.4-0.7,1.9c-0.5,0.5-1.2,0.8-2,0.7h-3.7v-9.6H27c0.8,0,1.5,0.2,2.1,0.7
	c0.5,0.5,0.8,1.1,0.8,1.8c0,0.4-0.1,0.9-0.3,1.2C29.4,138.8,29.1,139.1,28.7,139.3L28.7,139.3z M28.7,137.3c0-0.4-0.2-0.8-0.5-1.1
	c-0.3-0.3-0.8-0.5-1.2-0.4h-1.7v3.1h2c0.4,0,0.8-0.2,1.1-0.5C28.6,138.1,28.7,137.7,28.7,137.3z M27.7,143.2c0.5,0,0.9-0.1,1.3-0.5
	c0.3-0.3,0.5-0.7,0.5-1.2c0-0.4-0.2-0.9-0.5-1.2c-0.4-0.3-0.8-0.5-1.3-0.5h-2.3v3.3L27.7,143.2z M35.4,144.4c-0.6,0-1.2-0.1-1.7-0.4
	c-0.5-0.3-0.9-0.7-1.2-1.2c-0.3-0.6-0.5-1.2-0.4-1.9c0-0.9,0.3-1.9,1-2.5c1.4-1.3,3.5-1.3,4.9,0c0.7,0.7,1,1.6,1,2.5
	c0,0.9-0.3,1.9-1,2.5C37.2,144.1,36.3,144.5,35.4,144.4z M35.4,143.4c0.6,0,1.2-0.2,1.6-0.7c0.8-1.1,0.8-2.6,0-3.6
	c-0.4-0.5-1-0.7-1.6-0.7c-0.6,0-1.2,0.2-1.6,0.7c-0.8,1.1-0.8,2.6,0,3.6C34.2,143.2,34.8,143.5,35.4,143.4L35.4,143.4z M45.5,137.6
	h1.1v6.4c0.1,1-0.2,1.9-0.9,2.6c-0.6,0.6-1.5,1-2.4,0.9c-1.4,0.1-2.8-0.7-3.3-2.1l1-0.5c0.3,1,1.2,1.6,2.2,1.6
	c0.6,0,1.2-0.2,1.6-0.7c0.4-0.5,0.6-1.2,0.5-1.8v-1.2c-0.2,0.4-0.6,0.7-1,1c-0.4,0.2-0.9,0.4-1.4,0.4c-0.8,0-1.6-0.3-2.2-0.9
	c-1.2-1.4-1.2-3.4,0-4.8c0.6-0.6,1.4-1,2.2-0.9c0.5,0,1,0.1,1.4,0.4c0.4,0.2,0.7,0.6,1,1L45.5,137.6z M43.4,143.1
	c0.6,0,1.2-0.2,1.5-0.7c0.8-0.9,0.8-2.4,0-3.3c-0.8-0.9-2.1-0.9-3-0.1c0,0-0.1,0.1-0.1,0.1c-0.8,0.9-0.8,2.4,0,3.3
	C42.2,142.9,42.8,143.1,43.4,143.1z M51.9,144.4c-0.6,0-1.2-0.1-1.7-0.4c-0.5-0.3-0.9-0.7-1.2-1.2c-0.3-0.6-0.5-1.2-0.4-1.9
	c0-0.9,0.3-1.9,1-2.5c1.4-1.3,3.5-1.3,4.9,0c0.7,0.7,1,1.6,1,2.5c0,0.9-0.3,1.9-1,2.5C53.7,144.1,52.8,144.5,51.9,144.4z
	 M51.9,143.4c0.6,0,1.2-0.2,1.6-0.7c0.8-1.1,0.8-2.6,0-3.6c-0.4-0.5-1-0.7-1.6-0.7c-0.6,0-1.2,0.2-1.6,0.7c-0.8,1.1-0.8,2.6,0,3.6
	C50.7,143.2,51.3,143.5,51.9,143.4z M59.3,144.3c-0.5,0-1-0.1-1.3-0.5c-0.3-0.4-0.5-0.8-0.5-1.3v-4h-1.4v-0.9h0.5
	c0.3,0,0.5-0.1,0.7-0.2c0.2-0.2,0.2-0.5,0.2-0.8v-1.2h1.1v2.2h1.5v0.9h-1.5v3.8c0,0.3,0.1,0.5,0.3,0.7c0.2,0.2,0.4,0.3,0.7,0.3h0.6
	v0.9H59.3z M63.4,144.4c-0.5,0-1.1-0.1-1.5-0.5c-0.4-0.3-0.6-0.9-0.6-1.4c0-0.3,0.1-0.6,0.2-0.9c0.1-0.2,0.3-0.5,0.5-0.6
	c0.2-0.2,0.5-0.3,0.8-0.4c0.3-0.1,0.7-0.2,1-0.2l1.1-0.2c0.4-0.1,0.6-0.3,0.6-0.6c0-0.4-0.1-0.8-0.4-1c-0.3-0.2-0.7-0.3-1.1-0.3
	c-0.4,0-0.7,0.1-1.1,0.3c-0.3,0.2-0.5,0.6-0.5,0.9l-1.1-0.2c0.1-0.6,0.4-1.1,0.8-1.4c0.5-0.3,1.2-0.5,1.8-0.5c0.3,0,0.7,0,1,0.1
	c0.3,0.1,0.6,0.2,0.8,0.4c0.3,0.2,0.5,0.4,0.6,0.7c0.1,0.3,0.2,0.7,0.2,1.1v2.8c0,0.2,0,0.5,0.2,0.7c0.1,0.1,0.3,0.2,0.5,0.2h0.1
	v0.9h-0.6c-0.6,0.1-1.2-0.3-1.3-0.9h-0.1C65.1,144.1,64.2,144.5,63.4,144.4L63.4,144.4z M63.6,143.5c0.6,0,1.1-0.2,1.4-0.6
	c0.4-0.5,0.6-1.1,0.5-1.8l-1.8,0.3c-0.4,0-0.7,0.2-1,0.4c-0.2,0.2-0.4,0.4-0.3,0.7c0,0.3,0.1,0.6,0.3,0.7
	C63.1,143.4,63.3,143.5,63.6,143.5z M70.1,143.3h3.6v1h-5.4l3.5-5.8h-3.3v-1h5.1L70.1,143.3z M77.9,144.4c-0.6,0-1.2-0.1-1.7-0.4
	c-0.5-0.3-0.9-0.7-1.2-1.2c-0.3-0.6-0.5-1.2-0.4-1.9c0-0.9,0.3-1.9,1-2.5c1.4-1.3,3.5-1.3,4.9,0c0.7,0.7,1,1.6,0.9,2.5
	c0,0.9-0.3,1.9-1,2.5C79.7,144.1,78.8,144.5,77.9,144.4L77.9,144.4z M77.9,143.4c0.6,0,1.2-0.2,1.6-0.7c0.8-1.1,0.8-2.6,0-3.6
	c-0.4-0.5-1-0.7-1.6-0.7c-0.6,0-1.2,0.2-1.6,0.7c-0.8,1.1-0.8,2.6,0,3.6C76.7,143.2,77.3,143.5,77.9,143.4L77.9,143.4z"/>
<g id="Grupo_16587" transform="translate(-879.378 -5169.46)">
	<g id="Grupo_16194" transform="translate(1501.865 -216.398)">
		<path id="Trazado_9870" class="st1" d="M-540.1,5426.6l6.7-20.2l-20.2,6.7l-9.8-19.6l-8,16.1l-31.2,29.3l0,0l-12.2,6.1l19.6,9.8
			l-6.7,20.2l20.2-6.7l9.8,19.6l8-16.1l31.2-29.3l12.2-6.1L-540.1,5426.6z"/>
		<path id="Trazado_9871" class="st2" d="M-515,5478.2l-15.2,15.1l-6.1-6.1l15.1-15.1L-515,5478.2z"/>
		<path id="Trazado_9872" class="st3" d="M-561.7,5449.7l-3-3c-1.7-1.7-1.7-4.4,0-6.1c0,0,0,0,0,0c1.7-1.7,4.4-1.7,6.1,0
			c0,0,0,0,0,0l3,3c-1.7-1.7-1.7-4.4,0-6.1s4.4-1.7,6.1,0c0,0,0,0,0,0l6.1,6.1l3-3c1.7-1.7,4.4-1.7,6.1,0c0,0,0,0,0,0
			c0.6,0.6,1.2,1.2,1.8,1.9c2.9,3.8,4.4,8.6,4.2,13.4v3.7c0,3.4,1.4,6.7,3.8,9.1l3.6,3.6l-15.1,15.1l0,0l-4.3-4.3
			c-5.6,1.9-11.7,0.4-15.9-3.7l-14.4-14.4c-1.7-1.7-1.7-4.4,0-6.1c0,0,0,0,0,0c1.7-1.7,4.4-1.7,6.1,0l-3-3c-1.7-1.7-1.7-4.4,0-6.1
			C-566.1,5448-563.4,5448-561.7,5449.7C-561.7,5449.7-561.7,5449.7-561.7,5449.7L-561.7,5449.7z"/>
		<path id="Trazado_9873" class="st3" d="M-591.8,5437.7l-3,3c-1.7,1.7-4.4,1.7-6.1,0c0,0,0,0,0,0c-0.6-0.6-1.2-1.2-1.8-1.9l0,0
			c-3-3.8-4.6-8.5-4.4-13.4v-3.7c0.1-3.4-1.2-6.7-3.6-9.1l-3.6-3.6l15.1-15.1l4.3,4.3c5.6-1.9,11.7-0.4,15.9,3.7l14.4,14.4
			c1.7,1.7,1.7,4.4,0,6.1c-1.7,1.7-4.4,1.7-6.1,0l3,3c1.7,1.7,1.7,4.4,0,6.1c0,0,0,0,0,0c-1.7,1.7-4.4,1.7-6.1,0l3,3
			c1.7,1.7,1.7,4.4,0,6.1c0,0,0,0,0,0c-1.7,1.7-4.4,1.7-6.1,0c0,0,0,0,0,0l-3-3c1.7,1.7,1.7,4.4,0,6.1c0,0,0,0,0,0
			c-1.7,1.7-4.4,1.7-6.1,0c0,0,0,0,0,0L-591.8,5437.7z"/>
		<path id="Trazado_9874" class="st4" d="M-599.1,5394.1l-15.1,15.1l-6.1-6.1l15.2-15.1L-599.1,5394.1z"/>
	</g>
	<g id="Grupo_16195" transform="translate(1499.723 -218.54)">
		<circle id="Elipse_691" class="st0" cx="-526.3" cy="5460" r="2.1"/>
		<path id="Trazado_9875" class="st0" d="M-521,5469.2c-0.4-0.4-0.7-0.8-1.1-1.2c-0.7-1-2-1.2-3-0.4c0,0,0,0,0,0c-1,0.7-1.2,2-0.4,3
			c0,0,0,0,0,0c0.5,0.6,0.9,1.2,1.5,1.7l2.1,2.1l-12.1,12.1l-2.8-2.8c-0.6-0.6-1.4-0.8-2.2-0.5c-4.8,1.6-10.1,0.4-13.7-3.2
			l-14.4-14.4c-0.8-0.8-0.8-2.2,0-3c0.8-0.8,2.2-0.8,3,0c0.8,0.8,2.2,0.8,3,0c0,0,0.1-0.1,0.1-0.2c0.7-0.9,0.6-2.1-0.1-2.9l-3-3
			c-0.8-0.8-0.8-2.2,0-3c0.8-0.8,2.2-0.8,3,0l3,3c0.8,0.8,2.2,0.8,3,0c0,0,0,0,0,0c0.8-0.8,0.8-2.2,0-3l-6.1-6.1
			c-0.8-0.8-0.8-2.2,0-3c0,0,0,0,0,0c0.8-0.8,2.2-0.8,3,0c0,0,0,0,0,0l6.1,6.1c0.8,0.8,2.2,0.8,3,0c0,0,0,0,0,0c0.8-0.8,0.8-2.2,0-3
			l-3-3c-0.8-0.8-0.8-2.2,0-3c0.8-0.8,2.2-0.8,3,0l6.1,6.1l0,0l6.1,6.1c0.8,0.8,2.2,0.8,3,0c0.8-0.8,0.8-2.2,0-3c0,0,0,0,0,0
			l-4.5-4.5l1.5-1.5c0.8-0.8,2.2-0.8,3,0c0,0,0,0,0,0c0.6,0.5,1.1,1.1,1.6,1.7c1.2,1.5,2.1,3.2,2.7,5.1c0.4,1.1,1.6,1.7,2.7,1.4
			c1.1-0.4,1.7-1.6,1.4-2.7c-0.5-1.5-1.1-2.9-2-4.3l9.9-5c0.7-0.4,1.2-1.1,1.2-1.9c0-0.8-0.5-1.6-1.2-1.9l-17.9-9l6.1-18.4
			c0.3-0.8,0.1-1.6-0.5-2.2c-0.6-0.6-1.4-0.8-2.2-0.5l-18.4,6.1l-9-17.9c-0.4-0.7-1.1-1.2-1.9-1.2s-1.6,0.5-1.9,1.2l-6.7,13.4
			l-5.4-5.4c-4.4-4.4-10.7-6.2-16.8-4.6c-2.4-2.4-7.7-7.7-9.5-9.5c-0.8-0.8-2.2-0.8-3,0l-15.2,15.1c-0.4,0.4-0.6,0.9-0.6,1.5
			c0,0.6,0.2,1.1,0.6,1.5l9.7,9.6c2,2,3,4.8,3,7.6v3.7c-0.1,4.4,1.1,8.8,3.4,12.6l-9.9,5c-0.7,0.4-1.2,1.1-1.2,1.9
			c0,0.8,0.5,1.6,1.2,1.9l17.9,9l-6.1,18.4c-0.3,0.8-0.1,1.6,0.5,2.2c0.6,0.6,1.4,0.8,2.2,0.5l18.4-6.1l9,17.9
			c0.4,0.7,1.1,1.2,1.9,1.2c0.8,0,1.6-0.5,1.9-1.2l6.7-13.4l5.4,5.4c4.4,4.4,10.7,6.2,16.8,4.6l9.5,9.5c0.8,0.8,2.2,0.8,3,0
			l15.2-15.1c0.4-0.4,0.6-0.9,0.6-1.5c0-0.6-0.2-1.1-0.6-1.5L-521,5469.2z M-603,5393.2l3,3l-12.1,12.1l-3-3L-603,5393.2z
			 M-609.1,5411.3l12.1-12.1l2.8,2.8c0.6,0.6,1.4,0.8,2.2,0.5c4.8-1.6,10.1-0.4,13.7,3.2l14.4,14.4c0.8,0.8,0.8,2.2,0,3
			c-0.8,0.8-2.2,0.8-3,0c-0.8-0.8-2-0.8-2.9-0.1c-0.9,0.8-1,2.1-0.3,3c0,0,0.1,0.1,0.1,0.1l3,3c0.8,0.8,0.8,2.2,0,3
			c-0.8,0.8-2.2,0.8-3,0l-3-3c-0.8-0.8-2.2-0.8-3,0c-0.8,0.8-0.8,2.2,0,3l6.1,6.1c0.8,0.8,0.8,2.2,0,3c0,0,0,0,0,0
			c-0.8,0.8-2.2,0.8-3,0c0,0,0,0,0,0l-6.1-6.1c-0.8-0.8-2.2-0.8-3,0c-0.8,0.8-0.8,2.2,0,3l3,3c0.8,0.8,0.8,2.2,0,3
			c-0.8,0.8-2.2,0.8-3,0l-12.1-12.1c-0.8-0.8-2.2-0.8-3,0c-0.8,0.8-0.8,2.2,0,3c0,0,0,0,0,0l4.5,4.5l-1.5,1.5c-0.8,0.8-2.2,0.8-3,0
			c0,0,0,0,0,0c-0.6-0.5-1.1-1.1-1.6-1.7l0,0c-2.7-3.4-4.1-7.7-3.9-12v-3.7c0.1-4-1.5-7.8-4.2-10.6L-609.1,5411.3z M-569.8,5485.2
			l-7.9-15.8c-0.5-1-1.6-1.4-2.6-1.1l-16.1,5.4l5.4-16.1c0.3-1-0.1-2.1-1.1-2.6l-15.8-7.9l6.9-3.4c0.3,0.3,0.4,0.4,0.7,0.7
			c2.5,2.5,6.6,2.5,9.1,0c0,0,0,0,0,0l1.5-1.5l4.5,4.5c2.5,2.5,6.6,2.5,9.1,0c0.6-0.6,1-1.2,1.4-2c2.5,1.4,5.7,1,7.7-1
			c2.1-2,2.5-5.2,1-7.7c0.7-0.3,1.4-0.8,2-1.4c2-2.1,2.5-5.2,1-7.7c0.7-0.3,1.4-0.8,2-1.4c2.5-2.5,2.5-6.6,0-9.1l-5.8-5.8l5.4-10.9
			l7.9,15.8c0.5,1,1.6,1.4,2.6,1.1l16.1-5.4l-5.4,16.1c-0.3,1,0.1,2.1,1.1,2.6l15.8,7.9l-6.9,3.4c0,0-0.1-0.1-0.1-0.1l-0.6-0.6
			c-2.5-2.5-6.6-2.5-9.1,0c0,0,0,0,0,0l-1.5,1.5l-4.5-4.5c-1.2-1.2-2.8-1.9-4.5-1.9c-1.7,0-3.3,0.7-4.5,1.9c-0.6,0.6-1,1.2-1.4,2
			c-1-0.6-2.1-0.8-3.2-0.8c-1.7,0-3.3,0.7-4.5,1.9c-2.1,2-2.5,5.2-1,7.7c-0.7,0.3-1.4,0.8-2,1.4c-2,2.1-2.5,5.2-1,7.7
			c-0.7,0.3-1.4,0.8-2,1.4c-2.5,2.5-2.5,6.6,0,9.1l5.8,5.8L-569.8,5485.2z M-528,5492.5l-3-3l12.1-12.1l3,3L-528,5492.5z"/>
	</g>
</g>
</svg>
