<svg xmlns="http://www.w3.org/2000/svg" width="140" height="133" viewBox="0 0 140 133">
  <g id="Grupo_16040" data-name="Grupo 16040" transform="translate(-846 -7420)">
    <circle id="Elipse_666" data-name="Elipse 666" cx="66.5" cy="66.5" r="66.5" transform="translate(846 7553) rotate(-90)" fill="#fcfcae"/>
    <g id="Grupo_16039" data-name="Grupo 16039" transform="translate(-2253.096 6506.358)">
      <g id="Grupo_16037" data-name="Grupo 16037" transform="translate(3120.459 916.005)">
        <path id="Trazado_9606" data-name="Trazado 9606" d="M3142.59,919.228l-18.907,18.907v97.373h87.209V919.228Z" transform="translate(-3123.682 -919.228)" fill="#eefaff"/>
        <path id="Trazado_9607" data-name="Trazado 9607" d="M3348.861,1035.952c5.14,5.14,2.619,12.992-2.964,15.421-5.757,2.508-16.123,10.238-20.562,14.679l-1.366,1.363v0l-6.686-6.686,1.378-1.375c4.487-4.5,12.265-14.744,14.8-20.484,2.451-5.542,10.243-8.076,15.4-2.921Z" transform="translate(-3235.375 -984.952)" fill="#ffda8f"/>
        <path id="Trazado_9608" data-name="Trazado 9608" d="M3298.751,1098.823a9.454,9.454,0,0,1,0,13.37l-3.342,3.342-33.423-33.423,3.342-3.342a9.451,9.451,0,0,1,13.37,0l20.053,20.053Z" transform="translate(-3203.472 -1009.673)" fill="#ff7b79"/>
        <path id="Trazado_9609" data-name="Trazado 9609" d="M3194.068,989.615h47.977v9.454h-47.977Z" transform="translate(-3164.289 -959.836)" fill="#9bc5ff"/>
        <circle id="Elipse_669" data-name="Elipse 669" cx="9.454" cy="9.454" r="9.454" transform="translate(43.959 86.501)" fill="#ff7b79"/>
        <path id="Trazado_9610" data-name="Trazado 9610" d="M3146.027,989.615h20.325v9.454h-20.325Z" transform="translate(-3136.573 -959.836)" fill="#8690a6"/>
      </g>
      <g id="Grupo_16038" data-name="Grupo 16038" transform="translate(3118.096 913.642)">
        <circle id="Elipse_670" data-name="Elipse 670" cx="2.363" cy="2.363" r="2.363" transform="translate(48.686 77.047)" fill="#00223d"/>
        <path id="Trazado_9611" data-name="Trazado 9611" d="M3140.44,986.392v9.454a2.363,2.363,0,0,0,2.364,2.363h68.3a2.364,2.364,0,0,0,2.364-2.363v-9.454a2.364,2.364,0,0,0-2.364-2.363h-68.3A2.363,2.363,0,0,0,3140.44,986.392Zm25.052,2.363h43.25v4.727h-43.25Zm-20.325,0h15.6v4.727h-15.6Z" transform="translate(-3130.987 -954.25)" fill="#00223d"/>
        <path id="Trazado_9612" data-name="Trazado 9612" d="M3142.8,1033.445h68.3a2.364,2.364,0,1,0,0-4.727h-68.3a2.364,2.364,0,1,0,0,4.727Z" transform="translate(-3130.987 -980.032)" fill="#00223d"/>
        <path id="Trazado_9613" data-name="Trazado 9613" d="M3142.8,1055.79h68.3a2.363,2.363,0,1,0,0-4.727h-68.3a2.363,2.363,0,1,0,0,4.727Z" transform="translate(-3130.987 -992.923)" fill="#00223d"/>
        <path id="Trazado_9614" data-name="Trazado 9614" d="M3142.8,1078.135h39.233a2.364,2.364,0,0,0,0-4.727H3142.8a2.364,2.364,0,1,0,0,4.727Z" transform="translate(-3130.987 -1005.815)" fill="#00223d"/>
        <path id="Trazado_9615" data-name="Trazado 9615" d="M3142.8,1100.48h29.778a2.364,2.364,0,1,0,0-4.727H3142.8a2.364,2.364,0,1,0,0,4.727Z" transform="translate(-3130.987 -1018.706)" fill="#00223d"/>
        <path id="Trazado_9616" data-name="Trazado 9616" d="M3190.845,1132.278H3202.9a11.817,11.817,0,1,0,0-4.727h-12.055a2.363,2.363,0,0,0,0,4.727Zm23.634-4.727H3207.8a7.09,7.09,0,1,1,0,4.727h6.683a2.363,2.363,0,1,0,0-4.727Z" transform="translate(-3158.703 -1031.597)" fill="#00223d"/>
        <path id="Trazado_9617" data-name="Trazado 9617" d="M3297.8,951.887a2.363,2.363,0,0,0,0-4.727h-4.727a2.363,2.363,0,1,0,0,4.727Z" transform="translate(-3217.681 -932.979)" fill="#00223d"/>
        <path id="Trazado_9618" data-name="Trazado 9618" d="M3264.283,951.887a2.363,2.363,0,1,0,0-4.727h-4.727a2.363,2.363,0,0,0,0,4.727Z" transform="translate(-3198.344 -932.979)" fill="#00223d"/>
        <path id="Trazado_9619" data-name="Trazado 9619" d="M3230.766,951.887a2.363,2.363,0,1,0,0-4.727h-4.727a2.363,2.363,0,0,0,0,4.727Z" transform="translate(-3179.007 -932.979)" fill="#00223d"/>
        <circle id="Elipse_671" data-name="Elipse 671" cx="2.363" cy="2.363" r="2.363" transform="translate(43.959 116.28)" fill="#00223d"/>
        <path id="Trazado_9620" data-name="Trazado 9620" d="M3120.459,1034.649h33.324a2.364,2.364,0,0,0,0-4.727h-30.96V937.276h16.544a2.363,2.363,0,0,0,2.363-2.363V918.369h63.575v66.8c-1.072,1.268-2.073,2.382-2.939,3.271l-5.01-5.01a11.807,11.807,0,0,0-16.713,0l-3.342,3.342a2.364,2.364,0,0,0,0,3.342l28,28v11.8h-30.251a2.364,2.364,0,0,0,0,4.727h32.615a2.364,2.364,0,0,0,2.364-2.363v-9.439l.692.693a2.365,2.365,0,0,0,3.343,0l3.342-3.342a11.812,11.812,0,0,0,0-16.712l-5.009-5.01c4.482-4.368,14.344-11.625,19.525-13.881a11.845,11.845,0,1,0-15.536-15.624,63.216,63.216,0,0,1-6.356,10.179V916.005a2.364,2.364,0,0,0-2.364-2.363h-68.3a2.391,2.391,0,0,0-1.671.692l-18.907,18.907a2.374,2.374,0,0,0-.692,1.671v97.372a2.364,2.364,0,0,0,2.364,2.363Zm93.606-27.822a7.087,7.087,0,0,1,0,10.028l-1.67,1.671-30.081-30.081,1.671-1.671a7.083,7.083,0,0,1,10.027,0Zm-4.544-19.327c4.1-4.939,9.144-11.993,11.19-16.617a7.118,7.118,0,1,1,9.326,9.378c-5.881,2.562-16.116,10.115-20.981,14.872l-3.348-3.348c1.121-1.147,2.43-2.616,3.813-4.285ZM3137,921.711v10.838h-10.838Z" transform="translate(-3118.096 -913.642)" fill="#00223d"/>
      </g>
    </g>
  </g>
</svg>
