<svg xmlns="http://www.w3.org/2000/svg" xmlns:xlink="http://www.w3.org/1999/xlink" width="242.597" height="168.326" viewBox="0 0 242.597 168.326">
  <defs>
    <clipPath id="clip-path">
      <circle id="Elipse_667" data-name="Elipse 667" cx="24.807" cy="24.807" r="24.807" fill="none"/>
    </clipPath>
  </defs>
  <g id="Grupo_16583" data-name="Grupo 16583" transform="translate(1214.783 -277.674)">
    <path id="Trazado_25739" data-name="Trazado 25739" d="M5.586,4.889H8.262V19h-2.8V7.779L2.217,10.8V7.906ZM17.939,4.7a5.456,5.456,0,0,1,2.632.64,4.815,4.815,0,0,1,1.87,1.768,4.739,4.739,0,0,1,.684,2.5,5.765,5.765,0,0,1-1.26,3.438L17.471,19h-3.2l3.652-4.775a4.675,4.675,0,0,1-.635.039,4.617,4.617,0,0,1-2.236-.562,4.409,4.409,0,0,1-1.685-1.636,4.625,4.625,0,0,1-.649-2.441A4.525,4.525,0,0,1,14.248,6.1,5.3,5.3,0,0,1,17.939,4.7Zm2.539,5.02a2.307,2.307,0,0,0-2.461-2.49,2.537,2.537,0,0,0-1.831.688,2.379,2.379,0,0,0-.728,1.772,2.414,2.414,0,0,0,.684,1.816,2.477,2.477,0,0,0,1.846.713,2.364,2.364,0,0,0,1.787-.713A2.55,2.55,0,0,0,20.479,9.723ZM28.8,16.49h6.016V19H24.863V16.881l5.615-5.732A3.534,3.534,0,0,0,31.7,8.717a1.72,1.72,0,0,0-.5-1.309,1.98,1.98,0,0,0-1.421-.479q-2,0-2,2.275V10.25l-2.8-.283v-.7A4.4,4.4,0,0,1,26.26,5.87a4.937,4.937,0,0,1,3.5-1.2,5.172,5.172,0,0,1,3.4,1.084,3.653,3.653,0,0,1,1.313,2.979,4.224,4.224,0,0,1-.444,1.934,8.082,8.082,0,0,1-1.411,1.885Zm18.467-2.676v2.51h-1.7V19H42.754V16.324H36.26V13.8l5-8.916h4.307v8.926Zm-8.4,0h3.887V6.578Zm15.527,1.162V12.623h7v2.354ZM73.6,4.889h2.676V19h-2.8V7.779L70.234,10.8V7.906ZM85.957,4.7a5.456,5.456,0,0,1,2.632.64,4.815,4.815,0,0,1,1.87,1.768,4.739,4.739,0,0,1,.684,2.5,5.765,5.765,0,0,1-1.26,3.438L85.488,19h-3.2l3.652-4.775a4.675,4.675,0,0,1-.635.039,4.617,4.617,0,0,1-2.236-.562,4.409,4.409,0,0,1-1.685-1.636,4.625,4.625,0,0,1-.649-2.441A4.525,4.525,0,0,1,82.266,6.1,5.3,5.3,0,0,1,85.957,4.7ZM88.5,9.723a2.307,2.307,0,0,0-2.461-2.49,2.537,2.537,0,0,0-1.831.688,2.379,2.379,0,0,0-.728,1.772,2.414,2.414,0,0,0,.684,1.816,2.477,2.477,0,0,0,1.846.713,2.364,2.364,0,0,0,1.787-.713A2.55,2.55,0,0,0,88.5,9.723ZM97.852,19.2A5.063,5.063,0,0,1,94,17.906a5.59,5.59,0,0,1-1.211-3.945l2.881-.127a10.2,10.2,0,0,0,.044,1.035,3.578,3.578,0,0,0,.176.8,1.433,1.433,0,0,0,.371.6,1.686,1.686,0,0,0,.635.347,3.137,3.137,0,0,0,.952.127,2.288,2.288,0,0,0,1.665-.566,1.98,1.98,0,0,0,.581-1.484,2,2,0,0,0-.557-1.528,2.1,2.1,0,0,0-1.494-.522H97.5V10.455h.508a1.527,1.527,0,0,0,1.167-.5,1.776,1.776,0,0,0,.464-1.26,1.419,1.419,0,0,0-.508-1.172,2.064,2.064,0,0,0-1.338-.41,2.005,2.005,0,0,0-.762.132,1.421,1.421,0,0,0-.513.337,1.49,1.49,0,0,0-.3.518,2.72,2.72,0,0,0-.146.615,6.143,6.143,0,0,0-.034.684l-2.842-.137A4.517,4.517,0,0,1,94.4,5.87a4.617,4.617,0,0,1,3.359-1.177,4.8,4.8,0,0,1,3.223,1.079,3.379,3.379,0,0,1,1.27,2.681,3.051,3.051,0,0,1-.542,1.816,3.1,3.1,0,0,1-1.235,1.074,3.478,3.478,0,0,1,.9.4,3.683,3.683,0,0,1,.786.674,3.007,3.007,0,0,1,.581,1.025,4.126,4.126,0,0,1,.215,1.367,3.988,3.988,0,0,1-1.4,3.188A5.508,5.508,0,0,1,97.852,19.2Zm17.158-4.932a4.6,4.6,0,0,1-.415,1.982,4.678,4.678,0,0,1-1.143,1.567,5.38,5.38,0,0,1-1.675,1.006,5.678,5.678,0,0,1-4.038-.01,5.014,5.014,0,0,1-1.65-1.03,4.851,4.851,0,0,1-1.489-3.506,5.865,5.865,0,0,1,1.25-3.447l4.395-5.937h3.193l-3.662,4.775a4.758,4.758,0,0,1,.645-.039,4.6,4.6,0,0,1,1.733.332,4.694,4.694,0,0,1,1.46.923,4.27,4.27,0,0,1,1.011,1.47A4.936,4.936,0,0,1,115.01,14.264Zm-2.754-.068a2.411,2.411,0,0,0-.684-1.821,2.486,2.486,0,0,0-1.846-.708,2.383,2.383,0,0,0-1.787.713,2.518,2.518,0,0,0-.713,1.777,2.315,2.315,0,0,0,2.471,2.5,2.543,2.543,0,0,0,1.836-.684A2.383,2.383,0,0,0,112.256,14.2Z" transform="translate(-1217 273)" fill="#00838f"/>
    <path id="Trazado_25741" data-name="Trazado 25741" d="M5.633,14.13a5.113,5.113,0,0,1-1.894-.345,4.573,4.573,0,0,1-1.521-.971,4.33,4.33,0,0,1-1.012-1.562A5.649,5.649,0,0,1,.841,9.181,5.557,5.557,0,0,1,1.21,7.12,4.322,4.322,0,0,1,3.739,4.587a5.159,5.159,0,0,1,1.894-.342,4.89,4.89,0,0,1,2.56.677A4.216,4.216,0,0,1,9.885,6.8l-1.128.465A3.169,3.169,0,0,0,7.5,5.9a3.62,3.62,0,0,0-1.863-.482,3.828,3.828,0,0,0-1.4.253A3.358,3.358,0,0,0,3.1,6.392a3.271,3.271,0,0,0-.762,1.189,4.413,4.413,0,0,0-.277,1.6,4.441,4.441,0,0,0,.277,1.6A3.267,3.267,0,0,0,3.1,11.977a3.4,3.4,0,0,0,1.135.728,3.782,3.782,0,0,0,1.4.256A3.62,3.62,0,0,0,7.5,12.479a3.177,3.177,0,0,0,1.261-1.364l1.128.458A4.2,4.2,0,0,1,8.2,13.457,4.9,4.9,0,0,1,5.633,14.13ZM15.859,7.28h1.183V14H15.907l-.027-.889a2.1,2.1,0,0,1-.834.755,2.565,2.565,0,0,1-1.176.263,2.337,2.337,0,0,1-1.692-.608,2.269,2.269,0,0,1-.632-1.716V7.28h1.183v4.259a1.6,1.6,0,0,0,.414,1.2,1.464,1.464,0,0,0,1.056.4,1.608,1.608,0,0,0,1.193-.465,1.893,1.893,0,0,0,.468-1.374Zm6.761-.13a2.337,2.337,0,0,1,1.692.608,2.269,2.269,0,0,1,.632,1.716V14H23.762V9.741a1.589,1.589,0,0,0-.41-1.2,1.466,1.466,0,0,0-1.053-.39,1.626,1.626,0,0,0-1.2.461,1.872,1.872,0,0,0-.472,1.371V14H19.448V7.28h1.183v.861A2.244,2.244,0,0,1,22.62,7.15ZM32.19,3.5h1.183V14H32.231L32.2,12.694a2.473,2.473,0,0,1-.957,1.06,2.667,2.667,0,0,1-1.422.39,3.054,3.054,0,0,1-2.218-.947,3.236,3.236,0,0,1-.677-1.111,4.063,4.063,0,0,1-.25-1.442,3.533,3.533,0,0,1,.913-2.522,2.946,2.946,0,0,1,2.232-.971,2.678,2.678,0,0,1,1.4.379,2.487,2.487,0,0,1,.96,1.029Zm-2.119,9.618a2.012,2.012,0,0,0,1.562-.708,2.554,2.554,0,0,0,.632-1.767A2.549,2.549,0,0,0,31.63,8.88a2.011,2.011,0,0,0-1.559-.711,2.056,2.056,0,0,0-1.572.687,2.528,2.528,0,0,0-.636,1.788,2.528,2.528,0,0,0,.636,1.788A2.056,2.056,0,0,0,30.071,13.118ZM36.381,5.7a.805.805,0,0,1-.8-.8.758.758,0,0,1,.236-.561.775.775,0,0,1,.564-.232.767.767,0,0,1,.557.232.758.758,0,0,1,.236.561.77.77,0,0,1-.236.564A.762.762,0,0,1,36.381,5.7Zm-.6,8.3V7.28h1.189V14Zm6.768-6.85a2.337,2.337,0,0,1,1.692.608,2.269,2.269,0,0,1,.632,1.716V14H43.688V9.741a1.589,1.589,0,0,0-.41-1.2,1.466,1.466,0,0,0-1.053-.39,1.626,1.626,0,0,0-1.2.461,1.872,1.872,0,0,0-.472,1.371V14H39.375V7.28h1.183v.861A2.244,2.244,0,0,1,42.547,7.15Zm6.159,6.979a2.287,2.287,0,0,1-1.473-.461,1.657,1.657,0,0,1-.578-1.377,1.957,1.957,0,0,1,.185-.878,1.549,1.549,0,0,1,.547-.612,3.281,3.281,0,0,1,.79-.379,7.3,7.3,0,0,1,1.022-.243L50.285,10q.595-.109.595-.622a1.174,1.174,0,0,0-.42-1A1.713,1.713,0,0,0,49.4,8.06a1.745,1.745,0,0,0-1.053.308,1.287,1.287,0,0,0-.5.943l-1.066-.226a2.052,2.052,0,0,1,.841-1.439,3.141,3.141,0,0,1,1.832-.482,3.716,3.716,0,0,1,.974.12,2.647,2.647,0,0,1,.813.376,1.686,1.686,0,0,1,.581.725,2.7,2.7,0,0,1,.208,1.1v2.775a1.136,1.136,0,0,0,.154.7.664.664,0,0,0,.53.181h.109V14h-.588a1.121,1.121,0,0,1-1.271-.909h-.055A2.568,2.568,0,0,1,48.706,14.13Zm.273-.957a1.793,1.793,0,0,0,1.442-.649,2.674,2.674,0,0,0,.547-1.777l-1.777.342a2.392,2.392,0,0,0-1.042.373.867.867,0,0,0-.338.735.857.857,0,0,0,.325.738A1.388,1.388,0,0,0,48.979,13.173ZM61.359,7.15a2.166,2.166,0,0,1,1.565.571,2.117,2.117,0,0,1,.595,1.6V14H62.337V9.632a1.518,1.518,0,0,0-.369-1.107,1.257,1.257,0,0,0-.937-.376,1.327,1.327,0,0,0-1.025.424,1.822,1.822,0,0,0-.39,1.271V14h-1.2V9.68a1.589,1.589,0,0,0-.373-1.145,1.267,1.267,0,0,0-.954-.386,1.315,1.315,0,0,0-1.022.434,1.885,1.885,0,0,0-.393,1.3V14H54.489V7.28h1.183v.868a2.041,2.041,0,0,1,.769-.738,2.193,2.193,0,0,1,1.07-.26,2.283,2.283,0,0,1,1.148.284,1.766,1.766,0,0,1,.745.817,2.091,2.091,0,0,1,.807-.817A2.307,2.307,0,0,1,61.359,7.15Zm6,6.979a2.287,2.287,0,0,1-1.473-.461,1.657,1.657,0,0,1-.578-1.377,1.957,1.957,0,0,1,.185-.878,1.549,1.549,0,0,1,.547-.612,3.281,3.281,0,0,1,.79-.379,7.3,7.3,0,0,1,1.022-.243L68.94,10q.595-.109.595-.622a1.174,1.174,0,0,0-.42-1,1.713,1.713,0,0,0-1.063-.318A1.745,1.745,0,0,0,67,8.367a1.287,1.287,0,0,0-.5.943l-1.066-.226a2.052,2.052,0,0,1,.841-1.439,3.141,3.141,0,0,1,1.832-.482,3.716,3.716,0,0,1,.974.12,2.647,2.647,0,0,1,.813.376,1.686,1.686,0,0,1,.581.725,2.7,2.7,0,0,1,.208,1.1v2.775a1.136,1.136,0,0,0,.154.7.664.664,0,0,0,.53.181h.109V14h-.588a1.121,1.121,0,0,1-1.271-.909h-.055A2.568,2.568,0,0,1,67.361,14.13Zm.273-.957a1.793,1.793,0,0,0,1.442-.649,2.674,2.674,0,0,0,.547-1.777l-1.777.342a2.392,2.392,0,0,0-1.042.373.867.867,0,0,0-.338.735.857.857,0,0,0,.325.738A1.388,1.388,0,0,0,67.635,13.173ZM74.3,8.463a2.032,2.032,0,0,1,.834-.9,2.512,2.512,0,0,1,1.292-.355V8.319a2.214,2.214,0,0,0-1.562.5,2.084,2.084,0,0,0-.537,1.593V14H73.145V7.28H74.3Zm6.221,5.66a3.237,3.237,0,0,1-2.406-.964,3.438,3.438,0,0,1-.95-2.522,3.445,3.445,0,0,1,.947-2.522,3.5,3.5,0,0,1,4.354-.376A2.967,2.967,0,0,1,83.6,9.372l-1.107.178A2.045,2.045,0,0,0,81.73,8.5a2.066,2.066,0,0,0-1.217-.369,1.987,1.987,0,0,0-1.555.69,2.63,2.63,0,0,0-.612,1.812,2.617,2.617,0,0,0,.612,1.808,1.991,1.991,0,0,0,1.555.687,2.066,2.066,0,0,0,1.217-.369,2.045,2.045,0,0,0,.759-1.046L83.6,11.9a2.97,2.97,0,0,1-1.138,1.63A3.255,3.255,0,0,1,80.521,14.123Zm6.371.007a2.287,2.287,0,0,1-1.473-.461,1.657,1.657,0,0,1-.578-1.377,1.957,1.957,0,0,1,.185-.878,1.549,1.549,0,0,1,.547-.612,3.281,3.281,0,0,1,.79-.379,7.3,7.3,0,0,1,1.022-.243L88.471,10q.595-.109.595-.622a1.174,1.174,0,0,0-.42-1,1.713,1.713,0,0,0-1.063-.318,1.745,1.745,0,0,0-1.053.308,1.287,1.287,0,0,0-.5.943l-1.066-.226A2.052,2.052,0,0,1,85.8,7.646a3.141,3.141,0,0,1,1.832-.482,3.716,3.716,0,0,1,.974.12,2.647,2.647,0,0,1,.813.376,1.686,1.686,0,0,1,.581.725,2.7,2.7,0,0,1,.208,1.1v2.775a1.136,1.136,0,0,0,.154.7.664.664,0,0,0,.53.181h.109V14h-.588a1.121,1.121,0,0,1-1.271-.909h-.055A2.568,2.568,0,0,1,86.892,14.13Zm.273-.957a1.793,1.793,0,0,0,1.442-.649,2.674,2.674,0,0,0,.547-1.777l-1.777.342a2.392,2.392,0,0,0-1.042.373A.867.867,0,0,0,86,12.2a.857.857,0,0,0,.325.738A1.388,1.388,0,0,0,87.165,13.173Z" transform="translate(-1063.193 329.96)" fill="#00223d"/>
    <g id="Grupo_16031" data-name="Grupo 16031" transform="translate(-1040.743 278.04)">
      <g id="Grupo_16030" data-name="Grupo 16030" transform="translate(0 0)" clip-path="url(#clip-path)">
        <g id="Grupo_16029" data-name="Grupo 16029" transform="translate(-17.458 0.009)">
          <path id="Trazado_9601" data-name="Trazado 9601" d="M2170.929,1060.178c0-5.233.015-10.467-.018-15.7,0-.689.156-.844.844-.844q46,.03,92,0c.688,0,.849.155.845.844-.033,5.233-.018,10.467-.018,15.7q-21.315-.01-42.631-.019Q2196.439,1060.16,2170.929,1060.178Z" transform="translate(-2170.911 -1043.634)" fill="#65c5e4"/>
          <path id="Trazado_9602" data-name="Trazado 9602" d="M2170.982,1108.5q25.51-.01,51.019-.019,21.315,0,42.63.019v16.526c-2.521-.006-5.042-.016-7.563-.016q-43.043.007-86.086.016Z" transform="translate(-2170.964 -1091.953)" fill="#fede00"/>
          <path id="Trazado_9603" data-name="Trazado 9603" d="M2170.929,1173.354q43.044-.009,86.086-.016c2.521,0,5.042.01,7.563.016,0,5.233-.015,10.467.018,15.7,0,.689-.156.844-.845.844q-46-.03-92,0c-.688,0-.849-.155-.844-.844C2170.944,1183.821,2170.929,1178.587,2170.929,1173.354Z" transform="translate(-2170.911 -1140.284)" fill="#fe0913"/>
        </g>
      </g>
    </g>
    <path id="Trazado_25742" data-name="Trazado 25742" d="M6.542,4.375V5.489H4.074V14H2.857V5.489H.383V4.375ZM9.837,14.13a3.542,3.542,0,0,1-1.723-.417A3.036,3.036,0,0,1,6.9,12.493a3.748,3.748,0,0,1-.448-1.856A3.423,3.423,0,0,1,7.407,8.1a3.292,3.292,0,0,1,2.43-.954,3.289,3.289,0,0,1,2.434.954,3.43,3.43,0,0,1,.95,2.533,3.432,3.432,0,0,1-.954,2.54A3.292,3.292,0,0,1,9.837,14.13Zm-.007-.984a2.064,2.064,0,0,0,1.589-.69,2.587,2.587,0,0,0,.632-1.818,2.577,2.577,0,0,0-.632-1.812,2.064,2.064,0,0,0-1.589-.69,2.035,2.035,0,0,0-1.576.69,2.594,2.594,0,0,0-.625,1.812,2.6,2.6,0,0,0,.625,1.818A2.035,2.035,0,0,0,9.83,13.146ZM15.073,14V3.5h1.2V14Zm4.2-8.3a.805.805,0,0,1-.8-.8.758.758,0,0,1,.236-.561.775.775,0,0,1,.564-.232.767.767,0,0,1,.557.232.758.758,0,0,1,.236.561.77.77,0,0,1-.236.564A.762.762,0,0,1,19.277,5.7Zm-.6,8.3V7.28h1.189V14ZM29.142,7.15a2.166,2.166,0,0,1,1.565.571,2.117,2.117,0,0,1,.595,1.6V14H30.119V9.632a1.518,1.518,0,0,0-.369-1.107,1.257,1.257,0,0,0-.937-.376,1.327,1.327,0,0,0-1.025.424,1.822,1.822,0,0,0-.39,1.271V14H26.2V9.68a1.589,1.589,0,0,0-.373-1.145,1.267,1.267,0,0,0-.954-.386,1.315,1.315,0,0,0-1.022.434,1.885,1.885,0,0,0-.393,1.3V14H22.271V7.28h1.183v.868a2.041,2.041,0,0,1,.769-.738,2.193,2.193,0,0,1,1.07-.26,2.283,2.283,0,0,1,1.148.284,1.766,1.766,0,0,1,.745.817,2.091,2.091,0,0,1,.807-.817A2.307,2.307,0,0,1,29.142,7.15Zm6,6.979a2.287,2.287,0,0,1-1.473-.461,1.657,1.657,0,0,1-.578-1.377,1.957,1.957,0,0,1,.185-.878,1.549,1.549,0,0,1,.547-.612,3.281,3.281,0,0,1,.79-.379,7.3,7.3,0,0,1,1.022-.243L36.723,10q.595-.109.595-.622a1.174,1.174,0,0,0-.42-1,1.713,1.713,0,0,0-1.063-.318,1.745,1.745,0,0,0-1.053.308,1.287,1.287,0,0,0-.5.943l-1.066-.226a2.052,2.052,0,0,1,.841-1.439,3.141,3.141,0,0,1,1.832-.482,3.716,3.716,0,0,1,.974.12,2.647,2.647,0,0,1,.813.376,1.686,1.686,0,0,1,.581.725,2.7,2.7,0,0,1,.208,1.1v2.775a1.136,1.136,0,0,0,.154.7.664.664,0,0,0,.53.181h.109V14h-.588a1.121,1.121,0,0,1-1.271-.909h-.055A2.568,2.568,0,0,1,35.144,14.13Zm.273-.957a1.793,1.793,0,0,0,1.442-.649,2.674,2.674,0,0,0,.547-1.777l-1.777.342a2.392,2.392,0,0,0-1.042.373.867.867,0,0,0-.338.735.857.857,0,0,0,.325.738A1.388,1.388,0,0,0,35.417,13.173Z" transform="translate(-1036.387 419)" fill="#00223d"/>
    <g id="Grupo_16033" data-name="Grupo 16033" transform="translate(-1041 366.335)">
      <g id="Grupo_16032" data-name="Grupo 16032" transform="translate(0 0)" clip-path="url(#clip-path)">
        <path id="Trazado_9604" data-name="Trazado 9604" d="M2443,1024.914V985.229c.421-.035.842-.1,1.263-.1q37.171-.007,74.343,0c.421,0,.842.065,1.263.1v39.686q-23.342-.01-46.685-.019Q2458.092,1024.894,2443,1024.914Z" transform="translate(-2456.628 -1000.107)" fill="#6d080c"/>
        <path id="Trazado_9605" data-name="Trazado 9605" d="M2519.821,1140.357q-23.342-.01-46.685-.019-15.092,0-30.185.019c0,5.637.012,21.019-.017,26.656,0,.641.145.785.786.785q37.666-.028,75.333,0c.64,0,.789-.144.785-.785C2519.808,1161.376,2519.821,1145.994,2519.821,1140.357Zm-4.088,24.205a.649.649,0,0,0-.318-.089A.649.649,0,0,1,2515.732,1164.562Zm-4.073-.113c.084.006.169.011.251.022-.082-.011-.167-.016-.251-.022a.523.523,0,0,0-.165-.27A.523.523,0,0,1,2511.66,1164.449Zm.034,1.016h0Zm-.868-.547v0c.007.014.015.026.021.039h0C2510.839,1164.943,2510.832,1164.931,2510.826,1164.919Zm.319-.725c-.05.022-.1.047-.151.071C2511.045,1164.241,2511.1,1164.215,2511.145,1164.193Zm-2.848.5a.46.46,0,0,1,.182.139.46.46,0,0,0-.182-.139Zm-.816-.277c.1-.155.168-.171.217-.13a.247.247,0,0,1,.052.073.247.247,0,0,0-.052-.073c-.049-.042-.113-.025-.217.13a1.831,1.831,0,0,1-.737.216A1.831,1.831,0,0,0,2507.482,1164.414Zm-.36.6a.9.9,0,0,0,.1-.093A.9.9,0,0,1,2507.122,1165.011Zm-2.354-.574a.192.192,0,0,0,.167.037l.565,0-.565,0a.78.78,0,0,1-.032.54.78.78,0,0,0,.032-.54.194.194,0,0,1-.167-.037,30.722,30.722,0,0,1-3.167.138A30.62,30.62,0,0,0,2504.769,1164.438Zm-2.4,1a1.269,1.269,0,0,1,.357.036,4.387,4.387,0,0,1,1.006-.125,4.389,4.389,0,0,0-1.006.125A1.267,1.267,0,0,0,2502.366,1165.435Zm5.528-.235a1.087,1.087,0,0,1,.39.029h0A1.087,1.087,0,0,0,2507.894,1165.2Zm.4.031h0a8.208,8.208,0,0,0,.916.2A8.208,8.208,0,0,1,2508.29,1165.231Zm2.677-.082h0a.811.811,0,0,0,.307.257A.815.815,0,0,1,2510.967,1165.149Zm4.984.152a1.123,1.123,0,0,1-.558.136,1.12,1.12,0,0,0,.557-.136.874.874,0,0,0-.114-.646A.876.876,0,0,1,2515.951,1165.3Z" transform="translate(-2456.579 -1115.55)" fill="#fede00"/>
      </g>
    </g>
    <path id="Trazado_25740" data-name="Trazado 25740" d="M66.5,0A66.5,66.5,0,1,1,0,66.5,66.5,66.5,0,0,1,66.5,0Z" transform="translate(-1212 446) rotate(-90)" fill="#fcfcae"/>
    <g id="Grupo_16028" data-name="Grupo 16028" transform="translate(-1203.905 317.266)">
      <g id="Grupo_16026" data-name="Grupo 16026" transform="translate(1.897 1.904)">
        <path id="Trazado_9566" data-name="Trazado 9566" d="M2624,373.9h64.722V480.5H2624Z" transform="translate(-2599.247 -366.285)" fill="#e0e0e2"/>
        <path id="Trazado_9567" data-name="Trazado 9567" d="M2688,341.9h34.264v7.614H2688Z" transform="translate(-2648.018 -341.899)" fill="#acabb1"/>
        <path id="Trazado_9568" data-name="Trazado 9568" d="M2624,373.9h64.722v11.422H2624Z" transform="translate(-2599.247 -366.285)" fill="#ab2300"/>
        <g id="Grupo_16025" data-name="Grupo 16025" transform="translate(32.368 24.747)">
          <path id="Trazado_9569" data-name="Trazado 9569" d="M2736,741.9h11.422v19.036H2736Z" transform="translate(-2716.964 -671.466)" fill="#3d9ae2"/>
          <path id="Trazado_9570" data-name="Trazado 9570" d="M2736,661.9h11.422v11.422H2736Z" transform="translate(-2716.964 -610.502)" fill="#3d9ae2"/>
          <path id="Trazado_9571" data-name="Trazado 9571" d="M2656,661.9h11.422v11.422H2656Z" transform="translate(-2656 -610.502)" fill="#3d9ae2"/>
          <path id="Trazado_9572" data-name="Trazado 9572" d="M2816,661.9h11.422v11.422H2816Z" transform="translate(-2777.928 -610.502)" fill="#3d9ae2"/>
          <path id="Trazado_9573" data-name="Trazado 9573" d="M2656,741.9h11.422v11.422H2656Z" transform="translate(-2656 -671.466)" fill="#3d9ae2"/>
          <path id="Trazado_9574" data-name="Trazado 9574" d="M2816,741.9h11.422v11.422H2816Z" transform="translate(-2777.928 -671.466)" fill="#3d9ae2"/>
          <path id="Trazado_9575" data-name="Trazado 9575" d="M2736,589.9h11.422v11.422H2736Z" transform="translate(-2716.964 -555.634)" fill="#3d9ae2"/>
          <path id="Trazado_9576" data-name="Trazado 9576" d="M2656,589.9h11.422v11.422H2656Z" transform="translate(-2656 -555.634)" fill="#3d9ae2"/>
          <path id="Trazado_9577" data-name="Trazado 9577" d="M2816,589.9h11.422v11.422H2816Z" transform="translate(-2777.928 -555.634)" fill="#3d9ae2"/>
          <path id="Trazado_9578" data-name="Trazado 9578" d="M2736,517.9h11.422v11.422H2736Z" transform="translate(-2716.964 -500.767)" fill="#3d9ae2"/>
          <path id="Trazado_9579" data-name="Trazado 9579" d="M2656,517.9h11.422v11.422H2656Z" transform="translate(-2656 -500.767)" fill="#3d9ae2"/>
          <path id="Trazado_9580" data-name="Trazado 9580" d="M2816,517.9h11.422v11.422H2816Z" transform="translate(-2777.928 -500.767)" fill="#3d9ae2"/>
          <path id="Trazado_9581" data-name="Trazado 9581" d="M2736,445.9h11.422v11.422H2736Z" transform="translate(-2716.964 -445.899)" fill="#3d9ae2"/>
          <path id="Trazado_9582" data-name="Trazado 9582" d="M2656,445.9h11.422v11.422H2656Z" transform="translate(-2656 -445.899)" fill="#3d9ae2"/>
          <path id="Trazado_9583" data-name="Trazado 9583" d="M2816,445.9h11.422v11.422H2816Z" transform="translate(-2777.928 -445.899)" fill="#3d9ae2"/>
        </g>
        <ellipse id="Elipse_664" data-name="Elipse 664" cx="9.484" cy="11.381" rx="9.484" ry="11.381" transform="translate(0 74.39)" fill="#cddc39"/>
        <path id="Trazado_9584" data-name="Trazado 9584" d="M2536,781.9l5.71,3.807" transform="translate(-2532.187 -677.202)" fill="#e0e0e2"/>
        <ellipse id="Elipse_665" data-name="Elipse 665" cx="9.484" cy="11.381" rx="9.484" ry="11.381" transform="translate(95.472 74.39)" fill="#cddc39"/>
        <path id="Trazado_9585" data-name="Trazado 9585" d="M2936,781.9l5.711,3.807" transform="translate(-2837.007 -677.202)" fill="#e0e0e2"/>
      </g>
      <g id="Grupo_16027" data-name="Grupo 16027" transform="translate(0 0)">
        <path id="Trazado_9586" data-name="Trazado 9586" d="M2628.119,448.114H2620.5V434.6c5.394-1.061,9.518-6.546,9.518-13.137,0-7.348-5.123-13.325-11.422-13.325s-11.421,5.977-11.421,13.325c0,6.591,4.123,12.076,9.518,13.137v6.149l-2.75-1.835a1.9,1.9,0,1,0-2.113,3.169l4.863,3.241v2.789h-11.421v-104.7a1.9,1.9,0,0,0-1.9-1.9h-13.325V335.8a1.9,1.9,0,0,0-1.9-1.9h-34.265a1.9,1.9,0,0,0-1.9,1.9v5.711h-13.325a1.9,1.9,0,0,0-1.9,1.9v104.7h-11.422V434.6c5.395-1.061,9.518-6.546,9.518-13.137,0-7.348-5.123-13.325-11.422-13.325S2512,414.116,2512,421.464c0,6.591,4.124,12.076,9.518,13.137v6.149l-2.751-1.835a1.9,1.9,0,0,0-2.113,3.169l4.864,3.241v2.789H2513.9a1.9,1.9,0,0,0,0,3.807h114.215a1.9,1.9,0,1,0,0-3.807Zm-104.7-28.554a1.9,1.9,0,0,0-1.9,1.9v9.216c-3.282-1.059-5.711-4.79-5.711-9.216,0-5.249,3.415-9.518,7.614-9.518s7.615,4.269,7.615,9.518c0,4.426-2.429,8.157-5.711,9.216v-9.216A1.9,1.9,0,0,0,2523.421,419.561Zm32.362-81.854h30.457v3.807h-30.457Zm13.325,110.408h-1.9V432.886h1.9Zm5.711,0h-1.9V432.886h1.9Zm26.65,0h-22.843V430.982a1.9,1.9,0,0,0-1.9-1.9H2565.3a1.9,1.9,0,0,0-1.9,1.9v17.132h-22.843V356.742h60.915Zm0-95.179h-60.915v-7.614h60.915Zm17.132,66.626a1.9,1.9,0,0,0-1.9,1.9v9.216c-3.281-1.059-5.711-4.79-5.711-9.216,0-5.249,3.415-9.518,7.615-9.518s7.615,4.269,7.615,9.518c0,4.426-2.429,8.157-5.711,9.216v-9.216A1.9,1.9,0,0,0,2618.6,419.561Z" transform="translate(-2512 -333.899)" fill="#00223d"/>
        <path id="Trazado_9587" data-name="Trazado 9587" d="M2741.325,653.9H2729.9a1.9,1.9,0,0,0-1.9,1.9v11.421a1.9,1.9,0,0,0,1.9,1.9h11.421a1.9,1.9,0,0,0,1.9-1.9V655.8A1.9,1.9,0,0,0,2741.325,653.9Zm-1.9,11.422h-7.614v-7.614h7.614Z" transform="translate(-2676.604 -577.756)" fill="#00223d"/>
        <path id="Trazado_9588" data-name="Trazado 9588" d="M2661.326,653.9H2649.9a1.9,1.9,0,0,0-1.9,1.9v11.421a1.9,1.9,0,0,0,1.9,1.9h11.422a1.9,1.9,0,0,0,1.9-1.9V655.8A1.9,1.9,0,0,0,2661.326,653.9Zm-1.9,11.422h-7.614v-7.614h7.614Z" transform="translate(-2615.639 -577.756)" fill="#00223d"/>
        <path id="Trazado_9589" data-name="Trazado 9589" d="M2821.325,653.9H2809.9a1.9,1.9,0,0,0-1.9,1.9v11.421a1.9,1.9,0,0,0,1.9,1.9h11.422a1.9,1.9,0,0,0,1.9-1.9V655.8A1.9,1.9,0,0,0,2821.325,653.9Zm-1.9,11.422h-7.614v-7.614h7.614Z" transform="translate(-2737.567 -577.756)" fill="#00223d"/>
        <path id="Trazado_9590" data-name="Trazado 9590" d="M2661.326,733.9H2649.9a1.9,1.9,0,0,0-1.9,1.9v11.422a1.9,1.9,0,0,0,1.9,1.9h11.422a1.9,1.9,0,0,0,1.9-1.9V735.8A1.9,1.9,0,0,0,2661.326,733.9Zm-1.9,11.422h-7.614v-7.614h7.614Z" transform="translate(-2615.639 -638.72)" fill="#00223d"/>
        <path id="Trazado_9591" data-name="Trazado 9591" d="M2821.325,733.9H2809.9a1.9,1.9,0,0,0-1.9,1.9v11.422a1.9,1.9,0,0,0,1.9,1.9h11.422a1.9,1.9,0,0,0,1.9-1.9V735.8A1.9,1.9,0,0,0,2821.325,733.9Zm-1.9,11.422h-7.614v-7.614h7.614Z" transform="translate(-2737.567 -638.72)" fill="#00223d"/>
        <path id="Trazado_9592" data-name="Trazado 9592" d="M2741.325,581.9H2729.9a1.9,1.9,0,0,0-1.9,1.9v11.422a1.9,1.9,0,0,0,1.9,1.9h11.421a1.9,1.9,0,0,0,1.9-1.9V583.8A1.9,1.9,0,0,0,2741.325,581.9Zm-1.9,11.422h-7.614v-7.614h7.614Z" transform="translate(-2676.604 -522.888)" fill="#00223d"/>
        <path id="Trazado_9593" data-name="Trazado 9593" d="M2661.326,581.9H2649.9a1.9,1.9,0,0,0-1.9,1.9v11.422a1.9,1.9,0,0,0,1.9,1.9h11.422a1.9,1.9,0,0,0,1.9-1.9V583.8A1.9,1.9,0,0,0,2661.326,581.9Zm-1.9,11.422h-7.614v-7.614h7.614Z" transform="translate(-2615.639 -522.888)" fill="#00223d"/>
        <path id="Trazado_9594" data-name="Trazado 9594" d="M2821.325,581.9H2809.9a1.9,1.9,0,0,0-1.9,1.9v11.422a1.9,1.9,0,0,0,1.9,1.9h11.422a1.9,1.9,0,0,0,1.9-1.9V583.8A1.9,1.9,0,0,0,2821.325,581.9Zm-1.9,11.422h-7.614v-7.614h7.614Z" transform="translate(-2737.567 -522.888)" fill="#00223d"/>
        <path id="Trazado_9595" data-name="Trazado 9595" d="M2741.325,509.9H2729.9a1.9,1.9,0,0,0-1.9,1.9v11.422a1.9,1.9,0,0,0,1.9,1.9h11.421a1.9,1.9,0,0,0,1.9-1.9V511.8A1.9,1.9,0,0,0,2741.325,509.9Zm-1.9,11.422h-7.614v-7.614h7.614Z" transform="translate(-2676.604 -468.02)" fill="#00223d"/>
        <path id="Trazado_9596" data-name="Trazado 9596" d="M2661.326,509.9H2649.9a1.9,1.9,0,0,0-1.9,1.9v11.422a1.9,1.9,0,0,0,1.9,1.9h11.422a1.9,1.9,0,0,0,1.9-1.9V511.8A1.9,1.9,0,0,0,2661.326,509.9Zm-1.9,11.422h-7.614v-7.614h7.614Z" transform="translate(-2615.639 -468.02)" fill="#00223d"/>
        <path id="Trazado_9597" data-name="Trazado 9597" d="M2821.325,509.9H2809.9a1.9,1.9,0,0,0-1.9,1.9v11.422a1.9,1.9,0,0,0,1.9,1.9h11.422a1.9,1.9,0,0,0,1.9-1.9V511.8A1.9,1.9,0,0,0,2821.325,509.9Zm-1.9,11.422h-7.614v-7.614h7.614Z" transform="translate(-2737.567 -468.02)" fill="#00223d"/>
        <path id="Trazado_9598" data-name="Trazado 9598" d="M2741.325,437.9H2729.9a1.9,1.9,0,0,0-1.9,1.9v11.422a1.9,1.9,0,0,0,1.9,1.9h11.421a1.9,1.9,0,0,0,1.9-1.9V439.8A1.9,1.9,0,0,0,2741.325,437.9Zm-1.9,11.422h-7.614v-7.614h7.614Z" transform="translate(-2676.604 -413.152)" fill="#00223d"/>
        <path id="Trazado_9599" data-name="Trazado 9599" d="M2661.326,437.9H2649.9a1.9,1.9,0,0,0-1.9,1.9v11.422a1.9,1.9,0,0,0,1.9,1.9h11.422a1.9,1.9,0,0,0,1.9-1.9V439.8A1.9,1.9,0,0,0,2661.326,437.9Zm-1.9,11.422h-7.614v-7.614h7.614Z" transform="translate(-2615.639 -413.152)" fill="#00223d"/>
        <path id="Trazado_9600" data-name="Trazado 9600" d="M2821.325,437.9H2809.9a1.9,1.9,0,0,0-1.9,1.9v11.422a1.9,1.9,0,0,0,1.9,1.9h11.422a1.9,1.9,0,0,0,1.9-1.9V439.8A1.9,1.9,0,0,0,2821.325,437.9Zm-1.9,11.422h-7.614v-7.614h7.614Z" transform="translate(-2737.567 -413.152)" fill="#00223d"/>
      </g>
    </g>
  </g>
</svg>
