<svg xmlns="http://www.w3.org/2000/svg" width="281.272" height="120.165" viewBox="0 0 281.272 120.165">
  <g id="Grupo_16584" data-name="Grupo 16584" transform="translate(1183 -995)">
    <path id="Trazado_25746" data-name="Trazado 25746" d="M48.5,0A48.5,48.5,0,1,1,0,48.5,48.5,48.5,0,0,1,48.5,0Z" transform="translate(-1183 995)" fill="#f6ff9b"/>
    <g id="Grupo_10025" data-name="Grupo 10025" transform="translate(-1690.884 242.721)">
      <g id="Grupo_9992" data-name="Grupo 9992" transform="translate(524.533 758.958)">
        <path id="Trazado_8859" data-name="Trazado 8859" d="M601.85,839.047H556.1v2.86a5.719,5.719,0,0,1-11.438,0V767.558a5.72,5.72,0,0,0-5.719-5.719h52.9a10.008,10.008,0,0,1,10.008,10.009Z" transform="translate(-538.94 -761.839)" fill="#fff"/>
      </g>
      <g id="Grupo_9995" data-name="Grupo 9995" transform="translate(535.971 836.165)">
        <g id="Grupo_9994" data-name="Grupo 9994" transform="translate(0 0)">
          <g id="Grupo_9993" data-name="Grupo 9993">
            <path id="Trazado_8860" data-name="Trazado 8860" d="M624.9,994.638H579.148v2.86a5.719,5.719,0,0,1-5.719,5.719H624.9a5.719,5.719,0,0,0,5.719-5.719v-2.86Z" transform="translate(-573.429 -994.638)" fill="#8e8e8e"/>
          </g>
        </g>
      </g>
      <g id="Grupo_9997" data-name="Grupo 9997" transform="translate(518.814 758.958)">
        <g id="Grupo_9996" data-name="Grupo 9996" transform="translate(0 0)">
          <path id="Trazado_8861" data-name="Trazado 8861" d="M533.133,779H521.7V767.558a5.719,5.719,0,1,1,11.438,0Z" transform="translate(-521.695 -761.839)" fill="#8e8e8e"/>
        </g>
      </g>
      <g id="Grupo_9999" data-name="Grupo 9999" transform="translate(535.971 807.57)">
        <g id="Grupo_9998" data-name="Grupo 9998" transform="translate(0 0)">
          <circle id="Elipse_625" data-name="Elipse 625" cx="11.438" cy="11.438" r="11.438" fill="#f6ff9b"/>
        </g>
      </g>
      <g id="Grupo_10001" data-name="Grupo 10001" transform="translate(541.69 813.289)">
        <g id="Grupo_10000" data-name="Grupo 10000" transform="translate(0 0)">
          <circle id="Elipse_626" data-name="Elipse 626" cx="5.719" cy="5.719" r="5.719" fill="#cddc39"/>
        </g>
      </g>
      <g id="Grupo_10002" data-name="Grupo 10002" transform="translate(583.139 809.003)">
        <path id="Trazado_8862" data-name="Trazado 8862" d="M715.651,916.31l3.574-3.574,17.87,17.87-3.575,3.575Z" transform="translate(-715.651 -912.736)" fill="#ef6c00"/>
      </g>
      <g id="Grupo_10003" data-name="Grupo 10003" transform="translate(573.133 798.994)">
        <path id="Trazado_8863" data-name="Trazado 8863" d="M685.48,892.566l10.006-10.006,7.148,7.148-10.006,10.007Z" transform="translate(-685.48 -882.559)" fill="#ef6c00"/>
      </g>
      <g id="Grupo_10004" data-name="Grupo 10004" transform="translate(567.414 807.57)">
        <path id="Trazado_8864" data-name="Trazado 8864" d="M668.237,912.706l4.289-4.289,10.006,10.006-4.289,4.289Z" transform="translate(-668.237 -908.417)" fill="#ef6c00"/>
      </g>
      <g id="Grupo_10005" data-name="Grupo 10005" transform="translate(581.712 793.275)">
        <path id="Trazado_8865" data-name="Trazado 8865" d="M711.348,869.6l4.289-4.289,10.006,10.006-4.289,4.289Z" transform="translate(-711.348 -865.315)" fill="#ef6c00"/>
      </g>
      <g id="Grupo_10006" data-name="Grupo 10006" transform="translate(517.384 757.528)">
        <path id="Trazado_8866" data-name="Trazado 8866" d="M587.443,846.174H535.971a7.157,7.157,0,0,1-7.149-7.149v-61.48H518.814a1.429,1.429,0,0,1-1.43-1.43V764.677a7.149,7.149,0,1,1,14.3,0v74.348a4.289,4.289,0,0,0,8.579,0v-2.86a1.429,1.429,0,0,1,1.43-1.43h51.472a1.429,1.429,0,0,1,1.43,1.43v2.86A7.157,7.157,0,0,1,587.443,846.174Zm-45.756-2.859h45.756a4.3,4.3,0,0,0,4.289-4.289V837.6H543.12v1.43a7.109,7.109,0,0,1-1.433,4.289Zm-21.444-68.629h8.579V764.677a4.289,4.289,0,1,0-8.579,0Z" transform="translate(-517.384 -757.528)" fill="#00223d"/>
      </g>
      <g id="Grupo_10007" data-name="Grupo 10007" transform="translate(586.013 816.864)">
        <path id="Trazado_8867" data-name="Trazado 8867" d="M724.317,936.439h2.859v19.3h-2.859Z" transform="translate(-724.317 -936.439)" fill="#00223d"/>
      </g>
      <g id="Grupo_10008" data-name="Grupo 10008" transform="translate(524.533 757.528)">
        <path id="Trazado_8868" data-name="Trazado 8868" d="M603.28,794.7H600.42V767.536a7.157,7.157,0,0,0-7.149-7.149H538.94v-2.859h54.331a10.02,10.02,0,0,1,10.008,10.008Z" transform="translate(-538.94 -757.528)" fill="#00223d"/>
      </g>
      <g id="Grupo_10009" data-name="Grupo 10009" transform="translate(565.996 806.14)">
        <path id="Trazado_8869" data-name="Trazado 8869" d="M675.4,921.262a1.427,1.427,0,0,1-1.011-.419L664.38,910.835a1.428,1.428,0,0,1,0-2.022l4.289-4.289a1.428,1.428,0,0,1,2.022,0L680.7,914.532a1.428,1.428,0,0,1,0,2.022l-4.289,4.289A1.426,1.426,0,0,1,675.4,921.262Zm-7.987-11.438,7.987,7.987,2.268-2.268-7.987-7.987Z" transform="translate(-663.961 -904.104)" fill="#00223d"/>
      </g>
      <g id="Grupo_10010" data-name="Grupo 10010" transform="translate(580.294 791.842)">
        <path id="Trazado_8870" data-name="Trazado 8870" d="M718.51,878.151a1.427,1.427,0,0,1-1.011-.419l-10.008-10.008a1.428,1.428,0,0,1,0-2.022l4.289-4.289a1.428,1.428,0,0,1,2.022,0l10.008,10.008a1.428,1.428,0,0,1,0,2.022l-4.289,4.29A1.427,1.427,0,0,1,718.51,878.151Zm-7.987-11.438,7.987,7.987,2.268-2.268-7.987-7.986Z" transform="translate(-707.072 -860.994)" fill="#00223d"/>
      </g>
      <g id="Grupo_10011" data-name="Grupo 10011" transform="translate(572.123 797.984)">
        <path id="Trazado_8871" data-name="Trazado 8871" d="M682.436,889.518l10.007-10.007,2.021,2.022-10.006,10.006Z" transform="translate(-682.436 -879.511)" fill="#00223d"/>
      </g>
      <g id="Grupo_10012" data-name="Grupo 10012" transform="translate(579.271 805.132)">
        <path id="Trazado_8872" data-name="Trazado 8872" d="M703.987,911.073l10.007-10.006,2.022,2.022-10.006,10.006Z" transform="translate(-703.987 -901.066)" fill="#00223d"/>
      </g>
      <g id="Grupo_10013" data-name="Grupo 10013" transform="translate(582.143 807.989)">
        <path id="Trazado_8873" data-name="Trazado 8873" d="M731.53,933.567a1.426,1.426,0,0,1-1.011-.419l-17.872-17.872,2.022-2.022,16.861,16.861,1.553-1.553L716.221,911.7l2.022-2.022,17.872,17.872a1.428,1.428,0,0,1,0,2.022l-3.574,3.575A1.425,1.425,0,0,1,731.53,933.567Z" transform="translate(-712.647 -909.68)" fill="#00223d"/>
      </g>
      <g id="Grupo_10014" data-name="Grupo 10014" transform="translate(535.971 783.264)">
        <path id="Trazado_8874" data-name="Trazado 8874" d="M573.429,835.128h47.182v2.859H573.429Z" transform="translate(-573.429 -835.128)" fill="#00223d"/>
      </g>
      <g id="Grupo_10015" data-name="Grupo 10015" transform="translate(535.971 794.702)">
        <path id="Trazado_8875" data-name="Trazado 8875" d="M573.429,869.617h41.463v2.859H573.429Z" transform="translate(-573.429 -869.617)" fill="#00223d"/>
      </g>
      <g id="Grupo_10016" data-name="Grupo 10016" transform="translate(535.971 788.983)">
        <path id="Trazado_8876" data-name="Trazado 8876" d="M573.429,852.372h47.182v2.86H573.429Z" transform="translate(-573.429 -852.372)" fill="#00223d"/>
      </g>
      <g id="Grupo_10017" data-name="Grupo 10017" transform="translate(535.971 771.826)">
        <path id="Trazado_8877" data-name="Trazado 8877" d="M573.429,800.639h47.182V803.5H573.429Z" transform="translate(-573.429 -800.639)" fill="#00223d"/>
      </g>
      <g id="Grupo_10018" data-name="Grupo 10018" transform="translate(535.971 766.107)">
        <path id="Trazado_8878" data-name="Trazado 8878" d="M573.429,783.4h47.182v2.859H573.429Z" transform="translate(-573.429 -783.395)" fill="#00223d"/>
      </g>
      <g id="Grupo_10019" data-name="Grupo 10019" transform="translate(535.971 777.545)">
        <path id="Trazado_8879" data-name="Trazado 8879" d="M573.429,817.884h47.182v2.859H573.429Z" transform="translate(-573.429 -817.884)" fill="#00223d"/>
      </g>
      <g id="Grupo_10020" data-name="Grupo 10020" transform="translate(535.971 800.421)">
        <path id="Trazado_8880" data-name="Trazado 8880" d="M573.429,886.861h38.6v2.859h-38.6Z" transform="translate(-573.429 -886.861)" fill="#00223d"/>
      </g>
      <g id="Grupo_10021" data-name="Grupo 10021" transform="translate(534.541 806.14)">
        <path id="Trazado_8881" data-name="Trazado 8881" d="M581.985,929.841a12.868,12.868,0,1,1,12.868-12.868A12.883,12.883,0,0,1,581.985,929.841Zm0-22.876a10.008,10.008,0,1,0,10.008,10.008A10.02,10.02,0,0,0,581.985,906.965Z" transform="translate(-569.117 -904.105)" fill="#00223d"/>
      </g>
      <g id="Grupo_10022" data-name="Grupo 10022" transform="translate(540.26 811.859)">
        <path id="Trazado_8882" data-name="Trazado 8882" d="M593.511,935.648a7.149,7.149,0,1,1,7.149-7.149A7.157,7.157,0,0,1,593.511,935.648Zm0-11.438a4.289,4.289,0,1,0,4.29,4.289A4.295,4.295,0,0,0,593.511,924.209Z" transform="translate(-586.362 -921.35)" fill="#00223d"/>
      </g>
      <g id="Grupo_10023" data-name="Grupo 10023" transform="translate(563.137 824.726)">
        <path id="Trazado_8883" data-name="Trazado 8883" d="M672.5,967.3h-5.719a5.721,5.721,0,0,1-4.844-2.681,9.429,9.429,0,0,1-6.594,2.681v-2.859a6.573,6.573,0,0,0,5.479-2.932l.481-.721a1.43,1.43,0,0,1,2.619.794,2.862,2.862,0,0,0,2.859,2.859H672.5Z" transform="translate(-655.339 -960.147)" fill="#00223d"/>
      </g>
    </g>
    <path id="Trazado_25744" data-name="Trazado 25744" d="M2.734,12.886H6.077V14H1.511V4.375H2.734Zm10.814-2.379-.014.321H8.285a2.375,2.375,0,0,0,.643,1.719,2.11,2.11,0,0,0,1.531.6,2.015,2.015,0,0,0,1.114-.321,2.085,2.085,0,0,0,.766-.889l1.066.226A3.031,3.031,0,0,1,12.257,13.6a3.133,3.133,0,0,1-1.784.526,3.246,3.246,0,0,1-2.42-.937,3.484,3.484,0,0,1-.923-2.557,3.467,3.467,0,0,1,.926-2.55,3.206,3.206,0,0,1,2.382-.937,3.034,3.034,0,0,1,2.259.861A3.4,3.4,0,0,1,13.549,10.507ZM10.438,8.06a2.1,2.1,0,0,0-1.4.475,2.177,2.177,0,0,0-.708,1.384h4.026a2,2,0,0,0-.588-1.384A1.9,1.9,0,0,0,10.438,8.06Zm8.839-.779h1.251l-3.89,9.885H15.415l1.347-3.329L14.15,7.28h1.313l1.894,5.229Zm7.492,5.633h4.792V14H25.067v-.9l3.855-3.985a4.567,4.567,0,0,0,.868-1.142,2.278,2.278,0,0,0,.239-.991,1.661,1.661,0,0,0-.485-1.275,1.981,1.981,0,0,0-2.574.041A2.132,2.132,0,0,0,26.482,7.3v.711L25.3,7.9V7.308a3.042,3.042,0,0,1,.813-2.287,3.368,3.368,0,0,1,4.262-.058,2.544,2.544,0,0,1,.817,2,3.027,3.027,0,0,1-.325,1.391,5.98,5.98,0,0,1-1.042,1.384Zm9.44,1.217a2.681,2.681,0,0,1-2.372-1.258A6.707,6.707,0,0,1,33,9.181,6.737,6.737,0,0,1,33.828,5.5a2.882,2.882,0,0,1,4.754,0,6.718,6.718,0,0,1,.827,3.681,6.688,6.688,0,0,1-.837,3.688A2.675,2.675,0,0,1,36.21,14.13Zm0-1.094a1.628,1.628,0,0,0,1.5-.964,6.284,6.284,0,0,0,.52-2.892,6.106,6.106,0,0,0-.53-2.888,1.645,1.645,0,0,0-2.977,0,6.138,6.138,0,0,0-.526,2.892,6.317,6.317,0,0,0,.516,2.9A1.626,1.626,0,0,0,36.21,13.036Zm7.882,1.094a2.681,2.681,0,0,1-2.372-1.258,6.707,6.707,0,0,1-.834-3.691A6.737,6.737,0,0,1,41.709,5.5a2.882,2.882,0,0,1,4.754,0,6.718,6.718,0,0,1,.827,3.681,6.688,6.688,0,0,1-.837,3.688A2.675,2.675,0,0,1,44.092,14.13Zm0-1.094a1.628,1.628,0,0,0,1.5-.964,6.284,6.284,0,0,0,.52-2.892,6.106,6.106,0,0,0-.53-2.888,1.645,1.645,0,0,0-2.977,0,6.138,6.138,0,0,0-.526,2.892,6.317,6.317,0,0,0,.516,2.9A1.626,1.626,0,0,0,44.092,13.036ZM57.832,3.5h1.183V14H57.873l-.027-1.306a2.473,2.473,0,0,1-.957,1.06,2.667,2.667,0,0,1-1.422.39,3.054,3.054,0,0,1-2.218-.947,3.236,3.236,0,0,1-.677-1.111,4.064,4.064,0,0,1-.25-1.442,3.533,3.533,0,0,1,.913-2.522,2.946,2.946,0,0,1,2.232-.971,2.678,2.678,0,0,1,1.4.379,2.487,2.487,0,0,1,.96,1.029Zm-2.119,9.618a2.012,2.012,0,0,0,1.562-.708,2.554,2.554,0,0,0,.632-1.767,2.549,2.549,0,0,0-.636-1.764,2.011,2.011,0,0,0-1.559-.711,2.056,2.056,0,0,0-1.572.687,2.528,2.528,0,0,0-.636,1.788,2.528,2.528,0,0,0,.636,1.788A2.056,2.056,0,0,0,55.713,13.118ZM67.3,10.507l-.014.321h-5.25a2.375,2.375,0,0,0,.643,1.719,2.11,2.11,0,0,0,1.531.6,2.015,2.015,0,0,0,1.114-.321,2.085,2.085,0,0,0,.766-.889l1.066.226A3.031,3.031,0,0,1,66.008,13.6a3.133,3.133,0,0,1-1.784.526,3.246,3.246,0,0,1-2.42-.937,3.484,3.484,0,0,1-.923-2.557,3.467,3.467,0,0,1,.926-2.55,3.206,3.206,0,0,1,2.382-.937,3.034,3.034,0,0,1,2.259.861A3.4,3.4,0,0,1,67.3,10.507ZM64.189,8.06a2.1,2.1,0,0,0-1.4.475,2.177,2.177,0,0,0-.708,1.384H66.11a2,2,0,0,0-.588-1.384A1.9,1.9,0,0,0,64.189,8.06ZM75.6,4.375h1.107V14H75.537V5.667l-2.311,2V6.405Zm7.793-.109a3.363,3.363,0,0,1,2.389.906,3.054,3.054,0,0,1,.967,2.334,3.79,3.79,0,0,1-.841,2.311L82.688,14H81.272l2.659-3.35a3.105,3.105,0,0,1-.807.1,2.956,2.956,0,0,1-2.591-1.48,3.286,3.286,0,0,1-.458-1.685,3.457,3.457,0,0,1,.25-1.357,2.987,2.987,0,0,1,.708-1.053,3.294,3.294,0,0,1,1.063-.67A3.481,3.481,0,0,1,83.392,4.266ZM81.864,9.222a2.182,2.182,0,0,0,1.576.6,2.058,2.058,0,0,0,1.569-.66,2.217,2.217,0,0,0,.6-1.61,2.149,2.149,0,0,0-.622-1.6,2.384,2.384,0,0,0-3.155.031,2.125,2.125,0,0,0-.612,1.624A2.178,2.178,0,0,0,81.864,9.222Zm9.362,4.908q-3.206,0-3.206-3.425l1.2-.062a3.006,3.006,0,0,0,.451,1.812,1.819,1.819,0,0,0,1.552.6,2.133,2.133,0,0,0,1.494-.52,1.753,1.753,0,0,0,.571-1.36,1.736,1.736,0,0,0-.55-1.354,1.973,1.973,0,0,0-1.377-.5h-.479v-1h.465A1.424,1.424,0,0,0,92.4,7.875a1.5,1.5,0,0,0,.438-1.094,1.348,1.348,0,0,0-.465-1.06,1.7,1.7,0,0,0-1.169-.41,1.861,1.861,0,0,0-.769.144,1.08,1.08,0,0,0-.489.42,1.982,1.982,0,0,0-.246.612,3.586,3.586,0,0,0-.075.779l-1.2-.041a3.116,3.116,0,0,1,.721-2.208A2.673,2.673,0,0,1,91.2,4.245a2.854,2.854,0,0,1,1.972.7,2.25,2.25,0,0,1,.79,1.75,2.108,2.108,0,0,1-.383,1.251,2.187,2.187,0,0,1-.964.779,2.661,2.661,0,0,1,1.354.882,2.473,2.473,0,0,1,.526,1.62,2.647,2.647,0,0,1-.919,2.1A3.448,3.448,0,0,1,91.226,14.13ZM102.5,10.794a3.248,3.248,0,0,1-.437,1.729,3.091,3.091,0,0,1-1.21,1.176,3.451,3.451,0,0,1-1.668.41A3.36,3.36,0,0,1,96.79,13.2a3.06,3.06,0,0,1-.964-2.334,3.79,3.79,0,0,1,.834-2.311l3.22-4.184h1.395L98.6,7.745a3,3,0,0,1,.834-.116A3.059,3.059,0,0,1,100.912,8a2.957,2.957,0,0,1,1.128,1.1A3.3,3.3,0,0,1,102.5,10.794Zm-3.343,2.215a2.09,2.09,0,0,0,2.188-2.235,2.115,2.115,0,0,0-2.208-2.222,2.069,2.069,0,0,0-1.572.66,2.21,2.21,0,0,0-.608,1.61,2.13,2.13,0,0,0,.619,1.606A2.2,2.2,0,0,0,99.155,13.009Z" transform="translate(-1183 1098)" fill="#00223d"/>
    <path id="Trazado_25745" data-name="Trazado 25745" d="M1.511,14V4.375H2.734V14Zm4.245,0V4.375H6.979V14Zm11.97.13a5.14,5.14,0,0,1-1.876-.338,4.472,4.472,0,0,1-1.511-.957,4.313,4.313,0,0,1-1-1.552,5.622,5.622,0,0,1-.366-2.068A5.376,5.376,0,0,1,13.6,6.556,4.271,4.271,0,0,1,15.319,4.83a5.344,5.344,0,0,1,4.84-.01,4.159,4.159,0,0,1,1.688,1.668l-1.08.581A3.077,3.077,0,0,0,19.523,5.8a3.633,3.633,0,0,0-1.764-.427,3.828,3.828,0,0,0-1.4.253,3.175,3.175,0,0,0-1.887,1.935A4.637,4.637,0,0,0,14.2,9.194a4.611,4.611,0,0,0,.27,1.62,3.314,3.314,0,0,0,.752,1.207,3.267,3.267,0,0,0,1.142.738,3.92,3.92,0,0,0,1.432.256,3.28,3.28,0,0,0,2.2-.749,3.145,3.145,0,0,0,1.036-2.136H17.787V9.092H22.23V14h-1V12.2a3.37,3.37,0,0,1-1.377,1.432A4.282,4.282,0,0,1,17.726,14.13ZM28.656,7.28h1.183V14H28.7l-.027-.889a2.1,2.1,0,0,1-.834.755,2.565,2.565,0,0,1-1.176.263,2.337,2.337,0,0,1-1.692-.608,2.269,2.269,0,0,1-.632-1.716V7.28h1.183v4.259a1.6,1.6,0,0,0,.414,1.2,1.464,1.464,0,0,0,1.056.4,1.608,1.608,0,0,0,1.193-.465,1.893,1.893,0,0,0,.468-1.374Zm9.468,3.227-.014.321H32.86a2.375,2.375,0,0,0,.643,1.719,2.11,2.11,0,0,0,1.531.6,2.015,2.015,0,0,0,1.114-.321,2.085,2.085,0,0,0,.766-.889l1.066.226A3.031,3.031,0,0,1,36.832,13.6a3.133,3.133,0,0,1-1.784.526,3.246,3.246,0,0,1-2.42-.937,3.484,3.484,0,0,1-.923-2.557,3.467,3.467,0,0,1,.926-2.55,3.206,3.206,0,0,1,2.382-.937,3.034,3.034,0,0,1,2.259.861A3.4,3.4,0,0,1,38.124,10.507ZM35.014,8.06a2.1,2.1,0,0,0-1.4.475,2.177,2.177,0,0,0-.708,1.384h4.026a2,2,0,0,0-.588-1.384A1.9,1.9,0,0,0,35.014,8.06Zm6.118.4a2.032,2.032,0,0,1,.834-.9,2.512,2.512,0,0,1,1.292-.355V8.319a2.214,2.214,0,0,0-1.562.5,2.084,2.084,0,0,0-.537,1.593V14H39.977V7.28h1.155Zm4.669,0a2.032,2.032,0,0,1,.834-.9,2.512,2.512,0,0,1,1.292-.355V8.319a2.214,2.214,0,0,0-1.562.5,2.084,2.084,0,0,0-.537,1.593V14H44.646V7.28H45.8Zm4.983,5.667a2.287,2.287,0,0,1-1.473-.461,1.657,1.657,0,0,1-.578-1.377,1.957,1.957,0,0,1,.185-.878,1.549,1.549,0,0,1,.547-.612,3.281,3.281,0,0,1,.79-.379,7.3,7.3,0,0,1,1.022-.243L52.363,10q.595-.109.595-.622a1.174,1.174,0,0,0-.42-1,1.713,1.713,0,0,0-1.063-.318,1.745,1.745,0,0,0-1.053.308,1.287,1.287,0,0,0-.5.943l-1.066-.226A2.052,2.052,0,0,1,49.7,7.646a3.141,3.141,0,0,1,1.832-.482,3.716,3.716,0,0,1,.974.12,2.647,2.647,0,0,1,.813.376,1.686,1.686,0,0,1,.581.725,2.7,2.7,0,0,1,.208,1.1v2.775a1.136,1.136,0,0,0,.154.7.664.664,0,0,0,.53.181H54.9V14h-.588a1.121,1.121,0,0,1-1.271-.909h-.055A2.568,2.568,0,0,1,50.784,14.13Zm.273-.957a1.793,1.793,0,0,0,1.442-.649,2.674,2.674,0,0,0,.547-1.777l-1.777.342a2.392,2.392,0,0,0-1.042.373.867.867,0,0,0-.338.735.857.857,0,0,0,.325.738A1.388,1.388,0,0,0,51.058,13.173ZM70.69,14H69.5l-.643-7.943L65.782,14h-.731L62,6.084,61.346,14h-1.2l.731-9.625h1.613l2.919,7.506,2.926-7.506h1.627Zm6.535-6.72h1.183V14H77.273l-.027-.889a2.1,2.1,0,0,1-.834.755,2.565,2.565,0,0,1-1.176.263,2.337,2.337,0,0,1-1.692-.608,2.269,2.269,0,0,1-.632-1.716V7.28h1.183v4.259a1.6,1.6,0,0,0,.414,1.2,1.464,1.464,0,0,0,1.056.4,1.608,1.608,0,0,0,1.193-.465,1.893,1.893,0,0,0,.468-1.374Zm6.761-.13a2.337,2.337,0,0,1,1.692.608,2.269,2.269,0,0,1,.632,1.716V14H85.128V9.741a1.589,1.589,0,0,0-.41-1.2,1.466,1.466,0,0,0-1.053-.39,1.626,1.626,0,0,0-1.2.461A1.872,1.872,0,0,0,82,9.98V14H80.814V7.28H82v.861A2.244,2.244,0,0,1,83.986,7.15Zm9.57-3.65h1.183V14H93.6l-.027-1.306a2.473,2.473,0,0,1-.957,1.06,2.667,2.667,0,0,1-1.422.39,3.054,3.054,0,0,1-2.218-.947,3.236,3.236,0,0,1-.677-1.111,4.063,4.063,0,0,1-.25-1.442,3.533,3.533,0,0,1,.913-2.522,2.946,2.946,0,0,1,2.232-.971,2.678,2.678,0,0,1,1.4.379,2.487,2.487,0,0,1,.96,1.029Zm-2.119,9.618A2.012,2.012,0,0,0,93,12.411a2.554,2.554,0,0,0,.632-1.767A2.549,2.549,0,0,0,93,8.88a2.011,2.011,0,0,0-1.559-.711,2.056,2.056,0,0,0-1.572.687,2.528,2.528,0,0,0-.636,1.788,2.528,2.528,0,0,0,.636,1.788A2.056,2.056,0,0,0,91.438,13.118ZM97.747,5.7a.805.805,0,0,1-.8-.8.758.758,0,0,1,.236-.561.775.775,0,0,1,.564-.232.767.767,0,0,1,.557.232.758.758,0,0,1,.236.561.77.77,0,0,1-.236.564A.762.762,0,0,1,97.747,5.7Zm-.6,8.3V7.28h1.189V14Zm5.147.13a2.287,2.287,0,0,1-1.473-.461,1.657,1.657,0,0,1-.578-1.377,1.957,1.957,0,0,1,.185-.878,1.549,1.549,0,0,1,.547-.612,3.281,3.281,0,0,1,.79-.379,7.3,7.3,0,0,1,1.022-.243L103.872,10q.595-.109.595-.622a1.174,1.174,0,0,0-.42-1,1.713,1.713,0,0,0-1.063-.318,1.745,1.745,0,0,0-1.053.308,1.287,1.287,0,0,0-.5.943l-1.066-.226a2.052,2.052,0,0,1,.841-1.439,3.141,3.141,0,0,1,1.832-.482,3.716,3.716,0,0,1,.974.12,2.647,2.647,0,0,1,.813.376,1.686,1.686,0,0,1,.581.725,2.7,2.7,0,0,1,.208,1.1v2.775a1.136,1.136,0,0,0,.154.7.664.664,0,0,0,.53.181h.109V14h-.588a1.121,1.121,0,0,1-1.271-.909h-.055A2.568,2.568,0,0,1,102.293,14.13Zm.273-.957a1.793,1.793,0,0,0,1.442-.649,2.674,2.674,0,0,0,.547-1.777l-1.777.342a2.392,2.392,0,0,0-1.042.373.867.867,0,0,0-.338.735.857.857,0,0,0,.325.738A1.388,1.388,0,0,0,102.566,13.173Zm5.51.827V3.5h1.2V14Z" transform="translate(-1011 1098)" fill="#00223d"/>
    <path id="Trazado_25743" data-name="Trazado 25743" d="M11.1,21.367V18.072h9.8v3.295Z" transform="translate(-1059 1027)" fill="#00223d"/>
    <path id="Trazado_9621" data-name="Trazado 9621" d="M2882.62,907.448a43.253,43.253,0,1,1-43.253-43.253A43.253,43.253,0,0,1,2882.62,907.448Z" transform="translate(-3788.039 132.719)" fill="#c9f3ff"/>
    <g id="Grupo_16042" data-name="Grupo 16042" transform="translate(-989.788 1002.649)">
      <path id="Trazado_9622" data-name="Trazado 9622" d="M2957.575,880.66a10.067,10.067,0,0,0-2.73,6.9,3.753,3.753,0,0,1-3.753,3.753,6.641,6.641,0,0,0-6.641,6.641,8.084,8.084,0,0,0,8.084,8.084h25.027A43.363,43.363,0,0,0,2957.575,880.66Z" transform="translate(-2894.922 -880.66)" fill="#36d28f"/>
      <path id="Trazado_9623" data-name="Trazado 9623" d="M2802.25,912.035h15.309a4.719,4.719,0,0,0,4.72-4.719v-.194A4.72,4.72,0,0,1,2827,902.4a4.719,4.719,0,0,0,4.72-4.719v-1.032a4.72,4.72,0,0,0-4.72-4.72h-10.756A41,41,0,0,0,2802.25,912.035Z" transform="translate(-2802.25 -888.005)" fill="#36d28f"/>
      <path id="Trazado_9624" data-name="Trazado 9624" d="M2933.185,953.534H2913.76a7.628,7.628,0,0,0-7.627,7.627v5.3a7.628,7.628,0,0,0,7.627,7.627c3.232,0,5.852.675,5.852,3.907v21.137l7.151-7.913a5.245,5.245,0,0,1,3.89-1.728,5.244,5.244,0,0,0,5.244-5.244v-7.584a3.65,3.65,0,0,1,3.651-3.651h1.684a3.65,3.65,0,0,0,3.651-3.65v-4.133a3.651,3.651,0,0,0-3.651-3.651,3.65,3.65,0,0,1-3.649-3.651A4.4,4.4,0,0,0,2933.185,953.534Z" transform="translate(-2869.95 -928.152)" fill="#36d28f"/>
    </g>
    <path id="Trazado_9625" data-name="Trazado 9625" d="M2815.474,1042.225h-29.091a12.249,12.249,0,0,0,0,24.5h29.091a12.249,12.249,0,0,0,0-24.5Z" transform="translate(-3773.715 16.697)" fill="#fff"/>
    <path id="Trazado_9626" data-name="Trazado 9626" d="M2815.474,1042.225h-29.091a12.249,12.249,0,0,0,0,24.5h29.091a12.249,12.249,0,0,0,0-24.5Z" transform="translate(-3773.715 16.697)" fill="#4dbaf6"/>
    <path id="Trazado_9627" data-name="Trazado 9627" d="M2891.686,1070.23a3.828,3.828,0,1,1-3.828-3.828A3.827,3.827,0,0,1,2891.686,1070.23Z" transform="translate(-3845.334 0.941)" fill="#fff"/>
    <path id="Trazado_9628" data-name="Trazado 9628" d="M2847.728,1070.23a3.828,3.828,0,1,1-3.828-3.828A3.828,3.828,0,0,1,2847.728,1070.23Z" transform="translate(-3816.687 0.941)" fill="#fff"/>
    <path id="Trazado_9629" data-name="Trazado 9629" d="M2803.769,1070.23a3.828,3.828,0,1,1-3.828-3.828A3.827,3.827,0,0,1,2803.769,1070.23Z" transform="translate(-3788.039 0.941)" fill="#fff"/>
    <path id="Trazado_9630" data-name="Trazado 9630" d="M2809.3,1004.861h30.622v13.014H2809.3Z" transform="translate(-3796.633 41.047)" fill="#f9a825"/>
    <path id="Trazado_9631" data-name="Trazado 9631" d="M2897.217,1012.554h21.436v7.655h-21.436Z" transform="translate(-3853.927 36.034)" fill="#4dbaf6"/>
    <path id="Trazado_9632" data-name="Trazado 9632" d="M2829.082,982.882h16.842v7.655h-16.842Z" transform="translate(-3809.524 55.371)" fill="#4dbaf6"/>
    <path id="Trazado_9633" data-name="Trazado 9633" d="M2853.4,871.929a45.176,45.176,0,0,0-73.715,49.13,14.161,14.161,0,0,0,3.117,27.975h29.09a14.164,14.164,0,0,0,3.409-.417l.016,0a45.855,45.855,0,0,0,6.144.414,44.811,44.811,0,0,0,26.845-8.84,1.914,1.914,0,0,0-2.277-3.077,41,41,0,0,1-24.467,8.088,14.148,14.148,0,0,0-4.089-23.348h10.62v15.475a1.914,1.914,0,0,0,3.333,1.284l7.151-7.913a3.338,3.338,0,0,1,2.471-1.1,7.166,7.166,0,0,0,7.158-7.158v-7.584a1.738,1.738,0,0,1,1.737-1.737h1.684a5.571,5.571,0,0,0,5.564-5.564v-4.133a5.57,5.57,0,0,0-5.564-5.564,1.738,1.738,0,0,1-1.736-1.737,6.268,6.268,0,0,0-.51-2.483h12.139a41.384,41.384,0,0,1-6.772,34.74,1.914,1.914,0,0,0,3.08,2.273,45.174,45.174,0,0,0-4.429-58.729Zm-13.278-4.943a12.031,12.031,0,0,0-1.767,6.268,1.841,1.841,0,0,1-1.839,1.839,8.564,8.564,0,0,0-8.554,8.555,9.948,9.948,0,0,0,2.139,6.17h-5.945a9.552,9.552,0,0,0-9.541,9.541v5.3a9.494,9.494,0,0,0,1.9,5.713h-1.183v-.766a1.914,1.914,0,0,0-1.914-1.914h-4.976v-5.741a1.914,1.914,0,0,0-1.914-1.914h-16.842a1.914,1.914,0,0,0-1.914,1.914v5.741H2782.8a1.914,1.914,0,0,0-1.914,1.914v2.24a41.66,41.66,0,0,1-.765-7.981,41.215,41.215,0,0,1,1.652-11.574h13.881a6.641,6.641,0,0,0,6.634-6.633v-.194a2.809,2.809,0,0,1,2.805-2.806,6.641,6.641,0,0,0,6.634-6.633v-1.032a6.641,6.641,0,0,0-6.634-6.633h-4.782a41.271,41.271,0,0,1,39.81-1.375Zm-7.177,47.216v3.828h-17.607V914.2Zm-28.325-6.507h-13.014v-3.828h13.014Zm-14.928,3.828h21.818v9.186h-26.794v-9.186Zm5.25-39.341c.046,0,.091.007.137.007h10.015a2.809,2.809,0,0,1,2.806,2.806v1.032a2.808,2.808,0,0,1-2.806,2.806,6.642,6.642,0,0,0-6.633,6.633v.194a2.809,2.809,0,0,1-2.806,2.806H2783.1A41.536,41.536,0,0,1,2794.942,872.181Zm27.285,62.69a10.347,10.347,0,0,1-10.334,10.335H2782.8a10.335,10.335,0,1,1,0-20.67h29.09A10.347,10.347,0,0,1,2822.227,934.871Zm23.837-38.743a5.571,5.571,0,0,0,5.564,5.565,1.738,1.738,0,0,1,1.737,1.736v4.133a1.739,1.739,0,0,1-1.737,1.737h-1.684a5.571,5.571,0,0,0-5.564,5.565v7.584a3.333,3.333,0,0,1-3.33,3.33,7.17,7.17,0,0,0-5.31,2.358l-3.818,4.225v-10.5h1.023v.048a1.914,1.914,0,1,0,3.828,0V910.326a1.914,1.914,0,0,0-3.828,0v.048h-8.788a5.72,5.72,0,0,1-5.713-5.713v-5.3a5.72,5.72,0,0,1,5.713-5.713h19.425A2.486,2.486,0,0,1,2846.064,896.128Zm-2.483-6.311h-5.622a6.177,6.177,0,0,1-6.17-6.17,4.731,4.731,0,0,1,4.726-4.727,5.674,5.674,0,0,0,5.667-5.667,8.193,8.193,0,0,1,1.268-4.376,41.561,41.561,0,0,1,16.891,20.94Z" transform="translate(-3770.135 136.3)" fill="#00223d"/>
    <path id="Trazado_9634" data-name="Trazado 9634" d="M3003.288,1071.045l-.055.055a1.914,1.914,0,1,0,2.722,2.691l.04-.039a1.914,1.914,0,0,0-2.707-2.707Z" transform="translate(-3922.658 -1.72)" fill="#00223d"/>
    <path id="Trazado_9635" data-name="Trazado 9635" d="M2878.535,1066.649a5.742,5.742,0,1,0,5.742-5.742A5.748,5.748,0,0,0,2878.535,1066.649Zm5.742-1.914a1.914,1.914,0,1,1-1.914,1.914A1.916,1.916,0,0,1,2884.277,1064.735Z" transform="translate(-3841.752 4.522)" fill="#00223d"/>
    <path id="Trazado_9636" data-name="Trazado 9636" d="M2840.318,1060.907a5.742,5.742,0,1,0,5.742,5.742A5.748,5.748,0,0,0,2840.318,1060.907Zm0,7.656a1.914,1.914,0,1,1,1.914-1.914A1.916,1.916,0,0,1,2840.318,1068.563Z" transform="translate(-3813.105 4.522)" fill="#00223d"/>
    <path id="Trazado_9637" data-name="Trazado 9637" d="M2796.36,1060.907a5.742,5.742,0,1,0,5.741,5.742A5.748,5.748,0,0,0,2796.36,1060.907Zm0,7.656a1.914,1.914,0,1,1,1.914-1.914A1.916,1.916,0,0,1,2796.36,1068.563Z" transform="translate(-3784.458 4.522)" fill="#00223d"/>
    <path id="Trazado_9638" data-name="Trazado 9638" d="M2925.139,890.36h8.612a1.914,1.914,0,0,0,0-3.828h-8.612a1.914,1.914,0,0,0,0,3.828Z" transform="translate(-3870.877 118.162)" fill="#00223d"/>
    <path id="Trazado_9639" data-name="Trazado 9639" d="M2902.555,890.36a1.915,1.915,0,1,0-1.353-.561A1.93,1.93,0,0,0,2902.555,890.36Z" transform="translate(-3856.159 118.163)" fill="#00223d"/>
  </g>
</svg>
