<svg xmlns="http://www.w3.org/2000/svg" width="578.775" height="158.384" viewBox="0 0 578.775 158.384">
  <g id="Grupo_16599" data-name="Grupo 16599" transform="translate(-241 -824)">
    <path id="Trazado_25757" data-name="Trazado 25757" d="M4.484,14.13a4.393,4.393,0,0,1-2.512-.68A2.879,2.879,0,0,1,.718,11.58l1.237-.294A2.029,2.029,0,0,0,2.823,12.6a2.936,2.936,0,0,0,1.7.479,3.551,3.551,0,0,0,.636-.055,2.432,2.432,0,0,0,.578-.181,1.769,1.769,0,0,0,.475-.311,1.3,1.3,0,0,0,.314-.472,1.615,1.615,0,0,0,.109-.643,1.389,1.389,0,0,0-.085-.455,1.443,1.443,0,0,0-.191-.359,1.289,1.289,0,0,0-.325-.291,4.351,4.351,0,0,0-.39-.232,3.522,3.522,0,0,0-.482-.195q-.3-.1-.509-.161L4.1,9.57Q4.033,9.55,4,9.543q-.4-.1-.646-.178t-.6-.208a3.935,3.935,0,0,1-.571-.263,3.864,3.864,0,0,1-.468-.328,1.681,1.681,0,0,1-.386-.427A2.255,2.255,0,0,1,1.1,7.595,2.419,2.419,0,0,1,1,6.911a2.441,2.441,0,0,1,.448-1.477,2.62,2.62,0,0,1,1.155-.9A4.193,4.193,0,0,1,4.2,4.245a4.352,4.352,0,0,1,2.314.591A2.635,2.635,0,0,1,7.738,6.583l-1.189.3a1.81,1.81,0,0,0-.8-1.183,2.74,2.74,0,0,0-1.5-.4,2.979,2.979,0,0,0-.738.089,2.194,2.194,0,0,0-.639.273,1.327,1.327,0,0,0-.461.5,1.528,1.528,0,0,0-.171.735,1.181,1.181,0,0,0,.068.407,1.249,1.249,0,0,0,.171.325,1.217,1.217,0,0,0,.294.267,2.986,2.986,0,0,0,.359.212,3.637,3.637,0,0,0,.448.174q.28.092.479.15t.526.14a11.136,11.136,0,0,1,1.853.615,2.345,2.345,0,0,1,1.429,1.771,3.052,3.052,0,0,1,.027.417,2.69,2.69,0,0,1-.277,1.244,2.244,2.244,0,0,1-.759.861,3.627,3.627,0,0,1-1.08.482A4.953,4.953,0,0,1,4.484,14.13ZM10.493,5.7a.805.805,0,0,1-.8-.8.758.758,0,0,1,.236-.561.775.775,0,0,1,.564-.232.767.767,0,0,1,.557.232.758.758,0,0,1,.236.561.77.77,0,0,1-.236.564A.762.762,0,0,1,10.493,5.7Zm-.6,8.3V7.28h1.189V14Zm5.722.13a3.186,3.186,0,0,1-1.812-.485,2.007,2.007,0,0,1-.882-1.381l1.032-.294a1.44,1.44,0,0,0,.55.933,1.785,1.785,0,0,0,1.1.332,2.2,2.2,0,0,0,.646-.089,1.036,1.036,0,0,0,.5-.332.925.925,0,0,0,.144-.889,1.187,1.187,0,0,0-.109-.222.677.677,0,0,0-.191-.185,2.524,2.524,0,0,0-.232-.144,2.386,2.386,0,0,0-.3-.126q-.2-.072-.325-.109t-.376-.109l-.39-.113a7.289,7.289,0,0,1-.7-.246,3.058,3.058,0,0,1-.567-.325,1.306,1.306,0,0,1-.441-.53,1.793,1.793,0,0,1-.147-.752,1.738,1.738,0,0,1,.328-1.073,1.846,1.846,0,0,1,.851-.632,3.4,3.4,0,0,1,1.193-.195,2.92,2.92,0,0,1,1.637.438,1.867,1.867,0,0,1,.817,1.313l-.971.246a1.287,1.287,0,0,0-.513-.851,1.632,1.632,0,0,0-.964-.284,1.664,1.664,0,0,0-.9.236.793.793,0,0,0-.376.721.718.718,0,0,0,.1.373,1.183,1.183,0,0,0,.2.263,1.24,1.24,0,0,0,.369.2q.267.106.4.144t.492.126q.068.021.1.027.4.1.646.181a3.971,3.971,0,0,1,.581.246,1.932,1.932,0,0,1,.523.366,1.694,1.694,0,0,1,.328.52,1.834,1.834,0,0,1,.137.725,1.957,1.957,0,0,1-.2.906,1.577,1.577,0,0,1-.55.619,2.661,2.661,0,0,1-.783.338A3.729,3.729,0,0,1,15.613,14.13Zm6.48-.13a1.766,1.766,0,0,1-1.312-.482,1.823,1.823,0,0,1-.479-1.343V8.224H18.929V7.28h.506a.971.971,0,0,0,.742-.236,1.161,1.161,0,0,0,.215-.79V5.038h1.1V7.28h1.545v.943H21.492v3.828a1.019,1.019,0,0,0,.256.742.9.9,0,0,0,.673.263h.615V14Zm8.449-3.493-.014.321h-5.25a2.375,2.375,0,0,0,.643,1.719,2.11,2.11,0,0,0,1.531.6,2.015,2.015,0,0,0,1.114-.321,2.085,2.085,0,0,0,.766-.889l1.066.226A3.031,3.031,0,0,1,29.251,13.6a3.133,3.133,0,0,1-1.784.526,3.246,3.246,0,0,1-2.42-.937,3.484,3.484,0,0,1-.923-2.557,3.467,3.467,0,0,1,.926-2.55,3.206,3.206,0,0,1,2.382-.937,3.034,3.034,0,0,1,2.259.861A3.4,3.4,0,0,1,30.543,10.507ZM27.433,8.06a2.1,2.1,0,0,0-1.4.475,2.177,2.177,0,0,0-.708,1.384h4.026a2,2,0,0,0-.588-1.384A1.9,1.9,0,0,0,27.433,8.06ZM39.266,7.15a2.166,2.166,0,0,1,1.565.571,2.117,2.117,0,0,1,.595,1.6V14H40.243V9.632a1.518,1.518,0,0,0-.369-1.107,1.257,1.257,0,0,0-.937-.376,1.327,1.327,0,0,0-1.025.424,1.822,1.822,0,0,0-.39,1.271V14h-1.2V9.68a1.589,1.589,0,0,0-.373-1.145,1.267,1.267,0,0,0-.954-.386,1.315,1.315,0,0,0-1.022.434,1.885,1.885,0,0,0-.393,1.3V14H32.4V7.28h1.183v.868a2.041,2.041,0,0,1,.769-.738,2.193,2.193,0,0,1,1.07-.26,2.283,2.283,0,0,1,1.148.284,1.766,1.766,0,0,1,.745.817,2.091,2.091,0,0,1,.807-.817A2.307,2.307,0,0,1,39.266,7.15Zm6,6.979a2.287,2.287,0,0,1-1.473-.461,1.657,1.657,0,0,1-.578-1.377,1.957,1.957,0,0,1,.185-.878,1.549,1.549,0,0,1,.547-.612,3.281,3.281,0,0,1,.79-.379,7.3,7.3,0,0,1,1.022-.243L46.847,10q.595-.109.595-.622a1.174,1.174,0,0,0-.42-1,1.713,1.713,0,0,0-1.063-.318,1.745,1.745,0,0,0-1.053.308,1.287,1.287,0,0,0-.5.943L43.34,9.085a2.052,2.052,0,0,1,.841-1.439,3.141,3.141,0,0,1,1.832-.482,3.716,3.716,0,0,1,.974.12,2.647,2.647,0,0,1,.813.376,1.686,1.686,0,0,1,.581.725,2.7,2.7,0,0,1,.208,1.1v2.775a1.136,1.136,0,0,0,.154.7.664.664,0,0,0,.53.181h.109V14h-.588a1.121,1.121,0,0,1-1.271-.909h-.055A2.568,2.568,0,0,1,45.268,14.13Zm.273-.957a1.793,1.793,0,0,0,1.442-.649,2.674,2.674,0,0,0,.547-1.777l-1.777.342a2.392,2.392,0,0,0-1.042.373.867.867,0,0,0-.338.735.857.857,0,0,0,.325.738A1.388,1.388,0,0,0,45.541,13.173Zm15.921-8.8h1.217V14H61.387L56.2,6.214V14H55V4.375h1.278l5.188,7.752Zm5.387,9.755a2.287,2.287,0,0,1-1.473-.461,1.657,1.657,0,0,1-.578-1.377,1.957,1.957,0,0,1,.185-.878,1.549,1.549,0,0,1,.547-.612,3.281,3.281,0,0,1,.79-.379,7.3,7.3,0,0,1,1.022-.243L68.428,10q.595-.109.595-.622a1.174,1.174,0,0,0-.42-1,1.713,1.713,0,0,0-1.063-.318,1.745,1.745,0,0,0-1.053.308,1.287,1.287,0,0,0-.5.943l-1.066-.226a2.052,2.052,0,0,1,.841-1.439,3.141,3.141,0,0,1,1.832-.482,3.716,3.716,0,0,1,.974.12,2.647,2.647,0,0,1,.813.376,1.686,1.686,0,0,1,.581.725,2.7,2.7,0,0,1,.208,1.1v2.775a1.136,1.136,0,0,0,.154.7.664.664,0,0,0,.53.181h.109V14h-.588a1.121,1.121,0,0,1-1.271-.909H69.05A2.568,2.568,0,0,1,66.849,14.13Zm.273-.957a1.793,1.793,0,0,0,1.442-.649,2.674,2.674,0,0,0,.547-1.777l-1.777.342a2.392,2.392,0,0,0-1.042.373.867.867,0,0,0-.338.735.857.857,0,0,0,.325.738A1.388,1.388,0,0,0,67.122,13.173Zm8.162.95a3.237,3.237,0,0,1-2.406-.964,3.438,3.438,0,0,1-.95-2.522,3.445,3.445,0,0,1,.947-2.522,3.5,3.5,0,0,1,4.354-.376A2.967,2.967,0,0,1,78.36,9.372l-1.107.178A2.045,2.045,0,0,0,76.494,8.5a2.066,2.066,0,0,0-1.217-.369,1.987,1.987,0,0,0-1.555.69,2.63,2.63,0,0,0-.612,1.812,2.617,2.617,0,0,0,.612,1.808,1.991,1.991,0,0,0,1.555.687,2.066,2.066,0,0,0,1.217-.369,2.045,2.045,0,0,0,.759-1.046l1.107.185a2.97,2.97,0,0,1-1.138,1.63A3.255,3.255,0,0,1,75.284,14.123ZM80.705,5.7a.805.805,0,0,1-.8-.8.758.758,0,0,1,.236-.561.775.775,0,0,1,.564-.232.767.767,0,0,1,.557.232A.758.758,0,0,1,81.5,4.9a.77.77,0,0,1-.236.564A.762.762,0,0,1,80.705,5.7ZM80.1,14V7.28h1.189V14Zm6.426.13a3.542,3.542,0,0,1-1.723-.417,3.036,3.036,0,0,1-1.213-1.22,3.748,3.748,0,0,1-.448-1.856A3.423,3.423,0,0,1,84.1,8.1a3.578,3.578,0,0,1,4.864,0,3.43,3.43,0,0,1,.95,2.533,3.432,3.432,0,0,1-.954,2.54A3.292,3.292,0,0,1,86.529,14.13Zm-.007-.984a2.064,2.064,0,0,0,1.589-.69,2.587,2.587,0,0,0,.632-1.818,2.577,2.577,0,0,0-.632-1.812,2.064,2.064,0,0,0-1.589-.69,2.035,2.035,0,0,0-1.576.69,2.594,2.594,0,0,0-.625,1.812,2.6,2.6,0,0,0,.625,1.818A2.035,2.035,0,0,0,86.522,13.146Zm8.415-6a2.337,2.337,0,0,1,1.692.608,2.269,2.269,0,0,1,.632,1.716V14H96.079V9.741a1.589,1.589,0,0,0-.41-1.2,1.466,1.466,0,0,0-1.053-.39,1.626,1.626,0,0,0-1.2.461,1.872,1.872,0,0,0-.472,1.371V14H91.766V7.28h1.183v.861A2.244,2.244,0,0,1,94.938,7.15ZM101.1,14.13a2.287,2.287,0,0,1-1.473-.461,1.657,1.657,0,0,1-.578-1.377,1.957,1.957,0,0,1,.185-.878,1.549,1.549,0,0,1,.547-.612,3.281,3.281,0,0,1,.79-.379,7.3,7.3,0,0,1,1.022-.243L102.676,10q.595-.109.595-.622a1.174,1.174,0,0,0-.42-1,1.713,1.713,0,0,0-1.063-.318,1.745,1.745,0,0,0-1.053.308,1.287,1.287,0,0,0-.5.943l-1.066-.226a2.052,2.052,0,0,1,.841-1.439,3.141,3.141,0,0,1,1.832-.482,3.716,3.716,0,0,1,.974.12,2.647,2.647,0,0,1,.813.376,1.686,1.686,0,0,1,.581.725,2.7,2.7,0,0,1,.208,1.1v2.775a1.136,1.136,0,0,0,.154.7.664.664,0,0,0,.53.181h.109V14h-.588a1.121,1.121,0,0,1-1.271-.909H103.3A2.568,2.568,0,0,1,101.1,14.13Zm.273-.957a1.793,1.793,0,0,0,1.442-.649,2.674,2.674,0,0,0,.547-1.777l-1.777.342a2.392,2.392,0,0,0-1.042.373.867.867,0,0,0-.338.735.857.857,0,0,0,.325.738A1.388,1.388,0,0,0,101.37,13.173Zm5.51.827V3.5h1.2V14Zm12.2-10.5h1.183V14h-1.142l-.027-1.306a2.473,2.473,0,0,1-.957,1.06,2.667,2.667,0,0,1-1.422.39A3.054,3.054,0,0,1,114.5,13.2a3.236,3.236,0,0,1-.677-1.111,4.063,4.063,0,0,1-.25-1.442,3.533,3.533,0,0,1,.913-2.522,2.946,2.946,0,0,1,2.232-.971,2.678,2.678,0,0,1,1.4.379,2.487,2.487,0,0,1,.96,1.029Zm-2.119,9.618a2.012,2.012,0,0,0,1.562-.708,2.554,2.554,0,0,0,.632-1.767,2.549,2.549,0,0,0-.636-1.764,2.011,2.011,0,0,0-1.559-.711,2.056,2.056,0,0,0-1.572.687,2.528,2.528,0,0,0-.636,1.788,2.528,2.528,0,0,0,.636,1.788A2.056,2.056,0,0,0,116.963,13.118Zm11.587-2.611-.014.321h-5.25a2.374,2.374,0,0,0,.643,1.719,2.11,2.11,0,0,0,1.531.6,2.015,2.015,0,0,0,1.114-.321,2.085,2.085,0,0,0,.766-.889l1.066.226a3.031,3.031,0,0,1-1.148,1.442,3.133,3.133,0,0,1-1.784.526,3.246,3.246,0,0,1-2.42-.937,3.484,3.484,0,0,1-.923-2.557,3.467,3.467,0,0,1,.926-2.55,3.206,3.206,0,0,1,2.382-.937,3.034,3.034,0,0,1,2.259.861A3.4,3.4,0,0,1,128.55,10.507Zm-3.11-2.447a2.1,2.1,0,0,0-1.4.475,2.177,2.177,0,0,0-.708,1.384h4.026a2,2,0,0,0-.588-1.384A1.9,1.9,0,0,0,125.439,8.06ZM140.526,14l-.827-2.3h-4.354l-.82,2.3h-1.278l3.548-9.625h1.463L141.8,14Zm-4.792-3.384h3.582l-1.791-5.011ZM145.564,14a1.766,1.766,0,0,1-1.312-.482,1.823,1.823,0,0,1-.479-1.343V8.224H142.4V7.28h.506a.971.971,0,0,0,.742-.236,1.161,1.161,0,0,0,.215-.79V5.038h1.1V7.28h1.545v.943h-1.545v3.828a1.019,1.019,0,0,0,.256.742.9.9,0,0,0,.673.263h.615V14Zm8.449-3.493-.014.321h-5.25a2.375,2.375,0,0,0,.643,1.719,2.11,2.11,0,0,0,1.531.6,2.015,2.015,0,0,0,1.114-.321,2.085,2.085,0,0,0,.766-.889l1.066.226a3.031,3.031,0,0,1-1.148,1.442,3.133,3.133,0,0,1-1.784.526,3.246,3.246,0,0,1-2.42-.937,3.484,3.484,0,0,1-.923-2.557,3.467,3.467,0,0,1,.926-2.55A3.206,3.206,0,0,1,150.9,7.15a3.034,3.034,0,0,1,2.259.861A3.4,3.4,0,0,1,154.014,10.507ZM150.9,8.06a2.1,2.1,0,0,0-1.4.475,2.177,2.177,0,0,0-.708,1.384h4.026a2,2,0,0,0-.588-1.384A1.9,1.9,0,0,0,150.9,8.06Zm8.135-.909a2.338,2.338,0,0,1,1.692.608,2.269,2.269,0,0,1,.632,1.716V14H160.18V9.741a1.589,1.589,0,0,0-.41-1.2,1.466,1.466,0,0,0-1.053-.39,1.626,1.626,0,0,0-1.2.461,1.872,1.872,0,0,0-.472,1.371V14h-1.183V7.28h1.183v.861A2.244,2.244,0,0,1,159.038,7.15Zm7.4,6.973a3.237,3.237,0,0,1-2.406-.964,3.438,3.438,0,0,1-.95-2.522,3.445,3.445,0,0,1,.947-2.522,3.5,3.5,0,0,1,4.354-.376,2.967,2.967,0,0,1,1.131,1.634L168.4,9.55a2.045,2.045,0,0,0-.759-1.046,2.066,2.066,0,0,0-1.217-.369,1.987,1.987,0,0,0-1.555.69,2.63,2.63,0,0,0-.612,1.812,2.617,2.617,0,0,0,.612,1.808,1.991,1.991,0,0,0,1.555.687,2.066,2.066,0,0,0,1.217-.369,2.045,2.045,0,0,0,.759-1.046l1.107.185a2.97,2.97,0,0,1-1.138,1.63A3.255,3.255,0,0,1,166.435,14.123ZM171.855,5.7a.805.805,0,0,1-.8-.8.758.758,0,0,1,.236-.561.775.775,0,0,1,.564-.232.767.767,0,0,1,.557.232.758.758,0,0,1,.236.561.77.77,0,0,1-.236.564A.762.762,0,0,1,171.855,5.7Zm-.6,8.3V7.28h1.189V14Zm5.975-7.875L178.944,3.9l.629.458-1.531,1.771Zm.451,8a3.542,3.542,0,0,1-1.723-.417,3.036,3.036,0,0,1-1.213-1.22,3.748,3.748,0,0,1-.448-1.856A3.423,3.423,0,0,1,175.25,8.1a3.578,3.578,0,0,1,4.864,0,3.43,3.43,0,0,1,.95,2.533,3.432,3.432,0,0,1-.954,2.54A3.292,3.292,0,0,1,177.68,14.13Zm-.007-.984a2.064,2.064,0,0,0,1.589-.69,2.587,2.587,0,0,0,.632-1.818,2.577,2.577,0,0,0-.632-1.812,2.064,2.064,0,0,0-1.589-.69,2.035,2.035,0,0,0-1.576.69,2.594,2.594,0,0,0-.625,1.812,2.6,2.6,0,0,0,.625,1.818A2.035,2.035,0,0,0,177.673,13.146Zm8.415-6a2.338,2.338,0,0,1,1.692.608,2.269,2.269,0,0,1,.632,1.716V14h-1.183V9.741a1.589,1.589,0,0,0-.41-1.2,1.466,1.466,0,0,0-1.053-.39,1.626,1.626,0,0,0-1.2.461A1.872,1.872,0,0,0,184.1,9.98V14h-1.183V7.28H184.1v.861A2.244,2.244,0,0,1,186.088,7.15ZM194.64,14V4.375h1.224V14Zm7.109-6.85a2.338,2.338,0,0,1,1.692.608,2.269,2.269,0,0,1,.632,1.716V14h-1.183V9.741a1.589,1.589,0,0,0-.41-1.2,1.466,1.466,0,0,0-1.053-.39,1.626,1.626,0,0,0-1.2.461,1.872,1.872,0,0,0-.472,1.371V14h-1.183V7.28h1.183v.861A2.244,2.244,0,0,1,201.749,7.15ZM208.5,14a1.766,1.766,0,0,1-1.312-.482,1.823,1.823,0,0,1-.479-1.343V8.224h-1.374V7.28h.506a.971.971,0,0,0,.742-.236,1.161,1.161,0,0,0,.215-.79V5.038h1.1V7.28h1.545v.943H207.9v3.828a1.019,1.019,0,0,0,.256.742.9.9,0,0,0,.673.263h.615V14Zm8.449-3.493-.014.321h-5.25a2.375,2.375,0,0,0,.643,1.719,2.11,2.11,0,0,0,1.531.6,2.015,2.015,0,0,0,1.114-.321,2.085,2.085,0,0,0,.766-.889l1.066.226A3.031,3.031,0,0,1,215.66,13.6a3.133,3.133,0,0,1-1.784.526,3.246,3.246,0,0,1-2.42-.937,3.484,3.484,0,0,1-.923-2.557,3.467,3.467,0,0,1,.926-2.55,3.206,3.206,0,0,1,2.382-.937,3.034,3.034,0,0,1,2.259.861A3.4,3.4,0,0,1,216.952,10.507Zm-3.11-2.447a2.1,2.1,0,0,0-1.4.475,2.177,2.177,0,0,0-.708,1.384h4.026a2,2,0,0,0-.588-1.384A1.9,1.9,0,0,0,213.842,8.06Zm9.83-.779h1.148v6.378a3.66,3.66,0,0,1-.868,2.618,3.615,3.615,0,0,1-5.667-1.142l.978-.479a2.222,2.222,0,0,0,2.249,1.552,1.929,1.929,0,0,0,1.576-.656,2.793,2.793,0,0,0,.543-1.832V12.476a2.368,2.368,0,0,1-.957.967,2.785,2.785,0,0,1-1.4.366,2.881,2.881,0,0,1-2.174-.947,3.339,3.339,0,0,1-.9-2.389,3.308,3.308,0,0,1,.9-2.382,2.909,2.909,0,0,1,2.184-.94,2.715,2.715,0,0,1,1.408.376,2.42,2.42,0,0,1,.95.991ZM221.539,12.8a2.033,2.033,0,0,0,1.548-.69,2.439,2.439,0,0,0,0-3.288,2.106,2.106,0,0,0-3.1-.021,2.336,2.336,0,0,0-.632,1.668A2.316,2.316,0,0,0,220,12.13,2.049,2.049,0,0,0,221.539,12.8Zm6.843-4.341a2.032,2.032,0,0,1,.834-.9,2.512,2.512,0,0,1,1.292-.355V8.319a2.214,2.214,0,0,0-1.562.5,2.084,2.084,0,0,0-.537,1.593V14h-1.183V7.28h1.155Zm4.983,5.667a2.287,2.287,0,0,1-1.473-.461,1.657,1.657,0,0,1-.578-1.377,1.957,1.957,0,0,1,.185-.878,1.549,1.549,0,0,1,.547-.612,3.28,3.28,0,0,1,.79-.379,7.3,7.3,0,0,1,1.022-.243L234.944,10q.595-.109.595-.622a1.174,1.174,0,0,0-.42-1,1.713,1.713,0,0,0-1.063-.318A1.745,1.745,0,0,0,233,8.367a1.287,1.287,0,0,0-.5.943l-1.066-.226a2.052,2.052,0,0,1,.841-1.439,3.141,3.141,0,0,1,1.832-.482,3.716,3.716,0,0,1,.974.12,2.647,2.647,0,0,1,.813.376,1.686,1.686,0,0,1,.581.725,2.7,2.7,0,0,1,.208,1.1v2.775a1.136,1.136,0,0,0,.154.7.664.664,0,0,0,.53.181h.109V14h-.588a1.121,1.121,0,0,1-1.271-.909h-.055A2.568,2.568,0,0,1,233.365,14.13Zm.273-.957a1.793,1.793,0,0,0,1.442-.649,2.674,2.674,0,0,0,.547-1.777l-1.777.342a2.392,2.392,0,0,0-1.042.373.867.867,0,0,0-.338.735.857.857,0,0,0,.325.738A1.388,1.388,0,0,0,233.639,13.173Zm5.51.827V3.5h1.2V14Zm8.791.13a2.287,2.287,0,0,1-1.473-.461,1.657,1.657,0,0,1-.578-1.377,1.957,1.957,0,0,1,.185-.878,1.549,1.549,0,0,1,.547-.612,3.28,3.28,0,0,1,.79-.379,7.3,7.3,0,0,1,1.022-.243L249.519,10q.595-.109.595-.622a1.174,1.174,0,0,0-.42-1,1.713,1.713,0,0,0-1.063-.318,1.745,1.745,0,0,0-1.053.308,1.287,1.287,0,0,0-.5.943l-1.066-.226a2.052,2.052,0,0,1,.841-1.439,3.141,3.141,0,0,1,1.832-.482,3.716,3.716,0,0,1,.974.12,2.647,2.647,0,0,1,.813.376,1.686,1.686,0,0,1,.581.725,2.7,2.7,0,0,1,.208,1.1v2.775a1.136,1.136,0,0,0,.154.7.664.664,0,0,0,.53.181h.109V14h-.588a1.121,1.121,0,0,1-1.271-.909h-.055A2.568,2.568,0,0,1,247.939,14.13Zm.273-.957a1.793,1.793,0,0,0,1.442-.649,2.674,2.674,0,0,0,.547-1.777l-1.777.342a2.392,2.392,0,0,0-1.042.373.867.867,0,0,0-.338.735.857.857,0,0,0,.325.738A1.388,1.388,0,0,0,248.213,13.173Zm9.146.827V3.5h1.2V14Zm5.154.13a2.287,2.287,0,0,1-1.473-.461,1.657,1.657,0,0,1-.578-1.377,1.957,1.957,0,0,1,.185-.878,1.549,1.549,0,0,1,.547-.612,3.281,3.281,0,0,1,.79-.379,7.3,7.3,0,0,1,1.022-.243L264.093,10q.595-.109.595-.622a1.174,1.174,0,0,0-.42-1A1.713,1.713,0,0,0,263.2,8.06a1.745,1.745,0,0,0-1.053.308,1.287,1.287,0,0,0-.5.943l-1.066-.226a2.052,2.052,0,0,1,.841-1.439,3.141,3.141,0,0,1,1.832-.482,3.716,3.716,0,0,1,.974.12,2.647,2.647,0,0,1,.813.376,1.686,1.686,0,0,1,.581.725,2.7,2.7,0,0,1,.208,1.1v2.775a1.136,1.136,0,0,0,.154.7.664.664,0,0,0,.53.181h.109V14h-.588a1.121,1.121,0,0,1-1.271-.909h-.055A2.568,2.568,0,0,1,262.514,14.13Zm.273-.957a1.793,1.793,0,0,0,1.442-.649,2.674,2.674,0,0,0,.547-1.777L263,11.088a2.392,2.392,0,0,0-1.042.373.867.867,0,0,0-.338.735.857.857,0,0,0,.325.738A1.388,1.388,0,0,0,262.787,13.173ZM5.154,22.375a2.85,2.85,0,0,1,1.507.4,2.7,2.7,0,0,1,1.012,1.07,3.139,3.139,0,0,1,.352,1.483,2.921,2.921,0,0,1-.8,2.1,2.733,2.733,0,0,1-2.075.837H2.734V32H1.511V22.375Zm-.178,4.819a1.75,1.75,0,0,0,1.34-.516,2.149,2.149,0,0,0,0-2.721,1.738,1.738,0,0,0-1.34-.523H2.734v3.76Zm7.116,4.936a3.542,3.542,0,0,1-1.723-.417,3.036,3.036,0,0,1-1.213-1.22,3.748,3.748,0,0,1-.448-1.856A3.423,3.423,0,0,1,9.663,26.1a3.292,3.292,0,0,1,2.43-.954,3.289,3.289,0,0,1,2.434.954,3.43,3.43,0,0,1,.95,2.533,3.432,3.432,0,0,1-.954,2.54A3.292,3.292,0,0,1,12.093,32.13Zm-.007-.984a2.064,2.064,0,0,0,1.589-.69,2.921,2.921,0,0,0,0-3.63,2.064,2.064,0,0,0-1.589-.69,2.035,2.035,0,0,0-1.576.69,2.946,2.946,0,0,0,0,3.63A2.035,2.035,0,0,0,12.086,31.146Zm8.8-6a2.928,2.928,0,0,1,2.222.971,3.541,3.541,0,0,1,.909,2.522,3.567,3.567,0,0,1-.9,2.529,2.922,2.922,0,0,1-2.229.971,2.7,2.7,0,0,1-1.432-.39,2.466,2.466,0,0,1-.96-1.06L18.471,32H17.329V21.5H18.5l.007,5.065a2.477,2.477,0,0,1,.96-1.036A2.7,2.7,0,0,1,20.891,25.15Zm-.26,5.968a2.056,2.056,0,0,0,1.572-.687,2.831,2.831,0,0,0,0-3.575,2.056,2.056,0,0,0-1.572-.687,2.011,2.011,0,0,0-1.559.711,2.775,2.775,0,0,0,0,3.531A2.012,2.012,0,0,0,20.631,31.118Zm5.25.882V21.5h1.2V32Zm5.154.13a2.287,2.287,0,0,1-1.473-.461,1.657,1.657,0,0,1-.578-1.377,1.957,1.957,0,0,1,.185-.878,1.549,1.549,0,0,1,.547-.612,3.281,3.281,0,0,1,.79-.379,7.3,7.3,0,0,1,1.022-.243L32.614,28q.595-.109.595-.622a1.174,1.174,0,0,0-.42-1,1.713,1.713,0,0,0-1.063-.318,1.745,1.745,0,0,0-1.053.308,1.287,1.287,0,0,0-.5.943l-1.066-.226a2.052,2.052,0,0,1,.841-1.439,3.141,3.141,0,0,1,1.832-.482,3.716,3.716,0,0,1,.974.12,2.647,2.647,0,0,1,.813.376,1.686,1.686,0,0,1,.581.725,2.7,2.7,0,0,1,.208,1.1v2.775a1.136,1.136,0,0,0,.154.7.664.664,0,0,0,.53.181h.109V32h-.588a1.121,1.121,0,0,1-1.271-.909h-.055A2.568,2.568,0,0,1,31.035,32.13Zm.273-.957a1.793,1.793,0,0,0,1.442-.649,2.674,2.674,0,0,0,.547-1.777l-1.777.342a2.392,2.392,0,0,0-1.042.373.867.867,0,0,0-.338.735.857.857,0,0,0,.325.738A1.388,1.388,0,0,0,31.309,31.173Zm8.162.95a3.237,3.237,0,0,1-2.406-.964,3.438,3.438,0,0,1-.95-2.522,3.445,3.445,0,0,1,.947-2.522,3.5,3.5,0,0,1,4.354-.376,2.967,2.967,0,0,1,1.131,1.634l-1.107.178a2.045,2.045,0,0,0-.759-1.046,2.066,2.066,0,0,0-1.217-.369,1.987,1.987,0,0,0-1.555.69,2.983,2.983,0,0,0,0,3.62,1.991,1.991,0,0,0,1.555.687,2.066,2.066,0,0,0,1.217-.369,2.045,2.045,0,0,0,.759-1.046l1.107.185a2.97,2.97,0,0,1-1.138,1.63A3.255,3.255,0,0,1,39.471,32.123ZM44.892,23.7a.805.805,0,0,1-.8-.8.758.758,0,0,1,.236-.561.775.775,0,0,1,.564-.232.767.767,0,0,1,.557.232.758.758,0,0,1,.236.561.77.77,0,0,1-.236.564A.762.762,0,0,1,44.892,23.7Zm-.6,8.3V25.28h1.189V32Zm5.975-7.875L51.98,21.9l.629.458-1.531,1.771Zm.451,8a3.542,3.542,0,0,1-1.723-.417,3.036,3.036,0,0,1-1.213-1.22,3.748,3.748,0,0,1-.448-1.856,3.423,3.423,0,0,1,.954-2.533,3.578,3.578,0,0,1,4.864,0,3.43,3.43,0,0,1,.95,2.533,3.432,3.432,0,0,1-.954,2.54A3.292,3.292,0,0,1,50.716,32.13Zm-.007-.984a2.064,2.064,0,0,0,1.589-.69,2.921,2.921,0,0,0,0-3.63,2.064,2.064,0,0,0-1.589-.69,2.035,2.035,0,0,0-1.576.69,2.946,2.946,0,0,0,0,3.63A2.035,2.035,0,0,0,50.709,31.146Zm8.415-6a2.337,2.337,0,0,1,1.692.608,2.269,2.269,0,0,1,.632,1.716V32H60.266V27.741a1.589,1.589,0,0,0-.41-1.2,1.466,1.466,0,0,0-1.053-.39,1.626,1.626,0,0,0-1.2.461,1.872,1.872,0,0,0-.472,1.371V32H55.952V25.28h1.183v.861A2.244,2.244,0,0,1,59.124,25.15ZM67.676,32V22.375h3.1A4.6,4.6,0,0,1,73.23,23a3.8,3.8,0,0,1,1.5,1.692,5.944,5.944,0,0,1,.489,2.492,6.3,6.3,0,0,1-.284,1.945,4.406,4.406,0,0,1-.831,1.521,3.644,3.644,0,0,1-1.4,1A4.971,4.971,0,0,1,70.779,32ZM68.9,30.886h1.839a2.931,2.931,0,0,0,2.4-.984,4.161,4.161,0,0,0,.81-2.721,4.126,4.126,0,0,0-.813-2.707,2.933,2.933,0,0,0-2.4-.984H68.9Zm14.273-2.379-.014.321h-5.25a2.374,2.374,0,0,0,.643,1.719,2.11,2.11,0,0,0,1.531.6,2.015,2.015,0,0,0,1.114-.321,2.085,2.085,0,0,0,.766-.889l1.066.226A3.031,3.031,0,0,1,81.881,31.6a3.133,3.133,0,0,1-1.784.526,3.246,3.246,0,0,1-2.42-.937,3.484,3.484,0,0,1-.923-2.557,3.467,3.467,0,0,1,.926-2.55,3.206,3.206,0,0,1,2.382-.937,3.034,3.034,0,0,1,2.259.861A3.4,3.4,0,0,1,83.173,28.507Zm-3.11-2.447a2.1,2.1,0,0,0-1.4.475,2.177,2.177,0,0,0-.708,1.384h4.026a2,2,0,0,0-.588-1.384A1.9,1.9,0,0,0,80.063,26.06Zm7.089,6.07a3.186,3.186,0,0,1-1.812-.485,2.007,2.007,0,0,1-.882-1.381l1.032-.294a1.44,1.44,0,0,0,.55.933,1.785,1.785,0,0,0,1.1.332,2.2,2.2,0,0,0,.646-.089,1.036,1.036,0,0,0,.5-.332.925.925,0,0,0,.144-.889,1.187,1.187,0,0,0-.109-.222.677.677,0,0,0-.191-.185,2.524,2.524,0,0,0-.232-.144,2.386,2.386,0,0,0-.3-.126q-.2-.072-.325-.109t-.376-.109l-.39-.113a7.288,7.288,0,0,1-.7-.246,3.058,3.058,0,0,1-.567-.325,1.306,1.306,0,0,1-.441-.53,1.792,1.792,0,0,1-.147-.752,1.738,1.738,0,0,1,.328-1.073,1.846,1.846,0,0,1,.851-.632,3.4,3.4,0,0,1,1.193-.195,2.92,2.92,0,0,1,1.637.438,1.867,1.867,0,0,1,.817,1.313l-.971.246a1.287,1.287,0,0,0-.513-.851,1.632,1.632,0,0,0-.964-.284,1.664,1.664,0,0,0-.9.236.793.793,0,0,0-.376.721.718.718,0,0,0,.1.373,1.183,1.183,0,0,0,.2.263,1.24,1.24,0,0,0,.369.2q.267.106.4.144t.492.126q.068.021.1.027.4.1.646.181a3.97,3.97,0,0,1,.581.246,1.932,1.932,0,0,1,.523.366,1.694,1.694,0,0,1,.328.52,1.834,1.834,0,0,1,.137.725,1.957,1.957,0,0,1-.2.906,1.577,1.577,0,0,1-.55.619,2.661,2.661,0,0,1-.783.338A3.729,3.729,0,0,1,87.151,32.13Zm7.882-6.979a3.056,3.056,0,0,1,1.217.246,2.993,2.993,0,0,1,1,.69,3.227,3.227,0,0,1,.673,1.107,4.083,4.083,0,0,1,.25,1.449,3.553,3.553,0,0,1-.906,2.536,2.942,2.942,0,0,1-2.232.964,2.66,2.66,0,0,1-1.4-.383,2.509,2.509,0,0,1-.96-1.032v4.655H91.485V25.28h1.142l.027,1.306a2.46,2.46,0,0,1,.957-1.049A2.685,2.685,0,0,1,95.033,25.15ZM94.8,31.118a2.04,2.04,0,0,0,1.555-.68,2.857,2.857,0,0,0,0-3.585,2.121,2.121,0,0,0-3.134.031,2.742,2.742,0,0,0,0,3.527A2.05,2.05,0,0,0,94.8,31.118Zm5.236.882V21.5h1.2V32Zm5.154.13a2.287,2.287,0,0,1-1.473-.461,1.657,1.657,0,0,1-.578-1.377,1.957,1.957,0,0,1,.185-.878,1.549,1.549,0,0,1,.547-.612,3.281,3.281,0,0,1,.79-.379,7.3,7.3,0,0,1,1.022-.243L106.771,28q.595-.109.595-.622a1.174,1.174,0,0,0-.42-1,1.713,1.713,0,0,0-1.063-.318,1.745,1.745,0,0,0-1.053.308,1.287,1.287,0,0,0-.5.943l-1.066-.226a2.052,2.052,0,0,1,.841-1.439,3.141,3.141,0,0,1,1.832-.482,3.716,3.716,0,0,1,.974.12,2.647,2.647,0,0,1,.813.376,1.686,1.686,0,0,1,.581.725,2.7,2.7,0,0,1,.208,1.1v2.775a1.136,1.136,0,0,0,.154.7.664.664,0,0,0,.53.181h.109V32h-.588a1.121,1.121,0,0,1-1.271-.909h-.055A2.568,2.568,0,0,1,105.191,32.13Zm.273-.957a1.793,1.793,0,0,0,1.442-.649,2.674,2.674,0,0,0,.547-1.777l-1.777.342a2.392,2.392,0,0,0-1.042.373.867.867,0,0,0-.338.735.857.857,0,0,0,.325.738A1.388,1.388,0,0,0,105.465,31.173Zm6.439-.13h3.582V32h-5.359l3.541-5.756h-3.336V25.28h5.147Zm6.535,1.087a2.287,2.287,0,0,1-1.473-.461,1.657,1.657,0,0,1-.578-1.377,1.957,1.957,0,0,1,.185-.878,1.549,1.549,0,0,1,.547-.612,3.281,3.281,0,0,1,.79-.379,7.3,7.3,0,0,1,1.022-.243L120.019,28q.595-.109.595-.622a1.174,1.174,0,0,0-.42-1,1.713,1.713,0,0,0-1.063-.318,1.745,1.745,0,0,0-1.053.308,1.287,1.287,0,0,0-.5.943l-1.066-.226a2.052,2.052,0,0,1,.841-1.439,3.141,3.141,0,0,1,1.832-.482,3.716,3.716,0,0,1,.974.12,2.647,2.647,0,0,1,.813.376,1.686,1.686,0,0,1,.581.725,2.7,2.7,0,0,1,.208,1.1v2.775a1.136,1.136,0,0,0,.154.7.664.664,0,0,0,.53.181h.109V32h-.588a1.121,1.121,0,0,1-1.271-.909h-.055A2.568,2.568,0,0,1,118.439,32.13Zm.273-.957a1.793,1.793,0,0,0,1.442-.649,2.674,2.674,0,0,0,.547-1.777l-1.777.342a2.392,2.392,0,0,0-1.042.373.867.867,0,0,0-.338.735.857.857,0,0,0,.325.738A1.388,1.388,0,0,0,118.713,31.173ZM129.049,21.5h1.183V32H129.09l-.027-1.306a2.472,2.472,0,0,1-.957,1.06,2.667,2.667,0,0,1-1.422.39,3.054,3.054,0,0,1-2.218-.947,3.236,3.236,0,0,1-.677-1.111,4.063,4.063,0,0,1-.25-1.442,3.533,3.533,0,0,1,.913-2.522,2.946,2.946,0,0,1,2.232-.971,2.678,2.678,0,0,1,1.4.379,2.487,2.487,0,0,1,.96,1.029Zm-2.119,9.618a2.012,2.012,0,0,0,1.562-.708,2.775,2.775,0,0,0,0-3.531,2.011,2.011,0,0,0-1.559-.711,2.056,2.056,0,0,0-1.572.687,2.831,2.831,0,0,0,0,3.575A2.056,2.056,0,0,0,126.93,31.118Zm7.26,1.012a2.287,2.287,0,0,1-1.473-.461,1.657,1.657,0,0,1-.578-1.377,1.957,1.957,0,0,1,.185-.878,1.549,1.549,0,0,1,.547-.612,3.28,3.28,0,0,1,.79-.379,7.3,7.3,0,0,1,1.022-.243L135.769,28q.595-.109.595-.622a1.174,1.174,0,0,0-.42-1,1.713,1.713,0,0,0-1.063-.318,1.745,1.745,0,0,0-1.053.308,1.287,1.287,0,0,0-.5.943l-1.066-.226a2.052,2.052,0,0,1,.841-1.439,3.141,3.141,0,0,1,1.832-.482,3.716,3.716,0,0,1,.974.12,2.647,2.647,0,0,1,.813.376,1.686,1.686,0,0,1,.581.725,2.7,2.7,0,0,1,.208,1.1v2.775a1.136,1.136,0,0,0,.154.7.664.664,0,0,0,.53.181h.109V32h-.588a1.121,1.121,0,0,1-1.271-.909h-.055A2.568,2.568,0,0,1,134.189,32.13Zm.273-.957a1.793,1.793,0,0,0,1.442-.649,2.674,2.674,0,0,0,.547-1.777l-1.777.342a2.392,2.392,0,0,0-1.042.373.867.867,0,0,0-.338.735.857.857,0,0,0,.325.738A1.388,1.388,0,0,0,134.463,31.173Zm12.694-6.022a3.056,3.056,0,0,1,1.217.246,2.993,2.993,0,0,1,1,.69,3.227,3.227,0,0,1,.673,1.107,4.084,4.084,0,0,1,.25,1.449,3.553,3.553,0,0,1-.906,2.536,2.942,2.942,0,0,1-2.232.964,2.66,2.66,0,0,1-1.4-.383,2.509,2.509,0,0,1-.96-1.032v4.655h-1.183V25.28h1.142l.027,1.306a2.46,2.46,0,0,1,.957-1.049A2.685,2.685,0,0,1,147.157,25.15Zm-.232,5.968a2.04,2.04,0,0,0,1.555-.68,2.857,2.857,0,0,0,0-3.585,2.121,2.121,0,0,0-3.134.031,2.742,2.742,0,0,0,0,3.527A2.05,2.05,0,0,0,146.925,31.118Zm8.066,1.012a3.542,3.542,0,0,1-1.723-.417,3.036,3.036,0,0,1-1.213-1.22,3.748,3.748,0,0,1-.448-1.856,3.423,3.423,0,0,1,.954-2.533,3.578,3.578,0,0,1,4.864,0,3.43,3.43,0,0,1,.95,2.533,3.432,3.432,0,0,1-.954,2.54A3.292,3.292,0,0,1,154.991,32.13Zm-.007-.984a2.064,2.064,0,0,0,1.589-.69,2.921,2.921,0,0,0,0-3.63,2.064,2.064,0,0,0-1.589-.69,2.035,2.035,0,0,0-1.576.69,2.946,2.946,0,0,0,0,3.63A2.035,2.035,0,0,0,154.984,31.146Zm6.4-4.683a2.032,2.032,0,0,1,.834-.9,2.512,2.512,0,0,1,1.292-.355v1.114a2.214,2.214,0,0,0-1.562.5,2.084,2.084,0,0,0-.537,1.593V32h-1.183V25.28h1.155ZM168.533,32V21.5h1.2V32Zm5.154.13a2.287,2.287,0,0,1-1.473-.461,1.657,1.657,0,0,1-.578-1.377,1.957,1.957,0,0,1,.185-.878,1.549,1.549,0,0,1,.547-.612,3.28,3.28,0,0,1,.79-.379,7.3,7.3,0,0,1,1.022-.243L175.267,28q.595-.109.595-.622a1.174,1.174,0,0,0-.42-1,1.713,1.713,0,0,0-1.063-.318,1.745,1.745,0,0,0-1.053.308,1.287,1.287,0,0,0-.5.943l-1.066-.226a2.052,2.052,0,0,1,.841-1.439,3.141,3.141,0,0,1,1.832-.482,3.716,3.716,0,0,1,.974.12,2.647,2.647,0,0,1,.813.376,1.686,1.686,0,0,1,.581.725,2.7,2.7,0,0,1,.208,1.1v2.775a1.136,1.136,0,0,0,.154.7.664.664,0,0,0,.53.181h.109V32h-.588a1.121,1.121,0,0,1-1.271-.909h-.055A2.568,2.568,0,0,1,173.688,32.13Zm.273-.957a1.793,1.793,0,0,0,1.442-.649,2.674,2.674,0,0,0,.547-1.777l-1.777.342a2.392,2.392,0,0,0-1.042.373.867.867,0,0,0-.338.735.857.857,0,0,0,.325.738A1.388,1.388,0,0,0,173.961,31.173Zm15.374-8.8h1.292L187.1,32h-1.258l-3.527-9.625H183.6l2.871,8.094Zm3.507,1.326a.805.805,0,0,1-.8-.8.758.758,0,0,1,.236-.561.775.775,0,0,1,.564-.232.767.767,0,0,1,.557.232.758.758,0,0,1,.236.561.77.77,0,0,1-.236.564A.762.762,0,0,1,192.842,23.7Zm-.6,8.3V25.28h1.189V32Zm6.426.13a3.542,3.542,0,0,1-1.723-.417,3.036,3.036,0,0,1-1.213-1.22,3.748,3.748,0,0,1-.448-1.856,3.423,3.423,0,0,1,.954-2.533,3.578,3.578,0,0,1,4.864,0,3.43,3.43,0,0,1,.95,2.533,3.432,3.432,0,0,1-.954,2.54A3.292,3.292,0,0,1,198.666,32.13Zm-.007-.984a2.064,2.064,0,0,0,1.589-.69,2.921,2.921,0,0,0,0-3.63,2.064,2.064,0,0,0-1.589-.69,2.035,2.035,0,0,0-1.576.69,2.946,2.946,0,0,0,0,3.63A2.035,2.035,0,0,0,198.659,31.146ZM203.9,32V21.5h1.2V32Zm9.481-3.493-.014.321h-5.25a2.375,2.375,0,0,0,.643,1.719,2.11,2.11,0,0,0,1.531.6,2.015,2.015,0,0,0,1.114-.321,2.085,2.085,0,0,0,.766-.889l1.066.226a3.031,3.031,0,0,1-1.148,1.442,3.133,3.133,0,0,1-1.784.526,3.246,3.246,0,0,1-2.42-.937,3.484,3.484,0,0,1-.923-2.557,3.467,3.467,0,0,1,.926-2.55,3.206,3.206,0,0,1,2.382-.937,3.034,3.034,0,0,1,2.259.861A3.4,3.4,0,0,1,213.384,28.507Zm-3.11-2.447a2.1,2.1,0,0,0-1.4.475,2.177,2.177,0,0,0-.708,1.384h4.026a2,2,0,0,0-.588-1.384A1.9,1.9,0,0,0,210.273,26.06Zm8.135-.909a2.337,2.337,0,0,1,1.692.608,2.269,2.269,0,0,1,.632,1.716V32H219.55V27.741a1.589,1.589,0,0,0-.41-1.2,1.466,1.466,0,0,0-1.053-.39,1.626,1.626,0,0,0-1.2.461,1.872,1.872,0,0,0-.472,1.371V32h-1.183V25.28h1.183v.861A2.244,2.244,0,0,1,218.408,25.15Zm7.4,6.973a3.237,3.237,0,0,1-2.406-.964,3.438,3.438,0,0,1-.95-2.522,3.445,3.445,0,0,1,.947-2.522,3.5,3.5,0,0,1,4.354-.376,2.967,2.967,0,0,1,1.131,1.634l-1.107.178a2.045,2.045,0,0,0-.759-1.046,2.066,2.066,0,0,0-1.217-.369,1.987,1.987,0,0,0-1.555.69,2.983,2.983,0,0,0,0,3.62,1.991,1.991,0,0,0,1.555.687,2.066,2.066,0,0,0,1.217-.369,2.045,2.045,0,0,0,.759-1.046l1.107.185a2.97,2.97,0,0,1-1.138,1.63A3.255,3.255,0,0,1,225.8,32.123Zm5.421-8.422a.805.805,0,0,1-.8-.8.758.758,0,0,1,.236-.561.775.775,0,0,1,.564-.232.767.767,0,0,1,.557.232.758.758,0,0,1,.236.561.77.77,0,0,1-.236.564A.762.762,0,0,1,231.226,23.7Zm-.6,8.3V25.28h1.189V32Zm5.147.13a2.287,2.287,0,0,1-1.473-.461,1.657,1.657,0,0,1-.578-1.377,1.957,1.957,0,0,1,.185-.878,1.549,1.549,0,0,1,.547-.612,3.28,3.28,0,0,1,.79-.379,7.3,7.3,0,0,1,1.022-.243L237.351,28q.595-.109.595-.622a1.174,1.174,0,0,0-.42-1,1.713,1.713,0,0,0-1.063-.318,1.745,1.745,0,0,0-1.053.308,1.287,1.287,0,0,0-.5.943l-1.066-.226a2.052,2.052,0,0,1,.841-1.439,3.141,3.141,0,0,1,1.832-.482,3.716,3.716,0,0,1,.974.12,2.647,2.647,0,0,1,.813.376,1.686,1.686,0,0,1,.581.725,2.7,2.7,0,0,1,.208,1.1v2.775a1.136,1.136,0,0,0,.154.7.664.664,0,0,0,.53.181h.109V32H239.3a1.121,1.121,0,0,1-1.271-.909h-.055A2.568,2.568,0,0,1,235.771,32.13Zm.273-.957a1.793,1.793,0,0,0,1.442-.649,2.674,2.674,0,0,0,.547-1.777l-1.777.342a2.392,2.392,0,0,0-1.042.373.867.867,0,0,0-.338.735.857.857,0,0,0,.325.738A1.388,1.388,0,0,0,236.045,31.173Zm6.549.964a.767.767,0,0,1-.557-.232.795.795,0,0,1,.557-1.354.773.773,0,0,1,.561.236.776.776,0,0,1,0,1.118A.775.775,0,0,1,242.594,32.137Z" transform="translate(553.146 947)" fill="#00223d"/>
    <path id="Trazado_25758" data-name="Trazado 25758" d="M48.5,0A48.5,48.5,0,1,1,0,48.5,48.5,48.5,0,0,1,48.5,0Z" transform="translate(649.146 824)" fill="#f6ff9b"/>
    <g id="Grupo_16228" data-name="Grupo 16228" transform="translate(-828.39 1165.248)">
      <g id="Grupo_16226" data-name="Grupo 16226" transform="translate(1474.626 -306.462)">
        <path id="Trazado_9922" data-name="Trazado 9922" d="M1494.107-269.332l-6.823-7.259a12.575,12.575,0,0,1-3.408-8.609v-25.707a4.908,4.908,0,0,0-3.844-4.79h0a4.906,4.906,0,0,0-5.969,4.79v32.4a18.263,18.263,0,0,0,3.37,10.572l3.727,5.25,8.915,12.56,3.146,4.432h23.77l-3.425-16.319a28.839,28.839,0,0,0-12.136-18.016l-7.311-4.916a5.239,5.239,0,0,0-6.844.873h0a5.638,5.638,0,0,0,.119,7.609c4,4.242,9.959,10.584,9.959,10.584" transform="translate(-1474.064 315.816)" fill="#ffcdac"/>
        <path id="Trazado_9923" data-name="Trazado 9923" d="M1540.736-269.332l6.822-7.259a12.574,12.574,0,0,0,3.409-8.609v-25.707a4.908,4.908,0,0,1,3.843-4.79h0a4.906,4.906,0,0,1,5.969,4.79v32.4a18.261,18.261,0,0,1-3.37,10.572l-3.727,5.25-8.915,12.56-3.146,4.432H1517.85l3.425-16.319a28.839,28.839,0,0,1,12.136-18.016l7.311-4.916a5.239,5.239,0,0,1,6.844.873h0a5.639,5.639,0,0,1-.119,7.609c-4,4.242-9.959,10.584-9.959,10.584" transform="translate(-1457.961 315.816)" fill="#ffcdac"/>
      </g>
      <g id="Grupo_16227" data-name="Grupo 16227" transform="translate(1494.143 -303.712)">
        <path id="Trazado_9924" data-name="Trazado 9924" d="M1515.338-307.106a7.708,7.708,0,0,1,3.764-2.156l5.337-1.278V-313.8h6.516v3.268h0l5.322,1.272a7.732,7.732,0,0,1,5.936,7.52v3.9h-11.8Z" transform="translate(-1478.401 313.808)" fill="#7d9bff"/>
        <path id="Trazado_9925" data-name="Trazado 9925" d="M1515.207-307.114a7.7,7.7,0,0,0-3.764-2.154l-5.336-1.279,0,0,0,0V-313.8h-6.518v3.268h0l-5.322,1.272a7.732,7.732,0,0,0-5.935,7.52v3.9h11.8Z" transform="translate(-1488.333 313.805)" fill="#7d9bff"/>
      </g>
      <path id="Trazado_9926" data-name="Trazado 9926" d="M1512.556-309l-7.433,1.781a10.77,10.77,0,0,0-8.26,10.473v7.515h40.451v-7.509a10.772,10.772,0,0,0-8.268-10.474l-7.413-1.771" transform="translate(8.947 11.861)" fill="#78d2fa"/>
      <path id="Trazado_9927" data-name="Trazado 9927" d="M1517.413-312.316v4.552l-4.536,10.316-4.541-10.329v-4.538" transform="translate(13.166 10.641)" fill="#ffb487"/>
      <path id="Trazado_9928" data-name="Trazado 9928" d="M1524.507-323.746v6.286a10.117,10.117,0,0,1-10.118,10.116h0a10.116,10.116,0,0,1-10.116-10.116v-6.286" transform="translate(11.672 6.437)" fill="#ffcdac"/>
      <path id="Trazado_9929" data-name="Trazado 9929" d="M1514.389-331.469h0a10.116,10.116,0,0,0-10.116,10.116v2.436h4.946a11.115,11.115,0,0,0,8.52-3.976h0l6.768,3.976v-2.436A10.117,10.117,0,0,0,1514.389-331.469Z" transform="translate(11.672 3.597)" fill="#bebebe"/>
      <path id="Trazado_9930" data-name="Trazado 9930" d="M1508.165-318.544v-1.749a7.263,7.263,0,0,0-7.263-7.263h0a7.264,7.264,0,0,0-7.264,7.263v1.749h5.007a17.322,17.322,0,0,0,8.9-2.463h0" transform="translate(7.761 5.036)" fill="#f5b955"/>
      <path id="Trazado_9931" data-name="Trazado 9931" d="M1508.165-322.011v4.512a7.263,7.263,0,0,1-7.263,7.263h0a7.264,7.264,0,0,1-7.264-7.263v-4.512" transform="translate(7.761 7.075)" fill="#ffcdac"/>
      <path id="Trazado_9932" data-name="Trazado 9932" d="M1519.06-318.537v-1.748a7.263,7.263,0,0,1,7.264-7.263h0a7.262,7.262,0,0,1,7.263,7.263v1.748h-5.006a17.318,17.318,0,0,1-8.9-2.462h0" transform="translate(17.111 5.039)" fill="#f5b955"/>
      <path id="Trazado_9933" data-name="Trazado 9933" d="M1519.06-322v4.512a7.263,7.263,0,0,0,7.264,7.263h0a7.262,7.262,0,0,0,7.263-7.263V-322" transform="translate(17.111 7.078)" fill="#ffcdac"/>
      <path id="Trazado_9934" data-name="Trazado 9934" d="M1488.037-268.435a2.088,2.088,0,0,0-2.913-.494,2.09,2.09,0,0,0-.5,2.913l3.147,4.432a2.083,2.083,0,0,0,1.706.881,2.086,2.086,0,0,0,1.208-.386,2.09,2.09,0,0,0,.494-2.915Z" transform="translate(4.306 26.455)" fill="#00223d"/>
      <path id="Trazado_9935" data-name="Trazado 9935" d="M1516.177-261.878a30.774,30.774,0,0,0-13.017-19.321l-7.309-4.916a7.356,7.356,0,0,0-9.323.951v-25.181a6.954,6.954,0,0,0-5.479-6.831,6.969,6.969,0,0,0-5.9,1.373,6.963,6.963,0,0,0-2.617,5.457v32.4a20.247,20.247,0,0,0,3.756,11.781l3.727,5.25a2.087,2.087,0,0,0,1.706.881,2.083,2.083,0,0,0,1.208-.386,2.092,2.092,0,0,0,.5-2.915l-3.727-5.25a16.081,16.081,0,0,1-2.984-9.361v-32.4a2.8,2.8,0,0,1,1.053-2.2,2.8,2.8,0,0,1,2.373-.553,2.8,2.8,0,0,1,2.206,2.749v25.707a14.6,14.6,0,0,0,3.766,9.8c.1.125.21.249.324.368,1.388,1.472,3.02,3.2,4.556,4.838l2.152,2.29.022.02c1.841,1.957,3.2,3.4,3.227,3.433a2.09,2.09,0,0,0,2.953.093,2.089,2.089,0,0,0,.093-2.954c-.038-.041-2.484-2.645-5.278-5.615l-4.792-5.1-.036-.038a3.527,3.527,0,0,1,.069-4.622,3.159,3.159,0,0,1,4.114-.525l7.31,4.916a26.618,26.618,0,0,1,11.258,16.71l3.423,16.32a2.091,2.091,0,0,0,2.044,1.66,2.1,2.1,0,0,0,.431-.045,2.09,2.09,0,0,0,1.617-2.474Z" transform="translate(0 8.791)" fill="#00223d"/>
      <path id="Trazado_9936" data-name="Trazado 9936" d="M1484.865-272.9a2.09,2.09,0,0,0-2.915-.487,2.09,2.09,0,0,0-.488,2.915l.014.019a2.085,2.085,0,0,0,1.7.875,2.079,2.079,0,0,0,1.212-.388,2.09,2.09,0,0,0,.488-2.915Z" transform="translate(3.14 24.814)" fill="#00223d"/>
      <path id="Trazado_9937" data-name="Trazado 9937" d="M1560.814-315.8a6.965,6.965,0,0,0-5.9-1.373,6.951,6.951,0,0,0-5.479,6.829v25.182a7.354,7.354,0,0,0-9.323-.952l-7.31,4.916a30.774,30.774,0,0,0-13.017,19.321l-3.424,16.319a2.09,2.09,0,0,0,1.617,2.474,2.107,2.107,0,0,0,.431.045,2.09,2.09,0,0,0,2.043-1.662l3.424-16.319a26.613,26.613,0,0,1,11.258-16.71l7.309-4.916a3.159,3.159,0,0,1,4.115.525,3.525,3.525,0,0,1,.073,4.616l-.04.044s-10.031,10.676-10.07,10.715a2.09,2.09,0,0,0,.093,2.954,2.09,2.09,0,0,0,2.953-.093c.029-.03,8.569-9.109,9.956-10.581.114-.119.22-.242.324-.368a14.6,14.6,0,0,0,3.767-9.8v-25.709a2.8,2.8,0,0,1,2.206-2.749,2.8,2.8,0,0,1,2.372.553,2.8,2.8,0,0,1,1.054,2.2v32.4a16.088,16.088,0,0,1-2.984,9.361l-15.79,22.241a2.092,2.092,0,0,0,.494,2.915,2.09,2.09,0,0,0,1.209.386,2.087,2.087,0,0,0,1.706-.881l15.788-22.241a20.239,20.239,0,0,0,3.758-11.781v-32.4A6.965,6.965,0,0,0,1560.814-315.8Z" transform="translate(16.104 8.792)" fill="#00223d"/>
      <path id="Trazado_9938" data-name="Trazado 9938" d="M1541.013-278.313a2.089,2.089,0,0,0,2.089-2.09v-7.509c0-.258-.01-.516-.025-.77h9.631a2.091,2.091,0,0,0,2.09-2.09v-3.9a9.789,9.789,0,0,0-7.541-9.553l-3.718-.889v-.666a9.347,9.347,0,0,0,4-7.664v-4.834a9.364,9.364,0,0,0-9.353-9.353,9.31,9.31,0,0,0-6.069,2.245,12.224,12.224,0,0,0-11.3-7.608,12.222,12.222,0,0,0-11.31,7.624,9.314,9.314,0,0,0-6.088-2.261,9.364,9.364,0,0,0-9.354,9.353v4.834a9.35,9.35,0,0,0,4,7.664v.666l-3.718.889a9.789,9.789,0,0,0-7.539,9.553v3.9a2.09,2.09,0,0,0,2.09,2.09h9.6c-.015.254-.026.509-.026.766v7.515a2.091,2.091,0,0,0,2.09,2.09h12.562a2.09,2.09,0,0,0,2.09-2.09,2.09,2.09,0,0,0-2.09-2.09h-2.158v-4.319a2.089,2.089,0,0,0-2.09-2.089,2.089,2.089,0,0,0-2.09,2.089v4.319h-4.134v-5.425a8.652,8.652,0,0,1,6.657-8.441l5.735-1.375,3.838,8.732a2.091,2.091,0,0,0,1.914,1.249h0a2.087,2.087,0,0,0,1.912-1.249l3.835-8.718,5.716,1.365a8.652,8.652,0,0,1,6.664,8.442v5.419h-4.134v-4.319a2.089,2.089,0,0,0-2.09-2.089,2.089,2.089,0,0,0-2.09,2.089v4.319h-2.369a2.091,2.091,0,0,0-2.09,2.09,2.091,2.091,0,0,0,2.09,2.09Zm-26.848-25.354a9.783,9.783,0,0,0-1.673-.564l-3.733-.9v-.651a9.5,9.5,0,0,0,1.811-1.654,12.3,12.3,0,0,0,3.594,3.6Zm-15.924-9.78v-1h2.917a19.415,19.415,0,0,0,7.43-1.48v2.476a5.179,5.179,0,0,1-5.173,5.173A5.179,5.179,0,0,1,1498.241-313.447Zm14.546-.611v-2.206h2.856a13.17,13.17,0,0,0,8.881-3.43l4.309,2.532v3.411a8.035,8.035,0,0,1-8.019,7.721A8.036,8.036,0,0,1,1512.787-314.059Zm14.634,10.4v-.141a12.3,12.3,0,0,0,3.625-3.614,9.424,9.424,0,0,0,1.8,1.637v.651l-3.734.9A9.879,9.879,0,0,0,1527.421-303.661Zm5.591-9.786v-.3c0-.1.008-.2.008-.306v-1.86a19.423,19.423,0,0,0,7.423,1.476h2.916v1a5.178,5.178,0,0,1-5.173,5.173A5.179,5.179,0,0,1,1533.013-313.447Zm5.174-10.008a5.182,5.182,0,0,1,5.162,4.832h-2.905a15.239,15.239,0,0,1-7.007-1.707A5.18,5.18,0,0,1,1538.187-323.455Zm-25.4,2.664a8.035,8.035,0,0,1,8.026-8.026,8.039,8.039,0,0,1,7.926,6.751l-3.518-2.068a2.09,2.09,0,0,0-2.66.46,9,9,0,0,1-6.918,3.229h-2.856v-.346Zm-9.372-2.664a5.183,5.183,0,0,1,4.75,3.125,15.248,15.248,0,0,1-7.007,1.707h-2.906A5.182,5.182,0,0,1,1503.415-323.455Zm4.92,23.032a12.818,12.818,0,0,0-8.881,7.561h-8.469v-1.814a5.623,5.623,0,0,1,4.33-5.488l5.322-1.272a2.089,2.089,0,0,0,1.6-2.033v-.7a9.225,9.225,0,0,0,1.174.077,9.344,9.344,0,0,0,1.164-.075v.6c0,.031,0,.063,0,.093a2.089,2.089,0,0,0,.956,1.759,2.089,2.089,0,0,0,.743.3l3.117.747Zm12.46,5.389-2.451-5.576V-302.1a12.139,12.139,0,0,0,2.469.252,12.239,12.239,0,0,0,2.428-.243v1.5Zm12.435-5.385-1.049-.25,3.134-.751a2.121,2.121,0,0,0,.754-.3,2.09,2.09,0,0,0,.955-1.758v-.691a9.344,9.344,0,0,0,1.164.075,9.24,9.24,0,0,0,1.174-.077v.7a2.089,2.089,0,0,0,1.6,2.033l5.322,1.272a5.624,5.624,0,0,1,4.332,5.488v1.814h-8.5A12.814,12.814,0,0,0,1533.23-300.419Z" transform="translate(5.248 3.035)" fill="#00223d"/>
      <path id="Trazado_9939" data-name="Trazado 9939" d="M1512.212-296.072a2.1,2.1,0,0,0-1.477.61,2.1,2.1,0,0,0-.613,1.479,2.1,2.1,0,0,0,.613,1.479,2.1,2.1,0,0,0,1.477.611,2.109,2.109,0,0,0,1.477-.611,2.113,2.113,0,0,0,.613-1.479,2.108,2.108,0,0,0-.613-1.479A2.107,2.107,0,0,0,1512.212-296.072Z" transform="translate(13.823 16.615)" fill="#00223d"/>
      <path id="Trazado_9940" data-name="Trazado 9940" d="M1512.211-333.941a2.09,2.09,0,0,0,2.09-2.09v-3.127a2.09,2.09,0,0,0-2.09-2.09,2.09,2.09,0,0,0-2.09,2.09v3.127A2.09,2.09,0,0,0,1512.211-333.941Z" transform="translate(13.823)" fill="#00223d"/>
      <path id="Trazado_9941" data-name="Trazado 9941" d="M1504.615-332.554a2.083,2.083,0,0,0,1.477.611,2.089,2.089,0,0,0,1.479-.613,2.09,2.09,0,0,0,0-2.956l-2.193-2.19a2.089,2.089,0,0,0-2.956,0,2.089,2.089,0,0,0,0,2.954Z" transform="translate(10.767 1.08)" fill="#00223d"/>
      <path id="Trazado_9942" data-name="Trazado 9942" d="M1518.9-331.915a2.083,2.083,0,0,0,1.479-.614l2.175-2.176a2.089,2.089,0,0,0,0-2.956,2.089,2.089,0,0,0-2.956,0l-2.175,2.178a2.091,2.091,0,0,0,0,2.956A2.082,2.082,0,0,0,1518.9-331.915Z" transform="translate(16.282 1.094)" fill="#00223d"/>
    </g>
    <g id="Grupo_16224" data-name="Grupo 16224" transform="translate(-153.5 -944)">
      <circle id="Elipse_638" data-name="Elipse 638" cx="48.5" cy="48.5" r="48.5" transform="translate(394.5 1797)" fill="#f6ff9b"/>
      <g id="Grupo_10025" data-name="Grupo 10025" transform="translate(-113.384 1044.721)">
        <g id="Grupo_9992" data-name="Grupo 9992" transform="translate(524.533 758.958)">
          <path id="Trazado_8859" data-name="Trazado 8859" d="M601.85,839.047H556.1v2.86a5.719,5.719,0,0,1-11.438,0V767.558a5.72,5.72,0,0,0-5.719-5.719h52.9a10.008,10.008,0,0,1,10.008,10.009Z" transform="translate(-538.94 -761.839)" fill="#fff"/>
        </g>
        <g id="Grupo_9995" data-name="Grupo 9995" transform="translate(535.971 836.165)">
          <g id="Grupo_9994" data-name="Grupo 9994" transform="translate(0 0)">
            <g id="Grupo_9993" data-name="Grupo 9993">
              <path id="Trazado_8860" data-name="Trazado 8860" d="M624.9,994.638H579.148v2.86a5.719,5.719,0,0,1-5.719,5.719H624.9a5.719,5.719,0,0,0,5.719-5.719v-2.86Z" transform="translate(-573.429 -994.638)" fill="#8e8e8e"/>
            </g>
          </g>
        </g>
        <g id="Grupo_9997" data-name="Grupo 9997" transform="translate(518.814 758.958)">
          <g id="Grupo_9996" data-name="Grupo 9996" transform="translate(0 0)">
            <path id="Trazado_8861" data-name="Trazado 8861" d="M533.133,779H521.7V767.558a5.719,5.719,0,1,1,11.438,0Z" transform="translate(-521.695 -761.839)" fill="#8e8e8e"/>
          </g>
        </g>
        <g id="Grupo_9999" data-name="Grupo 9999" transform="translate(535.971 807.57)">
          <g id="Grupo_9998" data-name="Grupo 9998" transform="translate(0 0)">
            <circle id="Elipse_625" data-name="Elipse 625" cx="11.438" cy="11.438" r="11.438" fill="#f6ff9b"/>
          </g>
        </g>
        <g id="Grupo_10001" data-name="Grupo 10001" transform="translate(541.69 813.289)">
          <g id="Grupo_10000" data-name="Grupo 10000" transform="translate(0 0)">
            <circle id="Elipse_626" data-name="Elipse 626" cx="5.719" cy="5.719" r="5.719" fill="#cddc39"/>
          </g>
        </g>
        <g id="Grupo_10002" data-name="Grupo 10002" transform="translate(583.139 809.003)">
          <path id="Trazado_8862" data-name="Trazado 8862" d="M715.651,916.31l3.574-3.574,17.87,17.87-3.575,3.575Z" transform="translate(-715.651 -912.736)" fill="#ef6c00"/>
        </g>
        <g id="Grupo_10003" data-name="Grupo 10003" transform="translate(573.133 798.994)">
          <path id="Trazado_8863" data-name="Trazado 8863" d="M685.48,892.566l10.006-10.006,7.148,7.148-10.006,10.007Z" transform="translate(-685.48 -882.559)" fill="#ef6c00"/>
        </g>
        <g id="Grupo_10004" data-name="Grupo 10004" transform="translate(567.414 807.57)">
          <path id="Trazado_8864" data-name="Trazado 8864" d="M668.237,912.706l4.289-4.289,10.006,10.006-4.289,4.289Z" transform="translate(-668.237 -908.417)" fill="#ef6c00"/>
        </g>
        <g id="Grupo_10005" data-name="Grupo 10005" transform="translate(581.712 793.275)">
          <path id="Trazado_8865" data-name="Trazado 8865" d="M711.348,869.6l4.289-4.289,10.006,10.006-4.289,4.289Z" transform="translate(-711.348 -865.315)" fill="#ef6c00"/>
        </g>
        <g id="Grupo_10006" data-name="Grupo 10006" transform="translate(517.384 757.528)">
          <path id="Trazado_8866" data-name="Trazado 8866" d="M587.443,846.174H535.971a7.157,7.157,0,0,1-7.149-7.149v-61.48H518.814a1.429,1.429,0,0,1-1.43-1.43V764.677a7.149,7.149,0,1,1,14.3,0v74.348a4.289,4.289,0,0,0,8.579,0v-2.86a1.429,1.429,0,0,1,1.43-1.43h51.472a1.429,1.429,0,0,1,1.43,1.43v2.86A7.157,7.157,0,0,1,587.443,846.174Zm-45.756-2.859h45.756a4.3,4.3,0,0,0,4.289-4.289V837.6H543.12v1.43a7.109,7.109,0,0,1-1.433,4.289Zm-21.444-68.629h8.579V764.677a4.289,4.289,0,1,0-8.579,0Z" transform="translate(-517.384 -757.528)" fill="#00223d"/>
        </g>
        <g id="Grupo_10007" data-name="Grupo 10007" transform="translate(586.013 816.864)">
          <path id="Trazado_8867" data-name="Trazado 8867" d="M724.317,936.439h2.859v19.3h-2.859Z" transform="translate(-724.317 -936.439)" fill="#00223d"/>
        </g>
        <g id="Grupo_10008" data-name="Grupo 10008" transform="translate(524.533 757.528)">
          <path id="Trazado_8868" data-name="Trazado 8868" d="M603.28,794.7H600.42V767.536a7.157,7.157,0,0,0-7.149-7.149H538.94v-2.859h54.331a10.02,10.02,0,0,1,10.008,10.008Z" transform="translate(-538.94 -757.528)" fill="#00223d"/>
        </g>
        <g id="Grupo_10009" data-name="Grupo 10009" transform="translate(565.996 806.14)">
          <path id="Trazado_8869" data-name="Trazado 8869" d="M675.4,921.262a1.427,1.427,0,0,1-1.011-.419L664.38,910.835a1.428,1.428,0,0,1,0-2.022l4.289-4.289a1.428,1.428,0,0,1,2.022,0L680.7,914.532a1.428,1.428,0,0,1,0,2.022l-4.289,4.289A1.426,1.426,0,0,1,675.4,921.262Zm-7.987-11.438,7.987,7.987,2.268-2.268-7.987-7.987Z" transform="translate(-663.961 -904.104)" fill="#00223d"/>
        </g>
        <g id="Grupo_10010" data-name="Grupo 10010" transform="translate(580.294 791.842)">
          <path id="Trazado_8870" data-name="Trazado 8870" d="M718.51,878.151a1.427,1.427,0,0,1-1.011-.419l-10.008-10.008a1.428,1.428,0,0,1,0-2.022l4.289-4.289a1.428,1.428,0,0,1,2.022,0l10.008,10.008a1.428,1.428,0,0,1,0,2.022l-4.289,4.29A1.427,1.427,0,0,1,718.51,878.151Zm-7.987-11.438,7.987,7.987,2.268-2.268-7.987-7.986Z" transform="translate(-707.072 -860.994)" fill="#00223d"/>
        </g>
        <g id="Grupo_10011" data-name="Grupo 10011" transform="translate(572.123 797.984)">
          <path id="Trazado_8871" data-name="Trazado 8871" d="M682.436,889.518l10.007-10.007,2.021,2.022-10.006,10.006Z" transform="translate(-682.436 -879.511)" fill="#00223d"/>
        </g>
        <g id="Grupo_10012" data-name="Grupo 10012" transform="translate(579.271 805.132)">
          <path id="Trazado_8872" data-name="Trazado 8872" d="M703.987,911.073l10.007-10.006,2.022,2.022-10.006,10.006Z" transform="translate(-703.987 -901.066)" fill="#00223d"/>
        </g>
        <g id="Grupo_10013" data-name="Grupo 10013" transform="translate(582.143 807.989)">
          <path id="Trazado_8873" data-name="Trazado 8873" d="M731.53,933.567a1.426,1.426,0,0,1-1.011-.419l-17.872-17.872,2.022-2.022,16.861,16.861,1.553-1.553L716.221,911.7l2.022-2.022,17.872,17.872a1.428,1.428,0,0,1,0,2.022l-3.574,3.575A1.425,1.425,0,0,1,731.53,933.567Z" transform="translate(-712.647 -909.68)" fill="#00223d"/>
        </g>
        <g id="Grupo_10014" data-name="Grupo 10014" transform="translate(535.971 783.264)">
          <path id="Trazado_8874" data-name="Trazado 8874" d="M573.429,835.128h47.182v2.859H573.429Z" transform="translate(-573.429 -835.128)" fill="#00223d"/>
        </g>
        <g id="Grupo_10015" data-name="Grupo 10015" transform="translate(535.971 794.702)">
          <path id="Trazado_8875" data-name="Trazado 8875" d="M573.429,869.617h41.463v2.859H573.429Z" transform="translate(-573.429 -869.617)" fill="#00223d"/>
        </g>
        <g id="Grupo_10016" data-name="Grupo 10016" transform="translate(535.971 788.983)">
          <path id="Trazado_8876" data-name="Trazado 8876" d="M573.429,852.372h47.182v2.86H573.429Z" transform="translate(-573.429 -852.372)" fill="#00223d"/>
        </g>
        <g id="Grupo_10017" data-name="Grupo 10017" transform="translate(535.971 771.826)">
          <path id="Trazado_8877" data-name="Trazado 8877" d="M573.429,800.639h47.182V803.5H573.429Z" transform="translate(-573.429 -800.639)" fill="#00223d"/>
        </g>
        <g id="Grupo_10018" data-name="Grupo 10018" transform="translate(535.971 766.107)">
          <path id="Trazado_8878" data-name="Trazado 8878" d="M573.429,783.4h47.182v2.859H573.429Z" transform="translate(-573.429 -783.395)" fill="#00223d"/>
        </g>
        <g id="Grupo_10019" data-name="Grupo 10019" transform="translate(535.971 777.545)">
          <path id="Trazado_8879" data-name="Trazado 8879" d="M573.429,817.884h47.182v2.859H573.429Z" transform="translate(-573.429 -817.884)" fill="#00223d"/>
        </g>
        <g id="Grupo_10020" data-name="Grupo 10020" transform="translate(535.971 800.421)">
          <path id="Trazado_8880" data-name="Trazado 8880" d="M573.429,886.861h38.6v2.859h-38.6Z" transform="translate(-573.429 -886.861)" fill="#00223d"/>
        </g>
        <g id="Grupo_10021" data-name="Grupo 10021" transform="translate(534.541 806.14)">
          <path id="Trazado_8881" data-name="Trazado 8881" d="M581.985,929.841a12.868,12.868,0,1,1,12.868-12.868A12.883,12.883,0,0,1,581.985,929.841Zm0-22.876a10.008,10.008,0,1,0,10.008,10.008A10.02,10.02,0,0,0,581.985,906.965Z" transform="translate(-569.117 -904.105)" fill="#00223d"/>
        </g>
        <g id="Grupo_10022" data-name="Grupo 10022" transform="translate(540.26 811.859)">
          <path id="Trazado_8882" data-name="Trazado 8882" d="M593.511,935.648a7.149,7.149,0,1,1,7.149-7.149A7.157,7.157,0,0,1,593.511,935.648Zm0-11.438a4.289,4.289,0,1,0,4.29,4.289A4.295,4.295,0,0,0,593.511,924.209Z" transform="translate(-586.362 -921.35)" fill="#00223d"/>
        </g>
        <g id="Grupo_10023" data-name="Grupo 10023" transform="translate(563.137 824.726)">
          <path id="Trazado_8883" data-name="Trazado 8883" d="M672.5,967.3h-5.719a5.721,5.721,0,0,1-4.844-2.681,9.429,9.429,0,0,1-6.594,2.681v-2.859a6.573,6.573,0,0,0,5.479-2.932l.481-.721a1.43,1.43,0,0,1,2.619.794,2.862,2.862,0,0,0,2.859,2.859H672.5Z" transform="translate(-655.339 -960.147)" fill="#00223d"/>
        </g>
      </g>
    </g>
    <path id="Trazado_25759" data-name="Trazado 25759" d="M2.734,12.886H6.077V14H1.511V4.375H2.734Zm10.814-2.379-.014.321H8.285a2.375,2.375,0,0,0,.643,1.719,2.11,2.11,0,0,0,1.531.6,2.015,2.015,0,0,0,1.114-.321,2.085,2.085,0,0,0,.766-.889l1.066.226A3.031,3.031,0,0,1,12.257,13.6a3.133,3.133,0,0,1-1.784.526,3.246,3.246,0,0,1-2.42-.937,3.484,3.484,0,0,1-.923-2.557,3.467,3.467,0,0,1,.926-2.55,3.206,3.206,0,0,1,2.382-.937,3.034,3.034,0,0,1,2.259.861A3.4,3.4,0,0,1,13.549,10.507ZM10.438,8.06a2.1,2.1,0,0,0-1.4.475,2.177,2.177,0,0,0-.708,1.384h4.026a2,2,0,0,0-.588-1.384A1.9,1.9,0,0,0,10.438,8.06Zm8.839-.779h1.251l-3.89,9.885H15.415l1.347-3.329L14.15,7.28h1.313l1.894,5.229Zm8.982,6.85q-3.206,0-3.206-3.425l1.2-.062a3.006,3.006,0,0,0,.451,1.812,1.819,1.819,0,0,0,1.552.6,2.133,2.133,0,0,0,1.494-.52,1.753,1.753,0,0,0,.571-1.36,1.736,1.736,0,0,0-.55-1.354,1.973,1.973,0,0,0-1.377-.5h-.479v-1h.465a1.424,1.424,0,0,0,1.053-.444,1.5,1.5,0,0,0,.438-1.094,1.348,1.348,0,0,0-.465-1.06,1.7,1.7,0,0,0-1.169-.41,1.861,1.861,0,0,0-.769.144,1.08,1.08,0,0,0-.489.42,1.982,1.982,0,0,0-.246.612,3.586,3.586,0,0,0-.075.779l-1.2-.041a3.116,3.116,0,0,1,.721-2.208,2.673,2.673,0,0,1,2.054-.772,2.854,2.854,0,0,1,1.972.7,2.25,2.25,0,0,1,.79,1.75,2.108,2.108,0,0,1-.383,1.251,2.187,2.187,0,0,1-.964.779A2.661,2.661,0,0,1,31,9.611a2.473,2.473,0,0,1,.526,1.62,2.647,2.647,0,0,1-.919,2.1A3.448,3.448,0,0,1,28.26,14.13Zm10.288-.793a3.821,3.821,0,0,1-4.666,0,2.62,2.62,0,0,1-.933-2.1,2.589,2.589,0,0,1,.485-1.572A2.782,2.782,0,0,1,34.754,8.7a2.377,2.377,0,0,1-.947-.824,2.1,2.1,0,0,1-.352-1.186,2.225,2.225,0,0,1,.786-1.753,2.894,2.894,0,0,1,1.976-.687,2.843,2.843,0,0,1,1.952.69,2.232,2.232,0,0,1,.783,1.75,2.141,2.141,0,0,1-.342,1.186,2.313,2.313,0,0,1-.93.824,2.837,2.837,0,0,1,1.313.974,2.574,2.574,0,0,1,.485,1.569A2.622,2.622,0,0,1,38.548,13.337ZM36.217,8.306a1.629,1.629,0,0,0,1.166-.451,1.468,1.468,0,0,0,.475-1.107,1.421,1.421,0,0,0-.475-1.083,1.78,1.78,0,0,0-2.341,0,1.422,1.422,0,0,0-.472,1.087,1.468,1.468,0,0,0,.475,1.107A1.637,1.637,0,0,0,36.217,8.306Zm0,4.73a2.144,2.144,0,0,0,1.48-.526,1.776,1.776,0,0,0,.591-1.395A1.74,1.74,0,0,0,37.7,9.741a2.161,2.161,0,0,0-1.48-.52,2.183,2.183,0,0,0-1.49.52,1.735,1.735,0,0,0-.595,1.374,1.771,1.771,0,0,0,.595,1.395A2.166,2.166,0,0,0,36.217,13.036Zm4.6-8.661H47.4v.991L42.7,14H41.344l4.744-8.531H40.817ZM57.832,3.5h1.183V14H57.873l-.027-1.306a2.473,2.473,0,0,1-.957,1.06,2.667,2.667,0,0,1-1.422.39,3.054,3.054,0,0,1-2.218-.947,3.236,3.236,0,0,1-.677-1.111,4.064,4.064,0,0,1-.25-1.442,3.533,3.533,0,0,1,.913-2.522,2.946,2.946,0,0,1,2.232-.971,2.678,2.678,0,0,1,1.4.379,2.487,2.487,0,0,1,.96,1.029Zm-2.119,9.618a2.012,2.012,0,0,0,1.562-.708,2.554,2.554,0,0,0,.632-1.767,2.549,2.549,0,0,0-.636-1.764,2.011,2.011,0,0,0-1.559-.711,2.056,2.056,0,0,0-1.572.687,2.528,2.528,0,0,0-.636,1.788,2.528,2.528,0,0,0,.636,1.788A2.056,2.056,0,0,0,55.713,13.118ZM67.3,10.507l-.014.321h-5.25a2.375,2.375,0,0,0,.643,1.719,2.11,2.11,0,0,0,1.531.6,2.015,2.015,0,0,0,1.114-.321,2.085,2.085,0,0,0,.766-.889l1.066.226A3.031,3.031,0,0,1,66.008,13.6a3.133,3.133,0,0,1-1.784.526,3.246,3.246,0,0,1-2.42-.937,3.484,3.484,0,0,1-.923-2.557,3.467,3.467,0,0,1,.926-2.55,3.206,3.206,0,0,1,2.382-.937,3.034,3.034,0,0,1,2.259.861A3.4,3.4,0,0,1,67.3,10.507ZM64.189,8.06a2.1,2.1,0,0,0-1.4.475,2.177,2.177,0,0,0-.708,1.384H66.11a2,2,0,0,0-.588-1.384A1.9,1.9,0,0,0,64.189,8.06ZM75.6,4.375h1.107V14H75.537V5.667l-2.311,2V6.405Zm7.793-.109a3.363,3.363,0,0,1,2.389.906,3.054,3.054,0,0,1,.967,2.334,3.79,3.79,0,0,1-.841,2.311L82.688,14H81.272l2.659-3.35a3.105,3.105,0,0,1-.807.1,2.956,2.956,0,0,1-2.591-1.48,3.286,3.286,0,0,1-.458-1.685,3.457,3.457,0,0,1,.25-1.357,2.987,2.987,0,0,1,.708-1.053,3.294,3.294,0,0,1,1.063-.67A3.481,3.481,0,0,1,83.392,4.266ZM81.864,9.222a2.182,2.182,0,0,0,1.576.6,2.058,2.058,0,0,0,1.569-.66,2.217,2.217,0,0,0,.6-1.61,2.149,2.149,0,0,0-.622-1.6,2.384,2.384,0,0,0-3.155.031,2.125,2.125,0,0,0-.612,1.624A2.178,2.178,0,0,0,81.864,9.222Zm9.41-4.956a3.363,3.363,0,0,1,2.389.906,3.054,3.054,0,0,1,.967,2.334,3.79,3.79,0,0,1-.841,2.311L90.569,14H89.154l2.659-3.35a3.105,3.105,0,0,1-.807.1,2.956,2.956,0,0,1-2.591-1.48,3.286,3.286,0,0,1-.458-1.685,3.457,3.457,0,0,1,.25-1.357,2.987,2.987,0,0,1,.708-1.053,3.294,3.294,0,0,1,1.063-.67A3.481,3.481,0,0,1,91.273,4.266ZM89.746,9.222a2.182,2.182,0,0,0,1.576.6,2.058,2.058,0,0,0,1.569-.66,2.217,2.217,0,0,0,.6-1.61,2.149,2.149,0,0,0-.622-1.6,2.384,2.384,0,0,0-3.155.031,2.125,2.125,0,0,0-.612,1.624A2.178,2.178,0,0,0,89.746,9.222ZM95.9,4.375h6.583v.991L97.781,14H96.428l4.744-8.531H95.9Z" transform="translate(241 824)" fill="#00223d"/>
    <path id="Trazado_25760" data-name="Trazado 25760" d="M9.4,14V4.375h3.1A4.6,4.6,0,0,1,14.956,5a3.8,3.8,0,0,1,1.5,1.692,5.944,5.944,0,0,1,.489,2.492,6.3,6.3,0,0,1-.284,1.945,4.406,4.406,0,0,1-.831,1.521,3.644,3.644,0,0,1-1.4,1A4.971,4.971,0,0,1,12.505,14Zm1.224-1.114h1.839a2.931,2.931,0,0,0,2.4-.984,4.161,4.161,0,0,0,.81-2.721,4.126,4.126,0,0,0-.813-2.707,2.933,2.933,0,0,0-2.4-.984H10.625ZM24.9,10.507l-.014.321h-5.25a2.375,2.375,0,0,0,.643,1.719,2.11,2.11,0,0,0,1.531.6,2.015,2.015,0,0,0,1.114-.321,2.085,2.085,0,0,0,.766-.889l1.066.226A3.031,3.031,0,0,1,23.607,13.6a3.133,3.133,0,0,1-1.784.526,3.246,3.246,0,0,1-2.42-.937,3.484,3.484,0,0,1-.923-2.557,3.467,3.467,0,0,1,.926-2.55,3.206,3.206,0,0,1,2.382-.937,3.034,3.034,0,0,1,2.259.861A3.4,3.4,0,0,1,24.9,10.507ZM21.789,8.06a2.1,2.1,0,0,0-1.4.475,2.177,2.177,0,0,0-.708,1.384h4.026a2,2,0,0,0-.588-1.384A1.9,1.9,0,0,0,21.789,8.06Zm7.752,6.063a3.237,3.237,0,0,1-2.406-.964,3.438,3.438,0,0,1-.95-2.522,3.445,3.445,0,0,1,.947-2.522,3.5,3.5,0,0,1,4.354-.376,2.967,2.967,0,0,1,1.131,1.634l-1.107.178A2.045,2.045,0,0,0,30.75,8.5a2.066,2.066,0,0,0-1.217-.369,1.987,1.987,0,0,0-1.555.69,2.63,2.63,0,0,0-.612,1.812,2.617,2.617,0,0,0,.612,1.808,1.991,1.991,0,0,0,1.555.687,2.066,2.066,0,0,0,1.217-.369,2.045,2.045,0,0,0,.759-1.046l1.107.185a2.97,2.97,0,0,1-1.138,1.63A3.255,3.255,0,0,1,29.541,14.123Zm5.975-5.66a2.032,2.032,0,0,1,.834-.9,2.512,2.512,0,0,1,1.292-.355V8.319a2.214,2.214,0,0,0-1.562.5,2.084,2.084,0,0,0-.537,1.593V14H34.36V7.28h1.155Zm9.311,2.044-.014.321h-5.25a2.375,2.375,0,0,0,.643,1.719,2.11,2.11,0,0,0,1.531.6,2.015,2.015,0,0,0,1.114-.321,2.085,2.085,0,0,0,.766-.889l1.066.226A3.031,3.031,0,0,1,43.534,13.6a3.133,3.133,0,0,1-1.784.526,3.246,3.246,0,0,1-2.42-.937,3.484,3.484,0,0,1-.923-2.557,3.467,3.467,0,0,1,.926-2.55,3.206,3.206,0,0,1,2.382-.937,3.034,3.034,0,0,1,2.259.861A3.4,3.4,0,0,1,44.826,10.507ZM41.715,8.06a2.1,2.1,0,0,0-1.4.475,2.177,2.177,0,0,0-.708,1.384h4.026a2,2,0,0,0-.588-1.384A1.9,1.9,0,0,0,41.715,8.06ZM48.825,14a1.766,1.766,0,0,1-1.312-.482,1.823,1.823,0,0,1-.479-1.343V8.224H45.66V7.28h.506a.971.971,0,0,0,.742-.236,1.161,1.161,0,0,0,.215-.79V5.038h1.1V7.28h1.545v.943H48.223v3.828a1.019,1.019,0,0,0,.256.742.9.9,0,0,0,.673.263h.615V14Zm5.4.13a3.542,3.542,0,0,1-1.723-.417,3.036,3.036,0,0,1-1.213-1.22,3.748,3.748,0,0,1-.448-1.856A3.423,3.423,0,0,1,51.795,8.1a3.578,3.578,0,0,1,4.864,0,3.43,3.43,0,0,1,.95,2.533,3.432,3.432,0,0,1-.954,2.54A3.292,3.292,0,0,1,54.225,14.13Zm-.007-.984a2.064,2.064,0,0,0,1.589-.69,2.587,2.587,0,0,0,.632-1.818,2.577,2.577,0,0,0-.632-1.812,2.064,2.064,0,0,0-1.589-.69,2.035,2.035,0,0,0-1.576.69,2.594,2.594,0,0,0-.625,1.812,2.6,2.6,0,0,0,.625,1.818A2.035,2.035,0,0,0,54.218,13.146Zm10.063-.232h4.792V14H62.579v-.9l3.855-3.985A4.567,4.567,0,0,0,67.3,7.978a2.278,2.278,0,0,0,.239-.991,1.661,1.661,0,0,0-.485-1.275,1.981,1.981,0,0,0-2.574.041A2.132,2.132,0,0,0,63.994,7.3v.711L62.811,7.9V7.308a3.042,3.042,0,0,1,.813-2.287,3.368,3.368,0,0,1,4.262-.058,2.544,2.544,0,0,1,.817,2,3.027,3.027,0,0,1-.325,1.391,5.98,5.98,0,0,1-1.042,1.384ZM73.5,7.807a3.73,3.73,0,0,1,2.625.81,2.938,2.938,0,0,1,.868,2.259,3.2,3.2,0,0,1-.892,2.341,3.131,3.131,0,0,1-2.334.906,3.709,3.709,0,0,1-1.207-.195,3.259,3.259,0,0,1-1.019-.561,2.564,2.564,0,0,1-.711-.947,3.113,3.113,0,0,1-.263-1.3,4.39,4.39,0,0,1,.034-.492l1.21-.1a4.81,4.81,0,0,0-.055.54,2.173,2.173,0,0,0,.174.9,1.531,1.531,0,0,0,.468.612,2.13,2.13,0,0,0,.632.332,2.308,2.308,0,0,0,.714.109,1.974,1.974,0,0,0,1.494-.588,2.093,2.093,0,0,0,.564-1.511A1.99,1.99,0,0,0,75.215,9.4a2.619,2.619,0,0,0-1.849-.554H70.932l.595-4.457h5.045v1.1H72.525L72.21,7.807Zm11.43,2.987a3.248,3.248,0,0,1-.437,1.729,3.091,3.091,0,0,1-1.21,1.176,3.451,3.451,0,0,1-1.668.41,3.36,3.36,0,0,1-2.393-.906,3.06,3.06,0,0,1-.964-2.334,3.79,3.79,0,0,1,.834-2.311l3.22-4.184H83.7l-2.673,3.37a3,3,0,0,1,.834-.116A3.059,3.059,0,0,1,83.339,8a2.957,2.957,0,0,1,1.128,1.1A3.3,3.3,0,0,1,84.925,10.794Zm-3.343,2.215a2.09,2.09,0,0,0,2.188-2.235,2.115,2.115,0,0,0-2.208-2.222,2.069,2.069,0,0,0-1.572.66,2.21,2.21,0,0,0-.608,1.61A2.13,2.13,0,0,0,80,12.428,2.2,2.2,0,0,0,81.583,13.009Zm6.344-.1h4.792V14H86.224v-.9L90.08,9.119a4.567,4.567,0,0,0,.868-1.142,2.278,2.278,0,0,0,.239-.991A1.661,1.661,0,0,0,90.7,5.711a1.981,1.981,0,0,0-2.574.041A2.132,2.132,0,0,0,87.639,7.3v.711L86.457,7.9V7.308a3.042,3.042,0,0,1,.813-2.287,3.368,3.368,0,0,1,4.262-.058,2.544,2.544,0,0,1,.817,2,3.027,3.027,0,0,1-.325,1.391,5.98,5.98,0,0,1-1.042,1.384Zm15.3-9.413h1.183V14h-1.142l-.027-1.306a2.473,2.473,0,0,1-.957,1.06,2.667,2.667,0,0,1-1.422.39,3.054,3.054,0,0,1-2.218-.947,3.236,3.236,0,0,1-.677-1.111,4.063,4.063,0,0,1-.25-1.442,3.533,3.533,0,0,1,.913-2.522,2.946,2.946,0,0,1,2.232-.971,2.678,2.678,0,0,1,1.4.379,2.487,2.487,0,0,1,.96,1.029Zm-2.119,9.618a2.012,2.012,0,0,0,1.562-.708,2.554,2.554,0,0,0,.632-1.767,2.549,2.549,0,0,0-.636-1.764,2.011,2.011,0,0,0-1.559-.711,2.056,2.056,0,0,0-1.572.687,2.528,2.528,0,0,0-.636,1.788,2.528,2.528,0,0,0,.636,1.788A2.056,2.056,0,0,0,101.106,13.118Zm11.587-2.611-.014.321h-5.25a2.374,2.374,0,0,0,.643,1.719,2.11,2.11,0,0,0,1.531.6,2.015,2.015,0,0,0,1.114-.321,2.085,2.085,0,0,0,.766-.889l1.066.226A3.031,3.031,0,0,1,111.4,13.6a3.133,3.133,0,0,1-1.784.526,3.246,3.246,0,0,1-2.42-.937,3.484,3.484,0,0,1-.923-2.557,3.467,3.467,0,0,1,.926-2.55,3.206,3.206,0,0,1,2.382-.937,3.034,3.034,0,0,1,2.259.861A3.4,3.4,0,0,1,112.693,10.507Zm-3.11-2.447a2.1,2.1,0,0,0-1.4.475,2.177,2.177,0,0,0-.708,1.384H111.5a2,2,0,0,0-.588-1.384A1.9,1.9,0,0,0,109.583,8.06ZM114.545,14V3.5h1.2V14Zm8.422-1.087h4.792V14h-6.494v-.9l3.855-3.985a4.567,4.567,0,0,0,.868-1.142,2.278,2.278,0,0,0,.239-.991,1.661,1.661,0,0,0-.485-1.275,1.981,1.981,0,0,0-2.574.041A2.132,2.132,0,0,0,122.68,7.3v.711L121.5,7.9V7.308a3.042,3.042,0,0,1,.813-2.287,3.368,3.368,0,0,1,4.262-.058,2.544,2.544,0,0,1,.817,2,3.027,3.027,0,0,1-.325,1.391,5.98,5.98,0,0,1-1.042,1.384Zm9.44,1.217a2.681,2.681,0,0,1-2.372-1.258,6.707,6.707,0,0,1-.834-3.691,6.737,6.737,0,0,1,.824-3.685,2.882,2.882,0,0,1,4.754,0,6.718,6.718,0,0,1,.827,3.681,6.688,6.688,0,0,1-.837,3.688A2.675,2.675,0,0,1,132.408,14.13Zm0-1.094a1.628,1.628,0,0,0,1.5-.964,6.284,6.284,0,0,0,.52-2.892,6.106,6.106,0,0,0-.53-2.888,1.645,1.645,0,0,0-2.977,0,6.138,6.138,0,0,0-.526,2.892,6.317,6.317,0,0,0,.516,2.9A1.626,1.626,0,0,0,132.408,13.036Zm7.882,1.094a2.681,2.681,0,0,1-2.372-1.258,6.707,6.707,0,0,1-.834-3.691,6.737,6.737,0,0,1,.824-3.685,2.882,2.882,0,0,1,4.754,0,6.718,6.718,0,0,1,.827,3.681,6.688,6.688,0,0,1-.837,3.688A2.675,2.675,0,0,1,140.29,14.13Zm0-1.094a1.628,1.628,0,0,0,1.5-.964,6.284,6.284,0,0,0,.52-2.892,6.106,6.106,0,0,0-.53-2.888,1.645,1.645,0,0,0-2.977,0,6.138,6.138,0,0,0-.526,2.892,6.317,6.317,0,0,0,.516,2.9A1.626,1.626,0,0,0,140.29,13.036Zm7.882,1.094a2.681,2.681,0,0,1-2.372-1.258,6.707,6.707,0,0,1-.834-3.691,6.737,6.737,0,0,1,.824-3.685,2.882,2.882,0,0,1,4.754,0,6.718,6.718,0,0,1,.827,3.681,6.688,6.688,0,0,1-.837,3.688A2.675,2.675,0,0,1,148.171,14.13Zm0-1.094a1.628,1.628,0,0,0,1.5-.964,6.284,6.284,0,0,0,.52-2.892,6.106,6.106,0,0,0-.53-2.888,1.645,1.645,0,0,0-2.977,0,6.138,6.138,0,0,0-.526,2.892,6.317,6.317,0,0,0,.516,2.9A1.626,1.626,0,0,0,148.171,13.036Z" transform="translate(351 959)" fill="#00223d"/>
    <g id="Grupo_16225" data-name="Grupo 16225" transform="translate(-166.555 -2933.742)">
      <circle id="Elipse_681" data-name="Elipse 681" cx="47.818" cy="47.818" r="47.818" transform="translate(553.058 3788.848)" fill="#f6ff9b"/>
      <g id="Grupo_16145" data-name="Grupo 16145" transform="translate(564.373 3787.483)">
        <g id="Grupo_16143" data-name="Grupo 16143" transform="translate(1.809 1.809)">
          <path id="Trazado_9831" data-name="Trazado 9831" d="M2363.733,546.606l-14.474,14.473v74.537h66.758v-89.01Z" transform="translate(-2349.259 -546.606)" fill="#eefaff"/>
          <path id="Trazado_9832" data-name="Trazado 9832" d="M2467.59,604.157a7.281,7.281,0,0,1-2.268,11.805c-4.408,1.92-12.343,7.838-15.74,11.237l-1.046,1.044v0l-5.118-5.118,1.055-1.053c3.435-3.442,9.389-11.287,11.333-15.68a7.267,7.267,0,0,1,11.785-2.236Z" transform="translate(-2380.718 -565.117)" fill="#ffda8f"/>
          <path id="Trazado_9833" data-name="Trazado 9833" d="M2444.667,640.323a7.239,7.239,0,0,1,0,10.235l-2.558,2.558-25.585-25.585,2.559-2.558a7.233,7.233,0,0,1,10.234,0l15.351,15.35Z" transform="translate(-2371.732 -572.08)" fill="#ff7b79"/>
          <path id="Trazado_9834" data-name="Trazado 9834" d="M2383.492,580.839h36.726v7.236h-36.726Z" transform="translate(-2360.697 -558.043)" fill="#9bc5ff"/>
          <circle id="Elipse_682" data-name="Elipse 682" cx="7.237" cy="7.237" r="7.237" transform="translate(33.651 66.215)" fill="#ff7b79"/>
          <path id="Trazado_9835" data-name="Trazado 9835" d="M2360.127,580.839h15.559v7.236h-15.559Z" transform="translate(-2352.89 -558.043)" fill="#8690a6"/>
        </g>
        <g id="Grupo_16144" data-name="Grupo 16144">
          <circle id="Elipse_683" data-name="Elipse 683" cx="1.809" cy="1.809" r="1.809" transform="translate(37.268 58.978)" fill="#00223d"/>
          <path id="Trazado_9836" data-name="Trazado 9836" d="M2357.41,579.931v7.236a1.809,1.809,0,0,0,1.809,1.809H2411.5a1.809,1.809,0,0,0,1.809-1.809v-7.236a1.809,1.809,0,0,0-1.809-1.809h-52.285A1.809,1.809,0,0,0,2357.41,579.931Zm19.177,1.809h33.108v3.619h-33.108Zm-15.559,0h11.94v3.619h-11.94Z" transform="translate(-2350.174 -555.326)" fill="#00223d"/>
          <path id="Trazado_9837" data-name="Trazado 9837" d="M2359.219,603.475H2411.5a1.809,1.809,0,1,0,0-3.618h-52.285a1.809,1.809,0,1,0,0,3.618Z" transform="translate(-2350.174 -562.588)" fill="#00223d"/>
          <path id="Trazado_9838" data-name="Trazado 9838" d="M2359.219,614.342H2411.5a1.809,1.809,0,1,0,0-3.618h-52.285a1.809,1.809,0,1,0,0,3.618Z" transform="translate(-2350.174 -566.219)" fill="#00223d"/>
          <path id="Trazado_9839" data-name="Trazado 9839" d="M2359.219,625.21h30.032a1.809,1.809,0,1,0,0-3.618h-30.032a1.809,1.809,0,1,0,0,3.618Z" transform="translate(-2350.174 -569.85)" fill="#00223d"/>
          <path id="Trazado_9840" data-name="Trazado 9840" d="M2359.219,636.077h22.8a1.809,1.809,0,0,0,0-3.618h-22.8a1.809,1.809,0,1,0,0,3.618Z" transform="translate(-2350.174 -573.481)" fill="#00223d"/>
          <path id="Trazado_9841" data-name="Trazado 9841" d="M2382.584,654.182h9.228a9.045,9.045,0,1,0,0-3.619h-9.228a1.809,1.809,0,1,0,0,3.619Zm18.092-3.619h-5.116a5.428,5.428,0,1,1,0,3.619h5.116a1.809,1.809,0,1,0,0-3.619Z" transform="translate(-2357.98 -577.112)" fill="#00223d"/>
          <path id="Trazado_9842" data-name="Trazado 9842" d="M2435.922,563.808a1.809,1.809,0,1,0,0-3.618H2432.3a1.809,1.809,0,0,0,0,3.618Z" transform="translate(-2374.592 -549.335)" fill="#00223d"/>
          <path id="Trazado_9843" data-name="Trazado 9843" d="M2419.62,563.808a1.809,1.809,0,1,0,0-3.618H2416a1.809,1.809,0,0,0,0,3.618Z" transform="translate(-2369.146 -549.335)" fill="#00223d"/>
          <path id="Trazado_9844" data-name="Trazado 9844" d="M2403.319,563.808a1.809,1.809,0,0,0,0-3.618H2399.7a1.809,1.809,0,0,0,0,3.618Z" transform="translate(-2363.699 -549.335)" fill="#00223d"/>
          <circle id="Elipse_684" data-name="Elipse 684" cx="1.809" cy="1.809" r="1.809" transform="translate(33.65 89.01)" fill="#00223d"/>
          <path id="Trazado_9845" data-name="Trazado 9845" d="M2348.352,636.518h25.509a1.809,1.809,0,0,0,0-3.618h-23.7V561.981h12.664a1.809,1.809,0,0,0,1.809-1.809V547.507H2413.3v51.136c-.82.971-1.586,1.823-2.25,2.5l-3.835-3.836a9.039,9.039,0,0,0-12.793,0l-2.558,2.558a1.809,1.809,0,0,0,0,2.558l21.436,21.437V632.9h-23.157a1.809,1.809,0,0,0,0,3.618h24.966a1.809,1.809,0,0,0,1.809-1.809v-7.225l.53.529a1.809,1.809,0,0,0,2.559,0l2.558-2.558a9.042,9.042,0,0,0,0-12.793l-3.835-3.835c3.431-3.344,10.981-8.9,14.947-10.626a9.067,9.067,0,1,0-11.893-11.96,48.4,48.4,0,0,1-4.866,7.792V545.7a1.809,1.809,0,0,0-1.809-1.809h-52.284a1.828,1.828,0,0,0-1.28.53l-14.473,14.473a1.818,1.818,0,0,0-.529,1.279v74.537a1.809,1.809,0,0,0,1.809,1.809Zm71.654-21.3a5.425,5.425,0,0,1,0,7.676l-1.278,1.279L2395.7,601.149l1.279-1.279a5.422,5.422,0,0,1,7.676,0Zm-3.478-14.795c3.135-3.781,7-9.181,8.566-12.72a5.449,5.449,0,1,1,7.139,7.178c-4.5,1.961-12.337,7.743-16.061,11.384l-2.562-2.562c.858-.878,1.86-2,2.919-3.28Zm-55.512-50.36v8.3h-8.3Z" transform="translate(-2346.543 -543.889)" fill="#00223d"/>
        </g>
      </g>
    </g>
  </g>
</svg>
