<svg xmlns="http://www.w3.org/2000/svg" width="150" height="150" viewBox="0 0 150 150">
  <g id="Grupo_16571" data-name="Grupo 16571" transform="translate(-7297 5200)">
    <rect id="Rectángulo_3961" data-name="Rectángulo 3961" width="150" height="150" transform="translate(7297 -5200)" fill="none"/>
    <g id="Grupo_16566" data-name="Grupo 16566" transform="translate(7033.84 -6720.316)">
      <g id="Grupo_16424" data-name="Grupo 16424" transform="translate(66.089 865.814)">
        <path id="Trazado_9074" data-name="Trazado 9074" d="M264.378,752.285a12.482,12.482,0,0,0-6.094-3.488l-8.639-2.07,0,.005,0-.005v-5.274H239.1v5.291h0l-8.617,2.059a12.516,12.516,0,0,0-9.609,12.174v14.115h19.1Z" transform="translate(-0.699 -13.72)" fill="#78d2fa"/>
        <path id="Trazado_9075" data-name="Trazado 9075" d="M255.88,741.453v5.416l-5.475,13.114-5.469-13.1v-5.435Z" transform="translate(-6.708 -13.72)" fill="#ffb487"/>
        <path id="Trazado_9076" data-name="Trazado 9076" d="M260.045,717.236v7.305A11.758,11.758,0,0,1,248.286,736.3h0a11.759,11.759,0,0,1-11.759-11.758v-7.305Z" transform="translate(-4.608 -7.674)" fill="#ffcdac"/>
        <path id="Trazado_9077" data-name="Trazado 9077" d="M260.045,715.461V712.63a11.758,11.758,0,0,0-11.759-11.758h0a11.759,11.759,0,0,0-11.759,11.758v2.831h8.106a28.038,28.038,0,0,0,14.411-3.987h0" transform="translate(-4.608 -3.588)" fill="#878791"/>
        <path id="Trazado_9078" data-name="Trazado 9078" d="M300.567,752.285a12.482,12.482,0,0,1,6.095-3.488l8.638-2.07,0,.005,0-.005v-5.274H325.85v5.291h0l8.617,2.059a12.516,12.516,0,0,1,9.609,12.174v14.115h-19.1Z" transform="translate(-20.598 -13.72)" fill="#e9f857"/>
        <path id="Trazado_9079" data-name="Trazado 9079" d="M271.45,755.615,259.417,758.5a17.435,17.435,0,0,0-13.372,16.955v11.574h65.484V775.463a17.435,17.435,0,0,0-13.384-16.958l-12-2.867Z" transform="translate(-6.985 -17.256)" fill="#ff5a5a"/>
        <g id="Grupo_15825" data-name="Grupo 15825" transform="translate(263.987 727.733)">
          <path id="Trazado_9080" data-name="Trazado 9080" d="M330.845,741.453v5.435l-5.469,13.1L319.9,746.869v-5.416Z" transform="translate(-289.412 -741.453)" fill="#ffb487"/>
          <path id="Trazado_9081" data-name="Trazado 9081" d="M287.105,770.5l7.834-17.786a6.465,6.465,0,0,1-.912-3.316v-1.71H280.176v1.71a6.464,6.464,0,0,1-.91,3.311Z" transform="translate(-279.266 -743.011)" fill="#ffb487"/>
        </g>
        <path id="Trazado_9082" data-name="Trazado 9082" d="M300.64,710.594v11.3a16.378,16.378,0,0,1-16.378,16.378h0a16.378,16.378,0,0,1-16.378-16.378v-11.3Z" transform="translate(-12.437 -6.015)" fill="#ffcdac"/>
        <path id="Trazado_9083" data-name="Trazado 9083" d="M284.262,689.3h0a16.378,16.378,0,0,0-16.379,16.378v3.942h8.008a17.994,17.994,0,0,0,13.792-6.436h0l10.956,6.436v-3.942A16.377,16.377,0,0,0,284.262,689.3Z" transform="translate(-12.437 -0.699)" fill="#f9a825"/>
        <path id="Trazado_9084" data-name="Trazado 9084" d="M311.552,717.236v7.305A11.759,11.759,0,0,0,323.311,736.3h0a11.759,11.759,0,0,0,11.759-11.758v-7.305Z" transform="translate(-23.341 -7.674)" fill="#ffcdac"/>
        <path id="Trazado_9085" data-name="Trazado 9085" d="M311.552,715.461V712.63a11.759,11.759,0,0,1,11.759-11.758h0A11.759,11.759,0,0,1,335.07,712.63v2.831h-8.106a28.038,28.038,0,0,1-14.411-3.987h0" transform="translate(-23.341 -3.588)" fill="#878791"/>
        <path id="Trazado_9086" data-name="Trazado 9086" d="M288.94,794.68a2.1,2.1,0,1,0,1.484.615A2.119,2.119,0,0,0,288.94,794.68Z" transform="translate(-17.17 -27.01)" fill="#00223d"/>
        <path id="Trazado_9087" data-name="Trazado 9087" d="M314.356,733.04l-7-1.673v-2.779a13.859,13.859,0,0,0,6.478-11.721v-7.825a13.85,13.85,0,0,0-24.228-9.181A18.51,18.51,0,0,0,271.846,686.5h0a18.511,18.511,0,0,0-17.767,13.4,13.85,13.85,0,0,0-24.259,9.144v7.825a13.859,13.859,0,0,0,6.477,11.721v2.779l-7,1.673a14.569,14.569,0,0,0-11.222,14.216v14.115a2.1,2.1,0,0,0,2.1,2.1h16.79v6.3a2.1,2.1,0,0,0,2.1,2.1H262.1a2.1,2.1,0,0,0,0-4.2h-9.374v-9.241a2.1,2.1,0,1,0-4.2,0v9.241h-7.362V758.2a15.287,15.287,0,0,1,11.761-14.913l10.327-2.475,6.645,15.117a2.1,2.1,0,0,0,1.922,1.255h0a2.1,2.1,0,0,0,1.922-1.255l6.638-15.1,10.3,2.46a15.284,15.284,0,0,1,11.772,14.915v2.343a2.108,2.108,0,0,0,0,1.642v5.478h-7.319v-9.241a2.1,2.1,0,1,0-4.2,0v9.241H280.643a2.1,2.1,0,0,0,0,4.2h23.9a2.1,2.1,0,0,0,2.1-2.1v-6.3h16.833a2.1,2.1,0,0,0,2.1-2.1V747.256A14.569,14.569,0,0,0,314.356,733.04Zm-11.2.1-3.206,7.677-3.163-7.575a1.965,1.965,0,0,0,.015-.23c0-.019,0-.039,0-.059v-2.594a13.754,13.754,0,0,0,6.35,0v2.67C303.152,733.062,303.155,733.1,303.157,733.137Zm-40.792,1.687a14.6,14.6,0,0,0-4.291-1.789l-7.029-1.684V728.6a13.961,13.961,0,0,0,4.34-4.327,18.618,18.618,0,0,0,6.98,7.464Zm-4.8-18.944v-4.857h5.908a20.039,20.039,0,0,0,14.191-5.867l8.446,4.961v6.255a14.277,14.277,0,0,1-28.545-.493Zm23.692,15.894a18.609,18.609,0,0,0,7.028-7.466,13.967,13.967,0,0,0,4.316,4.29v2.754l-7.029,1.684a14.585,14.585,0,0,0-4.315,1.8v-3.066Zm18.711-5.247a9.67,9.67,0,0,1-9.659-9.659v-.342c.007-.215.012-5.646.012-5.646a30.142,30.142,0,0,0,13.3,3.094h6.006v2.895A9.671,9.671,0,0,1,299.97,726.526Zm0-27.143a9.67,9.67,0,0,1,9.659,9.659v.731h-6.006a25.945,25.945,0,0,1-12.923-3.449A9.678,9.678,0,0,1,299.97,699.383Zm-42.4,5.6a14.279,14.279,0,0,1,28.557,0v.274l-7.793-4.578a2.1,2.1,0,0,0-2.673.461,15.857,15.857,0,0,1-12.183,5.686h-5.909Zm-23.548,4.062a9.66,9.66,0,0,1,18.929-2.718,25.944,25.944,0,0,1-12.923,3.449h-6.006v-.732Zm0,4.93h6.006a30.143,30.143,0,0,0,13.313-3.1v5.994a9.659,9.659,0,0,1-19.318,0Zm9.659,16.753a13.833,13.833,0,0,0,3.169-.37v2.535c0,.04,0,.079,0,.119a1.923,1.923,0,0,0,.013.2l-3.177,7.607-3.189-7.638c0-.05.006-.1.006-.152v-2.67A13.824,13.824,0,0,0,243.678,730.726ZM236.961,758.2v1.074H230.67v-9.329a2.1,2.1,0,0,0-4.2,0v9.329h-4.2V747.256a10.384,10.384,0,0,1,8-10.132l6.655-1.59,4.344,10.405A19.492,19.492,0,0,0,236.961,758.2Zm14.982-19a19.714,19.714,0,0,0-3.55,1.221l2.045-4.9,6.657,1.6a10.384,10.384,0,0,1,1.506.486Zm19.873,10.664-5.251-11.947v-4.331a18.495,18.495,0,0,0,10.495.019v4.335Zm13.192-12.244a10.4,10.4,0,0,1,1.545-.5l6.64-1.591,2.054,4.919a19.765,19.765,0,0,0-3.6-1.24Zm36.369,21.65h-4.2v-9.329a2.1,2.1,0,0,0-4.2,0v9.329h-6.334v-1.064a19.494,19.494,0,0,0-4.293-12.243l4.357-10.434,6.672,1.594a10.384,10.384,0,0,1,8,10.132Z" transform="translate(0 0)" fill="#00223d"/>
      </g>
    </g>
  </g>
</svg>
