<svg xmlns="http://www.w3.org/2000/svg" width="150" height="150" viewBox="0 0 150 150">
  <g id="Grupo_16574" data-name="Grupo 16574" transform="translate(-7297 4608)">
    <rect id="Rectángulo_3964" data-name="Rectángulo 3964" width="150" height="150" transform="translate(7297 -4608)" fill="none"/>
    <g id="Grupo_16569" data-name="Grupo 16569" transform="translate(7031.568 -6701.6)">
      <g id="Grupo_16427" data-name="Grupo 16427" transform="translate(45.606 1897.025)">
        <g id="Grupo_16425" data-name="Grupo 16425" transform="translate(247.756 224.503)">
          <path id="Trazado_25038" data-name="Trazado 25038" d="M309.882,257.347l-.036-.04c-26.512-1.458-34.4-17.291-62.374-17.291v28.947h94.942V240.016c-16.389,0-23.87,9.281-32.532,17.331Z" transform="translate(-247.472 -221.491)" fill="#ff9801"/>
          <circle id="Elipse_902" data-name="Elipse 902" cx="11.578" cy="11.578" r="11.578" transform="translate(41.682)" fill="#fec108"/>
          <path id="Trazado_25039" data-name="Trazado 25039" d="M247.472,264.7v47.47h94.942V264.7Z" transform="translate(-247.472 -217.229)" fill="#cddc39"/>
        </g>
        <g id="Grupo_16426" data-name="Grupo 16426" transform="translate(245.826 222.574)">
          <path id="Trazado_25040" data-name="Trazado 25040" d="M281.37,236.081a13.508,13.508,0,1,0,13.508-13.507A13.524,13.524,0,0,0,281.37,236.081Zm13.508-9.648a9.648,9.648,0,1,1-9.649,9.648A9.659,9.659,0,0,1,294.878,226.433Z" transform="translate(-239.688 -222.574)" fill="#00223d"/>
          <path id="Trazado_25041" data-name="Trazado 25041" d="M342.7,238.371c-15.25,0-23.188,7.631-30.863,15.012-.767.736-1.554,1.493-2.342,2.235a61.234,61.234,0,0,1-20.024-4.8A1.93,1.93,0,0,0,288,254.386a65.42,65.42,0,0,0,17.577,4.739c-5.35,4.46-11.828,8.191-21.926,8.191H249.685v-25.06a59.734,59.734,0,0,1,22.489,4.964,1.929,1.929,0,0,0,1.486-3.561,63.53,63.53,0,0,0-25.9-5.288,1.93,1.93,0,0,0-1.93,1.929v76.417a1.93,1.93,0,0,0,1.93,1.93H342.7a1.93,1.93,0,0,0,1.93-1.93V240.3A1.93,1.93,0,0,0,342.7,238.371Zm-1.93,49.274-12.025-16.469h12.025ZM314.51,256.164c7.095-6.82,13.815-13.282,26.258-13.888v25.04H300.3C305.852,264.46,310.022,260.48,314.51,256.164Zm-6,58.624L303.2,271.176h8.446l16.31,43.612Zm-46.012,0,16.31-43.612h8.446l-5.318,43.612Zm28.644-43.612h8.161l5.318,43.612h-18.8Zm-41.462,0h12.026l-12.026,16.469Zm0,23.014,16.8-23.014h8.2l-16.31,43.612h-8.7Zm82.387,20.6-16.31-43.612h8.2l16.8,23.014v20.6Z" transform="translate(-245.826 -219.846)" fill="#00223d"/>
          <circle id="Elipse_903" data-name="Elipse 903" cx="1.93" cy="1.93" r="1.93" transform="translate(32.999 27.401)" fill="#00223d"/>
        </g>
      </g>
    </g>
  </g>
</svg>
