<svg xmlns="http://www.w3.org/2000/svg" width="150" height="150" viewBox="0 0 150 150">
  <g id="Grupo_16575" data-name="Grupo 16575" transform="translate(-7297 4421)">
    <rect id="Rectángulo_3965" data-name="Rectángulo 3965" width="150" height="150" transform="translate(7297 -4421)" fill="none"/>
    <g id="Grupo_16570" data-name="Grupo 16570" transform="translate(7032 -6731.605)">
      <g id="Grupo_16431" data-name="Grupo 16431" transform="translate(-854.877 2266.788)">
        <g id="Grupo_16429" data-name="Grupo 16429" transform="translate(1146.41 69.339)">
          <g id="Grupo_16428" data-name="Grupo 16428" transform="translate(0 0)">
            <path id="Trazado_25042" data-name="Trazado 25042" d="M1147.148,173.188c.824,5.435,4.341,16.722,19.329,16.722,0,0,1.1-17.752-16.744-19.452A2.383,2.383,0,0,0,1147.148,173.188Z" transform="translate(-1147.12 -101.857)" fill="#e9f857"/>
            <path id="Trazado_25043" data-name="Trazado 25043" d="M1150.294,170.458a2.367,2.367,0,0,0-1.4.3c14.488,2.67,14.639,16.922,14.587,18.915a26.368,26.368,0,0,0,3.561.234s1.1-17.752-16.744-19.452Z" transform="translate(-1147.681 -101.857)" fill="#e9f857"/>
            <path id="Trazado_25044" data-name="Trazado 25044" d="M1194.817,173.188c-.825,5.435-4.341,16.722-19.329,16.722,0,0-1.1-17.752,16.744-19.452a2.383,2.383,0,0,1,2.585,2.73Z" transform="translate(-1156.104 -101.857)" fill="#e9f857"/>
            <path id="Trazado_25045" data-name="Trazado 25045" d="M1192.233,170.458c-.756.072-1.475.176-2.165.3a2.375,2.375,0,0,1,1.18,2.427c-.754,4.975-3.767,14.852-15.768,16.488,0,.151.009.234.009.234,14.989,0,18.5-11.286,19.329-16.722a2.383,2.383,0,0,0-2.585-2.73Z" transform="translate(-1156.106 -101.857)" fill="#e9f857"/>
            <path id="Trazado_25046" data-name="Trazado 25046" d="M1232.691,173.188c.824,5.435,4.342,16.722,19.329,16.722,0,0,1.1-17.752-16.744-19.452a2.384,2.384,0,0,0-2.586,2.73Z" transform="translate(-1174.224 -101.857)" fill="#e9f857"/>
            <path id="Trazado_25047" data-name="Trazado 25047" d="M1235.837,170.458a2.371,2.371,0,0,0-1.405.3c14.488,2.67,14.639,16.923,14.588,18.915a26.352,26.352,0,0,0,3.561.234s1.1-17.752-16.744-19.452Z" transform="translate(-1174.784 -101.857)" fill="#e9f857"/>
            <path id="Trazado_25048" data-name="Trazado 25048" d="M1280.36,173.188c-.824,5.435-4.341,16.722-19.329,16.722,0,0-1.1-17.752,16.744-19.452A2.383,2.383,0,0,1,1280.36,173.188Z" transform="translate(-1183.208 -101.857)" fill="#e9f857"/>
            <path id="Trazado_25049" data-name="Trazado 25049" d="M1277.777,170.458c-.756.072-1.476.176-2.165.3a2.376,2.376,0,0,1,1.181,2.427c-.755,4.975-3.767,14.852-15.768,16.488,0,.151.008.234.008.234,14.989,0,18.505-11.286,19.33-16.722A2.384,2.384,0,0,0,1277.777,170.458Z" transform="translate(-1183.21 -101.857)" fill="#e9f857"/>
            <path id="Trazado_25050" data-name="Trazado 25050" d="M1212.107,70.695c-4.857,5.68-19.885,26.637,1.367,47.889,0,0,25.273-22.328,1.384-47.956a1.845,1.845,0,0,0-2.751.066Z" transform="translate(-1164.638 -70.046)" fill="#e9f857"/>
            <path id="Trazado_25051" data-name="Trazado 25051" d="M1219.179,70.629a1.845,1.845,0,0,0-2.751.066q-.181.212-.381.452a1.736,1.736,0,0,1,1.463.586c18.836,21.789,3.884,40.36-1.051,45.464q.642.694,1.336,1.387s25.273-22.328,1.384-47.956Z" transform="translate(-1168.96 -70.046)" fill="#e9f857"/>
            <path id="Trazado_25052" data-name="Trazado 25052" d="M1164.925,133.308c.765,8.421,5.633,34.057,36.56,34.057,0,0,2.168-35.032-34.076-36.644a2.381,2.381,0,0,0-2.484,2.587Z" transform="translate(-1152.759 -89.269)" fill="#e9f857"/>
            <path id="Trazado_25053" data-name="Trazado 25053" d="M1168.1,130.721a2.379,2.379,0,0,0-1.013.175c32.4,3,31.621,34.15,31.525,36.346,1.149.078,2.334.123,3.564.123,0,0,2.168-35.032-34.076-36.644Z" transform="translate(-1153.445 -89.269)" fill="#e9f857"/>
            <path id="Trazado_25054" data-name="Trazado 25054" d="M1255.066,133.308c-.765,8.421-5.633,34.057-36.56,34.057,0,0-2.168-35.032,34.076-36.644a2.381,2.381,0,0,1,2.484,2.587Z" transform="translate(-1169.731 -89.269)" fill="#e9f857"/>
            <path id="Trazado_25055" data-name="Trazado 25055" d="M1252.591,130.721q-1.312.058-2.557.175a2.373,2.373,0,0,1,1.471,2.412c-.734,8.086-5.257,32.04-33,33.934,0,.081.006.124.006.124,30.927,0,35.795-25.637,36.56-34.057a2.381,2.381,0,0,0-2.484-2.587Z" transform="translate(-1169.74 -89.269)" fill="#e9f857"/>
          </g>
        </g>
        <g id="Grupo_16430" data-name="Grupo 16430" transform="translate(1144.878 67.817)">
          <path id="Trazado_25056" data-name="Trazado 25056" d="M1244.23,137.848a3.888,3.888,0,0,0-3.4-1.418c-10.414,1.109-14.533,6.775-16.606,12a18.377,18.377,0,0,0-4.66-7.055,33.419,33.419,0,0,0,8.268-9.863,46.839,46.839,0,0,0,5.426-18,3.931,3.931,0,0,0-4.068-4.245c-11.318.5-20.18,4.232-26.338,11.083a33.808,33.808,0,0,0-6.172,10.031V118.627c2.111-2.013,11.077-11.291,11.706-24.26.43-8.867-3.151-17.44-10.644-25.478a3.391,3.391,0,0,0-5.022.115c-2.757,2.942-8.216,11.421-9.444,18.8a30.64,30.64,0,0,0,.646,14.865,38.672,38.672,0,0,0,9.714,15.746V130.39a33.828,33.828,0,0,0-6.172-10.031c-6.159-6.851-15.02-10.579-26.338-11.083a3.931,3.931,0,0,0-4.068,4.246,49.088,49.088,0,0,0,2.648,11.9,35.78,35.78,0,0,0,10.873,15.825,18.314,18.314,0,0,0-4.809,7.19c-.09-.237-.183-.475-.283-.713-1.946-4.626-6.356-10.339-16.322-11.288a3.928,3.928,0,0,0-4.235,4.473c.8,5.246,4.268,17.228,19.326,17.979v9.207a1.522,1.522,0,1,0,3.044,0v-9.212c10.006-.5,14.884-5.967,17.256-11.028a46.7,46.7,0,0,0,9.081,1.094v17.624h-3.892a1.522,1.522,0,1,0,0,3.044h10.5a1.522,1.522,0,1,0,0-3.044h-3.562V148.943a42.7,42.7,0,0,0,14.166-2.619l9.329,9.228a15.787,15.787,0,0,1-8.653-4.216,1.522,1.522,0,0,0-2.134,2.172c3.352,3.293,7.825,5.093,13.306,5.37v9.212a1.522,1.522,0,0,0,3.045,0v-9.207c15.057-.751,18.529-12.733,19.325-17.979a3.877,3.877,0,0,0-.837-3.056Zm-4.155,1.737-14.052,13.9a20.276,20.276,0,0,1,1.295-4.587C1229.555,143.578,1233.845,140.449,1240.075,139.585Zm-23.753.424a29.542,29.542,0,0,1-5.768,3.153A37.591,37.591,0,0,1,1199,145.777l13.623-13.643h11.289A29.384,29.384,0,0,1,1216.322,140.009Zm-7.129-21.319c4.947-3.662,11.257-5.773,18.837-6.3l-18.837,18.866Zm16.512,10.4H1215.66l14.418-14.439A43.081,43.081,0,0,1,1225.7,129.089Zm-20.568-6.715c.328-.364.666-.717,1.011-1.062v13l-9.354,9.367C1197.167,138.653,1198.755,129.458,1205.137,122.373Zm-8.455-8.2v-9.886l8.158-6.045A36.38,36.38,0,0,1,1196.682,114.171Zm8.67-20.1-8.67,6.424V72.261C1202.758,79.243,1205.673,86.573,1205.352,94.073Zm-11.714-21.353V91.077l-6.478-6.139A41.467,41.467,0,0,1,1193.638,72.719ZM1186.264,88.4c.007-.031.014-.062.02-.093l7.354,6.968v18.623c-6.685-7.9-9.167-16.459-7.374-25.5Zm-1.079,33.978c6.382,7.084,7.97,16.28,8.343,21.3l-16.54-16.565V116.145A27.769,27.769,0,0,1,1185.185,122.374Zm-22.893-9.982a40.748,40.748,0,0,1,11.651,2.416v9.252Zm-2.049,2.258,8.525,8.537h-6.629A45.552,45.552,0,0,1,1160.243,114.65ZM1166.8,132.7a35.242,35.242,0,0,1-3.521-6.47h8.532l19.517,19.545C1181.569,145.15,1172.348,140.917,1166.8,132.7Zm6.311,10.384a31.928,31.928,0,0,0,3.149,1.819l-8.661,8.568A16.893,16.893,0,0,1,1173.107,143.086Zm-10.465,5.719a20.236,20.236,0,0,1,1.33,4.677l-14.048-13.9C1156.116,140.443,1160.393,143.54,1162.642,148.8Zm-14.36-6.562,13.454,13.309C1152.69,154.017,1149.437,147.32,1148.282,142.242Zm21.534,13.315,9.425-9.324q1.124.437,2.323.813a15.231,15.231,0,0,1-11.748,8.511Zm47.216-12.355a16.964,16.964,0,0,1,5.372,10.271l-8.552-8.46a32.059,32.059,0,0,0,3.179-1.81Zm11.231,12.349,13.454-13.309c-1.155,5.078-4.409,11.774-13.454,13.309Z" transform="translate(-1144.877 -67.823)" fill="#00223d"/>
          <path id="Trazado_25057" data-name="Trazado 25057" d="M1159.238,98.814l4.676,1.213a1.522,1.522,0,1,0,.764-2.946L1160,95.867a1.522,1.522,0,0,0-.765,2.946Z" transform="translate(-1149.066 -76.689)" fill="#00223d"/>
          <path id="Trazado_25058" data-name="Trazado 25058" d="M1166.974,82.118l3.941,2.793a1.522,1.522,0,0,0,1.76-2.484l-3.941-2.793a1.522,1.522,0,1,0-1.76,2.483Z" transform="translate(-1151.675 -71.473)" fill="#00223d"/>
          <path id="Trazado_25059" data-name="Trazado 25059" d="M1182.888,74.379a1.522,1.522,0,1,0,2.8-1.2l-1.9-4.44a1.522,1.522,0,0,0-2.8,1.2Z" transform="translate(-1156.279 -67.817)" fill="#00223d"/>
          <path id="Trazado_25060" data-name="Trazado 25060" d="M1267.141,98.935a1.525,1.525,0,0,0,1.856,1.092l4.676-1.213a1.522,1.522,0,1,0-.764-2.946l-4.675,1.212A1.523,1.523,0,0,0,1267.141,98.935Z" transform="translate(-1183.6 -76.689)" fill="#00223d"/>
          <path id="Trazado_25061" data-name="Trazado 25061" d="M1261.458,85.192a1.516,1.516,0,0,0,.879-.28l3.941-2.793a1.522,1.522,0,1,0-1.76-2.484l-3.941,2.793a1.522,1.522,0,0,0,.881,2.764Z" transform="translate(-1181.333 -71.473)" fill="#00223d"/>
          <path id="Trazado_25062" data-name="Trazado 25062" d="M1249.31,75.179a1.524,1.524,0,0,0,2-.8l1.9-4.439a1.522,1.522,0,1,0-2.8-1.2l-1.9,4.44A1.522,1.522,0,0,0,1249.31,75.179Z" transform="translate(-1177.674 -67.817)" fill="#00223d"/>
        </g>
      </g>
    </g>
  </g>
</svg>
