<svg xmlns="http://www.w3.org/2000/svg" width="518.509" height="396.592" viewBox="0 0 518.509 396.592">
  <g id="Grupo_16576" data-name="Grupo 16576" transform="translate(-9608.5 3919.591)">
    <path id="Trazado_25710" data-name="Trazado 25710" d="M4.061,8.793v3.172H.9V8.793ZM16.714,15.13a4.393,4.393,0,0,1-2.512-.68,2.879,2.879,0,0,1-1.254-1.87l1.237-.294a2.029,2.029,0,0,0,.868,1.313,2.936,2.936,0,0,0,1.7.479,3.551,3.551,0,0,0,.636-.055,2.432,2.432,0,0,0,.578-.181,1.769,1.769,0,0,0,.475-.311,1.3,1.3,0,0,0,.314-.472,1.615,1.615,0,0,0,.109-.643,1.389,1.389,0,0,0-.085-.455,1.443,1.443,0,0,0-.191-.359,1.289,1.289,0,0,0-.325-.291,4.351,4.351,0,0,0-.39-.232,3.522,3.522,0,0,0-.482-.195q-.3-.1-.509-.161l-.554-.154q-.068-.021-.1-.027-.4-.1-.646-.178t-.6-.208a3.935,3.935,0,0,1-.571-.263,3.864,3.864,0,0,1-.468-.328,1.681,1.681,0,0,1-.386-.427,2.255,2.255,0,0,1-.232-.543,2.419,2.419,0,0,1-.092-.684,2.441,2.441,0,0,1,.448-1.477,2.62,2.62,0,0,1,1.155-.9,4.193,4.193,0,0,1,1.589-.287,4.352,4.352,0,0,1,2.314.591,2.635,2.635,0,0,1,1.227,1.747l-1.189.3a1.81,1.81,0,0,0-.8-1.183,2.74,2.74,0,0,0-1.5-.4,2.979,2.979,0,0,0-.738.089,2.194,2.194,0,0,0-.639.273,1.327,1.327,0,0,0-.461.5,1.528,1.528,0,0,0-.171.735,1.181,1.181,0,0,0,.068.407,1.249,1.249,0,0,0,.171.325A1.217,1.217,0,0,0,15,8.9a2.986,2.986,0,0,0,.359.212,3.637,3.637,0,0,0,.448.174q.28.092.479.15t.526.14a11.136,11.136,0,0,1,1.853.615,2.345,2.345,0,0,1,1.429,1.771,3.052,3.052,0,0,1,.027.417,2.69,2.69,0,0,1-.277,1.244,2.244,2.244,0,0,1-.759.861,3.627,3.627,0,0,1-1.08.482A4.953,4.953,0,0,1,16.714,15.13Zm8.237,0a3.542,3.542,0,0,1-1.723-.417,3.036,3.036,0,0,1-1.213-1.22,3.748,3.748,0,0,1-.448-1.856A3.423,3.423,0,0,1,22.521,9.1a3.578,3.578,0,0,1,4.864,0,3.43,3.43,0,0,1,.95,2.533,3.432,3.432,0,0,1-.954,2.54A3.292,3.292,0,0,1,24.951,15.13Zm-.007-.984a2.064,2.064,0,0,0,1.589-.69,2.587,2.587,0,0,0,.632-1.818,2.577,2.577,0,0,0-.632-1.812,2.064,2.064,0,0,0-1.589-.69,2.035,2.035,0,0,0-1.576.69,2.594,2.594,0,0,0-.625,1.812,2.6,2.6,0,0,0,.625,1.818A2.035,2.035,0,0,0,24.944,14.146Zm8.032.978a3.237,3.237,0,0,1-2.406-.964,3.438,3.438,0,0,1-.95-2.522,3.445,3.445,0,0,1,.947-2.522,3.5,3.5,0,0,1,4.354-.376,2.967,2.967,0,0,1,1.131,1.634l-1.107.178A2.045,2.045,0,0,0,34.187,9.5a2.066,2.066,0,0,0-1.217-.369,1.987,1.987,0,0,0-1.555.69,2.63,2.63,0,0,0-.612,1.812,2.617,2.617,0,0,0,.612,1.808,1.991,1.991,0,0,0,1.555.687,2.066,2.066,0,0,0,1.217-.369,2.045,2.045,0,0,0,.759-1.046l1.107.185a2.97,2.97,0,0,1-1.138,1.63A3.255,3.255,0,0,1,32.977,15.123ZM38.4,6.7a.805.805,0,0,1-.8-.8.758.758,0,0,1,.236-.561.775.775,0,0,1,.564-.232.767.767,0,0,1,.557.232.758.758,0,0,1,.236.561.77.77,0,0,1-.236.564A.762.762,0,0,1,38.4,6.7ZM37.8,15V8.28h1.189V15Zm6.426.13a3.542,3.542,0,0,1-1.723-.417,3.036,3.036,0,0,1-1.213-1.22,3.748,3.748,0,0,1-.448-1.856A3.423,3.423,0,0,1,41.792,9.1a3.578,3.578,0,0,1,4.864,0,3.43,3.43,0,0,1,.95,2.533,3.432,3.432,0,0,1-.954,2.54A3.292,3.292,0,0,1,44.222,15.13Zm-.007-.984a2.064,2.064,0,0,0,1.589-.69,2.587,2.587,0,0,0,.632-1.818A2.577,2.577,0,0,0,45.8,9.825a2.064,2.064,0,0,0-1.589-.69,2.035,2.035,0,0,0-1.576.69,2.594,2.594,0,0,0-.625,1.812,2.6,2.6,0,0,0,.625,1.818A2.035,2.035,0,0,0,44.215,14.146Zm5.209-2.3v-.978h4.9v.978Zm13.159-.342-.014.321h-5.25a2.375,2.375,0,0,0,.643,1.719,2.11,2.11,0,0,0,1.531.6,2.015,2.015,0,0,0,1.114-.321,2.085,2.085,0,0,0,.766-.889l1.066.226A3.031,3.031,0,0,1,61.291,14.6a3.133,3.133,0,0,1-1.784.526,3.246,3.246,0,0,1-2.42-.937,3.484,3.484,0,0,1-.923-2.557,3.467,3.467,0,0,1,.926-2.55,3.206,3.206,0,0,1,2.382-.937,3.034,3.034,0,0,1,2.259.861A3.4,3.4,0,0,1,62.583,11.507ZM59.473,9.06a2.1,2.1,0,0,0-1.4.475,2.177,2.177,0,0,0-.708,1.384h4.026a2,2,0,0,0-.588-1.384A1.9,1.9,0,0,0,59.473,9.06Zm7.752,6.063a3.237,3.237,0,0,1-2.406-.964,3.438,3.438,0,0,1-.95-2.522,3.445,3.445,0,0,1,.947-2.522,3.5,3.5,0,0,1,4.354-.376A2.967,2.967,0,0,1,70.3,10.372l-1.107.178A2.045,2.045,0,0,0,68.435,9.5a2.066,2.066,0,0,0-1.217-.369,1.987,1.987,0,0,0-1.555.69,2.63,2.63,0,0,0-.612,1.812,2.617,2.617,0,0,0,.612,1.808,1.991,1.991,0,0,0,1.555.687,2.066,2.066,0,0,0,1.217-.369,2.045,2.045,0,0,0,.759-1.046L70.3,12.9a2.97,2.97,0,0,1-1.138,1.63A3.255,3.255,0,0,1,67.225,15.123Zm7.649.007a3.542,3.542,0,0,1-1.723-.417,3.036,3.036,0,0,1-1.213-1.22,3.748,3.748,0,0,1-.448-1.856A3.423,3.423,0,0,1,72.444,9.1a3.578,3.578,0,0,1,4.864,0,3.43,3.43,0,0,1,.95,2.533,3.432,3.432,0,0,1-.954,2.54A3.292,3.292,0,0,1,74.874,15.13Zm-.007-.984a2.064,2.064,0,0,0,1.589-.69,2.587,2.587,0,0,0,.632-1.818,2.577,2.577,0,0,0-.632-1.812,2.064,2.064,0,0,0-1.589-.69,2.035,2.035,0,0,0-1.576.69,2.594,2.594,0,0,0-.625,1.812,2.6,2.6,0,0,0,.625,1.818A2.035,2.035,0,0,0,74.867,14.146Zm8.415-6a2.337,2.337,0,0,1,1.692.608,2.269,2.269,0,0,1,.632,1.716V15H84.424V10.741a1.589,1.589,0,0,0-.41-1.2,1.466,1.466,0,0,0-1.053-.39,1.626,1.626,0,0,0-1.2.461,1.872,1.872,0,0,0-.472,1.371V15H80.11V8.28h1.183v.861A2.244,2.244,0,0,1,83.282,8.15Zm6.986-1.025L91.984,4.9l.629.458L91.082,7.125Zm.451,8A3.542,3.542,0,0,1,89,14.713a3.036,3.036,0,0,1-1.213-1.22,3.748,3.748,0,0,1-.448-1.856A3.423,3.423,0,0,1,88.29,9.1a3.578,3.578,0,0,1,4.864,0,3.43,3.43,0,0,1,.95,2.533,3.432,3.432,0,0,1-.954,2.54A3.292,3.292,0,0,1,90.72,15.13Zm-.007-.984a2.064,2.064,0,0,0,1.589-.69,2.587,2.587,0,0,0,.632-1.818A2.577,2.577,0,0,0,92.3,9.825a2.064,2.064,0,0,0-1.589-.69,2.035,2.035,0,0,0-1.576.69,2.594,2.594,0,0,0-.625,1.812,2.6,2.6,0,0,0,.625,1.818A2.035,2.035,0,0,0,90.713,14.146Zm12.113-6a2.166,2.166,0,0,1,1.565.571,2.117,2.117,0,0,1,.595,1.6V15H103.8V10.632a1.518,1.518,0,0,0-.369-1.107,1.257,1.257,0,0,0-.937-.376,1.327,1.327,0,0,0-1.025.424,1.822,1.822,0,0,0-.39,1.271V15h-1.2V10.68a1.588,1.588,0,0,0-.373-1.145,1.267,1.267,0,0,0-.954-.386,1.315,1.315,0,0,0-1.022.434,1.885,1.885,0,0,0-.393,1.3V15H95.956V8.28h1.183v.868a2.041,2.041,0,0,1,.769-.738,2.193,2.193,0,0,1,1.07-.26,2.283,2.283,0,0,1,1.148.284,1.766,1.766,0,0,1,.745.817,2.091,2.091,0,0,1,.807-.817A2.307,2.307,0,0,1,102.826,8.15ZM107.878,6.7a.805.805,0,0,1-.8-.8.758.758,0,0,1,.236-.561.775.775,0,0,1,.564-.232.767.767,0,0,1,.557.232.758.758,0,0,1,.236.561.77.77,0,0,1-.236.564A.762.762,0,0,1,107.878,6.7Zm-.6,8.3V8.28h1.189V15Zm6.385.123a3.237,3.237,0,0,1-2.406-.964,3.438,3.438,0,0,1-.95-2.522,3.445,3.445,0,0,1,.947-2.522,3.5,3.5,0,0,1,4.354-.376,2.967,2.967,0,0,1,1.131,1.634l-1.107.178a2.045,2.045,0,0,0-.759-1.046,2.066,2.066,0,0,0-1.217-.369,1.987,1.987,0,0,0-1.555.69,2.63,2.63,0,0,0-.612,1.812,2.617,2.617,0,0,0,.612,1.808,1.991,1.991,0,0,0,1.555.687,2.066,2.066,0,0,0,1.217-.369,2.045,2.045,0,0,0,.759-1.046l1.107.185a2.97,2.97,0,0,1-1.138,1.63A3.255,3.255,0,0,1,113.661,15.123Zm6.371.007a2.287,2.287,0,0,1-1.473-.461,1.657,1.657,0,0,1-.578-1.377,1.957,1.957,0,0,1,.185-.878,1.549,1.549,0,0,1,.547-.612,3.281,3.281,0,0,1,.79-.379,7.3,7.3,0,0,1,1.022-.243L121.611,11q.595-.109.595-.622a1.174,1.174,0,0,0-.42-1,1.713,1.713,0,0,0-1.063-.318,1.745,1.745,0,0,0-1.053.308,1.287,1.287,0,0,0-.5.943l-1.066-.226a2.052,2.052,0,0,1,.841-1.439,3.141,3.141,0,0,1,1.832-.482,3.716,3.716,0,0,1,.974.12,2.647,2.647,0,0,1,.813.376,1.686,1.686,0,0,1,.581.725,2.7,2.7,0,0,1,.208,1.1v2.775a1.136,1.136,0,0,0,.154.7.664.664,0,0,0,.53.181h.109V15h-.588a1.121,1.121,0,0,1-1.271-.909h-.055A2.568,2.568,0,0,1,120.032,15.13Zm.273-.957a1.793,1.793,0,0,0,1.442-.649,2.674,2.674,0,0,0,.547-1.777l-1.777.342a2.392,2.392,0,0,0-1.042.373.867.867,0,0,0-.338.735.857.857,0,0,0,.325.738A1.388,1.388,0,0,0,120.306,14.173Zm7.636.957a3.186,3.186,0,0,1-1.812-.485,2.007,2.007,0,0,1-.882-1.381l1.032-.294a1.44,1.44,0,0,0,.55.933,1.785,1.785,0,0,0,1.1.332,2.2,2.2,0,0,0,.646-.089,1.036,1.036,0,0,0,.5-.332.925.925,0,0,0,.144-.889,1.187,1.187,0,0,0-.109-.222.677.677,0,0,0-.191-.185,2.524,2.524,0,0,0-.232-.144,2.385,2.385,0,0,0-.3-.126q-.2-.072-.325-.109t-.376-.109l-.39-.113a7.289,7.289,0,0,1-.7-.246,3.058,3.058,0,0,1-.567-.325,1.306,1.306,0,0,1-.441-.53,1.792,1.792,0,0,1-.147-.752,1.738,1.738,0,0,1,.328-1.073,1.846,1.846,0,0,1,.851-.632,3.4,3.4,0,0,1,1.193-.195,2.92,2.92,0,0,1,1.637.438,1.867,1.867,0,0,1,.817,1.313l-.971.246a1.287,1.287,0,0,0-.513-.851,1.632,1.632,0,0,0-.964-.284,1.664,1.664,0,0,0-.9.236.793.793,0,0,0-.376.721.718.718,0,0,0,.1.373,1.183,1.183,0,0,0,.2.263,1.24,1.24,0,0,0,.369.2q.267.106.4.144t.492.126q.068.021.1.027.4.1.646.181a3.971,3.971,0,0,1,.581.246,1.932,1.932,0,0,1,.523.366,1.694,1.694,0,0,1,.328.52,1.834,1.834,0,0,1,.137.725,1.957,1.957,0,0,1-.2.906,1.577,1.577,0,0,1-.55.619,2.662,2.662,0,0,1-.783.338A3.729,3.729,0,0,1,127.941,15.13ZM4.061,26.793v3.172H.9V26.793Zm13.323-3.418a2.85,2.85,0,0,1,1.507.4,2.7,2.7,0,0,1,1.012,1.07,3.139,3.139,0,0,1,.352,1.483,2.921,2.921,0,0,1-.8,2.1,2.733,2.733,0,0,1-2.075.837h-2.42V33H13.74V23.375Zm-.178,4.819a1.75,1.75,0,0,0,1.34-.516,2.149,2.149,0,0,0,0-2.721,1.738,1.738,0,0,0-1.34-.523H14.964v3.76Zm6.043-.731a2.032,2.032,0,0,1,.834-.9,2.512,2.512,0,0,1,1.292-.355v1.114a2.214,2.214,0,0,0-1.562.5,2.084,2.084,0,0,0-.537,1.593V33H22.094V26.28h1.155Zm6.262,5.667a3.542,3.542,0,0,1-1.723-.417,3.036,3.036,0,0,1-1.213-1.22,3.748,3.748,0,0,1-.448-1.856,3.423,3.423,0,0,1,.954-2.533,3.578,3.578,0,0,1,4.864,0,3.43,3.43,0,0,1,.95,2.533,3.432,3.432,0,0,1-.954,2.54A3.292,3.292,0,0,1,29.511,33.13Zm-.007-.984a2.064,2.064,0,0,0,1.589-.69,2.921,2.921,0,0,0,0-3.63,2.064,2.064,0,0,0-1.589-.69,2.035,2.035,0,0,0-1.576.69,2.946,2.946,0,0,0,0,3.63A2.035,2.035,0,0,0,29.5,32.146ZM39.71,22.5h1.183V33H39.751l-.027-1.306a2.473,2.473,0,0,1-.957,1.06,2.667,2.667,0,0,1-1.422.39,3.054,3.054,0,0,1-2.218-.947,3.236,3.236,0,0,1-.677-1.111,4.064,4.064,0,0,1-.25-1.442,3.533,3.533,0,0,1,.913-2.522,2.946,2.946,0,0,1,2.232-.971,2.678,2.678,0,0,1,1.4.379,2.487,2.487,0,0,1,.96,1.029Zm-2.119,9.618a2.012,2.012,0,0,0,1.562-.708,2.775,2.775,0,0,0,0-3.531,2.011,2.011,0,0,0-1.559-.711,2.056,2.056,0,0,0-1.572.687,2.831,2.831,0,0,0,0,3.575A2.056,2.056,0,0,0,37.591,32.118Zm9.892-5.838h1.183V33H47.53l-.027-.889a2.1,2.1,0,0,1-.834.755,2.565,2.565,0,0,1-1.176.263,2.337,2.337,0,0,1-1.692-.608,2.269,2.269,0,0,1-.632-1.716V26.28h1.183v4.259a1.6,1.6,0,0,0,.414,1.2,1.464,1.464,0,0,0,1.056.4,1.608,1.608,0,0,0,1.193-.465,1.893,1.893,0,0,0,.468-1.374Zm6.378,6.843a3.237,3.237,0,0,1-2.406-.964,3.828,3.828,0,0,1,0-5.045,3.5,3.5,0,0,1,4.354-.376,2.967,2.967,0,0,1,1.131,1.634l-1.107.178A2.045,2.045,0,0,0,55.07,27.5a2.066,2.066,0,0,0-1.217-.369,1.987,1.987,0,0,0-1.555.69,2.983,2.983,0,0,0,0,3.62,1.991,1.991,0,0,0,1.555.687,2.066,2.066,0,0,0,1.217-.369,2.045,2.045,0,0,0,.759-1.046l1.107.185a2.97,2.97,0,0,1-1.138,1.63A3.255,3.255,0,0,1,53.86,33.123ZM60.826,33a1.766,1.766,0,0,1-1.312-.482,1.823,1.823,0,0,1-.479-1.343V27.224H57.661V26.28h.506a.971.971,0,0,0,.742-.236,1.161,1.161,0,0,0,.215-.79V24.038h1.1V26.28H61.77v.943H60.225v3.828a1.019,1.019,0,0,0,.256.742.9.9,0,0,0,.673.263h.615V33Zm3.254-8.3a.805.805,0,0,1-.8-.8.758.758,0,0,1,.236-.561.775.775,0,0,1,.564-.232.767.767,0,0,1,.557.232.758.758,0,0,1,.236.561.77.77,0,0,1-.236.564A.762.762,0,0,1,64.08,24.7Zm-.6,8.3V26.28h1.189V33Zm7.786-6.72h1.265L69.795,33h-1l-2.721-6.72h1.258L69.3,31.626Zm3.951,6.85a2.287,2.287,0,0,1-1.473-.461,1.657,1.657,0,0,1-.578-1.377,1.957,1.957,0,0,1,.185-.878A1.549,1.549,0,0,1,73.9,29.8a3.281,3.281,0,0,1,.79-.379,7.3,7.3,0,0,1,1.022-.243L76.795,29q.595-.109.595-.622a1.174,1.174,0,0,0-.42-1,1.713,1.713,0,0,0-1.063-.318,1.745,1.745,0,0,0-1.053.308,1.287,1.287,0,0,0-.5.943l-1.066-.226a2.052,2.052,0,0,1,.841-1.439,3.141,3.141,0,0,1,1.832-.482,3.716,3.716,0,0,1,.974.12,2.647,2.647,0,0,1,.813.376,1.686,1.686,0,0,1,.581.725,2.7,2.7,0,0,1,.208,1.1v2.775a1.136,1.136,0,0,0,.154.7.664.664,0,0,0,.53.181h.109V33h-.588a1.121,1.121,0,0,1-1.271-.909h-.055A2.568,2.568,0,0,1,75.216,33.13Zm.273-.957a1.793,1.793,0,0,0,1.442-.649,2.674,2.674,0,0,0,.547-1.777l-1.777.342a2.392,2.392,0,0,0-1.042.373.867.867,0,0,0-.338.735.857.857,0,0,0,.325.738A1.388,1.388,0,0,0,75.489,32.173Zm7.636.957a3.186,3.186,0,0,1-1.812-.485,2.007,2.007,0,0,1-.882-1.381l1.032-.294a1.44,1.44,0,0,0,.55.933,1.785,1.785,0,0,0,1.1.332,2.2,2.2,0,0,0,.646-.089,1.036,1.036,0,0,0,.5-.332.925.925,0,0,0,.144-.889,1.187,1.187,0,0,0-.109-.222.677.677,0,0,0-.191-.185,2.524,2.524,0,0,0-.232-.144,2.386,2.386,0,0,0-.3-.126q-.2-.072-.325-.109t-.376-.109l-.39-.113a7.288,7.288,0,0,1-.7-.246,3.058,3.058,0,0,1-.567-.325,1.306,1.306,0,0,1-.441-.53,1.792,1.792,0,0,1-.147-.752,1.738,1.738,0,0,1,.328-1.073,1.846,1.846,0,0,1,.851-.632A3.4,3.4,0,0,1,83,26.164a2.92,2.92,0,0,1,1.637.438,1.867,1.867,0,0,1,.817,1.313l-.971.246a1.287,1.287,0,0,0-.513-.851A1.632,1.632,0,0,0,83,27.025a1.664,1.664,0,0,0-.9.236.793.793,0,0,0-.376.721.718.718,0,0,0,.1.373,1.183,1.183,0,0,0,.2.263,1.24,1.24,0,0,0,.369.2q.267.106.4.144t.492.126q.068.021.1.027.4.1.646.181a3.97,3.97,0,0,1,.581.246,1.932,1.932,0,0,1,.523.366,1.694,1.694,0,0,1,.328.52,1.834,1.834,0,0,1,.137.725,1.957,1.957,0,0,1-.2.906,1.577,1.577,0,0,1-.55.619,2.661,2.661,0,0,1-.783.338A3.729,3.729,0,0,1,83.125,33.13ZM4.061,44.793v3.172H.9V44.793ZM14.226,51.13a5.113,5.113,0,0,1-1.894-.345,4.573,4.573,0,0,1-1.521-.971A4.33,4.33,0,0,1,9.8,48.252a5.649,5.649,0,0,1-.366-2.071A5.557,5.557,0,0,1,9.8,44.12a4.322,4.322,0,0,1,2.529-2.533,5.159,5.159,0,0,1,1.894-.342,4.89,4.89,0,0,1,2.56.677,4.216,4.216,0,0,1,1.692,1.88l-1.128.465A3.169,3.169,0,0,0,16.088,42.9a3.62,3.62,0,0,0-1.863-.482,3.828,3.828,0,0,0-1.4.253,3.358,3.358,0,0,0-1.135.725,3.271,3.271,0,0,0-.762,1.189,4.769,4.769,0,0,0,0,3.2,3.267,3.267,0,0,0,.762,1.193,3.4,3.4,0,0,0,1.135.728,3.782,3.782,0,0,0,1.4.256,3.62,3.62,0,0,0,1.863-.482,3.177,3.177,0,0,0,1.261-1.364l1.128.458a4.2,4.2,0,0,1-1.688,1.883A4.9,4.9,0,0,1,14.226,51.13Zm10.227-6.85h1.183V51H24.5l-.027-.889a2.1,2.1,0,0,1-.834.755,2.565,2.565,0,0,1-1.176.263,2.337,2.337,0,0,1-1.692-.608,2.269,2.269,0,0,1-.632-1.716V44.28h1.183v4.259a1.6,1.6,0,0,0,.414,1.2,1.464,1.464,0,0,0,1.056.4,1.608,1.608,0,0,0,1.193-.465,1.893,1.893,0,0,0,.468-1.374ZM28.041,51V40.5h1.2V51Zm5.749,0a1.766,1.766,0,0,1-1.312-.482A1.823,1.823,0,0,1,32,49.175V45.224H30.625V44.28h.506a.971.971,0,0,0,.742-.236,1.161,1.161,0,0,0,.215-.79V42.038h1.1V44.28h1.545v.943H33.188v3.828a1.019,1.019,0,0,0,.256.742.9.9,0,0,0,.673.263h.615V51Zm6.836-6.72h1.183V51H40.674l-.027-.889a2.1,2.1,0,0,1-.834.755,2.565,2.565,0,0,1-1.176.263,2.337,2.337,0,0,1-1.692-.608,2.269,2.269,0,0,1-.632-1.716V44.28H37.5v4.259a1.6,1.6,0,0,0,.414,1.2,1.464,1.464,0,0,0,1.056.4,1.608,1.608,0,0,0,1.193-.465,1.893,1.893,0,0,0,.468-1.374Zm4.744,1.183a2.032,2.032,0,0,1,.834-.9,2.512,2.512,0,0,1,1.292-.355v1.114a2.214,2.214,0,0,0-1.562.5,2.084,2.084,0,0,0-.537,1.593V51H44.215V44.28H45.37Zm4.983,5.667a2.287,2.287,0,0,1-1.473-.461,1.657,1.657,0,0,1-.578-1.377,1.957,1.957,0,0,1,.185-.878,1.549,1.549,0,0,1,.547-.612,3.281,3.281,0,0,1,.79-.379,7.3,7.3,0,0,1,1.022-.243L51.933,47q.595-.109.595-.622a1.174,1.174,0,0,0-.42-1,1.713,1.713,0,0,0-1.063-.318,1.745,1.745,0,0,0-1.053.308,1.287,1.287,0,0,0-.5.943l-1.066-.226a2.052,2.052,0,0,1,.841-1.439,3.141,3.141,0,0,1,1.832-.482,3.716,3.716,0,0,1,.974.12,2.647,2.647,0,0,1,.813.376,1.686,1.686,0,0,1,.581.725,2.7,2.7,0,0,1,.208,1.1v2.775a1.136,1.136,0,0,0,.154.7.664.664,0,0,0,.53.181h.109V51h-.588a1.121,1.121,0,0,1-1.271-.909h-.055A2.568,2.568,0,0,1,50.354,51.13Zm.273-.957a1.793,1.793,0,0,0,1.442-.649,2.674,2.674,0,0,0,.547-1.777l-1.777.342a2.392,2.392,0,0,0-1.042.373.867.867,0,0,0-.338.735.857.857,0,0,0,.325.738A1.388,1.388,0,0,0,50.627,50.173Zm5.51.827V40.5h1.2V51Zm9.481-3.493-.014.321h-5.25A2.375,2.375,0,0,0,61,49.547a2.11,2.11,0,0,0,1.531.6,2.015,2.015,0,0,0,1.114-.321,2.085,2.085,0,0,0,.766-.889l1.066.226A3.031,3.031,0,0,1,64.326,50.6a3.133,3.133,0,0,1-1.784.526,3.246,3.246,0,0,1-2.42-.937,3.988,3.988,0,0,1,0-5.106,3.206,3.206,0,0,1,2.382-.937,3.034,3.034,0,0,1,2.259.861A3.4,3.4,0,0,1,65.618,47.507Zm-3.11-2.447a2.1,2.1,0,0,0-1.4.475,2.177,2.177,0,0,0-.708,1.384h4.026a2,2,0,0,0-.588-1.384A1.9,1.9,0,0,0,62.508,45.06ZM69.6,51.13a3.186,3.186,0,0,1-1.812-.485,2.007,2.007,0,0,1-.882-1.381l1.032-.294a1.44,1.44,0,0,0,.55.933,1.785,1.785,0,0,0,1.1.332,2.2,2.2,0,0,0,.646-.089,1.036,1.036,0,0,0,.5-.332.925.925,0,0,0,.144-.889,1.187,1.187,0,0,0-.109-.222.677.677,0,0,0-.191-.185,2.523,2.523,0,0,0-.232-.144,2.386,2.386,0,0,0-.3-.126q-.2-.072-.325-.109t-.376-.109l-.39-.113a7.289,7.289,0,0,1-.7-.246,3.058,3.058,0,0,1-.567-.325,1.306,1.306,0,0,1-.441-.53,1.792,1.792,0,0,1-.147-.752,1.738,1.738,0,0,1,.328-1.073,1.846,1.846,0,0,1,.851-.632,3.4,3.4,0,0,1,1.193-.195A2.92,2.92,0,0,1,71.1,44.6a1.867,1.867,0,0,1,.817,1.313l-.971.246a1.287,1.287,0,0,0-.513-.851,1.632,1.632,0,0,0-.964-.284,1.664,1.664,0,0,0-.9.236.793.793,0,0,0-.376.721.718.718,0,0,0,.1.373,1.183,1.183,0,0,0,.2.263,1.24,1.24,0,0,0,.369.2q.267.106.4.144t.492.126q.068.021.1.027.4.1.646.181a3.971,3.971,0,0,1,.581.246,1.932,1.932,0,0,1,.523.366,1.694,1.694,0,0,1,.328.52,1.834,1.834,0,0,1,.137.725,1.957,1.957,0,0,1-.2.906,1.577,1.577,0,0,1-.55.619,2.661,2.661,0,0,1-.783.338A3.729,3.729,0,0,1,69.6,51.13Z" transform="translate(9783.5 -3923)" fill="#00223d"/>
    <path id="Trazado_25063" data-name="Trazado 25063" d="M-696.448,349.246a69.807,69.807,0,0,1-13.476-3.6l-13.256,14.63a88.2,88.2,0,0,1-12.364-7.084l6.056-18.784a70.283,70.283,0,0,1-9.9-9.9l-18.784,6.056a88.676,88.676,0,0,1-7.084-12.364l14.63-13.256a69.718,69.718,0,0,1-3.6-13.476l-19.326-4.173c-.187-2.36-.36-4.729-.36-7.14s.173-4.78.36-7.144l19.326-4.173a69.807,69.807,0,0,1,3.6-13.476l-14.63-13.256a88.208,88.208,0,0,1,7.084-12.363l18.784,6.056a70.5,70.5,0,0,1,9.9-9.9l-6.056-18.784a88.668,88.668,0,0,1,12.364-7.084l13.256,14.63a69.722,69.722,0,0,1,13.476-3.6l4.173-19.326c2.364-.187,4.733-.36,7.144-.36s4.78.173,7.144.36l4.173,19.326a69.812,69.812,0,0,1,13.476,3.6l13.256-14.63a88.2,88.2,0,0,1,12.363,7.084l-6.056,18.784a70.286,70.286,0,0,1,9.9,9.9l18.784-6.056a88.668,88.668,0,0,1,7.084,12.363l-14.63,13.256a69.718,69.718,0,0,1,3.6,13.476l19.326,4.173c.187,2.36.36,4.729.36,7.14s-.173,4.78-.36,7.144l-19.326,4.173a69.808,69.808,0,0,1-3.6,13.476l14.63,13.256a88.2,88.2,0,0,1-7.084,12.363l-18.784-6.056a70.283,70.283,0,0,1-9.9,9.9l6.056,18.784a88.663,88.663,0,0,1-12.364,7.084l-13.256-14.63a69.717,69.717,0,0,1-13.476,3.6l-4.173,19.326c-2.36.187-4.729.36-7.14.36s-4.78-.173-7.144-.36Zm58.042-69.093a46.724,46.724,0,0,0-46.725-46.725,46.724,46.724,0,0,0-46.725,46.725,46.724,46.724,0,0,0,46.725,46.725A46.724,46.724,0,0,0-638.406,280.153Z" transform="translate(10484.947 -4046.884)" fill="#f9a825"/>
    <path id="Trazado_25064" data-name="Trazado 25064" d="M-445.281,510.56A37.445,37.445,0,0,1-452.2,507.7l-14.139,7.378a51.637,51.637,0,0,1-8.481-8.481l7.378-14.139a36.815,36.815,0,0,1-2.855-6.915l-15.232-4.785a50.771,50.771,0,0,1-.383-5.99,51.65,51.65,0,0,1,.378-5.985L-470.3,464a37.13,37.13,0,0,1,2.855-6.915l-7.378-14.139a51.638,51.638,0,0,1,8.481-8.481l14.139,7.378a36.816,36.816,0,0,1,6.915-2.855l4.785-15.232a50.777,50.777,0,0,1,5.99-.383,51.65,51.65,0,0,1,5.985.378l4.785,15.232a37.128,37.128,0,0,1,6.915,2.855l14.139-7.378a51.638,51.638,0,0,1,8.481,8.481l-7.378,14.139A36.815,36.815,0,0,1-398.729,464l15.232,4.785a50.771,50.771,0,0,1,.383,5.99,51.651,51.651,0,0,1-.378,5.986l-15.232,4.785a37.133,37.133,0,0,1-2.855,6.915L-394.2,506.6a51.633,51.633,0,0,1-8.481,8.481l-14.139-7.378a36.812,36.812,0,0,1-6.915,2.855l-4.785,15.232a50.771,50.771,0,0,1-5.99.383,51.638,51.638,0,0,1-5.986-.379Zm29.46-35.787a18.691,18.691,0,0,0-18.69-18.69,18.691,18.691,0,0,0-18.69,18.69,18.691,18.691,0,0,0,18.69,18.69A18.691,18.691,0,0,0-415.821,474.773Z" transform="translate(10365.158 -4143.381)" fill="#008cb4"/>
    <path id="Trazado_25065" data-name="Trazado 25065" d="M-620.6,584.916a32.52,32.52,0,0,1-7.345-3.032l-9.784,4.649a42.382,42.382,0,0,1-7.233-7.233l4.649-9.784a32.432,32.432,0,0,1-3.032-7.345l-10.224-3.635a41.853,41.853,0,0,1-.341-5.107,41.853,41.853,0,0,1,.341-5.107l10.224-3.635a32.52,32.52,0,0,1,3.032-7.345l-4.649-9.784a42.379,42.379,0,0,1,7.233-7.233l9.784,4.649a32.484,32.484,0,0,1,7.34-3.032l3.635-10.223a41.98,41.98,0,0,1,5.112-.341,41.841,41.841,0,0,1,5.107.341l3.635,10.223a32.4,32.4,0,0,1,7.341,3.032l9.784-4.649a42.384,42.384,0,0,1,7.233,7.233l-4.649,9.784a32.434,32.434,0,0,1,3.032,7.345l10.224,3.635a40.945,40.945,0,0,1,.346,5.107,41.853,41.853,0,0,1-.341,5.107l-10.224,3.635a32.52,32.52,0,0,1-3.032,7.345l4.649,9.784a42.382,42.382,0,0,1-7.233,7.233l-9.784-4.649a32.432,32.432,0,0,1-7.345,3.032l-3.635,10.224a41.854,41.854,0,0,1-5.107.341,41.854,41.854,0,0,1-5.107-.341Zm22.76-31.488a14.017,14.017,0,0,0-14.018-14.018,14.017,14.017,0,0,0-14.018,14.018,14.017,14.017,0,0,0,14.018,14.018A14.017,14.017,0,0,0-597.839,553.428Z" transform="translate(10435.035 -4179.983)" fill="#4ac3ed"/>
    <g id="Grupo_16432" data-name="Grupo 16432" transform="translate(9676.5 -3865.869)">
      <path id="Trazado_25066" data-name="Trazado 25066" d="M-695.972,183.749a4.669,4.669,0,0,0-4.2,3.673l-3.514,16.284a73.832,73.832,0,0,0-8.186,2.187l-11.167-12.326a4.671,4.671,0,0,0-5.471-1.079,93.436,93.436,0,0,0-13.013,7.457,4.672,4.672,0,0,0-1.79,5.275l5.1,15.826a74.864,74.864,0,0,0-6.028,6.028l-15.826-5.1a4.672,4.672,0,0,0-5.275,1.79,93.437,93.437,0,0,0-7.457,13.013,4.677,4.677,0,0,0,1.079,5.471l12.326,11.167a75.207,75.207,0,0,0-2.187,8.191l-16.284,3.514a4.679,4.679,0,0,0-3.673,4.191c-.2,2.486-.374,4.976-.374,7.513s.178,5.028.374,7.513a4.669,4.669,0,0,0,3.673,4.2l16.284,3.514a73.879,73.879,0,0,0,2.187,8.191l-12.326,11.167a4.667,4.667,0,0,0-1.079,5.472,93.9,93.9,0,0,0,7.457,13.013,4.672,4.672,0,0,0,5.275,1.79l15.826-5.1a75.575,75.575,0,0,0,6.023,6.028l-5.1,15.826a4.666,4.666,0,0,0,1.79,5.275,93.431,93.431,0,0,0,13.013,7.457,4.671,4.671,0,0,0,5.471-1.079l11.167-12.326a75.225,75.225,0,0,0,8.191,2.187l3.514,16.284a4.679,4.679,0,0,0,4.191,3.673c2.49.192,4.981.369,7.518.369s5.028-.178,7.513-.374a4.669,4.669,0,0,0,4.2-3.673l3.514-16.284a73.893,73.893,0,0,0,8.191-2.187l11.167,12.326a4.671,4.671,0,0,0,5.472,1.079,93.9,93.9,0,0,0,13.013-7.457,4.666,4.666,0,0,0,1.79-5.275l-5.1-15.826a74.868,74.868,0,0,0,6.028-6.028l15.826,5.1a4.672,4.672,0,0,0,5.275-1.79,93.424,93.424,0,0,0,7.457-13.013,4.662,4.662,0,0,0-1.079-5.472l-12.326-11.167a75.222,75.222,0,0,0,2.187-8.191l16.284-3.514a4.679,4.679,0,0,0,3.673-4.191,94.968,94.968,0,0,0,0-15.032,4.669,4.669,0,0,0-3.673-4.2l-16.284-3.514a73.828,73.828,0,0,0-2.187-8.186l12.326-11.167a4.669,4.669,0,0,0,1.079-5.471,93.424,93.424,0,0,0-7.457-13.013,4.673,4.673,0,0,0-5.275-1.79l-15.826,5.1a74.874,74.874,0,0,0-6.028-6.028l5.1-15.821a4.661,4.661,0,0,0-1.79-5.275,93.431,93.431,0,0,0-13.013-7.457,4.671,4.671,0,0,0-5.472,1.079l-11.167,12.326a75.228,75.228,0,0,0-8.191-2.187l-3.514-16.284a4.679,4.679,0,0,0-4.191-3.673c-2.49-.2-4.981-.374-7.518-.374s-5.028.178-7.513.374Zm10.826,9.069,3.434,15.9a4.674,4.674,0,0,0,3.818,3.626,65.142,65.142,0,0,1,12.574,3.36,4.667,4.667,0,0,0,5.116-1.234l10.878-12c2,1.047,3.925,2.14,5.743,3.271l-4.962,15.4a4.69,4.69,0,0,0,1.486,5.051,65.7,65.7,0,0,1,9.242,9.242,4.667,4.667,0,0,0,5.051,1.486l15.4-4.962q1.7,2.726,3.271,5.743L-626.1,248.571a4.679,4.679,0,0,0-1.234,5.121,64.821,64.821,0,0,1,3.36,12.569,4.674,4.674,0,0,0,3.626,3.817l15.9,3.43a61.542,61.542,0,0,1,0,6.63l-15.9,3.434a4.674,4.674,0,0,0-3.626,3.817,65.136,65.136,0,0,1-3.36,12.574,4.665,4.665,0,0,0,1.234,5.116l12,10.878c-1.047,2-2.14,3.925-3.271,5.743l-15.4-4.962a4.677,4.677,0,0,0-5.051,1.486,65.7,65.7,0,0,1-9.242,9.242,4.656,4.656,0,0,0-1.486,5.051l4.962,15.4q-2.726,1.7-5.738,3.271L-660.2,339.18a4.673,4.673,0,0,0-5.121-1.234,64.825,64.825,0,0,1-12.569,3.36,4.674,4.674,0,0,0-3.818,3.626l-3.43,15.9c-1.1.061-2.205.1-3.317.1s-2.219-.037-3.313-.1l-3.434-15.9a4.674,4.674,0,0,0-3.817-3.626,65.141,65.141,0,0,1-12.574-3.36,4.667,4.667,0,0,0-5.116,1.234l-10.878,12c-2-1.047-3.925-2.14-5.743-3.271l4.962-15.4a4.651,4.651,0,0,0-1.486-5.051,65.947,65.947,0,0,1-9.242-9.242,4.67,4.67,0,0,0-5.046-1.486l-15.4,4.962q-1.7-2.726-3.271-5.738l12.008-10.878a4.689,4.689,0,0,0,1.234-5.121,64.825,64.825,0,0,1-3.36-12.569,4.674,4.674,0,0,0-3.626-3.817l-15.9-3.43a61.526,61.526,0,0,1,0-6.63l15.9-3.434a4.674,4.674,0,0,0,3.626-3.817,65.139,65.139,0,0,1,3.36-12.574,4.661,4.661,0,0,0-1.234-5.116l-12-10.878c1.047-2,2.14-3.925,3.271-5.743l15.4,4.962a4.678,4.678,0,0,0,5.051-1.486,65.7,65.7,0,0,1,9.242-9.242,4.666,4.666,0,0,0,1.486-5.051l-4.962-15.4q2.726-1.7,5.743-3.271l10.878,12.008a4.673,4.673,0,0,0,5.121,1.234,64.826,64.826,0,0,1,12.569-3.36,4.674,4.674,0,0,0,3.818-3.626l3.42-15.905c1.1-.056,2.205-.1,3.318-.1S-686.239,192.757-685.146,192.818Z" transform="translate(811.775 -177.688)" fill="#0d1030"/>
      <path id="Trazado_25067" data-name="Trazado 25067" d="M-448.282,523.866a4.669,4.669,0,0,0,3.92,3.238,54.956,54.956,0,0,0,6.523.411,55.9,55.9,0,0,0,6.523-.406,4.669,4.669,0,0,0,3.92-3.238l4.07-12.957q1.591-.582,3.121-1.29l12.032,6.28a4.683,4.683,0,0,0,5.06-.477,56.573,56.573,0,0,0,9.247-9.247,4.684,4.684,0,0,0,.481-5.06l-6.28-12.041q.7-1.528,1.285-3.121l12.957-4.07a4.669,4.669,0,0,0,3.238-3.92,51.692,51.692,0,0,0,0-13.05,4.669,4.669,0,0,0-3.238-3.92l-12.957-4.07q-.582-1.591-1.29-3.121l6.28-12.032a4.693,4.693,0,0,0-.477-5.06,56.569,56.569,0,0,0-9.247-9.247,4.674,4.674,0,0,0-5.06-.481l-12.032,6.275q-1.528-.7-3.121-1.285l-4.07-12.957a4.669,4.669,0,0,0-3.92-3.238,55.9,55.9,0,0,0-6.523-.406,55.9,55.9,0,0,0-6.523.406,4.669,4.669,0,0,0-3.92,3.238l-4.07,12.957q-1.591.582-3.121,1.29l-12.032-6.28a4.683,4.683,0,0,0-5.06.477,56.568,56.568,0,0,0-9.247,9.247,4.683,4.683,0,0,0-.481,5.06l6.275,12.032q-.7,1.528-1.285,3.121l-12.957,4.07a4.669,4.669,0,0,0-3.238,3.92,55.227,55.227,0,0,0-.411,6.532,55.9,55.9,0,0,0,.407,6.523,4.669,4.669,0,0,0,3.238,3.92l12.957,4.07q.582,1.591,1.29,3.121l-6.28,12.032a4.674,4.674,0,0,0,.477,5.06,56.574,56.574,0,0,0,9.247,9.247,4.674,4.674,0,0,0,5.06.481l12.032-6.28q1.528.708,3.121,1.29Zm4.13-18.036a4.686,4.686,0,0,0-3.117-3.075,32.909,32.909,0,0,1-6.046-2.5,4.66,4.66,0,0,0-4.374-.028l-11.364,5.929a47.678,47.678,0,0,1-3.5-3.5l5.929-11.364a4.673,4.673,0,0,0-.028-4.374,32.909,32.909,0,0,1-2.5-6.046,4.686,4.686,0,0,0-3.075-3.117l-12.261-3.85a39.356,39.356,0,0,1,0-4.925l12.261-3.85a4.686,4.686,0,0,0,3.075-3.117,32.465,32.465,0,0,1,2.5-6.042,4.67,4.67,0,0,0,.028-4.378l-5.929-11.364a47.672,47.672,0,0,1,3.5-3.5l11.364,5.929a4.673,4.673,0,0,0,4.374-.028,32.911,32.911,0,0,1,6.046-2.5,4.686,4.686,0,0,0,3.117-3.075l3.85-12.261c.855-.056,1.673-.079,2.462-.079s1.607.023,2.462.079l3.85,12.261a4.686,4.686,0,0,0,3.117,3.075,32.469,32.469,0,0,1,6.042,2.5,4.67,4.67,0,0,0,4.378.028l11.364-5.929a47.678,47.678,0,0,1,3.5,3.5l-5.929,11.364a4.687,4.687,0,0,0,.028,4.374,32.91,32.91,0,0,1,2.5,6.046,4.686,4.686,0,0,0,3.075,3.117l12.261,3.85a39.344,39.344,0,0,1,0,4.925l-12.261,3.85a4.686,4.686,0,0,0-3.075,3.117,32.467,32.467,0,0,1-2.5,6.042,4.67,4.67,0,0,0-.028,4.378l5.929,11.364a47.684,47.684,0,0,1-3.5,3.5l-11.364-5.929a4.673,4.673,0,0,0-4.374.028,32.907,32.907,0,0,1-6.046,2.5,4.686,4.686,0,0,0-3.117,3.075l-3.85,12.261c-.855.056-1.673.079-2.462.079s-1.607-.023-2.462-.079Z" transform="translate(691.985 -274.185)" fill="#0d1030"/>
      <path id="Trazado_25068" data-name="Trazado 25068" d="M-605.67,593.377l2.85-8.027A37.85,37.85,0,0,0-599,583.775l7.686,3.649a4.652,4.652,0,0,0,4.878-.542,47.027,47.027,0,0,0,8.037-8.032,4.674,4.674,0,0,0,.542-4.883l-3.649-7.691a37.326,37.326,0,0,0,1.57-3.813l8.027-2.855a4.683,4.683,0,0,0,3.074-3.841,43.054,43.054,0,0,0,0-11.34,4.667,4.667,0,0,0-3.074-3.841l-8.027-2.85a37.877,37.877,0,0,0-1.575-3.817l3.649-7.686a4.676,4.676,0,0,0-.542-4.878,47.025,47.025,0,0,0-8.032-8.037,4.68,4.68,0,0,0-4.883-.542l-7.691,3.649a37.307,37.307,0,0,0-3.813-1.57l-2.855-8.027a4.683,4.683,0,0,0-3.841-3.075,45.773,45.773,0,0,0-5.663-.378,46.835,46.835,0,0,0-5.668.374,4.668,4.668,0,0,0-3.841,3.075l-2.85,8.027a37.854,37.854,0,0,0-3.817,1.575l-7.686-3.649a4.652,4.652,0,0,0-4.878.542,47.025,47.025,0,0,0-8.037,8.032,4.681,4.681,0,0,0-.542,4.883l3.649,7.691a37.315,37.315,0,0,0-1.57,3.813l-8.027,2.855a4.683,4.683,0,0,0-3.075,3.841,45.13,45.13,0,0,0-.383,5.668,46.835,46.835,0,0,0,.374,5.668,4.668,4.668,0,0,0,3.074,3.841l8.027,2.85a37.869,37.869,0,0,0,1.575,3.817l-3.649,7.686a4.642,4.642,0,0,0,.542,4.878,47.025,47.025,0,0,0,8.032,8.037,4.68,4.68,0,0,0,4.883.542l7.691-3.649a37.328,37.328,0,0,0,3.813,1.57l2.855,8.027a4.684,4.684,0,0,0,3.841,3.075,45.129,45.129,0,0,0,5.668.383,46.834,46.834,0,0,0,5.668-.374,4.674,4.674,0,0,0,3.846-3.075Zm-11.219-5.943-2.631-7.406a4.672,4.672,0,0,0-3.154-2.939,27.8,27.8,0,0,1-6.294-2.593,4.683,4.683,0,0,0-4.3-.154l-7.07,3.355q-1.276-1.163-2.434-2.434l3.355-7.07a4.685,4.685,0,0,0-.154-4.3,27.82,27.82,0,0,1-2.593-6.289,4.689,4.689,0,0,0-2.939-3.159l-7.406-2.631a31.985,31.985,0,0,1,0-3.411l7.406-2.631a4.673,4.673,0,0,0,2.939-3.154,27.807,27.807,0,0,1,2.593-6.294,4.711,4.711,0,0,0,.154-4.3l-3.355-7.07q1.163-1.276,2.434-2.434l7.07,3.355a4.67,4.67,0,0,0,4.3-.154,27.818,27.818,0,0,1,6.289-2.593,4.689,4.689,0,0,0,3.159-2.939l2.631-7.406c.565-.037,1.131-.056,1.706-.056s1.145.019,1.705.047l2.635,7.406a4.656,4.656,0,0,0,3.154,2.934,27.942,27.942,0,0,1,6.294,2.6,4.683,4.683,0,0,0,4.3.154l7.07-3.355q1.276,1.163,2.434,2.434l-3.355,7.07a4.656,4.656,0,0,0,.154,4.3A27.818,27.818,0,0,1-588.2,542.6a4.689,4.689,0,0,0,2.939,3.159l7.406,2.631a31.921,31.921,0,0,1,0,3.411l-7.406,2.631a4.673,4.673,0,0,0-2.939,3.154,27.8,27.8,0,0,1-2.593,6.294,4.657,4.657,0,0,0-.154,4.3l3.355,7.07q-1.163,1.276-2.434,2.434l-7.07-3.355a4.669,4.669,0,0,0-4.3.154,27.817,27.817,0,0,1-6.289,2.593,4.689,4.689,0,0,0-3.159,2.939l-2.631,7.406c-.57.037-1.135.056-1.71.056s-1.14-.019-1.706-.047Z" transform="translate(761.862 -310.787)" fill="#0d1030"/>
      <path id="Trazado_25069" data-name="Trazado 25069" d="M-709.909,306.773a51.459,51.459,0,0,0,51.4,51.4,51.458,51.458,0,0,0,51.4-51.4,51.458,51.458,0,0,0-51.4-51.4A51.458,51.458,0,0,0-709.909,306.773Zm93.451,0a42.1,42.1,0,0,1-42.053,42.053,42.1,42.1,0,0,1-42.053-42.053,42.1,42.1,0,0,1,42.053-42.053A42.1,42.1,0,0,1-616.458,306.773Z" transform="translate(781.827 -207.635)" fill="#0d1030"/>
      <path id="Trazado_25070" data-name="Trazado 25070" d="M-500.049,173.638l-5.462,7.583a111.911,111.911,0,0,1,46.373,83.094c.168,2.372.2,4.75.22,7.128l-6.15-5.334-6.122,7.058,14.975,12.99a4.668,4.668,0,0,0,6.59-.468l12.99-14.975-7.058-6.122-5.884,6.783c-.019-2.575-.057-5.153-.239-7.721a121.238,121.238,0,0,0-50.232-90.016Z" transform="translate(696.811 -173.638)" fill="#0d1030"/>
      <path id="Trazado_25071" data-name="Trazado 25071" d="M-391.184,494.738a23.389,23.389,0,0,0-23.363-23.363,23.389,23.389,0,0,0-23.363,23.363A23.389,23.389,0,0,0-414.546,518.1,23.389,23.389,0,0,0-391.184,494.738Zm-37.38,0a14.035,14.035,0,0,1,14.018-14.018,14.035,14.035,0,0,1,14.018,14.018,14.035,14.035,0,0,1-14.018,14.018A14.035,14.035,0,0,1-428.564,494.738Z" transform="translate(668.693 -297.477)" fill="#0d1030"/>
      <path id="Trazado_25072" data-name="Trazado 25072" d="M-576.529,570.065a18.709,18.709,0,0,0-18.69-18.69,18.709,18.709,0,0,0-18.69,18.69,18.709,18.709,0,0,0,18.69,18.69A18.709,18.709,0,0,0-576.529,570.065Zm-28.035,0a9.354,9.354,0,0,1,9.345-9.345,9.354,9.354,0,0,1,9.345,9.345,9.354,9.354,0,0,1-9.345,9.345A9.355,9.355,0,0,1-604.564,570.065Z" transform="translate(741.898 -330.752)" fill="#0d1030"/>
      <path id="Trazado_25073" data-name="Trazado 25073" d="M-785.1,499.143l19.914-13.08a4.661,4.661,0,0,0,1.343-6.47l-13.079-19.914-7.813,5.127,7.04,10.724a70.118,70.118,0,0,1-26.238-16.747A69.34,69.34,0,0,1-823.745,416.8l-9.3.961a79.658,79.658,0,0,0,22.461,47.584,79.534,79.534,0,0,0,30.552,19.291l-10.2,6.7Z" transform="translate(833.043 -274.778)" fill="#0d1030"/>
      <path id="Trazado_25074" data-name="Trazado 25074" d="M-402.765,647.6l-6.89-10.066a79.536,79.536,0,0,0,35.588-6.248,79.659,79.659,0,0,0,38.844-35.494l-8.237-4.418a69.337,69.337,0,0,1-34.271,31.316,70.1,70.1,0,0,1-30.631,5.532l10.584-7.248-5.281-7.709-19.661,13.458a4.662,4.662,0,0,0-1.214,6.5l13.457,19.661Z" transform="translate(663.223 -347.389)" fill="#0d1030"/>
    </g>
    <path id="Trazado_25075" data-name="Trazado 25075" d="M545.7,343.513H516.509l-9.629,9.354-9.639-9.354H394.7a4.254,4.254,0,0,1-4.255-4.254V303.9a4.254,4.254,0,0,1,4.255-4.254h151a4.254,4.254,0,0,1,4.254,4.254v35.361A4.254,4.254,0,0,1,545.7,343.513Z" transform="translate(9218.557 -4218.735)" fill="#f9a825" stroke="#f9a825" stroke-width="1"/>
    <path id="Trazado_25711" data-name="Trazado 25711" d="M11.5,17.167a6.574,6.574,0,0,1-2.435-.444,5.879,5.879,0,0,1-1.956-1.248,5.567,5.567,0,0,1-1.3-2.008,7.263,7.263,0,0,1-.47-2.663,7.144,7.144,0,0,1,.475-2.65A5.556,5.556,0,0,1,9.067,4.9,6.633,6.633,0,0,1,11.5,4.458a6.287,6.287,0,0,1,3.292.87,5.421,5.421,0,0,1,2.175,2.417l-1.45.6A4.075,4.075,0,0,0,13.9,6.581a4.654,4.654,0,0,0-2.4-.62,4.921,4.921,0,0,0-1.8.325,4.317,4.317,0,0,0-1.459.932,4.206,4.206,0,0,0-.98,1.529A5.674,5.674,0,0,0,6.905,10.8a5.71,5.71,0,0,0,.356,2.061,4.2,4.2,0,0,0,.98,1.534,4.374,4.374,0,0,0,1.459.936,4.863,4.863,0,0,0,1.8.33,4.654,4.654,0,0,0,2.4-.62,4.085,4.085,0,0,0,1.622-1.753l1.45.589A5.394,5.394,0,0,1,14.8,16.3,6.305,6.305,0,0,1,11.5,17.167Zm11.408,0a4.554,4.554,0,0,1-2.215-.536,3.9,3.9,0,0,1-1.56-1.569,4.819,4.819,0,0,1-.576-2.386,4.4,4.4,0,0,1,1.226-3.256A4.232,4.232,0,0,1,22.91,8.193a4.228,4.228,0,0,1,3.129,1.226,4.41,4.41,0,0,1,1.222,3.256,4.413,4.413,0,0,1-1.226,3.265A4.232,4.232,0,0,1,22.91,17.167ZM22.9,15.9a2.654,2.654,0,0,0,2.043-.888,3.326,3.326,0,0,0,.813-2.338,3.314,3.314,0,0,0-.813-2.329A2.654,2.654,0,0,0,22.9,9.459a2.617,2.617,0,0,0-2.026.888,3.336,3.336,0,0,0-.8,2.329,3.348,3.348,0,0,0,.8,2.338A2.617,2.617,0,0,0,22.9,15.9ZM33.721,8.193a3.005,3.005,0,0,1,2.175.782,2.918,2.918,0,0,1,.813,2.206V17H35.188V11.524a2.043,2.043,0,0,0-.527-1.547,1.885,1.885,0,0,0-1.354-.5,2.09,2.09,0,0,0-1.538.593,2.407,2.407,0,0,0-.606,1.762V17H29.643V8.36h1.521V9.468A2.885,2.885,0,0,1,33.721,8.193ZM46.025,3.5h1.521V17H46.078l-.035-1.679a3.179,3.179,0,0,1-1.23,1.362,3.429,3.429,0,0,1-1.828.5,3.926,3.926,0,0,1-2.852-1.217,4.16,4.16,0,0,1-.87-1.428,5.225,5.225,0,0,1-.321-1.854,4.543,4.543,0,0,1,1.173-3.243,3.788,3.788,0,0,1,2.87-1.248,3.443,3.443,0,0,1,1.806.488A3.2,3.2,0,0,1,46.025,10ZM43.3,15.866a2.587,2.587,0,0,0,2.008-.91,3.283,3.283,0,0,0,.813-2.272,3.277,3.277,0,0,0-.817-2.268,2.586,2.586,0,0,0-2-.914,2.644,2.644,0,0,0-2.021.883,3.25,3.25,0,0,0-.817,2.3,3.25,3.25,0,0,0,.817,2.3A2.644,2.644,0,0,0,43.3,15.866ZM51.413,6.33A1.035,1.035,0,0,1,50.385,5.3a.975.975,0,0,1,.3-.721,1,1,0,0,1,.725-.3.987.987,0,0,1,.716.3.975.975,0,0,1,.3.721.989.989,0,0,1-.3.725A.979.979,0,0,1,51.413,6.33ZM50.64,17V8.36h1.529V17Zm8.209.158a4.161,4.161,0,0,1-3.094-1.239,4.421,4.421,0,0,1-1.222-3.243A4.43,4.43,0,0,1,55.75,9.433a4.5,4.5,0,0,1,5.6-.483,3.815,3.815,0,0,1,1.455,2.1l-1.424.229A2.63,2.63,0,0,0,60.4,9.934a2.656,2.656,0,0,0-1.564-.475,2.554,2.554,0,0,0-2,.888,3.382,3.382,0,0,0-.787,2.329A3.365,3.365,0,0,0,56.84,15a2.56,2.56,0,0,0,2,.883,2.656,2.656,0,0,0,1.564-.475,2.63,2.63,0,0,0,.976-1.345L62.8,14.3a3.819,3.819,0,0,1-1.463,2.1A4.185,4.185,0,0,1,58.849,17.158ZM65.818,6.33A1.035,1.035,0,0,1,64.79,5.3a.975.975,0,0,1,.3-.721,1,1,0,0,1,.725-.3.987.987,0,0,1,.716.3.975.975,0,0,1,.3.721.989.989,0,0,1-.3.725A.979.979,0,0,1,65.818,6.33ZM65.045,17V8.36h1.529V17Zm8.262.167a4.554,4.554,0,0,1-2.215-.536,3.9,3.9,0,0,1-1.56-1.569,4.819,4.819,0,0,1-.576-2.386,4.4,4.4,0,0,1,1.226-3.256,4.6,4.6,0,0,1,6.253,0,4.41,4.41,0,0,1,1.222,3.256,4.413,4.413,0,0,1-1.226,3.265A4.232,4.232,0,0,1,73.307,17.167ZM73.3,15.9a2.654,2.654,0,0,0,2.043-.888,3.326,3.326,0,0,0,.813-2.338,3.314,3.314,0,0,0-.813-2.329A2.654,2.654,0,0,0,73.3,9.459a2.617,2.617,0,0,0-2.026.888,3.336,3.336,0,0,0-.8,2.329,3.348,3.348,0,0,0,.8,2.338A2.617,2.617,0,0,0,73.3,15.9ZM84.117,8.193a3.005,3.005,0,0,1,2.175.782,2.918,2.918,0,0,1,.813,2.206V17H85.585V11.524a2.043,2.043,0,0,0-.527-1.547,1.885,1.885,0,0,0-1.354-.5,2.09,2.09,0,0,0-1.538.593,2.407,2.407,0,0,0-.606,1.762V17H80.039V8.36H81.56V9.468A2.885,2.885,0,0,1,84.117,8.193ZM97.6,12.509l-.018.413h-6.75a3.053,3.053,0,0,0,.826,2.21,2.713,2.713,0,0,0,1.969.769,2.59,2.59,0,0,0,1.433-.413,2.68,2.68,0,0,0,.984-1.143l1.371.29a3.9,3.9,0,0,1-1.477,1.854,4.028,4.028,0,0,1-2.294.677,4.174,4.174,0,0,1-3.111-1.2,4.479,4.479,0,0,1-1.187-3.287A4.458,4.458,0,0,1,90.538,9.4a4.122,4.122,0,0,1,3.063-1.2,3.9,3.9,0,0,1,2.9,1.107A4.376,4.376,0,0,1,97.6,12.509Zm-4-3.146a2.694,2.694,0,0,0-1.8.611,2.8,2.8,0,0,0-.91,1.78H96.07a2.567,2.567,0,0,0-.756-1.78A2.441,2.441,0,0,0,93.6,9.362Zm9.114,7.8a4.1,4.1,0,0,1-2.329-.624,2.581,2.581,0,0,1-1.134-1.775l1.327-.378a1.851,1.851,0,0,0,.708,1.2,2.3,2.3,0,0,0,1.419.426,2.832,2.832,0,0,0,.831-.114,1.331,1.331,0,0,0,.637-.426,1.189,1.189,0,0,0,.185-1.143,1.526,1.526,0,0,0-.141-.286.87.87,0,0,0-.246-.237,3.245,3.245,0,0,0-.3-.185,3.067,3.067,0,0,0-.391-.163q-.259-.092-.417-.141t-.483-.141q-.325-.092-.5-.145a9.372,9.372,0,0,1-.9-.316,3.932,3.932,0,0,1-.729-.417,1.679,1.679,0,0,1-.567-.681,2.3,2.3,0,0,1-.189-.967,2.234,2.234,0,0,1,.422-1.38,2.374,2.374,0,0,1,1.094-.813,4.374,4.374,0,0,1,1.534-.25,3.754,3.754,0,0,1,2.1.563,2.4,2.4,0,0,1,1.05,1.688l-1.248.316a1.655,1.655,0,0,0-.659-1.094,2.1,2.1,0,0,0-1.239-.365,2.139,2.139,0,0,0-1.16.3,1.019,1.019,0,0,0-.483.927.923.923,0,0,0,.127.479,1.521,1.521,0,0,0,.259.338,1.594,1.594,0,0,0,.475.259q.343.136.51.185t.633.163q.088.026.132.035.51.132.831.233a5.105,5.105,0,0,1,.747.316,2.484,2.484,0,0,1,.672.47,2.178,2.178,0,0,1,.422.668,2.358,2.358,0,0,1,.176.932,2.516,2.516,0,0,1-.259,1.165,2.028,2.028,0,0,1-.708.8,3.422,3.422,0,0,1-1.006.435A4.8,4.8,0,0,1,102.715,17.167Z" transform="translate(9633.255 -3908.48)" fill="#fff"/>
    <path id="Trazado_25076" data-name="Trazado 25076" d="M394.7,343.513h29.189l9.629,9.354,9.639-9.354H545.7a4.254,4.254,0,0,0,4.255-4.254V303.9a4.254,4.254,0,0,0-4.255-4.254h-151a4.254,4.254,0,0,0-4.254,4.254v35.361A4.254,4.254,0,0,0,394.7,343.513Z" transform="translate(9577.057 -4070.669)" fill="#008cb4"/>
    <path id="Trazado_25712" data-name="Trazado 25712" d="M7.242,17.167a6.574,6.574,0,0,1-2.435-.444,5.879,5.879,0,0,1-1.956-1.248,5.567,5.567,0,0,1-1.3-2.008,7.263,7.263,0,0,1-.47-2.663,7.144,7.144,0,0,1,.475-2.65A5.556,5.556,0,0,1,4.808,4.9a6.633,6.633,0,0,1,2.435-.439,6.287,6.287,0,0,1,3.292.87,5.421,5.421,0,0,1,2.175,2.417l-1.45.6A4.075,4.075,0,0,0,9.637,6.581a4.654,4.654,0,0,0-2.4-.62,4.921,4.921,0,0,0-1.8.325,4.317,4.317,0,0,0-1.459.932A4.206,4.206,0,0,0,3,8.747,5.674,5.674,0,0,0,2.646,10.8,5.71,5.71,0,0,0,3,12.865a4.2,4.2,0,0,0,.98,1.534,4.374,4.374,0,0,0,1.459.936,4.863,4.863,0,0,0,1.8.33,4.654,4.654,0,0,0,2.4-.62,4.085,4.085,0,0,0,1.622-1.753l1.45.589A5.394,5.394,0,0,1,10.538,16.3,6.305,6.305,0,0,1,7.242,17.167Zm9.765,0a2.94,2.94,0,0,1-1.894-.593A2.13,2.13,0,0,1,14.37,14.8a2.517,2.517,0,0,1,.237-1.129,1.991,1.991,0,0,1,.7-.787,4.218,4.218,0,0,1,1.015-.488,9.384,9.384,0,0,1,1.314-.312l1.4-.229q.765-.141.765-.8a1.51,1.51,0,0,0-.541-1.288,2.2,2.2,0,0,0-1.367-.409,2.243,2.243,0,0,0-1.354.4,1.655,1.655,0,0,0-.642,1.213l-1.371-.29a2.639,2.639,0,0,1,1.081-1.85,4.039,4.039,0,0,1,2.355-.62,4.777,4.777,0,0,1,1.252.154,3.4,3.4,0,0,1,1.046.483,2.168,2.168,0,0,1,.747.932,3.466,3.466,0,0,1,.268,1.419v3.568a1.46,1.46,0,0,0,.2.9.854.854,0,0,0,.681.233H22.3V17h-.756a1.442,1.442,0,0,1-1.635-1.169h-.07A3.3,3.3,0,0,1,17.007,17.167Zm.352-1.23a2.305,2.305,0,0,0,1.854-.835,3.438,3.438,0,0,0,.7-2.285l-2.285.439a3.076,3.076,0,0,0-1.34.479,1.114,1.114,0,0,0-.435.945,1.1,1.1,0,0,0,.417.949A1.785,1.785,0,0,0,17.358,15.937ZM29,8.193a3.93,3.93,0,0,1,1.564.316,3.849,3.849,0,0,1,1.283.888,4.149,4.149,0,0,1,.866,1.424,5.25,5.25,0,0,1,.321,1.863,4.568,4.568,0,0,1-1.165,3.261A3.782,3.782,0,0,1,29,17.185a3.42,3.42,0,0,1-1.806-.492,3.226,3.226,0,0,1-1.235-1.327v5.985H24.442V8.36H25.91l.035,1.679a3.163,3.163,0,0,1,1.23-1.349A3.452,3.452,0,0,1,29,8.193Zm-.3,7.673a2.623,2.623,0,0,0,2-.875,3.253,3.253,0,0,0,.813-2.307,3.237,3.237,0,0,0-.813-2.3,2.726,2.726,0,0,0-4.03.04,3.24,3.24,0,0,0-.826,2.263,3.252,3.252,0,0,0,.826,2.272A2.636,2.636,0,0,0,28.705,15.866Zm8.728,1.3a2.94,2.94,0,0,1-1.894-.593A2.13,2.13,0,0,1,34.8,14.8a2.517,2.517,0,0,1,.237-1.129,1.991,1.991,0,0,1,.7-.787,4.218,4.218,0,0,1,1.015-.488,9.384,9.384,0,0,1,1.314-.312l1.4-.229q.765-.141.765-.8a1.51,1.51,0,0,0-.541-1.288,2.2,2.2,0,0,0-1.367-.409,2.243,2.243,0,0,0-1.354.4,1.655,1.655,0,0,0-.642,1.213l-1.371-.29a2.639,2.639,0,0,1,1.081-1.85,4.039,4.039,0,0,1,2.355-.62,4.777,4.777,0,0,1,1.252.154,3.4,3.4,0,0,1,1.046.483,2.168,2.168,0,0,1,.747.932A3.466,3.466,0,0,1,41.7,11.2v3.568a1.46,1.46,0,0,0,.2.9.854.854,0,0,0,.681.233h.141V17h-.756a1.442,1.442,0,0,1-1.635-1.169h-.07A3.3,3.3,0,0,1,37.433,17.167Zm.352-1.23a2.305,2.305,0,0,0,1.854-.835,3.438,3.438,0,0,0,.7-2.285l-2.285.439a3.076,3.076,0,0,0-1.34.479,1.114,1.114,0,0,0-.435.945,1.1,1.1,0,0,0,.417.949A1.785,1.785,0,0,0,37.784,15.937Zm10.494,1.222a4.161,4.161,0,0,1-3.094-1.239,4.421,4.421,0,0,1-1.222-3.243A4.43,4.43,0,0,1,45.18,9.433a4.5,4.5,0,0,1,5.6-.483,3.815,3.815,0,0,1,1.455,2.1l-1.424.229a2.63,2.63,0,0,0-.976-1.345,2.656,2.656,0,0,0-1.564-.475,2.554,2.554,0,0,0-2,.888,3.382,3.382,0,0,0-.787,2.329A3.365,3.365,0,0,0,46.27,15a2.56,2.56,0,0,0,2,.883,2.656,2.656,0,0,0,1.564-.475,2.63,2.63,0,0,0,.976-1.345l1.424.237a3.819,3.819,0,0,1-1.463,2.1A4.185,4.185,0,0,1,48.278,17.158ZM55.248,6.33A1.035,1.035,0,0,1,54.22,5.3a.975.975,0,0,1,.3-.721,1,1,0,0,1,.725-.3.987.987,0,0,1,.716.3.975.975,0,0,1,.3.721.989.989,0,0,1-.3.725A.979.979,0,0,1,55.248,6.33ZM54.475,17V8.36H56V17Zm11-13.5H67V17H65.531L65.5,15.321a3.179,3.179,0,0,1-1.23,1.362,3.429,3.429,0,0,1-1.828.5,3.926,3.926,0,0,1-2.852-1.217,4.16,4.16,0,0,1-.87-1.428,5.225,5.225,0,0,1-.321-1.854,4.543,4.543,0,0,1,1.173-3.243,3.788,3.788,0,0,1,2.87-1.248,3.443,3.443,0,0,1,1.806.488A3.2,3.2,0,0,1,65.479,10ZM62.754,15.866a2.587,2.587,0,0,0,2.008-.91,3.283,3.283,0,0,0,.813-2.272,3.277,3.277,0,0,0-.817-2.268,2.586,2.586,0,0,0-2-.914,2.644,2.644,0,0,0-2.021.883,3.25,3.25,0,0,0-.817,2.3,3.25,3.25,0,0,0,.817,2.3A2.644,2.644,0,0,0,62.754,15.866Zm9.334,1.3a2.94,2.94,0,0,1-1.894-.593,2.13,2.13,0,0,1-.743-1.771,2.517,2.517,0,0,1,.237-1.129,1.991,1.991,0,0,1,.7-.787,4.218,4.218,0,0,1,1.015-.488,9.384,9.384,0,0,1,1.314-.312l1.4-.229q.765-.141.765-.8a1.51,1.51,0,0,0-.541-1.288,2.2,2.2,0,0,0-1.367-.409,2.243,2.243,0,0,0-1.354.4,1.655,1.655,0,0,0-.642,1.213l-1.371-.29a2.639,2.639,0,0,1,1.081-1.85,4.039,4.039,0,0,1,2.355-.62,4.777,4.777,0,0,1,1.252.154,3.4,3.4,0,0,1,1.046.483,2.168,2.168,0,0,1,.747.932,3.466,3.466,0,0,1,.268,1.419v3.568a1.46,1.46,0,0,0,.2.9.854.854,0,0,0,.681.233h.141V17h-.756a1.442,1.442,0,0,1-1.635-1.169h-.07A3.3,3.3,0,0,1,72.088,17.167Zm.352-1.23a2.305,2.305,0,0,0,1.854-.835,3.438,3.438,0,0,0,.7-2.285l-2.285.439a3.076,3.076,0,0,0-1.34.479,1.114,1.114,0,0,0-.435.945,1.1,1.1,0,0,0,.417.949A1.785,1.785,0,0,0,72.439,15.937ZM85.729,3.5h1.521V17H85.781l-.035-1.679a3.179,3.179,0,0,1-1.23,1.362,3.429,3.429,0,0,1-1.828.5,3.926,3.926,0,0,1-2.852-1.217,4.16,4.16,0,0,1-.87-1.428,5.225,5.225,0,0,1-.321-1.854,4.543,4.543,0,0,1,1.173-3.243,3.788,3.788,0,0,1,2.87-1.248,3.443,3.443,0,0,1,1.806.488A3.2,3.2,0,0,1,85.729,10ZM83,15.866a2.587,2.587,0,0,0,2.008-.91,3.283,3.283,0,0,0,.813-2.272,3.277,3.277,0,0,0-.817-2.268A2.586,2.586,0,0,0,83,9.5a2.644,2.644,0,0,0-2.021.883,3.25,3.25,0,0,0-.817,2.3,3.25,3.25,0,0,0,.817,2.3A2.644,2.644,0,0,0,83,15.866Zm14.9-3.357-.018.413h-6.75a3.053,3.053,0,0,0,.826,2.21,2.713,2.713,0,0,0,1.969.769,2.59,2.59,0,0,0,1.433-.413,2.68,2.68,0,0,0,.984-1.143l1.371.29A3.9,3.9,0,0,1,96.24,16.49a4.028,4.028,0,0,1-2.294.677,4.174,4.174,0,0,1-3.111-1.2,4.479,4.479,0,0,1-1.187-3.287A4.458,4.458,0,0,1,90.839,9.4a4.122,4.122,0,0,1,3.063-1.2,3.9,3.9,0,0,1,2.9,1.107A4.376,4.376,0,0,1,97.9,12.509Zm-4-3.146a2.694,2.694,0,0,0-1.8.611,2.8,2.8,0,0,0-.91,1.78h5.177a2.567,2.567,0,0,0-.756-1.78A2.441,2.441,0,0,0,93.9,9.362Zm9.114,7.8a4.1,4.1,0,0,1-2.329-.624,2.581,2.581,0,0,1-1.134-1.775l1.327-.378a1.851,1.851,0,0,0,.708,1.2,2.3,2.3,0,0,0,1.419.426,2.832,2.832,0,0,0,.831-.114,1.331,1.331,0,0,0,.637-.426,1.189,1.189,0,0,0,.185-1.143,1.526,1.526,0,0,0-.141-.286.87.87,0,0,0-.246-.237,3.245,3.245,0,0,0-.3-.185,3.067,3.067,0,0,0-.391-.163q-.259-.092-.417-.141t-.483-.141q-.325-.092-.5-.145a9.372,9.372,0,0,1-.9-.316,3.932,3.932,0,0,1-.729-.417,1.679,1.679,0,0,1-.567-.681,2.3,2.3,0,0,1-.189-.967,2.234,2.234,0,0,1,.422-1.38,2.374,2.374,0,0,1,1.094-.813,4.374,4.374,0,0,1,1.534-.25,3.754,3.754,0,0,1,2.1.563A2.4,2.4,0,0,1,106,10.461l-1.248.316a1.655,1.655,0,0,0-.659-1.094,2.1,2.1,0,0,0-1.239-.365,2.139,2.139,0,0,0-1.16.3,1.019,1.019,0,0,0-.483.927.923.923,0,0,0,.127.479,1.521,1.521,0,0,0,.259.338,1.594,1.594,0,0,0,.475.259q.343.136.51.185t.633.163q.088.026.132.035.51.132.831.233a5.105,5.105,0,0,1,.747.316,2.484,2.484,0,0,1,.672.47,2.178,2.178,0,0,1,.422.668,2.358,2.358,0,0,1,.176.932,2.516,2.516,0,0,1-.259,1.165,2.028,2.028,0,0,1-.708.8,3.422,3.422,0,0,1-1.006.435A4.8,4.8,0,0,1,103.017,17.167Z" transform="translate(9991.5 -3762.525)" fill="#fff"/>
    <path id="Trazado_25077" data-name="Trazado 25077" d="M394.7,343.513h29.189l9.629,9.354,9.639-9.354H565.276a4.254,4.254,0,0,0,4.255-4.254V303.9a4.254,4.254,0,0,0-4.255-4.254H394.7a4.254,4.254,0,0,0-4.254,4.254v35.361A4.254,4.254,0,0,0,394.7,343.513Z" transform="translate(10227.697 -3223.356) rotate(180)" fill="#4ac3ed"/>
    <path id="Trazado_25713" data-name="Trazado 25713" d="M10.458,15.567h4.3V17H8.885V4.625h1.573Zm9.984,1.6a4.554,4.554,0,0,1-2.215-.536,3.9,3.9,0,0,1-1.56-1.569,4.819,4.819,0,0,1-.576-2.386,4.4,4.4,0,0,1,1.226-3.256,4.232,4.232,0,0,1,3.125-1.226,4.228,4.228,0,0,1,3.129,1.226,4.41,4.41,0,0,1,1.222,3.256,4.413,4.413,0,0,1-1.226,3.265A4.232,4.232,0,0,1,20.443,17.167ZM20.434,15.9a2.654,2.654,0,0,0,2.043-.888,3.326,3.326,0,0,0,.813-2.338,3.314,3.314,0,0,0-.813-2.329,2.654,2.654,0,0,0-2.043-.888,2.617,2.617,0,0,0-2.026.888,3.336,3.336,0,0,0-.8,2.329,3.348,3.348,0,0,0,.8,2.338A2.617,2.617,0,0,0,20.434,15.9Zm13-7.541H34.91v8.2a4.706,4.706,0,0,1-1.116,3.366A4.058,4.058,0,0,1,30.7,21.1a4.084,4.084,0,0,1-4.192-2.646l1.257-.615a2.856,2.856,0,0,0,2.892,2A2.48,2.48,0,0,0,32.682,19a3.591,3.591,0,0,0,.7-2.355v-1.6a3.045,3.045,0,0,1-1.23,1.244,3.58,3.58,0,0,1-1.8.47,3.7,3.7,0,0,1-2.795-1.217A4.293,4.293,0,0,1,26.4,12.465,4.253,4.253,0,0,1,27.558,9.4a3.74,3.74,0,0,1,2.808-1.208,3.49,3.49,0,0,1,1.811.483A3.112,3.112,0,0,1,33.4,9.951Zm-2.742,7.1a2.614,2.614,0,0,0,1.991-.888,3.136,3.136,0,0,0,0-4.228A2.708,2.708,0,0,0,28.7,10.32a3,3,0,0,0-.813,2.145,2.978,2.978,0,0,0,.822,2.131A2.634,2.634,0,0,0,30.691,15.462Zm8.8-5.581a2.612,2.612,0,0,1,1.072-1.16,3.229,3.229,0,0,1,1.661-.457V9.7a2.846,2.846,0,0,0-2.008.642,2.68,2.68,0,0,0-.69,2.048V17H38V8.36h1.485Zm8.051,7.286a4.554,4.554,0,0,1-2.215-.536,3.9,3.9,0,0,1-1.56-1.569,4.819,4.819,0,0,1-.576-2.386,4.4,4.4,0,0,1,1.226-3.256,4.6,4.6,0,0,1,6.253,0,4.41,4.41,0,0,1,1.222,3.256,4.413,4.413,0,0,1-1.226,3.265A4.232,4.232,0,0,1,47.54,17.167ZM47.531,15.9a2.654,2.654,0,0,0,2.043-.888,3.326,3.326,0,0,0,.813-2.338,3.314,3.314,0,0,0-.813-2.329,2.654,2.654,0,0,0-2.043-.888,2.617,2.617,0,0,0-2.026.888,3.336,3.336,0,0,0-.8,2.329,3.348,3.348,0,0,0,.8,2.338A2.617,2.617,0,0,0,47.531,15.9Zm9.475,1.266a4.1,4.1,0,0,1-2.329-.624,2.581,2.581,0,0,1-1.134-1.775l1.327-.378a1.851,1.851,0,0,0,.708,1.2A2.3,2.3,0,0,0,57,16.016a2.832,2.832,0,0,0,.831-.114,1.331,1.331,0,0,0,.637-.426,1.189,1.189,0,0,0,.185-1.143,1.526,1.526,0,0,0-.141-.286.87.87,0,0,0-.246-.237,3.245,3.245,0,0,0-.3-.185,3.067,3.067,0,0,0-.391-.163q-.259-.092-.417-.141t-.483-.141q-.325-.092-.5-.145a9.372,9.372,0,0,1-.9-.316,3.932,3.932,0,0,1-.729-.417,1.679,1.679,0,0,1-.567-.681,2.3,2.3,0,0,1-.189-.967,2.234,2.234,0,0,1,.422-1.38A2.374,2.374,0,0,1,55.3,8.461a4.374,4.374,0,0,1,1.534-.25,3.754,3.754,0,0,1,2.1.563,2.4,2.4,0,0,1,1.05,1.688l-1.248.316a1.655,1.655,0,0,0-.659-1.094,2.1,2.1,0,0,0-1.239-.365,2.139,2.139,0,0,0-1.16.3,1.019,1.019,0,0,0-.483.927.923.923,0,0,0,.127.479,1.521,1.521,0,0,0,.259.338,1.594,1.594,0,0,0,.475.259q.343.136.51.185t.633.163q.088.026.132.035.51.132.831.233a5.105,5.105,0,0,1,.747.316,2.484,2.484,0,0,1,.672.47,2.178,2.178,0,0,1,.422.668,2.358,2.358,0,0,1,.176.932,2.516,2.516,0,0,1-.259,1.165,2.028,2.028,0,0,1-.708.8,3.422,3.422,0,0,1-1.006.435A4.8,4.8,0,0,1,57.005,17.167ZM72.58,8.36h1.608l-5,12.709H67.614l1.731-4.28L65.988,8.36h1.688l2.435,6.724Zm12.674-.167a3.93,3.93,0,0,1,1.564.316A3.849,3.849,0,0,1,88.1,9.4a4.149,4.149,0,0,1,.866,1.424,5.25,5.25,0,0,1,.321,1.863,4.568,4.568,0,0,1-1.165,3.261,3.782,3.782,0,0,1-2.87,1.239,3.42,3.42,0,0,1-1.806-.492,3.226,3.226,0,0,1-1.235-1.327v5.985H80.692V8.36H82.16l.035,1.679a3.163,3.163,0,0,1,1.23-1.349A3.452,3.452,0,0,1,85.253,8.193Zm-.3,7.673a2.623,2.623,0,0,0,2-.875,3.253,3.253,0,0,0,.813-2.307,3.237,3.237,0,0,0-.813-2.3,2.726,2.726,0,0,0-4.03.04,3.24,3.24,0,0,0-.826,2.263,3.252,3.252,0,0,0,.826,2.272A2.636,2.636,0,0,0,84.955,15.866Zm8.218-5.985a2.612,2.612,0,0,1,1.072-1.16,3.229,3.229,0,0,1,1.661-.457V9.7a2.846,2.846,0,0,0-2.008.642,2.68,2.68,0,0,0-.69,2.048V17H91.687V8.36h1.485Zm8.051,7.286a4.554,4.554,0,0,1-2.215-.536,3.9,3.9,0,0,1-1.56-1.569,4.819,4.819,0,0,1-.576-2.386A4.4,4.4,0,0,1,98.1,9.419a4.6,4.6,0,0,1,6.253,0,4.41,4.41,0,0,1,1.222,3.256,4.413,4.413,0,0,1-1.226,3.265A4.232,4.232,0,0,1,101.223,17.167Zm-.009-1.266a2.654,2.654,0,0,0,2.043-.888,3.326,3.326,0,0,0,.813-2.338,3.314,3.314,0,0,0-.813-2.329,2.654,2.654,0,0,0-2.043-.888,2.617,2.617,0,0,0-2.026.888,3.336,3.336,0,0,0-.8,2.329,3.348,3.348,0,0,0,.8,2.338A2.617,2.617,0,0,0,101.214,15.9Zm13-7.541h1.477v8.2a4.706,4.706,0,0,1-1.116,3.366,4.648,4.648,0,0,1-7.286-1.468l1.257-.615a2.856,2.856,0,0,0,2.892,2A2.48,2.48,0,0,0,113.462,19a3.591,3.591,0,0,0,.7-2.355v-1.6a3.045,3.045,0,0,1-1.23,1.244,3.58,3.58,0,0,1-1.8.47,3.7,3.7,0,0,1-2.795-1.217,4.293,4.293,0,0,1-1.151-3.072A4.253,4.253,0,0,1,108.338,9.4a3.74,3.74,0,0,1,2.808-1.208,3.49,3.49,0,0,1,1.811.483,3.112,3.112,0,0,1,1.222,1.274Zm-2.742,7.1a2.614,2.614,0,0,0,1.991-.888,3.136,3.136,0,0,0,0-4.228,2.708,2.708,0,0,0-3.986-.026,3,3,0,0,0-.813,2.145,2.978,2.978,0,0,0,.822,2.131A2.634,2.634,0,0,0,111.471,15.462Zm8.8-5.581a2.612,2.612,0,0,1,1.072-1.16A3.229,3.229,0,0,1,123,8.264V9.7a2.846,2.846,0,0,0-2.008.642,2.68,2.68,0,0,0-.69,2.048V17h-1.521V8.36h1.485Zm11.971,2.628-.018.413h-6.75a3.053,3.053,0,0,0,.826,2.21,2.713,2.713,0,0,0,1.969.769,2.59,2.59,0,0,0,1.433-.413,2.68,2.68,0,0,0,.984-1.143l1.371.29a3.9,3.9,0,0,1-1.477,1.854,4.028,4.028,0,0,1-2.294.677,4.174,4.174,0,0,1-3.111-1.2,4.479,4.479,0,0,1-1.187-3.287A4.458,4.458,0,0,1,125.178,9.4a4.122,4.122,0,0,1,3.063-1.2,3.9,3.9,0,0,1,2.9,1.107A4.376,4.376,0,0,1,132.24,12.509Zm-4-3.146a2.694,2.694,0,0,0-1.8.611,2.8,2.8,0,0,0-.91,1.78h5.177a2.567,2.567,0,0,0-.756-1.78A2.441,2.441,0,0,0,128.241,9.362Zm9.114,7.8a4.1,4.1,0,0,1-2.329-.624,2.581,2.581,0,0,1-1.134-1.775l1.327-.378a1.851,1.851,0,0,0,.708,1.2,2.3,2.3,0,0,0,1.419.426,2.832,2.832,0,0,0,.831-.114,1.331,1.331,0,0,0,.637-.426A1.189,1.189,0,0,0,139,14.333a1.526,1.526,0,0,0-.141-.286.87.87,0,0,0-.246-.237,3.245,3.245,0,0,0-.3-.185,3.067,3.067,0,0,0-.391-.163q-.259-.092-.417-.141t-.483-.141q-.325-.092-.5-.145a9.372,9.372,0,0,1-.9-.316,3.932,3.932,0,0,1-.729-.417,1.679,1.679,0,0,1-.567-.681,2.3,2.3,0,0,1-.189-.967,2.234,2.234,0,0,1,.422-1.38,2.374,2.374,0,0,1,1.094-.813,4.374,4.374,0,0,1,1.534-.25,3.754,3.754,0,0,1,2.1.563,2.4,2.4,0,0,1,1.05,1.688l-1.248.316a1.655,1.655,0,0,0-.659-1.094,2.1,2.1,0,0,0-1.239-.365,2.139,2.139,0,0,0-1.16.3,1.019,1.019,0,0,0-.483.927.923.923,0,0,0,.127.479,1.521,1.521,0,0,0,.259.338,1.594,1.594,0,0,0,.475.259q.343.136.51.185t.633.163q.088.026.132.035.51.132.831.233a5.105,5.105,0,0,1,.747.316,2.484,2.484,0,0,1,.672.47,2.178,2.178,0,0,1,.422.668,2.358,2.358,0,0,1,.176.932,2.516,2.516,0,0,1-.259,1.165,2.028,2.028,0,0,1-.708.8,3.422,3.422,0,0,1-1.006.435A4.8,4.8,0,0,1,137.355,17.167Zm9.211,0a4.554,4.554,0,0,1-2.215-.536,3.9,3.9,0,0,1-1.56-1.569,4.819,4.819,0,0,1-.576-2.386,4.4,4.4,0,0,1,1.226-3.256,4.6,4.6,0,0,1,6.253,0,4.41,4.41,0,0,1,1.222,3.256,4.413,4.413,0,0,1-1.226,3.265A4.232,4.232,0,0,1,146.566,17.167Zm-.009-1.266a2.654,2.654,0,0,0,2.043-.888,3.326,3.326,0,0,0,.813-2.338,3.314,3.314,0,0,0-.813-2.329,2.654,2.654,0,0,0-2.043-.888,2.617,2.617,0,0,0-2.026.888,3.336,3.336,0,0,0-.8,2.329,3.348,3.348,0,0,0,.8,2.338A2.617,2.617,0,0,0,146.557,15.9Zm9.475,1.266a4.1,4.1,0,0,1-2.329-.624,2.581,2.581,0,0,1-1.134-1.775l1.327-.378a1.851,1.851,0,0,0,.708,1.2,2.3,2.3,0,0,0,1.419.426,2.832,2.832,0,0,0,.831-.114,1.331,1.331,0,0,0,.637-.426,1.189,1.189,0,0,0,.185-1.143,1.526,1.526,0,0,0-.141-.286.87.87,0,0,0-.246-.237,3.245,3.245,0,0,0-.3-.185,3.067,3.067,0,0,0-.391-.163q-.259-.092-.417-.141t-.483-.141q-.325-.092-.5-.145a9.372,9.372,0,0,1-.9-.316,3.932,3.932,0,0,1-.729-.417,1.679,1.679,0,0,1-.567-.681,2.3,2.3,0,0,1-.189-.967,2.234,2.234,0,0,1,.422-1.38,2.374,2.374,0,0,1,1.094-.813,4.374,4.374,0,0,1,1.534-.25,3.754,3.754,0,0,1,2.1.563,2.4,2.4,0,0,1,1.05,1.688l-1.248.316a1.655,1.655,0,0,0-.659-1.094,2.1,2.1,0,0,0-1.239-.365,2.139,2.139,0,0,0-1.16.3,1.019,1.019,0,0,0-.483.927.923.923,0,0,0,.127.479,1.521,1.521,0,0,0,.259.338,1.594,1.594,0,0,0,.475.259q.343.136.51.185t.633.163q.088.026.132.035.51.132.831.233a5.105,5.105,0,0,1,.747.316,2.484,2.484,0,0,1,.672.47,2.178,2.178,0,0,1,.422.668,2.358,2.358,0,0,1,.176.932,2.516,2.516,0,0,1-.259,1.165,2.028,2.028,0,0,1-.708.8,3.422,3.422,0,0,1-1.006.435A4.8,4.8,0,0,1,156.032,17.167Z" transform="translate(9662.5 -3556.223)" fill="#fff"/>
  </g>
</svg>
