<svg xmlns="http://www.w3.org/2000/svg" width="434" height="200.18" viewBox="0 0 434 200.18">
  <g id="Grupo_16578" data-name="Grupo 16578" transform="translate(-9576 3397)">
    <g id="Grupo_16577" data-name="Grupo 16577" transform="translate(10449.427 -3578.763)">
      <rect id="Rectángulo_3930" data-name="Rectángulo 3930" width="345" height="42.217" transform="translate(-873.427 339.726)" fill="#008cb4"/>
      <path id="Trazado_24870" data-name="Trazado 24870" d="M-567.047,464.492h-267.76l-38.62,10.284h345Z" transform="translate(0 -135.05)" fill="#00aae1"/>
      <rect id="Rectángulo_3931" data-name="Rectángulo 3931" width="267.76" height="42.218" transform="translate(-834.807 287.766)" fill="#00aab4"/>
      <path id="Trazado_24871" data-name="Trazado 24871" d="M-570.108,364.692H-760.63l-38.619,10.284h267.76Z" transform="translate(-35.558 -87.21)" fill="#00d7e1"/>
      <rect id="Rectángulo_3932" data-name="Rectángulo 3932" width="190.522" height="42.218" transform="translate(-796.188 235.265)" fill="#00aa87"/>
      <path id="Trazado_24872" data-name="Trazado 24872" d="M-573.171,263.851H-686.454l-38.62,10.284h190.522Z" transform="translate(-71.115 -38.87)" fill="#00d2aa"/>
      <rect id="Rectángulo_3933" data-name="Rectángulo 3933" width="112.639" height="42.218" transform="translate(-757.247 182.763)" fill="#cddc39"/>
    </g>
    <path id="Trazado_25714" data-name="Trazado 25714" d="M10.318,4.3h2.628V17H9.9L4.271,7.921V17H1.644V4.3H4.658l5.66,9.026Zm6.873,2.312a1.421,1.421,0,0,1-1.037-.426,1.4,1.4,0,0,1-.431-1.033,1.382,1.382,0,0,1,.435-1.024A1.425,1.425,0,0,1,17.191,3.7a1.463,1.463,0,0,1,1.45,1.45,1.463,1.463,0,0,1-1.45,1.459ZM15.9,17V7.965h2.549V17ZM26.947,7.965h2.681L25.778,17h-2.2L19.775,7.965h2.663l2.25,6.179Zm12.146,4.386-.026.606h-6.7a2.339,2.339,0,0,0,.721,1.652,2.3,2.3,0,0,0,1.591.571,2.221,2.221,0,0,0,1.191-.312,1.918,1.918,0,0,0,.76-.91l2.32.343a3.945,3.945,0,0,1-1.582,2.118,4.7,4.7,0,0,1-2.672.756,4.891,4.891,0,0,1-3.52-1.244,4.538,4.538,0,0,1-1.305-3.45,4.565,4.565,0,0,1,1.31-3.45A4.746,4.746,0,0,1,34.62,7.771a4.536,4.536,0,0,1,3.243,1.151A4.517,4.517,0,0,1,39.094,12.351ZM34.638,9.564a2,2,0,0,0-2.2,1.74h4.148a1.9,1.9,0,0,0-.624-1.292A1.978,1.978,0,0,0,34.638,9.564ZM41.019,17V3.5h2.558V17Zm18.835-4.667v2.259H58.324V17H55.793V14.592H49.948V12.324l4.5-8.024h3.876v8.033Zm-7.559,0h3.5V5.82Z" transform="translate(9716 -3383)" fill="#fff"/>
    <path id="Trazado_25715" data-name="Trazado 25715" d="M10.318,4.3h2.628V17H9.9L4.271,7.921V17H1.644V4.3H4.658l5.66,9.026Zm6.873,2.312a1.421,1.421,0,0,1-1.037-.426,1.4,1.4,0,0,1-.431-1.033,1.382,1.382,0,0,1,.435-1.024A1.425,1.425,0,0,1,17.191,3.7a1.463,1.463,0,0,1,1.45,1.45,1.463,1.463,0,0,1-1.45,1.459ZM15.9,17V7.965h2.549V17ZM26.947,7.965h2.681L25.778,17h-2.2L19.775,7.965h2.663l2.25,6.179Zm12.146,4.386-.026.606h-6.7a2.339,2.339,0,0,0,.721,1.652,2.3,2.3,0,0,0,1.591.571,2.221,2.221,0,0,0,1.191-.312,1.918,1.918,0,0,0,.76-.91l2.32.343a3.945,3.945,0,0,1-1.582,2.118,4.7,4.7,0,0,1-2.672.756,4.891,4.891,0,0,1-3.52-1.244,4.538,4.538,0,0,1-1.305-3.45,4.565,4.565,0,0,1,1.31-3.45A4.746,4.746,0,0,1,34.62,7.771a4.536,4.536,0,0,1,3.243,1.151A4.517,4.517,0,0,1,39.094,12.351ZM34.638,9.564a2,2,0,0,0-2.2,1.74h4.148a1.9,1.9,0,0,0-.624-1.292A1.978,1.978,0,0,0,34.638,9.564ZM41.019,17V3.5h2.558V17Zm13.9.176a4.557,4.557,0,0,1-3.463-1.16,5.031,5.031,0,0,1-1.09-3.551l2.593-.114a9.181,9.181,0,0,0,.04.932,3.22,3.22,0,0,0,.158.721,1.29,1.29,0,0,0,.334.541,1.517,1.517,0,0,0,.571.312,2.823,2.823,0,0,0,.857.114,2.059,2.059,0,0,0,1.5-.51,1.782,1.782,0,0,0,.523-1.336,1.8,1.8,0,0,0-.5-1.375,1.885,1.885,0,0,0-1.345-.47H54.6V9.31h.457a1.374,1.374,0,0,0,1.05-.448,1.6,1.6,0,0,0,.417-1.134,1.278,1.278,0,0,0-.457-1.055,1.858,1.858,0,0,0-1.2-.369,1.8,1.8,0,0,0-.686.119,1.279,1.279,0,0,0-.461.3,1.341,1.341,0,0,0-.272.466,2.448,2.448,0,0,0-.132.554,5.529,5.529,0,0,0-.031.615l-2.558-.123a4.066,4.066,0,0,1,1.09-3.054,4.156,4.156,0,0,1,3.023-1.059,4.322,4.322,0,0,1,2.9.971,3.042,3.042,0,0,1,1.143,2.413,2.746,2.746,0,0,1-.488,1.635,2.793,2.793,0,0,1-1.112.967,3.13,3.13,0,0,1,.809.36,3.315,3.315,0,0,1,.708.606,2.706,2.706,0,0,1,.523.923,3.713,3.713,0,0,1,.193,1.23,3.589,3.589,0,0,1-1.257,2.87A4.958,4.958,0,0,1,54.914,17.176Z" transform="translate(9716 -3335)" fill="#fff"/>
    <path id="Trazado_25716" data-name="Trazado 25716" d="M10.318,4.3h2.628V17H9.9L4.271,7.921V17H1.644V4.3H4.658l5.66,9.026Zm6.873,2.312a1.421,1.421,0,0,1-1.037-.426,1.4,1.4,0,0,1-.431-1.033,1.382,1.382,0,0,1,.435-1.024A1.425,1.425,0,0,1,17.191,3.7a1.463,1.463,0,0,1,1.45,1.45,1.463,1.463,0,0,1-1.45,1.459ZM15.9,17V7.965h2.549V17ZM26.947,7.965h2.681L25.778,17h-2.2L19.775,7.965h2.663l2.25,6.179Zm12.146,4.386-.026.606h-6.7a2.339,2.339,0,0,0,.721,1.652,2.3,2.3,0,0,0,1.591.571,2.221,2.221,0,0,0,1.191-.312,1.918,1.918,0,0,0,.76-.91l2.32.343a3.945,3.945,0,0,1-1.582,2.118,4.7,4.7,0,0,1-2.672.756,4.891,4.891,0,0,1-3.52-1.244,4.538,4.538,0,0,1-1.305-3.45,4.565,4.565,0,0,1,1.31-3.45A4.746,4.746,0,0,1,34.62,7.771a4.536,4.536,0,0,1,3.243,1.151A4.517,4.517,0,0,1,39.094,12.351ZM34.638,9.564a2,2,0,0,0-2.2,1.74h4.148a1.9,1.9,0,0,0-.624-1.292A1.978,1.978,0,0,0,34.638,9.564ZM41.019,17V3.5h2.558V17Zm12.964-2.259H59.4V17H50.44V15.093l5.054-5.159a3.18,3.18,0,0,0,1.1-2.188,1.548,1.548,0,0,0-.453-1.178,1.782,1.782,0,0,0-1.279-.431q-1.8,0-1.8,2.048v.94L50.537,8.87V8.237A3.961,3.961,0,0,1,51.7,5.183a4.443,4.443,0,0,1,3.146-1.077,4.655,4.655,0,0,1,3.063.976,3.288,3.288,0,0,1,1.182,2.681,3.8,3.8,0,0,1-.4,1.74,7.274,7.274,0,0,1-1.27,1.7Z" transform="translate(9716 -3281)" fill="#fff"/>
    <path id="Trazado_25720" data-name="Trazado 25720" d="M10.318,4.3h2.628V17H9.9L4.271,7.921V17H1.644V4.3H4.658l5.66,9.026Zm6.873,2.312a1.421,1.421,0,0,1-1.037-.426,1.4,1.4,0,0,1-.431-1.033,1.382,1.382,0,0,1,.435-1.024A1.425,1.425,0,0,1,17.191,3.7a1.463,1.463,0,0,1,1.45,1.45,1.463,1.463,0,0,1-1.45,1.459ZM15.9,17V7.965h2.549V17ZM26.947,7.965h2.681L25.778,17h-2.2L19.775,7.965h2.663l2.25,6.179Zm12.146,4.386-.026.606h-6.7a2.339,2.339,0,0,0,.721,1.652,2.3,2.3,0,0,0,1.591.571,2.221,2.221,0,0,0,1.191-.312,1.918,1.918,0,0,0,.76-.91l2.32.343a3.945,3.945,0,0,1-1.582,2.118,4.7,4.7,0,0,1-2.672.756,4.891,4.891,0,0,1-3.52-1.244,4.538,4.538,0,0,1-1.305-3.45,4.565,4.565,0,0,1,1.31-3.45A4.746,4.746,0,0,1,34.62,7.771a4.536,4.536,0,0,1,3.243,1.151A4.517,4.517,0,0,1,39.094,12.351ZM34.638,9.564a2,2,0,0,0-2.2,1.74h4.148a1.9,1.9,0,0,0-.624-1.292A1.978,1.978,0,0,0,34.638,9.564ZM41.019,17V3.5h2.558V17ZM54.589,4.3H57V17H54.475V6.9L51.557,9.617v-2.6Z" transform="translate(9716 -3229)" fill="#fff"/>
    <g id="Trazado_25717" data-name="Trazado 25717" transform="translate(9827 -3397)" fill="#fff">
      <path d="M 80.5 39.5 L 20.5 39.5 C 17.93435668945313 39.5 15.44624328613281 38.99785614013672 13.1048002243042 38.00749969482422 C 10.8424711227417 37.05061340332031 8.810385704040527 35.68044281005859 7.064971446990967 33.93502807617188 C 5.319557189941406 32.18961334228516 3.949385643005371 30.15752792358398 2.992500066757202 27.89520072937012 C 2.002142906188965 25.55375671386719 1.5 23.06564331054688 1.5 20.5 C 1.5 17.93435668945313 2.002142906188965 15.44624328613281 2.992500066757202 13.1048002243042 C 3.949385643005371 10.8424711227417 5.319557189941406 8.810385704040527 7.064971446990967 7.064971446990967 C 8.810385704040527 5.319557189941406 10.8424711227417 3.949385643005371 13.1048002243042 2.992500066757202 C 15.44624328613281 2.002142906188965 17.93435668945313 1.5 20.5 1.5 L 80.5 1.5 C 83.06564331054688 1.5 85.55375671386719 2.002142906188965 87.89520263671875 2.992500066757202 C 90.15753173828125 3.949385643005371 92.18961334228516 5.319557189941406 93.93502807617188 7.064971446990967 C 95.68044281005859 8.810385704040527 97.05061340332031 10.8424711227417 98.00749969482422 13.1048002243042 C 98.99785614013672 15.44624328613281 99.5 17.93435668945313 99.5 20.5 C 99.5 23.06564331054688 98.99785614013672 25.55375671386719 98.00749969482422 27.89520072937012 C 97.05061340332031 30.15752792358398 95.68044281005859 32.18961334228516 93.93502807617188 33.93502807617188 C 92.18961334228516 35.68044281005859 90.15753173828125 37.05061340332031 87.89520263671875 38.00749969482422 C 85.55375671386719 38.99785614013672 83.06564331054688 39.5 80.5 39.5 Z" stroke="none"/>
      <path d="M 20.5 3 C 15.82556915283203 3 11.43093872070313 4.820323944091797 8.125633239746094 8.125629425048828 C 4.820320129394531 11.43093872070313 3 15.82556915283203 3 20.5 C 3 25.17441558837891 4.820320129394531 29.56904602050781 8.125633239746094 32.87437057495117 C 11.43093872070313 36.1796760559082 15.82558441162109 38 20.5 38 L 80.5 38 C 85.17441558837891 38 89.56904602050781 36.1796760559082 92.87436676025391 32.87437057495117 C 96.17967987060547 29.56904602050781 98 25.17441558837891 98 20.5 C 98 15.82558441162109 96.17967987060547 11.43093872070313 92.87436676025391 8.125629425048828 C 89.56904602050781 4.820323944091797 85.17441558837891 3 80.5 3 L 20.5 3 M 20.5 0 L 80.5 0 C 91.82183074951172 0 101 9.178153991699219 101 20.5 C 101 31.82183074951172 91.82183074951172 41 80.5 41 L 20.5 41 C 9.178153991699219 41 0 31.82183074951172 0 20.5 C 0 9.178153991699219 9.178153991699219 0 20.5 0 Z" stroke="none" fill="#cddc39"/>
    </g>
    <g id="Trazado_25718" data-name="Trazado 25718" transform="translate(9865 -3342)" fill="#fff">
      <path d="M 60.5 39.5 L 20.5 39.5 C 17.93435287475586 39.5 15.44624710083008 38.99784851074219 13.1048002243042 38.00750732421875 C 10.84247016906738 37.05061340332031 8.810388565063477 35.68043518066406 7.064976692199707 33.93502426147461 C 5.319564819335938 32.18961334228516 3.949388265609741 30.15752983093262 2.992494106292725 27.89520072937012 C 2.002152919769287 25.55375289916992 1.5 23.06564712524414 1.5 20.5 C 1.5 17.93435287475586 2.002152919769287 15.44624710083008 2.992494106292725 13.1048002243042 C 3.949388265609741 10.84247016906738 5.319564819335938 8.810388565063477 7.064976692199707 7.064976692199707 C 8.810388565063477 5.319564819335938 10.84247016906738 3.949388265609741 13.1048002243042 2.992494106292725 C 15.44624710083008 2.002152919769287 17.93435287475586 1.5 20.5 1.5 L 60.5 1.5 C 63.06564712524414 1.5 65.55375671386719 2.002152919769287 67.89520263671875 2.992494106292725 C 70.15753173828125 3.949388265609741 72.18961334228516 5.319564819335938 73.93502044677734 7.064976692199707 C 75.68043518066406 8.810388565063477 77.05061340332031 10.84247016906738 78.00750732421875 13.1048002243042 C 78.99784851074219 15.44624710083008 79.5 17.93435287475586 79.5 20.5 C 79.5 23.06564712524414 78.99784851074219 25.55375289916992 78.00750732421875 27.89520072937012 C 77.05061340332031 30.15752983093262 75.68043518066406 32.18961334228516 73.93502044677734 33.93502426147461 C 72.18961334228516 35.68043518066406 70.15753173828125 37.05061340332031 67.89520263671875 38.00750732421875 C 65.55375671386719 38.99784851074219 63.06564712524414 39.5 60.5 39.5 Z" stroke="none"/>
      <path d="M 20.5 3 C 15.82557678222656 3 11.43094635009766 4.820320129394531 8.125625610351563 8.125625610351563 C 4.820320129394531 11.43094635009766 3 15.8255729675293 3 20.5 C 3 25.1744270324707 4.820320129394531 29.56905364990234 8.125625610351563 32.87437438964844 C 11.43094635009766 36.17967987060547 15.82557678222656 38 20.5 38 L 60.5 38 C 65.17442321777344 38 69.56905364990234 36.17967987060547 72.87437438964844 32.87437438964844 C 76.17967987060547 29.56905364990234 78 25.1744270324707 78 20.5 C 78 15.8255729675293 76.17967987060547 11.43094635009766 72.87437438964844 8.125625610351563 C 69.56905364990234 4.820320129394531 65.17442321777344 3 60.5 3 L 20.5 3 M 20.5 0 L 60.5 0 C 71.82183837890625 0 81 9.178159713745117 81 20.5 C 81 31.82184028625488 71.82183837890625 41 60.5 41 L 20.5 41 C 9.17816162109375 41 0 31.82184028625488 0 20.5 C 0 9.178159713745117 9.17816162109375 0 20.5 0 Z" stroke="none" fill="#00aa87"/>
    </g>
    <g id="Trazado_25721" data-name="Trazado 25721" transform="translate(9901 -3290)" fill="#fff">
      <path d="M 69.5 39.5 L 20.5 39.5 C 17.93434906005859 39.5 15.44624996185303 38.99784851074219 13.1048002243042 38.00749969482422 C 10.84247493743896 37.05061340332031 8.81038761138916 35.68043899536133 7.064974784851074 33.93502426147461 C 5.319562435150146 32.18961334228516 3.949387550354004 30.15752410888672 2.992500066757202 27.89520072937012 C 2.002150058746338 25.55374908447266 1.5 23.06565093994141 1.5 20.5 C 1.5 17.93434906005859 2.002150058746338 15.44624996185303 2.992500066757202 13.1048002243042 C 3.949387550354004 10.84247493743896 5.319562435150146 8.81038761138916 7.064974784851074 7.064974784851074 C 8.81038761138916 5.319562435150146 10.84247493743896 3.949387550354004 13.1048002243042 2.992500066757202 C 15.44624996185303 2.002150058746338 17.93434906005859 1.5 20.5 1.5 L 69.5 1.5 C 72.06565093994141 1.5 74.55374908447266 2.002150058746338 76.89520263671875 2.992500066757202 C 79.15752410888672 3.949387550354004 81.18961334228516 5.319562435150146 82.93502807617188 7.064974784851074 C 84.68043518066406 8.81038761138916 86.05061340332031 10.84247493743896 87.00749969482422 13.1048002243042 C 87.99784851074219 15.44624996185303 88.5 17.93434906005859 88.5 20.5 C 88.5 23.06565093994141 87.99784851074219 25.55374908447266 87.00749969482422 27.89520072937012 C 86.05061340332031 30.15752410888672 84.68043518066406 32.18961334228516 82.93502807617188 33.93502426147461 C 81.18961334228516 35.68043899536133 79.15752410888672 37.05061340332031 76.89520263671875 38.00749969482422 C 74.55374908447266 38.99784851074219 72.06565093994141 39.5 69.5 39.5 Z" stroke="none"/>
      <path d="M 20.5 3 C 15.82556915283203 3 11.43094635009766 4.8203125 8.125625610351563 8.125629425048828 C 4.8203125 11.43094253540039 3 15.82557106018066 3 20.5 C 3 25.17442893981934 4.8203125 29.56905746459961 8.125625610351563 32.87437057495117 C 11.43094635009766 36.1796875 15.82556915283203 38 20.5 38 L 69.5 38 C 74.17443084716797 38 78.56906127929688 36.1796875 81.87437438964844 32.87437057495117 C 85.1796875 29.56905746459961 87 25.17442893981934 87 20.5 C 87 15.82557106018066 85.1796875 11.43094253540039 81.87437438964844 8.125629425048828 C 78.56906127929688 4.8203125 74.17443084716797 3 69.5 3 L 20.5 3 M 20.5 0 L 69.5 0 C 80.82184600830078 0 90 9.178157806396484 90 20.5 C 90 31.82184219360352 80.82184600830078 41 69.5 41 L 20.5 41 C 9.178153991699219 41 0 31.82184219360352 0 20.5 C 0 9.178157806396484 9.178153991699219 0 20.5 0 Z" stroke="none" fill="#00aab4"/>
    </g>
    <g id="Trazado_25722" data-name="Trazado 25722" transform="translate(9935 -3238)" fill="#fff">
      <path d="M 54.5 39.5 L 20.5 39.5 C 17.93435478210449 39.5 15.44625568389893 38.99785614013672 13.1048002243042 38.00749969482422 C 10.84247779846191 37.05062103271484 8.810388565063477 35.68043518066406 7.064977645874023 33.93502044677734 C 5.31956672668457 32.18960952758789 3.949377775192261 30.15752220153809 2.992500066757202 27.89520072937012 C 2.002144336700439 25.55374526977539 1.5 23.06564521789551 1.5 20.5 C 1.5 17.93435478210449 2.002144336700439 15.44625568389893 2.992500066757202 13.1048002243042 C 3.949377775192261 10.84247779846191 5.31956672668457 8.810388565063477 7.064977645874023 7.064977645874023 C 8.810388565063477 5.31956672668457 10.84247779846191 3.949377775192261 13.1048002243042 2.992500066757202 C 15.44625568389893 2.002144336700439 17.93435478210449 1.5 20.5 1.5 L 54.5 1.5 C 57.06564331054688 1.5 59.55375671386719 2.002144336700439 61.89519882202148 2.992500066757202 C 64.15752410888672 3.949377775192261 66.18962097167969 5.319555759429932 67.93503570556641 7.064977645874023 C 69.68044281005859 8.810388565063477 71.05062103271484 10.84247779846191 72.00749969482422 13.1048002243042 C 72.99785614013672 15.44625568389893 73.5 17.93435478210449 73.5 20.5 C 73.5 23.06564521789551 72.99785614013672 25.55374526977539 72.00749969482422 27.89520072937012 C 71.05062103271484 30.15752220153809 69.68044281005859 32.18960952758789 67.93503570556641 33.93502044677734 C 66.18962097167969 35.68044281005859 64.15752410888672 37.05062103271484 61.89519882202148 38.00749969482422 C 59.55375671386719 38.99785614013672 57.06564331054688 39.5 54.5 39.5 Z" stroke="none"/>
      <path d="M 20.5 3 C 15.82557678222656 3 11.43095016479492 4.8203125 8.125640869140625 8.125637054443359 C 4.8203125 11.43095016479492 3 15.82557487487793 3 20.5 C 3 25.17442512512207 4.8203125 29.56904983520508 8.125640869140625 32.87436294555664 C 11.43095016479492 36.1796875 15.82557678222656 38 20.5 38 L 54.5 38 C 59.17442321777344 38 63.56904983520508 36.1796875 66.87435913085938 32.87436294555664 C 70.1796875 29.56904983520508 72 25.17442512512207 72 20.5 C 72 15.82557487487793 70.1796875 11.43095016479492 66.87435913085938 8.125637054443359 C 63.56904983520508 4.8203125 59.17442321777344 3 54.5 3 L 20.5 3 M 20.5 0 L 54.5 0 C 65.82183837890625 0 75 9.17816162109375 75 20.5 C 75 31.82183837890625 65.82183837890625 41 54.5 41 L 20.5 41 C 9.17816162109375 41 0 31.82183837890625 0 20.5 C 0 9.17816162109375 9.17816162109375 0 20.5 0 Z" stroke="none" fill="#008cb4"/>
    </g>
    <path id="Trazado_25719" data-name="Trazado 25719" d="M5.766,17.167a5.648,5.648,0,0,1-3.23-.875,3.7,3.7,0,0,1-1.613-2.4l1.591-.378A2.609,2.609,0,0,0,3.63,15.2a3.775,3.775,0,0,0,2.188.615,4.566,4.566,0,0,0,.817-.07,3.127,3.127,0,0,0,.743-.233,2.274,2.274,0,0,0,.611-.4,1.669,1.669,0,0,0,.4-.606,2.076,2.076,0,0,0,.141-.826,1.786,1.786,0,0,0-.11-.584,1.855,1.855,0,0,0-.246-.461,1.657,1.657,0,0,0-.417-.374,5.6,5.6,0,0,0-.5-.3,4.529,4.529,0,0,0-.62-.25q-.391-.132-.655-.207l-.712-.2q-.088-.026-.132-.035-.51-.132-.831-.229t-.769-.268a5.06,5.06,0,0,1-.734-.338,4.968,4.968,0,0,1-.6-.422,2.161,2.161,0,0,1-.5-.549,2.9,2.9,0,0,1-.3-.7,3.11,3.11,0,0,1-.119-.879,3.138,3.138,0,0,1,.576-1.9,3.368,3.368,0,0,1,1.485-1.16A5.392,5.392,0,0,1,5.4,4.458a5.6,5.6,0,0,1,2.975.76A3.388,3.388,0,0,1,9.949,7.464L8.42,7.851A2.328,2.328,0,0,0,7.392,6.33a3.523,3.523,0,0,0-1.934-.51,3.83,3.83,0,0,0-.949.114,2.82,2.82,0,0,0-.822.352,1.706,1.706,0,0,0-.593.646,1.965,1.965,0,0,0-.22.945,1.519,1.519,0,0,0,.088.523,1.605,1.605,0,0,0,.22.417,1.564,1.564,0,0,0,.378.343,3.839,3.839,0,0,0,.461.272,4.676,4.676,0,0,0,.576.224q.36.119.615.193t.677.18a14.318,14.318,0,0,1,2.382.791A3.014,3.014,0,0,1,10.107,13.1a3.924,3.924,0,0,1,.035.536,3.458,3.458,0,0,1-.356,1.6,2.885,2.885,0,0,1-.976,1.107,4.664,4.664,0,0,1-1.389.62A6.368,6.368,0,0,1,5.766,17.167ZM18.1,8.36h1.521V17H18.158l-.035-1.143a2.7,2.7,0,0,1-1.072.971,3.3,3.3,0,0,1-1.512.338,3.005,3.005,0,0,1-2.175-.782,2.918,2.918,0,0,1-.813-2.206V8.36h1.521v5.476a2.05,2.05,0,0,0,.532,1.547,1.882,1.882,0,0,0,1.358.51,2.067,2.067,0,0,0,1.534-.6,2.434,2.434,0,0,0,.6-1.767Zm9.176-.167a3.93,3.93,0,0,1,1.564.316A3.849,3.849,0,0,1,30.12,9.4a4.149,4.149,0,0,1,.866,1.424,5.25,5.25,0,0,1,.321,1.863,4.568,4.568,0,0,1-1.165,3.261,3.782,3.782,0,0,1-2.87,1.239,3.42,3.42,0,0,1-1.806-.492,3.226,3.226,0,0,1-1.235-1.327v5.985H22.711V8.36h1.468l.035,1.679a3.163,3.163,0,0,1,1.23-1.349A3.452,3.452,0,0,1,27.272,8.193Zm-.3,7.673a2.623,2.623,0,0,0,2-.875,3.253,3.253,0,0,0,.813-2.307,3.237,3.237,0,0,0-.813-2.3,2.726,2.726,0,0,0-4.03.04,3.24,3.24,0,0,0-.826,2.263,3.252,3.252,0,0,0,.826,2.272A2.636,2.636,0,0,0,26.974,15.866Zm14.291-3.357-.018.413H34.5a3.053,3.053,0,0,0,.826,2.21,2.713,2.713,0,0,0,1.969.769,2.59,2.59,0,0,0,1.433-.413,2.68,2.68,0,0,0,.984-1.143l1.371.29A3.9,3.9,0,0,1,39.6,16.49a4.028,4.028,0,0,1-2.294.677,4.174,4.174,0,0,1-3.111-1.2,4.479,4.479,0,0,1-1.187-3.287A4.458,4.458,0,0,1,34.2,9.4a4.122,4.122,0,0,1,3.063-1.2A3.9,3.9,0,0,1,40.17,9.3,4.376,4.376,0,0,1,41.265,12.509Zm-4-3.146a2.694,2.694,0,0,0-1.8.611,2.8,2.8,0,0,0-.91,1.78h5.177a2.567,2.567,0,0,0-.756-1.78A2.441,2.441,0,0,0,37.266,9.362Zm7.866.519A2.612,2.612,0,0,1,46.2,8.721a3.229,3.229,0,0,1,1.661-.457V9.7a2.846,2.846,0,0,0-2.008.642,2.68,2.68,0,0,0-.69,2.048V17H43.646V8.36h1.485ZM50.423,6.33A1.035,1.035,0,0,1,49.395,5.3a.975.975,0,0,1,.3-.721,1,1,0,0,1,.725-.3.987.987,0,0,1,.716.3.975.975,0,0,1,.3.721.989.989,0,0,1-.3.725A.979.979,0,0,1,50.423,6.33ZM49.649,17V8.36h1.529V17Zm8.262.167a4.554,4.554,0,0,1-2.215-.536,3.9,3.9,0,0,1-1.56-1.569,4.819,4.819,0,0,1-.576-2.386,4.4,4.4,0,0,1,1.226-3.256,4.6,4.6,0,0,1,6.253,0,4.41,4.41,0,0,1,1.222,3.256,4.413,4.413,0,0,1-1.226,3.265A4.232,4.232,0,0,1,57.911,17.167ZM57.9,15.9a2.654,2.654,0,0,0,2.043-.888,3.326,3.326,0,0,0,.813-2.338,3.314,3.314,0,0,0-.813-2.329A2.654,2.654,0,0,0,57.9,9.459a2.617,2.617,0,0,0-2.026.888,3.336,3.336,0,0,0-.8,2.329,3.348,3.348,0,0,0,.8,2.338A2.617,2.617,0,0,0,57.9,15.9Zm8.227-6.021A2.612,2.612,0,0,1,67.2,8.721a3.229,3.229,0,0,1,1.661-.457V9.7a2.846,2.846,0,0,0-2.008.642,2.68,2.68,0,0,0-.69,2.048V17H64.644V8.36h1.485Z" transform="translate(9843 -3388)" fill="#00223d"/>
    <path id="Trazado_25723" data-name="Trazado 25723" d="M9.888,17,8.824,14.038h-5.6L2.171,17H.527L5.089,4.625H6.97L11.531,17ZM3.727,12.649H8.332l-2.3-6.442ZM13.605,17V3.5h1.538V17ZM21,17a2.271,2.271,0,0,1-1.687-.62,2.344,2.344,0,0,1-.615-1.727V9.573H16.928V8.36h.65a1.249,1.249,0,0,0,.954-.3,1.492,1.492,0,0,0,.277-1.015V5.478h1.415V8.36H22.21V9.573H20.224V14.5a1.31,1.31,0,0,0,.33.954,1.154,1.154,0,0,0,.866.338h.791V17Zm6.943.167a4.554,4.554,0,0,1-2.215-.536,3.9,3.9,0,0,1-1.56-1.569,4.819,4.819,0,0,1-.576-2.386,4.4,4.4,0,0,1,1.226-3.256A4.232,4.232,0,0,1,27.94,8.193a4.228,4.228,0,0,1,3.129,1.226,4.41,4.41,0,0,1,1.222,3.256,4.413,4.413,0,0,1-1.226,3.265A4.232,4.232,0,0,1,27.94,17.167ZM27.932,15.9a2.654,2.654,0,0,0,2.043-.888,3.326,3.326,0,0,0,.813-2.338,3.314,3.314,0,0,0-.813-2.329,2.654,2.654,0,0,0-2.043-.888,2.617,2.617,0,0,0-2.026.888,3.336,3.336,0,0,0-.8,2.329,3.348,3.348,0,0,0,.8,2.338A2.617,2.617,0,0,0,27.932,15.9Z" transform="translate(9888 -3334)" fill="#00223d"/>
    <path id="Trazado_25724" data-name="Trazado 25724" d="M15.029,17H13.5L12.674,6.787,8.719,17h-.94L3.85,6.822,3.015,17H1.477l.94-12.375H4.491l3.753,9.65,3.762-9.65H14.1Zm10.459-4.491-.018.413h-6.75a3.053,3.053,0,0,0,.826,2.21,2.713,2.713,0,0,0,1.969.769,2.59,2.59,0,0,0,1.433-.413,2.68,2.68,0,0,0,.984-1.143l1.371.29a3.9,3.9,0,0,1-1.477,1.854,4.028,4.028,0,0,1-2.294.677,4.174,4.174,0,0,1-3.111-1.2,4.479,4.479,0,0,1-1.187-3.287A4.458,4.458,0,0,1,18.426,9.4a4.122,4.122,0,0,1,3.063-1.2,3.9,3.9,0,0,1,2.9,1.107A4.376,4.376,0,0,1,25.488,12.509Zm-4-3.146a2.694,2.694,0,0,0-1.8.611,2.8,2.8,0,0,0-.91,1.78h5.177a2.567,2.567,0,0,0-.756-1.78A2.441,2.441,0,0,0,21.489,9.362ZM34.251,3.5h1.521V17H34.3l-.035-1.679a3.179,3.179,0,0,1-1.23,1.362,3.429,3.429,0,0,1-1.828.5,3.926,3.926,0,0,1-2.852-1.217,4.16,4.16,0,0,1-.87-1.428,5.225,5.225,0,0,1-.321-1.854A4.543,4.543,0,0,1,28.34,9.441a3.788,3.788,0,0,1,2.87-1.248,3.443,3.443,0,0,1,1.806.488A3.2,3.2,0,0,1,34.251,10ZM31.526,15.866a2.587,2.587,0,0,0,2.008-.91,3.283,3.283,0,0,0,.813-2.272,3.277,3.277,0,0,0-.817-2.268,2.586,2.586,0,0,0-2-.914,2.644,2.644,0,0,0-2.021.883,3.25,3.25,0,0,0-.817,2.3,3.25,3.25,0,0,0,.817,2.3A2.644,2.644,0,0,0,31.526,15.866ZM39.639,6.33A1.035,1.035,0,0,1,38.61,5.3a.975.975,0,0,1,.3-.721,1,1,0,0,1,.725-.3.987.987,0,0,1,.716.3.975.975,0,0,1,.3.721.989.989,0,0,1-.3.725A.979.979,0,0,1,39.639,6.33ZM38.865,17V8.36h1.529V17Zm8.262.167a4.554,4.554,0,0,1-2.215-.536,3.9,3.9,0,0,1-1.56-1.569,4.819,4.819,0,0,1-.576-2.386A4.4,4.4,0,0,1,44,9.419a4.6,4.6,0,0,1,6.253,0,4.41,4.41,0,0,1,1.222,3.256,4.413,4.413,0,0,1-1.226,3.265A4.232,4.232,0,0,1,47.127,17.167ZM47.118,15.9a2.654,2.654,0,0,0,2.043-.888,3.326,3.326,0,0,0,.813-2.338,3.314,3.314,0,0,0-.813-2.329,2.654,2.654,0,0,0-2.043-.888,2.617,2.617,0,0,0-2.026.888,3.336,3.336,0,0,0-.8,2.329,3.348,3.348,0,0,0,.8,2.338A2.617,2.617,0,0,0,47.118,15.9Z" transform="translate(9921 -3282)" fill="#00223d"/>
    <path id="Trazado_25725" data-name="Trazado 25725" d="M7.813,10.54A3.32,3.32,0,0,1,9.6,11.617a3.061,3.061,0,0,1,.655,2.026A3.24,3.24,0,0,1,9.3,16.068,3.484,3.484,0,0,1,6.759,17H1.942V4.625H5.7a3.8,3.8,0,0,1,2.65.91A3.044,3.044,0,0,1,9.352,7.9a3.13,3.13,0,0,1-.4,1.591A2.542,2.542,0,0,1,7.813,10.54ZM7.875,8a1.888,1.888,0,0,0-.593-1.433A2.223,2.223,0,0,0,5.687,6H3.463v4.043H5.977a1.752,1.752,0,0,0,1.367-.593A2.1,2.1,0,0,0,7.875,8ZM6.5,15.6a2.185,2.185,0,0,0,1.63-.611,2.063,2.063,0,0,0,.6-1.507A2.032,2.032,0,0,0,8.1,11.951a2.381,2.381,0,0,0-1.718-.6H3.463V15.6Zm8.288,1.564a2.94,2.94,0,0,1-1.894-.593,2.13,2.13,0,0,1-.743-1.771,2.517,2.517,0,0,1,.237-1.129,1.991,1.991,0,0,1,.7-.787A4.218,4.218,0,0,1,14.1,12.4a9.384,9.384,0,0,1,1.314-.312l1.4-.229q.765-.141.765-.8a1.51,1.51,0,0,0-.541-1.288,2.2,2.2,0,0,0-1.367-.409,2.243,2.243,0,0,0-1.354.4,1.655,1.655,0,0,0-.642,1.213l-1.371-.29a2.639,2.639,0,0,1,1.081-1.85,4.039,4.039,0,0,1,2.355-.62,4.777,4.777,0,0,1,1.252.154,3.4,3.4,0,0,1,1.046.483,2.168,2.168,0,0,1,.747.932,3.466,3.466,0,0,1,.268,1.419v3.568a1.46,1.46,0,0,0,.2.9.854.854,0,0,0,.681.233h.141V17h-.756a1.442,1.442,0,0,1-1.635-1.169h-.07A3.3,3.3,0,0,1,14.783,17.167Zm.352-1.23a2.305,2.305,0,0,0,1.854-.835,3.438,3.438,0,0,0,.7-2.285l-2.285.439a3.076,3.076,0,0,0-1.34.479,1.114,1.114,0,0,0-.435.945,1.1,1.1,0,0,0,.417.949A1.785,1.785,0,0,0,15.135,15.937ZM23,6.33A1.035,1.035,0,0,1,21.973,5.3a.975.975,0,0,1,.3-.721,1,1,0,0,1,.725-.3.987.987,0,0,1,.716.3.975.975,0,0,1,.3.721.989.989,0,0,1-.3.725A.979.979,0,0,1,23,6.33ZM20.232,21.043V19.751a2.472,2.472,0,0,0,1.239-.246,1.348,1.348,0,0,0,.58-.844,7.105,7.105,0,0,0,.167-1.784V8.36h1.538v8.517a5.025,5.025,0,0,1-.8,3.226A3.413,3.413,0,0,1,20.232,21.043ZM30.5,17.167a4.554,4.554,0,0,1-2.215-.536,3.9,3.9,0,0,1-1.56-1.569,4.819,4.819,0,0,1-.576-2.386,4.4,4.4,0,0,1,1.226-3.256,4.6,4.6,0,0,1,6.253,0,4.41,4.41,0,0,1,1.222,3.256,4.413,4.413,0,0,1-1.226,3.265A4.232,4.232,0,0,1,30.5,17.167ZM30.489,15.9a2.654,2.654,0,0,0,2.043-.888,3.326,3.326,0,0,0,.813-2.338,3.314,3.314,0,0,0-.813-2.329,2.654,2.654,0,0,0-2.043-.888,2.617,2.617,0,0,0-2.026.888,3.336,3.336,0,0,0-.8,2.329,3.348,3.348,0,0,0,.8,2.338A2.617,2.617,0,0,0,30.489,15.9Z" transform="translate(9954 -3229)" fill="#00223d"/>
  </g>
</svg>
