<svg xmlns="http://www.w3.org/2000/svg" width="200" height="168" viewBox="0 0 200 168">
  <g id="Grupo_16491" data-name="Grupo 16491" transform="translate(1434 5295)">
    <path id="Trazado_25634" data-name="Trazado 25634" d="M9,0H191a9,9,0,0,1,9,9V159a9,9,0,0,1-9,9H9a9,9,0,0,1-9-9V9A9,9,0,0,1,9,0Z" transform="translate(-1434 -5295)" fill="#f3ff7e"/>
    <path id="Trazado_25640" data-name="Trazado 25640" d="M8.553,17V4.625h3.99a5.917,5.917,0,0,1,3.151.8A4.879,4.879,0,0,1,17.628,7.6a7.642,7.642,0,0,1,.628,3.2,8.1,8.1,0,0,1-.365,2.5,5.664,5.664,0,0,1-1.068,1.956,4.685,4.685,0,0,1-1.8,1.283A6.391,6.391,0,0,1,12.543,17Zm1.573-1.433h2.364A3.769,3.769,0,0,0,15.58,14.3a5.35,5.35,0,0,0,1.042-3.5,5.305,5.305,0,0,0-1.046-3.48,3.771,3.771,0,0,0-3.085-1.266H10.126Zm18.352-3.059-.018.413H21.71a3.053,3.053,0,0,0,.826,2.21,2.713,2.713,0,0,0,1.969.769,2.59,2.59,0,0,0,1.433-.413,2.68,2.68,0,0,0,.984-1.143l1.371.29a3.9,3.9,0,0,1-1.477,1.854,4.028,4.028,0,0,1-2.294.677,4.174,4.174,0,0,1-3.111-1.2,4.479,4.479,0,0,1-1.187-3.287A4.458,4.458,0,0,1,21.416,9.4a4.122,4.122,0,0,1,3.063-1.2,3.9,3.9,0,0,1,2.9,1.107A4.376,4.376,0,0,1,28.478,12.509Zm-4-3.146a2.694,2.694,0,0,0-1.8.611,2.8,2.8,0,0,0-.91,1.78h5.177a2.567,2.567,0,0,0-.756-1.78A2.441,2.441,0,0,0,24.479,9.362Zm9.114,7.8a4.1,4.1,0,0,1-2.329-.624,2.581,2.581,0,0,1-1.134-1.775l1.327-.378a1.851,1.851,0,0,0,.708,1.2,2.3,2.3,0,0,0,1.419.426,2.832,2.832,0,0,0,.831-.114,1.331,1.331,0,0,0,.637-.426,1.189,1.189,0,0,0,.185-1.143,1.526,1.526,0,0,0-.141-.286.87.87,0,0,0-.246-.237,3.245,3.245,0,0,0-.3-.185,3.067,3.067,0,0,0-.391-.163q-.259-.092-.417-.141t-.483-.141q-.325-.092-.5-.145a9.372,9.372,0,0,1-.9-.316,3.932,3.932,0,0,1-.729-.417,1.679,1.679,0,0,1-.567-.681,2.3,2.3,0,0,1-.189-.967,2.234,2.234,0,0,1,.422-1.38,2.374,2.374,0,0,1,1.094-.813,4.374,4.374,0,0,1,1.534-.25,3.754,3.754,0,0,1,2.1.563,2.4,2.4,0,0,1,1.05,1.688l-1.248.316a1.655,1.655,0,0,0-.659-1.094,2.1,2.1,0,0,0-1.239-.365,2.139,2.139,0,0,0-1.16.3,1.019,1.019,0,0,0-.483.927.923.923,0,0,0,.127.479,1.521,1.521,0,0,0,.259.338,1.594,1.594,0,0,0,.475.259q.343.136.51.185t.633.163q.088.026.132.035.51.132.831.233a5.105,5.105,0,0,1,.747.316,2.484,2.484,0,0,1,.672.47,2.178,2.178,0,0,1,.422.668,2.358,2.358,0,0,1,.176.932,2.516,2.516,0,0,1-.259,1.165,2.028,2.028,0,0,1-.708.8,3.422,3.422,0,0,1-1.006.435A4.8,4.8,0,0,1,33.593,17.167Zm7.567,0a2.94,2.94,0,0,1-1.894-.593,2.13,2.13,0,0,1-.743-1.771,2.517,2.517,0,0,1,.237-1.129,1.991,1.991,0,0,1,.7-.787,4.218,4.218,0,0,1,1.015-.488,9.384,9.384,0,0,1,1.314-.312l1.4-.229q.765-.141.765-.8a1.51,1.51,0,0,0-.541-1.288,2.2,2.2,0,0,0-1.367-.409,2.243,2.243,0,0,0-1.354.4,1.655,1.655,0,0,0-.642,1.213l-1.371-.29a2.639,2.639,0,0,1,1.081-1.85,4.039,4.039,0,0,1,2.355-.62,4.777,4.777,0,0,1,1.252.154,3.4,3.4,0,0,1,1.046.483,2.168,2.168,0,0,1,.747.932,3.466,3.466,0,0,1,.268,1.419v3.568a1.46,1.46,0,0,0,.2.9.854.854,0,0,0,.681.233h.141V17H45.7a1.442,1.442,0,0,1-1.635-1.169h-.07A3.3,3.3,0,0,1,41.161,17.167Zm.352-1.23a2.305,2.305,0,0,0,1.854-.835,3.438,3.438,0,0,0,.7-2.285l-2.285.439a3.076,3.076,0,0,0-1.34.479,1.114,1.114,0,0,0-.435.945,1.1,1.1,0,0,0,.417.949A1.785,1.785,0,0,0,41.512,15.937Zm8.569-6.056a2.612,2.612,0,0,1,1.072-1.16,3.229,3.229,0,0,1,1.661-.457V9.7a2.846,2.846,0,0,0-2.008.642,2.68,2.68,0,0,0-.69,2.048V17H48.6V8.36h1.485Zm6,0a2.612,2.612,0,0,1,1.072-1.16,3.229,3.229,0,0,1,1.661-.457V9.7a2.846,2.846,0,0,0-2.008.642,2.68,2.68,0,0,0-.69,2.048V17H54.6V8.36h1.485Zm8.051,7.286a4.554,4.554,0,0,1-2.215-.536,3.9,3.9,0,0,1-1.56-1.569,4.819,4.819,0,0,1-.576-2.386,4.4,4.4,0,0,1,1.226-3.256,4.6,4.6,0,0,1,6.253,0,4.41,4.41,0,0,1,1.222,3.256,4.413,4.413,0,0,1-1.226,3.265A4.232,4.232,0,0,1,64.135,17.167ZM64.126,15.9a2.654,2.654,0,0,0,2.043-.888,3.326,3.326,0,0,0,.813-2.338,3.314,3.314,0,0,0-.813-2.329,2.654,2.654,0,0,0-2.043-.888,2.617,2.617,0,0,0-2.026.888,3.336,3.336,0,0,0-.8,2.329,3.348,3.348,0,0,0,.8,2.338A2.617,2.617,0,0,0,64.126,15.9ZM70.868,17V3.5h1.538V17ZM75.5,17V3.5h1.538V17Zm8.271.167a4.554,4.554,0,0,1-2.215-.536A3.9,3.9,0,0,1,80,15.062a4.819,4.819,0,0,1-.576-2.386,4.4,4.4,0,0,1,1.226-3.256,4.6,4.6,0,0,1,6.253,0,4.41,4.41,0,0,1,1.222,3.256,4.413,4.413,0,0,1-1.226,3.265A4.232,4.232,0,0,1,83.77,17.167ZM83.761,15.9a2.654,2.654,0,0,0,2.043-.888,3.326,3.326,0,0,0,.813-2.338,3.314,3.314,0,0,0-.813-2.329,2.654,2.654,0,0,0-2.043-.888,2.617,2.617,0,0,0-2.026.888,3.336,3.336,0,0,0-.8,2.329,3.348,3.348,0,0,0,.8,2.338A2.617,2.617,0,0,0,83.761,15.9ZM97.938,17a2.271,2.271,0,0,1-1.687-.62,2.344,2.344,0,0,1-.615-1.727V9.573H93.869V8.36h.65a1.249,1.249,0,0,0,.954-.3,1.492,1.492,0,0,0,.277-1.015V5.478h1.415V8.36h1.986V9.573H97.165V14.5a1.31,1.31,0,0,0,.33.954,1.154,1.154,0,0,0,.866.338h.791V17ZM108.8,12.509l-.018.413h-6.75a3.053,3.053,0,0,0,.826,2.21,2.713,2.713,0,0,0,1.969.769,2.59,2.59,0,0,0,1.433-.413,2.68,2.68,0,0,0,.984-1.143l1.371.29a3.9,3.9,0,0,1-1.477,1.854,4.028,4.028,0,0,1-2.294.677,4.174,4.174,0,0,1-3.111-1.2,4.479,4.479,0,0,1-1.187-3.287A4.458,4.458,0,0,1,101.739,9.4a4.122,4.122,0,0,1,3.063-1.2,3.9,3.9,0,0,1,2.9,1.107A4.376,4.376,0,0,1,108.8,12.509Zm-4-3.146a2.694,2.694,0,0,0-1.8.611,2.8,2.8,0,0,0-.91,1.78h5.177a2.567,2.567,0,0,0-.756-1.78A2.441,2.441,0,0,0,104.8,9.362Zm7.866.519a2.612,2.612,0,0,1,1.072-1.16,3.229,3.229,0,0,1,1.661-.457V9.7a2.846,2.846,0,0,0-2.008.642,2.68,2.68,0,0,0-.69,2.048V17h-1.521V8.36h1.485Zm6,0a2.612,2.612,0,0,1,1.072-1.16,3.229,3.229,0,0,1,1.661-.457V9.7a2.846,2.846,0,0,0-2.008.642,2.68,2.68,0,0,0-.69,2.048V17h-1.521V8.36h1.485Zm5.291-3.551A1.035,1.035,0,0,1,122.934,5.3a.975.975,0,0,1,.3-.721,1,1,0,0,1,.725-.3.987.987,0,0,1,.716.3.975.975,0,0,1,.3.721.989.989,0,0,1-.3.725A.979.979,0,0,1,123.962,6.33ZM123.189,17V8.36h1.529V17Zm7.383,0a2.271,2.271,0,0,1-1.687-.62,2.344,2.344,0,0,1-.615-1.727V9.573H126.5V8.36h.65a1.249,1.249,0,0,0,.954-.3,1.492,1.492,0,0,0,.277-1.015V5.478H129.8V8.36h1.986V9.573H129.8V14.5a1.31,1.31,0,0,0,.33.954,1.154,1.154,0,0,0,.866.338h.791V17Zm6.943.167a4.554,4.554,0,0,1-2.215-.536,3.9,3.9,0,0,1-1.56-1.569,4.819,4.819,0,0,1-.576-2.386,4.4,4.4,0,0,1,1.226-3.256,4.6,4.6,0,0,1,6.253,0,4.41,4.41,0,0,1,1.222,3.256,4.413,4.413,0,0,1-1.226,3.265A4.232,4.232,0,0,1,137.515,17.167Zm-.009-1.266a2.654,2.654,0,0,0,2.043-.888,3.326,3.326,0,0,0,.813-2.338,3.314,3.314,0,0,0-.813-2.329,2.654,2.654,0,0,0-2.043-.888,2.617,2.617,0,0,0-2.026.888,3.336,3.336,0,0,0-.8,2.329,3.348,3.348,0,0,0,.8,2.338A2.617,2.617,0,0,0,137.506,15.9Zm8.227-6.021a2.612,2.612,0,0,1,1.072-1.16,3.229,3.229,0,0,1,1.661-.457V9.7a2.846,2.846,0,0,0-2.008.642,2.68,2.68,0,0,0-.69,2.048V17h-1.521V8.36h1.485Zm5.291-3.551A1.035,1.035,0,0,1,150,5.3a.975.975,0,0,1,.3-.721,1,1,0,0,1,.725-.3.987.987,0,0,1,.716.3.975.975,0,0,1,.3.721.989.989,0,0,1-.3.725A.979.979,0,0,1,151.024,6.33ZM150.25,17V8.36h1.529V17Zm6.618.167a2.94,2.94,0,0,1-1.894-.593,2.13,2.13,0,0,1-.743-1.771,2.517,2.517,0,0,1,.237-1.129,1.991,1.991,0,0,1,.7-.787,4.218,4.218,0,0,1,1.015-.488,9.384,9.384,0,0,1,1.314-.312l1.4-.229q.765-.141.765-.8a1.51,1.51,0,0,0-.541-1.288,2.2,2.2,0,0,0-1.367-.409,2.243,2.243,0,0,0-1.354.4,1.655,1.655,0,0,0-.642,1.213l-1.371-.29a2.639,2.639,0,0,1,1.081-1.85,4.039,4.039,0,0,1,2.355-.62,4.777,4.777,0,0,1,1.252.154,3.4,3.4,0,0,1,1.046.483,2.168,2.168,0,0,1,.747.932,3.466,3.466,0,0,1,.268,1.419v3.568a1.46,1.46,0,0,0,.2.9.854.854,0,0,0,.681.233h.141V17H161.4a1.442,1.442,0,0,1-1.635-1.169h-.07A3.3,3.3,0,0,1,156.869,17.167Zm.352-1.23a2.305,2.305,0,0,0,1.854-.835,3.438,3.438,0,0,0,.7-2.285l-2.285.439a3.076,3.076,0,0,0-1.34.479,1.114,1.114,0,0,0-.435.945,1.1,1.1,0,0,0,.417.949A1.785,1.785,0,0,0,157.22,15.937ZM164.3,17V3.5h1.538V17Z" transform="translate(-1423 -5177)" fill="#00223d"/>
    <g id="Grupo_16022" data-name="Grupo 16022" transform="translate(-1375 -5275.673)">
      <path id="Trazado_9550" data-name="Trazado 9550" d="M2170.254,604.172H2165.2v-5.054h5.054Z" transform="translate(-2113.396 -543.523)" fill="#268c56"/>
      <path id="Trazado_9551" data-name="Trazado 9551" d="M2065.221,513.462h-5.054v-5.054h5.054Z" transform="translate(-2036.16 -476.82)" fill="#268c56"/>
      <path id="Trazado_9552" data-name="Trazado 9552" d="M2036.576,513.462h-5.054v-5.054h5.054Z" transform="translate(-2015.097 -476.82)" fill="#116035"/>
      <path id="Trazado_9553" data-name="Trazado 9553" d="M2026.608,582.523l6.318,2.527,3.791-5.054h10.108l1.374,7.581L2067.041,580l-1.264-11.372h5.054l3.791-7.581-10.108-6.318-2.222-.513.946,8.448a2.542,2.542,0,0,1-1.567,2.628l-14.051,5.648-4.8,1.933a2.561,2.561,0,0,1-1.339.139,2.182,2.182,0,0,1-.821-.278,2.514,2.514,0,0,1-1.264-1.756l-1-5.509h-6.734l-2.527,3.374-.505.67a2.539,2.539,0,0,1-2.957.834l-6.318-2.527a2.54,2.54,0,0,1-1.592-2.35v-4.41l-3.257-.934-5.84,4.371a2.51,2.51,0,0,0-.973,2.439l.677,4.064,18.238,5.211Z" transform="translate(-1997.547 -510.502)" fill="#33b575"/>
      <path id="Trazado_9554" data-name="Trazado 9554" d="M2011.47,580.908l5.84-4.37h0Z" transform="translate(-2000.351 -526.917)" fill="#48d88d"/>
      <path id="Trazado_9555" data-name="Trazado 9555" d="M2038.658,444.722l-.946-8.448-14.2-3.277-1.263-6.318-5.054-2.527,1.264-7.581-6.318-8.845,5.054-7.581-1.232-.884-.751.668.75-.668-7.612-5.433-11.372,10.108,3.791,5.054-13.9,6.318-6.318,13.9,3.791,6.318-10.108,7.581,1.263,7.581,8.3,2.37-.677-4.064a2.51,2.51,0,0,1,.973-2.439h0l5.838-4.372,2.442-1.825-2.439,1.826,3.257.934v4.41a2.54,2.54,0,0,0,1.592,2.35l6.318,2.527a2.538,2.538,0,0,0,2.957-.834l.505-.67,2.527-3.374h6.734l1,5.509a2.513,2.513,0,0,0,1.263,1.756,2.183,2.183,0,0,0,.821.278,2.561,2.561,0,0,0,1.339-.139l4.8-1.933,14.051-5.648A2.542,2.542,0,0,0,2038.658,444.722Zm-32.334-33.8h0l.818,1.09Z" transform="translate(-1972.968 -392.564)" fill="#48d88d"/>
      <path id="Trazado_9556" data-name="Trazado 9556" d="M2168.006,605.156a1.263,1.263,0,0,1-1.263,1.263h-5.054a1.263,1.263,0,1,1,0-2.527h5.054A1.263,1.263,0,0,1,2168.006,605.156Z" transform="translate(-2109.884 -547.034)" fill="#00223d"/>
      <path id="Trazado_9557" data-name="Trazado 9557" d="M2062.974,514.446a1.263,1.263,0,0,1-1.263,1.263h-5.054a1.263,1.263,0,0,1,0-2.527h5.054A1.263,1.263,0,0,1,2062.974,514.446Z" transform="translate(-2032.65 -480.331)" fill="#00223d"/>
      <path id="Trazado_9558" data-name="Trazado 9558" d="M2043.877,492.458a1.263,1.263,0,0,1-1.263,1.263h-5.054a1.263,1.263,0,0,1,0-2.527h5.054A1.263,1.263,0,0,1,2043.877,492.458Z" transform="translate(-2018.607 -464.162)" fill="#00223d"/>
      <path id="Trazado_9559" data-name="Trazado 9559" d="M1978.763,508.408a1.264,1.264,0,0,1,1.15,1.788l-1.448,3.186,3.45,5.748a1.264,1.264,0,0,1-.326,1.66l-9.494,7.12,1.011,6.036,25.762,7.362a1.264,1.264,0,0,1,.916,1.214v5.462l4.625,1.85,3.209-4.28a1.264,1.264,0,0,1,1.011-.505h10.108a1.264,1.264,0,0,1,1.244,1.039l1.1,6.055,16.515-6.645-1.157-10.418a1.263,1.263,0,0,1,1.117-1.395,1.233,1.233,0,0,1,.139-.008h4.273l2.929-5.855-8.954-5.6-2.32-.534a1.264,1.264,0,0,1,.567-2.463l2.527.582a1.255,1.255,0,0,1,.385.159l10.108,6.318a1.264,1.264,0,0,1,.461,1.643l-3.791,7.581a1.264,1.264,0,0,1-1.132.694H2039.1l1.108,9.969a1.263,1.263,0,0,1-.784,1.311l-18.843,7.581a1.264,1.264,0,0,1-1.644-.7,1.32,1.32,0,0,1-.071-.246l-1.185-6.543h-8.422l-3.411,4.549a1.264,1.264,0,0,1-1.479.416l-6.318-2.527a1.263,1.263,0,0,1-.795-1.174v-5.365l-25.618-7.32a1.264,1.264,0,0,1-.9-1.011l-1.263-7.581a1.263,1.263,0,0,1,.488-1.218l9.2-6.9-3.2-5.341a1.263,1.263,0,0,1-.067-1.174l1.723-3.791a1.263,1.263,0,0,1,1.15-.736Z" transform="translate(-1969.459 -476.82)" fill="#00223d"/>
      <path id="Trazado_9560" data-name="Trazado 9560" d="M2033.6,389.053a1.264,1.264,0,0,1,.734.235l8.844,6.318a1.263,1.263,0,0,1,.317,1.73l-4.57,6.856,5.813,8.135a1.264,1.264,0,0,1,.217.943l-1.109,6.66,4.219,2.109a1.263,1.263,0,0,1,.674.884l1.1,5.518,8.05,1.857a1.264,1.264,0,0,1-.568,2.463l-8.845-2.041a1.263,1.263,0,0,1-.955-.983l-1.137-5.712-4.5-2.25a1.264,1.264,0,0,1-.681-1.338l1.178-7.064-6.013-8.419a1.264,1.264,0,0,1-.023-1.436l4.376-6.563-7.029-5.021-9.749,8.667,3.087,4.121a1.264,1.264,0,0,1-.253,1.769,1.236,1.236,0,0,1-.234.139l-13.467,6.122-2.1,4.623a1.264,1.264,0,0,1-2.3-1.045l2.3-5.054a1.262,1.262,0,0,1,.632-.632l12.464-5.669-2.847-3.791a1.263,1.263,0,0,1,.171-1.7l11.372-10.108a1.266,1.266,0,0,1,.839-.318Z" transform="translate(-1998.225 -389.053)" fill="#00223d"/>
      <g id="Grupo_16021" data-name="Grupo 16021" transform="translate(51.672 23.163)">
        <path id="Trazado_9561" data-name="Trazado 9561" d="M2195.145,488.929c0,.053-.01.1-.01.158h3.333v-7.739h-6.747A10.071,10.071,0,0,1,2195.145,488.929Z" transform="translate(-2184.57 -480.085)" fill="#f8dc32"/>
        <path id="Trazado_9562" data-name="Trazado 9562" d="M2169.473,489.087h9.3c0-.053.01-.1.01-.158a10.072,10.072,0,0,0-3.424-7.581h-5.888Z" transform="translate(-2168.209 -480.085)" fill="#d6ae03"/>
        <path id="Trazado_9563" data-name="Trazado 9563" d="M2165.962,501.213a1.264,1.264,0,0,1-1.263-1.263V477.837a1.264,1.264,0,0,1,2.527,0v22.112A1.264,1.264,0,0,1,2165.962,501.213Z" transform="translate(-2164.699 -476.574)" fill="#00223d"/>
        <path id="Trazado_9564" data-name="Trazado 9564" d="M2178.6,486.682h-12.635a1.263,1.263,0,0,1-1.263-1.263v-7.581a1.263,1.263,0,0,1,1.263-1.263h3.791a1.263,1.263,0,1,1,0,2.527h-2.527v5.054h10.108V479.1h-2.527a1.263,1.263,0,0,1,0-2.527h3.791a1.264,1.264,0,0,1,1.263,1.263v7.581A1.264,1.264,0,0,1,2178.6,486.682Z" transform="translate(-2164.699 -476.574)" fill="#00223d"/>
      </g>
      <path id="Trazado_9565" data-name="Trazado 9565" d="M2113.947,580.022h1.263a1.263,1.263,0,0,1,0,2.527h-1.263a1.263,1.263,0,1,1,0-2.527Z" transform="translate(-2074.778 -529.481)" fill="#00223d"/>
    </g>
  </g>
</svg>
