<svg xmlns="http://www.w3.org/2000/svg" width="124.492" height="122.5" viewBox="0 0 124.492 122.5">
  <g id="Grupo_16493" data-name="Grupo 16493" transform="translate(-975.508 -2319.5)">
    <g id="Layer_1" data-name="Layer 1" transform="translate(-173.553 1489.134)">
      <g id="Grupo_15954" data-name="Grupo 15954" transform="translate(1149.061 830.366)">
        <path id="Trazado_9323" data-name="Trazado 9323" d="M1272.452,835.326V915.28h-5.394a7.63,7.63,0,0,1-1.123-.085,7.819,7.819,0,0,1-5.158-3.073l-3-4.026a7.827,7.827,0,0,0-6.281-3.153H1242.6a7.025,7.025,0,0,0-4.216-1.414h-15.666a10.019,10.019,0,0,0-7.154,3L1213.142,909a10.023,10.023,0,0,1-6.031,2.938,9.252,9.252,0,0,1-1.123.065h-5.394V835.326a2.507,2.507,0,0,1,2.506-2.507h66.844a2.507,2.507,0,0,1,2.507,2.507Z" transform="translate(-1174.276 -831.567)" fill="#f0c020"/>
        <path id="Trazado_9324" data-name="Trazado 9324" d="M1272.178,845.581v75.858a7.819,7.819,0,0,1-5.158-3.073l-3-4.026a7.827,7.827,0,0,0-6.281-3.153h-8.893a7.024,7.024,0,0,0-4.216-1.414h-15.666a10.019,10.019,0,0,0-7.154,3l-2.426,2.471a10.022,10.022,0,0,1-6.031,2.937v-72.6Z" transform="translate(-1180.521 -837.811)" fill="#efefef"/>
        <path id="Trazado_9325" data-name="Trazado 9325" d="M1363.879,981.654h13.533v43.985h-13.533Z" transform="translate(-1254.173 -904.393)" fill="#36687a"/>
        <path id="Trazado_9326" data-name="Trazado 9326" d="M1151.515,975.229h13.533v43.986h-13.533Z" transform="translate(-1150.261 -901.249)" fill="#f9a825"/>
        <path id="Trazado_9327" data-name="Trazado 9327" d="M1272.654,983.029v31.086h-13.53a10.039,10.039,0,0,0-4.382,1.008l-4.9,2.381a10.071,10.071,0,0,1-4.382,1.008H1217.9a4.443,4.443,0,0,1-4.2-3h-4.121a9.856,9.856,0,0,1-6.371-2.336,9.842,9.842,0,0,0-6.372-2.341h-5.74V979.75h10.242a9.243,9.243,0,0,0,1.123-.065,10.022,10.022,0,0,0,6.031-2.937l2.426-2.471a10.02,10.02,0,0,1,7.154-3h15.666a7.025,7.025,0,0,1,4.216,1.414h8.893a7.828,7.828,0,0,1,6.281,3.153l3,4.026a7.819,7.819,0,0,0,5.158,3.073,7.654,7.654,0,0,0,1.123.085Z" transform="translate(-1169.631 -899.315)" fill="#ffb69f"/>
        <path id="Trazado_9328" data-name="Trazado 9328" d="M1350.79,988.312v35.714a1.5,1.5,0,0,0,1.5,1.5h5.181V986.808h-5.181A1.5,1.5,0,0,0,1350.79,988.312Z" transform="translate(-1247.769 -906.914)" fill="#efefef"/>
        <path id="Trazado_9329" data-name="Trazado 9329" d="M1184.7,1017.6V981.887a1.5,1.5,0,0,0-1.5-1.5h-5.181V1019.1h5.181A1.5,1.5,0,0,0,1184.7,1017.6Z" transform="translate(-1163.228 -903.771)" fill="#efefef"/>
        <path id="Trazado_9330" data-name="Trazado 9330" d="M1269.821,887.116l-5.156,1.087.562,5.234a2.445,2.445,0,0,1-3.429,2.492l-1.3-.583-3.5-1.57-2.624,4.568a2.444,2.444,0,0,1-4.239,0l-2.625-4.568-3.5,1.57-1.3.583a2.444,2.444,0,0,1-3.428-2.492l.561-5.234-5.157-1.087a2.445,2.445,0,0,1-1.308-4.031l3.531-3.9-3.531-3.907a2.444,2.444,0,0,1,1.311-4.031l5.155-1.084-.561-5.238a2.444,2.444,0,0,1,3.429-2.491l4.805,2.151,2.625-4.566a2.444,2.444,0,0,1,4.238,0l2.624,4.566,4.805-2.151a2.445,2.445,0,0,1,3.429,2.491l-.562,5.238,5.155,1.084a2.444,2.444,0,0,1,1.31,4.031l-3.531,3.907,3.531,3.9A2.444,2.444,0,0,1,1269.821,887.116Z" transform="translate(-1190.003 -844.274)" fill="#f0c020"/>
        <path id="Trazado_9331" data-name="Trazado 9331" d="M1271.292,928.867V943.45a.908.908,0,0,1-1.506.682l-6.74-5.923-6.74,5.924a.908.908,0,0,1-1.507-.682V928.868l3.5-1.57,2.625,4.568a2.444,2.444,0,0,0,4.239,0l2.624-4.568Z" transform="translate(-1200.799 -877.796)" fill="#fc5d3d"/>
        <circle id="Elipse_649" data-name="Elipse 649" cx="9.431" cy="9.431" r="9.431" transform="translate(52.816 25.476)" fill="#72c2e9"/>
        <path id="Trazado_9332" data-name="Trazado 9332" d="M1266.434,899.292a1.253,1.253,0,0,1,.886-1.535,3.774,3.774,0,0,0,1.688-6.313,1.253,1.253,0,0,1,1.773-1.772,6.281,6.281,0,0,1-2.811,10.507,1.254,1.254,0,0,1-1.536-.886Zm-4.305-.522q-.118-.107-.231-.22a1.253,1.253,0,0,1,1.776-1.769c.044.045.091.088.137.13a1.253,1.253,0,0,1-1.682,1.858Z" transform="translate(-1204.095 -859.205)" fill="#c5e5ff"/>
        <g id="Grupo_15953" data-name="Grupo 15953">
          <path id="Trazado_9333" data-name="Trazado 9333" d="M1267.633,1026.574h-6.016a1.253,1.253,0,0,0,0,2.507h6.016a1.253,1.253,0,0,0,0-2.507Z" transform="translate(-1203.522 -926.372)" fill="#00223d"/>
          <circle id="Elipse_650" data-name="Elipse 650" cx="1.253" cy="1.253" r="1.253" transform="translate(51.828 100.201)" fill="#00223d"/>
          <path id="Trazado_9334" data-name="Trazado 9334" d="M1272.3,950.359h-12.28V908.88h12.28a1.253,1.253,0,0,0,0-2.506h-13.533a1.253,1.253,0,0,0-1.253,1.253v1.379h-3.926a2.762,2.762,0,0,0-2.757,2.757v1.063h-2.341v-78.7a3.765,3.765,0,0,0-3.76-3.76h-66.845a3.768,3.768,0,0,0-3.76,3.76v31.557a1.253,1.253,0,1,0,2.506,0V834.126a1.253,1.253,0,0,1,1.253-1.253h66.844a1.254,1.254,0,0,1,1.254,1.253v78.7h-4.01v-74.69a1.253,1.253,0,0,0-1.254-1.253H1181.9a1.253,1.253,0,0,0-1.254,1.253v71.411h-4.01V875.709a1.253,1.253,0,1,0-2.506,0v33.838h-2.339v-1.065a2.761,2.761,0,0,0-2.757-2.757H1165.1v-1.379a1.253,1.253,0,0,0-1.253-1.253h-13.533a1.253,1.253,0,0,0,0,2.507h12.28v41.479h-12.28a1.253,1.253,0,0,0,0,2.506h13.533a1.253,1.253,0,0,0,1.253-1.253v-1.379h3.928a2.76,2.76,0,0,0,2.757-2.757v-1.06h4.485a8.558,8.558,0,0,1,5.561,2.044,11.117,11.117,0,0,0,7.182,2.634h3.3a5.686,5.686,0,0,0,5.013,3h27.562a11.383,11.383,0,0,0,4.93-1.134l4.9-2.381a8.846,8.846,0,0,1,3.834-.881h12.277v1.057a2.762,2.762,0,0,0,2.757,2.757h3.926v1.378a1.253,1.253,0,0,0,1.253,1.254H1272.3a1.254,1.254,0,0,0,0-2.507ZM1169.279,944.2a.251.251,0,0,1-.25.251H1165.1V908.231h3.928a.251.251,0,0,1,.25.251Zm13.87-104.806h56.317V912.37a6.624,6.624,0,0,1-2.9-2.2l-3-4.026a9.125,9.125,0,0,0-7.286-3.657h-8.494a8.33,8.33,0,0,0-4.615-1.414h-15.666a11.344,11.344,0,0,0-8.048,3.374l-2.426,2.471a8.792,8.792,0,0,1-3.883,2.293V839.389Zm8.5,105.917h-2.638a8.6,8.6,0,0,1-5.557-2.036,11.066,11.066,0,0,0-7.186-2.641h-4.485V912.054h8.986a11.347,11.347,0,0,0,8.048-3.378l2.426-2.472a8.823,8.823,0,0,1,6.259-2.622h15.666a5.836,5.836,0,0,1,4.851,2.634l.007.011.009.013,4.472,6.734a3.244,3.244,0,1,1-5.407,3.586l-2.1-3.173a1.254,1.254,0,0,0-1.044-.56h-20.108a29.006,29.006,0,0,1-10.618,14.558,50.2,50.2,0,0,1,8.4,14.563h1.011a5.519,5.519,0,0,0-.99,3.359Zm65.862,2.421h-3.926a.252.252,0,0,1-.251-.251V929.284a1.253,1.253,0,0,0-2.506-.01v14.638h-12.277a11.355,11.355,0,0,0-4.929,1.133l-4.9,2.38a8.858,8.858,0,0,1-3.836.883H1197.33a3.176,3.176,0,0,1-3.17-3.381,3.265,3.265,0,0,1,3.331-2.981c.013,0,.026,0,.039,0h16a1.253,1.253,0,0,0,0-2.506c-.192,0-21.729,0-21.921,0a3.182,3.182,0,0,1,.026-6.365h5.5a1.253,1.253,0,1,0,0-2.506h-8.211a3.183,3.183,0,0,1,0-6.367c9.671.01-2.227,0,24.254,0a1.253,1.253,0,0,0,0-2.506c-.2,0-19.159,0-19.361,0a3.183,3.183,0,0,1,.036-6.365h19.435l1.73,2.608a5.751,5.751,0,1,0,9.587-6.354L1220.222,905h6.06a6.606,6.606,0,0,1,5.276,2.648l3,4.026a9.157,9.157,0,0,0,7.286,3.662h8.989v3.925a1.253,1.253,0,1,0,2.506,0v-7.494a.248.248,0,0,1,.251-.251h3.926Z" transform="translate(-1149.061 -830.366)" fill="#00223d"/>
          <circle id="Elipse_651" data-name="Elipse 651" cx="1.253" cy="1.253" r="1.253" transform="translate(101.769 92.652)" fill="#00223d"/>
          <path id="Trazado_9335" data-name="Trazado 9335" d="M1234.008,877.978l-2.771,3.064a3.7,3.7,0,0,0,1.979,6.1l4.048.853-.441,4.107a3.7,3.7,0,0,0,4.723,3.941v12.685a2.161,2.161,0,0,0,3.588,1.622l5.913-5.2,5.914,5.2a2.161,2.161,0,0,0,3.587-1.622V896.041a3.7,3.7,0,0,0,4.723-3.941l-.441-4.107,4.048-.853a3.7,3.7,0,0,0,1.979-6.1l-2.771-3.064,2.771-3.067a3.7,3.7,0,0,0-1.982-6.1l-4.046-.851.441-4.111a3.7,3.7,0,0,0-5.187-3.769l-3.771,1.688-2.059-3.583a3.7,3.7,0,0,0-6.411,0l-2.06,3.583-3.771-1.688a3.7,3.7,0,0,0-5.187,3.769l.441,4.111-4.046.851a3.7,3.7,0,0,0-1.983,6.1Zm24.033,29.984-6.167-5.419a1.254,1.254,0,0,0-1.655,0l-6.167,5.419V894.955l1.728-.774,2.06,3.585a3.7,3.7,0,0,0,6.412,0l2.059-3.585,1.728.774v13.007Zm-24.307-36.7,5.155-1.084a1.253,1.253,0,0,0,.988-1.359l-.562-5.238a1.191,1.191,0,0,1,1.671-1.214l4.8,2.151a1.253,1.253,0,0,0,1.6-.519l2.624-4.565a1.19,1.19,0,0,1,2.065,0L1254.7,864a1.253,1.253,0,0,0,1.6.519l4.805-2.151a1.19,1.19,0,0,1,1.67,1.214l-.561,5.238a1.253,1.253,0,0,0,.988,1.36l5.155,1.084a1.19,1.19,0,0,1,.638,1.964l-3.531,3.907a1.255,1.255,0,0,0,0,1.681l3.53,3.9a1.191,1.191,0,0,1-.637,1.964l-5.156,1.087a1.253,1.253,0,0,0-.988,1.36l.561,5.234a1.19,1.19,0,0,1-1.67,1.214l-4.8-2.152a1.255,1.255,0,0,0-1.6.52l-2.624,4.568a1.19,1.19,0,0,1-2.065,0l-2.624-4.568a1.26,1.26,0,0,0-1.6-.52l-4.8,2.152a1.191,1.191,0,0,1-1.671-1.214l.562-5.234a1.253,1.253,0,0,0-.988-1.36l-5.156-1.087a1.191,1.191,0,0,1-.637-1.964l3.531-3.9a1.254,1.254,0,0,0,0-1.681l-3.531-3.907a1.19,1.19,0,0,1,.638-1.964Z" transform="translate(-1188.802 -843.071)" fill="#00223d"/>
          <path id="Trazado_9336" data-name="Trazado 9336" d="M1260.711,899.166a10.684,10.684,0,1,0-10.684-10.684,10.7,10.7,0,0,0,10.684,10.684Zm0-18.861a8.177,8.177,0,1,1-8.177,8.177A8.187,8.187,0,0,1,1260.711,880.3Z" transform="translate(-1198.465 -853.575)" fill="#00223d"/>
          <circle id="Elipse_652" data-name="Elipse 652" cx="1.253" cy="1.253" r="1.253" transform="translate(25.064 39.077)" fill="#00223d"/>
        </g>
      </g>
    </g>
  </g>
</svg>
