<svg xmlns="http://www.w3.org/2000/svg" width="200" height="168" viewBox="0 0 200 168">
  <g id="Grupo_16488" data-name="Grupo 16488" transform="translate(1324 5483)">
    <path id="Trazado_25636" data-name="Trazado 25636" d="M9,0H191a9,9,0,0,1,9,9V159a9,9,0,0,1-9,9H9a9,9,0,0,1-9-9V9A9,9,0,0,1,9,0Z" transform="translate(-1324 -5483)" fill="#f3ff7e"/>
    <path id="Trazado_25637" data-name="Trazado 25637" d="M9.253,4.625a3.664,3.664,0,0,1,1.938.514,3.473,3.473,0,0,1,1.3,1.375,4.036,4.036,0,0,1,.453,1.907,3.755,3.755,0,0,1-1.024,2.694,3.514,3.514,0,0,1-2.667,1.077H6.142V17H4.569V4.625Zm-.229,6.2a2.25,2.25,0,0,0,1.723-.664A2.455,2.455,0,0,0,11.372,8.4a2.463,2.463,0,0,0-.624-1.745,2.234,2.234,0,0,0-1.723-.672H6.142v4.834Zm7.77-.94a2.612,2.612,0,0,1,1.072-1.16,3.229,3.229,0,0,1,1.661-.457V9.7a2.846,2.846,0,0,0-2.008.642,2.68,2.68,0,0,0-.69,2.048V17H15.309V8.36h1.485Zm8.051,7.286a4.554,4.554,0,0,1-2.215-.536,3.9,3.9,0,0,1-1.56-1.569,4.819,4.819,0,0,1-.576-2.386,4.4,4.4,0,0,1,1.226-3.256,4.232,4.232,0,0,1,3.125-1.226,4.228,4.228,0,0,1,3.129,1.226A4.41,4.41,0,0,1,29.2,12.676a4.413,4.413,0,0,1-1.226,3.265A4.232,4.232,0,0,1,24.845,17.167ZM24.836,15.9a2.654,2.654,0,0,0,2.043-.888,3.326,3.326,0,0,0,.813-2.338,3.314,3.314,0,0,0-.813-2.329,2.654,2.654,0,0,0-2.043-.888,2.617,2.617,0,0,0-2.026.888,3.336,3.336,0,0,0-.8,2.329,3.348,3.348,0,0,0,.8,2.338A2.617,2.617,0,0,0,24.836,15.9Zm13-7.541h1.477v8.2A4.706,4.706,0,0,1,38.2,19.927,4.058,4.058,0,0,1,35.1,21.1a4.084,4.084,0,0,1-4.192-2.646l1.257-.615a2.856,2.856,0,0,0,2.892,2A2.48,2.48,0,0,0,37.084,19a3.591,3.591,0,0,0,.7-2.355v-1.6a3.045,3.045,0,0,1-1.23,1.244,3.58,3.58,0,0,1-1.8.47,3.7,3.7,0,0,1-2.795-1.217A4.293,4.293,0,0,1,30.8,12.465,4.253,4.253,0,0,1,31.96,9.4a3.74,3.74,0,0,1,2.808-1.208,3.49,3.49,0,0,1,1.811.483A3.112,3.112,0,0,1,37.8,9.951Zm-2.742,7.1a2.614,2.614,0,0,0,1.991-.888,3.136,3.136,0,0,0,0-4.228A2.708,2.708,0,0,0,33.1,10.32a3,3,0,0,0-.813,2.145,2.978,2.978,0,0,0,.822,2.131A2.634,2.634,0,0,0,35.093,15.462Zm8.8-5.581a2.612,2.612,0,0,1,1.072-1.16,3.229,3.229,0,0,1,1.661-.457V9.7a2.846,2.846,0,0,0-2.008.642,2.68,2.68,0,0,0-.69,2.048V17H42.406V8.36h1.485Zm11.971,2.628-.018.413h-6.75a3.053,3.053,0,0,0,.826,2.21,2.713,2.713,0,0,0,1.969.769,2.59,2.59,0,0,0,1.433-.413,2.68,2.68,0,0,0,.984-1.143l1.371.29A3.9,3.9,0,0,1,54.2,16.49a4.028,4.028,0,0,1-2.294.677,4.174,4.174,0,0,1-3.111-1.2,4.479,4.479,0,0,1-1.187-3.287A4.458,4.458,0,0,1,48.8,9.4a4.122,4.122,0,0,1,3.063-1.2,3.9,3.9,0,0,1,2.9,1.107A4.376,4.376,0,0,1,55.862,12.509Zm-4-3.146a2.694,2.694,0,0,0-1.8.611,2.8,2.8,0,0,0-.91,1.78h5.177a2.567,2.567,0,0,0-.756-1.78A2.441,2.441,0,0,0,51.863,9.362Zm9.114,7.8a4.1,4.1,0,0,1-2.329-.624,2.581,2.581,0,0,1-1.134-1.775l1.327-.378a1.851,1.851,0,0,0,.708,1.2,2.3,2.3,0,0,0,1.419.426A2.832,2.832,0,0,0,61.8,15.9a1.331,1.331,0,0,0,.637-.426,1.189,1.189,0,0,0,.185-1.143,1.526,1.526,0,0,0-.141-.286.87.87,0,0,0-.246-.237,3.245,3.245,0,0,0-.3-.185,3.067,3.067,0,0,0-.391-.163q-.259-.092-.417-.141t-.483-.141q-.325-.092-.5-.145a9.372,9.372,0,0,1-.9-.316,3.932,3.932,0,0,1-.729-.417,1.679,1.679,0,0,1-.567-.681,2.3,2.3,0,0,1-.189-.967,2.234,2.234,0,0,1,.422-1.38,2.374,2.374,0,0,1,1.094-.813,4.374,4.374,0,0,1,1.534-.25,3.754,3.754,0,0,1,2.1.563,2.4,2.4,0,0,1,1.05,1.688l-1.248.316a1.655,1.655,0,0,0-.659-1.094,2.1,2.1,0,0,0-1.239-.365,2.139,2.139,0,0,0-1.16.3,1.019,1.019,0,0,0-.483.927.923.923,0,0,0,.127.479,1.521,1.521,0,0,0,.259.338,1.594,1.594,0,0,0,.475.259q.343.136.51.185t.633.163q.088.026.132.035.51.132.831.233a5.105,5.105,0,0,1,.747.316,2.484,2.484,0,0,1,.672.47,2.178,2.178,0,0,1,.422.668,2.358,2.358,0,0,1,.176.932,2.516,2.516,0,0,1-.259,1.165,2.028,2.028,0,0,1-.708.8,3.422,3.422,0,0,1-1.006.435A4.8,4.8,0,0,1,60.977,17.167Zm9.211,0a4.554,4.554,0,0,1-2.215-.536,3.9,3.9,0,0,1-1.56-1.569,4.819,4.819,0,0,1-.576-2.386,4.4,4.4,0,0,1,1.226-3.256,4.6,4.6,0,0,1,6.253,0,4.41,4.41,0,0,1,1.222,3.256,4.413,4.413,0,0,1-1.226,3.265A4.232,4.232,0,0,1,70.188,17.167ZM70.179,15.9a2.654,2.654,0,0,0,2.043-.888,3.326,3.326,0,0,0,.813-2.338,3.314,3.314,0,0,0-.813-2.329,2.654,2.654,0,0,0-2.043-.888,2.617,2.617,0,0,0-2.026.888,3.336,3.336,0,0,0-.8,2.329,3.348,3.348,0,0,0,.8,2.338A2.617,2.617,0,0,0,70.179,15.9Z" transform="translate(-1263 -5358.673)" fill="#00223d"/>
    <g id="Grupo_15975" data-name="Grupo 15975" transform="translate(-3437.703 -6111.608)">
      <g id="Grupo_15973" data-name="Grupo 15973" transform="translate(2177.027 655.932)">
        <g id="Grupo_15965" data-name="Grupo 15965" transform="translate(50.476 0)">
          <path id="Trazado_9437" data-name="Trazado 9437" d="M2373.475,705.271v-41.15a4.7,4.7,0,0,0-4.6-4.7,4.78,4.78,0,0,0-4.792,4.8v40.348a4.7,4.7,0,0,0,4.7,4.7H2376a.373.373,0,0,0,.2-.689C2375.027,707.86,2373.475,706.646,2373.475,705.271Z" transform="translate(-2364.081 -659.423)" fill="#cc3a60"/>
        </g>
        <g id="Grupo_15966" data-name="Grupo 15966" transform="translate(0 8.538)">
          <path id="Trazado_9438" data-name="Trazado 9438" d="M2262.815,692.833v31.375h-18.74a4.272,4.272,0,0,1-4.273-4.272v-2.262h-11.4v-21.2h11.4V695.3a4.828,4.828,0,0,1,4.827-4.829h18.185Z" transform="translate(-2215.233 -690.471)" fill="#f9c295"/>
          <path id="Trazado_9439" data-name="Trazado 9439" d="M2239.8,775.249v-2.262h-11.4V777.5h11.4v2.262a4.272,4.272,0,0,0,4.272,4.272h18.74v-4.512h-18.74A4.272,4.272,0,0,1,2239.8,775.249Z" transform="translate(-2215.234 -750.297)" fill="#e59f6a"/>
          <path id="Trazado_9440" data-name="Trazado 9440" d="M2230.531,703.215v23.692a1.727,1.727,0,0,1-1.727,1.726h-5.483V701.489h5.483A1.727,1.727,0,0,1,2230.531,703.215Z" transform="translate(-2211.551 -698.459)" fill="#ebeef2"/>
          <path id="Trazado_9441" data-name="Trazado 9441" d="M2228.8,780.63h-5.483v4.13h5.483a1.727,1.727,0,0,0,1.727-1.726V778.9A1.726,1.726,0,0,1,2228.8,780.63Z" transform="translate(-2211.551 -754.587)" fill="#d1d6de"/>
          <path id="Trazado_9442" data-name="Trazado 9442" d="M2185.45,724.819h6.839v-31.8h-11.77Z" transform="translate(-2180.519 -692.315)" fill="#656d88"/>
          <path id="Trazado_9443" data-name="Trazado 9443" d="M2196.094,793.464l.648,4.182h6.839v-4.182Z" transform="translate(-2191.811 -765.143)" fill="#444966"/>
        </g>
        <g id="Grupo_15967" data-name="Grupo 15967" transform="translate(8.753 49.503)">
          <path id="Trazado_9444" data-name="Trazado 9444" d="M2216.382,839.725a4.82,4.82,0,0,1-3.754,3.753.4.4,0,0,0,0,.764,4.82,4.82,0,0,1,3.754,3.753.4.4,0,0,0,.764,0,4.82,4.82,0,0,1,3.753-3.753.4.4,0,0,0,0-.764,4.82,4.82,0,0,1-3.753-3.753A.4.4,0,0,0,2216.382,839.725Z" transform="translate(-2212.35 -839.446)" fill="#f2df33"/>
        </g>
        <g id="Grupo_15968" data-name="Grupo 15968" transform="translate(64.524 72.155)">
          <path id="Trazado_9445" data-name="Trazado 9445" d="M2419.2,922.1a4.821,4.821,0,0,1-3.753,3.754.4.4,0,0,0,0,.764,4.82,4.82,0,0,1,3.753,3.753.4.4,0,0,0,.763,0,4.82,4.82,0,0,1,3.754-3.753.4.4,0,0,0,0-.764,4.821,4.821,0,0,1-3.754-3.754A.4.4,0,0,0,2419.2,922.1Z" transform="translate(-2415.168 -921.822)" fill="#5c9cee"/>
        </g>
        <g id="Grupo_15969" data-name="Grupo 15969" transform="translate(64.524 26.588)">
          <path id="Trazado_9446" data-name="Trazado 9446" d="M2419.2,756.389a4.821,4.821,0,0,1-3.753,3.754.4.4,0,0,0,0,.764,4.82,4.82,0,0,1,3.753,3.754.4.4,0,0,0,.763,0,4.82,4.82,0,0,1,3.754-3.754.4.4,0,0,0,0-.764,4.82,4.82,0,0,1-3.754-3.754A.4.4,0,0,0,2419.2,756.389Z" transform="translate(-2415.168 -756.111)" fill="#ebeef2"/>
        </g>
        <path id="Trazado_9447" data-name="Trazado 9447" d="M2322.673,659.423a4.7,4.7,0,0,0-4.7,4.7v56.83h-17.486v-56.83a4.7,4.7,0,0,1,4.7-4.7Z" transform="translate(-2267.501 -659.423)" fill="#5c9cee"/>
        <path id="Trazado_9448" data-name="Trazado 9448" d="M2345.724,659.423a4.7,4.7,0,0,0-4.7,4.7v56.83h-8.743v-56.83a4.7,4.7,0,0,1,4.7-4.7Z" transform="translate(-2290.552 -659.423)" fill="#ed5575"/>
        <g id="Grupo_15970" data-name="Grupo 15970" transform="translate(23.078 50.422)">
          <circle id="Elipse_661" data-name="Elipse 661" cx="18.656" cy="18.656" r="18.656" fill="#fcab29"/>
          <path id="Trazado_9449" data-name="Trazado 9449" d="M2307.284,851.62a18.657,18.657,0,0,1-22.184,29.63,18.656,18.656,0,1,0,22.184-29.63Z" transform="translate(-2279.42 -849.191)" fill="#dd8d19"/>
          <path id="Trazado_9450" data-name="Trazado 9450" d="M2304.341,892.942l-4.114,1.288a1.894,1.894,0,0,1-2.46-1.788l-.046-4.311a1.9,1.9,0,0,0-.35-1.077l-2.5-3.515a1.894,1.894,0,0,1,.94-2.893l4.085-1.376a1.893,1.893,0,0,0,.916-.665l2.572-3.46a1.894,1.894,0,0,1,3.041,0l2.571,3.46a1.9,1.9,0,0,0,.916.665l4.086,1.376a1.9,1.9,0,0,1,.94,2.893l-2.5,3.515a1.9,1.9,0,0,0-.35,1.077l-.046,4.311a1.894,1.894,0,0,1-2.46,1.788l-4.114-1.288A1.9,1.9,0,0,0,2304.341,892.942Z" transform="translate(-2286.251 -865.693)" fill="#f2df33"/>
        </g>
        <g id="Grupo_15972" data-name="Grupo 15972" transform="translate(24.57 8.538)">
          <g id="Grupo_15971" data-name="Grupo 15971" transform="translate(15.403 2.362)">
            <path id="Trazado_9451" data-name="Trazado 9451" d="M2342.026,788.557a3.922,3.922,0,0,1-3.922,3.922h-8.3a3.922,3.922,0,1,1,0-7.844h8.3A3.922,3.922,0,0,1,2342.026,788.557Z" transform="translate(-2325.883 -761.104)" fill="#f4b07d"/>
            <path id="Trazado_9452" data-name="Trazado 9452" d="M2342.026,760.033a3.922,3.922,0,0,1-3.922,3.922h-8.3a3.922,3.922,0,1,1,0-7.844h8.3A3.922,3.922,0,0,1,2342.026,760.033Z" transform="translate(-2325.883 -740.424)" fill="#fcd0ae"/>
            <path id="Trazado_9453" data-name="Trazado 9453" d="M2342.026,731.508a3.922,3.922,0,0,1-3.922,3.922h-8.3a3.922,3.922,0,0,1,0-7.844h8.3A3.922,3.922,0,0,1,2342.026,731.508Z" transform="translate(-2325.883 -719.742)" fill="#ef9e67"/>
            <path id="Trazado_9454" data-name="Trazado 9454" d="M2342.026,702.984a3.922,3.922,0,0,1-3.922,3.922h-8.3a3.922,3.922,0,0,1,0-7.844h8.3A3.922,3.922,0,0,1,2342.026,702.984Z" transform="translate(-2325.883 -699.062)" fill="#fcd0ae"/>
          </g>
          <path id="Trazado_9455" data-name="Trazado 9455" d="M2290.907,690.472h2.062a3.176,3.176,0,0,1,3.176,3.176v13.408a1.465,1.465,0,0,1-1.465,1.465h-1.9a4.648,4.648,0,0,1-4.648-4.648v-5.2h-3.778a1.454,1.454,0,0,0-1.454,1.454v.782a6.848,6.848,0,0,1-6.849,6.848h-1.124c-1.986,0-5.059-2.249-5.059-6.848V695.3a4.827,4.827,0,0,1,4.827-4.829h16.209Z" transform="translate(-2269.87 -690.471)" fill="#f9c295"/>
        </g>
      </g>
      <g id="Grupo_15974" data-name="Grupo 15974" transform="translate(2175.703 654.608)">
        <path id="Trazado_9456" data-name="Trazado 9456" d="M2232.325,705.778a1.324,1.324,0,0,0,1.324,1.324h5.771a1.7,1.7,0,0,0,.891-3.141c-1.544-.949-2.092-1.768-2.092-2.18V660.63a6.052,6.052,0,0,0-5.9-6.02h-.092l-.03,0h-17.487a6.027,6.027,0,0,0-6.02,6.021v2.516h-2.268a6.179,6.179,0,0,0-5.092,2.7c-.068.1-.133.2-.2.3a6.141,6.141,0,0,0-.863,2.994h-2.947a3.053,3.053,0,0,0-3.048-2.971h-4.158v-1.006a1.324,1.324,0,0,0-1.324-1.324h-11.77a1.324,1.324,0,0,0,0,2.648h10.446v29.156h-5.515a1.324,1.324,0,0,0,0,2.648h6.839a1.324,1.324,0,0,0,1.324-1.324v-1.006h4.158a3.052,3.052,0,0,0,3.048-2.971h2.946v.939a5.6,5.6,0,0,0,5.6,5.6h2.824v8.228a19.977,19.977,0,1,0,24.2,31.37,1.324,1.324,0,1,0-1.874-1.871,17.293,17.293,0,1,1,2.963-3.963,1.324,1.324,0,0,0,2.325,1.268,19.982,19.982,0,0,0-7.485-26.8v-8.228h.393a5.242,5.242,0,0,0,3.479-9.168,5.235,5.235,0,0,0,0-7.844,5.236,5.236,0,0,0,0-7.844,5.242,5.242,0,0,0-3.478-9.167h-.394v-4.785a3.544,3.544,0,0,1,1.062-2.5,3.326,3.326,0,0,1,2.04-.95l.077,0c.088-.005.175-.01.263-.009a3.391,3.391,0,0,1,3.3,3.373v41.15a4,4,0,0,0,1.153,2.674h-3.077A1.324,1.324,0,0,0,2232.325,705.778Zm-17.613-48.522h3.759a5.967,5.967,0,0,0-1.035,3.373,1.324,1.324,0,1,0,2.648,0,3.367,3.367,0,0,1,3.372-3.373h3.753a6.13,6.13,0,0,0-.41.717l-.037.076c-.042.09-.083.182-.121.275-.022.054-.044.107-.065.161q-.054.142-.1.287c-.013.04-.026.079-.038.12-.036.119-.07.238-.1.359,0,.02-.009.041-.013.061q-.04.175-.068.353c0,.024-.009.048-.012.073q-.029.2-.045.4l-.006.08c-.009.139-.015.277-.015.417v.084c0,.007,0,.013,0,.02s0,.007,0,.01V663.4a4.477,4.477,0,0,0-1.484-.253h-13.354v-2.516A3.376,3.376,0,0,1,2214.713,657.256Zm-20.029,35.661a.4.4,0,0,1-.4.4h-4.158v-24.5h4.158a.4.4,0,0,1,.4.4Zm11.185,3.965a2.95,2.95,0,0,1-2.948-2.948v-2.263a1.324,1.324,0,0,0-1.324-1.324h-4.266V671.795h4.266a1.324,1.324,0,0,0,1.324-1.324V669.3a3.5,3.5,0,0,1,3.218-3.493c.094-.007.189-.013.285-.013H2224.7a1.854,1.854,0,0,1,1.852,1.852v7.012c0,.006,0,.011,0,.017s0,.011,0,.017v6.362a.141.141,0,0,1-.136.14h-1.92a3.327,3.327,0,0,1-3.307-3.323v-5.2a1.324,1.324,0,0,0-1.324-1.324h-3.778a2.781,2.781,0,0,0-2.778,2.778v.782a5.531,5.531,0,0,1-5.525,5.525,1.324,1.324,0,0,0,0,2.648,8.188,8.188,0,0,0,.913-.052v13.851h-2.824Zm12.668-19.31v.3a5.934,5.934,0,0,0,.6,2.609,2.584,2.584,0,0,1-.6-2.908Zm7.643,28.887a19.837,19.837,0,0,0-6.1-1.384V702.8a1.324,1.324,0,1,0-2.648,0v2.275a19.835,19.835,0,0,0-6.1,1.384V682.266a8.182,8.182,0,0,0,4.611-7.354v-.782a.13.13,0,0,1,.13-.13h.721a5.29,5.29,0,0,0,.642.678,5.231,5.231,0,0,0,0,7.841,5.235,5.235,0,0,0,0,7.844,5.242,5.242,0,0,0,3.478,9.168h5.258v6.929Zm5.638-12.175a2.6,2.6,0,0,1-2.6,2.6h-8.3a2.6,2.6,0,0,1,0-5.2h8.3A2.6,2.6,0,0,1,2231.818,694.285Zm-10.9-5.246a2.6,2.6,0,0,1,0-5.2h8.3a2.6,2.6,0,0,1,0,5.2Zm10.9-10.441a2.6,2.6,0,0,1-2.6,2.6h-.032c0-.047.007-.093.007-.14V676h.025A2.6,2.6,0,0,1,2231.818,678.6Zm0-7.845a2.6,2.6,0,0,1-2.6,2.6h-.025v-5.2h.025A2.6,2.6,0,0,1,2231.818,670.753Z" transform="translate(-2175.703 -654.608)" fill="#00223d"/>
        <path id="Trazado_9457" data-name="Trazado 9457" d="M2217.812,838.726a3.549,3.549,0,0,1-2.9-2.9,1.719,1.719,0,0,0-1.643-1.2h0a1.719,1.719,0,0,0-1.642,1.2,3.549,3.549,0,0,1-2.9,2.9,1.725,1.725,0,0,0,0,3.285,3.548,3.548,0,0,1,2.9,2.9,1.718,1.718,0,0,0,1.642,1.2h0a1.719,1.719,0,0,0,1.643-1.2,3.548,3.548,0,0,1,2.9-2.9,1.725,1.725,0,0,0,0-3.285Zm-3.66-2.089Zm-.879,5.461a5.157,5.157,0,0,0-1.729-1.729,1.729,1.729,0,1,1,3.458,0A5.157,5.157,0,0,0,2213.273,842.1Z" transform="translate(-2198.782 -785.128)" fill="#00223d"/>
        <path id="Trazado_9458" data-name="Trazado 9458" d="M2420.631,921.1a3.548,3.548,0,0,1-2.9-2.9,1.725,1.725,0,0,0-3.285,0h0a3.549,3.549,0,0,1-2.9,2.9,1.725,1.725,0,0,0,0,3.286,3.55,3.55,0,0,1,2.9,2.9,1.725,1.725,0,0,0,3.285,0,3.548,3.548,0,0,1,2.9-2.9,1.725,1.725,0,0,0,0-3.286Zm-4.539,3.372a1.729,1.729,0,1,1,0-3.458,1.729,1.729,0,1,1,0,3.458Z" transform="translate(-2345.829 -844.853)" fill="#00223d"/>
        <path id="Trazado_9459" data-name="Trazado 9459" d="M2411.552,758.676a3.55,3.55,0,0,1,2.9,2.9,1.725,1.725,0,0,0,3.285,0,3.548,3.548,0,0,1,2.9-2.9,1.725,1.725,0,0,0,0-3.285,3.549,3.549,0,0,1-2.9-2.9,1.725,1.725,0,0,0-3.285,0,3.55,3.55,0,0,1-2.9,2.9,1.725,1.725,0,0,0,0,3.285Zm4.539-3.372a5.154,5.154,0,0,0,1.729,1.729,1.729,1.729,0,1,1-3.458,0A5.16,5.16,0,0,0,2416.092,755.3Z" transform="translate(-2345.829 -724.709)" fill="#00223d"/>
        <path id="Trazado_9460" data-name="Trazado 9460" d="M2292.74,878.41l3.19-1.075a1.324,1.324,0,1,0-.846-2.509L2291.9,875.9a3.218,3.218,0,0,0-1.6,4.914l2.5,3.515a.569.569,0,0,1,.105.324l.047,4.311a3.224,3.224,0,0,0,3.209,3.187,3.244,3.244,0,0,0,.971-.15l4.114-1.288a.569.569,0,0,1,.341,0L2305.7,892a3.219,3.219,0,0,0,4.18-3.037l.046-4.311a.567.567,0,0,1,.1-.324l2.5-3.515a3.218,3.218,0,0,0-1.6-4.914l-4.086-1.376a.57.57,0,0,1-.276-.2l-2.571-3.46a3.219,3.219,0,0,0-5.167,0l-.636.856a1.324,1.324,0,0,0,2.126,1.579l.636-.856a.571.571,0,0,1,.916,0l2.571,3.46a3.2,3.2,0,0,0,1.556,1.13l4.086,1.376a.571.571,0,0,1,.283.871l-2.5,3.515a3.2,3.2,0,0,0-.594,1.829l-.047,4.311a.571.571,0,0,1-.741.538l-4.114-1.288a3.206,3.206,0,0,0-1.923,0l-4.115,1.288a.571.571,0,0,1-.741-.538l-.046-4.311a3.2,3.2,0,0,0-.594-1.829l-2.5-3.515a.57.57,0,0,1,.282-.871Z" transform="translate(-2258.354 -810.456)" fill="#00223d"/>
      </g>
    </g>
  </g>
</svg>
