<svg xmlns="http://www.w3.org/2000/svg" width="200" height="168" viewBox="0 0 200 168">
  <g id="Grupo_16487" data-name="Grupo 16487" transform="translate(1544 5483)">
    <path id="Trazado_25631" data-name="Trazado 25631" d="M9,0H191a9,9,0,0,1,9,9V159a9,9,0,0,1-9,9H9a9,9,0,0,1-9-9V9A9,9,0,0,1,9,0Z" transform="translate(-1544 -5483)" fill="#f3ff7e"/>
    <path id="Trazado_25633" data-name="Trazado 25633" d="M3.842,17V4.625h3.99a5.917,5.917,0,0,1,3.151.8A4.879,4.879,0,0,1,12.917,7.6a7.642,7.642,0,0,1,.628,3.2,8.1,8.1,0,0,1-.365,2.5,5.664,5.664,0,0,1-1.068,1.956,4.685,4.685,0,0,1-1.8,1.283A6.391,6.391,0,0,1,7.833,17Zm1.573-1.433H7.78A3.769,3.769,0,0,0,10.869,14.3a5.35,5.35,0,0,0,1.042-3.5,5.305,5.305,0,0,0-1.046-3.48A3.771,3.771,0,0,0,7.78,6.058H5.416Zm18.352-3.059-.018.413H17a3.053,3.053,0,0,0,.826,2.21,2.713,2.713,0,0,0,1.969.769,2.59,2.59,0,0,0,1.433-.413,2.68,2.68,0,0,0,.984-1.143l1.371.29a3.9,3.9,0,0,1-1.477,1.854,4.028,4.028,0,0,1-2.294.677,4.174,4.174,0,0,1-3.111-1.2,4.479,4.479,0,0,1-1.187-3.287A4.458,4.458,0,0,1,16.705,9.4a4.122,4.122,0,0,1,3.063-1.2,3.9,3.9,0,0,1,2.9,1.107A4.376,4.376,0,0,1,23.767,12.509Zm-4-3.146a2.694,2.694,0,0,0-1.8.611,2.8,2.8,0,0,0-.91,1.78h5.177a2.567,2.567,0,0,0-.756-1.78A2.441,2.441,0,0,0,19.768,9.362Zm9.114,7.8a4.1,4.1,0,0,1-2.329-.624,2.581,2.581,0,0,1-1.134-1.775l1.327-.378a1.851,1.851,0,0,0,.708,1.2,2.3,2.3,0,0,0,1.419.426A2.832,2.832,0,0,0,29.7,15.9a1.331,1.331,0,0,0,.637-.426,1.189,1.189,0,0,0,.185-1.143,1.526,1.526,0,0,0-.141-.286.87.87,0,0,0-.246-.237,3.245,3.245,0,0,0-.3-.185,3.067,3.067,0,0,0-.391-.163q-.259-.092-.417-.141t-.483-.141q-.325-.092-.5-.145a9.372,9.372,0,0,1-.9-.316,3.932,3.932,0,0,1-.729-.417,1.679,1.679,0,0,1-.567-.681,2.3,2.3,0,0,1-.189-.967,2.234,2.234,0,0,1,.422-1.38,2.374,2.374,0,0,1,1.094-.813,4.374,4.374,0,0,1,1.534-.25,3.754,3.754,0,0,1,2.1.563,2.4,2.4,0,0,1,1.05,1.688l-1.248.316a1.655,1.655,0,0,0-.659-1.094,2.1,2.1,0,0,0-1.239-.365,2.139,2.139,0,0,0-1.16.3,1.019,1.019,0,0,0-.483.927.923.923,0,0,0,.127.479,1.521,1.521,0,0,0,.259.338,1.594,1.594,0,0,0,.475.259q.343.136.51.185t.633.163q.088.026.132.035.51.132.831.233a5.105,5.105,0,0,1,.747.316,2.484,2.484,0,0,1,.672.47,2.178,2.178,0,0,1,.422.668,2.358,2.358,0,0,1,.176.932,2.516,2.516,0,0,1-.259,1.165,2.028,2.028,0,0,1-.708.8,3.422,3.422,0,0,1-1.006.435A4.8,4.8,0,0,1,28.882,17.167Zm7.567,0a2.94,2.94,0,0,1-1.894-.593,2.13,2.13,0,0,1-.743-1.771,2.517,2.517,0,0,1,.237-1.129,1.991,1.991,0,0,1,.7-.787,4.218,4.218,0,0,1,1.015-.488,9.384,9.384,0,0,1,1.314-.312l1.4-.229q.765-.141.765-.8A1.51,1.51,0,0,0,38.7,9.771a2.2,2.2,0,0,0-1.367-.409,2.243,2.243,0,0,0-1.354.4,1.655,1.655,0,0,0-.642,1.213l-1.371-.29a2.639,2.639,0,0,1,1.081-1.85,4.039,4.039,0,0,1,2.355-.62,4.777,4.777,0,0,1,1.252.154,3.4,3.4,0,0,1,1.046.483,2.168,2.168,0,0,1,.747.932,3.466,3.466,0,0,1,.268,1.419v3.568a1.46,1.46,0,0,0,.2.9.854.854,0,0,0,.681.233h.141V17h-.756a1.442,1.442,0,0,1-1.635-1.169h-.07A3.3,3.3,0,0,1,36.45,17.167Zm.352-1.23a2.305,2.305,0,0,0,1.854-.835,3.438,3.438,0,0,0,.7-2.285l-2.285.439a3.076,3.076,0,0,0-1.34.479,1.114,1.114,0,0,0-.435.945,1.1,1.1,0,0,0,.417.949A1.785,1.785,0,0,0,36.8,15.937Zm8.569-6.056a2.612,2.612,0,0,1,1.072-1.16A3.229,3.229,0,0,1,48.1,8.264V9.7a2.846,2.846,0,0,0-2.008.642,2.68,2.68,0,0,0-.69,2.048V17H43.885V8.36h1.485Zm6,0a2.612,2.612,0,0,1,1.072-1.16,3.229,3.229,0,0,1,1.661-.457V9.7a2.846,2.846,0,0,0-2.008.642,2.68,2.68,0,0,0-.69,2.048V17H49.888V8.36h1.485Zm8.051,7.286a4.554,4.554,0,0,1-2.215-.536,3.9,3.9,0,0,1-1.56-1.569,4.819,4.819,0,0,1-.576-2.386A4.4,4.4,0,0,1,56.3,9.419a4.6,4.6,0,0,1,6.253,0,4.41,4.41,0,0,1,1.222,3.256,4.413,4.413,0,0,1-1.226,3.265A4.232,4.232,0,0,1,59.424,17.167ZM59.416,15.9a2.654,2.654,0,0,0,2.043-.888,3.326,3.326,0,0,0,.813-2.338,3.314,3.314,0,0,0-.813-2.329,2.654,2.654,0,0,0-2.043-.888,2.617,2.617,0,0,0-2.026.888,3.336,3.336,0,0,0-.8,2.329,3.348,3.348,0,0,0,.8,2.338A2.617,2.617,0,0,0,59.416,15.9ZM66.157,17V3.5h1.538V17Zm4.632,0V3.5h1.538V17Zm8.271.167a4.554,4.554,0,0,1-2.215-.536,3.9,3.9,0,0,1-1.56-1.569,4.819,4.819,0,0,1-.576-2.386,4.4,4.4,0,0,1,1.226-3.256,4.6,4.6,0,0,1,6.253,0,4.41,4.41,0,0,1,1.222,3.256,4.413,4.413,0,0,1-1.226,3.265A4.232,4.232,0,0,1,79.059,17.167ZM79.05,15.9a2.654,2.654,0,0,0,2.043-.888,3.326,3.326,0,0,0,.813-2.338,3.314,3.314,0,0,0-.813-2.329,2.654,2.654,0,0,0-2.043-.888,2.617,2.617,0,0,0-2.026.888,3.336,3.336,0,0,0-.8,2.329,3.348,3.348,0,0,0,.8,2.338A2.617,2.617,0,0,0,79.05,15.9ZM93.2,17.167a4.1,4.1,0,0,1-2.329-.624,2.581,2.581,0,0,1-1.134-1.775l1.327-.378a1.851,1.851,0,0,0,.708,1.2,2.3,2.3,0,0,0,1.419.426,2.832,2.832,0,0,0,.831-.114,1.331,1.331,0,0,0,.637-.426,1.189,1.189,0,0,0,.185-1.143,1.526,1.526,0,0,0-.141-.286.87.87,0,0,0-.246-.237,3.245,3.245,0,0,0-.3-.185,3.067,3.067,0,0,0-.391-.163q-.259-.092-.417-.141t-.483-.141q-.325-.092-.5-.145a9.372,9.372,0,0,1-.9-.316,3.932,3.932,0,0,1-.729-.417,1.679,1.679,0,0,1-.567-.681,2.3,2.3,0,0,1-.189-.967,2.234,2.234,0,0,1,.422-1.38A2.374,2.374,0,0,1,91.5,8.461a4.374,4.374,0,0,1,1.534-.25,3.754,3.754,0,0,1,2.1.563,2.4,2.4,0,0,1,1.05,1.688l-1.248.316a1.655,1.655,0,0,0-.659-1.094,2.1,2.1,0,0,0-1.239-.365,2.139,2.139,0,0,0-1.16.3,1.019,1.019,0,0,0-.483.927.923.923,0,0,0,.127.479,1.521,1.521,0,0,0,.259.338,1.594,1.594,0,0,0,.475.259q.343.136.51.185t.633.163q.088.026.132.035.51.132.831.233a5.105,5.105,0,0,1,.747.316,2.484,2.484,0,0,1,.672.47,2.178,2.178,0,0,1,.422.668,2.358,2.358,0,0,1,.176.932,2.516,2.516,0,0,1-.259,1.165,2.028,2.028,0,0,1-.708.8,3.422,3.422,0,0,1-1.006.435A4.8,4.8,0,0,1,93.2,17.167Zm9.211,0a4.554,4.554,0,0,1-2.215-.536,3.9,3.9,0,0,1-1.56-1.569,4.819,4.819,0,0,1-.576-2.386,4.4,4.4,0,0,1,1.226-3.256,4.6,4.6,0,0,1,6.253,0,4.41,4.41,0,0,1,1.222,3.256,4.413,4.413,0,0,1-1.226,3.265A4.232,4.232,0,0,1,102.412,17.167ZM102.4,15.9a2.654,2.654,0,0,0,2.043-.888,3.326,3.326,0,0,0,.813-2.338,3.314,3.314,0,0,0-.813-2.329,2.654,2.654,0,0,0-2.043-.888,2.617,2.617,0,0,0-2.026.888,3.336,3.336,0,0,0-.8,2.329,3.348,3.348,0,0,0,.8,2.338A2.617,2.617,0,0,0,102.4,15.9Zm9.475,1.266a4.1,4.1,0,0,1-2.329-.624,2.581,2.581,0,0,1-1.134-1.775l1.327-.378a1.851,1.851,0,0,0,.708,1.2,2.3,2.3,0,0,0,1.419.426,2.832,2.832,0,0,0,.831-.114,1.331,1.331,0,0,0,.637-.426,1.189,1.189,0,0,0,.185-1.143,1.526,1.526,0,0,0-.141-.286.87.87,0,0,0-.246-.237,3.245,3.245,0,0,0-.3-.185,3.067,3.067,0,0,0-.391-.163q-.259-.092-.417-.141t-.483-.141q-.325-.092-.5-.145a9.372,9.372,0,0,1-.9-.316,3.932,3.932,0,0,1-.729-.417,1.679,1.679,0,0,1-.567-.681,2.3,2.3,0,0,1-.189-.967,2.234,2.234,0,0,1,.422-1.38,2.374,2.374,0,0,1,1.094-.813,4.374,4.374,0,0,1,1.534-.25,3.754,3.754,0,0,1,2.1.563,2.4,2.4,0,0,1,1.05,1.688l-1.248.316a1.655,1.655,0,0,0-.659-1.094,2.1,2.1,0,0,0-1.239-.365,2.139,2.139,0,0,0-1.16.3,1.019,1.019,0,0,0-.483.927.923.923,0,0,0,.127.479,1.521,1.521,0,0,0,.259.338,1.594,1.594,0,0,0,.475.259q.343.136.51.185t.633.163q.088.026.132.035.51.132.831.233a5.105,5.105,0,0,1,.747.316,2.484,2.484,0,0,1,.672.47,2.178,2.178,0,0,1,.422.668,2.358,2.358,0,0,1,.176.932,2.516,2.516,0,0,1-.259,1.165,2.028,2.028,0,0,1-.708.8,3.422,3.422,0,0,1-1.006.435A4.8,4.8,0,0,1,111.877,17.167ZM120.209,17a2.271,2.271,0,0,1-1.687-.62,2.344,2.344,0,0,1-.615-1.727V9.573H116.14V8.36h.65a1.249,1.249,0,0,0,.954-.3,1.492,1.492,0,0,0,.277-1.015V5.478h1.415V8.36h1.986V9.573h-1.986V14.5a1.31,1.31,0,0,0,.33.954,1.154,1.154,0,0,0,.866.338h.791V17Zm10.863-4.491-.018.413h-6.75a3.053,3.053,0,0,0,.826,2.21,2.713,2.713,0,0,0,1.969.769,2.59,2.59,0,0,0,1.433-.413,2.68,2.68,0,0,0,.984-1.143l1.371.29a3.9,3.9,0,0,1-1.477,1.854,4.028,4.028,0,0,1-2.294.677,4.174,4.174,0,0,1-3.111-1.2,4.479,4.479,0,0,1-1.187-3.287A4.458,4.458,0,0,1,124.011,9.4a4.122,4.122,0,0,1,3.063-1.2,3.9,3.9,0,0,1,2.9,1.107A4.376,4.376,0,0,1,131.073,12.509Zm-4-3.146a2.694,2.694,0,0,0-1.8.611,2.8,2.8,0,0,0-.91,1.78h5.177a2.567,2.567,0,0,0-.756-1.78A2.441,2.441,0,0,0,127.074,9.362Zm10.459-1.169a3.005,3.005,0,0,1,2.175.782,2.918,2.918,0,0,1,.813,2.206V17H139V11.524a2.043,2.043,0,0,0-.527-1.547,1.885,1.885,0,0,0-1.354-.5,2.09,2.09,0,0,0-1.538.593,2.407,2.407,0,0,0-.606,1.762V17h-1.521V8.36h1.521V9.468A2.885,2.885,0,0,1,137.533,8.193Zm6.7-1.863A1.035,1.035,0,0,1,143.2,5.3a.975.975,0,0,1,.3-.721,1,1,0,0,1,.725-.3.987.987,0,0,1,.716.3.975.975,0,0,1,.3.721.989.989,0,0,1-.3.725A.979.979,0,0,1,144.23,6.33ZM143.457,17V8.36h1.529V17Zm9.2-8.807a3.764,3.764,0,0,1,2.856,1.248,4.553,4.553,0,0,1,1.169,3.243,4.586,4.586,0,0,1-1.16,3.252,3.756,3.756,0,0,1-2.865,1.248,3.467,3.467,0,0,1-1.841-.5,3.171,3.171,0,0,1-1.235-1.362L149.547,17H148.08V3.5h1.512l.009,6.513a3.184,3.184,0,0,1,1.235-1.332A3.476,3.476,0,0,1,152.659,8.193Zm-.334,7.673a2.644,2.644,0,0,0,2.021-.883,3.25,3.25,0,0,0,.817-2.3,3.25,3.25,0,0,0-.817-2.3,2.644,2.644,0,0,0-2.021-.883,2.586,2.586,0,0,0-2,.914,3.277,3.277,0,0,0-.817,2.268,3.283,3.283,0,0,0,.813,2.272A2.587,2.587,0,0,0,152.325,15.866ZM159.075,17V3.5h1.538V17Zm12.19-4.491-.018.413H164.5a3.053,3.053,0,0,0,.826,2.21,2.713,2.713,0,0,0,1.969.769,2.59,2.59,0,0,0,1.433-.413,2.68,2.68,0,0,0,.984-1.143l1.371.29A3.9,3.9,0,0,1,169.6,16.49a4.028,4.028,0,0,1-2.294.677,4.174,4.174,0,0,1-3.111-1.2,4.479,4.479,0,0,1-1.187-3.287A4.458,4.458,0,0,1,164.2,9.4a4.122,4.122,0,0,1,3.063-1.2,3.9,3.9,0,0,1,2.9,1.107A4.376,4.376,0,0,1,171.265,12.509Zm-4-3.146a2.694,2.694,0,0,0-1.8.611,2.8,2.8,0,0,0-.91,1.78h5.177a2.567,2.567,0,0,0-.756-1.78A2.441,2.441,0,0,0,167.266,9.362Z" transform="translate(-1531 -5358.673)" fill="#00223d"/>
    <g id="Grupo_10034" data-name="Grupo 10034" transform="translate(-2035.999 -5899.243)">
      <g id="Grupo_10032" data-name="Grupo 10032" transform="translate(553.227 443.463)">
        <g id="Grupo_10031" data-name="Grupo 10031" transform="translate(0 0)">
          <path id="Trazado_8901" data-name="Trazado 8901" d="M556.631,655.41c.661,4.355,3.478,13.4,15.485,13.4,0,0,.88-14.221-13.414-15.583A1.909,1.909,0,0,0,556.631,655.41Z" transform="translate(-556.609 -598.265)" fill="#e9f857"/>
          <path id="Trazado_8902" data-name="Trazado 8902" d="M561.37,653.225a1.894,1.894,0,0,0-1.126.242c11.607,2.139,11.728,13.558,11.687,15.154a21.079,21.079,0,0,0,2.853.187s.88-14.221-13.414-15.583Z" transform="translate(-559.276 -598.266)" fill="#e9f857"/>
          <path id="Trazado_8903" data-name="Trazado 8903" d="M630.392,655.41c-.661,4.355-3.478,13.4-15.486,13.4,0,0-.88-14.221,13.414-15.583a1.909,1.909,0,0,1,2.071,2.187Z" transform="translate(-599.377 -598.265)" fill="#e9f857"/>
          <path id="Trazado_8904" data-name="Trazado 8904" d="M628.33,653.224c-.606.057-1.182.14-1.734.242a1.9,1.9,0,0,1,.946,1.944c-.6,3.987-3.018,11.9-12.633,13.209,0,.121.007.187.007.187,12.008,0,14.825-9.042,15.486-13.4a1.909,1.909,0,0,0-2.071-2.186Z" transform="translate(-599.387 -598.265)" fill="#e9f857"/>
          <path id="Trazado_8905" data-name="Trazado 8905" d="M732.48,655.41c.66,4.355,3.478,13.4,15.485,13.4,0,0,.88-14.221-13.414-15.583a1.909,1.909,0,0,0-2.071,2.187Z" transform="translate(-685.639 -598.265)" fill="#e9f857"/>
          <path id="Trazado_8906" data-name="Trazado 8906" d="M737.218,653.225a1.892,1.892,0,0,0-1.125.242c11.607,2.139,11.727,13.558,11.687,15.154a21.08,21.08,0,0,0,2.853.187s.88-14.221-13.414-15.583Z" transform="translate(-688.307 -598.266)" fill="#e9f857"/>
          <path id="Trazado_8907" data-name="Trazado 8907" d="M806.24,655.41c-.661,4.355-3.478,13.4-15.486,13.4,0,0-.88-14.221,13.414-15.583A1.909,1.909,0,0,1,806.24,655.41Z" transform="translate(-728.407 -598.265)" fill="#e9f857"/>
          <path id="Trazado_8908" data-name="Trazado 8908" d="M804.179,653.224c-.605.057-1.182.14-1.734.242a1.9,1.9,0,0,1,.946,1.944c-.6,3.987-3.018,11.9-12.632,13.209,0,.121.007.187.007.187,12.008,0,14.825-9.042,15.485-13.4A1.909,1.909,0,0,0,804.179,653.224Z" transform="translate(-728.418 -598.265)" fill="#e9f857"/>
          <path id="Trazado_8909" data-name="Trazado 8909" d="M678.032,447.344c-3.891,4.551-15.931,21.34,1.1,38.366,0,0,20.248-17.888,1.109-38.419a1.479,1.479,0,0,0-2.2.053Z" transform="translate(-640.002 -446.824)" fill="#e9f857"/>
          <path id="Trazado_8910" data-name="Trazado 8910" d="M700.811,447.291a1.479,1.479,0,0,0-2.2.053q-.145.17-.3.362a1.389,1.389,0,0,1,1.171.469c15.09,17.456,3.112,32.334-.842,36.423q.515.556,1.071,1.112s20.248-17.888,1.109-38.419Z" transform="translate(-660.577 -446.824)" fill="#e9f857"/>
          <path id="Trazado_8911" data-name="Trazado 8911" d="M593.2,573.62c.613,6.746,4.513,27.284,29.289,27.284,0,0,1.737-28.065-27.3-29.357a1.908,1.908,0,0,0-1.99,2.073Z" transform="translate(-583.451 -538.34)" fill="#e9f857"/>
          <path id="Trazado_8912" data-name="Trazado 8912" d="M598.458,571.548a1.911,1.911,0,0,0-.811.14c25.955,2.4,25.332,27.359,25.255,29.118.921.063,1.87.1,2.855.1,0,0,1.737-28.065-27.3-29.357Z" transform="translate(-586.721 -538.34)" fill="#e9f857"/>
          <path id="Trazado_8913" data-name="Trazado 8913" d="M732.614,573.62C732,580.366,728.1,600.9,703.324,600.9c0,0-1.737-28.065,27.3-29.357a1.908,1.908,0,0,1,1.99,2.073Z" transform="translate(-664.248 -538.34)" fill="#e9f857"/>
          <path id="Trazado_8914" data-name="Trazado 8914" d="M730.664,571.548q-1.051.047-2.048.14a1.9,1.9,0,0,1,1.178,1.933c-.588,6.478-4.212,25.669-26.434,27.185,0,.064.005.1.005.1,24.776,0,28.676-20.538,29.289-27.284a1.908,1.908,0,0,0-1.99-2.073Z" transform="translate(-664.289 -538.34)" fill="#e9f857"/>
        </g>
      </g>
      <g id="Grupo_10033" data-name="Grupo 10033" transform="translate(551.999 442.243)">
        <path id="Trazado_8915" data-name="Trazado 8915" d="M631.594,498.369a3.115,3.115,0,0,0-2.722-1.136c-8.343.889-11.643,5.428-13.3,9.616a14.724,14.724,0,0,0-3.733-5.652,26.77,26.77,0,0,0,6.624-7.9,37.521,37.521,0,0,0,4.347-14.417,3.15,3.15,0,0,0-3.259-3.4c-9.068.4-16.167,3.391-21.1,8.879a27.094,27.094,0,0,0-4.945,8.037v-9.423c1.691-1.612,8.874-9.046,9.378-19.435.344-7.1-2.525-13.972-8.527-20.411a2.717,2.717,0,0,0-4.023.092c-2.208,2.357-6.583,9.15-7.566,15.06a24.542,24.542,0,0,0,.518,11.91,30.98,30.98,0,0,0,7.781,12.615v9.594a27.089,27.089,0,0,0-4.945-8.037c-4.934-5.488-12.033-8.476-21.1-8.879a3.149,3.149,0,0,0-3.259,3.4,39.356,39.356,0,0,0,2.121,9.53,28.668,28.668,0,0,0,8.71,12.678,14.682,14.682,0,0,0-3.853,5.76c-.072-.19-.146-.38-.227-.571-1.559-3.706-5.092-8.283-13.076-9.043a3.146,3.146,0,0,0-3.392,3.583c.638,4.2,3.419,13.8,15.482,14.4V522.6a1.22,1.22,0,0,0,2.439,0v-7.38c8.016-.4,11.924-4.78,13.824-8.835a37.426,37.426,0,0,0,7.275.877v14.119h-3.119a1.22,1.22,0,1,0,0,2.439h8.412a1.22,1.22,0,0,0,0-2.439H593.5V507.258a34.214,34.214,0,0,0,11.349-2.1l7.474,7.393a12.645,12.645,0,0,1-6.932-3.378,1.219,1.219,0,0,0-1.709,1.74,15.81,15.81,0,0,0,10.66,4.3v7.38a1.219,1.219,0,1,0,2.439,0v-7.376c12.063-.6,14.845-10.2,15.482-14.4a3.1,3.1,0,0,0-.67-2.448Zm-3.329,1.391L617.008,510.9a16.243,16.243,0,0,1,1.037-3.674C619.838,502.959,623.275,500.453,628.266,499.761Zm-19.029.339a23.687,23.687,0,0,1-4.621,2.526,30.139,30.139,0,0,1-9.258,2.095l10.914-10.93h9.044A23.533,23.533,0,0,1,609.236,500.1Zm-5.711-17.079c3.964-2.935,9.019-4.625,15.091-5.045L603.525,493.09Zm13.229,8.331h-8.047l11.55-11.568A34.5,34.5,0,0,1,616.753,491.352Zm-16.478-5.38q.394-.438.81-.851v10.412l-7.494,7.505C593.89,499.014,595.163,491.647,600.276,485.972ZM593.5,479.4v-7.92l6.535-4.842A29.151,29.151,0,0,1,593.5,479.4Zm6.946-16.1-6.946,5.146v-22.62C598.37,451.419,600.705,457.291,600.448,463.3Zm-9.385-17.107V460.9l-5.19-4.918A33.224,33.224,0,0,1,591.063,446.192Zm-5.907,12.559c.005-.025.011-.049.016-.075l5.891,5.583v14.919c-5.356-6.327-7.344-13.186-5.907-20.427Zm-.865,27.221c5.113,5.676,6.386,13.042,6.684,17.065l-13.251-13.271v-8.784A22.239,22.239,0,0,1,584.291,485.972Zm-18.34-8a32.641,32.641,0,0,1,9.334,1.935v7.413Zm-1.641,1.808,6.829,6.84h-5.31A36.5,36.5,0,0,1,564.31,479.784Zm5.25,14.462a28.2,28.2,0,0,1-2.821-5.183h6.836l15.635,15.658C581.395,504.219,574.007,500.828,569.559,494.246Zm5.056,8.319a25.726,25.726,0,0,0,2.523,1.457l-6.939,6.864A13.535,13.535,0,0,1,574.615,502.565Zm-8.383,4.582a16.184,16.184,0,0,1,1.065,3.747l-11.254-11.133C561,500.448,564.429,502.93,566.232,507.147Zm-11.5-5.257,10.779,10.662C558.259,511.323,555.652,505.957,554.727,501.89Zm17.252,10.667,7.55-7.47q.9.351,1.862.651a12.2,12.2,0,0,1-9.412,6.818Zm37.826-9.9a13.591,13.591,0,0,1,4.3,8.228l-6.851-6.777a25.684,25.684,0,0,0,2.547-1.451Zm9,9.893,10.779-10.662c-.926,4.068-3.533,9.433-10.779,10.662Z" transform="translate(-551.999 -442.269)" fill="#00223d"/>
        <path id="Trazado_8916" data-name="Trazado 8916" d="M580.089,502.2l3.746.971a1.219,1.219,0,1,0,.612-2.361l-3.746-.971a1.219,1.219,0,0,0-.612,2.361Z" transform="translate(-571.94 -484.478)" fill="#00223d"/>
        <path id="Trazado_8917" data-name="Trazado 8917" d="M596.615,468.174l3.157,2.237a1.22,1.22,0,0,0,1.411-1.99l-3.157-2.237a1.22,1.22,0,1,0-1.411,1.99Z" transform="translate(-584.359 -459.645)" fill="#00223d"/>
        <path id="Trazado_8918" data-name="Trazado 8918" d="M627.595,447.5a1.22,1.22,0,1,0,2.242-.961l-1.524-3.557a1.22,1.22,0,0,0-2.242.961Z" transform="translate(-606.277 -442.244)" fill="#00223d"/>
        <path id="Trazado_8919" data-name="Trazado 8919" d="M803.27,502.3a1.222,1.222,0,0,0,1.486.874l3.746-.971a1.219,1.219,0,0,0-.612-2.361l-3.746.971A1.219,1.219,0,0,0,803.27,502.3Z" transform="translate(-736.342 -484.478)" fill="#00223d"/>
        <path id="Trazado_8920" data-name="Trazado 8920" d="M789.739,470.636a1.214,1.214,0,0,0,.7-.224l3.157-2.238a1.22,1.22,0,0,0-1.41-1.99l-3.157,2.238a1.219,1.219,0,0,0,.706,2.214Z" transform="translate(-725.547 -459.645)" fill="#00223d"/>
        <path id="Trazado_8921" data-name="Trazado 8921" d="M765.518,448.141a1.221,1.221,0,0,0,1.6-.641l1.525-3.557a1.219,1.219,0,0,0-2.242-.961l-1.524,3.557A1.219,1.219,0,0,0,765.518,448.141Z" transform="translate(-708.128 -442.243)" fill="#00223d"/>
      </g>
    </g>
  </g>
</svg>
