<svg xmlns="http://www.w3.org/2000/svg" width="200" height="168" viewBox="0 0 200 168">
  <g id="Grupo_16489" data-name="Grupo 16489" transform="translate(1104 5483)">
    <path id="Trazado_25642" data-name="Trazado 25642" d="M9,0H191a9,9,0,0,1,9,9V159a9,9,0,0,1-9,9H9a9,9,0,0,1-9-9V9A9,9,0,0,1,9,0Z" transform="translate(-1104 -5483)" fill="#f3ff7e"/>
    <path id="Trazado_25643" data-name="Trazado 25643" d="M4.533,17V4.625h3.99a5.917,5.917,0,0,1,3.151.8A4.879,4.879,0,0,1,13.608,7.6a7.642,7.642,0,0,1,.628,3.2,8.1,8.1,0,0,1-.365,2.5A5.664,5.664,0,0,1,12.8,15.26a4.685,4.685,0,0,1-1.8,1.283A6.391,6.391,0,0,1,8.523,17Zm1.573-1.433H8.471A3.769,3.769,0,0,0,11.56,14.3,5.35,5.35,0,0,0,12.6,10.8a5.305,5.305,0,0,0-1.046-3.48A3.771,3.771,0,0,0,8.471,6.058H6.106Zm18.352-3.059-.018.413H17.69a3.053,3.053,0,0,0,.826,2.21,2.713,2.713,0,0,0,1.969.769,2.59,2.59,0,0,0,1.433-.413,2.68,2.68,0,0,0,.984-1.143l1.371.29A3.9,3.9,0,0,1,22.8,16.49a4.028,4.028,0,0,1-2.294.677,4.174,4.174,0,0,1-3.111-1.2,4.479,4.479,0,0,1-1.187-3.287A4.458,4.458,0,0,1,17.4,9.4a4.122,4.122,0,0,1,3.063-1.2,3.9,3.9,0,0,1,2.9,1.107A4.376,4.376,0,0,1,24.458,12.509Zm-4-3.146a2.694,2.694,0,0,0-1.8.611,2.8,2.8,0,0,0-.91,1.78h5.177a2.567,2.567,0,0,0-.756-1.78A2.441,2.441,0,0,0,20.459,9.362Zm9.114,7.8a4.1,4.1,0,0,1-2.329-.624,2.581,2.581,0,0,1-1.134-1.775l1.327-.378a1.851,1.851,0,0,0,.708,1.2,2.3,2.3,0,0,0,1.419.426A2.832,2.832,0,0,0,30.4,15.9a1.331,1.331,0,0,0,.637-.426,1.189,1.189,0,0,0,.185-1.143,1.526,1.526,0,0,0-.141-.286.87.87,0,0,0-.246-.237,3.245,3.245,0,0,0-.3-.185,3.067,3.067,0,0,0-.391-.163q-.259-.092-.417-.141t-.483-.141q-.325-.092-.5-.145a9.372,9.372,0,0,1-.9-.316,3.932,3.932,0,0,1-.729-.417,1.679,1.679,0,0,1-.567-.681,2.3,2.3,0,0,1-.189-.967,2.234,2.234,0,0,1,.422-1.38,2.374,2.374,0,0,1,1.094-.813,4.374,4.374,0,0,1,1.534-.25,3.754,3.754,0,0,1,2.1.563,2.4,2.4,0,0,1,1.05,1.688l-1.248.316a1.655,1.655,0,0,0-.659-1.094,2.1,2.1,0,0,0-1.239-.365,2.139,2.139,0,0,0-1.16.3,1.019,1.019,0,0,0-.483.927.923.923,0,0,0,.127.479,1.521,1.521,0,0,0,.259.338,1.594,1.594,0,0,0,.475.259q.343.136.51.185t.633.163q.088.026.132.035.51.132.831.233a5.105,5.105,0,0,1,.747.316,2.484,2.484,0,0,1,.672.47,2.178,2.178,0,0,1,.422.668,2.358,2.358,0,0,1,.176.932,2.516,2.516,0,0,1-.259,1.165,2.028,2.028,0,0,1-.708.8,3.422,3.422,0,0,1-1.006.435A4.8,4.8,0,0,1,29.573,17.167Zm7.567,0a2.94,2.94,0,0,1-1.894-.593A2.13,2.13,0,0,1,34.5,14.8a2.517,2.517,0,0,1,.237-1.129,1.991,1.991,0,0,1,.7-.787,4.218,4.218,0,0,1,1.015-.488,9.384,9.384,0,0,1,1.314-.312l1.4-.229q.765-.141.765-.8A1.51,1.51,0,0,0,39.4,9.771a2.2,2.2,0,0,0-1.367-.409,2.243,2.243,0,0,0-1.354.4,1.655,1.655,0,0,0-.642,1.213l-1.371-.29a2.639,2.639,0,0,1,1.081-1.85,4.039,4.039,0,0,1,2.355-.62,4.777,4.777,0,0,1,1.252.154,3.4,3.4,0,0,1,1.046.483,2.168,2.168,0,0,1,.747.932,3.466,3.466,0,0,1,.268,1.419v3.568a1.46,1.46,0,0,0,.2.9.854.854,0,0,0,.681.233h.141V17h-.756a1.442,1.442,0,0,1-1.635-1.169h-.07A3.3,3.3,0,0,1,37.141,17.167Zm.352-1.23a2.305,2.305,0,0,0,1.854-.835,3.438,3.438,0,0,0,.7-2.285l-2.285.439a3.076,3.076,0,0,0-1.34.479,1.114,1.114,0,0,0-.435.945,1.1,1.1,0,0,0,.417.949A1.785,1.785,0,0,0,37.492,15.937Zm8.569-6.056a2.612,2.612,0,0,1,1.072-1.16,3.229,3.229,0,0,1,1.661-.457V9.7a2.846,2.846,0,0,0-2.008.642,2.68,2.68,0,0,0-.69,2.048V17H44.576V8.36h1.485Zm6,0a2.612,2.612,0,0,1,1.072-1.16A3.229,3.229,0,0,1,54.8,8.264V9.7a2.846,2.846,0,0,0-2.008.642,2.68,2.68,0,0,0-.69,2.048V17H50.579V8.36h1.485Zm8.051,7.286a4.554,4.554,0,0,1-2.215-.536,3.9,3.9,0,0,1-1.56-1.569,4.819,4.819,0,0,1-.576-2.386,4.4,4.4,0,0,1,1.226-3.256,4.6,4.6,0,0,1,6.253,0,4.41,4.41,0,0,1,1.222,3.256,4.413,4.413,0,0,1-1.226,3.265A4.232,4.232,0,0,1,60.115,17.167ZM60.106,15.9a2.654,2.654,0,0,0,2.043-.888,3.326,3.326,0,0,0,.813-2.338,3.314,3.314,0,0,0-.813-2.329,2.654,2.654,0,0,0-2.043-.888,2.617,2.617,0,0,0-2.026.888,3.336,3.336,0,0,0-.8,2.329,3.348,3.348,0,0,0,.8,2.338A2.617,2.617,0,0,0,60.106,15.9ZM66.848,17V3.5h1.538V17Zm4.632,0V3.5h1.538V17Zm8.271.167a4.554,4.554,0,0,1-2.215-.536,3.9,3.9,0,0,1-1.56-1.569,4.819,4.819,0,0,1-.576-2.386,4.4,4.4,0,0,1,1.226-3.256,4.6,4.6,0,0,1,6.253,0A4.41,4.41,0,0,1,84.1,12.676a4.413,4.413,0,0,1-1.226,3.265A4.232,4.232,0,0,1,79.75,17.167ZM79.741,15.9a2.654,2.654,0,0,0,2.043-.888,3.326,3.326,0,0,0,.813-2.338,3.314,3.314,0,0,0-.813-2.329,2.654,2.654,0,0,0-2.043-.888,2.617,2.617,0,0,0-2.026.888,3.336,3.336,0,0,0-.8,2.329,3.348,3.348,0,0,0,.8,2.338A2.617,2.617,0,0,0,79.741,15.9Zm18.976-3.393-.018.413h-6.75a3.053,3.053,0,0,0,.826,2.21,2.713,2.713,0,0,0,1.969.769,2.59,2.59,0,0,0,1.433-.413,2.68,2.68,0,0,0,.984-1.143l1.371.29a3.9,3.9,0,0,1-1.477,1.854,4.028,4.028,0,0,1-2.294.677,4.174,4.174,0,0,1-3.111-1.2,4.479,4.479,0,0,1-1.187-3.287A4.458,4.458,0,0,1,91.655,9.4a4.122,4.122,0,0,1,3.063-1.2,3.9,3.9,0,0,1,2.9,1.107A4.376,4.376,0,0,1,98.717,12.509Zm-4-3.146a2.694,2.694,0,0,0-1.8.611,2.8,2.8,0,0,0-.91,1.78h5.177a2.567,2.567,0,0,0-.756-1.78A2.441,2.441,0,0,0,94.718,9.362Zm9.967,7.8a4.161,4.161,0,0,1-3.094-1.239,4.421,4.421,0,0,1-1.222-3.243,4.43,4.43,0,0,1,1.217-3.243,4.5,4.5,0,0,1,5.6-.483,3.815,3.815,0,0,1,1.455,2.1l-1.424.229a2.63,2.63,0,0,0-.976-1.345,2.656,2.656,0,0,0-1.564-.475,2.554,2.554,0,0,0-2,.888,3.382,3.382,0,0,0-.787,2.329A3.365,3.365,0,0,0,102.676,15a2.56,2.56,0,0,0,2,.883,2.656,2.656,0,0,0,1.564-.475,2.63,2.63,0,0,0,.976-1.345l1.424.237a3.819,3.819,0,0,1-1.463,2.1A4.185,4.185,0,0,1,104.685,17.158Zm9.835.009a4.554,4.554,0,0,1-2.215-.536,3.9,3.9,0,0,1-1.56-1.569,4.819,4.819,0,0,1-.576-2.386A4.4,4.4,0,0,1,111.4,9.419a4.6,4.6,0,0,1,6.253,0,4.41,4.41,0,0,1,1.222,3.256,4.413,4.413,0,0,1-1.226,3.265A4.232,4.232,0,0,1,114.52,17.167Zm-.009-1.266a2.654,2.654,0,0,0,2.043-.888,3.326,3.326,0,0,0,.813-2.338,3.314,3.314,0,0,0-.813-2.329,2.654,2.654,0,0,0-2.043-.888,2.617,2.617,0,0,0-2.026.888,3.336,3.336,0,0,0-.8,2.329,3.348,3.348,0,0,0,.8,2.338A2.617,2.617,0,0,0,114.511,15.9ZM125.33,8.193a3.005,3.005,0,0,1,2.175.782,2.918,2.918,0,0,1,.813,2.206V17H126.8V11.524a2.043,2.043,0,0,0-.527-1.547,1.885,1.885,0,0,0-1.354-.5,2.09,2.09,0,0,0-1.538.593,2.407,2.407,0,0,0-.606,1.762V17h-1.521V8.36h1.521V9.468A2.885,2.885,0,0,1,125.33,8.193Zm8.982-1.318,2.206-2.865.809.589-1.969,2.276Zm.58,10.292a4.554,4.554,0,0,1-2.215-.536,3.9,3.9,0,0,1-1.56-1.569,4.819,4.819,0,0,1-.576-2.386,4.4,4.4,0,0,1,1.226-3.256,4.6,4.6,0,0,1,6.253,0,4.41,4.41,0,0,1,1.222,3.256,4.413,4.413,0,0,1-1.226,3.265A4.232,4.232,0,0,1,134.893,17.167Zm-.009-1.266a2.654,2.654,0,0,0,2.043-.888,3.326,3.326,0,0,0,.813-2.338,3.314,3.314,0,0,0-.813-2.329,2.654,2.654,0,0,0-2.043-.888,2.617,2.617,0,0,0-2.026.888,3.336,3.336,0,0,0-.8,2.329,3.348,3.348,0,0,0,.8,2.338A2.617,2.617,0,0,0,134.884,15.9Zm15.574-7.708a2.785,2.785,0,0,1,2.013.734,2.722,2.722,0,0,1,.765,2.061V17h-1.521V11.384a1.952,1.952,0,0,0-.475-1.424,1.616,1.616,0,0,0-1.2-.483,1.706,1.706,0,0,0-1.318.545,2.343,2.343,0,0,0-.5,1.635V17H146.67V11.445a2.042,2.042,0,0,0-.479-1.472,1.629,1.629,0,0,0-1.226-.5,1.69,1.69,0,0,0-1.314.558,2.424,2.424,0,0,0-.505,1.674V17h-1.521V8.36h1.521V9.477a2.625,2.625,0,0,1,.989-.949,2.82,2.82,0,0,1,1.375-.334,2.935,2.935,0,0,1,1.477.365,2.271,2.271,0,0,1,.958,1.05,2.689,2.689,0,0,1,1.037-1.05A2.966,2.966,0,0,1,150.458,8.193Zm6.5-1.863A1.035,1.035,0,0,1,155.925,5.3a.975.975,0,0,1,.3-.721,1,1,0,0,1,.725-.3.987.987,0,0,1,.716.3.975.975,0,0,1,.3.721.989.989,0,0,1-.3.725A.979.979,0,0,1,156.953,6.33ZM156.18,17V8.36h1.529V17Zm8.209.158a4.161,4.161,0,0,1-3.094-1.239,4.421,4.421,0,0,1-1.222-3.243,4.43,4.43,0,0,1,1.217-3.243,4.5,4.5,0,0,1,5.6-.483,3.815,3.815,0,0,1,1.455,2.1l-1.424.229a2.63,2.63,0,0,0-.976-1.345,2.656,2.656,0,0,0-1.564-.475,2.554,2.554,0,0,0-2,.888,3.382,3.382,0,0,0-.787,2.329A3.365,3.365,0,0,0,162.38,15a2.56,2.56,0,0,0,2,.883,2.656,2.656,0,0,0,1.564-.475,2.63,2.63,0,0,0,.976-1.345l1.424.237a3.819,3.819,0,0,1-1.463,2.1A4.185,4.185,0,0,1,164.389,17.158Zm9.835.009a4.554,4.554,0,0,1-2.215-.536,3.9,3.9,0,0,1-1.56-1.569,4.819,4.819,0,0,1-.576-2.386A4.4,4.4,0,0,1,171.1,9.419a4.6,4.6,0,0,1,6.253,0,4.41,4.41,0,0,1,1.222,3.256,4.413,4.413,0,0,1-1.226,3.265A4.232,4.232,0,0,1,174.224,17.167Zm-.009-1.266a2.654,2.654,0,0,0,2.043-.888,3.326,3.326,0,0,0,.813-2.338,3.314,3.314,0,0,0-.813-2.329,2.654,2.654,0,0,0-2.043-.888,2.617,2.617,0,0,0-2.026.888,3.336,3.336,0,0,0-.8,2.329,3.348,3.348,0,0,0,.8,2.338A2.617,2.617,0,0,0,174.215,15.9Z" transform="translate(-1095 -5358.673)" fill="#00223d"/>
    <g id="Grupo_16019" data-name="Grupo 16019" transform="translate(-3435.275 -5802.407)">
      <g id="Grupo_15983" data-name="Grupo 15983" transform="translate(2389.534 346.666)">
        <g id="Grupo_15982" data-name="Grupo 15982" transform="translate(0 0)">
          <path id="Trazado_9461" data-name="Trazado 9461" d="M2437.51,452.513l-5.348,5.062a9.273,9.273,0,0,1-3.878-4.632l5.951-5.636Z" transform="translate(-2417.987 -419.132)" fill="#17998c"/>
          <g id="Grupo_15979" data-name="Grupo 15979">
            <g id="Grupo_15977" data-name="Grupo 15977" transform="translate(0 2.598)">
              <path id="Trazado_9462" data-name="Trazado 9462" d="M2395.651,404.031a3.016,3.016,0,0,1-2.074-5.206l15.306-14.491a3.015,3.015,0,0,1,2.074-.826h33.474l23.867-23.867a3.016,3.016,0,1,1,4.265,4.266l-24.75,24.75a3.016,3.016,0,0,1-2.133.883h-33.522l-14.434,13.665a3.006,3.006,0,0,1-2.073.826Z" transform="translate(-2392.635 -358.758)" fill="#20b69f"/>
            </g>
            <path id="Trazado_9463" data-name="Trazado 9463" d="M2645.025,363.907l-5.608,5.608a6.44,6.44,0,0,1-.365-2.144v-1.73h-1.73a6.393,6.393,0,0,1-2.18-.379l5.619-5.619a3.016,3.016,0,0,1,4.266,4.264Z" transform="translate(-2565.096 -356.161)" fill="#17998c"/>
            <g id="Grupo_15978" data-name="Grupo 15978" transform="translate(69.21)">
              <path id="Trazado_9464" data-name="Trazado 9464" d="M2643.457,363.991a3.016,3.016,0,0,1-3.016-3.016V355.8h-5.177a3.016,3.016,0,0,1,0-6.032h8.193a3.016,3.016,0,0,1,3.016,3.016v8.193A3.016,3.016,0,0,1,2643.457,363.991Z" transform="translate(-2632.248 -349.765)" fill="#23f1a8"/>
            </g>
          </g>
          <g id="Grupo_15980" data-name="Grupo 15980" transform="translate(13.141 24.747)">
            <circle id="Elipse_662" data-name="Elipse 662" cx="5.784" cy="5.784" r="5.784" fill="#23f1a8"/>
            <path id="Trazado_9465" data-name="Trazado 9465" d="M2456.143,441.226a5.783,5.783,0,0,1-8.948,4.841,4.85,4.85,0,0,0,0-9.68,5.785,5.785,0,0,1,8.95,4.84Z" transform="translate(-2444.576 -435.443)" fill="#26d192"/>
          </g>
          <g id="Grupo_15981" data-name="Grupo 15981" transform="translate(47.439 23.907)">
            <circle id="Elipse_663" data-name="Elipse 663" cx="5.784" cy="5.784" r="5.784" fill="#23f1a8"/>
            <path id="Trazado_9466" data-name="Trazado 9466" d="M2574.888,438.32a5.783,5.783,0,0,1-8.948,4.841,4.85,4.85,0,0,0,0-9.68,5.785,5.785,0,0,1,8.95,4.839Z" transform="translate(-2563.32 -432.537)" fill="#26d192"/>
          </g>
        </g>
      </g>
      <g id="Grupo_15988" data-name="Grupo 15988" transform="translate(2389.534 400.973)">
        <g id="Grupo_15984" data-name="Grupo 15984" transform="translate(0 18.542)">
          <path id="Trazado_9467" data-name="Trazado 9467" d="M2407.928,608.158h-13.752a1.542,1.542,0,0,1-1.542-1.542v-3.1a1.542,1.542,0,0,1,1.542-1.542h13.752a1.542,1.542,0,0,1,1.542,1.542v3.1A1.542,1.542,0,0,1,2407.928,608.158Z" transform="translate(-2392.634 -601.978)" fill="#ffd496"/>
          <path id="Trazado_9468" data-name="Trazado 9468" d="M2435.266,603.521v3.1a1.542,1.542,0,0,1-1.542,1.542h-4.818a1.542,1.542,0,0,0,1.541-1.542v-3.1a1.542,1.542,0,0,0-1.541-1.542h4.817A1.542,1.542,0,0,1,2435.266,603.521Z" transform="translate(-2418.43 -601.979)" fill="#fcc16d"/>
        </g>
        <g id="Grupo_15985" data-name="Grupo 15985" transform="translate(0 12.361)">
          <path id="Trazado_9469" data-name="Trazado 9469" d="M2407.928,586.759h-13.752a1.542,1.542,0,0,1-1.542-1.542v-3.1a1.542,1.542,0,0,1,1.542-1.542h13.752a1.542,1.542,0,0,1,1.542,1.542v3.1A1.542,1.542,0,0,1,2407.928,586.759Z" transform="translate(-2392.634 -580.579)" fill="#fca62f"/>
          <path id="Trazado_9470" data-name="Trazado 9470" d="M2435.266,582.123v3.1a1.542,1.542,0,0,1-1.542,1.542h-4.818a1.542,1.542,0,0,0,1.541-1.542v-3.1a1.542,1.542,0,0,0-1.541-1.542h4.817A1.542,1.542,0,0,1,2435.266,582.123Z" transform="translate(-2418.43 -580.58)" fill="#f98824"/>
        </g>
        <g id="Grupo_15986" data-name="Grupo 15986" transform="translate(0 6.181)">
          <path id="Trazado_9471" data-name="Trazado 9471" d="M2407.928,565.361h-13.752a1.542,1.542,0,0,1-1.542-1.542v-3.1a1.541,1.541,0,0,1,1.542-1.542h13.752a1.541,1.541,0,0,1,1.542,1.542v3.1A1.542,1.542,0,0,1,2407.928,565.361Z" transform="translate(-2392.634 -559.181)" fill="#ffd496"/>
          <path id="Trazado_9472" data-name="Trazado 9472" d="M2435.266,560.724v3.1a1.542,1.542,0,0,1-1.542,1.542h-4.818a1.542,1.542,0,0,0,1.541-1.542v-3.1a1.542,1.542,0,0,0-1.541-1.542h4.817A1.542,1.542,0,0,1,2435.266,560.724Z" transform="translate(-2418.43 -559.182)" fill="#fcc16d"/>
        </g>
        <g id="Grupo_15987" data-name="Grupo 15987" transform="translate(0 0)">
          <path id="Trazado_9473" data-name="Trazado 9473" d="M2407.928,543.963h-13.752a1.542,1.542,0,0,1-1.542-1.542v-3.1a1.541,1.541,0,0,1,1.542-1.542h13.752a1.541,1.541,0,0,1,1.542,1.542v3.1A1.542,1.542,0,0,1,2407.928,543.963Z" transform="translate(-2392.634 -537.783)" fill="#fca62f"/>
          <path id="Trazado_9474" data-name="Trazado 9474" d="M2435.266,539.326v3.1a1.542,1.542,0,0,1-1.542,1.542h-4.818a1.542,1.542,0,0,0,1.541-1.542v-3.1a1.542,1.542,0,0,0-1.541-1.542h4.817A1.542,1.542,0,0,1,2435.266,539.326Z" transform="translate(-2418.43 -537.784)" fill="#f98824"/>
        </g>
      </g>
      <g id="Grupo_15992" data-name="Grupo 15992" transform="translate(2411.734 407.153)">
        <g id="Grupo_15989" data-name="Grupo 15989" transform="translate(0 12.361)">
          <path id="Trazado_9475" data-name="Trazado 9475" d="M2484.788,608.158h-13.753a1.541,1.541,0,0,1-1.542-1.542v-3.1a1.541,1.541,0,0,1,1.542-1.542h13.753a1.542,1.542,0,0,1,1.542,1.542v3.1A1.542,1.542,0,0,1,2484.788,608.158Z" transform="translate(-2469.493 -601.978)" fill="#fca62f"/>
          <path id="Trazado_9476" data-name="Trazado 9476" d="M2512.125,603.521v3.1a1.542,1.542,0,0,1-1.542,1.542h-4.817a1.542,1.542,0,0,0,1.542-1.542v-3.1a1.542,1.542,0,0,0-1.542-1.542h4.817A1.542,1.542,0,0,1,2512.125,603.521Z" transform="translate(-2495.289 -601.979)" fill="#f98824"/>
        </g>
        <g id="Grupo_15990" data-name="Grupo 15990" transform="translate(0 6.181)">
          <path id="Trazado_9477" data-name="Trazado 9477" d="M2484.788,586.759h-13.753a1.541,1.541,0,0,1-1.542-1.542v-3.1a1.542,1.542,0,0,1,1.542-1.542h13.753a1.542,1.542,0,0,1,1.542,1.542v3.1A1.542,1.542,0,0,1,2484.788,586.759Z" transform="translate(-2469.493 -580.579)" fill="#ffd496"/>
          <path id="Trazado_9478" data-name="Trazado 9478" d="M2512.125,582.123v3.1a1.542,1.542,0,0,1-1.542,1.542h-4.817a1.542,1.542,0,0,0,1.542-1.542v-3.1a1.542,1.542,0,0,0-1.542-1.542h4.817A1.542,1.542,0,0,1,2512.125,582.123Z" transform="translate(-2495.289 -580.58)" fill="#fcc16d"/>
        </g>
        <g id="Grupo_15991" data-name="Grupo 15991" transform="translate(0)">
          <path id="Trazado_9479" data-name="Trazado 9479" d="M2484.788,565.361h-13.753a1.542,1.542,0,0,1-1.542-1.542v-3.1a1.541,1.541,0,0,1,1.542-1.542h13.753a1.542,1.542,0,0,1,1.542,1.542v3.1A1.542,1.542,0,0,1,2484.788,565.361Z" transform="translate(-2469.493 -559.181)" fill="#fca62f"/>
          <path id="Trazado_9480" data-name="Trazado 9480" d="M2512.125,560.724v3.1a1.542,1.542,0,0,1-1.542,1.542h-4.817a1.542,1.542,0,0,0,1.542-1.542v-3.1a1.542,1.542,0,0,0-1.542-1.542h4.817A1.542,1.542,0,0,1,2512.125,560.724Z" transform="translate(-2495.289 -559.182)" fill="#f98824"/>
        </g>
      </g>
      <g id="Grupo_15996" data-name="Grupo 15996" transform="translate(2433.933 407.153)">
        <g id="Grupo_15993" data-name="Grupo 15993" transform="translate(0 12.361)">
          <path id="Trazado_9481" data-name="Trazado 9481" d="M2561.646,608.158h-13.753a1.541,1.541,0,0,1-1.542-1.542v-3.1a1.541,1.541,0,0,1,1.542-1.542h13.753a1.541,1.541,0,0,1,1.542,1.542v3.1A1.541,1.541,0,0,1,2561.646,608.158Z" transform="translate(-2546.351 -601.978)" fill="#ffd496"/>
          <path id="Trazado_9482" data-name="Trazado 9482" d="M2588.983,603.521v3.1a1.542,1.542,0,0,1-1.542,1.542h-4.817a1.542,1.542,0,0,0,1.542-1.542v-3.1a1.542,1.542,0,0,0-1.542-1.542h4.817A1.542,1.542,0,0,1,2588.983,603.521Z" transform="translate(-2572.147 -601.979)" fill="#fcc16d"/>
        </g>
        <g id="Grupo_15994" data-name="Grupo 15994" transform="translate(0 6.181)">
          <path id="Trazado_9483" data-name="Trazado 9483" d="M2561.646,586.759h-13.753a1.541,1.541,0,0,1-1.542-1.542v-3.1a1.542,1.542,0,0,1,1.542-1.542h13.753a1.542,1.542,0,0,1,1.542,1.542v3.1A1.541,1.541,0,0,1,2561.646,586.759Z" transform="translate(-2546.351 -580.579)" fill="#fca62f"/>
          <path id="Trazado_9484" data-name="Trazado 9484" d="M2588.983,582.123v3.1a1.542,1.542,0,0,1-1.542,1.542h-4.817a1.542,1.542,0,0,0,1.542-1.542v-3.1a1.542,1.542,0,0,0-1.542-1.542h4.817A1.542,1.542,0,0,1,2588.983,582.123Z" transform="translate(-2572.147 -580.58)" fill="#f98824"/>
        </g>
        <g id="Grupo_15995" data-name="Grupo 15995" transform="translate(0)">
          <path id="Trazado_9485" data-name="Trazado 9485" d="M2561.646,565.361h-13.753a1.542,1.542,0,0,1-1.542-1.542v-3.1a1.541,1.541,0,0,1,1.542-1.542h13.753a1.541,1.541,0,0,1,1.542,1.542v3.1A1.542,1.542,0,0,1,2561.646,565.361Z" transform="translate(-2546.351 -559.181)" fill="#ffd496"/>
          <path id="Trazado_9486" data-name="Trazado 9486" d="M2588.983,560.724v3.1a1.542,1.542,0,0,1-1.542,1.542h-4.817a1.542,1.542,0,0,0,1.542-1.542v-3.1a1.542,1.542,0,0,0-1.542-1.542h4.817A1.542,1.542,0,0,1,2588.983,560.724Z" transform="translate(-2572.147 -559.182)" fill="#fcc16d"/>
        </g>
      </g>
      <g id="Grupo_16000" data-name="Grupo 16000" transform="translate(2456.133 407.153)">
        <g id="Grupo_15997" data-name="Grupo 15997" transform="translate(0 12.361)">
          <path id="Trazado_9487" data-name="Trazado 9487" d="M2638.5,608.158H2624.75a1.541,1.541,0,0,1-1.542-1.542v-3.1a1.541,1.541,0,0,1,1.542-1.542H2638.5a1.541,1.541,0,0,1,1.542,1.542v3.1A1.541,1.541,0,0,1,2638.5,608.158Z" transform="translate(-2623.209 -601.978)" fill="#fca62f"/>
          <path id="Trazado_9488" data-name="Trazado 9488" d="M2665.841,603.521v3.1a1.542,1.542,0,0,1-1.542,1.542h-4.817a1.542,1.542,0,0,0,1.542-1.542v-3.1a1.542,1.542,0,0,0-1.542-1.542h4.817A1.542,1.542,0,0,1,2665.841,603.521Z" transform="translate(-2649.005 -601.979)" fill="#f98824"/>
        </g>
        <g id="Grupo_15998" data-name="Grupo 15998" transform="translate(0 6.181)">
          <path id="Trazado_9489" data-name="Trazado 9489" d="M2638.5,586.759H2624.75a1.541,1.541,0,0,1-1.542-1.542v-3.1a1.542,1.542,0,0,1,1.542-1.542H2638.5a1.542,1.542,0,0,1,1.542,1.542v3.1A1.541,1.541,0,0,1,2638.5,586.759Z" transform="translate(-2623.209 -580.579)" fill="#ffd496"/>
          <path id="Trazado_9490" data-name="Trazado 9490" d="M2665.841,582.123v3.1a1.542,1.542,0,0,1-1.542,1.542h-4.817a1.542,1.542,0,0,0,1.542-1.542v-3.1a1.542,1.542,0,0,0-1.542-1.542h4.817A1.542,1.542,0,0,1,2665.841,582.123Z" transform="translate(-2649.005 -580.58)" fill="#fcc16d"/>
        </g>
        <g id="Grupo_15999" data-name="Grupo 15999" transform="translate(0)">
          <path id="Trazado_9491" data-name="Trazado 9491" d="M2638.5,565.361H2624.75a1.542,1.542,0,0,1-1.542-1.542v-3.1a1.541,1.541,0,0,1,1.542-1.542H2638.5a1.541,1.541,0,0,1,1.542,1.542v3.1A1.542,1.542,0,0,1,2638.5,565.361Z" transform="translate(-2623.209 -559.181)" fill="#fca62f"/>
          <path id="Trazado_9492" data-name="Trazado 9492" d="M2665.841,560.724v3.1a1.542,1.542,0,0,1-1.542,1.542h-4.817a1.542,1.542,0,0,0,1.542-1.542v-3.1a1.542,1.542,0,0,0-1.542-1.542h4.817A1.542,1.542,0,0,1,2665.841,560.724Z" transform="translate(-2649.005 -559.182)" fill="#f98824"/>
        </g>
      </g>
      <g id="Grupo_16002" data-name="Grupo 16002" transform="translate(2411.734 400.972)">
        <g id="Grupo_16001" data-name="Grupo 16001" transform="translate(0)">
          <path id="Trazado_9493" data-name="Trazado 9493" d="M2484.788,543.962h-13.753a1.541,1.541,0,0,1-1.542-1.542v-3.1a1.542,1.542,0,0,1,1.542-1.542h13.753a1.542,1.542,0,0,1,1.542,1.542v3.1A1.542,1.542,0,0,1,2484.788,543.962Z" transform="translate(-2469.493 -537.782)" fill="#ffd496"/>
          <path id="Trazado_9494" data-name="Trazado 9494" d="M2512.125,539.325v3.1a1.542,1.542,0,0,1-1.542,1.542h-4.817a1.542,1.542,0,0,0,1.542-1.542v-3.1a1.542,1.542,0,0,0-1.542-1.542h4.817A1.543,1.543,0,0,1,2512.125,539.325Z" transform="translate(-2495.289 -537.783)" fill="#fcc16d"/>
        </g>
      </g>
      <g id="Grupo_16004" data-name="Grupo 16004" transform="translate(2411.734 394.791)">
        <g id="Grupo_16003" data-name="Grupo 16003" transform="translate(0 0)">
          <path id="Trazado_9495" data-name="Trazado 9495" d="M2484.788,522.563h-13.753a1.541,1.541,0,0,1-1.542-1.542v-3.1a1.541,1.541,0,0,1,1.542-1.542h13.753a1.542,1.542,0,0,1,1.542,1.542v3.1A1.542,1.542,0,0,1,2484.788,522.563Z" transform="translate(-2469.493 -516.383)" fill="#fca62f"/>
          <path id="Trazado_9496" data-name="Trazado 9496" d="M2512.125,517.926v3.1a1.542,1.542,0,0,1-1.542,1.542h-4.817a1.542,1.542,0,0,0,1.542-1.542v-3.1a1.542,1.542,0,0,0-1.542-1.542h4.817A1.542,1.542,0,0,1,2512.125,517.926Z" transform="translate(-2495.289 -516.384)" fill="#f98824"/>
        </g>
      </g>
      <g id="Grupo_16007" data-name="Grupo 16007" transform="translate(2433.933 394.792)">
        <g id="Grupo_16005" data-name="Grupo 16005" transform="translate(0 6.181)">
          <path id="Trazado_9497" data-name="Trazado 9497" d="M2561.646,543.962h-13.753a1.541,1.541,0,0,1-1.542-1.542v-3.1a1.542,1.542,0,0,1,1.542-1.542h13.753a1.542,1.542,0,0,1,1.542,1.542v3.1A1.541,1.541,0,0,1,2561.646,543.962Z" transform="translate(-2546.351 -537.782)" fill="#fca62f"/>
          <path id="Trazado_9498" data-name="Trazado 9498" d="M2588.983,539.325v3.1a1.542,1.542,0,0,1-1.542,1.542h-4.817a1.542,1.542,0,0,0,1.542-1.542v-3.1a1.542,1.542,0,0,0-1.542-1.542h4.817A1.543,1.543,0,0,1,2588.983,539.325Z" transform="translate(-2572.147 -537.783)" fill="#f98824"/>
        </g>
        <g id="Grupo_16006" data-name="Grupo 16006" transform="translate(0 0)">
          <path id="Trazado_9499" data-name="Trazado 9499" d="M2561.646,522.564h-13.753a1.542,1.542,0,0,1-1.542-1.542v-3.1a1.541,1.541,0,0,1,1.542-1.542h13.753a1.541,1.541,0,0,1,1.542,1.542v3.1A1.542,1.542,0,0,1,2561.646,522.564Z" transform="translate(-2546.351 -516.384)" fill="#ffd496"/>
          <path id="Trazado_9500" data-name="Trazado 9500" d="M2588.983,517.927v3.1a1.542,1.542,0,0,1-1.542,1.542h-4.817a1.542,1.542,0,0,0,1.542-1.542v-3.1a1.542,1.542,0,0,0-1.542-1.542h4.817A1.542,1.542,0,0,1,2588.983,517.927Z" transform="translate(-2572.147 -516.385)" fill="#fcc16d"/>
        </g>
      </g>
      <g id="Grupo_16009" data-name="Grupo 16009" transform="translate(2411.734 388.611)">
        <g id="Grupo_16008" data-name="Grupo 16008" transform="translate(0 0)">
          <path id="Trazado_9501" data-name="Trazado 9501" d="M2484.788,501.164h-13.753a1.541,1.541,0,0,1-1.542-1.542v-3.1a1.541,1.541,0,0,1,1.542-1.542h13.753a1.542,1.542,0,0,1,1.542,1.542v3.1A1.542,1.542,0,0,1,2484.788,501.164Z" transform="translate(-2469.493 -494.984)" fill="#ffd496"/>
          <path id="Trazado_9502" data-name="Trazado 9502" d="M2512.125,496.526v3.1a1.543,1.543,0,0,1-1.542,1.542h-4.817a1.542,1.542,0,0,0,1.542-1.542v-3.1a1.542,1.542,0,0,0-1.542-1.542h4.817A1.542,1.542,0,0,1,2512.125,496.526Z" transform="translate(-2495.289 -494.985)" fill="#fcc16d"/>
        </g>
      </g>
      <g id="Grupo_16011" data-name="Grupo 16011" transform="translate(2433.933 388.611)">
        <g id="Grupo_16010" data-name="Grupo 16010" transform="translate(0)">
          <path id="Trazado_9503" data-name="Trazado 9503" d="M2561.646,501.165h-13.753a1.541,1.541,0,0,1-1.542-1.542v-3.1a1.541,1.541,0,0,1,1.542-1.542h13.753a1.541,1.541,0,0,1,1.542,1.542v3.1A1.541,1.541,0,0,1,2561.646,501.165Z" transform="translate(-2546.351 -494.985)" fill="#fca62f"/>
          <path id="Trazado_9504" data-name="Trazado 9504" d="M2588.983,496.528v3.1a1.542,1.542,0,0,1-1.542,1.542h-4.817a1.542,1.542,0,0,0,1.542-1.542v-3.1a1.542,1.542,0,0,0-1.542-1.542h4.817A1.542,1.542,0,0,1,2588.983,496.528Z" transform="translate(-2572.147 -494.986)" fill="#f98824"/>
        </g>
      </g>
      <g id="Grupo_16015" data-name="Grupo 16015" transform="translate(2456.133 388.611)">
        <g id="Grupo_16012" data-name="Grupo 16012" transform="translate(0 12.361)">
          <path id="Trazado_9505" data-name="Trazado 9505" d="M2638.5,543.962H2624.75a1.541,1.541,0,0,1-1.542-1.542v-3.1a1.542,1.542,0,0,1,1.542-1.542H2638.5a1.542,1.542,0,0,1,1.542,1.542v3.1A1.541,1.541,0,0,1,2638.5,543.962Z" transform="translate(-2623.209 -537.782)" fill="#ffd496"/>
          <path id="Trazado_9506" data-name="Trazado 9506" d="M2665.841,539.325v3.1a1.542,1.542,0,0,1-1.542,1.542h-4.817a1.542,1.542,0,0,0,1.542-1.542v-3.1a1.542,1.542,0,0,0-1.542-1.542h4.817A1.542,1.542,0,0,1,2665.841,539.325Z" transform="translate(-2649.005 -537.783)" fill="#fcc16d"/>
        </g>
        <g id="Grupo_16013" data-name="Grupo 16013" transform="translate(0 6.181)">
          <path id="Trazado_9507" data-name="Trazado 9507" d="M2638.5,522.564H2624.75a1.542,1.542,0,0,1-1.542-1.542v-3.1a1.541,1.541,0,0,1,1.542-1.542H2638.5a1.541,1.541,0,0,1,1.542,1.542v3.1A1.542,1.542,0,0,1,2638.5,522.564Z" transform="translate(-2623.209 -516.384)" fill="#fca62f"/>
          <path id="Trazado_9508" data-name="Trazado 9508" d="M2665.841,517.927v3.1a1.542,1.542,0,0,1-1.542,1.542h-4.817a1.542,1.542,0,0,0,1.542-1.542v-3.1a1.542,1.542,0,0,0-1.542-1.542h4.817A1.542,1.542,0,0,1,2665.841,517.927Z" transform="translate(-2649.005 -516.385)" fill="#f98824"/>
        </g>
        <g id="Grupo_16014" data-name="Grupo 16014" transform="translate(0)">
          <path id="Trazado_9509" data-name="Trazado 9509" d="M2638.5,501.165H2624.75a1.541,1.541,0,0,1-1.542-1.542v-3.1a1.541,1.541,0,0,1,1.542-1.542H2638.5a1.541,1.541,0,0,1,1.542,1.542v3.1A1.541,1.541,0,0,1,2638.5,501.165Z" transform="translate(-2623.209 -494.985)" fill="#ffd496"/>
          <path id="Trazado_9510" data-name="Trazado 9510" d="M2665.841,496.528v3.1a1.542,1.542,0,0,1-1.542,1.542h-4.817a1.542,1.542,0,0,0,1.542-1.542v-3.1a1.542,1.542,0,0,0-1.542-1.542h4.817A1.542,1.542,0,0,1,2665.841,496.528Z" transform="translate(-2649.005 -494.986)" fill="#fcc16d"/>
        </g>
      </g>
      <g id="Grupo_16018" data-name="Grupo 16018" transform="translate(2388.275 345.407)">
        <g id="Grupo_16016" data-name="Grupo 16016" transform="translate(67.858 37.024)">
          <path id="Trazado_9511" data-name="Trazado 9511" d="M2638.5,479.768H2624.75a1.542,1.542,0,0,1-1.542-1.542v-3.1a1.541,1.541,0,0,1,1.542-1.542H2638.5a1.541,1.541,0,0,1,1.542,1.542v3.1A1.542,1.542,0,0,1,2638.5,479.768Z" transform="translate(-2623.209 -473.588)" fill="#fca62f"/>
          <path id="Trazado_9512" data-name="Trazado 9512" d="M2665.841,475.131v3.1a1.542,1.542,0,0,1-1.542,1.542h-4.817a1.542,1.542,0,0,0,1.542-1.542v-3.1a1.542,1.542,0,0,0-1.542-1.542h4.817a1.542,1.542,0,0,1,1.542,1.542Z" transform="translate(-2649.005 -473.589)" fill="#f98824"/>
        </g>
        <path id="Trazado_9513" data-name="Trazado 9513" d="M2638.5,458.369H2624.75a1.541,1.541,0,0,1-1.542-1.542v-3.1a1.541,1.541,0,0,1,1.542-1.542H2638.5a1.541,1.541,0,0,1,1.542,1.542v3.1A1.541,1.541,0,0,1,2638.5,458.369Z" transform="translate(-2555.351 -421.346)" fill="#ffd496"/>
        <path id="Trazado_9514" data-name="Trazado 9514" d="M2665.841,453.732v3.1a1.542,1.542,0,0,1-1.542,1.542h-4.817a1.542,1.542,0,0,0,1.542-1.542v-3.1a1.542,1.542,0,0,0-1.542-1.542h4.817A1.542,1.542,0,0,1,2665.841,453.732Z" transform="translate(-2581.147 -421.347)" fill="#fcc16d"/>
        <g id="Grupo_16017" data-name="Grupo 16017">
          <path id="Trazado_9515" data-name="Trazado 9515" d="M2401.422,377.2l-11.806,11.22a4.275,4.275,0,0,0,5.88,6.208l11.205-10.609a7.038,7.038,0,0,0,7.479-2.711h23.576a7.039,7.039,0,0,0,12.049-4.947c0-.163-.007-.323-.019-.484l7.324-7.324a1.259,1.259,0,1,0-1.781-1.78L2449,373.1a7.091,7.091,0,0,0-2.357-2.612l16.528-16.528h2.511v2.458l-6.193,6.2a1.259,1.259,0,1,0,1.781,1.78l4.781-4.782a4.274,4.274,0,0,0,8.182-1.733v-8.193a4.28,4.28,0,0,0-4.275-4.275h-8.193a4.274,4.274,0,0,0-1.769,8.165l-15.875,15.875a7.033,7.033,0,0,0-7.408,3.307h-22.789a7.039,7.039,0,0,0-12.5,4.442Zm-7.657,15.6a1.757,1.757,0,1,1-2.418-2.551l10.707-10.136a7.086,7.086,0,0,0,2.215,2.741Zm14.7-11.074a4.525,4.525,0,1,1,4.525-4.525A4.53,4.53,0,0,1,2408.465,381.721Zm6.86-2.935a7,7,0,0,0-.086-3.514H2435.8a7.044,7.044,0,0,0,.348,3.514Zm27.438,2.1a4.525,4.525,0,1,1,4.525-4.525A4.53,4.53,0,0,1,2442.763,380.881Zm28.953-23.006a1.757,1.757,0,0,1-3.514,0V352.7a1.259,1.259,0,0,0-1.259-1.259h-5.177a1.757,1.757,0,0,1,0-3.514h8.193a1.759,1.759,0,0,1,1.757,1.757Z" transform="translate(-2388.281 -345.407)" fill="#00223d"/>
          <path id="Trazado_9516" data-name="Trazado 9516" d="M2404.828,533.424h-13.753a2.8,2.8,0,0,0-2.8,2.8v3.1a2.789,2.789,0,0,1,0,3.084v3.1a2.789,2.789,0,0,1,0,3.084v3.1a2.788,2.788,0,0,1,0,3.084v3.1a2.8,2.8,0,0,0,2.8,2.8h13.753a2.8,2.8,0,0,0,2.8-2.8v-3.1a2.789,2.789,0,0,1,0-3.084v-3.1a2.789,2.789,0,0,1,0-3.084v-3.1a2.788,2.788,0,0,1,0-3.084v-3.1A2.8,2.8,0,0,0,2404.828,533.424Zm-14.035,2.8a.282.282,0,0,1,.282-.282h13.753a.283.283,0,0,1,.283.282v3.1a.283.283,0,0,1-.283.283h-13.753a.283.283,0,0,1-.282-.283Zm14.318,15.458a.283.283,0,0,1-.283.282h-13.753a.282.282,0,0,1-.282-.282v-3.1a.282.282,0,0,1,.282-.282h13.753a.283.283,0,0,1,.283.282Zm0-6.181a.283.283,0,0,1-.283.283h-13.753a.283.283,0,0,1-.282-.283v-3.1a.282.282,0,0,1,.282-.282h13.753a.283.283,0,0,1,.282.282v3.1Zm0,12.362a.283.283,0,0,1-.283.283h-13.753a.283.283,0,0,1-.282-.283v-3.1a.283.283,0,0,1,.282-.283h13.753a.283.283,0,0,1,.283.283Z" transform="translate(-2388.275 -479.117)" fill="#00223d"/>
          <path id="Trazado_9517" data-name="Trazado 9517" d="M2481.687,490.625h-13.753a2.8,2.8,0,0,0-2.8,2.8v3.1a2.789,2.789,0,0,1,0,3.084v3.1a2.789,2.789,0,0,1,0,3.084v3.1a2.79,2.79,0,0,1,0,3.084v3.1a2.79,2.79,0,0,1,0,3.084v3.1a2.789,2.789,0,0,1,0,3.084v3.1a2.8,2.8,0,0,0,2.8,2.8h13.753a2.8,2.8,0,0,0,2.8-2.8v-3.1a2.787,2.787,0,0,1,0-3.084v-3.1a2.788,2.788,0,0,1,0-3.084v-3.1a2.787,2.787,0,0,1,0-3.084v-3.1a2.786,2.786,0,0,1,0-3.084v-3.1a2.787,2.787,0,0,1,0-3.084v-3.1A2.8,2.8,0,0,0,2481.687,490.625Zm-14.035,2.8a.283.283,0,0,1,.283-.283h13.753a.283.283,0,0,1,.282.283v3.1a.283.283,0,0,1-.282.282h-13.753a.283.283,0,0,1-.283-.282Zm14.318,21.639a.283.283,0,0,1-.282.283h-5.559a1.259,1.259,0,1,0,0,2.518h5.559a.283.283,0,0,1,.282.282v3.1a.283.283,0,0,1-.282.282h-13.752a.283.283,0,0,1-.283-.282v-3.1a.283.283,0,0,1,.283-.282h2.311a1.259,1.259,0,1,0,0-2.518h-2.311a.283.283,0,0,1-.283-.283v-3.1a.283.283,0,0,1,.283-.282h13.753a.282.282,0,0,1,.282.282v3.1Zm0-6.181a.283.283,0,0,1-.282.283h-13.752a.283.283,0,0,1-.283-.283v-3.1a.283.283,0,0,1,.283-.283h13.752a.283.283,0,0,1,.282.283Zm0-6.181a.283.283,0,0,1-.282.283h-13.752a.283.283,0,0,1-.283-.283v-3.1a.283.283,0,0,1,.283-.282h13.752a.283.283,0,0,1,.282.282Zm0,24.723a.283.283,0,0,1-.282.282h-13.752a.283.283,0,0,1-.283-.282v-3.1a.283.283,0,0,1,.283-.283h13.752a.283.283,0,0,1,.282.283Z" transform="translate(-2442.934 -448.68)" fill="#00223d"/>
          <path id="Trazado_9518" data-name="Trazado 9518" d="M2558.545,490.625h-13.753a2.8,2.8,0,0,0-2.8,2.8v3.1a2.789,2.789,0,0,1,0,3.084v3.1a2.789,2.789,0,0,1,0,3.084v3.1a2.789,2.789,0,0,1,0,3.084v3.1a2.789,2.789,0,0,1,0,3.084v3.1a2.789,2.789,0,0,1,0,3.084v3.1a2.8,2.8,0,0,0,2.8,2.8h13.753a2.8,2.8,0,0,0,2.8-2.8v-3.1a2.789,2.789,0,0,1,0-3.084v-3.1a2.789,2.789,0,0,1,0-3.084v-3.1a2.789,2.789,0,0,1,0-3.084v-3.1a2.789,2.789,0,0,1,0-3.084v-3.1a2.789,2.789,0,0,1,0-3.084v-3.1A2.8,2.8,0,0,0,2558.545,490.625Zm-14.035,2.8a.283.283,0,0,1,.282-.283h13.753a.283.283,0,0,1,.283.283v3.1a.283.283,0,0,1-.283.282h-13.753a.283.283,0,0,1-.282-.282Zm14.318,27.82a.283.283,0,0,1-.282.282h-13.753a.283.283,0,0,1-.282-.282v-3.1a.282.282,0,0,1,.282-.282h13.753a.282.282,0,0,1,.282.282Zm0-6.181a.283.283,0,0,1-.282.283h-13.753a.283.283,0,0,1-.282-.283v-3.1a.282.282,0,0,1,.282-.282h13.753a.282.282,0,0,1,.282.282Zm0-6.181a.283.283,0,0,1-.282.283h-13.753a.283.283,0,0,1-.282-.283v-3.1a.283.283,0,0,1,.282-.283h13.753a.283.283,0,0,1,.282.283Zm0-6.181a.283.283,0,0,1-.282.283h-13.753a.283.283,0,0,1-.282-.283v-3.1a.283.283,0,0,1,.282-.283h13.753a.283.283,0,0,1,.283.283v3.1Zm0,24.723a.283.283,0,0,1-.282.282h-13.753a.283.283,0,0,1-.282-.282v-3.1a.283.283,0,0,1,.282-.283h13.753a.283.283,0,0,1,.282.283Z" transform="translate(-2497.592 -448.68)" fill="#00223d"/>
          <path id="Trazado_9519" data-name="Trazado 9519" d="M2635.4,447.83h-3.354a1.259,1.259,0,0,0,0,2.518h3.354a.283.283,0,0,1,.282.282v3.1a.283.283,0,0,1-.282.283H2621.65a.283.283,0,0,1-.283-.283v-3.1a.283.283,0,0,1,.283-.282h4.516a1.259,1.259,0,1,0,0-2.518h-4.516a2.8,2.8,0,0,0-2.8,2.8v3.1a2.788,2.788,0,0,1,0,3.084v3.1a2.787,2.787,0,0,1,0,3.084v3.1a2.787,2.787,0,0,1,0,3.084v3.1a2.788,2.788,0,0,1,0,3.084v3.1a2.787,2.787,0,0,1,0,3.084v3.1a2.787,2.787,0,0,1,0,3.084v3.1a2.788,2.788,0,0,1,0,3.084v3.1a2.8,2.8,0,0,0,2.8,2.8H2635.4a2.8,2.8,0,0,0,2.8-2.8v-3.1a2.79,2.79,0,0,1,0-3.084v-3.1a2.789,2.789,0,0,1,0-3.084v-3.1a2.79,2.79,0,0,1,0-3.084v-3.1a2.79,2.79,0,0,1,0-3.084v-3.1a2.79,2.79,0,0,1,0-3.084v-3.1a2.791,2.791,0,0,1,0-3.084v-3.1a2.79,2.79,0,0,1,0-3.084v-3.1a2.8,2.8,0,0,0-2.8-2.8Zm.282,42.982a.283.283,0,0,1-.282.282H2621.65a.283.283,0,0,1-.283-.282v-3.1a.283.283,0,0,1,.283-.283H2635.4a.282.282,0,0,1,.282.283Zm0-6.181a.283.283,0,0,1-.282.283H2621.65a.283.283,0,0,1-.283-.283v-3.1a.283.283,0,0,1,.283-.283H2635.4a.282.282,0,0,1,.282.283Zm0-6.181a.283.283,0,0,1-.282.283H2621.65a.283.283,0,0,1-.283-.283v-3.1a.283.283,0,0,1,.283-.283H2635.4a.283.283,0,0,1,.282.283Zm0-6.181a.282.282,0,0,1-.282.283H2621.65a.283.283,0,0,1-.283-.283v-3.1a.283.283,0,0,1,.283-.283H2635.4a.283.283,0,0,1,.282.283Zm0-6.181a.283.283,0,0,1-.282.282H2621.65a.283.283,0,0,1-.283-.282v-3.1a.283.283,0,0,1,.283-.283H2635.4a.283.283,0,0,1,.282.283Zm0-6.181a.282.282,0,0,1-.282.282H2621.65a.283.283,0,0,1-.283-.282v-3.1a.283.283,0,0,1,.283-.283H2635.4a.283.283,0,0,1,.282.283Zm0,37.084a.283.283,0,0,1-.282.283H2621.65a.283.283,0,0,1-.283-.283v-3.1a.283.283,0,0,1,.283-.283H2635.4a.283.283,0,0,1,.282.283Z" transform="translate(-2552.25 -418.246)" fill="#00223d"/>
        </g>
      </g>
    </g>
  </g>
</svg>
