<svg xmlns="http://www.w3.org/2000/svg" width="218.698" height="309" viewBox="0 0 218.698 309">
  <g id="Grupo_15962" data-name="Grupo 15962" transform="translate(-347 -845.225)">
    <path id="Trazado_9420" data-name="Trazado 9420" d="M1968.746,1138.872c-1.53.077-2.826,1.543-4.07-.454-1.033-1.658-1.1-3.257.086-4.38,2.433-2.3,1.927-5.031,1.818-7.8a40.846,40.846,0,0,1,.032-5.2c.256-2.846.232-5.509-1.773-7.912-.341-.408.38-2.2,1.071-2.884,2.6-2.593,2.891-5.373.445-8.129-.932-1.049-1.058-2.008-.072-2.907,1.551-1.414,1.59-3.1,1.289-4.971-.342-2.125-.964-2.572-2.985-2.026-.441.12-1.208.245-1.36.034-1.266-1.761-2.771-3.471-3.519-5.453-.843-2.236-.907-4.753-1.437-7.12-.356-1.59,1.476-5.247,3.015-5.8a4.882,4.882,0,0,0,3.354-3.419,13.82,13.82,0,0,1,1.63-4.268c1.625-2.326,1.637-4.468.546-7.023-.686-1.606-.632-3.527-.91-5.307l.966-.475c1.23,1.314,2.548,2.557,3.664,3.961a45.284,45.284,0,0,1,2.546,3.941l.581-.267a3.3,3.3,0,0,1-.129.774,3.741,3.741,0,0,0,2.911,5.3,2.778,2.778,0,0,0,2.189-1.03c2.178-3.338,1.825-6.463-.616-9.5a23.373,23.373,0,0,1-2.084-3.782c.437-.4.545-.577.636-.57,3.3.275,4.906-1.812,6.856-4.123a57.314,57.314,0,0,1,9.012-7.96c1-.771,2.639-.737,4-1,2.589-.492,3.741-1.7,4.181-4.479.341-2.161-.66-4.031-2.957-5.175,1.929-4.382,3.838-8.79,6.976-12.488,2.4-2.825,4.247-6.144,7.929-7.823,2.023-.922,3.694-1.3,5.728-.35a47.5,47.5,0,0,0,4.527,1.629,21.741,21.741,0,0,0-.608,4.045c0,.333,1.625,1.12,2.156.892,2.425-1.043,3.259-3.354,2.432-5.958-.107-.333-.229-.66-.344-.989-1.018-2.931.862-5.243,3.985-4.751a34.39,34.39,0,0,0,13.677-.652,7.663,7.663,0,0,0,2.08-.9c4.368-2.616,8.717-5.264,13.071-7.9,1.457-.883,3.114-1.632,1.584-3.838-.21-.3.212-1.4.644-1.713a7.72,7.72,0,0,1,2.664-1.108c2.052-.5,4.157-.783,6.184-1.353a2.633,2.633,0,0,0,1.313-1.566c.525-1.465,1.6-2.194,2.893-1.6a32.85,32.85,0,0,1,7.254,4.051c2.439,1.995,1.158,5.018-2.027,6.03-3.7,1.177-7.326,2.624-10.936,4.077a4.593,4.593,0,0,0-1.733,1.721c-1.75,2.523-3.4,5.119-5.159,7.632a3.236,3.236,0,0,1-1.733,1.39c-2.023.328-3.034,1.712-4.162,3.183-2.833,3.7-5.876,7.234-8.686,10.949a8.036,8.036,0,0,0-1.474,7.62,12.288,12.288,0,0,1-.968,8.772c-.833,1.721-1.528,3.507-2.241,5.162.439.345.563.517.649.5,3.876-.792,5.826,1.108,7.436,4.492,2.061,4.333,4.8,8.338,7.185,12.525,1.2,2.112,1.712,4.162.491,6.685a25.28,25.28,0,0,0-1.714,7.156,3.259,3.259,0,0,0,1.045,2.324,18.5,18.5,0,0,0,11.058,5.435,3.981,3.981,0,0,1,1.574.52,5.157,5.157,0,0,0,5.306.291,6.483,6.483,0,0,1,4.682-.263c3.116,1.325,5.9.208,8.863-.238,5.184-.782,9.938.181,13.78,4.194q4.852,5.072,10,9.856a3.968,3.968,0,0,0,3.077.99c3.1-.772,6.048-.047,8.822.922a8.171,8.171,0,0,0,6.435-.008c2.043-.821,4.662-.191,7.024-.245a5.4,5.4,0,0,0,2.179-.289c3.22-1.576,6.158-.233,6.78,3.252.4,2.236.851,4.383-.309,6.7a22.579,22.579,0,0,1-5.637,7.287c-1.493,1.086-2.484,2.435-2.008,4.639.774,3.584,1.272,7.112.06,10.894a10.668,10.668,0,0,0,1.167,8.416c1.962,3.625,2.994,7.762,4.318,11.714a2.967,2.967,0,0,1-.443,1.961c-1.249,2.419-2.581,4.8-3.884,7.189-.135.245-.282.482-.422.725-.811,1.4-1.021,3.008.2,4.032.721.6,2.178.331,3.3.453l.076-.523c.125.054.307.073.369.168,1.332,2.055,2.678,4.1,3.954,6.19.312.511.722,1.344.517,1.72-1.026,1.891.107,3.361.735,4.934,1.269,3.176,2.627,6.319,3.833,9.519,1.522,4.04,1.026,4.674-3.461,4.6a47.461,47.461,0,0,0-.6-6.146,18.3,18.3,0,0,0-1.932-4.279,31.67,31.67,0,0,1-1.813-3.018c-.479-1.244-1.119-1.473-2.376-1.283a9.537,9.537,0,0,0-5.892,3.613c-1.626,1.871-2.435,1.881-4.469.518a4.254,4.254,0,0,0-5.639.579,4.5,4.5,0,0,1-2.713,1.113q-8.276.18-16.558.073c-1.748-.024-2.6.609-2.8,2.293a21.194,21.194,0,0,0-.5,4.131c.261,3,1.553,4.411,4.577,5.049,2.514.53,4.592,1.335,5.523,4.059.389,1.136.81,1.955-.2,2.995-.3.311-.177,1.4.136,1.89,1.049,1.639,1.116,1.628.112,3.53-.135-.007-.323.036-.4-.035-2.687-2.636-5.577-2.072-8.632-.707-1.906.85-4,1.287-5.887,2.167a2.9,2.9,0,0,0-1.414,2.115c-.06,2.433-.256,5.016.459,7.268.656,2.067,2.385,3.811,3.728,5.635a5.059,5.059,0,0,0,1.643,1.283c4.28,2.368,6.41,6.472,8.55,10.559a3.389,3.389,0,0,1,.361,1.586,54.51,54.51,0,0,1-1.867,14.037c-3.8,13.209-7.36,26.49-11.018,39.74a6.534,6.534,0,0,1-.327.724c-.424-1.081-.73-2.086-1.2-3.011-1.48-2.931-4.072-2.814-6.821-2.551-1.419.137-3.434.341-4.206-.444-1.346-1.368.485-2.774,1.2-4.014,2.991-5.209,6.082-10.359,9.176-15.507.737-1.229,1.112-2.391.074-3.818a7.357,7.357,0,0,1-1.936.439,2.964,2.964,0,0,1-1.99-.607,9.776,9.776,0,0,0-6.491-3.4,2,2,0,0,1-1.25-.621c-1.424-1.995-3.38-1.73-5.063-.857-3.324,1.725-6.337,2.408-9.943.373-3.8-2.147-7.585-.45-10.724,1.868-2.083,1.541-4.147,1.286-6.338,1.283-1.911,0-3.833-.131-5.732.017-2.005.157-4.2-.932-4.712-2.656a2.742,2.742,0,0,1-.074-1.4c.947-3.5-.054-5.79-3.414-7.315a2.273,2.273,0,0,1-1.538-2.387,9.687,9.687,0,0,0-6.581-8.875c-2.453-.774-4.967-1.351-7.424-2.115a2.393,2.393,0,0,1-1.337-1.163c-.939-2.152-1.734-4.367-2.617-6.543a10.126,10.126,0,0,0-1.1-2.186c-1.235-1.686-2.5-3.359-3.878-4.926a4.9,4.9,0,0,0-2.18-1.407c-1.938-.567-3.984-.787-5.9-1.418a40.766,40.766,0,0,1-4.616-2.178,11.769,11.769,0,0,0-1.5-.651c-1.632-.517-3.109-1.113-3.7-3.007a3.05,3.05,0,0,0-1.591-1.533,68.971,68.971,0,0,0-6.592-2.651c-2.058-.683-4.375,1.17-4.458,3.384a13.687,13.687,0,0,1-.048,1.881c-.268,1.482-1.679,2.158-3.262,2.045-3.807-.274-6.6-2.872-9.98-4.1a41.972,41.972,0,0,0-6.367-1.8c-2.193-.422-2.77-.96-2.445-3.114.375-2.472-2.821-6.31-5.307-6.637a10.1,10.1,0,0,1-3.856-1.274c-3.156-1.93-6.142-4.139-9.289-6.083a54.342,54.342,0,0,0-6.29-3.249c-1.081-.487-1.474-.929-1.19-2.181.461-2.032.5-4.165,1.013-6.181a11.9,11.9,0,0,1,1.86-3.9,70.435,70.435,0,0,1,5.183-6.464,10.791,10.791,0,0,1,7.046-3.3c4.023-.419,6.446-3.309,8.182-6.236a53.163,53.163,0,0,1,6.057-7.643,50.139,50.139,0,0,0,3.683-5.457c.609-.926,1.245-1.841,1.776-2.813.6-1.1.887-2.047-.934-2.389C1969,1142.651,1968.886,1140.752,1968.746,1138.872Z" transform="translate(-1588.27 -137.611)" fill="#fcfcae"/>
    <g id="Grupo_15952" data-name="Grupo 15952" transform="translate(347 880.855)">
      <g id="Grupo_15937" data-name="Grupo 15937" transform="translate(37.15)">
        <path id="Trazado_9244" data-name="Trazado 9244" d="M986.594,864.539l6.478-26.039a7.717,7.717,0,0,1,4.318-4.447c3.43-1.461,19.246-3.177,19.246-3.177s4.067-.635,6.6,1.78,11.243,18.1,11.243,18.1Z" transform="translate(-939.089 -830.801)" fill="#f9a825" fill-rule="evenodd"/>
        <path id="Trazado_9245" data-name="Trazado 9245" d="M986.594,864.925l3.445-13.847a99.484,99.484,0,0,1,16.374-5.53,95.978,95.978,0,0,1,23.169-2.945c2.589,4.371,4.9,8.541,4.9,8.541Z" transform="translate(-939.089 -831.187)" fill="#30295e" fill-rule="evenodd"/>
        <path id="Trazado_9246" data-name="Trazado 9246" d="M1005.285,850.2c29.762-7.345,56.634-3.863,60.019,7.773s-18,27.026-47.757,34.371-56.633,3.863-60.019-7.774S975.523,857.546,1005.285,850.2Z" transform="translate(-938.128 -831.31)" fill="#ef6c00" fill-rule="evenodd"/>
        <path id="Trazado_9247" data-name="Trazado 9247" d="M1010.675,894.7c-13.6,2.586-26.193,2.862-35.68,1.1l14.764-27.058,4.34,3.346Z" transform="translate(-938.71 -832.041)" fill="#c15402" fill-rule="evenodd"/>
        <path id="Trazado_9248" data-name="Trazado 9248" d="M994.745,888.2v3.264c0,1.571-1.22,3.325-2.227,3.325v-3.566a3.169,3.169,0,0,0-3.142-2.63,27.517,27.517,0,0,1-2.729-4.677h.229v-4.28a21.12,21.12,0,0,1,21.057-21.059h11.917a21.121,21.121,0,0,1,21.058,21.059v4.28h.518c-1.8,2.665-3.443,4.677-3.443,4.677a3.169,3.169,0,0,0-3.142,2.63v3.566c-1.007,0-2.228-1.754-2.228-3.325V888.2a22.58,22.58,0,0,1-2.365-9.2H1024.6c-.545,0-1.078-.7-1.2-1.394s-.487-5.258-.607-6.347-.424-1.633-.607-1.343-.3,4.064-.606,6.493c-.3,2.392-1.654,2.585-1.7,2.59H996.153S995.963,884.742,994.745,888.2Z" transform="translate(-939.091 -831.709)" fill="#30295e" fill-rule="evenodd"/>
        <path id="Trazado_9249" data-name="Trazado 9249" d="M989.351,885.731s-.688,12.309-5.12,20.214a2.955,2.955,0,0,0,.046,3.626c1.482,1.743,10.929,9.465,27.37,11.714s32.488-11.125,32.909-12.879-5.036-14.288-4.609-24.95Z" transform="translate(-938.992 -832.522)" fill="#30295e" fill-rule="evenodd"/>
        <rect id="Rect치ngulo_3873" data-name="Rect치ngulo 3873" width="20.558" height="22.006" transform="translate(65.106 71.147)" fill="#e9baa8"/>
        <path id="Trazado_9250" data-name="Trazado 9250" d="M1004.79,915.2V904.352s13.721,1.231,20.558,1.881v14.809l-.6.463Z" transform="translate(-939.684 -833.205)" fill="#d58881" fill-rule="evenodd"/>
        <path id="Trazado_9251" data-name="Trazado 9251" d="M1053.778,927.156c5.588,2.485,6.984,4.037,15.055,21.111s13.969,31.976,13.969,31.976,4.114,1.785,4.89,3.724.157,6.209.157,6.209,5.122,6.209,3.57,13.5-8,15.833-9.936,16.843-7.14,0-7.14,0-21.805-12.188-26.771-25.228S1038.879,936.623,1053.778,927.156Z" transform="translate(-940.939 -833.951)" fill="#faf1e2" fill-rule="evenodd"/>
        <path id="Trazado_9252" data-name="Trazado 9252" d="M975.417,927.156c-5.588,2.485-6.986,4.037-15.057,21.111s-13.969,31.976-13.969,31.976-4.112,1.785-4.889,3.724-.155,6.209-.155,6.209-5.123,6.209-3.57,13.5,7.994,15.833,9.933,16.843,7.141,0,7.141,0,21.805-12.188,26.771-25.228S990.317,936.623,975.417,927.156Z" transform="translate(-937.484 -833.951)" fill="#faf1e2" fill-rule="evenodd"/>
        <path id="Trazado_9253" data-name="Trazado 9253" d="M1024.436,919.766l27.156,7.146s-7.759,18.936-2.171,35.389c0,0,2.327,11.484,1.086,20.334-.739,5.252.223,20.359,1.448,33.422H976.323c1.226-13.063,2.185-28.169,1.447-33.422-1.241-8.85,1.087-20.334,1.087-20.334,5.587-16.453-2.171-35.389-2.171-35.389l27.154-7.2c.006,2.691,4.615,4.873,10.3,4.873C1019.787,924.588,1024.37,922.434,1024.436,919.766Z" transform="translate(-938.754 -833.707)" fill="#36687a" fill-rule="evenodd"/>
        <path id="Trazado_9254" data-name="Trazado 9254" d="M1049.916,956.56a37.23,37.23,0,0,0,1.587,6.773s.093.457.231,1.257l-7.286,3.52-4.442-9.633,1.572-7.212Z" transform="translate(-940.835 -834.739)" fill="#30295e" fill-rule="evenodd"/>
        <path id="Trazado_9255" data-name="Trazado 9255" d="M1051.856,1019.313c.838,8.935,1.8,16.913,2.432,20.128a25.945,25.945,0,0,1,.5,6.679,86.061,86.061,0,0,1-81.505,0,25.988,25.988,0,0,1,.5-6.679c.632-3.215,1.594-11.193,2.433-20.128Z" transform="translate(-938.653 -836.963)" fill="#edb224" fill-rule="evenodd"/>
        <path id="Trazado_9256" data-name="Trazado 9256" d="M990.682,883.232c-.161.023-.319.048-.475.081h0a6.491,6.491,0,1,0,5.416,1.3c.165,1.915-.139,4.286-2.585,4.524l.071-3.741A2.231,2.231,0,0,0,990.682,883.232Z" transform="translate(-939.039 -832.515)" fill="#d58881" fill-rule="evenodd"/>
        <path id="Trazado_9257" data-name="Trazado 9257" d="M1039.04,883.232c.161.023.318.048.476.081h0a6.489,6.489,0,1,1-5.415,1.3c-.165,1.915.139,4.286,2.585,4.524l-.073-3.741A2.233,2.233,0,0,1,1039.04,883.232Z" transform="translate(-940.564 -832.515)" fill="#d58881" fill-rule="evenodd"/>
        <path id="Trazado_9258" data-name="Trazado 9258" d="M993.512,864.494a22.027,22.027,0,0,0-1.4,7.735v20.207a22.282,22.282,0,0,0,22.217,22.216h0a22.283,22.283,0,0,0,22.215-22.216V872.229a21.994,21.994,0,0,0-1.112-6.917,21.011,21.011,0,0,0-15.4-6.739h-11.917A20.986,20.986,0,0,0,993.512,864.494Z" transform="translate(-939.27 -831.709)" fill="#e9baa8" fill-rule="evenodd"/>
        <path id="Trazado_9259" data-name="Trazado 9259" d="M998.916,860.812l4.1,7.194,33.044,10.564s.333-1.551.706-3.647v-2.695a22.023,22.023,0,0,0-1.11-6.916,21.014,21.014,0,0,0-15.4-6.74h-11.917A20.868,20.868,0,0,0,998.916,860.812Z" transform="translate(-939.492 -831.709)" fill="#dc9c8d" fill-rule="evenodd"/>
        <path id="Trazado_9260" data-name="Trazado 9260" d="M1009.089,899.628a5.749,5.749,0,0,0,11.5.1h-.011a.993.993,0,0,0-.984-1l-9.493-.086a1,1,0,0,0-1,.984Z" transform="translate(-939.825 -833.019)" fill="#30295e" fill-rule="evenodd"/>
        <path id="Trazado_9261" data-name="Trazado 9261" d="M1011.262,904.25a5.751,5.751,0,0,0,6.642.466,3.579,3.579,0,0,0-3.268-2.151A3.626,3.626,0,0,0,1011.262,904.25Z" transform="translate(-939.896 -833.147)" fill="#c35a5a" fill-rule="evenodd"/>
        <path id="Trazado_9262" data-name="Trazado 9262" d="M1019.777,898.741l-8.922-.081a2.022,2.022,0,0,0,.958,2.209c.807.27,7.265.161,7.727-.343A3.43,3.43,0,0,0,1019.777,898.741Z" transform="translate(-939.881 -833.019)" fill="#fff" fill-rule="evenodd"/>
        <rect id="Rect치ngulo_3874" data-name="Rect치ngulo 3874" width="3.227" height="5.331" rx="1.613" transform="translate(62.423 53.104)" fill="#30295e"/>
        <path id="Trazado_9263" data-name="Trazado 9263" d="M1027.292,885.7h0a1.617,1.617,0,0,1,1.613,1.614v2.1a1.617,1.617,0,0,1-1.613,1.612h0a1.618,1.618,0,0,1-1.614-1.612v-2.1A1.618,1.618,0,0,1,1027.292,885.7Z" transform="translate(-940.367 -832.596)" fill="#30295e" fill-rule="evenodd"/>
        <path id="Trazado_9264" data-name="Trazado 9264" d="M1013.747,891.821a16.7,16.7,0,0,0-1.3,2.355c-.727,1.911,2.935,3.1,3.137,1.089a7.465,7.465,0,0,0-.371-2.575C1014.534,890.384,1014.492,890.644,1013.747,891.821Z" transform="translate(-939.931 -832.767)" fill="#f1d3c8" fill-rule="evenodd"/>
        <g id="Grupo_15920" data-name="Grupo 15920" transform="translate(58.905 47.732)">
          <g id="Grupo_15918" data-name="Grupo 15918" transform="translate(0 13.593)">
            <path id="Trazado_9265" data-name="Trazado 9265" d="M1028.584,894.712a3.048,3.048,0,1,0,2.99,3.106A3.048,3.048,0,0,0,1028.584,894.712Z" transform="translate(-999.265 -894.215)" fill="#d58881" fill-rule="evenodd"/>
            <path id="Trazado_9266" data-name="Trazado 9266" d="M1001.484,894.2a3.047,3.047,0,1,0,2.99,3.1A3.045,3.045,0,0,0,1001.484,894.2Z" transform="translate(-998.379 -894.198)" fill="#d58881" fill-rule="evenodd"/>
          </g>
          <g id="Grupo_15919" data-name="Grupo 15919" transform="translate(1.259)">
            <path id="Trazado_9267" data-name="Trazado 9267" d="M1000.822,882.383a.788.788,0,0,1-.707-1.407,7.19,7.19,0,0,1,6.757.027.789.789,0,0,1-.812,1.353A5.59,5.59,0,0,0,1000.822,882.383Z" transform="translate(-999.681 -880.146)" fill="#30295e" fill-rule="evenodd"/>
            <path id="Trazado_9268" data-name="Trazado 9268" d="M1029.085,882.386a5.588,5.588,0,0,0-5.241-.03.789.789,0,0,1-.812-1.353,7.189,7.189,0,0,1,6.755-.028.788.788,0,0,1-.7,1.411Z" transform="translate(-1000.432 -880.146)" fill="#30295e" fill-rule="evenodd"/>
          </g>
          <path id="Trazado_9269" data-name="Trazado 9269" d="M1003.158,885.639h0a1.847,1.847,0,0,0-1.183.429.762.762,0,0,1-.5-.382.3.3,0,0,0-.526.272,1.3,1.3,0,0,0,.6.577l-.014.016a1.378,1.378,0,0,1-.773-.475.3.3,0,0,0-.46.374,1.933,1.933,0,0,0,.875.606l0,0a1.824,1.824,0,0,1-.89-.285.3.3,0,1,0-.317.5,2.378,2.378,0,0,0,.919.348l.414.058v2.249a1.866,1.866,0,0,0,1.861,1.861h0a1.867,1.867,0,0,0,1.862-1.861V887.5A1.868,1.868,0,0,0,1003.158,885.639Z" transform="translate(-998.427 -880.322)" fill="#30295e" fill-rule="evenodd"/>
          <path id="Trazado_9270" data-name="Trazado 9270" d="M1026.827,885.639h0a1.853,1.853,0,0,1,1.184.429.759.759,0,0,0,.5-.382.3.3,0,0,1,.528.272,1.294,1.294,0,0,1-.6.577l.016.016a1.383,1.383,0,0,0,.774-.475.3.3,0,0,1,.459.374,1.925,1.925,0,0,1-.874.606l0,0a1.831,1.831,0,0,0,.89-.285.3.3,0,1,1,.316.5,2.38,2.38,0,0,1-.918.348l-.415.058v2.249a1.866,1.866,0,0,1-1.86,1.861h0a1.867,1.867,0,0,1-1.863-1.861V887.5A1.867,1.867,0,0,1,1026.827,885.639Z" transform="translate(-999.248 -880.322)" fill="#30295e" fill-rule="evenodd"/>
        </g>
        <path id="Trazado_9271" data-name="Trazado 9271" d="M1014.159,950.665h23.082c2.349,0,7.225,2.529,7.945,10.021s6.211,49.8,6.211,49.8H976.921s5.488-42.307,6.21-49.8,5.6-10.021,7.945-10.021Z" transform="translate(-938.773 -834.719)" fill="#edb224" fill-rule="evenodd"/>
        <path id="Trazado_9272" data-name="Trazado 9272" d="M1039.608,953.089a3.573,3.573,0,0,1-7.061-1.092c.849-5.491,1.909-11.065,3.112-16.485.5-2.264,1.043-4.527,1.659-6.763a51.665,51.665,0,0,1,1.829-5.623,1.021,1.021,0,0,1,1.209-.609l4.979,1.306a1.025,1.025,0,0,1,.669,1.421,35.583,35.583,0,0,0-1.817,5.34c-.656,2.376-1.215,4.785-1.735,7.194C1041.364,942.821,1040.4,947.988,1039.608,953.089Z" transform="translate(-940.59 -833.798)" fill="#edb224" fill-rule="evenodd"/>
        <path id="Trazado_9273" data-name="Trazado 9273" d="M1036.156,952.252a1.264,1.264,0,1,1-1.264,1.263A1.262,1.262,0,0,1,1036.156,952.252Z" transform="translate(-940.668 -834.771)" fill="#fcfcae" fill-rule="evenodd"/>
        <path id="Trazado_9274" data-name="Trazado 9274" d="M990.766,953.089A3.573,3.573,0,0,0,997.828,952c-.849-5.491-1.908-11.065-3.111-16.485-.5-2.264-1.044-4.527-1.659-6.763a51.848,51.848,0,0,0-1.831-5.623,1.02,1.02,0,0,0-1.209-.609l-4.978,1.306a1.022,1.022,0,0,0-.668,1.421,35.5,35.5,0,0,1,1.816,5.34c.656,2.376,1.215,4.785,1.735,7.194C989.01,942.821,989.977,947.988,990.766,953.089Z" transform="translate(-939.013 -833.798)" fill="#edb224" fill-rule="evenodd"/>
        <path id="Trazado_9275" data-name="Trazado 9275" d="M994.593,952.252a1.264,1.264,0,1,0,1.263,1.263A1.264,1.264,0,0,0,994.593,952.252Z" transform="translate(-939.309 -834.771)" fill="#fcfcae" fill-rule="evenodd"/>
        <g id="Grupo_15930" data-name="Grupo 15930" transform="translate(3.177 103.914)">
          <g id="Grupo_15921" data-name="Grupo 15921" transform="translate(0 47.788)">
            <path id="Trazado_9276" data-name="Trazado 9276" d="M941.455,992.838a.687.687,0,0,1-.459-1.2c.088-.079,8.838-7.792,17.411-1.627a.685.685,0,1,1-.8,1.112c-7.691-5.527-15.614,1.462-15.693,1.533A.687.687,0,0,1,941.455,992.838Z" transform="translate(-940.769 -987.628)" fill="#e5dccf"/>
          </g>
          <g id="Grupo_15922" data-name="Grupo 15922" transform="translate(5.044 28.196)">
            <path id="Trazado_9277" data-name="Trazado 9277" d="M946.67,982.243a.686.686,0,0,1-.367-1.265c.127-.08,12.656-8.014,16.817-13.34a.686.686,0,1,1,1.081.844c-4.307,5.514-16.643,13.326-17.166,13.656A.681.681,0,0,1,946.67,982.243Z" transform="translate(-945.984 -967.375)" fill="#e5dccf"/>
          </g>
          <g id="Grupo_15923" data-name="Grupo 15923" transform="translate(28.719 4.717)">
            <path id="Trazado_9278" data-name="Trazado 9278" d="M976.833,960.476a.685.685,0,0,1-.681-.614c-.013-.116-1.26-11.681-5.472-15.571a.685.685,0,1,1,.929-1.007c4.594,4.24,5.855,15.94,5.907,16.436a.686.686,0,0,1-.611.754C976.881,960.475,976.856,960.476,976.833,960.476Z" transform="translate(-970.458 -943.102)" fill="#e5dccf"/>
          </g>
          <g id="Grupo_15924" data-name="Grupo 15924" transform="translate(108.159 3.172)">
            <path id="Trazado_9279" data-name="Trazado 9279" d="M1053.269,960.2a.734.734,0,0,1-.175-.022.688.688,0,0,1-.489-.839c.132-.5,3.274-12.252,8.656-17.634a.685.685,0,1,1,.969.969c-5.118,5.12-8.267,16.9-8.3,17.015A.688.688,0,0,1,1053.269,960.2Z" transform="translate(-1052.583 -941.505)" fill="#e5dccf"/>
          </g>
          <g id="Grupo_15925" data-name="Grupo 15925" transform="translate(110.079 11.572)">
            <path id="Trazado_9280" data-name="Trazado 9280" d="M1055.252,954.66a.686.686,0,0,1-.5-1.156,12.665,12.665,0,0,1,6.055-3.3.686.686,0,0,1,.292,1.34,11.356,11.356,0,0,0-5.347,2.9A.687.687,0,0,1,1055.252,954.66Z" transform="translate(-1054.567 -950.188)" fill="#e5dccf"/>
          </g>
          <g id="Grupo_15926" data-name="Grupo 15926" transform="translate(122.894 26.308)">
            <path id="Trazado_9281" data-name="Trazado 9281" d="M1083.607,982.179a.684.684,0,0,1-.358-.1,53.706,53.706,0,0,1-15.325-15.6.686.686,0,1,1,1.152-.743,53.279,53.279,0,0,0,14.891,15.172.686.686,0,0,1-.36,1.269Z" transform="translate(-1067.815 -965.423)" fill="#e5dccf"/>
          </g>
          <g id="Grupo_15927" data-name="Grupo 15927" transform="translate(99.673)">
            <path id="Trazado_9282" data-name="Trazado 9282" d="M1049.84,955.172a.686.686,0,0,1-.664-.513c-.03-.115-3.036-11.586-5.273-15.4a.686.686,0,1,1,1.183-.694c2.332,3.977,5.292,15.268,5.416,15.747a.685.685,0,0,1-.489.837A.711.711,0,0,1,1049.84,955.172Z" transform="translate(-1043.81 -938.226)" fill="#2b5560"/>
          </g>
          <g id="Grupo_15928" data-name="Grupo 15928" transform="translate(37.686 7.799)">
            <path id="Trazado_9283" data-name="Trazado 9283" d="M980.414,958.023a.7.7,0,0,1-.207-.032.686.686,0,0,1-.447-.861c1.441-4.552,3.248-10.086,3.675-10.595a.685.685,0,1,1,1.051.878c-.284.485-1.982,5.591-3.419,10.131A.686.686,0,0,1,980.414,958.023Z" transform="translate(-979.728 -946.289)" fill="#2b5560"/>
          </g>
          <g id="Grupo_15929" data-name="Grupo 15929" transform="translate(127.176 48.281)">
            <path id="Trazado_9284" data-name="Trazado 9284" d="M1088.8,992.854a.683.683,0,0,1-.4-.131,19.419,19.419,0,0,0-15.286-2.587.686.686,0,0,1-.357-1.324,20.451,20.451,0,0,1,16.453,2.8.685.685,0,0,1-.406,1.238Z" transform="translate(-1072.243 -988.139)" fill="#e5dccf"/>
          </g>
        </g>
        <path id="Trazado_9285" data-name="Trazado 9285" d="M1025.714,919.711s-2.147,4.822-10.3,4.822c0,0,2.279,6.626,7.245,6.22s8.533-10.781,3.033-12.731Z" transform="translate(-940.031 -833.652)" fill="#fff" fill-rule="evenodd"/>
        <path id="Trazado_9286" data-name="Trazado 9286" d="M1004.679,919.711s2.148,4.822,10.3,4.822c0,0-2.279,6.626-7.244,6.22s-8.535-10.781-3.035-12.731Z" transform="translate(-939.59 -833.652)" fill="#fff" fill-rule="evenodd"/>
        <path id="Trazado_9287" data-name="Trazado 9287" d="M1040.861,877.484h-.894c-.078,3.275-.277,5.579-.277,5.579-2.88-.882-3.263,4.875-3.263,4.875-3.5-1.077-2.968-11.131-2.968-11.131-3.948-1.526-3.412-7.629-3.412-7.629-3.05,3.95-8.346-.987-8.346-.987-3.141,7.989-17.773-1.705-17.773-1.705s3.052,2.692,1.436,4.128-5.295-2.244-5.295-2.244a11.95,11.95,0,0,1-4.938,9.426c0,9.336-3.137,11.669-3.137,11.669.1-4.935-3.486-6.284-3.486-6.284s2.989-3.005,1.373-11.981a14.883,14.883,0,0,1-.215-1.9A21.107,21.107,0,0,1,1008,858.572h11.917A21.13,21.13,0,0,1,1040.861,877.484Z" transform="translate(-939.152 -831.709)" fill="#30295e" fill-rule="evenodd"/>
        <path id="Trazado_9288" data-name="Trazado 9288" d="M1051.859,1018.6c.724,7.813,1.55,14.972,2.179,18.967l-78.367-5.581-.488-2.147c.291-2.515.591-5.328.881-8.286l10.832-4.3S1036.468,1018.129,1051.859,1018.6Z" transform="translate(-938.716 -836.895)" fill="#ef6c00" fill-rule="evenodd"/>
        <g id="Grupo_15931" data-name="Grupo 15931" transform="translate(34.548 124.576)">
          <path id="Trazado_9289" data-name="Trazado 9289" d="M980.006,959.587h0a6.826,6.826,0,0,1,6.806,6.806v25.683a6.824,6.824,0,0,1-6.806,6.8h0a6.825,6.825,0,0,1-6.807-6.8V966.393A6.827,6.827,0,0,1,980.006,959.587Z" transform="translate(-973.199 -959.587)" fill="#789eae" fill-rule="evenodd"/>
          <path id="Trazado_9290" data-name="Trazado 9290" d="M994.08,959.587h0a6.828,6.828,0,0,0-6.808,6.806v25.683a6.826,6.826,0,0,0,6.808,6.8h0a6.826,6.826,0,0,0,6.806-6.8V966.393A6.828,6.828,0,0,0,994.08,959.587Z" transform="translate(-973.659 -959.587)" fill="#a0cdbc" fill-rule="evenodd"/>
          <path id="Trazado_9291" data-name="Trazado 9291" d="M1008.153,959.587h0a6.828,6.828,0,0,1,6.807,6.806v25.683a6.826,6.826,0,0,1-6.807,6.8h0a6.825,6.825,0,0,1-6.807-6.8V966.393A6.827,6.827,0,0,1,1008.153,959.587Z" transform="translate(-974.119 -959.587)" fill="#6181a4" fill-rule="evenodd"/>
          <path id="Trazado_9292" data-name="Trazado 9292" d="M1022.226,959.587h0a6.827,6.827,0,0,0-6.806,6.806v25.683a6.825,6.825,0,0,0,6.806,6.8h0a6.824,6.824,0,0,0,6.806-6.8V966.393A6.826,6.826,0,0,0,1022.226,959.587Z" transform="translate(-974.579 -959.587)" fill="#839fd1" fill-rule="evenodd"/>
          <path id="Trazado_9293" data-name="Trazado 9293" d="M1036.3,959.587h0a6.828,6.828,0,0,1,6.809,6.806v25.683a6.826,6.826,0,0,1-6.809,6.8h0a6.826,6.826,0,0,1-6.806-6.8V966.393A6.828,6.828,0,0,1,1036.3,959.587Z" transform="translate(-975.039 -959.587)" fill="#789eae" fill-rule="evenodd"/>
          <path id="Trazado_9294" data-name="Trazado 9294" d="M1050.373,959.587h0a6.827,6.827,0,0,0-6.806,6.806v25.683a6.825,6.825,0,0,0,6.806,6.8h0a6.826,6.826,0,0,0,6.808-6.8V966.393A6.828,6.828,0,0,0,1050.373,959.587Z" transform="translate(-975.499 -959.587)" fill="#a0cdbc" fill-rule="evenodd"/>
        </g>
        <g id="Grupo_15932" data-name="Grupo 15932" transform="translate(27.741 133.298)">
          <path id="Trazado_9295" data-name="Trazado 9295" d="M1057.411,968.6h0a6.828,6.828,0,0,0-6.808,6.807v25.681a6.828,6.828,0,0,0,6.808,6.807h0a6.826,6.826,0,0,0,6.805-6.807V975.41A6.826,6.826,0,0,0,1057.411,968.6Z" transform="translate(-968.922 -968.603)" fill="#789eae" fill-rule="evenodd"/>
          <path id="Trazado_9296" data-name="Trazado 9296" d="M1043.337,968.6h0a6.828,6.828,0,0,1,6.806,6.807v25.681a6.827,6.827,0,0,1-6.806,6.807h0a6.829,6.829,0,0,1-6.809-6.807V975.41A6.829,6.829,0,0,1,1043.337,968.6Z" transform="translate(-968.462 -968.603)" fill="#a0cdbc" fill-rule="evenodd"/>
          <path id="Trazado_9297" data-name="Trazado 9297" d="M1029.262,968.6h0a6.827,6.827,0,0,0-6.805,6.807v25.681a6.826,6.826,0,0,0,6.805,6.807h0a6.825,6.825,0,0,0,6.806-6.807V975.41A6.826,6.826,0,0,0,1029.262,968.6Z" transform="translate(-968.002 -968.603)" fill="#6181a4" fill-rule="evenodd"/>
          <path id="Trazado_9298" data-name="Trazado 9298" d="M1015.19,968.6h0A6.828,6.828,0,0,1,1022,975.41v25.681a6.828,6.828,0,0,1-6.807,6.807h0a6.828,6.828,0,0,1-6.807-6.807V975.41A6.828,6.828,0,0,1,1015.19,968.6Z" transform="translate(-967.542 -968.603)" fill="#839fd1" fill-rule="evenodd"/>
          <path id="Trazado_9299" data-name="Trazado 9299" d="M1001.116,968.6h0a6.827,6.827,0,0,0-6.806,6.807v25.681a6.827,6.827,0,0,0,6.806,6.807h0a6.827,6.827,0,0,0,6.807-6.807V975.41A6.828,6.828,0,0,0,1001.116,968.6Z" transform="translate(-967.082 -968.603)" fill="#789eae" fill-rule="evenodd"/>
          <path id="Trazado_9300" data-name="Trazado 9300" d="M987.042,968.6h0a6.828,6.828,0,0,1,6.808,6.807v25.681a6.828,6.828,0,0,1-6.808,6.807h0a6.827,6.827,0,0,1-6.806-6.807V975.41A6.827,6.827,0,0,1,987.042,968.6Z" transform="translate(-966.622 -968.603)" fill="#a0cdbc" fill-rule="evenodd"/>
          <path id="Trazado_9301" data-name="Trazado 9301" d="M972.969,968.6h0a6.828,6.828,0,0,0-6.807,6.807v25.681a6.827,6.827,0,0,0,6.807,6.807h0a6.828,6.828,0,0,0,6.807-6.807V975.41A6.828,6.828,0,0,0,972.969,968.6Z" transform="translate(-966.162 -968.603)" fill="#789eae" fill-rule="evenodd"/>
        </g>
        <path id="Trazado_9302" data-name="Trazado 9302" d="M1047.583,999.481H979.664c-2.015-1.914-6.645-6.314-7.521-7.1a5.718,5.718,0,0,0-3.182-1.047H963.1c-2.872,0-2.638,2.25-2.638,2.25v9.174c0,.061-.006.121-.006.18v23.2a3.468,3.468,0,0,0,3.458,3.458h99.411a3.467,3.467,0,0,0,3.457-3.458V993.584s.233-2.25-2.637-2.25h-5.861a5.713,5.713,0,0,0-3.181,1.047C1054.229,993.166,1049.6,997.566,1047.583,999.481Z" transform="translate(-938.235 -836.048)" fill="#413b73" fill-rule="evenodd"/>
        <path id="Trazado_9303" data-name="Trazado 9303" d="M960.457,1019.856v7.193a3.468,3.468,0,0,0,3.458,3.458H973.9l.007-.019-7.626-11.208A14.865,14.865,0,0,0,960.457,1019.856Z" transform="translate(-938.235 -836.96)" fill="#30295e" fill-rule="evenodd"/>
        <path id="Trazado_9304" data-name="Trazado 9304" d="M1055.777,1030.191h10.665a3.476,3.476,0,0,0,1-.149c.525-2.049,1.546-7.486,2.456-12.541v-7.952l-6.944,8.93-2.3,6.462Z" transform="translate(-941.35 -836.644)" fill="#30295e" fill-rule="evenodd"/>
        <path id="Trazado_9305" data-name="Trazado 9305" d="M1071.174,1011.979a3.721,3.721,0,0,1-.611.427c-.854.446-3.455,1.611-4.908,2.5-.8.489-6.111,8.129-6.345,8.75s1.309,2.036,2.678,1.2c1.785-1.087,4.657-3.339,4.657-3.339l-4.54,6.521s-1.086,2.213-2.755,2.213h-5.316a4.518,4.518,0,0,0-3.919,2.249c-.622,1.085.544,1.474,2.212,1.474h3.18s-.155.814,1.514.814h8.5a6.038,6.038,0,0,0,4.85-2.988c.932-1.591,5.667-6.365,6.52-8.3.4-.908.839-2.277,1.285-3.623v0l0,0,.119-.355C1079.416,1015.488,1075.424,1010.225,1071.174,1011.979Z" transform="translate(-941.16 -836.712)" fill="#e9baa8" fill-rule="evenodd"/>
        <path id="Trazado_9306" data-name="Trazado 9306" d="M958.7,1011.979a3.635,3.635,0,0,0,.611.427c.853.446,3.454,1.611,4.91,2.5.8.489,6.109,8.129,6.343,8.75s-1.309,2.036-2.678,1.2c-1.785-1.087-4.657-3.339-4.657-3.339l4.541,6.521s1.085,2.213,2.755,2.213h5.316a4.519,4.519,0,0,1,3.919,2.249c.621,1.085-.543,1.474-2.211,1.474h-3.182s.156.814-1.513.814h-8.5a6.039,6.039,0,0,1-4.852-2.988c-.931-1.591-5.665-6.365-6.519-8.3-.4-.908-.839-2.277-1.285-3.623l0,0v0l-.117-.355C950.454,1015.488,954.448,1010.225,958.7,1011.979Z" transform="translate(-937.939 -836.712)" fill="#e9baa8" fill-rule="evenodd"/>
        <path id="Trazado_9307" data-name="Trazado 9307" d="M960.457,1007.937h106.326" transform="translate(-938.235 -836.591)" fill="none" stroke="#30295e" stroke-linecap="round" stroke-linejoin="round" stroke-width="0.709" fill-rule="evenodd"/>
        <path id="Trazado_9308" data-name="Trazado 9308" d="M1033.005,848.189c14.96.4,25.843,4.463,27.917,11.591,2.128,7.316-5.532,16.115-18.911,23.466-.163.089-.327.179-.489.266h.159c-.066.1-.132.2-.2.292a5.939,5.939,0,0,1,.463.5q.669-.312,1.32-.627c16.028-7.747,25.6-17.627,23.253-25.7-2.366-8.138-16.22-12.288-34.517-11.535a129.956,129.956,0,0,0-25.5,3.762c-4.234,1.046-8.3,2.253-12.145,3.589q3.2-.955,6.547-1.783A123.232,123.232,0,0,1,1033.005,848.189Z" transform="translate(-939.343 -831.31)" fill="#f9a825" fill-rule="evenodd"/>
        <g id="Grupo_15934" data-name="Grupo 15934" transform="translate(91.23 115.274)">
          <g id="Grupo_15933" data-name="Grupo 15933">
            <path id="Trazado_9309" data-name="Trazado 9309" d="M1036.065,957.7a4.377,4.377,0,0,1-.662-.051,4.264,4.264,0,0,1-3.557-4.858q.173-1.123.36-2.247a.686.686,0,1,1,1.352.225q-.186,1.116-.358,2.231a2.887,2.887,0,0,0,5.707.883.686.686,0,0,1,1.355.209,4.26,4.26,0,0,1-4.2,3.608Z" transform="translate(-1031.796 -949.971)" fill="#ef6c00"/>
          </g>
        </g>
        <g id="Grupo_15936" data-name="Grupo 15936" transform="translate(51.067 117.512)">
          <g id="Grupo_15935" data-name="Grupo 15935">
            <path id="Trazado_9310" data-name="Trazado 9310" d="M994.483,957.776a4.26,4.26,0,0,1-4.2-3.608.686.686,0,0,1,1.355-.209,2.887,2.887,0,0,0,5.707-.883.685.685,0,1,1,1.354-.21,4.259,4.259,0,0,1-3.557,4.859A4.389,4.389,0,0,1,994.483,957.776Z" transform="translate(-990.277 -952.284)" fill="#ef6c00"/>
          </g>
        </g>
      </g>
      <g id="Grupo_15944" data-name="Grupo 15944" transform="translate(172.024 38.157)">
        <path id="Trazado_9311" data-name="Trazado 9311" d="M1077.414,894.882q-.083-1.4-.058-2.714c.016-.892.068-1.749.151-2.577a22.662,22.662,0,0,1,2.262-8.02,18.249,18.249,0,0,1,4.883-6.019,20.77,20.77,0,0,1,6.1-3.345,27.269,27.269,0,0,1,7.47-1.464c.866-.052,1.738-.067,2.612-.047s1.767.077,2.641.167h0a.351.351,0,0,1,.244.131.355.355,0,0,1,.079.264l0,.024a42.8,42.8,0,0,1-4.584,14.206c-3.7,6.636-10.213,12.515-21.517,9.73a.368.368,0,0,1-.2-.125.373.373,0,0,1-.076-.213Z" transform="translate(-1076.93 -870.262)" fill="#cddc39" fill-rule="evenodd"/>
        <g id="Grupo_15943" data-name="Grupo 15943">
          <g id="Grupo_15938" data-name="Grupo 15938" transform="translate(0 0.251)">
            <path id="Trazado_9312" data-name="Trazado 9312" d="M1077.4,895.36a.484.484,0,0,1-.372-.792c.135-.163,13.685-16.417,26.426-23.994a.484.484,0,0,1,.494.832c-12.6,7.491-26.042,23.618-26.175,23.781A.483.483,0,0,1,1077.4,895.36Z" transform="translate(-1076.915 -870.506)" fill="#fcfcae"/>
          </g>
          <g id="Grupo_15939" data-name="Grupo 15939" transform="translate(2.544 10.464)">
            <path id="Trazado_9313" data-name="Trazado 9313" d="M1093.71,893.133l-.056,0-12.667-1.473a.483.483,0,0,1-.423-.416c-.168-1.23-.982-9.3-1.016-9.643a.483.483,0,0,1,.432-.529.49.49,0,0,1,.529.433c.009.077.728,7.23.965,9.237l12.29,1.43a.484.484,0,0,1-.055.964Z" transform="translate(-1079.545 -881.065)" fill="#fcfcae"/>
          </g>
          <g id="Grupo_15940" data-name="Grupo 15940" transform="translate(8.398 3.947)">
            <path id="Trazado_9314" data-name="Trazado 9314" d="M1099.136,886.686a.556.556,0,0,1-.057,0l-12-1.4a.483.483,0,0,1-.424-.415c-.158-1.161-.835-7.823-1.057-10.013a.482.482,0,0,1,.432-.53.488.488,0,0,1,.53.431c.2,2.012.8,7.809,1.008,9.609l11.62,1.351a.484.484,0,0,1-.054.964Z" transform="translate(-1085.597 -874.327)" fill="#fcfcae"/>
          </g>
          <g id="Grupo_15941" data-name="Grupo 15941" transform="translate(14.852 0.98)">
            <path id="Trazado_9315" data-name="Trazado 9315" d="M1102.165,880.447l-.057,0-8.637-1.005a.485.485,0,0,1-.424-.415c-.123-.888-.538-4.911-.775-7.23a.484.484,0,0,1,.963-.1c.211,2.072.567,5.5.724,6.826l8.261.961a.484.484,0,0,1-.055.964Z" transform="translate(-1092.269 -871.26)" fill="#fcfcae"/>
          </g>
          <g id="Grupo_15942" data-name="Grupo 15942" transform="translate(20.757)">
            <path id="Trazado_9316" data-name="Trazado 9316" d="M1103.8,875.446l-.056,0-4.534-.527a.483.483,0,0,1-.423-.415c-.069-.5-.23-1.986-.412-3.718a.482.482,0,0,1,.43-.532.475.475,0,0,1,.532.43c.147,1.4.282,2.641.362,3.319l4.156.483a.484.484,0,0,1-.055.964Z" transform="translate(-1098.374 -870.247)" fill="#fcfcae"/>
          </g>
        </g>
      </g>
      <g id="Grupo_15951" data-name="Grupo 15951" transform="translate(0 174.502)">
        <path id="Trazado_9317" data-name="Trazado 9317" d="M941.043,1049.753q.129-2.205.092-4.282c-.024-1.4-.106-2.759-.241-4.062a35.737,35.737,0,0,0-3.564-12.646,28.772,28.772,0,0,0-7.7-9.49,32.738,32.738,0,0,0-9.612-5.274,42.977,42.977,0,0,0-11.775-2.308q-2.049-.122-4.119-.072c-1.394.03-2.786.12-4.166.262h0a.571.571,0,0,0-.509.624l.006.04a67.57,67.57,0,0,0,7.229,22.4c5.831,10.464,16.1,19.731,33.927,15.341a.57.57,0,0,0,.432-.531Z" transform="translate(-899.091 -1011.212)" fill="#cddc39" fill-rule="evenodd"/>
        <g id="Grupo_15950" data-name="Grupo 15950">
          <g id="Grupo_15945" data-name="Grupo 15945" transform="translate(0 0.39)">
            <path id="Trazado_9318" data-name="Trazado 9318" d="M941.032,1050.237a.483.483,0,0,1-.372-.175c-.212-.255-21.439-25.721-41.343-37.56a.483.483,0,1,1,.493-.831c20.051,11.925,41.381,37.516,41.594,37.774a.483.483,0,0,1-.371.792Z" transform="translate(-899.079 -1011.603)" fill="#fcfcae"/>
          </g>
          <g id="Grupo_15946" data-name="Grupo 15946" transform="translate(15.887 16.499)">
            <path id="Trazado_9319" data-name="Trazado 9319" d="M915.986,1046.725a.484.484,0,0,1-.055-.964l19.6-2.279c.344-2.834,1.535-14.664,1.548-14.79a.484.484,0,0,1,.963.1c-.054.54-1.334,13.258-1.6,15.2a.484.484,0,0,1-.424.415l-19.973,2.323A.536.536,0,0,1,915.986,1046.725Z" transform="translate(-915.503 -1028.256)" fill="#fcfcae"/>
          </g>
          <g id="Grupo_15947" data-name="Grupo 15947" transform="translate(7.645 6.221)">
            <path id="Trazado_9320" data-name="Trazado 9320" d="M907.466,1036.558a.484.484,0,0,1-.055-.964l18.541-2.155c.32-2.6,1.308-12.321,1.616-15.375a.484.484,0,0,1,.963.1c-.327,3.23-1.412,13.914-1.668,15.777a.484.484,0,0,1-.424.416l-18.917,2.2A.508.508,0,0,1,907.466,1036.558Z" transform="translate(-906.983 -1017.63)" fill="#fcfcae"/>
          </g>
          <g id="Grupo_15948" data-name="Grupo 15948" transform="translate(3.21 1.545)">
            <path id="Trazado_9321" data-name="Trazado 9321" d="M902.881,1026.72a.484.484,0,0,1-.055-.964l13.246-1.54c.171-1.4.565-5.083,1.17-10.984a.484.484,0,0,1,.963.1c-.681,6.639-1.08,10.365-1.222,11.388a.485.485,0,0,1-.423.415l-13.622,1.586Z" transform="translate(-902.398 -1012.796)" fill="#fcfcae"/>
          </g>
          <g id="Grupo_15949" data-name="Grupo 15949" transform="translate(0.947)">
            <path id="Trazado_9322" data-name="Trazado 9322" d="M900.541,1018.836a.484.484,0,0,1-.055-.964l6.772-.786c.108-.882.3-2.677.6-5.454a.483.483,0,0,1,.961.1c-.343,3.257-.554,5.172-.647,5.853a.484.484,0,0,1-.424.415l-7.148.831Z" transform="translate(-900.058 -1011.199)" fill="#fcfcae"/>
          </g>
        </g>
      </g>
    </g>
  </g>
</svg>
