<svg xmlns="http://www.w3.org/2000/svg" width="145.654" height="139.71" viewBox="0 0 145.654 139.71">
  <g id="Grupo_16582" data-name="Grupo 16582" transform="translate(-804.145 -5960)">
    <circle id="Elipse_654" data-name="Elipse 654" cx="69.855" cy="69.855" r="69.855" transform="translate(804.145 6099.71) rotate(-90)" fill="#fcfcae"/>
    <g id="Filledotuline" transform="translate(-567.758 4828.114)">
      <path id="Trazado_9389" data-name="Trazado 9389" d="M1498.394,1156.557h13.7v95.927h-13.7Z" transform="translate(-19.665 -4.116)" fill="#0093b9"/>
      <path id="Trazado_9390" data-name="Trazado 9390" d="M1498.394,1156.557h9.136v95.927h-9.136Z" transform="translate(-19.665 -4.116)" fill="#0784a9"/>
      <path id="Trazado_9391" data-name="Trazado 9391" d="M1394.225,1145.592h91.359v118.766h-91.359Z" transform="translate(-2.287 -2.287)" fill="#cddc39"/>
      <path id="Trazado_9392" data-name="Trazado 9392" d="M1489.253,1216.364l-6.852-9.136a7.058,7.058,0,0,1,10.214-6.313l8.058,4.029,8.057-4.029a7.057,7.057,0,0,1,10.214,6.313l-6.851,9.136v9.136l15.631,25.4a17.8,17.8,0,0,1-15.161,27.131h-23.781a17.8,17.8,0,0,1-15.16-27.131l15.631-25.4Z" transform="translate(-15.091 -11.391)" fill="#eaae48"/>
      <path id="Trazado_9393" data-name="Trazado 9393" d="M1492.912,1219.607h22.84v9.136h-22.84Z" transform="translate(-18.75 -14.634)" fill="#b0792c"/>
      <path id="Trazado_9394" data-name="Trazado 9394" d="M1387.828,1219.607h66.235l9.136,4.568-9.136,4.568h-66.235a4.568,4.568,0,1,1,0-9.136Z" transform="translate(-0.457 -14.634)" fill="#fbbe1f"/>
      <path id="Trazado_9395" data-name="Trazado 9395" d="M1456.36,1260.726h18.271a4.569,4.569,0,0,1,4.568,4.568h0a4.568,4.568,0,0,1-4.568,4.568H1456.36a4.568,4.568,0,0,1-4.568-4.568h0A4.569,4.569,0,0,1,1456.36,1260.726Z" transform="translate(-11.89 -21.494)" fill="#e89723"/>
      <path id="Trazado_9396" data-name="Trazado 9396" d="M1456.36,1271.692h18.271a4.568,4.568,0,0,1,4.568,4.567h0a4.568,4.568,0,0,1-4.568,4.568H1456.36a4.568,4.568,0,0,1-4.568-4.568h0A4.568,4.568,0,0,1,1456.36,1271.692Z" transform="translate(-11.89 -23.324)" fill="#f9d50f"/>
      <path id="Trazado_9397" data-name="Trazado 9397" d="M1456.36,1282.657h18.271a4.568,4.568,0,0,1,4.568,4.568h0a4.568,4.568,0,0,1-4.568,4.568H1456.36a4.568,4.568,0,0,1-4.568-4.568h0A4.568,4.568,0,0,1,1456.36,1282.657Z" transform="translate(-11.89 -25.153)" fill="#e89723"/>
      <path id="Trazado_9398" data-name="Trazado 9398" d="M1423.464,1282.657h18.272a4.567,4.567,0,0,1,4.568,4.568h0a4.568,4.568,0,0,1-4.568,4.568h-18.272a4.568,4.568,0,0,1-4.568-4.568h0A4.567,4.567,0,0,1,1423.464,1282.657Z" transform="translate(-6.402 -25.153)" fill="#f9d50f"/>
      <path id="Trazado_9399" data-name="Trazado 9399" d="M1390.569,1282.657h18.271a4.568,4.568,0,0,1,4.568,4.568h0a4.568,4.568,0,0,1-4.568,4.568h-18.271a4.568,4.568,0,0,1-4.568-4.568h0A4.568,4.568,0,0,1,1390.569,1282.657Z" transform="translate(-0.915 -25.153)" fill="#e89723"/>
      <path id="Trazado_9400" data-name="Trazado 9400" d="M1423.464,1271.692h18.272a4.567,4.567,0,0,1,4.568,4.567h0a4.568,4.568,0,0,1-4.568,4.568h-18.272a4.568,4.568,0,0,1-4.568-4.568h0A4.567,4.567,0,0,1,1423.464,1271.692Z" transform="translate(-6.402 -23.324)" fill="#e89723"/>
      <path id="Trazado_9401" data-name="Trazado 9401" d="M1396.051,1145.589h6.852v9.136a6.852,6.852,0,0,0,13.7,0v-4.568h-4.568v4.568a2.284,2.284,0,1,1-4.568,0v-13.7a4.568,4.568,0,1,1,9.136,0h-4.568v4.568h70.8v38.828h4.568v-29.691h4.568v27.407h4.568v-29.692a2.284,2.284,0,0,0-2.284-2.284h-6.852v-6.852a2.284,2.284,0,0,0-2.284-2.284h-63.951a9.136,9.136,0,0,0-18.272,0h-9.136a2.284,2.284,0,0,0-2.284,2.284v54.815h4.567Z" transform="translate(-1.829)" fill="#00223d"/>
      <path id="Trazado_9402" data-name="Trazado 9402" d="M1453.606,1228.74a2.279,2.279,0,0,0,1.021-.241l9.136-4.568a2.283,2.283,0,0,0,0-4.085l-9.136-4.568a2.285,2.285,0,0,0-1.021-.241h-51.89l1.142-4.568h16.488V1205.9h-18.272a2.283,2.283,0,0,0-2.215,1.73l-1.851,7.406h-9.636a6.852,6.852,0,1,0,0,13.7Zm4.028-6.851-4.567,2.284h-10.88V1219.6h10.88Zm-20.016-2.284v4.568h-38.186l1.141-4.568Zm-52.532,2.284a2.287,2.287,0,0,1,2.285-2.284h8.494l-1.142,4.568h-7.352A2.287,2.287,0,0,1,1385.087,1221.889Z" transform="translate(0 -12.348)" fill="#00223d"/>
      <path id="Trazado_9403" data-name="Trazado 9403" d="M1462.438,1172.761l2.043-4.086-18.271-9.136a2.283,2.283,0,0,0-2.043,0l-18.271,9.136,2.043,4.086,3.546-1.773v15.718h-4.567v4.568h36.543v-4.568h-4.567v-15.718Zm-8.114,13.945h-18.271v-18l9.136-4.568,9.136,4.568Z" transform="translate(-7.57 -4.573)" fill="#00223d"/>
      <path id="Trazado_9404" data-name="Trazado 9404" d="M1530.652,1249.246l-15.292-24.85v-7.728l6.4-8.527a2.29,2.29,0,0,0,.457-1.371,9.343,9.343,0,0,0-13.52-8.356l-7.036,3.519-7.036-3.519a9.341,9.341,0,0,0-13.519,8.356,2.285,2.285,0,0,0,.457,1.371l6.395,8.527v7.728l-11.08,18.007,3.89,2.394,10.75-17.471H1511.8l14.962,24.314a15.518,15.518,0,0,1-13.216,23.65h-23.781v4.568h23.781a20.085,20.085,0,0,0,17.106-30.612Zm-42.719-46.536a4.743,4.743,0,0,1,4.644-.209l8.058,4.029a2.283,2.283,0,0,0,2.043,0l8.058-4.029a4.775,4.775,0,0,1,6.859,3.574l-5.66,7.548h-20.556l-5.66-7.548a4.739,4.739,0,0,1,2.215-3.365Zm22.859,20.049H1492.52v-4.568h18.272Z" transform="translate(-16.074 -10.934)" fill="#00223d"/>
      <path id="Trazado_9405" data-name="Trazado 9405" d="M1498.394,1265.292v.333a6.531,6.531,0,0,0,4.568,6.221v2.582h4.568v-2.582a6.519,6.519,0,0,0,.965-12.051l-4.454-2.226a1.951,1.951,0,0,1,.872-3.7h.667a1.952,1.952,0,0,1,1.951,1.95v.333h4.568v-.333a6.53,6.53,0,0,0-4.568-6.22v-2.582h-4.568v2.582a6.519,6.519,0,0,0-.965,12.051l4.454,2.227a1.951,1.951,0,0,1-.872,3.7h-.667a1.953,1.953,0,0,1-1.95-1.951v-.333Z" transform="translate(-19.664 -19.207)" fill="#00223d"/>
      <path id="Trazado_9406" data-name="Trazado 9406" d="M1520.325,1260.726h4.568v4.568h-4.568Z" transform="translate(-23.323 -21.494)" fill="#00223d"/>
      <path id="Trazado_9407" data-name="Trazado 9407" d="M1463.2,1257.985h-18.271a6.85,6.85,0,0,1-9.136,9.136h-18.272a6.85,6.85,0,0,1-9.136,9.136h-18.271a6.852,6.852,0,0,0,0,13.7h18.271a6.835,6.835,0,0,1,9.136,0h18.272a6.835,6.835,0,0,1,9.136,0H1463.2a25.962,25.962,0,0,0,5.1-20.555,6.848,6.848,0,0,0-5.1-11.42Zm-18.271,4.568H1463.2a2.284,2.284,0,1,1,0,4.567h-18.271a2.284,2.284,0,0,1,0-4.567Zm20.556,11.419a2.287,2.287,0,0,1-2.285,2.284h-18.271a2.284,2.284,0,0,1,0-4.568H1463.2A2.287,2.287,0,0,1,1465.483,1273.973Zm-47.964-2.284h18.272a2.284,2.284,0,1,1,0,4.568h-18.272a2.284,2.284,0,0,1,0-4.568Zm-9.136,13.7h-18.271a2.284,2.284,0,0,1,0-4.568h18.271a2.284,2.284,0,0,1,0,4.568Zm27.408,0h-18.272a2.284,2.284,0,0,1,0-4.568h18.272a2.284,2.284,0,0,1,0,4.568Zm27.407,0h-18.271a2.284,2.284,0,0,1,0-4.568H1463.2a2.284,2.284,0,1,1,0,4.568Z" transform="translate(-0.457 -21.037)" fill="#00223d"/>
      <path id="Trazado_9408" data-name="Trazado 9408" d="M1391.484,1238.8h4.567v29.692h-4.567Z" transform="translate(-1.829 -17.835)" fill="#00223d"/>
      <path id="Trazado_9409" data-name="Trazado 9409" d="M1407.932,1241.537h4.567v4.568h-4.567Z" transform="translate(-4.573 -18.293)" fill="#00223d"/>
      <path id="Trazado_9410" data-name="Trazado 9410" d="M1407.932,1252.5h27.407v4.567h-27.407Z" transform="translate(-4.573 -20.122)" fill="#00223d"/>
      <path id="Trazado_9411" data-name="Trazado 9411" d="M1418.9,1241.537h41.111v4.568H1418.9Z" transform="translate(-6.402 -18.293)" fill="#00223d"/>
    </g>
  </g>
</svg>
