<svg xmlns="http://www.w3.org/2000/svg" width="238.138" height="143.355" viewBox="0 0 238.138 143.355">
  <g id="Grupo_16599" data-name="Grupo 16599" transform="translate(-517 -1213.81)">
    <g id="Grupo_16094" data-name="Grupo 16094" transform="translate(243.5 -581)">
      <circle id="Elipse_638" data-name="Elipse 638" cx="48.5" cy="48.5" r="48.5" transform="translate(394.5 1797)" fill="#f6ff9b"/>
      <g id="Grupo_10025" data-name="Grupo 10025" transform="translate(-113.384 1044.721)">
        <g id="Grupo_9992" data-name="Grupo 9992" transform="translate(524.533 758.958)">
          <path id="Trazado_8859" data-name="Trazado 8859" d="M601.85,839.047H556.1v2.86a5.719,5.719,0,0,1-11.438,0V767.558a5.72,5.72,0,0,0-5.719-5.719h52.9a10.008,10.008,0,0,1,10.008,10.009Z" transform="translate(-538.94 -761.839)" fill="#fff"/>
        </g>
        <g id="Grupo_9995" data-name="Grupo 9995" transform="translate(535.971 836.165)">
          <g id="Grupo_9994" data-name="Grupo 9994" transform="translate(0 0)">
            <g id="Grupo_9993" data-name="Grupo 9993">
              <path id="Trazado_8860" data-name="Trazado 8860" d="M624.9,994.638H579.148v2.86a5.719,5.719,0,0,1-5.719,5.719H624.9a5.719,5.719,0,0,0,5.719-5.719v-2.86Z" transform="translate(-573.429 -994.638)" fill="#8e8e8e"/>
            </g>
          </g>
        </g>
        <g id="Grupo_9997" data-name="Grupo 9997" transform="translate(518.814 758.958)">
          <g id="Grupo_9996" data-name="Grupo 9996" transform="translate(0 0)">
            <path id="Trazado_8861" data-name="Trazado 8861" d="M533.133,779H521.7V767.558a5.719,5.719,0,1,1,11.438,0Z" transform="translate(-521.695 -761.839)" fill="#8e8e8e"/>
          </g>
        </g>
        <g id="Grupo_9999" data-name="Grupo 9999" transform="translate(535.971 807.57)">
          <g id="Grupo_9998" data-name="Grupo 9998" transform="translate(0 0)">
            <circle id="Elipse_625" data-name="Elipse 625" cx="11.438" cy="11.438" r="11.438" fill="#f6ff9b"/>
          </g>
        </g>
        <g id="Grupo_10001" data-name="Grupo 10001" transform="translate(541.69 813.289)">
          <g id="Grupo_10000" data-name="Grupo 10000" transform="translate(0 0)">
            <circle id="Elipse_626" data-name="Elipse 626" cx="5.719" cy="5.719" r="5.719" fill="#cddc39"/>
          </g>
        </g>
        <g id="Grupo_10002" data-name="Grupo 10002" transform="translate(583.139 809.003)">
          <path id="Trazado_8862" data-name="Trazado 8862" d="M715.651,916.31l3.574-3.574,17.87,17.87-3.575,3.575Z" transform="translate(-715.651 -912.736)" fill="#ef6c00"/>
        </g>
        <g id="Grupo_10003" data-name="Grupo 10003" transform="translate(573.133 798.994)">
          <path id="Trazado_8863" data-name="Trazado 8863" d="M685.48,892.566l10.006-10.006,7.148,7.148-10.006,10.007Z" transform="translate(-685.48 -882.559)" fill="#ef6c00"/>
        </g>
        <g id="Grupo_10004" data-name="Grupo 10004" transform="translate(567.414 807.57)">
          <path id="Trazado_8864" data-name="Trazado 8864" d="M668.237,912.706l4.289-4.289,10.006,10.006-4.289,4.289Z" transform="translate(-668.237 -908.417)" fill="#ef6c00"/>
        </g>
        <g id="Grupo_10005" data-name="Grupo 10005" transform="translate(581.712 793.275)">
          <path id="Trazado_8865" data-name="Trazado 8865" d="M711.348,869.6l4.289-4.289,10.006,10.006-4.289,4.289Z" transform="translate(-711.348 -865.315)" fill="#ef6c00"/>
        </g>
        <g id="Grupo_10006" data-name="Grupo 10006" transform="translate(517.384 757.528)">
          <path id="Trazado_8866" data-name="Trazado 8866" d="M587.443,846.174H535.971a7.157,7.157,0,0,1-7.149-7.149v-61.48H518.814a1.429,1.429,0,0,1-1.43-1.43V764.677a7.149,7.149,0,1,1,14.3,0v74.348a4.289,4.289,0,0,0,8.579,0v-2.86a1.429,1.429,0,0,1,1.43-1.43h51.472a1.429,1.429,0,0,1,1.43,1.43v2.86A7.157,7.157,0,0,1,587.443,846.174Zm-45.756-2.859h45.756a4.3,4.3,0,0,0,4.289-4.289V837.6H543.12v1.43a7.109,7.109,0,0,1-1.433,4.289Zm-21.444-68.629h8.579V764.677a4.289,4.289,0,1,0-8.579,0Z" transform="translate(-517.384 -757.528)" fill="#00223d"/>
        </g>
        <g id="Grupo_10007" data-name="Grupo 10007" transform="translate(586.013 816.864)">
          <path id="Trazado_8867" data-name="Trazado 8867" d="M724.317,936.439h2.859v19.3h-2.859Z" transform="translate(-724.317 -936.439)" fill="#00223d"/>
        </g>
        <g id="Grupo_10008" data-name="Grupo 10008" transform="translate(524.533 757.528)">
          <path id="Trazado_8868" data-name="Trazado 8868" d="M603.28,794.7H600.42V767.536a7.157,7.157,0,0,0-7.149-7.149H538.94v-2.859h54.331a10.02,10.02,0,0,1,10.008,10.008Z" transform="translate(-538.94 -757.528)" fill="#00223d"/>
        </g>
        <g id="Grupo_10009" data-name="Grupo 10009" transform="translate(565.996 806.14)">
          <path id="Trazado_8869" data-name="Trazado 8869" d="M675.4,921.262a1.427,1.427,0,0,1-1.011-.419L664.38,910.835a1.428,1.428,0,0,1,0-2.022l4.289-4.289a1.428,1.428,0,0,1,2.022,0L680.7,914.532a1.428,1.428,0,0,1,0,2.022l-4.289,4.289A1.426,1.426,0,0,1,675.4,921.262Zm-7.987-11.438,7.987,7.987,2.268-2.268-7.987-7.987Z" transform="translate(-663.961 -904.104)" fill="#00223d"/>
        </g>
        <g id="Grupo_10010" data-name="Grupo 10010" transform="translate(580.294 791.842)">
          <path id="Trazado_8870" data-name="Trazado 8870" d="M718.51,878.151a1.427,1.427,0,0,1-1.011-.419l-10.008-10.008a1.428,1.428,0,0,1,0-2.022l4.289-4.289a1.428,1.428,0,0,1,2.022,0l10.008,10.008a1.428,1.428,0,0,1,0,2.022l-4.289,4.29A1.427,1.427,0,0,1,718.51,878.151Zm-7.987-11.438,7.987,7.987,2.268-2.268-7.987-7.986Z" transform="translate(-707.072 -860.994)" fill="#00223d"/>
        </g>
        <g id="Grupo_10011" data-name="Grupo 10011" transform="translate(572.123 797.984)">
          <path id="Trazado_8871" data-name="Trazado 8871" d="M682.436,889.518l10.007-10.007,2.021,2.022-10.006,10.006Z" transform="translate(-682.436 -879.511)" fill="#00223d"/>
        </g>
        <g id="Grupo_10012" data-name="Grupo 10012" transform="translate(579.271 805.132)">
          <path id="Trazado_8872" data-name="Trazado 8872" d="M703.987,911.073l10.007-10.006,2.022,2.022-10.006,10.006Z" transform="translate(-703.987 -901.066)" fill="#00223d"/>
        </g>
        <g id="Grupo_10013" data-name="Grupo 10013" transform="translate(582.143 807.989)">
          <path id="Trazado_8873" data-name="Trazado 8873" d="M731.53,933.567a1.426,1.426,0,0,1-1.011-.419l-17.872-17.872,2.022-2.022,16.861,16.861,1.553-1.553L716.221,911.7l2.022-2.022,17.872,17.872a1.428,1.428,0,0,1,0,2.022l-3.574,3.575A1.425,1.425,0,0,1,731.53,933.567Z" transform="translate(-712.647 -909.68)" fill="#00223d"/>
        </g>
        <g id="Grupo_10014" data-name="Grupo 10014" transform="translate(535.971 783.264)">
          <path id="Trazado_8874" data-name="Trazado 8874" d="M573.429,835.128h47.182v2.859H573.429Z" transform="translate(-573.429 -835.128)" fill="#00223d"/>
        </g>
        <g id="Grupo_10015" data-name="Grupo 10015" transform="translate(535.971 794.702)">
          <path id="Trazado_8875" data-name="Trazado 8875" d="M573.429,869.617h41.463v2.859H573.429Z" transform="translate(-573.429 -869.617)" fill="#00223d"/>
        </g>
        <g id="Grupo_10016" data-name="Grupo 10016" transform="translate(535.971 788.983)">
          <path id="Trazado_8876" data-name="Trazado 8876" d="M573.429,852.372h47.182v2.86H573.429Z" transform="translate(-573.429 -852.372)" fill="#00223d"/>
        </g>
        <g id="Grupo_10017" data-name="Grupo 10017" transform="translate(535.971 771.826)">
          <path id="Trazado_8877" data-name="Trazado 8877" d="M573.429,800.639h47.182V803.5H573.429Z" transform="translate(-573.429 -800.639)" fill="#00223d"/>
        </g>
        <g id="Grupo_10018" data-name="Grupo 10018" transform="translate(535.971 766.107)">
          <path id="Trazado_8878" data-name="Trazado 8878" d="M573.429,783.4h47.182v2.859H573.429Z" transform="translate(-573.429 -783.395)" fill="#00223d"/>
        </g>
        <g id="Grupo_10019" data-name="Grupo 10019" transform="translate(535.971 777.545)">
          <path id="Trazado_8879" data-name="Trazado 8879" d="M573.429,817.884h47.182v2.859H573.429Z" transform="translate(-573.429 -817.884)" fill="#00223d"/>
        </g>
        <g id="Grupo_10020" data-name="Grupo 10020" transform="translate(535.971 800.421)">
          <path id="Trazado_8880" data-name="Trazado 8880" d="M573.429,886.861h38.6v2.859h-38.6Z" transform="translate(-573.429 -886.861)" fill="#00223d"/>
        </g>
        <g id="Grupo_10021" data-name="Grupo 10021" transform="translate(534.541 806.14)">
          <path id="Trazado_8881" data-name="Trazado 8881" d="M581.985,929.841a12.868,12.868,0,1,1,12.868-12.868A12.883,12.883,0,0,1,581.985,929.841Zm0-22.876a10.008,10.008,0,1,0,10.008,10.008A10.02,10.02,0,0,0,581.985,906.965Z" transform="translate(-569.117 -904.105)" fill="#00223d"/>
        </g>
        <g id="Grupo_10022" data-name="Grupo 10022" transform="translate(540.26 811.859)">
          <path id="Trazado_8882" data-name="Trazado 8882" d="M593.511,935.648a7.149,7.149,0,1,1,7.149-7.149A7.157,7.157,0,0,1,593.511,935.648Zm0-11.438a4.289,4.289,0,1,0,4.29,4.289A4.295,4.295,0,0,0,593.511,924.209Z" transform="translate(-586.362 -921.35)" fill="#00223d"/>
        </g>
        <g id="Grupo_10023" data-name="Grupo 10023" transform="translate(563.137 824.726)">
          <path id="Trazado_8883" data-name="Trazado 8883" d="M672.5,967.3h-5.719a5.721,5.721,0,0,1-4.844-2.681,9.429,9.429,0,0,1-6.594,2.681v-2.859a6.573,6.573,0,0,0,5.479-2.932l.481-.721a1.43,1.43,0,0,1,2.619.794,2.862,2.862,0,0,0,2.859,2.859H672.5Z" transform="translate(-655.339 -960.147)" fill="#00223d"/>
        </g>
      </g>
    </g>
    <path id="Trazado_25757" data-name="Trazado 25757" d="M8.863,12.188h3.1V14H6.812V4.122H8.863Zm11.013-1.8-.021.472H14.646a1.819,1.819,0,0,0,.561,1.285,1.793,1.793,0,0,0,1.237.444,1.728,1.728,0,0,0,.926-.243,1.492,1.492,0,0,0,.591-.708l1.8.267a3.068,3.068,0,0,1-1.23,1.647,3.658,3.658,0,0,1-2.078.588,3.8,3.8,0,0,1-2.738-.967A3.529,3.529,0,0,1,12.7,10.486,3.55,3.55,0,0,1,13.723,7.8,3.691,3.691,0,0,1,16.4,6.822a3.528,3.528,0,0,1,2.522.9A3.513,3.513,0,0,1,19.875,10.384ZM16.41,8.217A1.556,1.556,0,0,0,14.7,9.57h3.227a1.48,1.48,0,0,0-.485-1A1.538,1.538,0,0,0,16.41,8.217Zm9.283-1.244h2.017L23.375,17.309h-2l1.606-3.6-2.892-6.74h2.146l1.675,4.621ZM37.369,3.5h1.969V14H37.471l-.048-.916a2.007,2.007,0,0,1-.892.8,3,3,0,0,1-1.316.284,3.418,3.418,0,0,1-1.312-.253,3.161,3.161,0,0,1-1.8-1.873,4.274,4.274,0,0,1-.267-1.538A4,4,0,0,1,32.3,8.542a3.185,3.185,0,0,1,1.227-1.275,3.379,3.379,0,0,1,1.692-.431,3.078,3.078,0,0,1,1.275.256,1.99,1.99,0,0,1,.878.728Zm-1.7,9.03A1.753,1.753,0,0,0,37,11.97a2.052,2.052,0,0,0,.53-1.47,2.057,2.057,0,0,0-.533-1.473,1.751,1.751,0,0,0-1.326-.564,1.771,1.771,0,0,0-1.336.554A2.056,2.056,0,0,0,33.8,10.5a2.047,2.047,0,0,0,.53,1.477A1.771,1.771,0,0,0,35.667,12.53Zm12.318-2.146-.021.472H42.755a1.819,1.819,0,0,0,.561,1.285,1.793,1.793,0,0,0,1.237.444,1.728,1.728,0,0,0,.926-.243,1.492,1.492,0,0,0,.591-.708l1.8.267a3.068,3.068,0,0,1-1.23,1.647,3.658,3.658,0,0,1-2.078.588,3.8,3.8,0,0,1-2.738-.967,3.529,3.529,0,0,1-1.015-2.683A3.55,3.55,0,0,1,41.833,7.8a3.691,3.691,0,0,1,2.673-.981,3.528,3.528,0,0,1,2.522.9A3.513,3.513,0,0,1,47.985,10.384ZM44.519,8.217A1.556,1.556,0,0,0,42.81,9.57h3.227a1.48,1.48,0,0,0-.485-1A1.538,1.538,0,0,0,44.519,8.217Zm10.363,5.92a5.586,5.586,0,0,1-2.611-.684l.868-1.688a2.58,2.58,0,0,0,1.5.526,1.08,1.08,0,0,0,.916-.393,2.063,2.063,0,0,0,.3-1.248V4.122H57.9v6.911a3.072,3.072,0,0,1-.824,2.293A3,3,0,0,1,54.882,14.137ZM64.7,6.973h1.969V14H64.8l-.048-.848a2.684,2.684,0,0,1-2.235.984,2.739,2.739,0,0,1-1.941-.632,2.345,2.345,0,0,1-.677-1.8V6.973h1.976v4.307a1.215,1.215,0,0,0,.352.964,1.337,1.337,0,0,0,.913.308,1.585,1.585,0,0,0,1.118-.4,1.718,1.718,0,0,0,.441-1.3Zm6.48,7.164a3.927,3.927,0,0,1-2.051-.492,2.08,2.08,0,0,1-1-1.463l1.647-.465a1.324,1.324,0,0,0,1.408,1.046A1.454,1.454,0,0,0,71.9,12.6a.559.559,0,0,0,.28-.543.575.575,0,0,0-.116-.362.92.92,0,0,0-.359-.26,4.471,4.471,0,0,0-.479-.185q-.236-.075-.625-.181t-.649-.2a4.35,4.35,0,0,1-.619-.263,2.639,2.639,0,0,1-.513-.362,1.46,1.46,0,0,1-.383-.55,1.985,1.985,0,0,1-.133-.752,1.8,1.8,0,0,1,.762-1.572,3.406,3.406,0,0,1,1.993-.533,3.492,3.492,0,0,1,1.839.451A2.042,2.042,0,0,1,73.838,8.7l-1.524.342a1.194,1.194,0,0,0-1.251-.889,1.37,1.37,0,0,0-.69.157.505.505,0,0,0-.273.465.533.533,0,0,0,.041.212.419.419,0,0,0,.144.171,2.093,2.093,0,0,0,.2.13,1.5,1.5,0,0,0,.28.113q.185.058.308.089l.359.092.366.1q.376.1.66.205a3.864,3.864,0,0,1,.6.287,2.171,2.171,0,0,1,.53.414,1.845,1.845,0,0,1,.345.581,2.146,2.146,0,0,1,.137.783,2.114,2.114,0,0,1-.236,1.019,1.77,1.77,0,0,1-.646.687,3.144,3.144,0,0,1-.913.369A4.734,4.734,0,0,1,71.179,14.137ZM78.1,14a2.122,2.122,0,0,1-1.586-.571,2.22,2.22,0,0,1-.561-1.624V8.483H74.577V6.973h.444a1.159,1.159,0,0,0,.875-.294,1.514,1.514,0,0,0,.28-1.046V4.7h1.777v2.27H79.4V8.483H77.954v3.11q0,.909.813.909H79.4V14Zm3.828-8.08a1.105,1.105,0,0,1-.807-.332,1.088,1.088,0,0,1-.335-.8,1.075,1.075,0,0,1,.338-.8,1.109,1.109,0,0,1,.8-.332A1.138,1.138,0,0,1,83.06,4.785,1.138,1.138,0,0,1,81.932,5.92Zm-1,8.08V6.973H82.91V14Zm7.2.13a3.755,3.755,0,0,1-2.714-1.012,3.494,3.494,0,0,1-1.053-2.639,3.486,3.486,0,0,1,1.049-2.639A4.172,4.172,0,0,1,90.4,7.513,3.021,3.021,0,0,1,91.578,9.42l-1.818.2a1.558,1.558,0,0,0-.588-.923A1.788,1.788,0,0,0,88.1,8.388a1.612,1.612,0,0,0-1.285.574,2.251,2.251,0,0,0-.492,1.518,2.254,2.254,0,0,0,.492,1.514,1.608,1.608,0,0,0,1.285.578,1.772,1.772,0,0,0,1.063-.308,1.594,1.594,0,0,0,.591-.923l1.818.2a3.03,3.03,0,0,1-1.186,1.907A3.729,3.729,0,0,1,88.125,14.13Zm5.858-8.21a1.105,1.105,0,0,1-.807-.332,1.088,1.088,0,0,1-.335-.8,1.075,1.075,0,0,1,.338-.8,1.109,1.109,0,0,1,.8-.332,1.138,1.138,0,0,1,1.128,1.128A1.138,1.138,0,0,1,93.984,5.92Zm-1,8.08V6.973h1.982V14Zm9.782-1.907a6.574,6.574,0,0,0,.171,1.716V14h-1.839l-.157-.766a2.285,2.285,0,0,1-.984.677,3.628,3.628,0,0,1-1.271.226,3.343,3.343,0,0,1-.656-.062,2.231,2.231,0,0,1-.591-.208,1.794,1.794,0,0,1-.489-.366,1.6,1.6,0,0,1-.328-.557,2.219,2.219,0,0,1-.123-.762,2.114,2.114,0,0,1,.13-.762,1.786,1.786,0,0,1,.342-.571,2.073,2.073,0,0,1,.554-.417,4.237,4.237,0,0,1,.7-.3,8.331,8.331,0,0,1,.834-.219l1.155-.26a1.274,1.274,0,0,0,.523-.222.443.443,0,0,0,.154-.352.725.725,0,0,0-.345-.677A1.612,1.612,0,0,0,99.7,8.2,1.2,1.2,0,0,0,98.325,9.27l-1.743-.314a2.36,2.36,0,0,1,1.019-1.6,4.048,4.048,0,0,1,2.208-.516q2.953,0,2.953,2.536ZM99.3,12.8a1.583,1.583,0,0,0,1.217-.509,2.146,2.146,0,0,0,.472-1.507l-1.668.472a1.971,1.971,0,0,0-.7.287.59.59,0,0,0-.243.506.655.655,0,0,0,.26.557A1.075,1.075,0,0,0,99.3,12.8Zm13.617-5.831h2.017L110.6,17.309h-2l1.606-3.6-2.892-6.74h2.146l1.675,4.621Zm11.061-2.851a2.973,2.973,0,0,1,2.276.919,3.2,3.2,0,0,1,.861,2.273,3.119,3.119,0,0,1-.854,2.259,3.027,3.027,0,0,1-2.283.885h-2.058V14h-2.051V4.122Zm-.342,4.621a1.507,1.507,0,0,0,1.128-.386,1.469,1.469,0,0,0,.376-1.07,1.456,1.456,0,0,0-.379-1.056,1.494,1.494,0,0,0-1.125-.393h-1.716V8.743Zm10.466,3.35a6.574,6.574,0,0,0,.171,1.716V14h-1.839l-.157-.766a2.285,2.285,0,0,1-.984.677,3.628,3.628,0,0,1-1.271.226,3.343,3.343,0,0,1-.656-.062,2.231,2.231,0,0,1-.591-.208,1.794,1.794,0,0,1-.489-.366,1.6,1.6,0,0,1-.328-.557,2.219,2.219,0,0,1-.123-.762,2.114,2.114,0,0,1,.13-.762,1.786,1.786,0,0,1,.342-.571,2.073,2.073,0,0,1,.554-.417,4.236,4.236,0,0,1,.7-.3,8.331,8.331,0,0,1,.834-.219l1.155-.26a1.274,1.274,0,0,0,.523-.222.443.443,0,0,0,.154-.352.725.725,0,0,0-.345-.677,1.612,1.612,0,0,0-.837-.205,1.2,1.2,0,0,0-1.374,1.073l-1.743-.314a2.36,2.36,0,0,1,1.019-1.6,4.048,4.048,0,0,1,2.208-.516q2.953,0,2.953,2.536Zm-3.466.711a1.583,1.583,0,0,0,1.217-.509,2.146,2.146,0,0,0,.472-1.507l-1.668.472a1.971,1.971,0,0,0-.7.287.59.59,0,0,0-.243.506.655.655,0,0,0,.26.557A1.075,1.075,0,0,0,130.631,12.8Zm10.507-5.831-3.09,5.51h2.994V14h-5.79l3.076-5.51h-2.837V6.973ZM24.678,30.886h3.343V32H23.454V22.375h1.224Zm10.814-2.379-.014.321h-5.25a2.375,2.375,0,0,0,.643,1.719,2.11,2.11,0,0,0,1.531.6,2.015,2.015,0,0,0,1.114-.321,2.085,2.085,0,0,0,.766-.889l1.066.226A3.031,3.031,0,0,1,34.2,31.6a3.133,3.133,0,0,1-1.784.526A3.246,3.246,0,0,1,30,31.193a3.484,3.484,0,0,1-.923-2.557A3.467,3.467,0,0,1,30,26.087a3.206,3.206,0,0,1,2.382-.937,3.034,3.034,0,0,1,2.259.861A3.4,3.4,0,0,1,35.492,28.507Zm-3.11-2.447a2.1,2.1,0,0,0-1.4.475,2.177,2.177,0,0,0-.708,1.384H34.3a2,2,0,0,0-.588-1.384A1.9,1.9,0,0,0,32.382,26.06Zm8.839-.779h1.251l-3.89,9.885H37.358l1.347-3.329L36.094,25.28h1.313L39.3,30.51Zm9.03-3.015a3.363,3.363,0,0,1,2.389.906,3.054,3.054,0,0,1,.967,2.334,3.79,3.79,0,0,1-.841,2.311L49.547,32H48.132l2.659-3.35a3.105,3.105,0,0,1-.807.1,2.956,2.956,0,0,1-2.591-1.48,3.286,3.286,0,0,1-.458-1.685,3.457,3.457,0,0,1,.25-1.357,2.987,2.987,0,0,1,.708-1.053,3.294,3.294,0,0,1,1.063-.67A3.481,3.481,0,0,1,50.251,22.266Zm-1.528,4.956a2.182,2.182,0,0,0,1.576.6,2.058,2.058,0,0,0,1.569-.66,2.217,2.217,0,0,0,.6-1.61,2.149,2.149,0,0,0-.622-1.6,2.384,2.384,0,0,0-3.155.031,2.125,2.125,0,0,0-.612,1.624A2.178,2.178,0,0,0,48.723,27.222Zm6.156-4.847h6.583v.991L56.759,32H55.405l4.744-8.531H54.879ZM65.81,25.807a3.73,3.73,0,0,1,2.625.81,2.938,2.938,0,0,1,.868,2.259,3.2,3.2,0,0,1-.892,2.341,3.131,3.131,0,0,1-2.334.906,3.709,3.709,0,0,1-1.207-.195,3.259,3.259,0,0,1-1.019-.561,2.564,2.564,0,0,1-.711-.947,3.113,3.113,0,0,1-.263-1.3,4.391,4.391,0,0,1,.034-.492l1.21-.1a4.81,4.81,0,0,0-.055.54,2.173,2.173,0,0,0,.174.9,1.531,1.531,0,0,0,.468.612,2.13,2.13,0,0,0,.632.332,2.308,2.308,0,0,0,.714.109,1.974,1.974,0,0,0,1.494-.588,2.093,2.093,0,0,0,.564-1.511,1.99,1.99,0,0,0-.584-1.518,2.619,2.619,0,0,0-1.849-.554H63.246l.595-4.457h5.045v1.1H64.839l-.314,2.317ZM79.775,21.5h1.183V32H79.816l-.027-1.306a2.473,2.473,0,0,1-.957,1.06,2.667,2.667,0,0,1-1.422.39,3.054,3.054,0,0,1-2.218-.947,3.236,3.236,0,0,1-.677-1.111,4.063,4.063,0,0,1-.25-1.442,3.533,3.533,0,0,1,.913-2.522,2.946,2.946,0,0,1,2.232-.971,2.678,2.678,0,0,1,1.4.379,2.487,2.487,0,0,1,.96,1.029Zm-2.119,9.618a2.012,2.012,0,0,0,1.562-.708,2.775,2.775,0,0,0,0-3.531,2.011,2.011,0,0,0-1.559-.711,2.056,2.056,0,0,0-1.572.687,2.831,2.831,0,0,0,0,3.575A2.056,2.056,0,0,0,77.656,31.118Zm11.587-2.611-.014.321h-5.25a2.374,2.374,0,0,0,.643,1.719,2.11,2.11,0,0,0,1.531.6,2.015,2.015,0,0,0,1.114-.321,2.085,2.085,0,0,0,.766-.889l1.066.226A3.031,3.031,0,0,1,87.951,31.6a3.133,3.133,0,0,1-1.784.526,3.246,3.246,0,0,1-2.42-.937,3.484,3.484,0,0,1-.923-2.557,3.467,3.467,0,0,1,.926-2.55,3.206,3.206,0,0,1,2.382-.937,3.034,3.034,0,0,1,2.259.861A3.4,3.4,0,0,1,89.243,28.507Zm-3.11-2.447a2.1,2.1,0,0,0-1.4.475,2.177,2.177,0,0,0-.708,1.384h4.026a2,2,0,0,0-.588-1.384A1.9,1.9,0,0,0,86.133,26.06Zm9.782,4.854h4.792V32H94.213v-.9l3.855-3.985a4.567,4.567,0,0,0,.868-1.142,2.278,2.278,0,0,0,.239-.991,1.661,1.661,0,0,0-.485-1.275,1.981,1.981,0,0,0-2.574.041,2.132,2.132,0,0,0-.489,1.548v.711L94.445,25.9v-.595a3.042,3.042,0,0,1,.813-2.287,3.368,3.368,0,0,1,4.262-.058,2.544,2.544,0,0,1,.817,2,3.027,3.027,0,0,1-.325,1.391,5.98,5.98,0,0,1-1.042,1.384Zm9.44,1.217a2.681,2.681,0,0,1-2.372-1.258,6.707,6.707,0,0,1-.834-3.691,6.737,6.737,0,0,1,.824-3.685,2.882,2.882,0,0,1,4.754,0,6.718,6.718,0,0,1,.827,3.681,6.688,6.688,0,0,1-.837,3.688A2.675,2.675,0,0,1,105.355,32.13Zm0-1.094a1.628,1.628,0,0,0,1.5-.964,6.284,6.284,0,0,0,.52-2.892,6.107,6.107,0,0,0-.53-2.888,1.645,1.645,0,0,0-2.977,0,6.138,6.138,0,0,0-.526,2.892,6.317,6.317,0,0,0,.516,2.9A1.626,1.626,0,0,0,105.355,31.036Zm7.882,1.094a2.681,2.681,0,0,1-2.372-1.258,6.707,6.707,0,0,1-.834-3.691,6.737,6.737,0,0,1,.824-3.685,2.882,2.882,0,0,1,4.754,0,6.718,6.718,0,0,1,.827,3.681,6.688,6.688,0,0,1-.837,3.688A2.675,2.675,0,0,1,113.237,32.13Zm0-1.094a1.628,1.628,0,0,0,1.5-.964,6.284,6.284,0,0,0,.52-2.892,6.107,6.107,0,0,0-.53-2.888,1.645,1.645,0,0,0-2.977,0,6.138,6.138,0,0,0-.526,2.892,6.317,6.317,0,0,0,.516,2.9A1.626,1.626,0,0,0,113.237,31.036Zm7.656-5.229a3.73,3.73,0,0,1,2.625.81,2.938,2.938,0,0,1,.868,2.259,3.2,3.2,0,0,1-.892,2.341,3.131,3.131,0,0,1-2.334.906,3.709,3.709,0,0,1-1.207-.195,3.259,3.259,0,0,1-1.019-.561,2.564,2.564,0,0,1-.711-.947,3.113,3.113,0,0,1-.263-1.3A4.39,4.39,0,0,1,118,28.63l1.21-.1a4.81,4.81,0,0,0-.055.54,2.173,2.173,0,0,0,.174.9,1.531,1.531,0,0,0,.468.612,2.13,2.13,0,0,0,.632.332,2.308,2.308,0,0,0,.714.109,1.974,1.974,0,0,0,1.494-.588,2.093,2.093,0,0,0,.564-1.511,1.99,1.99,0,0,0-.584-1.518,2.619,2.619,0,0,0-1.849-.554H118.33l.595-4.457h5.045v1.1h-4.047l-.314,2.317Z" transform="translate(614 1322)" fill="#00223d"/>
    <path id="Trazado_25758" data-name="Trazado 25758" d="M48.5,0A48.5,48.5,0,1,1,0,48.5,48.5,48.5,0,0,1,48.5,0Z" transform="translate(638 1216)" fill="#f6ff9b"/>
    <g id="Grupo_10025-2" data-name="Grupo 10025" transform="translate(130.116 463.721)">
      <g id="Grupo_9992-2" data-name="Grupo 9992" transform="translate(524.533 758.958)">
        <path id="Trazado_8859-2" data-name="Trazado 8859" d="M601.85,839.047H556.1v2.86a5.719,5.719,0,0,1-11.438,0V767.558a5.72,5.72,0,0,0-5.719-5.719h52.9a10.008,10.008,0,0,1,10.008,10.009Z" transform="translate(-538.94 -761.839)" fill="#fff"/>
      </g>
      <g id="Grupo_9995-2" data-name="Grupo 9995" transform="translate(535.971 836.165)">
        <g id="Grupo_9994-2" data-name="Grupo 9994" transform="translate(0 0)">
          <g id="Grupo_9993-2" data-name="Grupo 9993">
            <path id="Trazado_8860-2" data-name="Trazado 8860" d="M624.9,994.638H579.148v2.86a5.719,5.719,0,0,1-5.719,5.719H624.9a5.719,5.719,0,0,0,5.719-5.719v-2.86Z" transform="translate(-573.429 -994.638)" fill="#8e8e8e"/>
          </g>
        </g>
      </g>
      <g id="Grupo_9997-2" data-name="Grupo 9997" transform="translate(518.814 758.958)">
        <g id="Grupo_9996-2" data-name="Grupo 9996" transform="translate(0 0)">
          <path id="Trazado_8861-2" data-name="Trazado 8861" d="M533.133,779H521.7V767.558a5.719,5.719,0,1,1,11.438,0Z" transform="translate(-521.695 -761.839)" fill="#8e8e8e"/>
        </g>
      </g>
      <g id="Grupo_9999-2" data-name="Grupo 9999" transform="translate(535.971 807.57)">
        <g id="Grupo_9998-2" data-name="Grupo 9998" transform="translate(0 0)">
          <circle id="Elipse_625-2" data-name="Elipse 625" cx="11.438" cy="11.438" r="11.438" fill="#f6ff9b"/>
        </g>
      </g>
      <g id="Grupo_10001-2" data-name="Grupo 10001" transform="translate(541.69 813.289)">
        <g id="Grupo_10000-2" data-name="Grupo 10000" transform="translate(0 0)">
          <circle id="Elipse_626-2" data-name="Elipse 626" cx="5.719" cy="5.719" r="5.719" fill="#cddc39"/>
        </g>
      </g>
      <g id="Grupo_10002-2" data-name="Grupo 10002" transform="translate(583.139 809.003)">
        <path id="Trazado_8862-2" data-name="Trazado 8862" d="M715.651,916.31l3.574-3.574,17.87,17.87-3.575,3.575Z" transform="translate(-715.651 -912.736)" fill="#ef6c00"/>
      </g>
      <g id="Grupo_10003-2" data-name="Grupo 10003" transform="translate(573.133 798.994)">
        <path id="Trazado_8863-2" data-name="Trazado 8863" d="M685.48,892.566l10.006-10.006,7.148,7.148-10.006,10.007Z" transform="translate(-685.48 -882.559)" fill="#ef6c00"/>
      </g>
      <g id="Grupo_10004-2" data-name="Grupo 10004" transform="translate(567.414 807.57)">
        <path id="Trazado_8864-2" data-name="Trazado 8864" d="M668.237,912.706l4.289-4.289,10.006,10.006-4.289,4.289Z" transform="translate(-668.237 -908.417)" fill="#ef6c00"/>
      </g>
      <g id="Grupo_10005-2" data-name="Grupo 10005" transform="translate(581.712 793.275)">
        <path id="Trazado_8865-2" data-name="Trazado 8865" d="M711.348,869.6l4.289-4.289,10.006,10.006-4.289,4.289Z" transform="translate(-711.348 -865.315)" fill="#ef6c00"/>
      </g>
      <g id="Grupo_10006-2" data-name="Grupo 10006" transform="translate(517.384 757.528)">
        <path id="Trazado_8866-2" data-name="Trazado 8866" d="M587.443,846.174H535.971a7.157,7.157,0,0,1-7.149-7.149v-61.48H518.814a1.429,1.429,0,0,1-1.43-1.43V764.677a7.149,7.149,0,1,1,14.3,0v74.348a4.289,4.289,0,0,0,8.579,0v-2.86a1.429,1.429,0,0,1,1.43-1.43h51.472a1.429,1.429,0,0,1,1.43,1.43v2.86A7.157,7.157,0,0,1,587.443,846.174Zm-45.756-2.859h45.756a4.3,4.3,0,0,0,4.289-4.289V837.6H543.12v1.43a7.109,7.109,0,0,1-1.433,4.289Zm-21.444-68.629h8.579V764.677a4.289,4.289,0,1,0-8.579,0Z" transform="translate(-517.384 -757.528)" fill="#00223d"/>
      </g>
      <g id="Grupo_10007-2" data-name="Grupo 10007" transform="translate(586.013 816.864)">
        <path id="Trazado_8867-2" data-name="Trazado 8867" d="M724.317,936.439h2.859v19.3h-2.859Z" transform="translate(-724.317 -936.439)" fill="#00223d"/>
      </g>
      <g id="Grupo_10008-2" data-name="Grupo 10008" transform="translate(524.533 757.528)">
        <path id="Trazado_8868-2" data-name="Trazado 8868" d="M603.28,794.7H600.42V767.536a7.157,7.157,0,0,0-7.149-7.149H538.94v-2.859h54.331a10.02,10.02,0,0,1,10.008,10.008Z" transform="translate(-538.94 -757.528)" fill="#00223d"/>
      </g>
      <g id="Grupo_10009-2" data-name="Grupo 10009" transform="translate(565.996 806.14)">
        <path id="Trazado_8869-2" data-name="Trazado 8869" d="M675.4,921.262a1.427,1.427,0,0,1-1.011-.419L664.38,910.835a1.428,1.428,0,0,1,0-2.022l4.289-4.289a1.428,1.428,0,0,1,2.022,0L680.7,914.532a1.428,1.428,0,0,1,0,2.022l-4.289,4.289A1.426,1.426,0,0,1,675.4,921.262Zm-7.987-11.438,7.987,7.987,2.268-2.268-7.987-7.987Z" transform="translate(-663.961 -904.104)" fill="#00223d"/>
      </g>
      <g id="Grupo_10010-2" data-name="Grupo 10010" transform="translate(580.294 791.842)">
        <path id="Trazado_8870-2" data-name="Trazado 8870" d="M718.51,878.151a1.427,1.427,0,0,1-1.011-.419l-10.008-10.008a1.428,1.428,0,0,1,0-2.022l4.289-4.289a1.428,1.428,0,0,1,2.022,0l10.008,10.008a1.428,1.428,0,0,1,0,2.022l-4.289,4.29A1.427,1.427,0,0,1,718.51,878.151Zm-7.987-11.438,7.987,7.987,2.268-2.268-7.987-7.986Z" transform="translate(-707.072 -860.994)" fill="#00223d"/>
      </g>
      <g id="Grupo_10011-2" data-name="Grupo 10011" transform="translate(572.123 797.984)">
        <path id="Trazado_8871-2" data-name="Trazado 8871" d="M682.436,889.518l10.007-10.007,2.021,2.022-10.006,10.006Z" transform="translate(-682.436 -879.511)" fill="#00223d"/>
      </g>
      <g id="Grupo_10012-2" data-name="Grupo 10012" transform="translate(579.271 805.132)">
        <path id="Trazado_8872-2" data-name="Trazado 8872" d="M703.987,911.073l10.007-10.006,2.022,2.022-10.006,10.006Z" transform="translate(-703.987 -901.066)" fill="#00223d"/>
      </g>
      <g id="Grupo_10013-2" data-name="Grupo 10013" transform="translate(582.143 807.989)">
        <path id="Trazado_8873-2" data-name="Trazado 8873" d="M731.53,933.567a1.426,1.426,0,0,1-1.011-.419l-17.872-17.872,2.022-2.022,16.861,16.861,1.553-1.553L716.221,911.7l2.022-2.022,17.872,17.872a1.428,1.428,0,0,1,0,2.022l-3.574,3.575A1.425,1.425,0,0,1,731.53,933.567Z" transform="translate(-712.647 -909.68)" fill="#00223d"/>
      </g>
      <g id="Grupo_10014-2" data-name="Grupo 10014" transform="translate(535.971 783.264)">
        <path id="Trazado_8874-2" data-name="Trazado 8874" d="M573.429,835.128h47.182v2.859H573.429Z" transform="translate(-573.429 -835.128)" fill="#00223d"/>
      </g>
      <g id="Grupo_10015-2" data-name="Grupo 10015" transform="translate(535.971 794.702)">
        <path id="Trazado_8875-2" data-name="Trazado 8875" d="M573.429,869.617h41.463v2.859H573.429Z" transform="translate(-573.429 -869.617)" fill="#00223d"/>
      </g>
      <g id="Grupo_10016-2" data-name="Grupo 10016" transform="translate(535.971 788.983)">
        <path id="Trazado_8876-2" data-name="Trazado 8876" d="M573.429,852.372h47.182v2.86H573.429Z" transform="translate(-573.429 -852.372)" fill="#00223d"/>
      </g>
      <g id="Grupo_10017-2" data-name="Grupo 10017" transform="translate(535.971 771.826)">
        <path id="Trazado_8877-2" data-name="Trazado 8877" d="M573.429,800.639h47.182V803.5H573.429Z" transform="translate(-573.429 -800.639)" fill="#00223d"/>
      </g>
      <g id="Grupo_10018-2" data-name="Grupo 10018" transform="translate(535.971 766.107)">
        <path id="Trazado_8878-2" data-name="Trazado 8878" d="M573.429,783.4h47.182v2.859H573.429Z" transform="translate(-573.429 -783.395)" fill="#00223d"/>
      </g>
      <g id="Grupo_10019-2" data-name="Grupo 10019" transform="translate(535.971 777.545)">
        <path id="Trazado_8879-2" data-name="Trazado 8879" d="M573.429,817.884h47.182v2.859H573.429Z" transform="translate(-573.429 -817.884)" fill="#00223d"/>
      </g>
      <g id="Grupo_10020-2" data-name="Grupo 10020" transform="translate(535.971 800.421)">
        <path id="Trazado_8880-2" data-name="Trazado 8880" d="M573.429,886.861h38.6v2.859h-38.6Z" transform="translate(-573.429 -886.861)" fill="#00223d"/>
      </g>
      <g id="Grupo_10021-2" data-name="Grupo 10021" transform="translate(534.541 806.14)">
        <path id="Trazado_8881-2" data-name="Trazado 8881" d="M581.985,929.841a12.868,12.868,0,1,1,12.868-12.868A12.883,12.883,0,0,1,581.985,929.841Zm0-22.876a10.008,10.008,0,1,0,10.008,10.008A10.02,10.02,0,0,0,581.985,906.965Z" transform="translate(-569.117 -904.105)" fill="#00223d"/>
      </g>
      <g id="Grupo_10022-2" data-name="Grupo 10022" transform="translate(540.26 811.859)">
        <path id="Trazado_8882-2" data-name="Trazado 8882" d="M593.511,935.648a7.149,7.149,0,1,1,7.149-7.149A7.157,7.157,0,0,1,593.511,935.648Zm0-11.438a4.289,4.289,0,1,0,4.29,4.289A4.295,4.295,0,0,0,593.511,924.209Z" transform="translate(-586.362 -921.35)" fill="#00223d"/>
      </g>
      <g id="Grupo_10023-2" data-name="Grupo 10023" transform="translate(563.137 824.726)">
        <path id="Trazado_8883-2" data-name="Trazado 8883" d="M672.5,967.3h-5.719a5.721,5.721,0,0,1-4.844-2.681,9.429,9.429,0,0,1-6.594,2.681v-2.859a6.573,6.573,0,0,0,5.479-2.932l.481-.721a1.43,1.43,0,0,1,2.619.794,2.862,2.862,0,0,0,2.859,2.859H672.5Z" transform="translate(-655.339 -960.147)" fill="#00223d"/>
      </g>
    </g>
    <path id="Trazado_25759" data-name="Trazado 25759" d="M48.5,0A48.5,48.5,0,1,1,0,48.5,48.5,48.5,0,0,1,48.5,0Z" transform="translate(517 1221)" fill="#f6ff9b"/>
    <path id="Trazado_9768" data-name="Trazado 9768" d="M1264.849-251.325l-.189-.171-5.773-5.223-.558-.5a6.825,6.825,0,0,0-4.578-1.764h-34.892a6.824,6.824,0,0,0-4.578,1.764l-6.52,5.9a6.891,6.891,0,0,0-2.268,5.111v19.2a7.064,7.064,0,0,0,7.064,7.064h54.08a.482.482,0,0,0,.482-.482v-25.78a6.891,6.891,0,0,0-2.268-5.111Z" transform="translate(-669.188 1536.426)" fill="#5d91b9"/>
    <path id="Trazado_9769" data-name="Trazado 9769" d="M1288.243-457.378v18.458l-4.785-.141-42.343-1.234v-17.083Z" transform="translate(-697.563 1694.445)" fill="#be694e"/>
    <path id="Trazado_9770" data-name="Trazado 9770" d="M1449.25-439.061l4.772.141v-18.458h-4.772Z" transform="translate(-863.342 1694.445)" fill="#ac583e"/>
    <path id="Trazado_9771" data-name="Trazado 9771" d="M1428.678-251.324l-6.52-5.9a6.824,6.824,0,0,0-4.578-1.764h-6.4a6.825,6.825,0,0,1,4.578,1.764l6.52,5.9a6.892,6.892,0,0,1,2.268,5.111v25.78a.482.482,0,0,1-.482.482h6.4a.482.482,0,0,0,.482-.482v-25.78A6.892,6.892,0,0,0,1428.678-251.324Z" transform="translate(-833.017 1536.426)" fill="#5d91b9"/>
    <path id="Trazado_9772" data-name="Trazado 9772" d="M1452.953-137.439v14.3h10.786a.482.482,0,0,0,.482-.482v-13.818Z" transform="translate(-866.292 1439.613)" fill="#ffcdbe"/>
    <path id="Trazado_9773" data-name="Trazado 9773" d="M1474.976-137.439v13.818a.482.482,0,0,1-.482.482h6.4a.482.482,0,0,0,.472-.385.488.488,0,0,0,.01-.1v-13.818Z" transform="translate(-883.449 1439.613)" fill="#ebae9d"/>
    <path id="Trazado_9774" data-name="Trazado 9774" d="M1325.446-331.452v15.029a6.4,6.4,0,0,0,6.4,6.4,6.4,6.4,0,0,0,6.4-6.4v-15.029Z" transform="translate(-764.732 1594.145)" fill="#ebae9d"/>
    <path id="Trazado_9775" data-name="Trazado 9775" d="M1278.018-372.294h-42.033a4.509,4.509,0,0,1-4.509-4.509,4.509,4.509,0,0,1,4.509-4.509h42.033a4.509,4.509,0,0,1,4.509,4.509A4.509,4.509,0,0,1,1278.018-372.294Z" transform="translate(-689.885 1633.858)" fill="#ffcdbe"/>
    <path id="Trazado_9776" data-name="Trazado 9776" d="M1310.041-448.6v19.447a8.21,8.21,0,0,1-8.21,8.21h-15.747a8.21,8.21,0,0,1-8.21-8.21v-17.024a2.008,2.008,0,0,1,1.273-1.877,29.754,29.754,0,0,0,9.027-5.43,2.1,2.1,0,0,1,2.308-.324,38.213,38.213,0,0,0,17.925,3.631A1.574,1.574,0,0,1,1310.041-448.6Z" transform="translate(-726.841 1691.764)" fill="#ffcdbe"/>
    <path id="Trazado_9777" data-name="Trazado 9777" d="M1347.621-450.174A38.209,38.209,0,0,1,1329.7-453.8a2.1,2.1,0,0,0-2.308.324c-.093.083-.188.163-.282.245a38.255,38.255,0,0,0,16.66,3.062,1.574,1.574,0,0,1,1.633,1.577v19.447a8.21,8.21,0,0,1-8.21,8.21h3.855a8.21,8.21,0,0,0,8.21-8.21V-448.6A1.574,1.574,0,0,0,1347.621-450.174Z" transform="translate(-766.055 1691.764)" fill="#ebae9d"/>
    <path id="Trazado_9778" data-name="Trazado 9778" d="M1275.913-118.719v3.628a3.82,3.82,0,0,1-3.82,3.82h-23.305v-11.268h23.305A3.82,3.82,0,0,1,1275.913-118.719Z" transform="translate(-703.674 1427.745)" fill="#ffcdbe"/>
    <path id="Trazado_9779" data-name="Trazado 9779" d="M1190.708-147.81h27.924a1.1,1.1,0,0,1,1.1,1.1v13.266a2.042,2.042,0,0,1-2.042,2.042h-20.542a7.546,7.546,0,0,1-7.546-7.546v-7.762a1.1,1.1,0,0,1,1.1-1.1Z" transform="translate(-656.535 1447.874)" fill="#80b6fc"/>
    <path id="Trazado_9780" data-name="Trazado 9780" d="M1217.693-118.971h-20.542a7.546,7.546,0,0,1-7.546-7.546v4.531a7.546,7.546,0,0,0,7.546,7.546h20.542a2.042,2.042,0,0,0,2.042-2.042v-4.531a2.041,2.041,0,0,1-2.042,2.042Z" transform="translate(-656.535 1430.914)" fill="#62a4fb"/>
    <g id="Grupo_16096" data-name="Grupo 16096" transform="translate(543.552 1215.336)">
      <path id="Trazado_9781" data-name="Trazado 9781" d="M1261-564.167h7.36a19.884,19.884,0,0,1,19.884,19.884v11.546l-47.128-8.531v-3.015A19.884,19.884,0,0,1,1261-564.167Z" transform="translate(-1241.114 564.167)" fill="#ddebfd"/>
      <path id="Trazado_9782" data-name="Trazado 9782" d="M1356.313-564.167h-4.773a19.884,19.884,0,0,1,19.884,19.884V-533.6l4.773.864v-11.546A19.884,19.884,0,0,0,1356.313-564.167Z" transform="translate(-1329.069 564.167)" fill="#bed9fd"/>
    </g>
    <g id="Grupo_16097" data-name="Grupo 16097" transform="translate(531.544 1213.81)">
      <path id="Trazado_9783" data-name="Trazado 9783" d="M1247.246-501.507l-.444-.4a1.527,1.527,0,0,0-2.156.107,1.526,1.526,0,0,0,.107,2.156l.444.4a5.375,5.375,0,0,1,1.766,3.979v10.435h-8.216v-4.708a1.526,1.526,0,0,0-1.526-1.526,1.526,1.526,0,0,0-1.526,1.526v19.009h-11.887a5.313,5.313,0,0,0,.518-2.293v-3.628a5.352,5.352,0,0,0-5.346-5.346h-3.694v-2.514a2.632,2.632,0,0,0-2.629-2.629h-1.384l-3.668-19.572h2.241a7.94,7.94,0,0,0,7.83,6.685,7.942,7.942,0,0,0,7.832-6.685h9.614a5.286,5.286,0,0,1,3.556,1.371l.8.72a1.526,1.526,0,0,0,2.156-.11,1.526,1.526,0,0,0-.11-2.156l-.8-.719a8.331,8.331,0,0,0-5.6-2.159h-9.516v-3.565a9.746,9.746,0,0,0,9.668-9.258h3.419a6.043,6.043,0,0,0,6.036-6.036,6.02,6.02,0,0,0-1.962-4.449c0-.624,0-13.6,0-17.386a21.279,21.279,0,0,0-2.346-9.739,1.541,1.541,0,0,0-.134-.254,21.431,21.431,0,0,0-18.93-11.417H1214a21.407,21.407,0,0,0-17.764,9.471,23.025,23.025,0,0,0-2.369,4.654,21.309,21.309,0,0,0-1.277,7.285v3.015s0,.006,0,.009v14.362a6.021,6.021,0,0,0-1.962,4.449,6.043,6.043,0,0,0,6.036,6.036h3.419a9.746,9.746,0,0,0,9.668,9.258v3.565h-9.518a8.339,8.339,0,0,0-5.6,2.159l-6.521,5.9a8.438,8.438,0,0,0-2.769,6.243v8.324h-.6a2.632,2.632,0,0,0-2.629,2.629v7.762a9.083,9.083,0,0,0,9.073,9.072h7.2A1.526,1.526,0,0,0,1199.9-469a1.526,1.526,0,0,0-1.526-1.526h-7.2a6.027,6.027,0,0,1-6.02-6.02v-7.339h27.077v12.843a.516.516,0,0,1-.516.515H1205.5A1.526,1.526,0,0,0,1203.97-469a1.526,1.526,0,0,0,1.526,1.526h42.513a2.01,2.01,0,0,0,2.008-2.008v-25.78a8.435,8.435,0,0,0-2.771-6.243Zm-24.692-6.248a4.882,4.882,0,0,1-4.878,4.876,4.881,4.881,0,0,1-4.876-4.876v-5.372h9.754Zm-26.915-40.762a22.2,22.2,0,0,1,.729-6.867l43.346,7.846v7Zm44.071-2.124-20.286-3.672,18.713-3.388A18.236,18.236,0,0,1,1239.71-550.641Zm-1.016,25.2h-3.407V-531.4h3.406a2.987,2.987,0,0,1,2.983,2.983,2.986,2.986,0,0,1-2.983,2.983Zm0-9.019h-3.407v-3.78l4.428.8v3.067a6.044,6.044,0,0,0-1.021-.088Zm-2.122-26.062-25.716,4.656-13.367-2.419q.393-.8.86-1.563l32.792-5.937a18.5,18.5,0,0,1,5.431,5.264Zm-15.214-8.1a18.321,18.321,0,0,1,4.785.634l-24.868,4.5A18.294,18.294,0,0,1,1214-568.615Zm-25.718,23.2L1204-543.9c-.553.254-1.116.493-1.689.715a3.554,3.554,0,0,0-2.246,3.3v5.429h-3.407a6.036,6.036,0,0,0-1.021.088Zm-1.962,16.993a2.986,2.986,0,0,1,2.983-2.983h3.407v5.966h-3.407A2.986,2.986,0,0,1,1193.678-528.422Zm9.442,5.56v-17.025a.483.483,0,0,1,.3-.453,32.7,32.7,0,0,0,5.411-2.688l23.407,4.237v15.928a6.69,6.69,0,0,1-6.683,6.683H1209.8a6.69,6.69,0,0,1-6.683-6.683Zm-14.729,27.6a5.379,5.379,0,0,1,1.765-3.98l6.52-5.9a5.291,5.291,0,0,1,3.555-1.37h4.269l3.668,19.572h-8.509v-2.6a1.526,1.526,0,0,0-1.526-1.526,1.526,1.526,0,0,0-1.526,1.526v2.6h-8.215Zm26.854,24.735a3.556,3.556,0,0,0,.042-.515v-7.7h3.694a2.3,2.3,0,0,1,2.294,2.294v3.628a2.3,2.3,0,0,1-2.294,2.293h-3.735Zm23.5,0v-11.248h8.216v11.248Z" transform="translate(-1182.105 571.667)" fill="#00223d"/>
      <path id="Trazado_9784" data-name="Trazado 9784" d="M1305.039-387.519a1.527,1.527,0,0,0-1.975-.871,3.743,3.743,0,0,1-2.825,0,1.526,1.526,0,0,0-1.975.871,1.526,1.526,0,0,0,.871,1.975,6.759,6.759,0,0,0,5.034,0,1.526,1.526,0,0,0,.871-1.975Z" transform="translate(-1274.543 425.768)" fill="#00223d"/>
      <path id="Trazado_9785" data-name="Trazado 9785" d="M1382.318-385.543a6.759,6.759,0,0,0,5.034,0,1.526,1.526,0,0,0,.871-1.975,1.527,1.527,0,0,0-1.975-.871,3.742,3.742,0,0,1-2.825,0,1.527,1.527,0,0,0-1.975.871,1.527,1.527,0,0,0,.871,1.975Z" transform="translate(-1340.799 425.768)" fill="#00223d"/>
    </g>
    <path id="Trazado_9787" data-name="Trazado 9787" d="M1347.333,1286.905h-32" transform="translate(-705 -21)" fill="none" stroke="#f6ff9b" stroke-width="4"/>
  </g>
</svg>
