<svg xmlns="http://www.w3.org/2000/svg" width="293.466" height="127" viewBox="0 0 293.466 127">
  <g id="Grupo_16596" data-name="Grupo 16596" transform="translate(-565.001 -4823)">
    <g id="Grupo_16087" data-name="Grupo 16087" transform="translate(-32.766 5416.999)">
      <path id="Trazado_9753" data-name="Trazado 9753" d="M769.393-412.446h56.142v27.427H769.393Z" transform="translate(-62.348 -128.058)" fill="#fea02c"/>
      <path id="Trazado_9754" data-name="Trazado 9754" d="M808.929-375.585v-8.38H798.015v4.808Z" transform="translate(-82.537 -148.148)" fill="#ff5d5d"/>
      <path id="Trazado_9755" data-name="Trazado 9755" d="M713.744-323.588a114.373,114.373,0,0,1,35.781-36.635l.549-.771a114.432,114.432,0,0,0-60.656-17.39V-317.4h20.546Z" transform="translate(-5.938 -152.084)" fill="#62cd4d"/>
      <path id="Trazado_9756" data-name="Trazado 9756" d="M759.149-317.5l3.78-6.191a114.474,114.474,0,0,1,97.713-54.838V-317.5Z" transform="translate(-55.122 -151.984)" fill="#a0e557"/>
      <path id="Trazado_9757" data-name="Trazado 9757" d="M769.393-445.9l13.891-13.973L797.174-445.9Z" transform="translate(-62.348 -94.609)" fill="#fe8f8d"/>
      <path id="Trazado_9758" data-name="Trazado 9758" d="M858.787-445.9,844.9-459.868H816.536L830.427-445.9Z" transform="translate(-95.6 -94.609)" fill="#ff5d5d"/>
      <g id="Grupo_16086" data-name="Grupo 16086" transform="translate(683.48 -591.519)">
        <path id="Trazado_9759" data-name="Trazado 9759" d="M990.719-531.666c-18.516-14.889-18.516-39.028,0-53.915C1009.235-570.693,1009.235-546.554,990.719-531.666Z" transform="translate(-892.145 585.581)" fill="#a0e557"/>
        <path id="Trazado_9760" data-name="Trazado 9760" d="M709.744-514.655c-14-11.256-14-29.506,0-40.762C723.743-544.161,723.743-525.911,709.744-514.655Z" transform="translate(-696.349 564.305)" fill="#a0e557"/>
        <path id="Trazado_9761" data-name="Trazado 9761" d="M734.124-304.525a95.931,95.931,0,0,0-44.706-11.142V-295.7a75.776,75.776,0,0,1,30.97,6.663" transform="translate(-689.418 395.197)" fill="#a0e557"/>
      </g>
      <path id="Trazado_9762" data-name="Trazado 9762" d="M832.991-273.259a96.623,96.623,0,0,1,79.736-42.55v19.968A76.542,76.542,0,0,0,858.7-273.259Z" transform="translate(-107.207 -196.221)" fill="#62cd4d"/>
      <path id="Trazado_9763" data-name="Trazado 9763" d="M968.335-256.459a79.26,79.26,0,0,0-55.783,23.314,2.479,2.479,0,0,0,.009,3.508,2.472,2.472,0,0,0,1.75.722,2.474,2.474,0,0,0,1.758-.731A74.266,74.266,0,0,1,968.335-251.5a2.481,2.481,0,0,0,2.481-2.481A2.481,2.481,0,0,0,968.335-256.459Z" transform="translate(-162.816 -238.084)" fill="#00223d"/>
      <path id="Trazado_9764" data-name="Trazado 9764" d="M855.061-266.871a2.479,2.479,0,0,0-3.443-.667,97.9,97.9,0,0,0-26.626,26.644,2.481,2.481,0,0,0,.676,3.442,2.473,2.473,0,0,0,1.381.422,2.481,2.481,0,0,0,2.062-1.1,92.94,92.94,0,0,1,25.284-25.3A2.481,2.481,0,0,0,855.061-266.871Z" transform="translate(-101.267 -229.969)" fill="#00223d"/>
      <path id="Trazado_9765" data-name="Trazado 9765" d="M1021.549-324.227a97.553,97.553,0,0,0-32.623,5.63,2.479,2.479,0,0,0-1.51,3.165,2.48,2.48,0,0,0,2.338,1.654,2.479,2.479,0,0,0,.827-.143,92.61,92.61,0,0,1,30.968-5.346,2.481,2.481,0,0,0,2.481-2.481A2.48,2.48,0,0,0,1021.549-324.227Z" transform="translate(-216.03 -190.284)" fill="#00223d"/>
      <path id="Trazado_9766" data-name="Trazado 9766" d="M716.539-484.02a113.059,113.059,0,0,1,66.008-41.587l.014,0a110.558,110.558,0,0,1,22.959-2.419A2.481,2.481,0,0,0,808-530.509a2.481,2.481,0,0,0-2.481-2.481,116.719,116.719,0,0,0-20.985,1.908v-5.354c8.965-7.59,13.887-17.535,13.887-28.125,0-10.95-5.26-21.21-14.813-28.891a2.482,2.482,0,0,0-3.109,0c-9.552,7.681-14.813,17.941-14.813,28.891,0,10.591,4.922,20.536,13.887,28.125v6.369a117.443,117.443,0,0,0-13.906,4.086V-540.5a2.472,2.472,0,0,0-.721-1.748h0l-13.891-13.973a2.484,2.484,0,0,0-1.76-.732h-28.36a2.482,2.482,0,0,0-1.759.732l-13.891,13.973h0a2.473,2.473,0,0,0-.722,1.749v9.472q-2.593-.475-5.209-.834v-8.842c6.78-5.832,10.5-13.438,10.5-21.542,0-8.466-4.058-16.389-11.426-22.314a2.481,2.481,0,0,0-3.108,0c-7.368,5.924-11.426,13.849-11.426,22.314,0,8.1,3.72,15.708,10.5,21.54v8.273q-5.425-.507-10.914-.513a2.48,2.48,0,0,0-2.48,2.481,2.48,2.48,0,0,0,2.48,2.48,111.876,111.876,0,0,1,56.337,15.2,117.1,117.1,0,0,0-11.716,9.1,98.682,98.682,0,0,0-44.621-10.785,2.481,2.481,0,0,0-2.48,2.481,2.481,2.481,0,0,0,2.48,2.48,93.642,93.642,0,0,1,40.722,9.427A117.284,117.284,0,0,0,713.654-488.4a77.6,77.6,0,0,0-30.174-6.1,2.481,2.481,0,0,0-2.48,2.481,2.481,2.481,0,0,0,2.48,2.48,72.6,72.6,0,0,1,27.084,5.236q-2.571,3.572-4.875,7.339l-3.78,6.193a2.48,2.48,0,0,0,.825,3.409,2.464,2.464,0,0,0,1.291.364,2.48,2.48,0,0,0,2.119-1.189l3.78-6.192a110.1,110.1,0,0,1,6.371-9.32A2.32,2.32,0,0,0,716.539-484.02Zm54.108-80.541c0-8.816,4.034-17.167,11.406-23.712,7.373,6.544,11.406,14.9,11.406,23.712,0,7.769-3.136,15.178-8.926,21.307v-19a2.48,2.48,0,0,0-2.481-2.48,2.48,2.48,0,0,0-2.48,2.48v19C773.782-549.383,770.648-556.792,770.648-564.561Zm-81.792,2.312c0-6.327,2.832-12.336,8.019-17.111,5.187,4.774,8.019,10.784,8.019,17.111a22.426,22.426,0,0,1-5.539,14.521v-16.506a2.48,2.48,0,0,0-2.48-2.481,2.481,2.481,0,0,0-2.481,2.481v16.506A22.426,22.426,0,0,1,688.856-562.249Zm68.367,19.264H735.858L726.9-552h21.365Zm-36.288-7.974,7.928,7.974H713.009Zm-11.41,12.935h22.82v15.774q-1.725-.793-3.472-1.532v-8.331a2.481,2.481,0,0,0-2.481-2.48H715.478a2.482,2.482,0,0,0-2.48,2.48v2.949q-1.729-.45-3.473-.851Zm14.387,12.285q-2.951-1.087-5.953-2.015v-1.879h5.953Zm13.394,5.916v-18.2h23.4v13.968a116.438,116.438,0,0,0-12.426,6.029q-1.93,1.083-3.815,2.241Q740.949-517.933,737.307-519.822Z" fill="#00223d"/>
      <path id="Trazado_9767" data-name="Trazado 9767" d="M949.152-288.244a2.5,2.5,0,0,0-.727,1.753,2.5,2.5,0,0,0,.727,1.754,2.5,2.5,0,0,0,1.754.727,2.494,2.494,0,0,0,1.754-.727,2.5,2.5,0,0,0,.727-1.754,2.5,2.5,0,0,0-.727-1.753,2.494,2.494,0,0,0-1.754-.728A2.5,2.5,0,0,0,949.152-288.244Z" transform="translate(-188.628 -215.151)" fill="#00223d"/>
    </g>
    <g id="Grupo_16091" data-name="Grupo 16091" transform="translate(-213.532 70)">
      <circle id="Elipse_678" data-name="Elipse 678" cx="31.234" cy="31.234" r="31.234" transform="translate(778.533 4789.708)" fill="#f6ff9b"/>
      <g id="Grupo_16088" data-name="Grupo 16088" transform="translate(706.024 3978.916)">
        <path id="Trazado_9055" data-name="Trazado 9055" d="M95.18,868.995v-4.507a2.835,2.835,0,0,0-2.835-2.835H74.983v32.655H92.346a2.835,2.835,0,0,0,2.835-2.834V868.995Z" transform="translate(-1.215 -29.249)" fill="#6289fa"/>
        <path id="Trazado_9056" data-name="Trazado 9056" d="M152.252,853.865h-3.276a4.082,4.082,0,0,0,4.082-4.082h0a4.082,4.082,0,0,0-4.082-4.082H133.211l2.392-7.1a7.237,7.237,0,0,0-4.753-9.234l-2.209-.671-3.471,9.594a13.1,13.1,0,0,1-6.053,7.047l-4.619,2.516.084,28.107,2.937,1.152a18.1,18.1,0,0,0,6.608,1.25h22a4.082,4.082,0,0,0,4.082-4.082h0a4.082,4.082,0,0,0-4.082-4.082H149.3a4.082,4.082,0,0,0,4.082-4.082h0a4.082,4.082,0,0,0-4.082-4.082h2.95a4.082,4.082,0,0,0,4.082-4.082h0A4.082,4.082,0,0,0,152.252,853.865Z" transform="translate(-20.617 -13.065)" fill="#ffcdac"/>
        <circle id="Elipse_640" data-name="Elipse 640" cx="2.268" cy="2.268" r="2.268" transform="translate(83.987 855.663)" fill="#fff"/>
        <path id="Trazado_9057" data-name="Trazado 9057" d="M113.449,883.2a1.257,1.257,0,1,0,.89.367A1.267,1.267,0,0,0,113.449,883.2Z" transform="translate(-19.484 -39.827)" fill="#00223d"/>
        <path id="Trazado_9058" data-name="Trazado 9058" d="M136.976,856.732a5.349,5.349,0,0,0-4.17-5.21,5.338,5.338,0,0,0-4.447-8.3H114.347l1.833-5.442a8.5,8.5,0,0,0-5.58-10.841l-2.209-.672a1.259,1.259,0,0,0-1.55.776l-3.471,9.594a11.828,11.828,0,0,1-5.471,6.37L94.43,844.9a4.09,4.09,0,0,0-3.3-1.674H73.768a1.259,1.259,0,0,0-1.259,1.259v32.655a1.259,1.259,0,0,0,1.259,1.259H91.131a4.1,4.1,0,0,0,3.535-2.033l1.777.7a19.279,19.279,0,0,0,7.067,1.336h22a5.338,5.338,0,0,0,4.434-8.315,5.336,5.336,0,0,0,3.138-8.214A5.349,5.349,0,0,0,136.976,856.732Zm-5.341,2.823H118.684a1.259,1.259,0,1,0,0,2.518h10a2.823,2.823,0,1,1,0,5.646h-10a1.259,1.259,0,0,0,0,2.519h6.828a2.823,2.823,0,1,1,0,5.645h-22a16.776,16.776,0,0,1-6.148-1.162l-2.138-.839V861.529a1.259,1.259,0,1,0-2.518,0v12.778a1.577,1.577,0,0,1-1.575,1.576h-16.1V845.745h16.1a1.577,1.577,0,0,1,1.575,1.576V851.6a1.259,1.259,0,0,0,2.518,0v-4.26l3.878-2.111a14.343,14.343,0,0,0,6.635-7.724l3.065-8.47,1.066.324a5.978,5.978,0,0,1,3.926,7.627l-2.392,7.1a1.259,1.259,0,0,0,1.193,1.661h15.765a2.823,2.823,0,1,1,0,5.645h-9.674a1.259,1.259,0,1,0,0,2.518h12.951a2.823,2.823,0,1,1,0,5.646Z" transform="translate(0 -11.85)" fill="#00223d"/>
        <path id="Trazado_9059" data-name="Trazado 9059" d="M96.113,904.876A3.527,3.527,0,1,0,99.64,908.4,3.531,3.531,0,0,0,96.113,904.876Zm0,4.535a1.009,1.009,0,1,1,1.008-1.008A1.01,1.01,0,0,1,96.113,909.411Z" transform="translate(-9.858 -50.472)" fill="#00223d"/>
        <path id="Trazado_9060" data-name="Trazado 9060" d="M145.215,804.6a1.26,1.26,0,1,0-.89-.369A1.269,1.269,0,0,0,145.215,804.6Z" transform="translate(-35.081)" fill="#00223d"/>
        <path id="Trazado_9061" data-name="Trazado 9061" d="M145.215,811.319a1.259,1.259,0,0,0-1.259,1.259v3.064a1.259,1.259,0,1,0,2.518,0v-3.064A1.259,1.259,0,0,0,145.215,811.319Z" transform="translate(-35.081 -4.534)" fill="#00223d"/>
        <path id="Trazado_9062" data-name="Trazado 9062" d="M161.167,835.815a1.259,1.259,0,0,0,1.259,1.259h7.765a1.259,1.259,0,1,0,0-2.518h-7.765A1.259,1.259,0,0,0,161.167,835.815Z" transform="translate(-43.532 -15.944)" fill="#00223d"/>
        <path id="Trazado_9063" data-name="Trazado 9063" d="M112.743,837.067h7.765a1.259,1.259,0,0,0,0-2.518h-7.765a1.259,1.259,0,1,0,0,2.518Z" transform="translate(-19.137 -15.941)" fill="#00223d"/>
        <path id="Trazado_9064" data-name="Trazado 9064" d="M126.8,819.177a1.259,1.259,0,1,0,1.781-1.781l-3.666-3.666a1.259,1.259,0,0,0-1.78,1.78Z" transform="translate(-24.677 -5.537)" fill="#00223d"/>
        <path id="Trazado_9065" data-name="Trazado 9065" d="M159.2,819.55a1.255,1.255,0,0,0,.89-.369l3.666-3.666a1.259,1.259,0,1,0-1.78-1.781l-3.666,3.666a1.259,1.259,0,0,0,.891,2.149Z" transform="translate(-41.947 -5.54)" fill="#00223d"/>
      </g>
    </g>
    <g id="Grupo_16090" data-name="Grupo 16090" transform="translate(17.467 -13.708)">
      <circle id="Elipse_679" data-name="Elipse 679" cx="31.234" cy="31.234" r="31.234" transform="translate(778.533 4868.708)" fill="#f6ff9b"/>
      <g id="Grupo_16089" data-name="Grupo 16089" transform="translate(913.509 5745.543) rotate(180)">
        <path id="Trazado_9055-2" data-name="Trazado 9055" d="M95.18,868.995v-4.507a2.835,2.835,0,0,0-2.835-2.835H74.983v32.655H92.346a2.835,2.835,0,0,0,2.835-2.834V868.995Z" transform="translate(-1.215 -29.249)" fill="#ff5a5a"/>
        <path id="Trazado_9056-2" data-name="Trazado 9056" d="M152.252,853.865h-3.276a4.082,4.082,0,0,0,4.082-4.082h0a4.082,4.082,0,0,0-4.082-4.082H133.211l2.392-7.1a7.237,7.237,0,0,0-4.753-9.234l-2.209-.671-3.471,9.594a13.1,13.1,0,0,1-6.053,7.047l-4.619,2.516.084,28.107,2.937,1.152a18.1,18.1,0,0,0,6.608,1.25h22a4.082,4.082,0,0,0,4.082-4.082h0a4.082,4.082,0,0,0-4.082-4.082H149.3a4.082,4.082,0,0,0,4.082-4.082h0a4.082,4.082,0,0,0-4.082-4.082h2.95a4.082,4.082,0,0,0,4.082-4.082h0A4.082,4.082,0,0,0,152.252,853.865Z" transform="translate(-20.617 -13.065)" fill="#ffcdac"/>
        <circle id="Elipse_640-2" data-name="Elipse 640" cx="2.268" cy="2.268" r="2.268" transform="translate(83.987 855.663)" fill="#fff"/>
        <path id="Trazado_9057-2" data-name="Trazado 9057" d="M113.449,883.2a1.257,1.257,0,1,0,.89.367A1.267,1.267,0,0,0,113.449,883.2Z" transform="translate(-19.484 -39.827)" fill="#00223d"/>
        <path id="Trazado_9058-2" data-name="Trazado 9058" d="M136.976,856.732a5.349,5.349,0,0,0-4.17-5.21,5.338,5.338,0,0,0-4.447-8.3H114.347l1.833-5.442a8.5,8.5,0,0,0-5.58-10.841l-2.209-.672a1.259,1.259,0,0,0-1.55.776l-3.471,9.594a11.828,11.828,0,0,1-5.471,6.37L94.43,844.9a4.09,4.09,0,0,0-3.3-1.674H73.768a1.259,1.259,0,0,0-1.259,1.259v32.655a1.259,1.259,0,0,0,1.259,1.259H91.131a4.1,4.1,0,0,0,3.535-2.033l1.777.7a19.279,19.279,0,0,0,7.067,1.336h22a5.338,5.338,0,0,0,4.434-8.315,5.336,5.336,0,0,0,3.138-8.214A5.349,5.349,0,0,0,136.976,856.732Zm-5.341,2.823H118.684a1.259,1.259,0,1,0,0,2.518h10a2.823,2.823,0,1,1,0,5.646h-10a1.259,1.259,0,0,0,0,2.519h6.828a2.823,2.823,0,1,1,0,5.645h-22a16.776,16.776,0,0,1-6.148-1.162l-2.138-.839V861.529a1.259,1.259,0,1,0-2.518,0v12.778a1.577,1.577,0,0,1-1.575,1.576h-16.1V845.745h16.1a1.577,1.577,0,0,1,1.575,1.576V851.6a1.259,1.259,0,0,0,2.518,0v-4.26l3.878-2.111a14.343,14.343,0,0,0,6.635-7.724l3.065-8.47,1.066.324a5.978,5.978,0,0,1,3.926,7.627l-2.392,7.1a1.259,1.259,0,0,0,1.193,1.661h15.765a2.823,2.823,0,1,1,0,5.645h-9.674a1.259,1.259,0,1,0,0,2.518h12.951a2.823,2.823,0,1,1,0,5.646Z" transform="translate(0 -11.85)" fill="#00223d"/>
        <path id="Trazado_9059-2" data-name="Trazado 9059" d="M96.113,904.876A3.527,3.527,0,1,0,99.64,908.4,3.531,3.531,0,0,0,96.113,904.876Zm0,4.535a1.009,1.009,0,1,1,1.008-1.008A1.01,1.01,0,0,1,96.113,909.411Z" transform="translate(-9.858 -50.472)" fill="#00223d"/>
      </g>
    </g>
  </g>
</svg>
