<svg xmlns="http://www.w3.org/2000/svg" width="112" height="112" viewBox="0 0 112 112">
  <g id="Grupo_16153" data-name="Grupo 16153" transform="translate(-1742.913 -60.609)">
    <path id="Trazado_9847" data-name="Trazado 9847" d="M1799.444,143.839l-48.57,17.488,12.913-37.04-18.156-29.461,37.183.013,16.629-31.513,16.629,31.513,37.183-.231-16.844,29.679,12.915,37.04Z" transform="translate(-0.53 -0.53)" fill="#ffee80"/>
    <g id="Grupo_16151" data-name="Grupo 16151" transform="translate(1772.663 98.234)">
      <path id="Trazado_9848" data-name="Trazado 9848" d="M1833.123,123.926v36.641c0,10.654-6.176,12.72-6.176,12.72l-.618,9.484h-41.074v-.724c0-4.281-1.544-17.69-1.544-17.69V123.9Z" transform="translate(-1780.624 -110.583)" fill="#f3c9a6"/>
      <path id="Trazado_9849" data-name="Trazado 9849" d="M1835.931,117.426a6.177,6.177,0,0,0-6.177,6.177v9.361a6.176,6.176,0,1,0,12.353,0V123.6A6.176,6.176,0,0,0,1835.931,117.426Z" transform="translate(-1789.607 -109.319)" fill="#f3c9a6"/>
      <path id="Trazado_9850" data-name="Trazado 9850" d="M1820.583,112.39a6.176,6.176,0,0,0-6.176,6.177v15.441a6.176,6.176,0,1,0,12.353,0V118.567a6.177,6.177,0,0,0-6.177-6.177Z" transform="translate(-1786.613 -108.337)" fill="#f3c9a6"/>
      <path id="Trazado_9851" data-name="Trazado 9851" d="M1805.236,107.354a6.177,6.177,0,0,0-6.177,6.177V139.2h12.353V113.531a6.177,6.177,0,0,0-6.177-6.177Z" transform="translate(-1783.618 -107.354)" fill="#f3c9a6"/>
      <path id="Trazado_9852" data-name="Trazado 9852" d="M1789.888,114.908a6.176,6.176,0,0,0-6.176,6.177v19.591h12.353V121.085a6.177,6.177,0,0,0-6.177-6.177Z" transform="translate(-1780.624 -108.828)" fill="#f3c9a6"/>
      <path id="Trazado_9853" data-name="Trazado 9853" d="M1807.67,167.995c0-12.044-13.9-8.93-13.9-8.93V151.6h9.252a6.177,6.177,0,1,0,0-12.353h-16.972a6.177,6.177,0,0,0-6.177,6.177v20.383a9.573,9.573,0,0,0,5.868,8.955Z" transform="translate(-1779.875 -113.577)" fill="#f3c9a6"/>
    </g>
    <g id="Grupo_16152" data-name="Grupo 16152" transform="translate(1742.913 60.609)">
      <path id="Trazado_9854" data-name="Trazado 9854" d="M1854.614,92.97a2.2,2.2,0,0,0-1.888-1.08l-35.869.223-2.366-4.486a2.184,2.184,0,0,0-2.956-.912,2.188,2.188,0,0,0-.917,2.953l2.988,5.661a2.187,2.187,0,0,0,1.937,1.168l33.412-.208-14.976,26.388a2.19,2.19,0,0,0-.162,1.8l11.419,32.753-18.019-6.317a26.72,26.72,0,0,0,.134-2.7v-35.7a8.357,8.357,0,0,0-12.9-7.023,8.354,8.354,0,0,0-12.353-4.053,8.362,8.362,0,0,0-16.091,1.751,8.359,8.359,0,0,0-12.443,7.3v13.1a8.413,8.413,0,0,0-.638.576,8.309,8.309,0,0,0-2.45,5.914v21.133l-16.557,5.968,11.4-32.706a2.172,2.172,0,0,0-.2-1.868l-16.1-26.123,33.266.01a2.186,2.186,0,0,0,1.936-1.168l14.693-27.844,2.52,4.773a2.187,2.187,0,1,0,3.868-2.041l-4.453-8.442a2.187,2.187,0,0,0-3.867,0L1780.964,92.12l-35.864-.01a2.187,2.187,0,0,0-1.862,3.335l17.61,28.574-12.572,36.059a2.191,2.191,0,0,0,.527,2.272,2.168,2.168,0,0,0,1.537.634,2.2,2.2,0,0,0,.742-.129l20.444-7.361c.026.058.049.117.077.175a11.461,11.461,0,0,0,2.725,3.624c.387,3.877.778,8.315.778,10.4v.724a2.188,2.188,0,0,0,2.188,2.188h41.074a2.187,2.187,0,0,0,2.183-2.046l.538-8.255a12.768,12.768,0,0,0,5.236-7.071l21.748,7.624a2.235,2.235,0,0,0,2.268-.516,2.2,2.2,0,0,0,.521-2.268l-12.589-36.1,16.356-28.814a2.2,2.2,0,0,0-.016-2.188Zm-51.969,15.493a3.989,3.989,0,0,1,7.979,0V123.9a3.989,3.989,0,0,1-7.979,0Zm-12.353-4.053a3.989,3.989,0,1,1,7.978,0v17.673a8.4,8.4,0,0,0-2.457-.367h-5.521V104.41Zm-12.353,6.08a3.989,3.989,0,1,1,7.978,0v11.226h-7.077a8.819,8.819,0,0,0-.9.05Zm45.038,37.728c0,8.565-4.318,10.5-4.7,10.651a2.079,2.079,0,0,0-1.471,1.927l-.484,7.438h-5.955v-4.985a2.188,2.188,0,1,0-4.375,0v4.985h-7.978v-7.173a2.187,2.187,0,0,0-4.374,0v7.173h-14.193c-.08-1.8-.275-4.226-.5-6.668a2.186,2.186,0,0,0,.347-4.2v0a7.722,7.722,0,0,1-2.4-1.676,7.157,7.157,0,0,1-2.037-5.228V130.081a4.006,4.006,0,0,1,3.99-3.99h16.974a3.989,3.989,0,0,1,0,7.978h-9.253a2.188,2.188,0,0,0-2.188,2.187v7.464a2.181,2.181,0,0,0,.82,1.709,2.218,2.218,0,0,0,1.846.427,17.769,17.769,0,0,1,3.287-.311,10.129,10.129,0,0,1,5.4,1.31,5.067,5.067,0,0,1,1.776,1.984,8.353,8.353,0,0,1,.772,3.813,2.188,2.188,0,0,0,4.375,0,12.71,12.71,0,0,0-1.245-5.792,9.334,9.334,0,0,0-2.332-2.953,10.323,10.323,0,0,0-2.94-1.737,15.847,15.847,0,0,0-5.825-1c-.512,0-1.035.017-1.556.054v-2.783h7.066a8.364,8.364,0,0,0,8.177-6.608,8.338,8.338,0,0,0,9.717-3.476,8.348,8.348,0,0,0,9.269.868v18.99Zm0-26.34a3.989,3.989,0,1,1-7.978,0v-9.361a3.989,3.989,0,1,1,7.978,0Z" transform="translate(-1742.913 -60.609)" fill="#00223d"/>
      <circle id="Elipse_685" data-name="Elipse 685" cx="2.188" cy="2.188" r="2.188" transform="translate(62.86 17.145)" fill="#00223d"/>
    </g>
  </g>
</svg>
