<svg xmlns="http://www.w3.org/2000/svg" width="92.369" height="177.407" viewBox="0 0 92.369 177.407">
  <g id="Grupo_16589" data-name="Grupo 16589" transform="translate(-374.297 -1706.593)">
    <g id="Grupo_16223" data-name="Grupo 16223" transform="translate(-43.703 11.593)">
      <circle id="Elipse_692" data-name="Elipse 692" cx="46.185" cy="46.185" r="46.185" transform="translate(418 1744.306)" fill="#f6ff9b"/>
      <g id="Grupo_16220" data-name="Grupo 16220" transform="translate(418.939 1783.703)">
        <g id="Grupo_16197" data-name="Grupo 16197" transform="translate(52.407 13.379)">
          <path id="Trazado_9876" data-name="Trazado 9876" d="M1846.794-359.9a10.417,10.417,0,0,0-2.258-1.667,11.138,11.138,0,0,0-2.652-1.045,11.42,11.42,0,0,0-5.618.04,10.5,10.5,0,0,0-6.234,4.478,10.731,10.731,0,0,0-1.01,2.125c-1.394,4.707-4.543,11.344-4.344,21.356l14.115-3.249,8.539-8.941a9.872,9.872,0,0,0,.926-1.234,9.271,9.271,0,0,0,1.189-7.314A9.64,9.64,0,0,0,1846.794-359.9Z" transform="translate(-1824.669 362.946)" fill="#ffd064" fill-rule="evenodd"/>
        </g>
        <g id="Grupo_16198" data-name="Grupo 16198" transform="translate(62.653 2.365)">
          <path id="Trazado_9877" data-name="Trazado 9877" d="M1846.83-370.727a8.509,8.509,0,0,0-2.423-4.124l-3.03-2.742c-.622-.563-.9-.493-1.155.279l-1.239,3.761a8.653,8.653,0,0,0,1,6.976c1.807-.472,4.817,1.478,6.687,1.946a33.323,33.323,0,0,1,.155-6.1Z" transform="translate(-1838.638 377.963)" fill="#ccf49e" fill-rule="evenodd"/>
        </g>
        <g id="Grupo_16199" data-name="Grupo 16199" transform="translate(69.622 4.081)">
          <path id="Trazado_9878" data-name="Trazado 9878" d="M1856.4-366.376a8.262,8.262,0,0,0,1.433-4.543l-.064-3.931c-.015-.81-.264-.95-1.03-.572l-3.732,1.846a9.049,9.049,0,0,0-3.647,3.473,8.167,8.167,0,0,0-1.224,4.11c.99,2.5,2.627,3.648,4.911,2.712A8.962,8.962,0,0,0,1856.4-366.376Z" transform="translate(-1848.138 375.623)" fill="#ccf49e" fill-rule="evenodd"/>
        </g>
        <g id="Grupo_16200" data-name="Grupo 16200" transform="translate(72.955 13.045)">
          <path id="Trazado_9879" data-name="Trazado 9879" d="M1863.848-358.02l2.94-2.826c.6-.577.533-.841-.3-1.075l-4.035-1.16a9.835,9.835,0,0,0-4.841-.04c-.846,1.3-3.6,2.413-4.931,3.1,1.319,1.284,3.8,2.861,4.229,4.548a10.236,10.236,0,0,0,6.936-2.543Z" transform="translate(-1852.683 363.402)" fill="#ccf49e" fill-rule="evenodd"/>
        </g>
        <g id="Grupo_16201" data-name="Grupo 16201" transform="translate(61.143 13.379)">
          <path id="Trazado_9880" data-name="Trazado 9880" d="M1846.988-355.1a9.24,9.24,0,0,1-.488,6,10.8,10.8,0,0,1-.7,1.314,10.4,10.4,0,0,1-.926,1.234q-4.15,4.344-8.294,8.688h5.388l3.563-3.731,4.976-5.21a9.839,9.839,0,0,0,.925-1.234,9.27,9.27,0,0,0,1.19-7.314,9.655,9.655,0,0,0-2.652-4.548,10.419,10.419,0,0,0-2.26-1.667,11.129,11.129,0,0,0-2.651-1.045,11.42,11.42,0,0,0-5.618.04c-.145.04-.284.08-.428.125.14.025.274.059.408.095A10.231,10.231,0,0,1,1846.988-355.1Z" transform="translate(-1836.579 362.947)" fill="#ffa95f" fill-rule="evenodd"/>
        </g>
        <g id="Grupo_16202" data-name="Grupo 16202" transform="translate(63.805 2.365)">
          <path id="Trazado_9881" data-name="Trazado 9881" d="M1840.641-377.315l-.433,1.3,2.12,1.916a8.541,8.541,0,0,1,2.418,4.12,8.77,8.77,0,0,0-1.134,3.03,11.426,11.426,0,0,1,2.413.329,8.176,8.176,0,0,1,1.223-4.111,8.5,8.5,0,0,0-2.423-4.124l-3.03-2.742c-.622-.563-.9-.493-1.155.279Z" transform="translate(-1840.208 377.963)" fill="#b3e59e" fill-rule="evenodd"/>
        </g>
        <g id="Grupo_16203" data-name="Grupo 16203" transform="translate(72.766 4.081)">
          <path id="Trazado_9882" data-name="Trazado 9882" d="M1856.1-371.606a8.258,8.258,0,0,1-1.428,4.537,9.514,9.514,0,0,1-2.249,2.409,10.321,10.321,0,0,1,1.766,1.378,8.963,8.963,0,0,0,3.354-3.1,8.262,8.262,0,0,0,1.433-4.543l-.064-3.931c-.016-.81-.264-.95-1.03-.572l-1.826.906Z" transform="translate(-1852.425 375.623)" fill="#b3e59e" fill-rule="evenodd"/>
        </g>
        <g id="Grupo_16204" data-name="Grupo 16204" transform="translate(76.568 13.984)">
          <path id="Trazado_9883" data-name="Trazado 9883" d="M1862.971-359.286a9.87,9.87,0,0,1-5.364,2.434,9.748,9.748,0,0,1,.617,1.716,10.236,10.236,0,0,0,6.936-2.543l2.941-2.826c.6-.577.532-.841-.3-1.075l-1.881-.543c-.005.005-.01.01-.015.01Z" transform="translate(-1857.608 362.122)" fill="#b3e59e" fill-rule="evenodd"/>
        </g>
        <g id="Grupo_16205" data-name="Grupo 16205" transform="translate(14.034 6.147)">
          <path id="Trazado_9884" data-name="Trazado 9884" d="M1795.007-358.465c-1.7-1.264-3.453-1.423-3.453-6.349v-6.409l-6.761-1.582-5.891,1.582v6.409c0,9.186-6.548,6.533-6.548,15.515v8.807L1791-335.751C1795.42-337.911,1797.639-348.593,1795.007-358.465Z" transform="translate(-1772.353 372.806)" fill="#c3ddff" fill-rule="evenodd"/>
        </g>
        <g id="Grupo_16206" data-name="Grupo 16206" transform="translate(19.059 1.311)">
          <path id="Trazado_9885" data-name="Trazado 9885" d="M1794.907-373.563v-5.26a.606.606,0,0,0-.627-.577h-14.454a.6.6,0,0,0-.622.577v5.26a.6.6,0,0,0,.622.582h14.454a.61.61,0,0,0,.627-.582Z" transform="translate(-1779.204 379.4)" fill="#ccf49e" fill-rule="evenodd"/>
        </g>
        <g id="Grupo_16207" data-name="Grupo 16207" transform="translate(27.752 7.73)">
          <path id="Trazado_9886" data-name="Trazado 9886" d="M1791.617-370.649v7.2c0,4.926,1.757,5.085,3.453,6.349a40.369,40.369,0,0,0-2.905,8.275,39.8,39.8,0,0,0-1.11,8.911h4.931a39.294,39.294,0,0,1,1.1-9.7,40.646,40.646,0,0,1,2.906-8.275c-1.7-1.264-3.453-1.423-3.453-6.349v-6.409Z" transform="translate(-1791.055 370.649)" fill="#9dc6fb" fill-rule="evenodd"/>
        </g>
        <g id="Grupo_16208" data-name="Grupo 16208" transform="translate(29.214 1.311)">
          <path id="Trazado_9887" data-name="Trazado 9887" d="M1793.671-378.823v5.26a.6.6,0,0,1-.622.582h4.921a.61.61,0,0,0,.627-.582v-5.26a.606.606,0,0,0-.627-.577h-4.921A.6.6,0,0,1,1793.671-378.823Z" transform="translate(-1793.049 379.4)" fill="#b3e59e" fill-rule="evenodd"/>
        </g>
        <g id="Grupo_16209" data-name="Grupo 16209" transform="translate(32.677 9.543)">
          <path id="Trazado_9888" data-name="Trazado 9888" d="M1821.853-357.366c-.736-5.772-3.175-9.927-6.862-10.688-4.548-.935-9.717,3.573-13.21,10.823a40.66,40.66,0,0,0-2.905,8.275,39.289,39.289,0,0,0-1.1,9.7l12.718,10.215,8.926-10.215a42.341,42.341,0,0,0,1.567-5.14A36.971,36.971,0,0,0,1821.853-357.366Z" transform="translate(-1797.769 368.177)" fill="#ecbd83" fill-rule="evenodd"/>
        </g>
        <g id="Grupo_16210" data-name="Grupo 16210" transform="translate(5.52 38.461)">
          <path id="Trazado_9889" data-name="Trazado 9889" d="M1799.989-279.821l3.159-17.31-3.159-31.621-39.243,14.215v33.816a.905.905,0,0,0,.891.9Z" transform="translate(-1760.746 328.752)" fill="#ffc89f" fill-rule="evenodd"/>
        </g>
        <g id="Grupo_16211" data-name="Grupo 16211" transform="translate(44.764 38.46)">
          <path id="Trazado_9890" data-name="Trazado 9890" d="M1853.49-280.722v-33.816l-39.243-14.216v48.932H1852.6a.9.9,0,0,0,.891-.9Z" transform="translate(-1814.248 328.753)" fill="#f7b081" fill-rule="evenodd"/>
        </g>
        <g id="Grupo_16212" data-name="Grupo 16212" transform="translate(1.313 38.46)">
          <path id="Trazado_9891" data-name="Trazado 9891" d="M1791.663-315.422l6.8-13.33H1762.8a1.685,1.685,0,0,0-1.329.881l-6.349,12.45c-.249.488-.05.885.433.885h34.785A1.676,1.676,0,0,0,1791.663-315.422Z" transform="translate(-1755.01 328.753)" fill="#ffdecf" fill-rule="evenodd"/>
        </g>
        <g id="Grupo_16213" data-name="Grupo 16213" transform="translate(44.764 38.46)">
          <path id="Trazado_9892" data-name="Trazado 9892" d="M1857.591-315.422l-6.349-12.45a1.683,1.683,0,0,0-1.328-.881h-35.665l6.8,13.33a1.676,1.676,0,0,0,1.328.885h34.785c.487,0,.682-.4.433-.885Z" transform="translate(-1814.248 328.753)" fill="#ffdecf" fill-rule="evenodd"/>
        </g>
        <g id="Grupo_16214" data-name="Grupo 16214" transform="translate(44.764 38.46)">
          <path id="Trazado_9893" data-name="Trazado 9893" d="M1853.49-314.537h-31.118a1.676,1.676,0,0,1-1.328-.885l-6.8-13.33v8.932l4.821,9.713a1.671,1.671,0,0,0,1.328.881h26.794c1.5,0,1.279-.259,1.279,1.214v28.193h4.119a.9.9,0,0,0,.9-.9Z" transform="translate(-1814.248 328.753)" fill="#db9975" fill-rule="evenodd"/>
        </g>
        <g id="Grupo_16215" data-name="Grupo 16215" transform="translate(5.52 38.46)">
          <path id="Trazado_9894" data-name="Trazado 9894" d="M1791.864-314.537h-31.118v5.31h32.884a1.691,1.691,0,0,0,1.328-.881l5.031-9.713v-8.932l-6.8,13.33a1.676,1.676,0,0,1-1.328.885Z" transform="translate(-1760.746 328.753)" fill="#fcb788" fill-rule="evenodd"/>
        </g>
        <g id="Grupo_16216" data-name="Grupo 16216" transform="translate(73.607 38.46)">
          <path id="Trazado_9895" data-name="Trazado 9895" d="M1860.393-328.753h-6.821a1.677,1.677,0,0,1,1.328.881l6.349,12.45c.244.483.054.876-.418.886h6.807c.488,0,.681-.4.433-.886l-6.349-12.45A1.684,1.684,0,0,0,1860.393-328.753Z" transform="translate(-1853.572 328.753)" fill="#ffcbbe" fill-rule="evenodd"/>
        </g>
        <g id="Grupo_16217" data-name="Grupo 16217" transform="translate(30.254 38.46)">
          <path id="Trazado_9896" data-name="Trazado 9896" d="M1802.592-328.753l-6.8,13.33a1.687,1.687,0,0,1-1.328.885h6.383a1.677,1.677,0,0,0,1.328-.885l6.8-13.33Z" transform="translate(-1794.467 328.753)" fill="#ffcbbe" fill-rule="evenodd"/>
        </g>
        <g id="Grupo_16218" data-name="Grupo 16218" transform="translate(45.534 9.544)">
          <path id="Trazado_9897" data-name="Trazado 9897" d="M1815.3-367.422c3.443.98,5.722,5.035,6.434,10.578a36.979,36.979,0,0,1-.871,12.967,43.471,43.471,0,0,1-1.373,4.617h4.6a42.3,42.3,0,0,0,1.567-5.14,36.97,36.97,0,0,0,.865-12.967c-.736-5.772-3.174-9.927-6.861-10.688a6.94,6.94,0,0,0-4.364.632Z" transform="translate(-1815.299 368.175)" fill="#e2a975" fill-rule="evenodd"/>
        </g>
        <g id="Grupo_16219" data-name="Grupo 16219" transform="translate(0)">
          <path id="Trazado_9898" data-name="Trazado 9898" d="M1842.494-329.992l-6.346-12.445a2.975,2.975,0,0,0-2.5-1.6h-10.832l6.421-6.725.034-.037a11.282,11.282,0,0,0,1.05-1.4,10.585,10.585,0,0,0,1.628-6.8,11.2,11.2,0,0,0,6.3-2.815l2.939-2.825a2.049,2.049,0,0,0,.754-1.925,2.059,2.059,0,0,0-1.6-1.357l-4.036-1.16a10.23,10.23,0,0,0-2.96-.37,8.715,8.715,0,0,0,.5-2.974l-.065-3.934a2.075,2.075,0,0,0-.853-1.822,2.128,2.128,0,0,0-2.07.1l-3.73,1.845a9.781,9.781,0,0,0-2.709,2.009,9.173,9.173,0,0,0-1.9-2.457l-3.03-2.742a2.115,2.115,0,0,0-1.936-.654,2.1,2.1,0,0,0-1.343,1.5l-1.239,3.761a9.668,9.668,0,0,0,.4,6.642,11.743,11.743,0,0,0-4.819,3.579,16.1,16.1,0,0,0-1.84-4.234,8.4,8.4,0,0,0-5.329-3.97c-4.9-1.006-10.232,3.155-13.987,10.193-.995-.67-1.629-1.41-1.629-4.435v-5.141a1.907,1.907,0,0,0,1.527-1.85v-5.26a1.916,1.916,0,0,0-1.938-1.888H1772.9a1.913,1.913,0,0,0-1.933,1.888v5.26a1.905,1.905,0,0,0,1.523,1.849v5.142c0,4.068-1.348,5.392-2.909,6.925-1.706,1.675-3.639,3.574-3.639,8.589v7.5h-3.624a2.973,2.973,0,0,0-2.5,1.6l-6.349,12.449a1.955,1.955,0,0,0,.011,1.942,1.835,1.835,0,0,0,1.59.851h2.355v12.521a1.347,1.347,0,0,0,1.271,1.366,1.312,1.312,0,0,0,1.352-1.311V-327.2h29.806a2.969,2.969,0,0,0,2.5-1.6l4.317-8.467v42.162h-36.62v-13.437a1.311,1.311,0,0,0-1.312-1.312,1.311,1.311,0,0,0-1.311,1.312v13.848a2.214,2.214,0,0,0,2.212,2.211h76.684a2.214,2.214,0,0,0,2.212-2.211v-32.5h2.369a1.818,1.818,0,0,0,1.583-.86,1.955,1.955,0,0,0,0-1.932Zm-6.909-36.567,2.938.844-2.093,2.012a8.7,8.7,0,0,1-5.073,2.133,10.862,10.862,0,0,0-1.6-2.916,10.657,10.657,0,0,0,2.137-2.195A8.3,8.3,0,0,1,1835.585-366.559Zm-7.291-7.325,2.885-1.427.048,2.929a7.786,7.786,0,0,1-3.326,6,12,12,0,0,0-1.775-1.2,12.214,12.214,0,0,0-1.89-.84A7.97,7.97,0,0,1,1828.294-373.884Zm-10.83-.119.944-2.866,2.355,2.131a7.019,7.019,0,0,1,1.883,2.982,9.847,9.847,0,0,0-.968,2.74,12.691,12.691,0,0,0-3.761.1A7.163,7.163,0,0,1,1817.464-374Zm-7.074,26.437a38.608,38.608,0,0,0,.928-13.1,8.649,8.649,0,0,1,.779-1.592,9.708,9.708,0,0,1,12.763-3.027,8.579,8.579,0,0,1,4.273,5.382,7.958,7.958,0,0,1-1.024,6.294c-.04.064-.083.126-.125.189l-7.46-4.116a1.311,1.311,0,0,0-1.781.515,1.311,1.311,0,0,0,.515,1.782l6.959,3.84-3.153,3.3-5.146-2.841a1.311,1.311,0,0,0-1.782.514,1.31,1.31,0,0,0,.514,1.782l4.54,2.506-2,2.095h-9.8c.375-1.147.708-2.327.994-3.527Zm-36.8-31h13.08v3.8h-13.08Zm-5.025,27.031c0-3.915,1.323-5.214,2.854-6.718,1.731-1.7,3.694-3.628,3.694-8.8v-5.1h10.031v5.1c0,4.372,1.33,5.669,3.094,6.81a42.969,42.969,0,0,0-2.511,7.511,41.066,41.066,0,0,0-1.133,8.689h-16.028Zm21.449,21.549a.513.513,0,0,1-.2.163H1756.33l5.829-11.431a.525.525,0,0,1,.2-.163h33.479Zm-2.8-14.053a38.51,38.51,0,0,1,1.061-8.085c2.585-10.911,9.261-19.207,14.575-18.115a5.785,5.785,0,0,1,3.646,2.811c2.611,4.094,3.136,11.653,1.339,19.256a41.5,41.5,0,0,1-1.215,4.133h-19.406Zm36.325,14.225a1.31,1.31,0,0,0-1.31,1.312,1.311,1.311,0,0,0,1.311,1.311h0l12.371-.007v32.09h-36.62v-42.161l4.312,8.457a2.991,2.991,0,0,0,2.5,1.611l11.354.01h0a1.311,1.311,0,0,0,1.311-1.31,1.311,1.311,0,0,0-1.31-1.313l-11.3-.009a.5.5,0,0,1-.211-.17l-5.825-11.423h33.48a.526.526,0,0,1,.205.165l5.828,11.429Z" transform="translate(-1753.22 381.187)" fill="#00223d"/>
          <path id="Trazado_9899" data-name="Trazado 9899" d="M1817.381-339.96l-10.19-2.1a1.312,1.312,0,0,0-1.549,1.02,1.312,1.312,0,0,0,1.02,1.549l10.191,2.1a1.319,1.319,0,0,0,.266.028,1.313,1.313,0,0,0,1.283-1.047A1.312,1.312,0,0,0,1817.381-339.96Z" transform="translate(-1767.183 370.766)" fill="#00223d"/>
          <path id="Trazado_9900" data-name="Trazado 9900" d="M1812.048-349.883l6.1,1.254a1.309,1.309,0,0,0,.266.027,1.312,1.312,0,0,0,1.283-1.047,1.312,1.312,0,0,0-1.02-1.549l-6.1-1.254a1.312,1.312,0,0,0-1.549,1.02,1.311,1.311,0,0,0,1.02,1.548Z" transform="translate(-1768.619 373.536)" fill="#00223d"/>
          <path id="Trazado_9901" data-name="Trazado 9901" d="M1772.249-284.122h11a1.311,1.311,0,0,0,1.311-1.311,1.311,1.311,0,0,0-1.311-1.311h-11a1.312,1.312,0,0,0-1.311,1.311A1.312,1.312,0,0,0,1772.249-284.122Z" transform="translate(-1757.942 356.018)" fill="#00223d"/>
          <path id="Trazado_9902" data-name="Trazado 9902" d="M1772.249-275.127h11a1.311,1.311,0,0,0,1.311-1.311,1.311,1.311,0,0,0-1.311-1.311h-11a1.312,1.312,0,0,0-1.311,1.311A1.312,1.312,0,0,0,1772.249-275.127Z" transform="translate(-1757.942 353.62)" fill="#00223d"/>
        </g>
      </g>
      <g id="Grupo_16222" data-name="Grupo 16222" transform="translate(429.264 1695)">
        <path id="Trazado_9903" data-name="Trazado 9903" d="M1661.826-260.717h-41.658l3.4-10.039h34.854Z" transform="translate(-1606.267 328.823)" fill="#686c83"/>
        <path id="Trazado_9904" data-name="Trazado 9904" d="M1660.014-294.162h-31.746v-21.03a15.873,15.873,0,0,1,15.873-15.873h0a15.873,15.873,0,0,1,15.873,15.873Z" transform="translate(-1609.41 352.229)" fill="#ff5d5d"/>
        <g id="Grupo_16221" data-name="Grupo 16221" transform="translate(32.018 29.713)">
          <path id="Trazado_9905" data-name="Trazado 9905" d="M1652.488-305.155h0a2.713,2.713,0,0,1-2.713-2.713v-6.512a2.713,2.713,0,0,1,2.713-2.713h0a2.713,2.713,0,0,1,2.713,2.713v6.512A2.714,2.714,0,0,1,1652.488-305.155Z" transform="translate(-1649.775 317.094)" fill="#fff"/>
          <path id="Trazado_9906" data-name="Trazado 9906" d="M1652.488-283.288h0a2.714,2.714,0,0,1-2.713-2.714h0a2.713,2.713,0,0,1,2.713-2.713h0A2.714,2.714,0,0,1,1655.2-286h0A2.714,2.714,0,0,1,1652.488-283.288Z" transform="translate(-1649.775 306.08)" fill="#fff"/>
        </g>
        <path id="Trazado_9907" data-name="Trazado 9907" d="M1658.849-295.458a1.356,1.356,0,0,0-1.285-.921h-.2v-19.674a17.249,17.249,0,0,0-17.23-17.229,17.249,17.249,0,0,0-17.229,17.229v19.674h-.2a1.356,1.356,0,0,0-1.285.921l-3.4,10.039a1.358,1.358,0,0,0,.182,1.226,1.356,1.356,0,0,0,1.1.567h41.658a1.356,1.356,0,0,0,1.1-.567,1.353,1.353,0,0,0,.182-1.226Zm-33.228-20.595a14.533,14.533,0,0,1,14.516-14.516,14.533,14.533,0,0,1,14.516,14.516v19.674h-29.032v-19.674Zm-4.42,29.713,2.482-7.326h32.908l2.483,7.326Z" transform="translate(-1605.407 353.089)" fill="#00223d"/>
        <path id="Trazado_9908" data-name="Trazado 9908" d="M1653.349-354.8a1.357,1.357,0,0,0,1.357-1.357v-8.14a1.357,1.357,0,0,0-1.357-1.357,1.356,1.356,0,0,0-1.357,1.357v8.14A1.356,1.356,0,0,0,1653.349-354.8Z" transform="translate(-1618.618 365.652)" fill="#00223d"/>
        <path id="Trazado_9909" data-name="Trazado 9909" d="M1653.349-341a1.366,1.366,0,0,0,.959-.4,1.372,1.372,0,0,0,.4-.959,1.37,1.37,0,0,0-.4-.961,1.366,1.366,0,0,0-.959-.4,1.367,1.367,0,0,0-.959.4,1.371,1.371,0,0,0-.4.961,1.371,1.371,0,0,0,.4.959A1.368,1.368,0,0,0,1653.349-341Z" transform="translate(-1618.618 357.136)" fill="#00223d"/>
        <path id="Trazado_9910" data-name="Trazado 9910" d="M1615.169-304.95a1.357,1.357,0,0,0-1.357-1.357h-6.23a1.357,1.357,0,0,0-1.357,1.357,1.357,1.357,0,0,0,1.357,1.357h6.23A1.357,1.357,0,0,0,1615.169-304.95Z" transform="translate(-1600.856 342.62)" fill="#00223d"/>
        <path id="Trazado_9911" data-name="Trazado 9911" d="M1598.807-306.307a1.366,1.366,0,0,0-.959.4,1.368,1.368,0,0,0-.4.959,1.368,1.368,0,0,0,.4.959,1.368,1.368,0,0,0,.959.4,1.367,1.367,0,0,0,.959-.4,1.37,1.37,0,0,0,.4-.959,1.365,1.365,0,0,0-.4-.959A1.365,1.365,0,0,0,1598.807-306.307Z" transform="translate(-1597.45 342.62)" fill="#00223d"/>
        <path id="Trazado_9912" data-name="Trazado 9912" d="M1633.952-348.23a1.358,1.358,0,0,0,1.254.838,1.35,1.35,0,0,0,.518-.1,1.356,1.356,0,0,0,.734-1.773l-1.839-4.439a1.358,1.358,0,0,0-1.773-.734,1.357,1.357,0,0,0-.734,1.773Z" transform="translate(-1610.863 361.342)" fill="#00223d"/>
        <path id="Trazado_9913" data-name="Trazado 9913" d="M1609.548-321.736a1.357,1.357,0,0,0,1.254-.838,1.357,1.357,0,0,0-.734-1.773l-4.439-1.839a1.357,1.357,0,0,0-1.773.734,1.356,1.356,0,0,0,.734,1.773l4.439,1.839A1.365,1.365,0,0,0,1609.548-321.736Z" transform="translate(-1599.896 350.375)" fill="#00223d"/>
        <path id="Trazado_9914" data-name="Trazado 9914" d="M1696.086-306.307h-6.23a1.357,1.357,0,0,0-1.357,1.357,1.356,1.356,0,0,0,1.357,1.357h6.23a1.357,1.357,0,0,0,1.357-1.357A1.357,1.357,0,0,0,1696.086-306.307Z" transform="translate(-1632.786 342.62)" fill="#00223d"/>
        <path id="Trazado_9915" data-name="Trazado 9915" d="M1708.848-305.909a1.364,1.364,0,0,0-.959-.4,1.367,1.367,0,0,0-.959.4,1.366,1.366,0,0,0-.4.959,1.369,1.369,0,0,0,.4.959,1.368,1.368,0,0,0,.959.4,1.366,1.366,0,0,0,.959-.4,1.367,1.367,0,0,0,.4-.959A1.364,1.364,0,0,0,1708.848-305.909Z" transform="translate(-1639.785 342.62)" fill="#00223d"/>
        <path id="Trazado_9916" data-name="Trazado 9916" d="M1684.715-339.2a1.352,1.352,0,0,0,.959-.4l6.675-6.675a1.357,1.357,0,0,0,0-1.919,1.357,1.357,0,0,0-1.919,0l-6.675,6.675a1.357,1.357,0,0,0,0,1.919A1.354,1.354,0,0,0,1684.715-339.2Z" transform="translate(-1630.791 359.028)" fill="#00223d"/>
        <path id="Trazado_9917" data-name="Trazado 9917" d="M1616.787-339.593a1.354,1.354,0,0,0,.96.4,1.353,1.353,0,0,0,.959-.4,1.356,1.356,0,0,0,0-1.918l-6.675-6.675a1.357,1.357,0,0,0-1.919,0,1.356,1.356,0,0,0,0,1.918Z" transform="translate(-1602.21 359.028)" fill="#00223d"/>
        <path id="Trazado_9918" data-name="Trazado 9918" d="M1669.8-347.5a1.353,1.353,0,0,0,.519.1,1.357,1.357,0,0,0,1.254-.838l1.839-4.439a1.357,1.357,0,0,0-.734-1.773,1.358,1.358,0,0,0-1.773.734l-1.839,4.439A1.357,1.357,0,0,0,1669.8-347.5Z" transform="translate(-1625.206 361.342)" fill="#00223d"/>
        <path id="Trazado_9919" data-name="Trazado 9919" d="M1698.252-326.185l-4.439,1.839a1.356,1.356,0,0,0-.734,1.773,1.358,1.358,0,0,0,1.254.838,1.364,1.364,0,0,0,.519-.1l4.439-1.839a1.357,1.357,0,0,0,.734-1.773A1.358,1.358,0,0,0,1698.252-326.185Z" transform="translate(-1634.523 350.375)" fill="#00223d"/>
        <path id="Trazado_9920" data-name="Trazado 9920" d="M1651.627-319.311a4.075,4.075,0,0,0-4.07,4.07v6.512a4.075,4.075,0,0,0,4.07,4.07,4.075,4.075,0,0,0,4.07-4.07v-6.512A4.075,4.075,0,0,0,1651.627-319.311Zm1.357,10.582a1.359,1.359,0,0,1-1.357,1.357,1.358,1.358,0,0,1-1.357-1.357v-6.512a1.358,1.358,0,0,1,1.357-1.357,1.359,1.359,0,0,1,1.357,1.357Z" transform="translate(-1616.896 347.667)" fill="#00223d"/>
        <path id="Trazado_9921" data-name="Trazado 9921" d="M1651.627-290.932a4.075,4.075,0,0,0-4.07,4.07,4.075,4.075,0,0,0,4.07,4.07,4.075,4.075,0,0,0,4.07-4.07A4.075,4.075,0,0,0,1651.627-290.932Zm0,5.427a1.358,1.358,0,0,1-1.357-1.357,1.358,1.358,0,0,1,1.357-1.357,1.359,1.359,0,0,1,1.357,1.357A1.359,1.359,0,0,1,1651.627-285.505Z" transform="translate(-1616.896 336.653)" fill="#00223d"/>
      </g>
    </g>
  </g>
</svg>
