<svg xmlns="http://www.w3.org/2000/svg" width="148.197" height="147.474" viewBox="0 0 148.197 147.474">
  <g id="Grupo_15961" data-name="Grupo 15961" transform="translate(-1515.046 -1339.772)">
    <path id="Trazado_9412" data-name="Trazado 9412" d="M1609.169,1436.509h0a44.424,44.424,0,0,0,44.435,8.317l2.495-.907-9.88-14.82-3.442.983a18.775,18.775,0,0,1-21.258-8.393H1606.7Z" transform="translate(-15.085 -13.483)" fill="#395166"/>
    <path id="Trazado_9413" data-name="Trazado 9413" d="M1588.96,1461.135h0a15.892,15.892,0,0,1,3.518,17.139l-1.048,2.62h12.349l.142-.5a29.682,29.682,0,0,0-7.551-29.143h0l-7.41,1.113Z" transform="translate(-12.165 -18.349)" fill="#395166"/>
    <path id="Trazado_9414" data-name="Trazado 9414" d="M1520.959,1471.2l19.76,19.76,88.919-101.268v-4.94l-7.41-7.41h-9.88l-14.82,14.82-4.94-4.94-7.41,7.41v9.88l-22.229,22.229v14.82l-12.35,12.35h-12.35Z" transform="translate(-0.973 -6.184)" fill="sienna"/>
    <path id="Trazado_9415" data-name="Trazado 9415" d="M1644.965,1385.238v4.94l-21.939,24.99-8.935-8.935,25.935-25.935Z" transform="translate(-16.301 -6.67)" fill="sienna"/>
    <path id="Trazado_9416" data-name="Trazado 9416" d="M1615.97,1420.277l-33.49,38.139-11.26-11.26,35.814-35.814Z" transform="translate(-9.246 -11.779)" fill="#2f4054"/>
    <path id="Trazado_9417" data-name="Trazado 9417" d="M1562.351,1461.622l11.74,11.74,6.929-7.891-11.259-11.259Z" transform="translate(-7.786 -18.835)" fill="#395166"/>
    <path id="Trazado_9418" data-name="Trazado 9418" d="M1613.21,1401.517l-41.989,41.989v-14.82l22.229-22.229v-9.88l7.41-7.41Z" transform="translate(-9.246 -8.13)" fill="#395166"/>
    <rect id="Rectángulo_3878" data-name="Rectángulo 3878" width="13.972" height="10.479" transform="translate(1621.254 1371.158) rotate(-45)" fill="#395166"/>
    <path id="Trazado_9419" data-name="Trazado 9419" d="M1660.773,1415.616a27.193,27.193,0,0,1-13.04-3.295q.66-.592,1.29-1.221l3.193-3.193a12.251,12.251,0,0,0,3.51-7.11h2.578v-4.94h-2.47a12.371,12.371,0,0,0-9.88-12.1v-2.718h-4.94v2.718a12.371,12.371,0,0,0-9.88,12.1h-2.47v4.94h2.578a12.256,12.256,0,0,0,3.509,7.11l3.194,3.193q.627.627,1.281,1.215a27.326,27.326,0,0,1-5.779,2.319l-.257-.388a2.472,2.472,0,0,0-2.734-1.005l-3.441.984a16.4,16.4,0,0,1-17.209-5.5l20.716-23.593a2.473,2.473,0,0,0,.614-1.63v-3.916l9.156-9.157a2.469,2.469,0,0,0,0-3.493l-1.958-1.958,21.718-21.718-3.494-3.493-3.193,3.193-3.194-3.193-3.493,3.493,3.193,3.193-15.032,15.031-1.958-1.958a2.471,2.471,0,0,0-3.493,0l-9.156,9.157h-8.857a2.47,2.47,0,0,0-1.747.724l-13.073,13.073-3.194-3.193a2.469,2.469,0,0,0-3.493,0l-7.343,7.342a12.327,12.327,0,0,0-5.73-2.878v-2.718h-4.94v2.718a12.371,12.371,0,0,0-9.88,12.1h-2.47v4.94h2.578a12.257,12.257,0,0,0,3.509,7.11l2.77,2.769-3.91,3.911a27.375,27.375,0,0,1-20.456-2.265q.658-.591,1.289-1.222l3.193-3.193a12.251,12.251,0,0,0,3.51-7.11h2.578v-4.94h-2.47a12.371,12.371,0,0,0-9.88-12.1v-2.718h-4.94v2.718a12.371,12.371,0,0,0-9.88,12.1h-2.47v4.94h2.578a12.256,12.256,0,0,0,3.509,7.11l3.194,3.193q.63.632,1.289,1.222a27.2,27.2,0,0,1-13.039,3.294h-7.41v4.941h7.41a32.076,32.076,0,0,0,17.29-5.007,32.072,32.072,0,0,0,17.29,5.007q1.241,0,2.475-.1c0,.033-.005.064-.005.1v13.8l-10.9,10.9h-11.327a2.473,2.473,0,0,0-1.747.724l-17.29,17.29a2.471,2.471,0,0,0,0,3.493l19.76,19.76a2.471,2.471,0,0,0,1.747.724l.08,0a2.468,2.468,0,0,0,1.775-.839l35.057-39.926a13.4,13.4,0,0,1,1.361,12.53l-1.048,2.62a2.47,2.47,0,0,0,2.293,3.388h12.349a2.47,2.47,0,0,0,2.375-1.792l.142-.5a32.207,32.207,0,0,0-.32-18.646L1605.1,1432.8a46.882,46.882,0,0,0,34.265.869l2.494-.907a2.469,2.469,0,0,0,1.211-3.691l-6.761-10.142a32.131,32.131,0,0,0,7.168-3.379,32.071,32.071,0,0,0,17.3,5.012h2.47v-4.941Zm-121.027-6.155q-1.063-.87-2.047-1.854l-3.193-3.193a7.359,7.359,0,0,1-1.992-3.617h2.291v-4.94h-2.469a7.421,7.421,0,0,1,4.94-6.985v2.045h4.94v-2.045a7.421,7.421,0,0,1,4.94,6.985h-2.469v4.94h2.291a7.357,7.357,0,0,1-1.991,3.617l-3.193,3.193Q1540.808,1408.591,1539.746,1409.461Zm91.388-44.69,3.916,3.917-6.387,6.387-3.916-3.917Zm-7.41,12.35,2.469,2.47v2.986l-19.588,22.309-5.323-5.323Zm-11.326-3.493h7.833l-16.267,16.266-3.917-3.916Zm-45.3,27.169h2.291v-4.94h-2.469a7.421,7.421,0,0,1,4.94-6.985v2.045h4.94v-2.045a7.421,7.421,0,0,1,4.94,6.985v1.447l-9.88,9.88-2.769-2.769A7.359,7.359,0,0,1,1567.094,1400.8Zm-2.649,20.783,21.507-21.506a2.472,2.472,0,0,0,.723-1.747v-8.856l4.94-4.94,3.194,3.193,5.663,5.663-36.026,36.026Zm-24.817,59.586-16.149-16.149,14.82-14.82h11.327a2.469,2.469,0,0,0,1.747-.724l3.193-3.193,8.357,8.357Zm26.56-30.249-8.13-8.13,3.917-3.917,7.875,7.876Zm6.929-7.891-7.649-7.649,32.321-32.321,5.55,5.551Zm16.6,17.051h-6.824a18.339,18.339,0,0,0-2.9-17.4l4.756-5.416A27.363,27.363,0,0,1,1589.717,1460.076Zm2.049-20.935a32,32,0,0,0-3.7-5.649l6.225-7.089a46.9,46.9,0,0,0,6.121,4.1Zm45.447-9.954a41.954,41.954,0,0,1-39.66-6.5l2.943-3.353a33.347,33.347,0,0,0,22.555,8.755,34.173,34.173,0,0,0,6.05-.542l-.875-4.862a28.523,28.523,0,0,1-24.469-7.064l2.751-3.133a21.376,21.376,0,0,0,21.863,6.49l1.708-.488Zm6.27-19.728q-1.061-.868-2.045-1.852l-3.193-3.193a7.358,7.358,0,0,1-1.992-3.617h2.291v-4.94h-2.47a7.422,7.422,0,0,1,4.94-6.985v2.045h4.94v-2.045a7.421,7.421,0,0,1,4.94,6.985h-2.469v4.94h2.291a7.355,7.355,0,0,1-1.992,3.617l-3.193,3.193Q1644.552,1408.585,1643.482,1409.46Z" transform="translate(0)" fill="#00223d"/>
  </g>
</svg>
