<svg xmlns="http://www.w3.org/2000/svg" width="251" height="155" viewBox="0 0 251 155">
  <g id="Grupo_16501" data-name="Grupo 16501" transform="translate(-303 -2972)">
    <path id="Trazado_25658" data-name="Trazado 25658" d="M44,0A44,44,0,1,1,0,44,44,44,0,0,1,44,0Z" transform="translate(454 2972)" fill="#f6ff9b"/>
    <g id="Grupo_16489" data-name="Grupo 16489" transform="translate(454 2972.162)">
      <g id="Grupo_16486" data-name="Grupo 16486" transform="translate(1.951 17.903)">
        <path id="Trazado_25630" data-name="Trazado 25630" d="M264.417,829.24h-5.926a30.36,30.36,0,0,1-30.36-30.36V787.989a45.044,45.044,0,0,0,23.6,6.678c9.465,0,20.117,6.846,21.7,15.857l-1.063-3.747L273.519,800a9.38,9.38,0,0,1,7.183-7.66,8.5,8.5,0,0,1,9.035,3.724,30.551,30.551,0,0,0,4.1,5.228l2.312,2.312a5.088,5.088,0,0,0-5.088,5.088v8.146a27.717,27.717,0,0,1-27.717,27.717,19.441,19.441,0,0,0-11.9,4.066l-9.5,7.351L231.17,834.62v-.078h7.037a41.816,41.816,0,0,0,20.382-5.3Z" transform="translate(-228.132 -787.989)" fill="#edf2f4"/>
      </g>
      <g id="Grupo_16487" data-name="Grupo 16487" transform="translate(62.139 0)">
        <ellipse id="Elipse_918" data-name="Elipse 918" cx="4.701" cy="8.14" rx="4.701" ry="8.14" transform="translate(0 11.079) rotate(-45)" fill="#d5ea7a"/>
        <ellipse id="Elipse_919" data-name="Elipse 919" cx="8.14" cy="4.701" rx="8.14" ry="4.701" transform="translate(7.107 34.265) rotate(-45)" fill="#d5ea7a"/>
        <ellipse id="Elipse_920" data-name="Elipse 920" cx="7.603" cy="4.39" rx="7.603" ry="4.39" transform="translate(20.31 7.193) rotate(-28.231)" fill="#d5ea7a"/>
      </g>
      <g id="Grupo_16488" data-name="Grupo 16488" transform="translate(0 0.572)">
        <path id="Trazado_25631" data-name="Trazado 25631" d="M322.542,749.34a10.727,10.727,0,0,0-16.295,7.837,33.925,33.925,0,0,0-3.845,3.663,11.332,11.332,0,0,0-13.832-7.807,1.951,1.951,0,0,0-1.381,1.382,11.338,11.338,0,0,0,9.975,14.237,33.614,33.614,0,0,0-3.009,9.86L292.639,777a28.557,28.557,0,0,1-3.837-4.9,10.42,10.42,0,0,0-11.089-4.581,11.4,11.4,0,0,0-8.7,9.241l-.353,2.086a24.273,24.273,0,0,0-4.583-4.142,26.708,26.708,0,0,0-14.926-4.9,43.069,43.069,0,0,1-22.579-6.389,1.95,1.95,0,0,0-2.973,1.661s0,11.25.007,11.43a32.367,32.367,0,0,0,25.1,30.959,39.939,39.939,0,0,1-13.078,2.214h-7.037a1.951,1.951,0,0,0-1.95,1.951v.078a1.95,1.95,0,0,0,.209.879l10.78,21.353a1.95,1.95,0,0,0,2.935.663l9.5-7.351a17.579,17.579,0,0,1,10.7-3.658,29.593,29.593,0,0,0,15.659-4.465,1.95,1.95,0,1,0-2.062-3.311,25.7,25.7,0,0,1-13.6,3.875,21.5,21.5,0,0,0-13.091,4.474l-7.629,5.9-8.326-16.49h3.906a43.88,43.88,0,0,0,20.882-5.3h5.329a1.951,1.951,0,0,0,0-3.9h-5.926a28.364,28.364,0,0,1-21.888-10.318,20.794,20.794,0,0,0,10.5,2.832h8.139a1.95,1.95,0,1,0,0-3.9h-8.139a17.048,17.048,0,0,1-16.87-14.749,18.387,18.387,0,0,0,14.362,6.9h4.536a1.95,1.95,0,0,0,0-3.9h-4.536a14.532,14.532,0,0,1-14.4-12.767,46.962,46.962,0,0,0,21.542,5.23,22.721,22.721,0,0,1,12.686,4.2c3.919,2.75,6.439,6.319,7.1,10.049a1.95,1.95,0,0,0,3.842-.676,16.145,16.145,0,0,0-1-3.411l1.091-6.449a7.468,7.468,0,0,1,5.67-6.078,6.554,6.554,0,0,1,6.981,2.865,32.362,32.362,0,0,0,4.368,5.558l.019.019a7.042,7.042,0,0,0-3.366,6v8.146a25.637,25.637,0,0,1-1.822,9.536,1.95,1.95,0,1,0,3.624,1.444,29.522,29.522,0,0,0,2.1-10.98v-8.146a3.141,3.141,0,0,1,3.137-3.137,1.938,1.938,0,0,0,.251-.017,33.873,33.873,0,0,0,1.153,9.437,1.95,1.95,0,1,0,3.768-1.01,30.078,30.078,0,0,1-.788-4.046c.215.012.43.019.644.019a11.344,11.344,0,0,0,10.982-14.283,1.95,1.95,0,0,0-1.382-1.382,11.4,11.4,0,0,0-8.406,1.024,29.742,29.742,0,0,1,8.542-11.867,10.726,10.726,0,0,0,15.131-9.451,1.95,1.95,0,0,0-.925-1.721Zm-31.8,7.249a7.445,7.445,0,0,1,8.172,8.172,7.444,7.444,0,0,1-8.172-8.172Zm15.281,18.323a7.444,7.444,0,0,1-8.172,8.172,7.445,7.445,0,0,1,8.172-8.172Zm9.949-18.164a6.855,6.855,0,0,1-5.761.326,6.822,6.822,0,0,1,9.212-4.95,6.857,6.857,0,0,1-3.451,4.625Z" transform="translate(-223.602 -747.741)" fill="#00223d"/>
        <path id="Trazado_25632" data-name="Trazado 25632" d="M354.518,819.129a1.95,1.95,0,1,0-1.379.571A1.969,1.969,0,0,0,354.518,819.129Z" transform="translate(-296.248 -786.493)" fill="#00223d"/>
        <path id="Trazado_25633" data-name="Trazado 25633" d="M356.685,891.776a1.948,1.948,0,1,0,1.379.569A1.964,1.964,0,0,0,356.685,891.776Z" transform="translate(-298.268 -829.753)" fill="#00223d"/>
      </g>
    </g>
    <g id="Grupo_16497" data-name="Grupo 16497" transform="translate(-307 -6267)">
      <ellipse id="Elipse_923" data-name="Elipse 923" cx="67.5" cy="67" rx="67.5" ry="67" transform="translate(610 9251)" fill="#f6ff9b"/>
      <g id="Grupo_16496" data-name="Grupo 16496" transform="translate(620.004 9239)">
        <g id="Grupo_16494" data-name="Grupo 16494" transform="translate(3.028 3.028)">
          <path id="Trazado_25650" data-name="Trazado 25650" d="M125.6,996.055v-7.563h8l-6.691-9.6h15.854l5.964-4.073-3.346-6.982,4.389-3.491-2.874-9.018V940.2H131.127l-6.109-9.891H105.09V920.128l-9.745-7.854,8.492-10.161,16.593-10.291-11.267-8.93L95.49,894.819H82.254l-7.128,6.4v9.31L54.472,927.546l3.346,5.964V956.2l3.731,9.035-8.326,2.6L42.981,978.892l15.612,11.636H73.2l23.305,18.15v6.577h19.358l2.327-2.036-4.252,15.128h4.522l7.137,3.49,4.946-28.072Z" transform="translate(-42.981 -882.892)" fill="#ffea60"/>
          <path id="Trazado_25651" data-name="Trazado 25651" d="M129.515,1008.711v-2.362H81.183l19.241,14.985v6.577h19.358l2.327-2.036L117.857,1041h4.522l7.137,3.49,4.946-28.072Z" transform="translate(-46.897 -895.548)" fill="#ed1f34"/>
          <path id="Trazado_25652" data-name="Trazado 25652" d="M57.817,964.5l3.731,9.035-8.326,2.6L42.981,987.191l15.612,11.637H73.2l4.064,3.164H125.6v-5.2h8l-6.691-9.6h15.854l5.964-4.073-3.346-6.982,4.389-3.491-2.8-8.8H57.817Z" transform="translate(-42.981 -891.191)" fill="#164fce"/>
        </g>
        <g id="Grupo_16495" data-name="Grupo 16495" transform="translate(0 0)">
          <path id="Trazado_25653" data-name="Trazado 25653" d="M154.424,980.081l-3.314-6.915-2.3-4.807,2.5-1.989a3.027,3.027,0,0,0,1-3.288l-2.731-8.569V939.855a3.027,3.027,0,0,0-3.027-3.027H132.469l-5.222-8.454a3.027,3.027,0,0,0-2.576-1.437h-16.9v-7.155a3.026,3.026,0,0,0-1.128-2.357L99.3,911.5l6.2-7.422,16.179-10.034a3.027,3.027,0,0,0,.285-4.945L110.7,880.173a3.027,3.027,0,0,0-3.871.091L94.009,891.446h-12.1a3.029,3.029,0,0,0-2.022.774l-7.128,6.4a3.027,3.027,0,0,0-1,2.252v7.881L54.994,922.562l-.79-1.408a3.028,3.028,0,0,0-5.281,2.963l5.52,9.839v21.9a3.017,3.017,0,0,0,.23,1.155l2.468,5.976L51.974,964.6a3.021,3.021,0,0,0-1.318.832L40.415,976.489a3.027,3.027,0,0,0,.411,4.485l15.612,11.636a3.03,3.03,0,0,0,1.809.6H71.818l21.317,16.6v5.1a3.027,3.027,0,0,0,3.027,3.027H113.28l-2.6,9.244a3.026,3.026,0,0,0,2.914,3.847h3.821l6.508,3.182a3.027,3.027,0,0,0,4.312-2.193l4.946-28.073a3.028,3.028,0,0,0-.433-2.159l-4.467-6.962v-3.649h4.973a3.028,3.028,0,0,0,2.484-4.758l-3.375-4.842h10.055a3.035,3.035,0,0,0,1.708-.527l3.051-2.084,1.79,3.734a3.027,3.027,0,1,0,5.459-2.616ZM122.97,1027l-3.524-1.723a3.027,3.027,0,0,0-1.331-.308h-.526l3.173-11.28a3.028,3.028,0,0,0-4.908-3.1l-1.471,1.287H99.189v-3.549a3.032,3.032,0,0,0-1.167-2.389l-12.287-9.569h36.573a3.033,3.033,0,0,0,.4.97l4.307,6.713ZM60.112,931.683,58,927.927l18.7-15.408a3.026,3.026,0,0,0,1.1-2.336v-7.959l5.26-4.723H95.144a3.025,3.025,0,0,0,1.99-.746l11.776-10.272,5.918,4.691L101.9,899.195a3.023,3.023,0,0,0-.727.632l-8.492,10.16a3.028,3.028,0,0,0,.423,4.3l8.618,6.946v8.733a3.028,3.028,0,0,0,3.028,3.028h18.239l5.222,8.455a3.027,3.027,0,0,0,2.576,1.436h12.742v9.292H117.183a3.027,3.027,0,1,0,0,6.054h27.224l1.5,4.7-2.754,2.192a3.027,3.027,0,0,0-.845,3.678l2.222,4.638-3.046,2.08h-14.92a3.027,3.027,0,0,0-2.483,4.758l3.375,4.841h-2.2a3.028,3.028,0,0,0-3.027,3.028v2.174H77.96l-3.243-2.527a3.029,3.029,0,0,0-1.86-.638H59.251l-12.105-9.023,7.4-7.992,7.556-2.361a3.029,3.029,0,0,0,1.9-4.045l-2.273-5.505H89.936a3.027,3.027,0,1,0,0-6.054H60.5v-19.01a2.833,2.833,0,0,0-.387-1.482Z" transform="translate(-39.608 -879.518)" fill="#00223d"/>
          <path id="Trazado_25654" data-name="Trazado 25654" d="M110.517,960.474a3.023,3.023,0,1,0,2.143.887A3.054,3.054,0,0,0,110.517,960.474Z" transform="translate(-46.567 -887.818)" fill="#00223d"/>
        </g>
      </g>
    </g>
    <path id="Trazado_25659" data-name="Trazado 25659" d="M11.348,14l-.718-2.037H6.48L5.763,14h-2.1L7.3,4.122H9.81L13.446,14ZM7.082,10.247h2.946l-1.47-4.19ZM17.808,14.13a3.755,3.755,0,0,1-2.714-1.012,3.494,3.494,0,0,1-1.053-2.639A3.486,3.486,0,0,1,15.09,7.841a3.766,3.766,0,0,1,2.717-1,3.744,3.744,0,0,1,2.276.677A3.021,3.021,0,0,1,21.26,9.42l-1.818.2a1.558,1.558,0,0,0-.588-.923,1.788,1.788,0,0,0-1.066-.308,1.612,1.612,0,0,0-1.285.574,2.251,2.251,0,0,0-.492,1.518,2.254,2.254,0,0,0,.492,1.514,1.608,1.608,0,0,0,1.285.578,1.772,1.772,0,0,0,1.063-.308,1.594,1.594,0,0,0,.591-.923l1.818.2a3.03,3.03,0,0,1-1.186,1.907A3.729,3.729,0,0,1,17.808,14.13Zm9.509-7.157h1.969V14H27.419l-.048-.848a2.684,2.684,0,0,1-2.235.984,2.739,2.739,0,0,1-1.941-.632,2.345,2.345,0,0,1-.677-1.8V6.973h1.976v4.307a1.215,1.215,0,0,0,.352.964,1.337,1.337,0,0,0,.913.308,1.585,1.585,0,0,0,1.118-.4,1.718,1.718,0,0,0,.441-1.3Zm10.616,3.411-.021.472H32.7a1.819,1.819,0,0,0,.561,1.285,1.793,1.793,0,0,0,1.237.444,1.728,1.728,0,0,0,.926-.243,1.492,1.492,0,0,0,.591-.708l1.8.267a3.068,3.068,0,0,1-1.23,1.647,3.658,3.658,0,0,1-2.078.588,3.8,3.8,0,0,1-2.738-.967,3.529,3.529,0,0,1-1.015-2.683A3.55,3.55,0,0,1,31.78,7.8a3.691,3.691,0,0,1,2.673-.981,3.528,3.528,0,0,1,2.522.9A3.513,3.513,0,0,1,37.933,10.384ZM34.467,8.217A1.556,1.556,0,0,0,32.758,9.57h3.227a1.48,1.48,0,0,0-.485-1A1.538,1.538,0,0,0,34.467,8.217Zm6.85-.13a2.281,2.281,0,0,1,.923-.844,2.816,2.816,0,0,1,1.374-.352V8.647a2.662,2.662,0,0,0-1.682.424,1.85,1.85,0,0,0-.52,1.5V14H39.43V6.973h1.887ZM49.711,3.5H51.68V14H49.813l-.048-.916a2.007,2.007,0,0,1-.892.8,3,3,0,0,1-1.316.284,3.418,3.418,0,0,1-1.312-.253,3.161,3.161,0,0,1-1.8-1.873,4.274,4.274,0,0,1-.267-1.538,4,4,0,0,1,.465-1.958,3.185,3.185,0,0,1,1.227-1.275,3.379,3.379,0,0,1,1.692-.431,3.078,3.078,0,0,1,1.275.256,1.99,1.99,0,0,1,.878.728Zm-1.7,9.03a1.753,1.753,0,0,0,1.33-.561,2.052,2.052,0,0,0,.53-1.47,2.057,2.057,0,0,0-.533-1.473,1.751,1.751,0,0,0-1.326-.564,1.771,1.771,0,0,0-1.336.554,2.056,2.056,0,0,0-.53,1.483,2.047,2.047,0,0,0,.53,1.477A1.771,1.771,0,0,0,48.009,12.53Zm8.982,1.606A4.419,4.419,0,0,1,55,13.706a3.219,3.219,0,0,1-1.364-1.265,3.769,3.769,0,0,1-.5-1.962,3.437,3.437,0,0,1,1.066-2.666,4.458,4.458,0,0,1,5.571,0,3.437,3.437,0,0,1,1.066,2.666,3.457,3.457,0,0,1-1.066,2.676A3.957,3.957,0,0,1,56.991,14.137Zm-.021-1.565A1.8,1.8,0,0,0,58.362,12a2.15,2.15,0,0,0,.53-1.518,2.15,2.15,0,0,0-.53-1.518,1.8,1.8,0,0,0-1.391-.574,1.738,1.738,0,0,0-1.35.578,2.169,2.169,0,0,0-.523,1.514,2.169,2.169,0,0,0,.523,1.514A1.738,1.738,0,0,0,56.971,12.571ZM70.93,3.5H72.9V14H71.032l-.048-.916a2.007,2.007,0,0,1-.892.8,3,3,0,0,1-1.316.284,3.418,3.418,0,0,1-1.312-.253,3.161,3.161,0,0,1-1.8-1.873,4.274,4.274,0,0,1-.267-1.538,4,4,0,0,1,.465-1.958,3.185,3.185,0,0,1,1.227-1.275,3.379,3.379,0,0,1,1.692-.431,3.078,3.078,0,0,1,1.275.256,1.99,1.99,0,0,1,.878.728Zm-1.7,9.03a1.753,1.753,0,0,0,1.33-.561,2.052,2.052,0,0,0,.53-1.47,2.057,2.057,0,0,0-.533-1.473,1.751,1.751,0,0,0-1.326-.564,1.771,1.771,0,0,0-1.336.554,2.056,2.056,0,0,0-.53,1.483,2.047,2.047,0,0,0,.53,1.477A1.771,1.771,0,0,0,69.228,12.53Zm12.318-2.146-.021.472H76.316a1.819,1.819,0,0,0,.561,1.285,1.793,1.793,0,0,0,1.237.444,1.728,1.728,0,0,0,.926-.243,1.492,1.492,0,0,0,.591-.708l1.8.267a3.068,3.068,0,0,1-1.23,1.647,3.658,3.658,0,0,1-2.078.588,3.8,3.8,0,0,1-2.738-.967,3.529,3.529,0,0,1-1.015-2.683A3.55,3.55,0,0,1,75.394,7.8a3.691,3.691,0,0,1,2.673-.981,3.528,3.528,0,0,1,2.522.9A3.513,3.513,0,0,1,81.546,10.384ZM78.08,8.217A1.556,1.556,0,0,0,76.371,9.57H79.6a1.48,1.48,0,0,0-.485-1A1.538,1.538,0,0,0,78.08,8.217ZM91.048,4.122a2.973,2.973,0,0,1,2.276.919,3.2,3.2,0,0,1,.861,2.273,3.119,3.119,0,0,1-.854,2.259,3.027,3.027,0,0,1-2.283.885H88.99V14H86.939V4.122Zm-.342,4.621a1.507,1.507,0,0,0,1.128-.386,1.469,1.469,0,0,0,.376-1.07,1.456,1.456,0,0,0-.379-1.056,1.494,1.494,0,0,0-1.125-.393H88.99V8.743Zm10.466,3.35a6.574,6.574,0,0,0,.171,1.716V14H99.5l-.157-.766a2.285,2.285,0,0,1-.984.677,3.628,3.628,0,0,1-1.271.226,3.343,3.343,0,0,1-.656-.062,2.231,2.231,0,0,1-.591-.208,1.794,1.794,0,0,1-.489-.366,1.6,1.6,0,0,1-.328-.557,2.219,2.219,0,0,1-.123-.762,2.114,2.114,0,0,1,.13-.762,1.786,1.786,0,0,1,.342-.571,2.073,2.073,0,0,1,.554-.417,4.237,4.237,0,0,1,.7-.3,8.331,8.331,0,0,1,.834-.219l1.155-.26a1.274,1.274,0,0,0,.523-.222.443.443,0,0,0,.154-.352.725.725,0,0,0-.345-.677,1.612,1.612,0,0,0-.837-.205A1.2,1.2,0,0,0,96.735,9.27l-1.743-.314a2.36,2.36,0,0,1,1.019-1.6,4.048,4.048,0,0,1,2.208-.516q2.953,0,2.953,2.536Zm-3.466.711a1.583,1.583,0,0,0,1.217-.509,2.146,2.146,0,0,0,.472-1.507l-1.668.472a1.971,1.971,0,0,0-.7.287.59.59,0,0,0-.243.506.655.655,0,0,0,.26.557A1.075,1.075,0,0,0,97.706,12.8Zm10.507-5.831-3.09,5.51h2.994V14h-5.79L105.4,8.49h-2.837V6.973ZM16.878,21.5h1.969V32H16.98l-.048-.916a2.007,2.007,0,0,1-.892.8,3,3,0,0,1-1.316.284,3.418,3.418,0,0,1-1.312-.253,3.161,3.161,0,0,1-1.8-1.873,4.274,4.274,0,0,1-.267-1.538,4,4,0,0,1,.465-1.958,3.185,3.185,0,0,1,1.227-1.275,3.379,3.379,0,0,1,1.692-.431A3.078,3.078,0,0,1,16,25.092a1.99,1.99,0,0,1,.878.728Zm-1.7,9.03a1.753,1.753,0,0,0,1.33-.561,2.3,2.3,0,0,0,0-2.943,1.751,1.751,0,0,0-1.326-.564,1.771,1.771,0,0,0-1.336.554,2.332,2.332,0,0,0,0,2.96A1.771,1.771,0,0,0,15.176,30.53Zm12.318-2.146-.021.472H22.265a1.819,1.819,0,0,0,.561,1.285,1.793,1.793,0,0,0,1.237.444,1.728,1.728,0,0,0,.926-.243,1.492,1.492,0,0,0,.591-.708l1.8.267a3.068,3.068,0,0,1-1.23,1.647,3.658,3.658,0,0,1-2.078.588,3.8,3.8,0,0,1-2.738-.967,3.529,3.529,0,0,1-1.015-2.683A3.55,3.55,0,0,1,21.342,25.8a3.691,3.691,0,0,1,2.673-.981,3.217,3.217,0,0,1,3.479,3.562Zm-3.466-2.167a1.556,1.556,0,0,0-1.709,1.354h3.227a1.48,1.48,0,0,0-.485-1A1.538,1.538,0,0,0,24.028,26.217Zm10.91,3.972h3.1V32H32.888V22.122h2.051Zm10.165-.1a6.574,6.574,0,0,0,.171,1.716V32H43.436l-.157-.766a2.285,2.285,0,0,1-.984.677,3.628,3.628,0,0,1-1.271.226,3.343,3.343,0,0,1-.656-.062,2.231,2.231,0,0,1-.591-.208,1.794,1.794,0,0,1-.489-.366,1.6,1.6,0,0,1-.328-.557,2.219,2.219,0,0,1-.123-.762,2.114,2.114,0,0,1,.13-.762,1.786,1.786,0,0,1,.342-.571,2.073,2.073,0,0,1,.554-.417,4.237,4.237,0,0,1,.7-.3,8.331,8.331,0,0,1,.834-.219l1.155-.26a1.274,1.274,0,0,0,.523-.222.443.443,0,0,0,.154-.352.725.725,0,0,0-.345-.677,1.612,1.612,0,0,0-.837-.205,1.2,1.2,0,0,0-1.374,1.073l-1.743-.314a2.36,2.36,0,0,1,1.019-1.6,4.048,4.048,0,0,1,2.208-.516q2.953,0,2.953,2.536Zm-3.466.711a1.583,1.583,0,0,0,1.217-.509,2.146,2.146,0,0,0,.472-1.507l-1.668.472a1.971,1.971,0,0,0-.7.287.59.59,0,0,0-.243.506.655.655,0,0,0,.26.557A1.075,1.075,0,0,0,41.638,30.8Zm15.5-8.682h2.051V32H57.142V27.939H52.965V32H50.914V22.122h2.051v4.033h4.177Zm10.069,7.971a6.574,6.574,0,0,0,.171,1.716V32H65.543l-.157-.766a2.285,2.285,0,0,1-.984.677,3.628,3.628,0,0,1-1.271.226,3.343,3.343,0,0,1-.656-.062,2.231,2.231,0,0,1-.591-.208,1.794,1.794,0,0,1-.489-.366,1.6,1.6,0,0,1-.328-.557,2.219,2.219,0,0,1-.123-.762,2.114,2.114,0,0,1,.13-.762,1.786,1.786,0,0,1,.342-.571,2.073,2.073,0,0,1,.554-.417,4.237,4.237,0,0,1,.7-.3,8.331,8.331,0,0,1,.834-.219l1.155-.26a1.274,1.274,0,0,0,.523-.222.443.443,0,0,0,.154-.352.725.725,0,0,0-.345-.677,1.612,1.612,0,0,0-.837-.205,1.2,1.2,0,0,0-1.374,1.073l-1.743-.314a2.36,2.36,0,0,1,1.019-1.6,4.048,4.048,0,0,1,2.208-.516q2.953,0,2.953,2.536Zm-3.466.711a1.583,1.583,0,0,0,1.217-.509,2.146,2.146,0,0,0,.472-1.507l-1.668.472a1.971,1.971,0,0,0-.7.287.59.59,0,0,0-.243.506.655.655,0,0,0,.26.557A1.075,1.075,0,0,0,63.745,30.8Zm9.509-5.968a3.4,3.4,0,0,1,1.306.253,3.161,3.161,0,0,1,1.8,1.873,4.57,4.57,0,0,1,0,3.076,3.161,3.161,0,0,1-1.8,1.873,3.4,3.4,0,0,1-1.306.253,3.035,3.035,0,0,1-1.33-.284,1.965,1.965,0,0,1-.885-.8L70.991,32H69.125V21.5h1.969v4.327a1.962,1.962,0,0,1,.878-.731A3.09,3.09,0,0,1,73.254,24.836ZM72.8,30.53a1.771,1.771,0,0,0,1.336-.554,2.332,2.332,0,0,0,0-2.96,1.771,1.771,0,0,0-1.336-.554,1.751,1.751,0,0,0-1.326.564,2.3,2.3,0,0,0,0,2.943A1.753,1.753,0,0,0,72.8,30.53Zm11.081-.437a6.574,6.574,0,0,0,.171,1.716V32H82.209l-.157-.766a2.285,2.285,0,0,1-.984.677,3.628,3.628,0,0,1-1.271.226,3.343,3.343,0,0,1-.656-.062,2.231,2.231,0,0,1-.591-.208,1.794,1.794,0,0,1-.489-.366,1.6,1.6,0,0,1-.328-.557,2.219,2.219,0,0,1-.123-.762,2.114,2.114,0,0,1,.13-.762,1.786,1.786,0,0,1,.342-.571,2.073,2.073,0,0,1,.554-.417,4.237,4.237,0,0,1,.7-.3,8.331,8.331,0,0,1,.834-.219l1.155-.26a1.274,1.274,0,0,0,.523-.222A.443.443,0,0,0,82,27.078a.725.725,0,0,0-.345-.677,1.612,1.612,0,0,0-.837-.205A1.2,1.2,0,0,0,79.44,27.27L77.7,26.955a2.36,2.36,0,0,1,1.019-1.6,4.048,4.048,0,0,1,2.208-.516q2.953,0,2.953,2.536Zm-3.466.711a1.583,1.583,0,0,0,1.217-.509,2.146,2.146,0,0,0,.472-1.507l-1.668.472a1.971,1.971,0,0,0-.7.287.59.59,0,0,0-.243.506.655.655,0,0,0,.26.557A1.075,1.075,0,0,0,80.411,30.8Zm9.529-5.968a2.739,2.739,0,0,1,1.941.632,2.345,2.345,0,0,1,.677,1.8V32H90.583V27.693a1.224,1.224,0,0,0-.352-.971,1.326,1.326,0,0,0-.906-.308,1.85,1.85,0,0,0-.588.089,1.51,1.51,0,0,0-.492.277,1.224,1.224,0,0,0-.352.53,2.45,2.45,0,0,0-.133.813V32H85.791V24.973H87.76v.779A2.708,2.708,0,0,1,89.94,24.836Zm10.288,5.257a6.574,6.574,0,0,0,.171,1.716V32H98.561l-.157-.766a2.285,2.285,0,0,1-.984.677,3.628,3.628,0,0,1-1.271.226,3.343,3.343,0,0,1-.656-.062,2.231,2.231,0,0,1-.591-.208,1.794,1.794,0,0,1-.489-.366,1.6,1.6,0,0,1-.328-.557,2.219,2.219,0,0,1-.123-.762,2.114,2.114,0,0,1,.13-.762,1.786,1.786,0,0,1,.342-.571,2.073,2.073,0,0,1,.554-.417,4.237,4.237,0,0,1,.7-.3,8.331,8.331,0,0,1,.834-.219l1.155-.26a1.274,1.274,0,0,0,.523-.222.443.443,0,0,0,.154-.352A.725.725,0,0,0,98,26.4a1.612,1.612,0,0,0-.837-.205,1.2,1.2,0,0,0-1.374,1.073l-1.743-.314a2.36,2.36,0,0,1,1.019-1.6,4.048,4.048,0,0,1,2.208-.516q2.953,0,2.953,2.536Zm-3.466.711a1.583,1.583,0,0,0,1.217-.509,2.146,2.146,0,0,0,.472-1.507l-1.668.472a1.971,1.971,0,0,0-.7.287.59.59,0,0,0-.243.506.655.655,0,0,0,.26.557A1.075,1.075,0,0,0,96.763,30.8ZM39.313,53.411A5.676,5.676,0,0,1,37.2,50.632a12.03,12.03,0,0,1-.769-4.495,12.07,12.07,0,0,1,.769-4.491,5.675,5.675,0,0,1,2.109-2.789l.629.779a4.8,4.8,0,0,0-1.8,2.437,11.278,11.278,0,0,0-.663,4.064,11.262,11.262,0,0,0,.66,4.064,4.761,4.761,0,0,0,1.8,2.423Zm3.309-4.5h4.792V50H40.92v-.9l3.855-3.985a4.567,4.567,0,0,0,.868-1.142,2.278,2.278,0,0,0,.239-.991,1.661,1.661,0,0,0-.485-1.275,1.981,1.981,0,0,0-2.574.041,2.132,2.132,0,0,0-.489,1.548v.711L41.152,43.9v-.595a3.042,3.042,0,0,1,.813-2.287,3.368,3.368,0,0,1,4.262-.058,2.544,2.544,0,0,1,.817,2,3.027,3.027,0,0,1-.325,1.391,5.98,5.98,0,0,1-1.042,1.384Zm9.44,1.217a2.681,2.681,0,0,1-2.372-1.258,6.707,6.707,0,0,1-.834-3.691A6.737,6.737,0,0,1,49.68,41.5a2.882,2.882,0,0,1,4.754,0,6.718,6.718,0,0,1,.827,3.681,6.688,6.688,0,0,1-.837,3.688A2.675,2.675,0,0,1,52.063,50.13Zm0-1.094a1.628,1.628,0,0,0,1.5-.964,6.284,6.284,0,0,0,.52-2.892,6.106,6.106,0,0,0-.53-2.888,1.645,1.645,0,0,0-2.977,0,6.138,6.138,0,0,0-.526,2.892,6.317,6.317,0,0,0,.516,2.9A1.626,1.626,0,0,0,52.063,49.036Zm7.95-8.661H61.12V50H59.951V41.667l-2.311,2V42.405Zm11.136,6.419a3.248,3.248,0,0,1-.437,1.729A3.091,3.091,0,0,1,69.5,49.7a3.451,3.451,0,0,1-1.668.41A3.36,3.36,0,0,1,65.44,49.2a3.06,3.06,0,0,1-.964-2.334,3.79,3.79,0,0,1,.834-2.311l3.22-4.184h1.395l-2.673,3.37a3,3,0,0,1,.834-.116A3.059,3.059,0,0,1,69.563,44a2.957,2.957,0,0,1,1.128,1.1A3.3,3.3,0,0,1,71.148,46.794Zm-3.343,2.215a2.09,2.09,0,0,0,2.188-2.235,2.115,2.115,0,0,0-2.208-2.222,2.069,2.069,0,0,0-1.572.66,2.21,2.21,0,0,0-.608,1.61,2.13,2.13,0,0,0,.619,1.606A2.2,2.2,0,0,0,67.806,49.009Zm4.881,4.4-.629-.786a4.761,4.761,0,0,0,1.8-2.423,11.262,11.262,0,0,0,.66-4.064,11.279,11.279,0,0,0-.663-4.064,4.8,4.8,0,0,0-1.8-2.437l.629-.779A5.675,5.675,0,0,1,74.8,41.646a12.07,12.07,0,0,1,.769,4.491,12.03,12.03,0,0,1-.769,4.495A5.676,5.676,0,0,1,72.687,53.411Z" transform="translate(442 3073)" fill="#00223d"/>
  </g>
</svg>
