<svg xmlns="http://www.w3.org/2000/svg" width="142.29" height="163.676" viewBox="0 0 142.29 163.676">
  <g id="Grupo_16500" data-name="Grupo 16500" transform="translate(-564.867 -2651.744)">
    <path id="Trazado_25655" data-name="Trazado 25655" d="M35.167,12.188h3.1V14H33.116V4.122h2.051Zm11.013-1.8-.021.472H40.95a1.819,1.819,0,0,0,.561,1.285,1.793,1.793,0,0,0,1.237.444,1.728,1.728,0,0,0,.926-.243,1.492,1.492,0,0,0,.591-.708l1.8.267a3.068,3.068,0,0,1-1.23,1.647,3.658,3.658,0,0,1-2.078.588,3.8,3.8,0,0,1-2.738-.967,3.529,3.529,0,0,1-1.015-2.683A3.55,3.55,0,0,1,40.027,7.8,3.691,3.691,0,0,1,42.7,6.822a3.528,3.528,0,0,1,2.522.9A3.513,3.513,0,0,1,46.179,10.384ZM42.713,8.217A1.556,1.556,0,0,0,41,9.57h3.227a1.48,1.48,0,0,0-.485-1A1.538,1.538,0,0,0,42.713,8.217ZM52,6.973h2.017L49.679,17.309h-2l1.606-3.6L46.4,6.973h2.146l1.675,4.621Zm9.584-2.851h1.873V14H61.492V6.146l-2.27,2.112V6.234Zm8.613,10.015a3.544,3.544,0,0,1-2.693-.9,3.913,3.913,0,0,1-.848-2.762l2.017-.089a7.141,7.141,0,0,0,.031.725,2.5,2.5,0,0,0,.123.561,1,1,0,0,0,.26.42,1.18,1.18,0,0,0,.444.243,2.2,2.2,0,0,0,.667.089,1.6,1.6,0,0,0,1.166-.4,1.386,1.386,0,0,0,.407-1.039,1.4,1.4,0,0,0-.39-1.07,1.466,1.466,0,0,0-1.046-.366h-.383V8.019H70.3a1.069,1.069,0,0,0,.817-.349,1.243,1.243,0,0,0,.325-.882.994.994,0,0,0-.355-.82,1.445,1.445,0,0,0-.937-.287,1.4,1.4,0,0,0-.533.092.994.994,0,0,0-.359.236,1.043,1.043,0,0,0-.212.362,1.9,1.9,0,0,0-.1.431,4.3,4.3,0,0,0-.024.479l-1.989-.1a3.162,3.162,0,0,1,.848-2.375,3.232,3.232,0,0,1,2.352-.824,3.362,3.362,0,0,1,2.256.755,2.366,2.366,0,0,1,.889,1.876A2.136,2.136,0,0,1,72.9,7.889a2.172,2.172,0,0,1-.865.752,2.434,2.434,0,0,1,.629.28,2.578,2.578,0,0,1,.55.472,2.1,2.1,0,0,1,.407.718,2.888,2.888,0,0,1,.15.957,2.791,2.791,0,0,1-.978,2.232A3.856,3.856,0,0,1,70.194,14.137Zm8.183-6.542q3.794,0,3.794,3.117a3.33,3.33,0,0,1-.957,2.5,3.459,3.459,0,0,1-2.522.933,4.184,4.184,0,0,1-1.767-.366,3.049,3.049,0,0,1-1.282-1.087,2.911,2.911,0,0,1-.485-1.665,3.073,3.073,0,0,1,.041-.492l1.955-.089a2.89,2.89,0,0,0-.048.438,1.33,1.33,0,0,0,.444,1.09,1.675,1.675,0,0,0,1.1.366,1.517,1.517,0,0,0,1.148-.42,1.566,1.566,0,0,0,.4-1.131,1.408,1.408,0,0,0-.492-1.155,2.636,2.636,0,0,0-1.654-.4H75.464l.41-5.106h5.831V5.879H77.645l-.13,1.716ZM90.3,4.122h1.873V14H90.209V6.146L87.94,8.258V6.234Zm8.647-.13a3.819,3.819,0,0,1,1.842.448A3.37,3.37,0,0,1,102.1,5.677a3.318,3.318,0,0,1,.479,1.753,4.036,4.036,0,0,1-.882,2.406L98.618,14H96.375l2.557-3.343a3.273,3.273,0,0,1-.444.027,3.232,3.232,0,0,1-1.565-.393,3.086,3.086,0,0,1-1.179-1.145,3.238,3.238,0,0,1-.455-1.709,3.167,3.167,0,0,1,1.073-2.464A3.711,3.711,0,0,1,98.946,3.992Zm1.777,3.514A1.615,1.615,0,0,0,99,5.763a1.776,1.776,0,0,0-1.282.482,1.665,1.665,0,0,0-.509,1.241,1.69,1.69,0,0,0,.479,1.271,1.734,1.734,0,0,0,1.292.5,1.654,1.654,0,0,0,1.251-.5A1.785,1.785,0,0,0,100.723,7.506Zm10.2,3.179a3.22,3.22,0,0,1-.291,1.388,3.275,3.275,0,0,1-.8,1.1,3.766,3.766,0,0,1-1.172.7,3.975,3.975,0,0,1-2.827-.007,3.51,3.51,0,0,1-1.155-.721,3.4,3.4,0,0,1-1.042-2.454,4.105,4.105,0,0,1,.875-2.413l3.076-4.156h2.235l-2.563,3.343a3.331,3.331,0,0,1,.451-.027,3.22,3.22,0,0,1,1.213.232,3.286,3.286,0,0,1,1.022.646,2.989,2.989,0,0,1,.708,1.029A3.455,3.455,0,0,1,110.922,10.685Zm-1.928-.048a1.687,1.687,0,0,0-.479-1.275,1.74,1.74,0,0,0-1.292-.5,1.668,1.668,0,0,0-1.251.5,1.763,1.763,0,0,0-.5,1.244,1.621,1.621,0,0,0,1.729,1.75,1.78,1.78,0,0,0,1.285-.479A1.668,1.668,0,0,0,108.995,10.637Zm6.385-6.515h1.873V14h-1.962V6.146l-2.27,2.112V6.234Zm4.279,12.66L126.474,3.5h1.853l-6.809,13.282ZM12.919,32.137a5.514,5.514,0,0,1-2.013-.362,4.734,4.734,0,0,1-1.6-1.012A4.561,4.561,0,0,1,8.25,29.156a5.6,5.6,0,0,1-.383-2.1,5.351,5.351,0,0,1,.656-2.683,4.468,4.468,0,0,1,1.8-1.774,5.394,5.394,0,0,1,2.594-.615,5.242,5.242,0,0,1,2.9.8,4.378,4.378,0,0,1,1.771,2.2l-1.914.7a2.706,2.706,0,0,0-1.06-1.333,3.026,3.026,0,0,0-1.7-.479,2.9,2.9,0,0,0-2.16.861,3.169,3.169,0,0,0-.848,2.324,3.174,3.174,0,0,0,.851,2.328,2.9,2.9,0,0,0,2.157.865,3.015,3.015,0,0,0,1.692-.482,2.718,2.718,0,0,0,1.063-1.336l1.914.7a4.4,4.4,0,0,1-1.771,2.2A5.225,5.225,0,0,1,12.919,32.137Zm9.365,0a4.419,4.419,0,0,1-1.989-.431,3.219,3.219,0,0,1-1.364-1.265,3.769,3.769,0,0,1-.5-1.962A3.437,3.437,0,0,1,19.5,25.813a3.956,3.956,0,0,1,2.782-.978,3.966,3.966,0,0,1,2.789.978,3.437,3.437,0,0,1,1.066,2.666,3.457,3.457,0,0,1-1.066,2.676A3.957,3.957,0,0,1,22.284,32.137Zm-.021-1.565A1.8,1.8,0,0,0,23.655,30a2.438,2.438,0,0,0,0-3.035,1.8,1.8,0,0,0-1.391-.574,1.738,1.738,0,0,0-1.35.578,2.454,2.454,0,0,0,0,3.028A1.738,1.738,0,0,0,22.264,30.571Zm9.488-5.735a2.739,2.739,0,0,1,1.941.632,2.345,2.345,0,0,1,.677,1.8V32H32.395V27.693a1.224,1.224,0,0,0-.352-.971,1.326,1.326,0,0,0-.906-.308,1.85,1.85,0,0,0-.588.089,1.51,1.51,0,0,0-.492.277,1.224,1.224,0,0,0-.352.53,2.45,2.45,0,0,0-.133.813V32H27.6V24.973h1.969v.779A2.708,2.708,0,0,1,31.752,24.836Zm7,7.3a3.927,3.927,0,0,1-2.051-.492,2.08,2.08,0,0,1-1-1.463l1.647-.465a1.324,1.324,0,0,0,1.408,1.046,1.454,1.454,0,0,0,.718-.161.559.559,0,0,0,.28-.543.575.575,0,0,0-.116-.362.92.92,0,0,0-.359-.26,4.472,4.472,0,0,0-.479-.185q-.236-.075-.625-.181t-.649-.2a4.35,4.35,0,0,1-.619-.263,2.639,2.639,0,0,1-.513-.362,1.46,1.46,0,0,1-.383-.55,1.985,1.985,0,0,1-.133-.752,1.8,1.8,0,0,1,.762-1.572,3.406,3.406,0,0,1,1.993-.533,3.492,3.492,0,0,1,1.839.451,2.042,2.042,0,0,1,.943,1.408l-1.524.342a1.194,1.194,0,0,0-1.251-.889,1.37,1.37,0,0,0-.69.157.505.505,0,0,0-.273.465.533.533,0,0,0,.041.212.419.419,0,0,0,.144.171,2.094,2.094,0,0,0,.2.13,1.5,1.5,0,0,0,.28.113q.185.058.308.089l.359.092.366.1q.376.1.66.205a3.863,3.863,0,0,1,.6.287,2.171,2.171,0,0,1,.53.414,1.845,1.845,0,0,1,.345.581,2.146,2.146,0,0,1,.137.783,2.114,2.114,0,0,1-.236,1.019,1.77,1.77,0,0,1-.646.687,3.144,3.144,0,0,1-.913.369A4.734,4.734,0,0,1,38.752,32.137ZM45.677,32a2.122,2.122,0,0,1-1.586-.571,2.22,2.22,0,0,1-.561-1.624V26.483H42.149V24.973h.444a1.159,1.159,0,0,0,.875-.294,1.514,1.514,0,0,0,.28-1.046V22.7h1.777v2.27h1.449v1.511H45.526v3.11q0,.909.813.909h.636V32ZM49.5,23.92a1.105,1.105,0,0,1-.807-.332,1.088,1.088,0,0,1-.335-.8,1.075,1.075,0,0,1,.338-.8,1.109,1.109,0,0,1,.8-.332,1.131,1.131,0,0,1,0,2.263ZM48.5,32V24.973h1.982V32Zm6.638,0a2.122,2.122,0,0,1-1.586-.571,2.22,2.22,0,0,1-.561-1.624V26.483H51.61V24.973h.444a1.159,1.159,0,0,0,.875-.294,1.514,1.514,0,0,0,.28-1.046V22.7h1.777v2.27h1.449v1.511H54.987v3.11q0,.909.813.909h.636V32Zm7.479-7.027h1.969V32H62.719l-.048-.848a2.684,2.684,0,0,1-2.235.984,2.739,2.739,0,0,1-1.941-.632,2.345,2.345,0,0,1-.677-1.8v-4.73h1.976v4.307a1.215,1.215,0,0,0,.352.964,1.337,1.337,0,0,0,.913.308,1.585,1.585,0,0,0,1.118-.4,1.718,1.718,0,0,0,.441-1.3ZM69.8,32.13a3.755,3.755,0,0,1-2.714-1.012,3.838,3.838,0,0,1,0-5.277,4.172,4.172,0,0,1,4.994-.328,3.021,3.021,0,0,1,1.176,1.907l-1.818.2a1.558,1.558,0,0,0-.588-.923,1.788,1.788,0,0,0-1.066-.308,1.612,1.612,0,0,0-1.285.574,2.58,2.58,0,0,0,0,3.032,1.608,1.608,0,0,0,1.285.578,1.772,1.772,0,0,0,1.063-.308,1.594,1.594,0,0,0,.591-.923l1.818.2a3.03,3.03,0,0,1-1.186,1.907A3.729,3.729,0,0,1,69.8,32.13Zm5.858-8.21a1.105,1.105,0,0,1-.807-.332,1.088,1.088,0,0,1-.335-.8,1.075,1.075,0,0,1,.338-.8,1.109,1.109,0,0,1,.8-.332,1.131,1.131,0,0,1,0,2.263Zm-1,8.08V24.973h1.982V32Zm6.686-7.984L83.131,21.5l.971.684L82.55,24.016Zm.608,8.121a4.419,4.419,0,0,1-1.989-.431A3.219,3.219,0,0,1,78.6,30.441a3.769,3.769,0,0,1-.5-1.962,3.437,3.437,0,0,1,1.066-2.666,4.458,4.458,0,0,1,5.571,0A3.437,3.437,0,0,1,85.8,28.479a3.457,3.457,0,0,1-1.066,2.676A3.957,3.957,0,0,1,81.948,32.137Zm-.021-1.565A1.8,1.8,0,0,0,83.319,30a2.438,2.438,0,0,0,0-3.035,1.8,1.8,0,0,0-1.391-.574,1.738,1.738,0,0,0-1.35.578,2.454,2.454,0,0,0,0,3.028A1.738,1.738,0,0,0,81.928,30.571Zm9.488-5.735a2.739,2.739,0,0,1,1.941.632,2.345,2.345,0,0,1,.677,1.8V32H92.059V27.693a1.224,1.224,0,0,0-.352-.971,1.326,1.326,0,0,0-.906-.308,1.85,1.85,0,0,0-.588.089,1.51,1.51,0,0,0-.492.277,1.224,1.224,0,0,0-.352.53,2.45,2.45,0,0,0-.133.813V32H87.267V24.973h1.969v.779A2.708,2.708,0,0,1,91.416,24.836ZM104.562,21.5h1.969V32h-1.866l-.048-.916a2.007,2.007,0,0,1-.892.8,3,3,0,0,1-1.316.284,3.418,3.418,0,0,1-1.312-.253,3.161,3.161,0,0,1-1.8-1.873,4.274,4.274,0,0,1-.267-1.538,4,4,0,0,1,.465-1.958,3.185,3.185,0,0,1,1.227-1.275,3.379,3.379,0,0,1,1.692-.431,3.078,3.078,0,0,1,1.275.256,1.99,1.99,0,0,1,.878.728Zm-1.7,9.03a1.753,1.753,0,0,0,1.33-.561,2.3,2.3,0,0,0,0-2.943,1.751,1.751,0,0,0-1.326-.564,1.771,1.771,0,0,0-1.336.554,2.332,2.332,0,0,0,0,2.96A1.771,1.771,0,0,0,102.859,30.53Zm12.318-2.146-.021.472h-5.209a1.819,1.819,0,0,0,.561,1.285,1.793,1.793,0,0,0,1.237.444,1.728,1.728,0,0,0,.926-.243,1.492,1.492,0,0,0,.591-.708l1.8.267a3.068,3.068,0,0,1-1.23,1.647,3.658,3.658,0,0,1-2.078.588,3.8,3.8,0,0,1-2.738-.967,3.529,3.529,0,0,1-1.015-2.683,3.55,3.55,0,0,1,1.019-2.683,3.691,3.691,0,0,1,2.673-.981,3.217,3.217,0,0,1,3.479,3.562Zm-3.466-2.167A1.556,1.556,0,0,0,110,27.57h3.227a1.48,1.48,0,0,0-.485-1A1.538,1.538,0,0,0,111.712,26.217ZM123.2,22.122h1.873V32h-1.962V24.146l-2.27,2.112V24.234Zm8.647-.13a3.819,3.819,0,0,1,1.842.448A3.371,3.371,0,0,1,135,23.677a3.317,3.317,0,0,1,.479,1.753,4.036,4.036,0,0,1-.882,2.406L131.522,32H129.28l2.557-3.343a3.273,3.273,0,0,1-.444.027,3.232,3.232,0,0,1-1.565-.393,3.086,3.086,0,0,1-1.179-1.145,3.238,3.238,0,0,1-.455-1.709,3.167,3.167,0,0,1,1.073-2.464A3.711,3.711,0,0,1,131.851,21.992Zm1.777,3.514a1.615,1.615,0,0,0-1.723-1.743,1.776,1.776,0,0,0-1.282.482,1.665,1.665,0,0,0-.509,1.241,1.69,1.69,0,0,0,.479,1.271,1.734,1.734,0,0,0,1.292.5,1.654,1.654,0,0,0,1.251-.5A1.785,1.785,0,0,0,133.628,25.506Zm6.583-3.514a3.819,3.819,0,0,1,1.842.448,3.371,3.371,0,0,1,1.309,1.237,3.317,3.317,0,0,1,.479,1.753,4.036,4.036,0,0,1-.882,2.406L139.883,32h-2.242l2.557-3.343a3.273,3.273,0,0,1-.444.027,3.232,3.232,0,0,1-1.565-.393,3.086,3.086,0,0,1-1.179-1.145,3.238,3.238,0,0,1-.455-1.709,3.167,3.167,0,0,1,1.073-2.464A3.711,3.711,0,0,1,140.211,21.992Zm1.777,3.514a1.615,1.615,0,0,0-1.723-1.743,1.776,1.776,0,0,0-1.282.482,1.665,1.665,0,0,0-.509,1.241,1.69,1.69,0,0,0,.479,1.271,1.734,1.734,0,0,0,1.292.5,1.654,1.654,0,0,0,1.251-.5A1.785,1.785,0,0,0,141.988,25.506Zm6.3-3.384h1.873V32H148.2V24.146l-2.27,2.112V24.234Z" transform="translate(557 2783.256)" fill="#00223d"/>
    <path id="Trazado_25656" data-name="Trazado 25656" d="M59.318,0A59.318,59.318,0,1,1,0,59.318,59.318,59.318,0,0,1,59.318,0Z" transform="translate(577.682 2651.744)" fill="#f6ff9b"/>
    <path id="Trazado_25634" data-name="Trazado 25634" d="M125.3,697.069H61.419a6.845,6.845,0,0,0-6.844,6.844V811.141h77.569a6.844,6.844,0,0,0,6.845-6.844V703.913a6.844,6.844,0,0,1,6.844-6.844Z" transform="translate(541.359 1956.957)" fill="#e6e6e6"/>
    <g id="Grupo_16490" data-name="Grupo 16490" transform="translate(586.808 2654.026)">
      <path id="Trazado_25635" data-name="Trazado 25635" d="M128.861,848.068a6.844,6.844,0,0,1-6.844-6.844v-4.563H42.167v4.563a6.844,6.844,0,0,0,6.844,6.844Z" transform="translate(-42.167 -733.996)" fill="#0071bc"/>
      <path id="Trazado_25636" data-name="Trazado 25636" d="M169.351,731.291V703.913a6.844,6.844,0,0,1,13.688,0v27.378Z" transform="translate(-75.812 -697.069)" fill="#0071bc"/>
    </g>
    <g id="Grupo_16491" data-name="Grupo 16491" transform="translate(616.467 2680.822)">
      <path id="Trazado_25637" data-name="Trazado 25637" d="M111.119,739.168l15.45,15.45,4.563-9.126L119.143,733.5Z" transform="translate(-90.066 -733.503)" fill="#f7931e"/>
      <path id="Trazado_25638" data-name="Trazado 25638" d="M102.506,739.168l-15.45,15.45-4.564-9.126L94.483,733.5Z" transform="translate(-82.493 -733.503)" fill="#f7931e"/>
    </g>
    <path id="Trazado_25657" data-name="Trazado 25657" d="M11.407,0A11.407,11.407,0,1,1,0,11.407,11.407,11.407,0,0,1,11.407,0Z" transform="translate(625.593 2665.433)" fill="#fbb03b"/>
    <path id="Trazado_25639" data-name="Trazado 25639" d="M48.191,812.6h79.85a9.126,9.126,0,0,0,9.126-9.126V732.752h11.407a2.282,2.282,0,0,0,2.281-2.281V703.093a9.126,9.126,0,0,0-9.126-9.126H57.316a9.126,9.126,0,0,0-9.126,9.126v93.539H41.346a2.282,2.282,0,0,0-2.281,2.281v4.563A9.125,9.125,0,0,0,48.191,812.6Zm98.1-109.509v25.1h-9.126v-25.1a4.563,4.563,0,0,1,9.126,0Zm-93.539,0a4.563,4.563,0,0,1,4.563-4.563h76.556a9.03,9.03,0,0,0-1.268,4.563V803.476a4.563,4.563,0,0,1-9.126,0v-4.563a2.282,2.282,0,0,0-2.281-2.281H52.753Zm-9.126,98.1h75.287v2.281a9.062,9.062,0,0,0,1.225,4.563H48.191a4.562,4.562,0,0,1-4.563-4.563Z" transform="translate(545.462 1957.777)" fill="#00223d"/>
    <path id="Trazado_25640" data-name="Trazado 25640" d="M66.983,790.131h66.162v4.563H66.983Z" transform="translate(538.077 1932.339)" fill="#00223d"/>
    <path id="Trazado_25641" data-name="Trazado 25641" d="M66.983,802.539h57.036V807.1H66.983Z" transform="translate(538.077 1929.056)" fill="#00223d"/>
    <path id="Trazado_25642" data-name="Trazado 25642" d="M66.983,818.049H80.672v4.563H66.983Z" transform="translate(538.077 1924.953)" fill="#00223d"/>
    <path id="Trazado_25643" data-name="Trazado 25643" d="M138.33,818.049h13.689v4.563H138.33Z" transform="translate(519.203 1924.953)" fill="#00223d"/>
    <path id="Trazado_25644" data-name="Trazado 25644" d="M85.6,777.722h52.473v4.564H85.6Z" transform="translate(533.153 1935.621)" fill="#00223d"/>
    <path id="Trazado_25645" data-name="Trazado 25645" d="M73.187,777.722H77.75v4.564H73.187Z" transform="translate(536.435 1935.621)" fill="#00223d"/>
    <path id="Trazado_25646" data-name="Trazado 25646" d="M66.983,709.478h4.563v4.563H66.983Z" transform="translate(538.077 1953.674)" fill="#00223d"/>
    <path id="Trazado_25647" data-name="Trazado 25647" d="M79.391,709.478h4.564v4.563H79.391Z" transform="translate(534.794 1953.674)" fill="#00223d"/>
    <path id="Trazado_25648" data-name="Trazado 25648" d="M80.059,737.51a2.282,2.282,0,0,0-.429,2.633l4.563,9.126A2.284,2.284,0,0,0,85.87,750.5a2.159,2.159,0,0,0,.366.029,2.281,2.281,0,0,0,1.613-.669l13.084-13.084c.42.039.844.064,1.273.064s.853-.025,1.273-.064l13.084,13.084a2.28,2.28,0,0,0,1.613.669,2.156,2.156,0,0,0,.365-.029,2.281,2.281,0,0,0,1.677-1.232l4.564-9.126a2.281,2.281,0,0,0-.43-2.633l-9.4-9.4a13.689,13.689,0,1,0-25.493,0Zm6.8,6.888-2.412-4.819,7.444-7.444a13.775,13.775,0,0,0,4.052,3.193Zm33.1-4.819-2.412,4.825-9.084-9.091a13.8,13.8,0,0,0,4.052-3.194Zm-17.756-25.552a9.126,9.126,0,1,1-9.126,9.126h0A9.125,9.125,0,0,1,102.206,714.027Z" transform="translate(534.794 1953.688)" fill="#00223d"/>
  </g>
</svg>
