<svg xmlns="http://www.w3.org/2000/svg" width="141" height="141" viewBox="0 0 141 141">
  <g id="Grupo_16313" data-name="Grupo 16313" transform="translate(-993 -8468.936)">
    <circle id="Elipse_878" data-name="Elipse 878" cx="70.5" cy="70.5" r="70.5" transform="translate(993 8468.936)" fill="#f6ff9b"/>
    <g id="Grupo_16312" data-name="Grupo 16312" transform="translate(996.186 8471.481)">
      <rect id="Rectángulo_3919" data-name="Rectángulo 3919" width="130.01" height="82.819" rx="14.481" transform="translate(2.948 16.988)" fill="#f0f7ff"/>
      <g id="Grupo_16310" data-name="Grupo 16310" transform="translate(14.38 2.654)">
        <rect id="Rectángulo_3920" data-name="Rectángulo 3920" width="16.989" height="14.334" transform="translate(45.08)" fill="#ffb954"/>
        <rect id="Rectángulo_3921" data-name="Rectángulo 3921" width="16.989" height="33.446" transform="translate(45.08 97.153)" fill="#ffb954"/>
        <path id="Trazado_24858" data-name="Trazado 24858" d="M720.931-126.157H703.943L686.954-92.71h16.989Z" transform="translate(-675.851 223.31)" fill="#ffb954"/>
        <path id="Trazado_24859" data-name="Trazado 24859" d="M753.592-126.157H770.58L787.569-92.71H770.58Z" transform="translate(-691.523 223.31)" fill="#ffb954"/>
        <g id="Grupo_16309" data-name="Grupo 16309" transform="translate(0 31.323)">
          <path id="Trazado_24860" data-name="Trazado 24860" d="M693.995-206.483a21.558,21.558,0,0,0-21.558,21.558,21.558,21.558,0,0,0,21.558,21.558,21.558,21.558,0,0,0,21.558-21.558H693.995Z" transform="translate(-672.437 210.878)" fill="#a0e557"/>
          <path id="Trazado_24861" data-name="Trazado 24861" d="M695.937-184.925v-21.558a21.491,21.491,0,0,0-15.244,6.314Z" transform="translate(-674.379 210.878)" fill="#2e9de3"/>
          <path id="Trazado_24862" data-name="Trazado 24862" d="M700.624-212.23v25.953h25.954A25.954,25.954,0,0,0,700.624-212.23Z" transform="translate(-679.066 212.23)" fill="#ff5d5d"/>
        </g>
      </g>
      <rect id="Rectángulo_3922" data-name="Rectángulo 3922" width="12.741" height="13.023" transform="translate(73.794 68.465)" fill="#a0e557"/>
      <rect id="Rectángulo_3923" data-name="Rectángulo 3923" width="12.741" height="21.81" transform="translate(86.536 59.679)" fill="#2e9de3"/>
      <rect id="Rectángulo_3924" data-name="Rectángulo 3924" width="12.741" height="28.864" transform="translate(99.277 52.625)" fill="#ff5d5d"/>
      <g id="Grupo_16311" data-name="Grupo 16311" transform="translate(0 0)">
        <path id="Trazado_24863" data-name="Trazado 24863" d="M668.966-187.093a24.24,24.24,0,0,0,24.213,24.213,24.246,24.246,0,0,0,24.066-21.558h1.887a2.655,2.655,0,0,0,2.655-2.655A28.641,28.641,0,0,0,693.179-215.7a2.655,2.655,0,0,0-2.654,2.655v1.887A24.247,24.247,0,0,0,668.966-187.093Zm21.558-6.408-8.7-8.7a18.816,18.816,0,0,1,8.7-3.608Zm2.654,25.312a18.924,18.924,0,0,1-18.9-18.9,18.8,18.8,0,0,1,3.8-11.351L691.3-185.216h0a2.644,2.644,0,0,0,1.875.777h18.714A18.93,18.93,0,0,1,693.179-168.19Zm2.655-42.052a23.341,23.341,0,0,1,20.494,20.494H695.833Z" transform="translate(-657.241 247.023)" fill="#00223d"/>
        <path id="Trazado_24864" data-name="Trazado 24864" d="M780.011-242.322H732.738V-254a2.655,2.655,0,0,0-2.655-2.654H713.095A2.654,2.654,0,0,0,710.441-254v11.68H694.867a2.655,2.655,0,0,0-2.655,2.655,2.655,2.655,0,0,0,2.655,2.655h85.144a4.228,4.228,0,0,1,4.223,4.223v69.063a4.229,4.229,0,0,1-4.223,4.224H663.168a4.229,4.229,0,0,1-4.223-4.224v-69.063a4.228,4.228,0,0,1,4.223-4.223h10.421a2.655,2.655,0,0,0,2.655-2.655,2.656,2.656,0,0,0-2.655-2.655H663.168a9.543,9.543,0,0,0-9.533,9.533v69.063a9.543,9.543,0,0,0,9.533,9.533h28.613L676.752-124.6a2.653,2.653,0,0,0,.1,2.59,2.654,2.654,0,0,0,2.262,1.266h16.989a2.655,2.655,0,0,0,2.366-1.452l11.968-23.561V-123.4a2.654,2.654,0,0,0,2.654,2.655h16.989a2.655,2.655,0,0,0,2.655-2.655v-22.359L744.706-122.2a2.655,2.655,0,0,0,2.366,1.452h16.989a2.655,2.655,0,0,0,2.262-1.266,2.656,2.656,0,0,0,.1-2.59l-15.03-29.59h28.613a9.543,9.543,0,0,0,9.533-9.533v-69.063A9.543,9.543,0,0,0,780.011-242.322Zm-64.261,0v-9.025h11.679v9.025ZM694.478-126.056H683.444l14.292-28.138h11.033Zm32.951,0H715.75v-28.138h11.679Zm32.306,0H748.7L734.41-154.193h11.034Z" transform="translate(-653.635 256.655)" fill="#00223d"/>
        <path id="Trazado_24865" data-name="Trazado 24865" d="M692.792-232.6a2.682,2.682,0,0,0,1.879-.778,2.677,2.677,0,0,0,.778-1.877,2.677,2.677,0,0,0-.778-1.877,2.679,2.679,0,0,0-1.879-.778,2.663,2.663,0,0,0-1.875.778,2.666,2.666,0,0,0-.78,1.877,2.666,2.666,0,0,0,.78,1.877A2.666,2.666,0,0,0,692.792-232.6Z" transform="translate(-662.22 252.247)" fill="#00223d"/>
        <path id="Trazado_24866" data-name="Trazado 24866" d="M741.714-194.057h16.954a2.655,2.655,0,0,0,2.655-2.655,2.655,2.655,0,0,0-2.655-2.655H741.714a2.655,2.655,0,0,0-2.655,2.655A2.655,2.655,0,0,0,741.714-194.057Z" transform="translate(-673.725 243.182)" fill="#00223d"/>
        <path id="Trazado_24867" data-name="Trazado 24867" d="M741.714-210.716h30.492a2.655,2.655,0,0,0,2.655-2.654,2.655,2.655,0,0,0-2.655-2.655H741.714a2.655,2.655,0,0,0-2.655,2.655A2.654,2.654,0,0,0,741.714-210.716Z" transform="translate(-673.725 247.099)" fill="#00223d"/>
        <path id="Trazado_24868" data-name="Trazado 24868" d="M797.342-211.492a2.672,2.672,0,0,0,.778-1.877,2.674,2.674,0,0,0-.778-1.877,2.662,2.662,0,0,0-1.876-.778,2.663,2.663,0,0,0-1.877.778,2.67,2.67,0,0,0-.778,1.877,2.673,2.673,0,0,0,.778,1.877,2.676,2.676,0,0,0,1.877.778A2.675,2.675,0,0,0,797.342-211.492Z" transform="translate(-686.367 247.099)" fill="#00223d"/>
        <path id="Trazado_24869" data-name="Trazado 24869" d="M741.714-158.937h54.648a2.655,2.655,0,0,0,2.655-2.655v-34.687a2.655,2.655,0,0,0-2.655-2.655,2.654,2.654,0,0,0-2.654,2.655v32.033H788.4v-26.209a2.655,2.655,0,0,0-2.655-2.655H773a2.656,2.656,0,0,0-2.655,2.655v4.4H760.261a2.655,2.655,0,0,0-2.655,2.655v6.132H747.519a2.655,2.655,0,0,0-2.655,2.655v10.369h-3.151a2.655,2.655,0,0,0-2.655,2.655A2.654,2.654,0,0,0,741.714-158.937ZM775.657-187.8h7.433v23.554h-7.433V-187.8Zm-12.742,7.054h7.432v16.5h-7.432v-16.5Zm-12.741,8.786h7.433v7.715h-7.433Z" transform="translate(-673.725 243.08)" fill="#00223d"/>
      </g>
    </g>
  </g>
</svg>
