<svg xmlns="http://www.w3.org/2000/svg" width="127" height="129" viewBox="0 0 127 129">
  <g id="Grupo_16580" data-name="Grupo 16580" transform="translate(-284 -4582)">
    <circle id="Elipse_905" data-name="Elipse 905" cx="63.5" cy="63.5" r="63.5" transform="translate(284 4584)" fill="#fbfeff"/>
    <g id="Grupo_16455" data-name="Grupo 16455" transform="translate(-53.004 3874.515)">
      <path id="Trazado_25078" data-name="Trazado 25078" d="M412.844,744.628H431.97V726.147A1.143,1.143,0,0,0,430.827,725h-17.87v9.166a.915.915,0,0,1-.914.914H372.557a.915.915,0,0,1-.914-.914V725H353.774a1.143,1.143,0,0,0-1.143,1.143v98.587a1.142,1.142,0,0,0,1.143,1.142h77.053a1.142,1.142,0,0,0,1.143-1.142v-14.26H412.844a.686.686,0,0,1-.685-.686V745.313a.685.685,0,0,1,.685-.685Z" transform="translate(-0.369 -3.106)" fill="#ff5a5a"/>
      <path id="Trazado_25079" data-name="Trazado 25079" d="M364.228,824.734v-5.261H359.72a.685.685,0,0,1-.685-.685V732.093a.686.686,0,0,1,.685-.686h4.508v-5.26A1.143,1.143,0,0,1,365.371,725h-11.6a1.143,1.143,0,0,0-1.143,1.143v98.587a1.142,1.142,0,0,0,1.143,1.142h11.6A1.142,1.142,0,0,1,364.228,824.734Z" transform="translate(-0.369 -3.106)" fill="#bb5d4c"/>
      <path id="Trazado_25080" data-name="Trazado 25080" d="M411.081,720.579a13.231,13.231,0,0,0-26.086,0Z" transform="translate(-6.107 -0.369)" fill="#e8b800"/>
      <path id="Trazado_25081" data-name="Trazado 25081" d="M392.589,720.579a13.248,13.248,0,0,1,9.248-10.454,13.234,13.234,0,0,0-16.842,10.454Z" transform="translate(-6.107 -0.369)" fill="#d7aa02"/>
      <path id="Trazado_25082" data-name="Trazado 25082" d="M414.224,746.007h12.722V733.473a.686.686,0,0,0-.685-.686H414.337v2.763a.915.915,0,0,1-.914.914H373.937a.915.915,0,0,1-.914-.914v-2.763H361.1a.686.686,0,0,0-.685.686v86.694a.685.685,0,0,0,.685.685h65.16a.685.685,0,0,0,.685-.685v-8.314H414.224a.686.686,0,0,1-.685-.686V746.693a.685.685,0,0,1,.685-.685Z" transform="translate(-1.749 -4.486)" fill="#fff3de"/>
      <g id="Grupo_16438" data-name="Grupo 16438" transform="translate(358.666 728.301)">
        <path id="Trazado_25083" data-name="Trazado 25083" d="M368.121,820.167V733.473a.686.686,0,0,1,.686-.686H361.1a.686.686,0,0,0-.685.686v86.694a.685.685,0,0,0,.685.685h7.707A.686.686,0,0,1,368.121,820.167Z" transform="translate(-360.415 -732.787)" fill="#ffe5c2"/>
      </g>
      <g id="Grupo_16439" data-name="Grupo 16439" transform="translate(371.046 720.21)">
        <path id="Trazado_25084" data-name="Trazado 25084" d="M416.091,722.952H376.606a1.142,1.142,0,0,0-1.143,1.142v9.712a1.143,1.143,0,0,0,1.143,1.143h39.485a1.143,1.143,0,0,0,1.143-1.143v-9.712A1.142,1.142,0,0,0,416.091,722.952Z" transform="translate(-375.463 -722.952)" fill="#fac600"/>
      </g>
      <g id="Grupo_16440" data-name="Grupo 16440" transform="translate(371.046 720.21)">
        <path id="Trazado_25085" data-name="Trazado 25085" d="M383.177,733.806v-9.711a1.143,1.143,0,0,1,1.143-1.143h-7.714a1.143,1.143,0,0,0-1.143,1.143v9.711a1.143,1.143,0,0,0,1.143,1.143h7.714A1.143,1.143,0,0,1,383.177,733.806Z" transform="translate(-375.463 -722.952)" fill="#e8b800"/>
      </g>
      <g id="Grupo_16447" data-name="Grupo 16447" transform="translate(368.557 760.694)">
        <g id="Grupo_16442" data-name="Grupo 16442">
          <g id="Grupo_16441" data-name="Grupo 16441">
            <path id="Trazado_25086" data-name="Trazado 25086" d="M380.932,781.338h-7.808a.686.686,0,0,1-.686-.685v-7.808a.686.686,0,0,1,.686-.685h7.807a.686.686,0,0,1,.686.685v7.808A.685.685,0,0,1,380.932,781.338Z" transform="translate(-372.438 -772.16)" fill="#fff"/>
          </g>
        </g>
        <g id="Grupo_16444" data-name="Grupo 16444" transform="translate(0 17.823)">
          <g id="Grupo_16443" data-name="Grupo 16443">
            <path id="Trazado_25087" data-name="Trazado 25087" d="M380.932,803h-7.808a.686.686,0,0,1-.686-.685v-7.808a.686.686,0,0,1,.686-.685h7.807a.686.686,0,0,1,.686.685v7.808a.685.685,0,0,1-.685.685Z" transform="translate(-372.438 -793.824)" fill="#fff"/>
          </g>
        </g>
        <g id="Grupo_16446" data-name="Grupo 16446" transform="translate(0 35.647)">
          <g id="Grupo_16445" data-name="Grupo 16445">
            <path id="Trazado_25088" data-name="Trazado 25088" d="M380.932,824.666h-7.808a.686.686,0,0,1-.686-.685v-7.808a.686.686,0,0,1,.686-.685h7.807a.686.686,0,0,1,.686.685v7.808a.685.685,0,0,1-.685.685Z" transform="translate(-372.438 -815.488)" fill="#fff"/>
          </g>
        </g>
      </g>
      <g id="Grupo_16451" data-name="Grupo 16451" transform="translate(411.79 741.522)">
        <g id="Grupo_16448" data-name="Grupo 16448">
          <path id="Trazado_25089" data-name="Trazado 25089" d="M424.986,749.541v64.475a.686.686,0,0,0,.685.686h40.6a.686.686,0,0,0,.485-.2l8.533-8.533a.685.685,0,0,0,.2-.485V749.541a.685.685,0,0,0-.685-.685h-49.13a.685.685,0,0,0-.685.685Z" transform="translate(-424.986 -748.856)" fill="#dff6fd"/>
        </g>
        <g id="Grupo_16449" data-name="Grupo 16449">
          <path id="Trazado_25090" data-name="Trazado 25090" d="M432.585,814.016V749.541a.685.685,0,0,1,.685-.685h-7.6a.685.685,0,0,0-.685.685v64.475a.686.686,0,0,0,.685.686h7.6A.686.686,0,0,1,432.585,814.016Z" transform="translate(-424.986 -748.856)" fill="#c8effe"/>
        </g>
        <g id="Grupo_16450" data-name="Grupo 16450" transform="translate(41.566 56.911)">
          <path id="Trazado_25091" data-name="Trazado 25091" d="M484.38,818.03h-8.871V826.9a.691.691,0,0,0,.2-.137l8.533-8.534a.69.69,0,0,0,.137-.2Z" transform="translate(-475.509 -818.03)" fill="#01d0fb"/>
        </g>
      </g>
      <g id="Grupo_16452" data-name="Grupo 16452" transform="translate(423.252 747.779)">
        <path id="Trazado_25092" data-name="Trazado 25092" d="M452.126,756.783l-13.1,20.875a.685.685,0,0,0,.581,1.05h26.2a.686.686,0,0,0,.581-1.05l-13.1-20.875A.685.685,0,0,0,452.126,756.783Z" transform="translate(-438.918 -756.461)" fill="#fac600"/>
      </g>
      <g id="Grupo_16453" data-name="Grupo 16453" transform="translate(423.252 747.779)">
        <path id="Trazado_25093" data-name="Trazado 25093" d="M446.659,777.658l9.865-15.718-3.237-5.157a.685.685,0,0,0-1.162,0l-13.1,20.875a.685.685,0,0,0,.581,1.05h7.634A.685.685,0,0,1,446.659,777.658Z" transform="translate(-438.918 -756.461)" fill="#e8b800"/>
      </g>
      <g id="Grupo_16454" data-name="Grupo 16454" transform="translate(350.548 707.485)">
        <path id="Trazado_25094" data-name="Trazado 25094" d="M380.562,770.077h-7.807a2.4,2.4,0,0,0-2.4,2.4v7.808a2.4,2.4,0,0,0,2.4,2.4h7.807a2.4,2.4,0,0,0,2.4-2.4v-7.808A2.4,2.4,0,0,0,380.562,770.077Zm-1.028,9.178h-5.751V773.5h5.751Z" transform="translate(-354.059 -718.581)" fill="#00223d"/>
        <path id="Trazado_25095" data-name="Trazado 25095" d="M380.562,791.741h-7.807a2.4,2.4,0,0,0-2.4,2.4v7.808a2.4,2.4,0,0,0,2.4,2.4h7.807a2.4,2.4,0,0,0,2.4-2.4V794.14A2.4,2.4,0,0,0,380.562,791.741Zm-1.028,9.178h-5.751v-5.751h5.751Z" transform="translate(-354.059 -722.422)" fill="#00223d"/>
        <path id="Trazado_25096" data-name="Trazado 25096" d="M380.562,813.405h-7.807a2.4,2.4,0,0,0-2.4,2.4v7.808a2.4,2.4,0,0,0,2.4,2.4h7.807a2.4,2.4,0,0,0,2.4-2.4V815.8a2.4,2.4,0,0,0-2.4-2.4Zm-1.028,9.178h-5.751v-5.751h5.751Z" transform="translate(-354.059 -726.263)" fill="#00223d"/>
        <path id="Trazado_25097" data-name="Trazado 25097" d="M385.173,746.759a1.714,1.714,0,0,0-2.378.464l-5.27,7.821-2.4-3.2a1.714,1.714,0,1,0-2.742,2.057l3.842,5.122a1.713,1.713,0,0,0,1.371.686h.044a1.714,1.714,0,0,0,1.378-.755l6.617-9.819a1.715,1.715,0,0,0-.464-2.379Z" transform="translate(-354.358 -714.396)" fill="#00223d"/>
        <path id="Trazado_25098" data-name="Trazado 25098" d="M410.733,729.874a1.714,1.714,0,0,0-1.714-1.714H387.247a1.714,1.714,0,0,0,0,3.428h21.772A1.714,1.714,0,0,0,410.733,729.874Z" transform="translate(-356.75 -711.15)" fill="#00223d"/>
        <path id="Trazado_25099" data-name="Trazado 25099" d="M462.291,754.674A1.714,1.714,0,0,0,464,752.96V742.207a2.4,2.4,0,0,0-2.4-2.4H433.314V723.041a2.86,2.86,0,0,0-2.856-2.856h-16.18a2.859,2.859,0,0,0-2.6-1.689h-5.327a14.942,14.942,0,0,0-28.831,0h-5.327a2.857,2.857,0,0,0-2.6,1.689H353.4a2.859,2.859,0,0,0-2.856,2.856v98.587a2.86,2.86,0,0,0,2.856,2.857h77.054a2.86,2.86,0,0,0,2.856-2.857V809.082h19.758a2.382,2.382,0,0,0,1.7-.7l8.534-8.533a2.386,2.386,0,0,0,.7-1.7V760.958a1.714,1.714,0,1,0-3.427,0V796.72h-7.221a1.713,1.713,0,0,0-1.714,1.714v7.221H413.5V743.236h47.074v9.725a1.714,1.714,0,0,0,1.714,1.714Zm-7.221,45.473h3.084l-3.084,3.084Zm-25.183-60.339H426.91v-10.82a2.4,2.4,0,0,0-2.4-2.4H414.53v-2.976h15.356Zm-37.954-28.895a11.535,11.535,0,0,1,10.821,7.582H381.11A11.534,11.534,0,0,1,391.932,710.913Zm20.543,28.895a2.4,2.4,0,0,0-2.4,2.4v1.4H385.454a1.714,1.714,0,0,0,0,3.428h24.622v2.336H385.454a1.714,1.714,0,0,0,0,3.427h24.622v8.633H385.454a1.714,1.714,0,0,0,0,3.427h24.622V767.2H385.454a1.714,1.714,0,0,0,0,3.427h24.622v8.633H385.454a1.714,1.714,0,0,0,0,3.427h24.622v2.336H385.454a1.714,1.714,0,0,0,0,3.427h24.622v8.633H385.454a1.714,1.714,0,0,0,0,3.427h24.622v2.336H385.454a1.714,1.714,0,0,0,0,3.428h24.622v.409a2.4,2.4,0,0,0,2.4,2.4h11.008v5.571H377.8a1.714,1.714,0,0,0,0,3.428h46.713a2.4,2.4,0,0,0,2.4-2.4v-6.6h2.976v11.975H353.975V723.612h15.356v2.976h-9.98a2.4,2.4,0,0,0-2.4,2.4v86.694a2.4,2.4,0,0,0,2.4,2.4H369.8a1.714,1.714,0,0,0,0-3.427H360.38V730.016h8.952v1.048a2.86,2.86,0,0,0,2.856,2.856h22.749a1.714,1.714,0,0,0,0-3.427H372.76v-8.569H411.1v8.569h-8.168a1.714,1.714,0,0,0,0,3.427h8.739a2.859,2.859,0,0,0,2.857-2.856v-1.048h8.953v9.792Z" transform="translate(-350.548 -707.485)" fill="#00223d"/>
        <path id="Trazado_25100" data-name="Trazado 25100" d="M465.975,791.748H438.782a1.714,1.714,0,0,0,0,3.428h27.193a1.714,1.714,0,0,0,0-3.428Z" transform="translate(-365.886 -722.423)" fill="#00223d"/>
        <path id="Trazado_25101" data-name="Trazado 25101" d="M465.975,799.3H438.782a1.714,1.714,0,0,0,0,3.428h27.193a1.714,1.714,0,0,0,0-3.428Z" transform="translate(-365.886 -723.763)" fill="#00223d"/>
        <path id="Trazado_25102" data-name="Trazado 25102" d="M467.689,808.572a1.714,1.714,0,0,0-1.714-1.714H438.782a1.714,1.714,0,1,0,0,3.427h27.193A1.713,1.713,0,0,0,467.689,808.572Z" transform="translate(-365.886 -725.102)" fill="#00223d"/>
        <path id="Trazado_25103" data-name="Trazado 25103" d="M438.782,814.413a1.714,1.714,0,1,0,0,3.427h20.978a1.714,1.714,0,0,0,0-3.427Z" transform="translate(-365.886 -726.441)" fill="#00223d"/>
        <path id="Trazado_25104" data-name="Trazado 25104" d="M467.472,776.378,454.37,755.5a2.4,2.4,0,0,0-4.065,0l-13.1,20.876a2.4,2.4,0,0,0,2.032,3.675h26.2a2.4,2.4,0,0,0,2.032-3.675Zm-26.376.247,11.242-17.912,11.242,17.912Z" transform="translate(-365.845 -715.798)" fill="#00223d"/>
        <path id="Trazado_25105" data-name="Trazado 25105" d="M453.6,766.468v4.756a1.714,1.714,0,1,0,3.427,0v-4.756a1.714,1.714,0,0,0-3.427,0Z" transform="translate(-368.816 -717.638)" fill="#00223d"/>
        <circle id="Elipse_904" data-name="Elipse 904" cx="1.714" cy="1.714" r="1.714" transform="translate(84.778 56.057)" fill="#00223d"/>
      </g>
    </g>
  </g>
</svg>
