<svg xmlns="http://www.w3.org/2000/svg" width="150" height="150" viewBox="0 0 150 150">
  <g id="Grupo_16573" data-name="Grupo 16573" transform="translate(-7300 4807)">
    <rect id="Rectángulo_3963" data-name="Rectángulo 3963" width="150" height="150" transform="translate(7300 -4807)" fill="none"/>
    <g id="Grupo_16568" data-name="Grupo 16568" transform="translate(7034 -6679.199)">
      <g id="Grupo_16416" data-name="Grupo 16416" transform="translate(245.691 1723.597)">
        <g id="Grupo_16386" data-name="Grupo 16386" transform="translate(118.228 231.822)">
          <path id="Trazado_24986" data-name="Trazado 24986" d="M148.557,237.459h-19.17v5.916a1.13,1.13,0,0,1-1.126,1.127h-2.75v33.05h22.122a.916.916,0,0,0,.924-.9Z" transform="translate(-125.511 -237.459)" fill="#ffc269" fill-rule="evenodd"/>
        </g>
        <g id="Grupo_16387" data-name="Grupo 16387" transform="translate(110.086 227.364)">
          <path id="Trazado_24987" data-name="Trazado 24987" d="M150.133,232.562H116.566V241h33.567a.832.832,0,0,0,.834-.834V233.4a.835.835,0,0,0-.834-.834Z" transform="translate(-116.566 -232.562)" fill="#c8c5c9" fill-rule="evenodd"/>
        </g>
        <g id="Grupo_16388" data-name="Grupo 16388" transform="translate(101.622 216.297)">
          <path id="Trazado_24988" data-name="Trazado 24988" d="M117.721,220.4H107.269v22.219h10.452V220.4Z" transform="translate(-107.269 -220.405)" fill="#9fd4fe" fill-rule="evenodd"/>
        </g>
        <g id="Grupo_16389" data-name="Grupo 16389" transform="translate(95.142 176.091)">
          <path id="Trazado_24989" data-name="Trazado 24989" d="M111.527,176.238H101.1a.956.956,0,0,0-.953.952v8.452h11.377a1.03,1.03,0,0,0,1.031-1.025v-7.354A1.031,1.031,0,0,0,111.527,176.238Z" transform="translate(-100.15 -176.238)" fill="#ff8086" fill-rule="evenodd"/>
        </g>
        <g id="Grupo_16390" data-name="Grupo 16390" transform="translate(77.28 242.843)">
          <path id="Trazado_24990" data-name="Trazado 24990" d="M116.253,249.566H80.528v29.071h35.725Z" transform="translate(-80.528 -249.566)" fill="#ffe07d" fill-rule="evenodd"/>
        </g>
        <g id="Grupo_16391" data-name="Grupo 16391" transform="translate(127.216 249.38)">
          <path id="Trazado_24991" data-name="Trazado 24991" d="M142.884,257.683a.94.94,0,0,0-.936-.936h-5.629a.94.94,0,0,0-.935.936v10.549a.94.94,0,0,0,.935.935h5.629a.941.941,0,0,0,.936-.935Z" transform="translate(-135.384 -256.747)" fill="#9fd4fe" fill-rule="evenodd"/>
        </g>
        <g id="Grupo_16392" data-name="Grupo 16392" transform="translate(127.216 249.38)">
          <path id="Trazado_24992" data-name="Trazado 24992" d="M136.319,261.289h5.629a.942.942,0,0,1,.936.941v-4.547a.94.94,0,0,0-.936-.936h-5.629a.94.94,0,0,0-.935.936v4.547A.942.942,0,0,1,136.319,261.289Z" transform="translate(-135.384 -256.747)" fill="#72bffc" fill-rule="evenodd"/>
        </g>
        <g id="Grupo_16393" data-name="Grupo 16393" transform="translate(49.01 231.822)">
          <path id="Trazado_24993" data-name="Trazado 24993" d="M68.643,237.459H49.473v39.2a.916.916,0,0,0,.924.9H72.519V244.5h-2.75a1.129,1.129,0,0,1-1.126-1.127Z" transform="translate(-49.473 -237.459)" fill="#ffc269" fill-rule="evenodd"/>
        </g>
        <g id="Grupo_16394" data-name="Grupo 16394" transform="translate(70.067 242.843)">
          <path id="Trazado_24994" data-name="Trazado 24994" d="M72.605,249.566h7.212v29.071H72.605Z" transform="translate(-72.605 -249.566)" fill="#eceaec" fill-rule="evenodd"/>
        </g>
        <g id="Grupo_16395" data-name="Grupo 16395" transform="translate(87.372 251.555)">
          <path id="Trazado_24995" data-name="Trazado 24995" d="M107.155,266.9a7.77,7.77,0,0,0-15.54,0V279.5h15.541V266.9Z" transform="translate(-91.615 -259.137)" fill="#9fd4fe" fill-rule="evenodd"/>
        </g>
        <g id="Grupo_16396" data-name="Grupo 16396" transform="translate(45.798 227.364)">
          <path id="Trazado_24996" data-name="Trazado 24996" d="M80.346,232.562H46.773a.834.834,0,0,0-.828.834v6.768a.831.831,0,0,0,.828.834H80.346Z" transform="translate(-45.945 -232.562)" fill="#c8c5c9" fill-rule="evenodd"/>
        </g>
        <g id="Grupo_16397" data-name="Grupo 16397" transform="translate(113.005 242.843)">
          <path id="Trazado_24997" data-name="Trazado 24997" d="M119.773,249.566h7.212v29.071h-7.212Z" transform="translate(-119.773 -249.566)" fill="#eceaec" fill-rule="evenodd"/>
        </g>
        <g id="Grupo_16398" data-name="Grupo 16398" transform="translate(49.01 235.8)">
          <path id="Trazado_24998" data-name="Trazado 24998" d="M49.473,241.829h17.18v5.494H49.473Z" transform="translate(-49.473 -241.829)" fill="#ffa95f" fill-rule="evenodd"/>
        </g>
        <g id="Grupo_16399" data-name="Grupo 16399" transform="translate(124.094 235.8)">
          <path id="Trazado_24999" data-name="Trazado 24999" d="M131.955,241.829h17.18v5.494h-17.18Z" transform="translate(-131.955 -241.829)" fill="#ffa95f" fill-rule="evenodd"/>
        </g>
        <g id="Grupo_16400" data-name="Grupo 16400" transform="translate(78.21 216.297)">
          <path id="Trazado_25000" data-name="Trazado 25000" d="M92,220.4H81.55v22.219H92V220.4Z" transform="translate(-81.55 -220.405)" fill="#9fd4fe" fill-rule="evenodd"/>
        </g>
        <g id="Grupo_16401" data-name="Grupo 16401" transform="translate(86.673 216.297)">
          <path id="Trazado_25001" data-name="Trazado 25001" d="M99.316,220.4H90.847v22.219h8.469V220.4Z" transform="translate(-90.847 -220.405)" fill="#9fd4fe" fill-rule="evenodd"/>
        </g>
        <g id="Grupo_16402" data-name="Grupo 16402" transform="translate(94.173 216.297)">
          <path id="Trazado_25002" data-name="Trazado 25002" d="M108.524,220.4h-8.47l-.969,10.086.969,12.132h8.47V220.4Z" transform="translate(-99.086 -220.405)" fill="#9fd4fe" fill-rule="evenodd"/>
        </g>
        <g id="Grupo_16403" data-name="Grupo 16403" transform="translate(73.854 212.15)">
          <path id="Trazado_25003" data-name="Trazado 25003" d="M105.058,215.849H77.824a1.063,1.063,0,0,0-1.059,1.065v4.733a1.063,1.063,0,0,0,1.059,1.065h40.459a1.063,1.063,0,0,0,1.059-1.065v-4.733a1.063,1.063,0,0,0-1.059-1.065H105.058Z" transform="translate(-76.765 -215.849)" fill="#ff8086" fill-rule="evenodd"/>
        </g>
        <g id="Grupo_16404" data-name="Grupo 16404" transform="translate(78.21 195.216)">
          <path id="Trazado_25004" data-name="Trazado 25004" d="M98.482,197.247A16.933,16.933,0,0,0,81.55,214.181h9.928c4.508-3.5,6.1-10.734,7-16.934Z" transform="translate(-81.55 -197.247)" fill="#ffc269" fill-rule="evenodd"/>
        </g>
        <g id="Grupo_16405" data-name="Grupo 16405" transform="translate(95.142 195.216)">
          <path id="Trazado_25005" data-name="Trazado 25005" d="M117.083,214.181a16.934,16.934,0,0,0-16.933-16.934c.474,3.342-.884,15.344,7,16.934Z" transform="translate(-100.15 -197.247)" fill="#ffc269" fill-rule="evenodd"/>
        </g>
        <g id="Grupo_16406" data-name="Grupo 16406" transform="translate(88.138 195.216)">
          <path id="Trazado_25006" data-name="Trazado 25006" d="M106.465,214.181c0-9.349-3.139-16.934-7-16.934s-7,7.585-7,16.934Z" transform="translate(-92.456 -197.247)" fill="#ffe07d" fill-rule="evenodd"/>
        </g>
        <g id="Grupo_16407" data-name="Grupo 16407" transform="translate(70.067 242.843)">
          <path id="Trazado_25007" data-name="Trazado 25007" d="M72.605,249.566h7.212v4.863H72.605Z" transform="translate(-72.605 -249.566)" fill="#dad8db" fill-rule="evenodd"/>
        </g>
        <g id="Grupo_16408" data-name="Grupo 16408" transform="translate(113.005 242.843)">
          <path id="Trazado_25008" data-name="Trazado 25008" d="M119.773,249.566h7.212v4.863h-7.212Z" transform="translate(-119.773 -249.566)" fill="#dad8db" fill-rule="evenodd"/>
        </g>
        <g id="Grupo_16409" data-name="Grupo 16409" transform="translate(87.372 251.555)">
          <path id="Trazado_25009" data-name="Trazado 25009" d="M91.615,271.449a7.77,7.77,0,1,1,15.54,0V266.9a7.77,7.77,0,0,0-15.54,0Z" transform="translate(-91.615 -259.137)" fill="#72bffc" fill-rule="evenodd"/>
        </g>
        <g id="Grupo_16410" data-name="Grupo 16410" transform="translate(55.569 249.38)">
          <path id="Trazado_25010" data-name="Trazado 25010" d="M63.243,256.747H57.614a.941.941,0,0,0-.936.936v10.549a.94.94,0,0,0,.936.935h5.629a.94.94,0,0,0,.935-.935V257.683A.94.94,0,0,0,63.243,256.747Z" transform="translate(-56.678 -256.747)" fill="#9fd4fe" fill-rule="evenodd"/>
        </g>
        <g id="Grupo_16411" data-name="Grupo 16411" transform="translate(55.569 249.38)">
          <path id="Trazado_25011" data-name="Trazado 25011" d="M56.678,262.23a.941.941,0,0,1,.936-.941h5.629a.941.941,0,0,1,.935.941v-4.547a.94.94,0,0,0-.935-.936H57.614a.941.941,0,0,0-.936.936Z" transform="translate(-56.678 -256.747)" fill="#72bffc" fill-rule="evenodd"/>
        </g>
        <g id="Grupo_16412" data-name="Grupo 16412" transform="translate(66.19 235.8)">
          <path id="Trazado_25012" data-name="Trazado 25012" d="M80.366,241.829H68.346v5.916a1.13,1.13,0,0,0,1.127,1.127h55.649a1.13,1.13,0,0,0,1.127-1.127v-5.916H80.366Z" transform="translate(-68.346 -241.829)" fill="#ff8086" fill-rule="evenodd"/>
        </g>
        <g id="Grupo_16413" data-name="Grupo 16413" transform="translate(66.19 235.8)">
          <path id="Trazado_25013" data-name="Trazado 25013" d="M68.346,245.351h57.9v-3.522h-57.9Z" transform="translate(-68.346 -241.829)" fill="#f76672" fill-rule="evenodd"/>
        </g>
        <g id="Grupo_16414" data-name="Grupo 16414" transform="translate(78.21 219.013)">
          <path id="Trazado_25014" data-name="Trazado 25014" d="M81.55,223.388h33.865v3.826H81.55Z" transform="translate(-81.55 -223.388)" fill="#72bffc" fill-rule="evenodd"/>
        </g>
        <g id="Grupo_16415" data-name="Grupo 16415" transform="translate(44.309 174.602)">
          <path id="Trazado_25015" data-name="Trazado 25015" d="M136.172,270.509H141.8a2.428,2.428,0,0,0,2.425-2.424V257.536a2.428,2.428,0,0,0-2.425-2.425h-5.629a2.428,2.428,0,0,0-2.424,2.425v10.549A2.427,2.427,0,0,0,136.172,270.509Zm.554-12.419h4.522v9.441h-4.522Z" transform="translate(-52.33 -181.823)" fill="#00223d"/>
          <path id="Trazado_25016" data-name="Trazado 25016" d="M143.652,225.875H113.564V220.5h1.807a2.555,2.555,0,0,0,2.549-2.554v-4.733a2.554,2.554,0,0,0-2.549-2.554H113.5a18.451,18.451,0,0,0-16.873-16.873v-6.8h9.888a2.52,2.52,0,0,0,2.521-2.514v-7.354a2.52,2.52,0,0,0-2.521-2.515H96.095a2.444,2.444,0,0,0-2.441,2.441v16.744A18.451,18.451,0,0,0,76.781,210.66H74.914a2.555,2.555,0,0,0-2.549,2.554v4.733a2.554,2.554,0,0,0,2.549,2.554h1.807v5.373H65.413a1.489,1.489,0,0,0,0,2.979H76.721v5.457H47.288v-5.457H58.533a1.489,1.489,0,1,0,0-2.979H46.627a2.323,2.323,0,0,0-2.318,2.323v6.768a2.323,2.323,0,0,0,2.318,2.323h.894v33.729a2.4,2.4,0,0,0,2.413,2.385h90.417a2.4,2.4,0,0,0,2.413-2.385V237.289h.888a2.326,2.326,0,0,0,2.323-2.323V228.2a2.326,2.326,0,0,0-2.323-2.323ZM96.631,177.581h9.43v6.426h-9.43Zm13.954,49.783v6.947H105.1V220.5h5.485ZM96.631,234.31V220.5h5.491V234.31Zm-8.469,0V220.5h5.491V234.31Zm22.352-23.65h-6.907c-.178-4.859-1.224-9.719-3.069-12.977A15.479,15.479,0,0,1,110.514,210.66ZM95.142,196.705c2.181,0,5.178,5.27,5.489,13.955H89.654c.311-8.685,3.308-13.955,5.488-13.955Zm-5.4.977c-1.844,3.259-2.89,8.119-3.069,12.978H79.77A15.481,15.481,0,0,1,89.745,197.682Zm-14.4,15.957h39.6v3.884h-39.6ZM79.7,227.364V220.5h5.485V234.31H79.7Zm42.906,9.925v4.065H98.878a1.489,1.489,0,1,0,0,2.979h12.638v26.092H104.4v-11.1a9.259,9.259,0,0,0-18.519,0v11.1H78.769V244.332H91.886a1.489,1.489,0,0,0,0-2.979H67.679v-4.065Zm-72.106,0H64.7v4.427a2.619,2.619,0,0,0,2.616,2.616h1.261v26.092H50.5Zm21.057,33.135V244.332H75.79v26.092Zm17.305,0v-11.1a6.281,6.281,0,0,1,12.561,0v11.1Zm25.633,0V244.332h4.234v26.092Zm25.291,0H121.707V244.332h1.261a2.619,2.619,0,0,0,2.616-2.616v-4.427h14.2ZM143,234.31H113.564v-5.457H143Z" transform="translate(-44.309 -174.602)" fill="#00223d"/>
          <path id="Trazado_25017" data-name="Trazado 25017" d="M63.1,255.111H57.467a2.428,2.428,0,0,0-2.425,2.425v10.549a2.428,2.428,0,0,0,2.425,2.424H63.1a2.427,2.427,0,0,0,2.424-2.424V257.536a2.428,2.428,0,0,0-2.424-2.425Zm-.554,12.419H58.021V258.09h4.522Z" transform="translate(-45.272 -181.823)" fill="#00223d"/>
        </g>
      </g>
    </g>
  </g>
</svg>
