<svg xmlns="http://www.w3.org/2000/svg" width="150" height="150" viewBox="0 0 150 150">
  <g id="Grupo_16572" data-name="Grupo 16572" transform="translate(-7297 4994)">
    <rect id="Rectángulo_3962" data-name="Rectángulo 3962" width="150" height="150" transform="translate(7297 -4994)" fill="none"/>
    <g id="Grupo_16567" data-name="Grupo 16567" transform="translate(7031.568 -6705.1)">
      <g id="Grupo_16423" data-name="Grupo 16423" transform="translate(241.697 1702.375)">
        <g id="Grupo_16421" data-name="Grupo 16421" transform="translate(51.382 36.371)">
          <path id="Trazado_25018" data-name="Trazado 25018" d="M81.472,56.188a6.529,6.529,0,0,0-3.244-.857,9.88,9.88,0,0,0-19.76,0,6.587,6.587,0,0,0,0,13.174H68.776l6.789-6.587Z" transform="translate(-51.881 -38.865)" fill="#f4f4f4"/>
          <g id="Grupo_16417" data-name="Grupo 16417" transform="translate(32.934)">
            <path id="Trazado_25019" data-name="Trazado 25019" d="M106.314,36.87v6.768c-4.94,3.31-11.527,0-11.527,0V36.87S101.374,40.18,106.314,36.87Z" transform="translate(-94.787 -36.87)" fill="#00bcd4"/>
            <path id="Trazado_25020" data-name="Trazado 25020" d="M149.22,36.87v6.768c-4.939,3.31-11.527,0-11.527,0V36.87S144.28,40.18,149.22,36.87Z" transform="translate(-104.759 -36.87)" fill="#00bcd4"/>
          </g>
          <path id="Trazado_25021" data-name="Trazado 25021" d="M144.594,130.777h-1.646V86.317h4.94L119.07,58.323H82.843L54.026,86.316h4.94v44.461H57.32a1.651,1.651,0,0,0-1.646,1.646v4.94h90.568v-4.94A1.652,1.652,0,0,0,144.594,130.777Z" transform="translate(-52.38 -41.856)" fill="#cfd8dc"/>
          <rect id="Rectángulo_3934" data-name="Rectángulo 3934" width="36.227" height="36.227" transform="translate(54.34 52.694)" fill="#607d8b"/>
          <rect id="Rectángulo_3935" data-name="Rectángulo 3935" width="31.287" height="36.227" transform="translate(54.34 52.694)" fill="#cfd8dc"/>
          <rect id="Rectángulo_3936" data-name="Rectángulo 3936" width="36.227" height="8.233" transform="translate(54.34 44.461)" fill="#d84315"/>
          <rect id="Rectángulo_3937" data-name="Rectángulo 3937" width="31.287" height="8.233" transform="translate(54.34 44.461)" fill="#ff5722"/>
          <path id="Trazado_25022" data-name="Trazado 25022" d="M156.613,86.317H120.386L91.569,58.323H127.8Z" transform="translate(-61.106 -41.856)" fill="#f57c00"/>
          <path id="Trazado_25023" data-name="Trazado 25023" d="M150.026,86.317h-29.64L91.569,58.323h29.64Z" transform="translate(-61.106 -41.856)" fill="#ff9801"/>
          <path id="Trazado_25024" data-name="Trazado 25024" d="M111.66,86.317H54.026L82.843,58.323Z" transform="translate(-52.38 -41.856)" fill="#fec108"/>
          <rect id="Rectángulo_3938" data-name="Rectángulo 3938" width="47.754" height="8.233" transform="translate(6.587 44.461)" fill="#ff9801"/>
          <g id="Grupo_16418" data-name="Grupo 16418" transform="translate(14.82 59.281)">
            <rect id="Rectángulo_3939" data-name="Rectángulo 3939" width="6.587" height="23.054" fill="#f4f4f4"/>
            <rect id="Rectángulo_3940" data-name="Rectángulo 3940" width="6.587" height="23.054" transform="translate(24.7)" fill="#f4f4f4"/>
          </g>
          <g id="Grupo_16419" data-name="Grupo 16419" transform="translate(24.7 27.994)">
            <circle id="Elipse_901" data-name="Elipse 901" cx="4.94" cy="4.94" r="4.94" fill="#00bcd4"/>
            <path id="Trazado_25025" data-name="Trazado 25025" d="M134.551,118.392a3.294,3.294,0,0,1,3.294,3.294v9.879h-6.587v-9.879A3.294,3.294,0,0,1,134.551,118.392Z" transform="translate(-95.03 -83.812)" fill="#00bcd4"/>
            <path id="Trazado_25026" data-name="Trazado 25026" d="M156,118.392a3.294,3.294,0,0,1,3.294,3.294v9.879h-6.587v-9.879A3.292,3.292,0,0,1,156,118.392Z" transform="translate(-100.017 -83.812)" fill="#00bcd4"/>
          </g>
          <path id="Trazado_25027" data-name="Trazado 25027" d="M110.512,154.363v4.94H56.172v-4.94a1.651,1.651,0,0,1,1.646-1.646h51.047A1.652,1.652,0,0,1,110.512,154.363Z" transform="translate(-52.878 -63.796)" fill="#ff9801"/>
          <path id="Trazado_25028" data-name="Trazado 25028" d="M162.695,154.363v4.94H126.468v-4.94a1.652,1.652,0,0,0-1.646-1.646h36.226A1.651,1.651,0,0,1,162.695,154.363Z" transform="translate(-68.834 -63.796)" fill="#d84315"/>
          <path id="Trazado_25029" data-name="Trazado 25029" d="M157.756,154.363v4.94H126.468v-4.94a1.652,1.652,0,0,0-1.646-1.646h31.286A1.652,1.652,0,0,1,157.756,154.363Z" transform="translate(-68.834 -63.796)" fill="#ff5722"/>
          <g id="Grupo_16420" data-name="Grupo 16420" transform="translate(13.173 52.694)">
            <path id="Trazado_25030" data-name="Trazado 25030" d="M69.043,105.52h9.88v4.94a1.646,1.646,0,0,1-1.646,1.646H70.69a1.647,1.647,0,0,1-1.647-1.646Z" transform="translate(-69.043 -105.52)" fill="#f5f5f5"/>
            <path id="Trazado_25031" data-name="Trazado 25031" d="M70.69,144.136h6.587a1.646,1.646,0,0,1,1.646,1.646v4.94h-9.88v-4.94A1.647,1.647,0,0,1,70.69,144.136Z" transform="translate(-69.043 -114.495)" fill="#f5f5f5"/>
            <path id="Trazado_25032" data-name="Trazado 25032" d="M101.223,105.52h9.88v4.94a1.647,1.647,0,0,1-1.646,1.646H102.87a1.647,1.647,0,0,1-1.647-1.646v-4.94Z" transform="translate(-76.522 -105.52)" fill="#f5f5f5"/>
            <path id="Trazado_25033" data-name="Trazado 25033" d="M102.869,144.136h6.587a1.647,1.647,0,0,1,1.647,1.646v4.94h-9.88v-4.94A1.646,1.646,0,0,1,102.869,144.136Z" transform="translate(-76.522 -114.495)" fill="#f5f5f5"/>
          </g>
        </g>
        <g id="Grupo_16422" data-name="Grupo 16422" transform="translate(49.734 34.725)">
          <path id="Trazado_25034" data-name="Trazado 25034" d="M146.89,130.233v-3.294a3.3,3.3,0,0,0-3.294-3.294V82.479h3.294a1.647,1.647,0,0,0,1.148-2.828L120.525,52.924c0-.03.018-.055.018-.086V45.515a16.414,16.414,0,0,0,4.7.739,10.774,10.774,0,0,0,6.1-1.754,1.62,1.62,0,0,0,.7-1.389,1.481,1.481,0,0,0,.031-.152V36.371A1.647,1.647,0,0,0,129.5,35c-4.061,2.731-9.815-.076-9.869-.1a1.647,1.647,0,0,0-2.386,1.471v14.82H84.316V45.514a16.388,16.388,0,0,0,4.7.74,10.773,10.773,0,0,0,6.1-1.755,1.618,1.618,0,0,0,.7-1.389,1.5,1.5,0,0,0,.031-.153V36.371A1.647,1.647,0,0,0,93.278,35c-4.062,2.731-9.813-.076-9.869-.1a1.647,1.647,0,0,0-2.386,1.471V51.443c-.038.022-.072.048-.107.073a1.543,1.543,0,0,0-.217.14l-.07.068a8.145,8.145,0,0,0-1.349-.385,11.528,11.528,0,0,0-22.861,0,8.234,8.234,0,0,0,1.55,16.321h6.256L51.88,79.65a1.647,1.647,0,0,0,1.148,2.828h3.294v41.167a3.3,3.3,0,0,0-3.294,3.294v3.293H51.382a1.647,1.647,0,0,0,0,3.294H146.89a1.646,1.646,0,1,0,0-3.293Zm-46.107-6.587v-3.294a3.282,3.282,0,0,0-1.646-2.835V96.841a3.283,3.283,0,0,0,1.646-2.835V90.712h3.294v32.934Zm-24.7,0v-3.294a3.283,3.283,0,0,0-1.647-2.835V96.841a3.284,3.284,0,0,0,1.647-2.835V90.712H87.609v3.294a3.283,3.283,0,0,0,1.646,2.835v20.676a3.283,3.283,0,0,0-1.646,2.835v3.294ZM67.849,97.3h3.294v19.76H67.849Zm4.942-3.293H66.2V90.712h6.587ZM66.2,120.352h6.587v3.294H66.2ZM92.549,97.3h3.293v19.76H92.549Zm4.942-3.293H90.9V90.712h6.587ZM90.9,123.646v-3.294h6.587v3.294Zm16.468,0V90.712H140.3v32.934ZM140.3,87.419H107.37v-4.94H140.3v4.94Zm1.646-8.234H111.332L85.9,54.485h31.5l25.427,24.7ZM128.776,38.972v3.212a10.874,10.874,0,0,1-8.233-.145V38.758A14.208,14.208,0,0,0,128.776,38.972Zm-36.226,0v3.212a10.873,10.873,0,0,1-8.234-.145V38.758A14.21,14.21,0,0,0,92.549,38.972ZM57.969,64.366a4.94,4.94,0,1,1,0-9.88,1.647,1.647,0,0,0,1.647-1.647,8.233,8.233,0,0,1,16.467,0,1.647,1.647,0,0,0,1.647,1.647c.017,0,.033.006.051.006L67.616,64.366Zm23.877-9.232L106.6,79.185H57.087Zm7.41,27.345h14.82v4.94H59.616v-4.94Zm-29.64,8.233h3.293v3.294a3.284,3.284,0,0,0,1.646,2.835v20.676a3.284,3.284,0,0,0-1.646,2.835v3.294H59.616ZM90.9,130.233H56.322v-3.294h51.047v3.294Zm19.76,0v-3.294H143.6v3.294Z" transform="translate(-49.734 -34.725)" fill="#00223d"/>
          <path id="Trazado_25035" data-name="Trazado 25035" d="M88.5,84.369a6.587,6.587,0,1,0-6.587-6.587A6.587,6.587,0,0,0,88.5,84.369Zm0-9.88a3.293,3.293,0,1,1-3.293,3.293A3.293,3.293,0,0,1,88.5,74.489Z" transform="translate(-57.214 -43.201)" fill="#00223d"/>
          <path id="Trazado_25036" data-name="Trazado 25036" d="M134.052,116.246a4.946,4.946,0,0,0-4.94,4.94v9.88a1.647,1.647,0,0,0,1.646,1.647h6.587a1.647,1.647,0,0,0,1.646-1.647v-9.88A4.946,4.946,0,0,0,134.052,116.246ZM135.7,129.42h-3.293v-8.234a1.646,1.646,0,1,1,3.293,0v8.234Z" transform="translate(-68.184 -53.672)" fill="#00223d"/>
          <path id="Trazado_25037" data-name="Trazado 25037" d="M155.505,116.246a4.946,4.946,0,0,0-4.94,4.94v9.88a1.647,1.647,0,0,0,1.647,1.647H158.8a1.647,1.647,0,0,0,1.646-1.647v-9.88A4.946,4.946,0,0,0,155.505,116.246Zm1.646,13.174h-3.293v-8.234a1.646,1.646,0,1,1,3.293,0v8.234Z" transform="translate(-73.17 -53.672)" fill="#00223d"/>
        </g>
      </g>
    </g>
  </g>
</svg>
