<svg xmlns="http://www.w3.org/2000/svg" width="454" height="486.652" viewBox="0 0 454 486.652">
  <g id="Grupo_16579" data-name="Grupo 16579" transform="translate(-9534 2988)">
    <g id="Trazado_25726" data-name="Trazado 25726" transform="translate(9587 -2908.348)" fill="none">
      <path d="M176,0A176,176,0,1,1,0,176,176,176,0,0,1,176,0Z" stroke="none"/>
      <path d="M 176 4 C 164.327392578125 4 152.6633453369141 5.175689697265625 141.3317565917969 7.4945068359375 C 130.2902526855469 9.75390625 119.429443359375 13.12530517578125 109.0510559082031 17.51495361328125 C 98.86024475097656 21.82534790039063 89.03085327148438 27.16061401367188 79.8359375 33.37255859375 C 70.72738647460938 39.52615356445313 62.1619873046875 46.59329223632813 54.37765502929688 54.37765502929688 C 46.59329223632813 62.1619873046875 39.52615356445313 70.72738647460938 33.37255859375 79.8359375 C 27.16061401367188 89.03085327148438 21.82534790039063 98.86024475097656 17.51495361328125 109.0510559082031 C 13.12530517578125 119.429443359375 9.75390625 130.2902526855469 7.4945068359375 141.3317565917969 C 5.175689697265625 152.6633453369141 4 164.327392578125 4 176 C 4 187.672607421875 5.175689697265625 199.3366546630859 7.4945068359375 210.6682434082031 C 9.75390625 221.7097473144531 13.12530517578125 232.570556640625 17.51495361328125 242.9489440917969 C 21.82534790039063 253.1397399902344 27.16061401367188 262.9691467285156 33.37255859375 272.1640625 C 39.52615356445313 281.2725830078125 46.59329223632813 289.8380126953125 54.37765502929688 297.6223449707031 C 62.1619873046875 305.4067077636719 70.72738647460938 312.4738464355469 79.8359375 318.62744140625 C 89.03085327148438 324.8393859863281 98.86024475097656 330.1746520996094 109.0510559082031 334.4850463867188 C 119.429443359375 338.8746948242188 130.2902526855469 342.24609375 141.3317565917969 344.5054931640625 C 152.6633453369141 346.8243103027344 164.327392578125 348 176 348 C 187.672607421875 348 199.3366546630859 346.8243103027344 210.6682434082031 344.5054931640625 C 221.7097473144531 342.24609375 232.570556640625 338.8746948242188 242.9489440917969 334.4850463867188 C 253.1397399902344 330.1746520996094 262.9691467285156 324.8393859863281 272.1640625 318.62744140625 C 281.2725830078125 312.4738464355469 289.8380126953125 305.4067077636719 297.6223449707031 297.6223449707031 C 305.4067077636719 289.8380126953125 312.4738464355469 281.2725830078125 318.62744140625 272.1640625 C 324.8393859863281 262.9691467285156 330.1746520996094 253.1397399902344 334.4850463867188 242.9489440917969 C 338.8746948242188 232.570556640625 342.24609375 221.7097473144531 344.5054931640625 210.6682434082031 C 346.8243103027344 199.3366546630859 348 187.672607421875 348 176 C 348 164.327392578125 346.8243103027344 152.6633453369141 344.5054931640625 141.3317565917969 C 342.24609375 130.2902526855469 338.8746948242188 119.429443359375 334.4850463867188 109.0510559082031 C 330.1746520996094 98.86024475097656 324.8393859863281 89.03085327148438 318.62744140625 79.8359375 C 312.4738464355469 70.72738647460938 305.4067077636719 62.1619873046875 297.6223449707031 54.37765502929688 C 289.8380126953125 46.59329223632813 281.2725830078125 39.52615356445313 272.1640625 33.37255859375 C 262.9691467285156 27.16061401367188 253.1397399902344 21.82534790039063 242.9489440917969 17.51495361328125 C 232.570556640625 13.12530517578125 221.7097473144531 9.75390625 210.6682434082031 7.4945068359375 C 199.3366546630859 5.175689697265625 187.672607421875 4 176 4 M 176 0 C 273.2020874023438 0 352 78.79791259765625 352 176 C 352 273.2020874023438 273.2020874023438 352 176 352 C 78.79791259765625 352 0 273.2020874023438 0 176 C 0 78.79791259765625 78.79791259765625 0 176 0 Z" stroke="none" fill="#c2c2c2"/>
    </g>
    <path id="Trazado_25727" data-name="Trazado 25727" d="M74,0A74,74,0,1,1,0,74,74,74,0,0,1,74,0Z" transform="translate(9689 -2806.348)" fill="#4472c4"/>
    <path id="Trazado_25728" data-name="Trazado 25728" d="M61.5,0A61.5,61.5,0,1,1,0,61.5,61.5,61.5,0,0,1,61.5,0Z" transform="translate(9704 -2961.348)" fill="#ec7c30"/>
    <path id="Trazado_25729" data-name="Trazado 25729" d="M61.5,0A61.5,61.5,0,1,1,0,61.5,61.5,61.5,0,0,1,61.5,0Z" transform="translate(9865 -2793.348)" fill="#a4a4a4"/>
    <path id="Trazado_25730" data-name="Trazado 25730" d="M61.5,0A61.5,61.5,0,1,1,0,61.5,61.5,61.5,0,0,1,61.5,0Z" transform="translate(9534 -2793.348)" fill="#5a9ad4"/>
    <path id="Trazado_25731" data-name="Trazado 25731" d="M61.5,0A61.5,61.5,0,1,1,0,61.5,61.5,61.5,0,0,1,61.5,0Z" transform="translate(9704.497 -2624.348)" fill="#ffbf00"/>
    <path id="Trazado_25732" data-name="Trazado 25732" d="M10.143,17,9.22,14.381H3.885L2.962,17H.264L4.939,4.3H8.165L12.841,17ZM4.658,12.175H8.446L6.557,6.787ZM25.119,7.789a3.452,3.452,0,0,1,2.329.734,2.626,2.626,0,0,1,.853,2.1V17H25.77V11.349a1.509,1.509,0,0,0-.4-1.143,1.416,1.416,0,0,0-1.02-.387,1.633,1.633,0,0,0-1.23.492,2.235,2.235,0,0,0-.475,1.591V17H20.083V11.375a1.549,1.549,0,0,0-.4-1.165,1.441,1.441,0,0,0-1.046-.391,1.581,1.581,0,0,0-1.222.519,2.476,2.476,0,0,0-.475,1.7V17H14.414V7.965h2.522V9.028a3.072,3.072,0,0,1,2.619-1.239,3.863,3.863,0,0,1,1.7.347,2.315,2.315,0,0,1,1.068,1.006A3.2,3.2,0,0,1,25.119,7.789Zm10.951,0a4.372,4.372,0,0,1,1.679.325,4.064,4.064,0,0,1,2.32,2.408,5.5,5.5,0,0,1,.343,1.978,5.5,5.5,0,0,1-.343,1.978,4.064,4.064,0,0,1-2.32,2.408,4.372,4.372,0,0,1-1.679.325,3.9,3.9,0,0,1-1.709-.365,2.527,2.527,0,0,1-1.138-1.024L33.161,17h-2.4V3.5h2.531V9.063a2.522,2.522,0,0,1,1.129-.94A3.973,3.973,0,0,1,36.07,7.789Zm-.589,7.321A2.277,2.277,0,0,0,37.2,14.4a2.631,2.631,0,0,0,.681-1.9,2.644,2.644,0,0,0-.681-1.907,2.277,2.277,0,0,0-1.718-.712,2.251,2.251,0,0,0-1.705.725,2.644,2.644,0,0,0-.686,1.894,2.638,2.638,0,0,0,.681,1.89A2.253,2.253,0,0,0,35.481,15.11Zm8.13-8.5a1.421,1.421,0,0,1-1.037-.426,1.4,1.4,0,0,1-.431-1.033,1.382,1.382,0,0,1,.435-1.024A1.425,1.425,0,0,1,43.611,3.7a1.463,1.463,0,0,1,1.45,1.45,1.463,1.463,0,0,1-1.45,1.459ZM42.319,17V7.965h2.549V17Zm13.667-4.649-.026.606h-6.7a2.339,2.339,0,0,0,.721,1.652,2.3,2.3,0,0,0,1.591.571,2.221,2.221,0,0,0,1.191-.312,1.918,1.918,0,0,0,.76-.91l2.32.343a3.945,3.945,0,0,1-1.582,2.118,4.7,4.7,0,0,1-2.672.756,4.891,4.891,0,0,1-3.52-1.244,4.538,4.538,0,0,1-1.305-3.45,4.565,4.565,0,0,1,1.31-3.45,4.746,4.746,0,0,1,3.437-1.261,4.536,4.536,0,0,1,3.243,1.151A4.517,4.517,0,0,1,55.986,12.351ZM51.53,9.564a2,2,0,0,0-2.2,1.74h4.148a1.9,1.9,0,0,0-.624-1.292A1.978,1.978,0,0,0,51.53,9.564ZM63.246,7.789a3.522,3.522,0,0,1,2.5.813,3.014,3.014,0,0,1,.87,2.316V17h-2.54V11.463a1.574,1.574,0,0,0-.453-1.248,1.705,1.705,0,0,0-1.165-.4,2.379,2.379,0,0,0-.756.114,1.942,1.942,0,0,0-.633.356,1.573,1.573,0,0,0-.453.681,3.15,3.15,0,0,0-.171,1.046V17H57.911V7.965h2.531v1A3.481,3.481,0,0,1,63.246,7.789ZM72.431,17a2.729,2.729,0,0,1-2.039-.734,2.854,2.854,0,0,1-.721-2.087V9.907H67.9V7.965h.571a1.491,1.491,0,0,0,1.125-.378,1.946,1.946,0,0,0,.36-1.345v-1.2h2.285V7.965H74.1V9.907H72.237v4q0,1.169,1.046,1.169H74.1V17Zm11-2.452a8.453,8.453,0,0,0,.22,2.206V17H81.29l-.2-.984a2.938,2.938,0,0,1-1.266.87,4.664,4.664,0,0,1-1.635.29,4.3,4.3,0,0,1-.844-.079,2.868,2.868,0,0,1-.76-.268,2.307,2.307,0,0,1-.628-.47,2.062,2.062,0,0,1-.422-.716,2.853,2.853,0,0,1-.158-.98,2.718,2.718,0,0,1,.167-.98,2.3,2.3,0,0,1,.439-.734,2.666,2.666,0,0,1,.712-.536,5.447,5.447,0,0,1,.9-.387,10.712,10.712,0,0,1,1.072-.281l1.485-.334a1.638,1.638,0,0,0,.672-.286.57.57,0,0,0,.2-.453.932.932,0,0,0-.444-.87A2.073,2.073,0,0,0,79.5,9.538a1.549,1.549,0,0,0-1.767,1.38l-2.241-.4A3.034,3.034,0,0,1,76.8,8.453a5.2,5.2,0,0,1,2.839-.664q3.8,0,3.8,3.261Zm-4.456.914a2.036,2.036,0,0,0,1.564-.655,2.759,2.759,0,0,0,.606-1.938L79,13.476a2.534,2.534,0,0,0-.9.369.758.758,0,0,0-.312.65.842.842,0,0,0,.334.716A1.382,1.382,0,0,0,78.979,15.462ZM85.9,17V3.5h2.558V17Z" transform="translate(9715 -2722.348)" fill="#fff"/>
    <path id="Trazado_25733" data-name="Trazado 25733" d="M19.585,17l-1.063-2.962h-5.6L11.868,17H10.225L14.786,4.625h1.881L21.229,17Zm-6.161-4.351h4.605l-2.3-6.442ZM29.438,8.36h1.477v8.2A4.706,4.706,0,0,1,29.8,19.927,4.058,4.058,0,0,1,26.7,21.1a4.084,4.084,0,0,1-4.192-2.646l1.257-.615a2.856,2.856,0,0,0,2.892,2A2.48,2.48,0,0,0,28.686,19a3.591,3.591,0,0,0,.7-2.355v-1.6a3.045,3.045,0,0,1-1.23,1.244,3.58,3.58,0,0,1-1.8.47,3.7,3.7,0,0,1-2.795-1.217,4.293,4.293,0,0,1-1.151-3.072A4.253,4.253,0,0,1,23.562,9.4,3.74,3.74,0,0,1,26.37,8.193a3.49,3.49,0,0,1,1.811.483A3.112,3.112,0,0,1,29.4,9.951Zm-2.742,7.1a2.614,2.614,0,0,0,1.991-.888,3.136,3.136,0,0,0,0-4.228A2.708,2.708,0,0,0,24.7,10.32a3,3,0,0,0-.813,2.145,2.978,2.978,0,0,0,.822,2.131A2.634,2.634,0,0,0,26.7,15.462Zm8.8-5.581a2.612,2.612,0,0,1,1.072-1.16,3.229,3.229,0,0,1,1.661-.457V9.7a2.846,2.846,0,0,0-2.008.642,2.68,2.68,0,0,0-.69,2.048V17H34.008V8.36h1.485ZM40.2,6.866,42.41,4l.809.589L41.25,6.866ZM40.011,17V8.36H41.54V17Zm8.209.158a4.161,4.161,0,0,1-3.094-1.239A4.421,4.421,0,0,1,43.9,12.676a4.43,4.43,0,0,1,1.217-3.243,4.5,4.5,0,0,1,5.6-.483,3.815,3.815,0,0,1,1.455,2.1l-1.424.229a2.63,2.63,0,0,0-.976-1.345,2.656,2.656,0,0,0-1.564-.475,2.554,2.554,0,0,0-2,.888,3.382,3.382,0,0,0-.787,2.329A3.365,3.365,0,0,0,46.211,15a2.56,2.56,0,0,0,2,.883,2.656,2.656,0,0,0,1.564-.475,2.63,2.63,0,0,0,.976-1.345l1.424.237a3.819,3.819,0,0,1-1.463,2.1A4.185,4.185,0,0,1,48.22,17.158Zm9.835.009a4.554,4.554,0,0,1-2.215-.536,3.9,3.9,0,0,1-1.56-1.569,4.819,4.819,0,0,1-.576-2.386A4.4,4.4,0,0,1,54.93,9.419a4.6,4.6,0,0,1,6.253,0,4.41,4.41,0,0,1,1.222,3.256,4.413,4.413,0,0,1-1.226,3.265A4.232,4.232,0,0,1,58.055,17.167ZM58.046,15.9a2.654,2.654,0,0,0,2.043-.888,3.326,3.326,0,0,0,.813-2.338,3.314,3.314,0,0,0-.813-2.329,2.654,2.654,0,0,0-2.043-.888,2.617,2.617,0,0,0-2.026.888,3.336,3.336,0,0,0-.8,2.329,3.348,3.348,0,0,0,.8,2.338A2.617,2.617,0,0,0,58.046,15.9ZM64.787,17V3.5h1.538V17Zm6.627.167a2.94,2.94,0,0,1-1.894-.593,2.13,2.13,0,0,1-.743-1.771,2.517,2.517,0,0,1,.237-1.129,1.991,1.991,0,0,1,.7-.787,4.218,4.218,0,0,1,1.015-.488,9.384,9.384,0,0,1,1.314-.312l1.4-.229q.765-.141.765-.8a1.51,1.51,0,0,0-.541-1.288A2.2,2.2,0,0,0,72.3,9.362a2.243,2.243,0,0,0-1.354.4,1.655,1.655,0,0,0-.642,1.213l-1.371-.29a2.639,2.639,0,0,1,1.081-1.85,4.039,4.039,0,0,1,2.355-.62,4.777,4.777,0,0,1,1.252.154,3.4,3.4,0,0,1,1.046.483,2.168,2.168,0,0,1,.747.932,3.466,3.466,0,0,1,.268,1.419v3.568a1.46,1.46,0,0,0,.2.9.854.854,0,0,0,.681.233h.141V17h-.756a1.442,1.442,0,0,1-1.635-1.169h-.07A3.3,3.3,0,0,1,71.414,17.167Zm.352-1.23A2.305,2.305,0,0,0,73.62,15.1a3.438,3.438,0,0,0,.7-2.285l-2.285.439a3.076,3.076,0,0,0-1.34.479,1.114,1.114,0,0,0-.435.945,1.1,1.1,0,0,0,.417.949A1.785,1.785,0,0,0,71.766,15.937Z" transform="translate(9722 -2893.348)" fill="#fff"/>
    <path id="Trazado_25734" data-name="Trazado 25734" d="M12.235,17.167a5.648,5.648,0,0,1-3.23-.875,3.7,3.7,0,0,1-1.613-2.4l1.591-.378A2.609,2.609,0,0,0,10.1,15.2a3.775,3.775,0,0,0,2.188.615,4.566,4.566,0,0,0,.817-.07,3.127,3.127,0,0,0,.743-.233,2.274,2.274,0,0,0,.611-.4,1.669,1.669,0,0,0,.4-.606A2.076,2.076,0,0,0,15,13.678a1.786,1.786,0,0,0-.11-.584,1.855,1.855,0,0,0-.246-.461,1.657,1.657,0,0,0-.417-.374,5.6,5.6,0,0,0-.5-.3,4.529,4.529,0,0,0-.62-.25q-.391-.132-.655-.207l-.712-.2q-.088-.026-.132-.035-.51-.132-.831-.229t-.769-.268a5.06,5.06,0,0,1-.734-.338,4.968,4.968,0,0,1-.6-.422,2.161,2.161,0,0,1-.5-.549,2.9,2.9,0,0,1-.3-.7,3.11,3.11,0,0,1-.119-.879,3.138,3.138,0,0,1,.576-1.9,3.368,3.368,0,0,1,1.485-1.16,5.392,5.392,0,0,1,2.043-.369,5.6,5.6,0,0,1,2.975.76,3.388,3.388,0,0,1,1.578,2.246l-1.529.387A2.328,2.328,0,0,0,13.861,6.33a3.523,3.523,0,0,0-1.934-.51,3.83,3.83,0,0,0-.949.114,2.82,2.82,0,0,0-.822.352,1.706,1.706,0,0,0-.593.646,1.965,1.965,0,0,0-.22.945,1.519,1.519,0,0,0,.088.523,1.605,1.605,0,0,0,.22.417,1.564,1.564,0,0,0,.378.343,3.839,3.839,0,0,0,.461.272,4.676,4.676,0,0,0,.576.224q.36.119.615.193t.677.18a14.318,14.318,0,0,1,2.382.791A3.014,3.014,0,0,1,16.577,13.1a3.924,3.924,0,0,1,.035.536,3.458,3.458,0,0,1-.356,1.6,2.885,2.885,0,0,1-.976,1.107,4.664,4.664,0,0,1-1.389.62A6.368,6.368,0,0,1,12.235,17.167ZM19.961,6.33A1.035,1.035,0,0,1,18.932,5.3a.975.975,0,0,1,.3-.721,1,1,0,0,1,.725-.3.987.987,0,0,1,.716.3.975.975,0,0,1,.3.721.989.989,0,0,1-.3.725A.979.979,0,0,1,19.961,6.33ZM19.187,17V8.36h1.529V17Zm4.623,0V3.5h1.538V17ZM33.83,8.36h1.626L31.94,17H30.648l-3.5-8.64h1.617L31.3,15.233Zm4.2-2.03A1.035,1.035,0,0,1,37,5.3a.975.975,0,0,1,.3-.721,1,1,0,0,1,.725-.3.987.987,0,0,1,.716.3.975.975,0,0,1,.3.721.989.989,0,0,1-.3.725A.979.979,0,0,1,38.031,6.33ZM37.258,17V8.36h1.529V17Zm8.209.158a4.161,4.161,0,0,1-3.094-1.239,4.421,4.421,0,0,1-1.222-3.243,4.43,4.43,0,0,1,1.217-3.243,4.5,4.5,0,0,1,5.6-.483,3.815,3.815,0,0,1,1.455,2.1L48,11.278a2.63,2.63,0,0,0-.976-1.345,2.656,2.656,0,0,0-1.564-.475,2.554,2.554,0,0,0-2,.888,3.382,3.382,0,0,0-.787,2.329A3.365,3.365,0,0,0,43.458,15a2.56,2.56,0,0,0,2,.883,2.656,2.656,0,0,0,1.564-.475A2.63,2.63,0,0,0,48,14.064l1.424.237a3.819,3.819,0,0,1-1.463,2.1A4.185,4.185,0,0,1,45.467,17.158Zm11.575-8.8h1.521V17H57.1l-.035-1.143A2.7,2.7,0,0,1,56,16.829a3.3,3.3,0,0,1-1.512.338,3.005,3.005,0,0,1-2.175-.782,2.918,2.918,0,0,1-.813-2.206V8.36h1.521v5.476a2.05,2.05,0,0,0,.532,1.547,1.882,1.882,0,0,0,1.358.51,2.067,2.067,0,0,0,1.534-.6,2.434,2.434,0,0,0,.6-1.767ZM61.656,17V3.5h1.538V17Zm7.392,0a2.271,2.271,0,0,1-1.687-.62,2.344,2.344,0,0,1-.615-1.727V9.573H64.978V8.36h.65a1.249,1.249,0,0,0,.954-.3,1.492,1.492,0,0,0,.277-1.015V5.478h1.415V8.36H70.26V9.573H68.274V14.5a1.31,1.31,0,0,0,.33.954,1.154,1.154,0,0,0,.866.338h.791V17Zm8.789-8.64h1.521V17H77.9l-.035-1.143a2.7,2.7,0,0,1-1.072.971,3.3,3.3,0,0,1-1.512.338,3.005,3.005,0,0,1-2.175-.782,2.918,2.918,0,0,1-.813-2.206V8.36h1.521v5.476a2.05,2.05,0,0,0,.532,1.547,1.882,1.882,0,0,0,1.358.51,2.067,2.067,0,0,0,1.534-.6,2.434,2.434,0,0,0,.6-1.767Zm6.1,1.521a2.612,2.612,0,0,1,1.072-1.16,3.229,3.229,0,0,1,1.661-.457V9.7a2.846,2.846,0,0,0-2.008.642,2.68,2.68,0,0,0-.69,2.048V17H82.451V8.36h1.485Zm6.407,7.286a2.94,2.94,0,0,1-1.894-.593,2.13,2.13,0,0,1-.743-1.771,2.517,2.517,0,0,1,.237-1.129,1.991,1.991,0,0,1,.7-.787,4.218,4.218,0,0,1,1.015-.488,9.384,9.384,0,0,1,1.314-.312l1.4-.229q.765-.141.765-.8A1.51,1.51,0,0,0,92.6,9.771a2.2,2.2,0,0,0-1.367-.409,2.243,2.243,0,0,0-1.354.4,1.655,1.655,0,0,0-.642,1.213l-1.371-.29a2.639,2.639,0,0,1,1.081-1.85,4.039,4.039,0,0,1,2.355-.62,4.777,4.777,0,0,1,1.252.154,3.4,3.4,0,0,1,1.046.483,2.168,2.168,0,0,1,.747.932,3.466,3.466,0,0,1,.268,1.419v3.568a1.46,1.46,0,0,0,.2.9.854.854,0,0,0,.681.233h.141V17h-.756a1.442,1.442,0,0,1-1.635-1.169h-.07A3.3,3.3,0,0,1,90.343,17.167Zm.352-1.23A2.305,2.305,0,0,0,92.55,15.1a3.438,3.438,0,0,0,.7-2.285l-2.285.439a3.076,3.076,0,0,0-1.34.479,1.114,1.114,0,0,0-.435.945,1.1,1.1,0,0,0,.417.949A1.785,1.785,0,0,0,90.7,15.937Z" transform="matrix(1, 0.017, -0.017, 1, 9715.384, -2551.348)" fill="#00223d"/>
    <path id="Trazado_25735" data-name="Trazado 25735" d="M32.5,4.625a3.664,3.664,0,0,1,1.938.514,3.473,3.473,0,0,1,1.3,1.375,4.036,4.036,0,0,1,.453,1.907,3.755,3.755,0,0,1-1.024,2.694A3.514,3.514,0,0,1,32.5,12.192H29.386V17H27.813V4.625Zm-.229,6.2a2.25,2.25,0,0,0,1.723-.664A2.455,2.455,0,0,0,34.615,8.4a2.463,2.463,0,0,0-.624-1.745,2.234,2.234,0,0,0-1.723-.672H29.386v4.834Zm13.069,1.688-.018.413H38.57a3.053,3.053,0,0,0,.826,2.21,2.713,2.713,0,0,0,1.969.769,2.59,2.59,0,0,0,1.433-.413,2.68,2.68,0,0,0,.984-1.143l1.371.29a3.9,3.9,0,0,1-1.477,1.854,4.028,4.028,0,0,1-2.294.677,4.174,4.174,0,0,1-3.111-1.2,4.479,4.479,0,0,1-1.187-3.287A4.458,4.458,0,0,1,38.276,9.4a4.122,4.122,0,0,1,3.063-1.2,3.9,3.9,0,0,1,2.9,1.107A4.376,4.376,0,0,1,45.338,12.509Zm-4-3.146a2.694,2.694,0,0,0-1.8.611,2.8,2.8,0,0,0-.91,1.78h5.177a2.567,2.567,0,0,0-.756-1.78A2.441,2.441,0,0,0,41.339,9.362Zm9.114,7.8a4.1,4.1,0,0,1-2.329-.624,2.581,2.581,0,0,1-1.134-1.775l1.327-.378a1.851,1.851,0,0,0,.708,1.2,2.3,2.3,0,0,0,1.419.426,2.832,2.832,0,0,0,.831-.114,1.331,1.331,0,0,0,.637-.426,1.189,1.189,0,0,0,.185-1.143,1.526,1.526,0,0,0-.141-.286.87.87,0,0,0-.246-.237,3.245,3.245,0,0,0-.3-.185,3.067,3.067,0,0,0-.391-.163q-.259-.092-.417-.141t-.483-.141q-.325-.092-.5-.145a9.372,9.372,0,0,1-.9-.316,3.932,3.932,0,0,1-.729-.417,1.679,1.679,0,0,1-.567-.681,2.3,2.3,0,0,1-.189-.967,2.234,2.234,0,0,1,.422-1.38,2.374,2.374,0,0,1,1.094-.813,4.374,4.374,0,0,1,1.534-.25,3.754,3.754,0,0,1,2.1.563,2.4,2.4,0,0,1,1.05,1.688l-1.248.316a1.655,1.655,0,0,0-.659-1.094,2.1,2.1,0,0,0-1.239-.365,2.139,2.139,0,0,0-1.16.3,1.019,1.019,0,0,0-.483.927.923.923,0,0,0,.127.479,1.521,1.521,0,0,0,.259.338,1.594,1.594,0,0,0,.475.259q.343.136.51.185t.633.163q.088.026.132.035.51.132.831.233a5.105,5.105,0,0,1,.747.316,2.484,2.484,0,0,1,.672.47,2.178,2.178,0,0,1,.422.668,2.358,2.358,0,0,1,.176.932,2.516,2.516,0,0,1-.259,1.165,2.028,2.028,0,0,1-.708.8,3.422,3.422,0,0,1-1.006.435A4.8,4.8,0,0,1,50.453,17.167Zm9.158-.009a4.161,4.161,0,0,1-3.094-1.239A4.421,4.421,0,0,1,55.3,12.676a4.43,4.43,0,0,1,1.217-3.243,4.5,4.5,0,0,1,5.6-.483,3.815,3.815,0,0,1,1.455,2.1l-1.424.229a2.63,2.63,0,0,0-.976-1.345A2.656,2.656,0,0,0,59.6,9.459a2.554,2.554,0,0,0-2,.888,3.382,3.382,0,0,0-.787,2.329A3.365,3.365,0,0,0,57.6,15a2.56,2.56,0,0,0,2,.883,2.656,2.656,0,0,0,1.564-.475,2.63,2.63,0,0,0,.976-1.345l1.424.237A3.819,3.819,0,0,1,62.1,16.4,4.185,4.185,0,0,1,59.611,17.158Zm8.191.009a2.94,2.94,0,0,1-1.894-.593,2.13,2.13,0,0,1-.743-1.771,2.517,2.517,0,0,1,.237-1.129,1.991,1.991,0,0,1,.7-.787,4.218,4.218,0,0,1,1.015-.488,9.384,9.384,0,0,1,1.314-.312l1.4-.229q.765-.141.765-.8a1.51,1.51,0,0,0-.541-1.288,2.2,2.2,0,0,0-1.367-.409,2.243,2.243,0,0,0-1.354.4,1.655,1.655,0,0,0-.642,1.213l-1.371-.29a2.639,2.639,0,0,1,1.081-1.85,4.039,4.039,0,0,1,2.355-.62,4.777,4.777,0,0,1,1.252.154,3.4,3.4,0,0,1,1.046.483,2.168,2.168,0,0,1,.747.932,3.466,3.466,0,0,1,.268,1.419v3.568a1.46,1.46,0,0,0,.2.9.854.854,0,0,0,.681.233h.141V17h-.756A1.442,1.442,0,0,1,70.7,15.831h-.07A3.3,3.3,0,0,1,67.8,17.167Zm.352-1.23a2.305,2.305,0,0,0,1.854-.835,3.438,3.438,0,0,0,.7-2.285l-2.285.439a3.076,3.076,0,0,0-1.34.479,1.114,1.114,0,0,0-.435.945,1.1,1.1,0,0,0,.417.949A1.785,1.785,0,0,0,68.154,15.937ZM85.24,8.36h1.608l-5,12.709H80.274l1.731-4.28L78.648,8.36h1.688l2.435,6.724ZM20.271,37l-1.063-2.962h-5.6L12.555,37H10.911l4.562-12.375h1.881L21.915,37ZM14.11,32.649h4.605l-2.3-6.442Zm13.342,4.509a4.161,4.161,0,0,1-3.094-1.239,4.421,4.421,0,0,1-1.222-3.243,4.43,4.43,0,0,1,1.217-3.243,4.5,4.5,0,0,1,5.6-.483,3.815,3.815,0,0,1,1.455,2.1l-1.424.229a2.63,2.63,0,0,0-.976-1.345,2.656,2.656,0,0,0-1.564-.475,2.554,2.554,0,0,0-2,.888,3.835,3.835,0,0,0,0,4.654,2.56,2.56,0,0,0,2,.883,2.656,2.656,0,0,0,1.564-.475,2.63,2.63,0,0,0,.976-1.345l1.424.237a3.819,3.819,0,0,1-1.463,2.1A4.185,4.185,0,0,1,27.452,37.158Zm11.575-8.8h1.521V37H39.089l-.035-1.143a2.7,2.7,0,0,1-1.072.971,3.3,3.3,0,0,1-1.512.338,3.005,3.005,0,0,1-2.175-.782,2.918,2.918,0,0,1-.813-2.206V28.36H35v5.476a2.05,2.05,0,0,0,.532,1.547,1.882,1.882,0,0,0,1.358.51,2.067,2.067,0,0,0,1.534-.6,2.434,2.434,0,0,0,.6-1.767Zm5.388-2.03A1.035,1.035,0,0,1,43.387,25.3a.975.975,0,0,1,.3-.721,1,1,0,0,1,.725-.3.987.987,0,0,1,.716.3.975.975,0,0,1,.3.721.989.989,0,0,1-.3.725A.979.979,0,0,1,44.415,26.33ZM43.642,37V28.36h1.529V37Zm8.209.158a4.161,4.161,0,0,1-3.094-1.239,4.421,4.421,0,0,1-1.222-3.243,4.43,4.43,0,0,1,1.217-3.243,4.5,4.5,0,0,1,5.6-.483,3.815,3.815,0,0,1,1.455,2.1l-1.424.229a2.63,2.63,0,0,0-.976-1.345,2.656,2.656,0,0,0-1.564-.475,2.554,2.554,0,0,0-2,.888,3.835,3.835,0,0,0,0,4.654,2.56,2.56,0,0,0,2,.883,2.656,2.656,0,0,0,1.564-.475,2.63,2.63,0,0,0,.976-1.345l1.424.237a3.819,3.819,0,0,1-1.463,2.1A4.185,4.185,0,0,1,51.851,37.158Zm11.575-8.8h1.521V37H63.487l-.035-1.143a2.7,2.7,0,0,1-1.072.971,3.3,3.3,0,0,1-1.512.338,3.005,3.005,0,0,1-2.175-.782,2.918,2.918,0,0,1-.813-2.206V28.36H59.4v5.476a2.05,2.05,0,0,0,.532,1.547,1.882,1.882,0,0,0,1.358.51,2.067,2.067,0,0,0,1.534-.6,2.434,2.434,0,0,0,.6-1.767ZM68.04,37V23.5h1.538V37Zm7.392,0a2.271,2.271,0,0,1-1.687-.62,2.344,2.344,0,0,1-.615-1.727v-5.08H71.362V28.36h.65a1.249,1.249,0,0,0,.954-.3,1.492,1.492,0,0,0,.277-1.015V25.478h1.415V28.36h1.986v1.213H74.658V34.5a1.31,1.31,0,0,0,.33.954,1.154,1.154,0,0,0,.866.338h.791V37Zm8.789-8.64h1.521V37H84.282l-.035-1.143a2.7,2.7,0,0,1-1.072.971,3.3,3.3,0,0,1-1.512.338,3.005,3.005,0,0,1-2.175-.782,2.918,2.918,0,0,1-.813-2.206V28.36H80.2v5.476a2.05,2.05,0,0,0,.532,1.547,1.882,1.882,0,0,0,1.358.51,2.067,2.067,0,0,0,1.534-.6,2.434,2.434,0,0,0,.6-1.767Zm6.1,1.521a2.612,2.612,0,0,1,1.072-1.16,3.229,3.229,0,0,1,1.661-.457V29.7a2.846,2.846,0,0,0-2.008.642,2.68,2.68,0,0,0-.69,2.048V37H88.835V28.36H90.32Zm6.407,7.286a2.94,2.94,0,0,1-1.894-.593,2.13,2.13,0,0,1-.743-1.771,2.517,2.517,0,0,1,.237-1.129,1.991,1.991,0,0,1,.7-.787,4.218,4.218,0,0,1,1.015-.488,9.384,9.384,0,0,1,1.314-.312l1.4-.229q.765-.141.765-.8a1.51,1.51,0,0,0-.541-1.288,2.2,2.2,0,0,0-1.367-.409,2.243,2.243,0,0,0-1.354.4,1.655,1.655,0,0,0-.642,1.213l-1.371-.29a2.639,2.639,0,0,1,1.081-1.85,4.039,4.039,0,0,1,2.355-.62,4.777,4.777,0,0,1,1.252.154,3.4,3.4,0,0,1,1.046.483,2.168,2.168,0,0,1,.747.932A3.466,3.466,0,0,1,101,31.2v3.568a1.46,1.46,0,0,0,.2.9.854.854,0,0,0,.681.233h.141V37h-.756a1.442,1.442,0,0,1-1.635-1.169h-.07A3.3,3.3,0,0,1,96.728,37.167Zm.352-1.23a2.305,2.305,0,0,0,1.854-.835,3.438,3.438,0,0,0,.7-2.285l-2.285.439a3.076,3.076,0,0,0-1.34.479,1.114,1.114,0,0,0-.435.945,1.1,1.1,0,0,0,.417.949A1.785,1.785,0,0,0,97.079,35.937Z" transform="translate(9539 -2737.348)" fill="#fff"/>
    <path id="Trazado_25736" data-name="Trazado 25736" d="M9.874,4.625a3.664,3.664,0,0,1,1.938.514,3.473,3.473,0,0,1,1.3,1.375,4.036,4.036,0,0,1,.453,1.907,3.755,3.755,0,0,1-1.024,2.694,3.514,3.514,0,0,1-2.667,1.077H6.763V17H5.189V4.625Zm-.229,6.2a2.25,2.25,0,0,0,1.723-.664A2.455,2.455,0,0,0,11.992,8.4a2.463,2.463,0,0,0-.624-1.745,2.234,2.234,0,0,0-1.723-.672H6.763v4.834Zm13.069,1.688-.018.413h-6.75a3.053,3.053,0,0,0,.826,2.21,2.713,2.713,0,0,0,1.969.769,2.59,2.59,0,0,0,1.433-.413,2.68,2.68,0,0,0,.984-1.143l1.371.29a3.9,3.9,0,0,1-1.477,1.854,4.028,4.028,0,0,1-2.294.677,4.174,4.174,0,0,1-3.111-1.2,4.479,4.479,0,0,1-1.187-3.287A4.458,4.458,0,0,1,15.653,9.4a4.122,4.122,0,0,1,3.063-1.2,3.9,3.9,0,0,1,2.9,1.107A4.376,4.376,0,0,1,22.715,12.509Zm-4-3.146a2.694,2.694,0,0,0-1.8.611,2.8,2.8,0,0,0-.91,1.78h5.177a2.567,2.567,0,0,0-.756-1.78A2.441,2.441,0,0,0,18.716,9.362Zm9.967,7.8a4.161,4.161,0,0,1-3.094-1.239,4.421,4.421,0,0,1-1.222-3.243,4.43,4.43,0,0,1,1.217-3.243,4.5,4.5,0,0,1,5.6-.483,3.815,3.815,0,0,1,1.455,2.1l-1.424.229a2.63,2.63,0,0,0-.976-1.345,2.656,2.656,0,0,0-1.564-.475,2.554,2.554,0,0,0-2,.888,3.382,3.382,0,0,0-.787,2.329A3.365,3.365,0,0,0,26.674,15a2.56,2.56,0,0,0,2,.883,2.656,2.656,0,0,0,1.564-.475,2.63,2.63,0,0,0,.976-1.345l1.424.237a3.819,3.819,0,0,1-1.463,2.1A4.185,4.185,0,0,1,28.683,17.158Zm11.575-8.8h1.521V17H40.319l-.035-1.143a2.7,2.7,0,0,1-1.072.971,3.3,3.3,0,0,1-1.512.338,3.005,3.005,0,0,1-2.175-.782,2.918,2.918,0,0,1-.813-2.206V8.36h1.521v5.476a2.05,2.05,0,0,0,.532,1.547,1.882,1.882,0,0,0,1.358.51,2.067,2.067,0,0,0,1.534-.6,2.434,2.434,0,0,0,.6-1.767Zm6.609,8.807a2.94,2.94,0,0,1-1.894-.593A2.13,2.13,0,0,1,44.23,14.8a2.517,2.517,0,0,1,.237-1.129,1.991,1.991,0,0,1,.7-.787,4.218,4.218,0,0,1,1.015-.488,9.384,9.384,0,0,1,1.314-.312l1.4-.229q.765-.141.765-.8a1.51,1.51,0,0,0-.541-1.288,2.2,2.2,0,0,0-1.367-.409,2.243,2.243,0,0,0-1.354.4,1.655,1.655,0,0,0-.642,1.213l-1.371-.29a2.639,2.639,0,0,1,1.081-1.85,4.039,4.039,0,0,1,2.355-.62,4.777,4.777,0,0,1,1.252.154,3.4,3.4,0,0,1,1.046.483,2.168,2.168,0,0,1,.747.932,3.466,3.466,0,0,1,.268,1.419v3.568a1.46,1.46,0,0,0,.2.9.854.854,0,0,0,.681.233h.141V17H51.4a1.442,1.442,0,0,1-1.635-1.169H49.7A3.3,3.3,0,0,1,46.867,17.167Zm.352-1.23a2.305,2.305,0,0,0,1.854-.835,3.438,3.438,0,0,0,.7-2.285l-2.285.439a3.076,3.076,0,0,0-1.34.479,1.114,1.114,0,0,0-.435.945,1.1,1.1,0,0,0,.417.949A1.785,1.785,0,0,0,47.219,15.937Zm8.569-6.056a2.612,2.612,0,0,1,1.072-1.16,3.229,3.229,0,0,1,1.661-.457V9.7a2.846,2.846,0,0,0-2.008.642,2.68,2.68,0,0,0-.69,2.048V17H54.3V8.36h1.485ZM61.079,6.33A1.035,1.035,0,0,1,60.051,5.3a.975.975,0,0,1,.3-.721,1,1,0,0,1,.725-.3.987.987,0,0,1,.716.3.975.975,0,0,1,.3.721.989.989,0,0,1-.3.725A.979.979,0,0,1,61.079,6.33ZM60.306,17V8.36h1.529V17Zm8.262.167a4.554,4.554,0,0,1-2.215-.536,3.9,3.9,0,0,1-1.56-1.569,4.819,4.819,0,0,1-.576-2.386,4.4,4.4,0,0,1,1.226-3.256,4.6,4.6,0,0,1,6.253,0,4.41,4.41,0,0,1,1.222,3.256,4.413,4.413,0,0,1-1.226,3.265A4.232,4.232,0,0,1,68.567,17.167ZM68.559,15.9a2.654,2.654,0,0,0,2.043-.888,3.326,3.326,0,0,0,.813-2.338,3.314,3.314,0,0,0-.813-2.329,2.654,2.654,0,0,0-2.043-.888,2.617,2.617,0,0,0-2.026.888,3.336,3.336,0,0,0-.8,2.329,3.348,3.348,0,0,0,.8,2.338A2.617,2.617,0,0,0,68.559,15.9Z" transform="translate(9888 -2722.348)" fill="#fff"/>
    <g id="Grupo_16316" data-name="Grupo 16316" transform="translate(9889.403 -2759.801)">
      <path id="Trazado_24873" data-name="Trazado 24873" d="M87.087,400.78a4.211,4.211,0,0,1-1.683-3.368V392.5l3.286,1.643a4.21,4.21,0,0,1,2.326,3.765v5.818Z" transform="translate(-85.404 -392.501)" fill="#52565a"/>
    </g>
    <g id="Grupo_16317" data-name="Grupo 16317" transform="translate(9914.661 -2762.607)">
      <path id="Trazado_24874" data-name="Trazado 24874" d="M136.975,388.642c0,3.875-3.769,7.016-8.42,7.016s-8.419-3.142-8.419-7.016" transform="translate(-120.137 -388.642)" fill="#c66b60"/>
    </g>
    <g id="Grupo_16318" data-name="Grupo 16318" transform="translate(9949.815 -2768.323)">
      <path id="Trazado_24875" data-name="Trazado 24875" d="M172.615,402.131v-.2l.46-1.841a78.6,78.6,0,0,0,2.346-19.059v-.252A18.194,18.194,0,0,1,170.1,386.3l-.3.2-.09.071q-.223,6.952-.99,13.872l-.249,2.231a5.306,5.306,0,0,1,4.136-.54Z" transform="translate(-168.479 -380.781)" fill="#a8b0bc"/>
    </g>
    <g id="Grupo_16319" data-name="Grupo 16319" transform="translate(9903.436 -2763.948)">
      <path id="Trazado_24876" data-name="Trazado 24876" d="M111.766,403.789l-.05-.215.609-4.266a78.861,78.861,0,0,0,.794-11.17V387.6c-.5-.149-1.016-.272-1.515-.438L110.5,386.8a65.951,65.951,0,0,0-4.389,16.761l0,.015h-1.4a5.5,5.5,0,0,1,2.814.774,5.3,5.3,0,0,1,4.253-.56Z" transform="translate(-104.7 -386.798)" fill="#a8b0bc"/>
    </g>
    <g id="Grupo_16320" data-name="Grupo 16320" transform="translate(9903.436 -2747.171)">
      <path id="Trazado_24877" data-name="Trazado 24877" d="M110.313,409.868a5.613,5.613,0,0,1,5.613,5.613v2.807H104.7v-2.807A5.613,5.613,0,0,1,110.313,409.868Z" transform="translate(-104.7 -409.868)" fill="#52565a"/>
    </g>
    <g id="Grupo_16321" data-name="Grupo 16321" transform="translate(9946.936 -2747.171)">
      <path id="Trazado_24878" data-name="Trazado 24878" d="M170.131,409.868a5.613,5.613,0,0,1,5.613,5.613v2.807H164.518v-2.807A5.613,5.613,0,0,1,170.131,409.868Z" transform="translate(-164.518 -409.868)" fill="#52565a"/>
    </g>
    <g id="Grupo_16322" data-name="Grupo 16322" transform="translate(9897.822 -2747.171)">
      <path id="Trazado_24879" data-name="Trazado 24879" d="M102.594,409.868a5.613,5.613,0,0,1,5.613,5.613v2.807H96.981v-2.807A5.613,5.613,0,0,1,102.594,409.868Z" transform="translate(-96.981 -409.868)" fill="#52565a"/>
    </g>
    <g id="Grupo_16323" data-name="Grupo 16323" transform="translate(9941.322 -2747.171)">
      <path id="Trazado_24880" data-name="Trazado 24880" d="M162.412,409.868a5.613,5.613,0,0,1,5.613,5.613v2.807H156.8v-2.807A5.613,5.613,0,0,1,162.412,409.868Z" transform="translate(-156.799 -409.868)" fill="#52565a"/>
    </g>
    <g id="Grupo_16324" data-name="Grupo 16324" transform="translate(9895.119 -2808.913)">
      <path id="Trazado_24881" data-name="Trazado 24881" d="M157.709,355.836v.06a18.241,18.241,0,0,1-8.123,15.179l-.3.2-.09.071q-.223,6.952-.99,13.872l-.323,2.9h-5.613l-.41-1.844a100.516,100.516,0,0,1-2.245-16.353l0-.044h-.149l-1.291.43a46.327,46.327,0,0,1-14.642,2.376h-.407a46.343,46.343,0,0,1-14.644-2.376l-1.108-.369a65.964,65.964,0,0,0-4.389,16.762v.015h-4.21l-4.209-16.838L93.293,350.8a12.657,12.657,0,0,1,.35-3.9l.15-.6a12.626,12.626,0,0,1,11.108-9.514l21.938-2v-4.21a5.613,5.613,0,0,1,5.613-5.613h4.21" transform="translate(-93.265 -324.965)" fill="#e3e4e5"/>
    </g>
    <g id="Grupo_16325" data-name="Grupo 16325" transform="translate(9935.709 -2815.929)">
      <path id="Trazado_24882" data-name="Trazado 24882" d="M150.484,346.188l-1.375-19.259c-.018-.257-.028-.515-.028-.772a10.838,10.838,0,0,1,10.838-10.84h9.193a10.838,10.838,0,0,1,10.84,10.838c0,.258-.009.515-.028.772l-1.375,19.261" transform="translate(-149.081 -315.317)" fill="#e3e4e5"/>
    </g>
    <g id="Grupo_16326" data-name="Grupo 16326" transform="translate(9934.306 -2822.945)">
      <path id="Trazado_24883" data-name="Trazado 24883" d="M155.571,314.088l-.471-.707a13.9,13.9,0,0,1-2.335-7.712l-3.158,2.367a6.14,6.14,0,0,0-.657,9.254l1.007,1.007" transform="translate(-147.151 -305.669)" fill="#efbe9a"/>
    </g>
    <g id="Grupo_16327" data-name="Grupo 16327" transform="translate(9959.563 -2822.945)">
      <path id="Trazado_24884" data-name="Trazado 24884" d="M181.884,314.088l.472-.707a13.907,13.907,0,0,0,2.335-7.712l3.157,2.367a6.14,6.14,0,0,1,.657,9.254L187.5,318.3" transform="translate(-181.884 -305.669)" fill="#efbe9a"/>
    </g>
    <g id="Grupo_16328" data-name="Grupo 16328" transform="translate(9928.693 -2808.913)">
      <path id="Trazado_24885" data-name="Trazado 24885" d="M146.449,324.965h-.978A6.038,6.038,0,0,0,139.433,331v3.784h1.709a6.039,6.039,0,0,0,4.27-1.768l1.037-1.038" transform="translate(-139.433 -324.965)" fill="#c66b60"/>
    </g>
    <g id="Grupo_16329" data-name="Grupo 16329" transform="translate(9966.58 -2808.913)">
      <path id="Trazado_24886" data-name="Trazado 24886" d="M191.532,324.965h.978A6.038,6.038,0,0,1,198.548,331v3.784h-1.709a6.041,6.041,0,0,1-4.27-1.768l-1.037-1.038" transform="translate(-191.532 -324.965)" fill="#c66b60"/>
    </g>
    <g id="Grupo_16330" data-name="Grupo 16330" transform="translate(9937.112 -2792.075)">
      <path id="Trazado_24887" data-name="Trazado 24887" d="M160.833,348.12a13.079,13.079,0,0,1,4.21.685,13.074,13.074,0,0,1,4.209-.685c5.425,0,9.823,3.142,9.823,7.016s-4.4,7.016-9.823,7.016a13.075,13.075,0,0,1-4.209-.684,13.08,13.08,0,0,1-4.21.684c-5.425,0-9.823-3.142-9.823-7.016S155.408,348.12,160.833,348.12Z" transform="translate(-151.01 -348.12)" fill="#c66b60"/>
    </g>
    <g id="Grupo_16331" data-name="Grupo 16331" transform="translate(9951.145 -2815.929)">
      <path id="Trazado_24888" data-name="Trazado 24888" d="M174.9,315.317h-.8a11.216,11.216,0,0,0,11.077,19.025l.529-7.414c.018-.257.028-.515.028-.772A10.838,10.838,0,0,0,174.9,315.317Z" transform="translate(-170.307 -315.317)" fill="#52565a"/>
    </g>
    <g id="Grupo_16332" data-name="Grupo 16332" transform="translate(9907.645 -2797.687)">
      <path id="Trazado_24889" data-name="Trazado 24889" d="M111.892,340.4a7.016,7.016,0,1,0,11.226,0" transform="translate(-110.489 -340.402)" fill="#52565a"/>
    </g>
    <g id="Grupo_16333" data-name="Grupo 16333" transform="translate(9917.467 -2783.655)">
      <path id="Trazado_24890" data-name="Trazado 24890" d="M129.609,359.7a5.613,5.613,0,0,1,5.613,5.613c0,.071-.018.135-.021.205a5.548,5.548,0,0,1,1.424-.205,5.613,5.613,0,1,1-5.613,5.613c0-.071.018-.135.021-.205a5.552,5.552,0,0,1-1.425.205,5.613,5.613,0,0,1,0-11.226Z" transform="translate(-123.996 -359.698)" fill="#52565a"/>
    </g>
    <g id="Grupo_16334" data-name="Grupo 16334" transform="translate(9896.419 -2780.849)">
      <path id="Trazado_24891" data-name="Trazado 24891" d="M95.052,377.589a7.016,7.016,0,1,0,0-14.032" transform="translate(-95.052 -363.557)" fill="#52565a"/>
    </g>
    <g id="Grupo_16335" data-name="Grupo 16335" transform="translate(9935.709 -2793.478)">
      <path id="Trazado_24892" data-name="Trazado 24892" d="M168.726,363.03a14.519,14.519,0,0,1-4.209-.615,14.527,14.527,0,0,1-4.21.615c-6.19,0-11.226-3.776-11.226-8.42s5.036-8.419,11.226-8.419a14.5,14.5,0,0,1,4.21.615,14.494,14.494,0,0,1,4.209-.615c6.19,0,11.226,3.776,11.226,8.419S174.916,363.03,168.726,363.03Zm-4.209-3.49a1.428,1.428,0,0,1,.45.074,11.681,11.681,0,0,0,3.759.609c4.564,0,8.42-2.571,8.42-5.613S173.29,349,168.726,349a11.661,11.661,0,0,0-3.759.61,1.419,1.419,0,0,1-.9,0,11.646,11.646,0,0,0-3.757-.61c-4.563,0-8.42,2.571-8.42,5.613s3.856,5.613,8.42,5.613a11.642,11.642,0,0,0,3.759-.611,1.428,1.428,0,0,1,.451-.073Z" transform="translate(-149.081 -346.191)" fill="#00223d"/>
    </g>
    <g id="Grupo_16336" data-name="Grupo 16336" transform="translate(9956.758 -2787.865)">
      <path id="Trazado_24893" data-name="Trazado 24893" d="M180.13,358.119a2.1,2.1,0,1,1,2.105-2.1A2.108,2.108,0,0,1,180.13,358.119Z" transform="translate(-178.025 -353.909)" fill="#00223d"/>
    </g>
    <g id="Grupo_16337" data-name="Grupo 16337" transform="translate(9941.322 -2787.865)">
      <path id="Trazado_24894" data-name="Trazado 24894" d="M158.9,358.119a2.1,2.1,0,1,1,2.1-2.1A2.108,2.108,0,0,1,158.9,358.119Z" transform="translate(-156.799 -353.909)" fill="#00223d"/>
    </g>
    <g id="Grupo_16338" data-name="Grupo 16338" transform="translate(9934.306 -2817.333)">
      <path id="Trazado_24895" data-name="Trazado 24895" d="M179.422,345.761l-2.8-.2L178,326.3c.015-.219.024-.445.024-.67a9.448,9.448,0,0,0-9.437-9.437h-9.193a9.448,9.448,0,0,0-9.436,9.437c0,.225.009.451.025.673l1.374,19.258-2.8.2L147.184,326.5c-.021-.292-.033-.58-.033-.871a12.257,12.257,0,0,1,12.243-12.243h9.193a12.257,12.257,0,0,1,12.242,12.243c0,.291-.011.58-.03.869Z" transform="translate(-147.151 -313.387)" fill="#00223d"/>
    </g>
    <g id="Grupo_16339" data-name="Grupo 16339" transform="translate(9958.161 -2804.703)">
      <path id="Trazado_24896" data-name="Trazado 24896" d="M182.06,334.964a2.1,2.1,0,1,1,2.105-2.105A2.107,2.107,0,0,1,182.06,334.964Z" transform="translate(-179.955 -330.754)" fill="#00223d"/>
    </g>
    <g id="Grupo_16340" data-name="Grupo 16340" transform="translate(9939.919 -2804.703)">
      <path id="Trazado_24897" data-name="Trazado 24897" d="M156.975,334.964a2.1,2.1,0,1,1,2.105-2.105A2.107,2.107,0,0,1,156.975,334.964Z" transform="translate(-154.87 -330.754)" fill="#00223d"/>
    </g>
    <g id="Grupo_16341" data-name="Grupo 16341" transform="translate(9932.903 -2824.348)">
      <path id="Trazado_24898" data-name="Trazado 24898" d="M148.439,318.764l-1.009-1.009a7.487,7.487,0,0,1-2.209-5.332,7.58,7.58,0,0,1,3.016-6.034l3.158-2.369a1.4,1.4,0,0,1,2.245,1.123,12.47,12.47,0,0,0,2.1,6.933l.471.708-2.335,1.556-.471-.707a15.275,15.275,0,0,1-2.343-5.854l-1.14.854a4.739,4.739,0,0,0-.508,7.14l1.009,1.009Z" transform="translate(-145.222 -303.74)" fill="#00223d"/>
    </g>
    <g id="Grupo_16342" data-name="Grupo 16342" transform="translate(9958.396 -2824.348)">
      <path id="Trazado_24899" data-name="Trazado 24899" d="M188.051,318.764l-1.984-1.985,1.009-1.009a4.736,4.736,0,0,0-.508-7.137l-1.139-.854a15.286,15.286,0,0,1-2.344,5.855l-.471.707-2.335-1.556.471-.707a12.486,12.486,0,0,0,2.1-6.936,1.4,1.4,0,0,1,2.245-1.123l3.158,2.369a7.577,7.577,0,0,1,3.017,6.034,7.491,7.491,0,0,1-2.209,5.333Z" transform="translate(-180.279 -303.74)" fill="#00223d"/>
    </g>
    <g id="Grupo_16343" data-name="Grupo 16343" transform="translate(9927.29 -2810.317)">
      <path id="Trazado_24900" data-name="Trazado 24900" d="M140.615,335.664h-1.709a1.4,1.4,0,0,1-1.4-1.4v-3.784a7.443,7.443,0,0,1,7.441-7.441h.978v2.807h-.978a4.636,4.636,0,0,0-4.635,4.634v2.382h.306a4.609,4.609,0,0,0,3.277-1.357l1.038-1.038,1.984,1.984-1.038,1.038a7.391,7.391,0,0,1-5.261,2.179Z" transform="translate(-137.503 -323.035)" fill="#00223d"/>
    </g>
    <g id="Grupo_16344" data-name="Grupo 16344" transform="translate(9965.588 -2810.317)">
      <path id="Trazado_24901" data-name="Trazado 24901" d="M198.176,335.664h-1.709a7.393,7.393,0,0,1-5.261-2.179l-1.038-1.038,1.985-1.984,1.038,1.038a4.607,4.607,0,0,0,3.276,1.357h.306v-2.382a4.636,4.636,0,0,0-4.635-4.634h-.978v-2.807h.978a7.441,7.441,0,0,1,7.442,7.441v3.784a1.4,1.4,0,0,1-1.4,1.4Z" transform="translate(-190.168 -323.035)" fill="#00223d"/>
    </g>
    <g id="Grupo_16345" data-name="Grupo 16345" transform="translate(9949.741 -2816.981)">
      <path id="Trazado_24902" data-name="Trazado 24902" d="M181.006,335.971a12.629,12.629,0,0,1-8.353-22.1l1.857,2.1a9.824,9.824,0,0,0,10.178,16.476l1.055,2.6a12.561,12.561,0,0,1-4.737.919Z" transform="translate(-168.377 -313.87)" fill="#00223d"/>
    </g>
    <g id="Grupo_16346" data-name="Grupo 16346" transform="translate(9893.716 -2800.49)">
      <path id="Trazado_24903" data-name="Trazado 24903" d="M96.886,390.206l-4.21-16.838a1.347,1.347,0,0,1-.039-.247l-1.271-19.07a13.96,13.96,0,0,1,.388-4.337l.148-.6a14.047,14.047,0,0,1,12.344-10.574l21.938-1.994.255,2.8L104.5,341.337a11.239,11.239,0,0,0-9.876,8.456l-.148.6a11.21,11.21,0,0,0-.312,3.472l1.263,18.944,4.179,16.718Z" transform="translate(-91.335 -336.548)" fill="#00223d"/>
    </g>
    <g id="Grupo_16347" data-name="Grupo 16347" transform="translate(9896.419 -2748.575)">
      <path id="Trazado_24904" data-name="Trazado 24904" d="M107.681,419.164H96.455a1.4,1.4,0,0,1-1.4-1.4v-2.807a7.016,7.016,0,1,1,14.032,0v2.807A1.4,1.4,0,0,1,107.681,419.164Zm-9.822-2.806h8.42v-1.4a4.21,4.21,0,0,0-8.42,0Z" transform="translate(-95.052 -407.938)" fill="#00223d"/>
    </g>
    <g id="Grupo_16348" data-name="Grupo 16348" transform="translate(9905.537 -2748.575)">
      <path id="Trazado_24905" data-name="Trazado 24905" d="M116.714,419.164H111.1v-2.806h4.21v-1.4A4.212,4.212,0,0,0,109,411.306l-1.409-2.427a7.018,7.018,0,0,1,10.527,6.076v2.807a1.4,1.4,0,0,1-1.4,1.4Z" transform="translate(-107.59 -407.938)" fill="#00223d"/>
    </g>
    <g id="Grupo_16349" data-name="Grupo 16349" transform="translate(9903.44 -2770.251)">
      <path id="Trazado_24906" data-name="Trazado 24906" d="M107.5,401.367l-2.791-.273v-.017a67.284,67.284,0,0,1,6.6-21.826l.56-1.121,2.51,1.256-.559,1.121A64.418,64.418,0,0,0,107.5,401.367Z" transform="translate(-104.707 -378.13)" fill="#00223d"/>
    </g>
    <g id="Grupo_16350" data-name="Grupo 16350" transform="translate(9909.062 -2762.607)">
      <path id="Trazado_24907" data-name="Trazado 24907" d="M115.216,404.277l-2.779-.4.611-4.266a78.119,78.119,0,0,0,.779-10.972h2.806a80.72,80.72,0,0,1-.807,11.369Z" transform="translate(-112.437 -388.642)" fill="#00223d"/>
    </g>
    <g id="Grupo_16351" data-name="Grupo 16351" transform="translate(9908.604 -2765.342)">
      <path id="Trazado_24908" data-name="Trazado 24908" d="M128.593,390.422h-.406a47.619,47.619,0,0,1-15.087-2.449l-1.292-.431.889-2.661,1.291.431a44.887,44.887,0,0,0,14.2,2.3h.406a44.855,44.855,0,0,0,14.2-2.3l1.292-.431.888,2.661-1.291.43A47.571,47.571,0,0,1,128.593,390.422Z" transform="translate(-111.808 -384.881)" fill="#00223d"/>
    </g>
    <g id="Grupo_16352" data-name="Grupo 16352" transform="translate(9902.031 -2742.961)">
      <path id="Trazado_24909" data-name="Trazado 24909" d="M102.77,415.657h2.806v4.21H102.77Z" transform="translate(-102.77 -415.657)" fill="#00223d"/>
    </g>
    <g id="Grupo_16353" data-name="Grupo 16353" transform="translate(9939.919 -2748.575)">
      <path id="Trazado_24910" data-name="Trazado 24910" d="M167.5,419.164H156.273a1.4,1.4,0,0,1-1.4-1.4v-2.807a7.016,7.016,0,1,1,14.032,0v2.807A1.4,1.4,0,0,1,167.5,419.164Zm-9.822-2.806h8.42v-1.4a4.21,4.21,0,0,0-8.42,0Z" transform="translate(-154.87 -407.938)" fill="#00223d"/>
    </g>
    <g id="Grupo_16354" data-name="Grupo 16354" transform="translate(9949.037 -2748.575)">
      <path id="Trazado_24911" data-name="Trazado 24911" d="M176.532,419.164h-5.613v-2.806h4.21v-1.4a4.212,4.212,0,0,0-6.311-3.648l-1.409-2.427a7.018,7.018,0,0,1,10.527,6.076v2.807a1.4,1.4,0,0,1-1.4,1.4Z" transform="translate(-167.408 -407.938)" fill="#00223d"/>
    </g>
    <g id="Grupo_16355" data-name="Grupo 16355" transform="translate(9945.531 -2742.961)">
      <path id="Trazado_24912" data-name="Trazado 24912" d="M162.588,415.657h2.806v4.21h-2.806Z" transform="translate(-162.588 -415.657)" fill="#00223d"/>
    </g>
    <g id="Grupo_16356" data-name="Grupo 16356" transform="translate(9939.919 -2769.623)">
      <path id="Trazado_24913" data-name="Trazado 24913" d="M157.708,403.153l-.4-1.8a102.727,102.727,0,0,1-2.438-22.222l2.806-.136a100.126,100.126,0,0,0,2.373,21.749l.4,1.8Z" transform="translate(-154.87 -378.994)" fill="#00223d"/>
    </g>
    <g id="Grupo_16357" data-name="Grupo 16357" transform="translate(9948.347 -2768.219)">
      <path id="Trazado_24914" data-name="Trazado 24914" d="M169.249,403.53l-2.79-.311.321-2.9a175.75,175.75,0,0,0,1.073-19.371l2.806-.029a179.358,179.358,0,0,1-1.089,19.71Z" transform="translate(-166.459 -380.924)" fill="#00223d"/>
    </g>
    <g id="Grupo_16358" data-name="Grupo 16358" transform="translate(9950.367 -2778.042)">
      <path id="Trazado_24915" data-name="Trazado 24915" d="M170.794,384.02l-1.556-2.335.3-.2a16.808,16.808,0,0,0,7.5-14.01l2.806-.06v.06a19.608,19.608,0,0,1-8.748,16.345Z" transform="translate(-169.238 -367.416)" fill="#00223d"/>
    </g>
    <g id="Grupo_16359" data-name="Grupo 16359" transform="translate(9952.592 -2768.219)">
      <path id="Trazado_24916" data-name="Trazado 24916" d="M175.017,402.313l-2.721-.682.46-1.841a77.36,77.36,0,0,0,2.3-18.718v-.148h2.807v.148a79.989,79.989,0,0,1-2.389,19.4Z" transform="translate(-172.296 -380.924)" fill="#00223d"/>
    </g>
    <g id="Grupo_16360" data-name="Grupo 16360" transform="translate(9887.999 -2794.828)">
      <path id="Trazado_24917" data-name="Trazado 24917" d="M90.49,391.991a1.4,1.4,0,0,1-.842-.281l-3.929-2.947a5.642,5.642,0,0,1-2.245-4.49V358.707a15.012,15.012,0,0,1,10.841-14.372l.77,2.7a12.191,12.191,0,0,0-8.805,11.672v19.788l2.51,1.256a5.582,5.582,0,0,1,3.1,5.019v5.818a1.4,1.4,0,0,1-.776,1.256A1.42,1.42,0,0,1,90.49,391.991Zm-4.21-10.358v2.641a2.819,2.819,0,0,0,1.124,2.246l1.682,1.262V384.77a2.792,2.792,0,0,0-1.55-2.51Z" transform="translate(-83.474 -344.334)" fill="#00223d"/>
    </g>
    <g id="Grupo_16361" data-name="Grupo 16361" transform="translate(9906.241 -2798.531)">
      <path id="Trazado_24918" data-name="Trazado 24918" d="M116.979,352.714a8.421,8.421,0,0,1-6.736-13.472l2.246,1.686a5.561,5.561,0,0,0-1.123,3.368,5.613,5.613,0,0,0,11.226,0,5.551,5.551,0,0,0-1.121-3.366l2.243-1.686A8.327,8.327,0,0,1,125.4,344.3,8.427,8.427,0,0,1,116.979,352.714Z" transform="translate(-108.559 -339.242)" fill="#00223d"/>
    </g>
    <g id="Grupo_16362" data-name="Grupo 16362" transform="translate(9916.063 -2785.059)">
      <path id="Trazado_24919" data-name="Trazado 24919" d="M136.1,377.413a7.026,7.026,0,0,1-6.874-5.614h-.142a7.016,7.016,0,1,1,6.874-8.418h.142a7.016,7.016,0,1,1,0,14.032Zm-5.591-8.624a1.4,1.4,0,0,1,1.4,1.459c0,.048-.017.188-.024.236a4.309,4.309,0,1,0,3.147-4.139,1.4,1.4,0,0,1-1.76-1.412c0-.048.017-.191.024-.237a4.3,4.3,0,1,0-3.143,4.138,1.4,1.4,0,0,1,.353-.046Z" transform="translate(-122.066 -357.768)" fill="#00223d"/>
    </g>
    <g id="Grupo_16363" data-name="Grupo 16363" transform="translate(9896.419 -2782.251)">
      <path id="Trazado_24920" data-name="Trazado 24920" d="M95.052,378.466V375.66a5.613,5.613,0,0,0,0-11.226v-2.806a8.419,8.419,0,0,1,0,16.838Z" transform="translate(-95.052 -361.628)" fill="#00223d"/>
    </g>
    <g id="Grupo_16364" data-name="Grupo 16364" transform="translate(9913.258 -2762.607)">
      <path id="Trazado_24921" data-name="Trazado 24921" d="M128.029,397.062c-5.415,0-9.822-3.776-9.822-8.42h2.806c0,3.1,3.147,5.613,7.016,5.613s7.016-2.518,7.016-5.613h2.807C137.852,393.285,133.445,397.062,128.029,397.062Z" transform="translate(-118.207 -388.642)" fill="#00223d"/>
    </g>
    <g id="Grupo_16366" data-name="Grupo 16366" transform="translate(9918.87 -2755.591)">
      <g id="Grupo_16365" data-name="Grupo 16365">
        <path id="Trazado_24922" data-name="Trazado 24922" d="M125.925,398.29h2.807v4.21h-2.807Z" transform="translate(-125.925 -398.29)" fill="#00223d"/>
      </g>
    </g>
    <g id="Grupo_16368" data-name="Grupo 16368" transform="translate(9924.483 -2755.591)">
      <g id="Grupo_16367" data-name="Grupo 16367">
        <path id="Trazado_24923" data-name="Trazado 24923" d="M133.644,398.29h2.806v4.21h-2.806Z" transform="translate(-133.644 -398.29)" fill="#00223d"/>
      </g>
    </g>
    <path id="Trazado_24924" data-name="Trazado 24924" d="M283.128,417.028l-22.455,42.737,13.039.725a13.5,13.5,0,0,1,8.692-10.866v10.141a131.535,131.535,0,0,1,14.487,10.866s-14.487,3.622-21.731-5.8c0,0-10.141,5.071-19.557,2.9-16.295-3.76-21.007-21.006-13.039-36.218S272.263,411.233,283.128,417.028Z" transform="translate(9313.98 -3210.023)" fill="#ff9940"/>
    <path id="Trazado_24925" data-name="Trazado 24925" d="M275.885,461.254s-10.141,5.07-19.558,2.9c-12.52-2.889-18.2-13.74-16.547-25.512-3.455,13.085,2.04,25.914,15.823,29.094,9.416,2.173,19.557-2.9,19.557-2.9,7.244,9.417,21.731,5.8,21.731,5.8-1.15-1.022-2.345-2.022-3.533-2.975C288.507,468,280.637,467.432,275.885,461.254Z" transform="translate(9313.98 -3210.023)" fill="#f5760f"/>
    <path id="Trazado_24926" data-name="Trazado 24926" d="M281.367,416.221c-7.3-2.864-18.186-1.67-27.025,3.415a14.5,14.5,0,0,0,18.479,17.01l9.5-18.083.807-1.535A16.857,16.857,0,0,0,281.367,416.221Z" transform="translate(9313.98 -3210.023)" fill="#ffd042"/>
    <path id="Trazado_25737" data-name="Trazado 25737" d="M2.173,0A2.173,2.173,0,1,1,0,2.173,2.173,2.173,0,0,1,2.173,0Z" transform="translate(9577.552 -2790.098)" fill="#928d86"/>
    <path id="Trazado_25738" data-name="Trazado 25738" d="M7.968,0A7.968,7.968,0,1,1,0,7.968,7.968,7.968,0,0,1,7.968,0Z" transform="translate(9620.289 -2805.31)" fill="#ffd042"/>
    <path id="Trazado_24927" data-name="Trazado 24927" d="M309.762,412.682A7.968,7.968,0,0,1,316,404.9a7.968,7.968,0,1,0,0,15.556A7.969,7.969,0,0,1,309.762,412.682Z" transform="translate(9313.98 -3210.023)" fill="#ffc412"/>
    <path id="Trazado_24928" data-name="Trazado 24928" d="M287.643,394.157c-1.03,3.03-9.217,9.108-9.217,9.108s-2.786-9.808-1.757-12.838a5.8,5.8,0,1,1,10.974,3.73Z" transform="translate(9313.98 -3210.023)" fill="#64dde3"/>
    <path id="Trazado_24929" data-name="Trazado 24929" d="M279.567,391.876a5.8,5.8,0,0,1,6.525-3.837,5.794,5.794,0,0,0-9.423,2.388c-1.03,3.03,1.757,12.838,1.757,12.838s.885-.657,2.109-1.646C279.8,398.475,278.911,393.8,279.567,391.876Z" transform="translate(9313.98 -3210.023)" fill="#37c9d4"/>
    <path id="Trazado_24930" data-name="Trazado 24930" d="M305.075,459.4c-3.044-.987-9.237-9.087-9.237-9.087s9.767-2.925,12.812-1.938a5.8,5.8,0,1,1-3.575,11.025Z" transform="translate(9313.98 -3210.023)" fill="#64dde3"/>
    <path id="Trazado_24931" data-name="Trazado 24931" d="M312.375,452.134a5.8,5.8,0,0,1-7.3,3.725c-1.831-.593-4.8-3.761-6.878-6.191-1.4.363-2.359.649-2.359.649s6.193,8.1,9.238,9.087a5.793,5.793,0,0,0,7.3-7.283Z" transform="translate(9313.98 -3210.023)" fill="#37c9d4"/>
    <path id="Trazado_24932" data-name="Trazado 24932" d="M251.662,398.12c2.207,2.317,3.8,12.389,3.8,12.389s-9.982-2.077-12.19-4.394a5.8,5.8,0,0,1,8.391-7.995Z" transform="translate(9313.98 -3210.023)" fill="#64dde3"/>
    <path id="Trazado_24933" data-name="Trazado 24933" d="M246.141,405.09a5.8,5.8,0,0,1,.2-8.193,5.908,5.908,0,0,1,.679-.556,5.795,5.795,0,0,0-3.747,9.775c2.208,2.317,12.19,4.393,12.19,4.393s-.111-.7-.315-1.782C252.023,407.918,247.534,406.551,246.141,405.09Z" transform="translate(9313.98 -3210.023)" fill="#37c9d4"/>
    <g id="Grupo_16370" data-name="Grupo 16370" transform="translate(9313.98 -3210.023)">
      <circle id="Elipse_887" data-name="Elipse 887" cx="1.811" cy="1.811" r="1.811" transform="translate(282.236 390.227)" fill="#89ebf0"/>
      <circle id="Elipse_888" data-name="Elipse 888" cx="1.811" cy="1.811" r="1.811" transform="translate(306.14 451.072)" fill="#89ebf0"/>
      <circle id="Elipse_889" data-name="Elipse 889" cx="1.811" cy="1.811" r="1.811" transform="translate(246.742 398.918)" fill="#89ebf0"/>
    </g>
    <path id="Trazado_24934" data-name="Trazado 24934" d="M306.359,411.791l14.088,5.931a7.934,7.934,0,0,0,1.8-5.04c0-.033,0-.066,0-.1l-13.461-5.668A7.945,7.945,0,0,0,306.359,411.791Z" transform="translate(9313.98 -3210.023)" fill="#ff9940"/>
    <path id="Trazado_24935" data-name="Trazado 24935" d="M311.3,407.976l-2.52-1.061a7.947,7.947,0,0,0-2.422,4.875l3.424,1.442c-.013-.182-.021-.365-.021-.551A7.93,7.93,0,0,1,311.3,407.976Z" transform="translate(9313.98 -3210.023)" fill="#f5760f"/>
    <path id="Trazado_24936" data-name="Trazado 24936" d="M262.212,422.1a3.531,3.531,0,1,0,3.532-3.532A3.536,3.536,0,0,0,262.212,422.1Zm4.347,0a.815.815,0,1,1-.815-.815A.816.816,0,0,1,266.559,422.1Z" transform="translate(9313.98 -3210.023)" fill="#00223d"/>
    <path id="Trazado_24937" data-name="Trazado 24937" d="M324.739,384.614a1.358,1.358,0,0,0-1.757.776c-.385,1-3.415,9.114-6.632,18.2a9.323,9.323,0,0,0-5.9,17.591c-.134.444-.259.869-.373,1.265-3.555,12.338-7.685,14.1-8.866,14.351a2.619,2.619,0,0,1-2.676-1.052c-1.481-1.782-2.233-5.744-.384-10.233,2.942-7.145,7.5-19.993,4.994-25.755a5.01,5.01,0,0,0-2.876-2.835c-3.829-1.437-8.135,1.556-12.8,8.893a79.676,79.676,0,0,0-5.019,9.382c-5.61-2.428-13.291-2.508-20.906-.159-9.007,2.778-16.363,8.553-20.183,15.846-4.537,8.661-5.184,18.317-1.732,25.83A22.194,22.194,0,0,0,255.3,469.057a23.685,23.685,0,0,0,5.327.579,37.489,37.489,0,0,0,14.154-3.13c3.22,3.653,7.994,5.761,13.883,6.114.622.038,1.227.054,1.809.054a30.4,30.4,0,0,0,6.751-.726,1.37,1.37,0,0,0,.573-2.332,130.235,130.235,0,0,0-14.032-10.59v-9.4a1.371,1.371,0,0,0-1.822-1.276,14.619,14.619,0,0,0-9.358,10.718l-9.724-.54L279,427.8a1.358,1.358,0,1,0-2.4-1.263l-4.716,8.975c-.042.007-.084.015-.126.026a13.143,13.143,0,0,1-16.412-12.716c0-.389.014-.779.051-1.166a6.513,6.513,0,0,0,.106-1.112,35.821,35.821,0,0,1,6.843-2.91c6.857-2.115,13.952-2.088,18.925.012l-2.409,4.585a1.358,1.358,0,0,0,2.405,1.263s5.377-11.312,8.5-16.221c3.768-5.931,7.16-8.7,9.551-7.807a2.335,2.335,0,0,1,1.339,1.376c1.518,3.486-.357,12.322-5.015,23.637-1.982,4.812-1.657,10.037.807,13a5.459,5.459,0,0,0,5.322,1.975c4.279-.9,8.157-6.67,10.919-16.258.114-.4.241-.825.376-1.273a9.322,9.322,0,0,0,5.823-17.348c3.217-9.092,6.248-17.215,6.632-18.208A1.357,1.357,0,0,0,324.739,384.614Zm-56.266,54.054a15.957,15.957,0,0,0,1.805-.1l-10.807,20.57a1.358,1.358,0,0,0,1.127,1.987l13.038.725a1.366,1.366,0,0,0,1.428-1.229,12.145,12.145,0,0,1,5.982-8.889v8.037a1.357,1.357,0,0,0,.629,1.146,137.729,137.729,0,0,1,12.12,8.854c-4.346.483-12.767.471-17.558-5.757a1.359,1.359,0,0,0-1.684-.387c-.1.049-9.806,4.829-18.645,2.789-6.465-1.492-11.241-5.237-13.811-10.829-3.1-6.754-2.479-15.514,1.67-23.435a27.922,27.922,0,0,1,8.87-9.816c0,.165-.01.329-.01.493A15.864,15.864,0,0,0,268.473,438.668Zm51.49-22.623-12.069-5.082a6.61,6.61,0,0,1,1.238-2.426l11.706,4.929A6.561,6.561,0,0,1,319.963,416.045Zm-12.19-2.185,10.2,4.3a6.607,6.607,0,0,1-10.2-4.3Zm12.691-3.5-8.851-3.726a6.6,6.6,0,0,1,8.851,3.726Z" transform="translate(9313.98 -3210.023)" fill="#00223d"/>
    <path id="Trazado_24938" data-name="Trazado 24938" d="M250.715,438.684a2.264,2.264,0,0,1-3.6-2.747,1.358,1.358,0,1,0-2.16-1.648,4.98,4.98,0,0,0,7.918,6.042,1.358,1.358,0,0,0-2.159-1.647Z" transform="translate(9313.98 -3210.023)" fill="#00223d"/>
    <path id="Trazado_24939" data-name="Trazado 24939" d="M256.035,447.788a4.985,4.985,0,0,0,6.98-.938,1.358,1.358,0,0,0-2.159-1.648,2.263,2.263,0,1,1-3.6-2.746,1.358,1.358,0,1,0-2.16-1.648A4.986,4.986,0,0,0,256.035,447.788Z" transform="translate(9313.98 -3210.023)" fill="#00223d"/>
    <path id="Trazado_24940" data-name="Trazado 24940" d="M252.181,449.573a2.263,2.263,0,1,1-3.6-2.746,1.358,1.358,0,0,0-2.16-1.648,4.98,4.98,0,0,0,7.918,6.042,1.358,1.358,0,1,0-2.16-1.648Z" transform="translate(9313.98 -3210.023)" fill="#00223d"/>
    <path id="Trazado_24941" data-name="Trazado 24941" d="M277.989,404.551a1.369,1.369,0,0,0,1.247-.2c1.424-1.058,8.583-6.5,9.692-9.762a7.153,7.153,0,1,0-13.545-4.6c-1.11,3.266,1.252,11.941,1.737,13.646A1.358,1.358,0,0,0,277.989,404.551Zm-.034-13.687a4.437,4.437,0,1,1,8.4,2.856h0c-.545,1.605-4.189,4.88-7.141,7.224C278.273,397.152,277.434,392.4,277.955,390.864Z" transform="translate(9313.98 -3210.023)" fill="#00223d"/>
    <path id="Trazado_24942" data-name="Trazado 24942" d="M309.069,447.087c-3.281-1.064-11.922,1.42-13.621,1.929a1.371,1.371,0,0,0-.689,2.126c1.077,1.409,6.616,8.49,9.9,9.554h0a7.153,7.153,0,0,0,4.413-13.609Zm2.014,8.173a4.442,4.442,0,0,1-5.589,2.852h0c-1.612-.523-4.938-4.12-7.324-7.039,3.778-1,8.52-1.9,10.061-1.4A4.442,4.442,0,0,1,311.083,455.26Z" transform="translate(9313.98 -3210.023)" fill="#00223d"/>
    <path id="Trazado_24943" data-name="Trazado 24943" d="M255.185,411.838A1.372,1.372,0,0,0,256.8,410.3c-.277-1.752-1.779-10.617-4.158-13.114a7.153,7.153,0,1,0-10.357,9.869C244.667,409.549,253.448,411.477,255.185,411.838Zm-10.779-12.932a4.442,4.442,0,0,1,6.273.151c1.169,1.227,2.382,5.975,3.091,9.677-3.663-.887-8.346-2.328-9.516-3.555A4.443,4.443,0,0,1,244.406,398.906Z" transform="translate(9313.98 -3210.023)" fill="#00223d"/>
    <g id="Filled" transform="translate(9726.162 -2986.623)">
      <path id="Trazado_24944" data-name="Trazado 24944" d="M364.473,521.252c0,5.325-4.933,8.264-11.019,8.264s-11.02-2.939-11.02-8.264,4.934-9.642,11.02-9.642S364.473,515.926,364.473,521.252Z" transform="translate(-341.41 -478.553)" fill="#cf3f30"/>
      <path id="Trazado_24945" data-name="Trazado 24945" d="M402.4,526.77c-1.629,3.437-.422,7.42,5.765,10.351s16.64.263,16.64.263-4.557-9.78-10.745-12.71S404.023,523.332,402.4,526.77Z" transform="translate(-351.127 -480.442)" fill="#66bb6a"/>
      <path id="Trazado_24946" data-name="Trazado 24946" d="M420.635,531.565a15.172,15.172,0,0,1-18.738-2.382c-.71,3.074.914,6.394,6.264,8.928,6.187,2.931,16.64.263,16.64.263A42.18,42.18,0,0,0,420.635,531.565Z" transform="translate(-351.127 -481.432)" fill="#49ad4d"/>
      <path id="Trazado_24947" data-name="Trazado 24947" d="M401.737,495.112c0,5.325,4.933,8.264,11.019,8.264s11.02-2.939,11.02-8.264-4.933-9.642-11.02-9.642S401.737,489.786,401.737,495.112Z" transform="translate(-351.127 -474.27)" fill="#cf3f30"/>
      <path id="Trazado_24948" data-name="Trazado 24948" d="M402.538,487.62c-1.745-3.683-.563-7.9,5.8-10.912s17.233,0,17.233,0-4.555,10.323-10.915,13.336-10.371,1.256-12.115-2.427Z" transform="translate(-351.138 -472.615)" fill="#81c784"/>
      <path id="Trazado_24949" data-name="Trazado 24949" d="M425.569,476.8a41.092,41.092,0,0,0-4.335-.884,18.912,18.912,0,0,1-19.42,8.878,7.2,7.2,0,0,0,.725,2.915c1.745,3.682,5.755,5.438,12.115,2.427S425.569,476.8,425.569,476.8Z" transform="translate(-351.139 -472.705)" fill="#66bb6a"/>
      <path id="Trazado_24950" data-name="Trazado 24950" d="M363.614,475.7c1.629,3.437.422,7.421-5.765,10.352s-16.64.262-16.64.262,4.557-9.779,10.744-12.71S361.986,472.266,363.614,475.7Z" transform="translate(-341.209 -472.075)" fill="#66bb6a"/>
      <path id="Trazado_24951" data-name="Trazado 24951" d="M365.036,475.7c-1.579-3.334-5.245-4.929-11.109-2.348a12.785,12.785,0,0,1-4.044,14.02c3.12.175,6.667-.031,9.388-1.32C365.458,483.125,366.664,479.141,365.036,475.7Z" transform="translate(-342.63 -472.075)" fill="#49ad4d"/>
      <path id="Trazado_24952" data-name="Trazado 24952" d="M389.75,560.488c-.314,0-.624.017-.931.042a11.01,11.01,0,0,0-14.665,0c-.308-.025-.618-.042-.931-.042A11.019,11.019,0,0,0,362.2,571.507h38.566A11.019,11.019,0,0,0,389.75,560.488Z" transform="translate(-344.649 -486.11)" fill="#a1887f"/>
      <path id="Trazado_24953" data-name="Trazado 24953" d="M367.792,478.447c2.972,2.374,3.637,6.482-.635,11.832s-14.836,7.541-14.836,7.541-.2-10.786,4.073-16.137,8.426-5.609,11.4-3.236Z" transform="translate(-343.029 -472.885)" fill="#81c784"/>
      <path id="Trazado_24954" data-name="Trazado 24954" d="M399.235,529.513c-2.972,2.373-3.636,6.482.635,11.831s14.836,7.541,14.836,7.541.2-10.787-4.073-16.137-8.426-5.61-11.4-3.236Z" transform="translate(-350.324 -481.252)" fill="#81c784"/>
      <path id="Trazado_24955" data-name="Trazado 24955" d="M374.357,527.841c0,5.325-4.933,8.264-11.019,8.264s-11.019-2.939-11.019-8.264,4.933-9.642,11.019-9.642S374.357,522.515,374.357,527.841Z" transform="translate(-343.029 -479.633)" fill="#ea6049"/>
      <path id="Trazado_24956" data-name="Trazado 24956" d="M391.854,501.7c0,5.325,4.933,8.264,11.019,8.264s11.019-2.94,11.019-8.264-4.933-9.642-11.019-9.642S391.854,496.376,391.854,501.7Z" transform="translate(-349.507 -475.35)" fill="#ea6049"/>
      <path id="Trazado_24957" data-name="Trazado 24957" d="M370.139,483.527a20.117,20.117,0,0,1-17.44,9.7,41.58,41.58,0,0,0-.379,5.658s10.564-2.192,14.836-7.541C369.582,488.309,370.414,485.673,370.139,483.527Z" transform="translate(-343.03 -473.952)" fill="#66bb6a"/>
      <path id="Trazado_24958" data-name="Trazado 24958" d="M371.622,521.788a9.827,9.827,0,0,1,.28,2.327c0,5.768-4.982,9.642-12.4,9.642a17.365,17.365,0,0,1-5.356-.79c1.918,2.429,5.448,3.726,9.489,3.726,6.085,0,11.019-2.939,11.019-8.264A9.008,9.008,0,0,0,371.622,521.788Z" transform="translate(-343.329 -480.221)" fill="#de513e"/>
      <path id="Trazado_24959" data-name="Trazado 24959" d="M398.637,541.3a18.625,18.625,0,0,0,1.529,2.207c4.272,5.35,14.836,7.541,14.836,7.541a42.1,42.1,0,0,0-.784-8.1A17.9,17.9,0,0,1,398.637,541.3Z" transform="translate(-350.619 -483.418)" fill="#66bb6a"/>
      <path id="Trazado_24960" data-name="Trazado 24960" d="M392.807,560.711c-.314,0-.624.017-.931.042a11.049,11.049,0,0,0-2.458-1.661,22.059,22.059,0,0,1-8.555,12.638h22.963A11.019,11.019,0,0,0,392.807,560.711Z" transform="translate(-347.706 -486.333)" fill="#9c7b70"/>
      <path id="Trazado_24961" data-name="Trazado 24961" d="M411.157,495.648a9.831,9.831,0,0,1,.279,2.327c0,5.768-4.981,9.642-12.4,9.642a17.386,17.386,0,0,1-5.356-.789c1.918,2.429,5.448,3.726,9.489,3.726,6.085,0,11.019-2.94,11.019-8.264A9.011,9.011,0,0,0,411.157,495.648Z" transform="translate(-349.807 -475.938)" fill="#de513e"/>
    </g>
    <g id="Outline" transform="translate(9718.926 -2988)">
      <path id="Trazado_24962" data-name="Trazado 24962" d="M419.326,556.631H397.21a12.411,12.411,0,0,0-12.781-11.01,12.374,12.374,0,0,0-6.424-2.685v-20.15c2.506-2.261,5.828-3.763,8.663-1.855-3.238,3.807-1.555,8.69,1.593,12.632,4.192,5.248,14.774,8.059,15.912,8.059a1.376,1.376,0,0,0,1.377-1.352c.009-.461.156-11.348-4.374-17.021-3.289-4.118-7.863-6.793-12.342-4.137-3.314-2.67-7.244-2.188-10.83.2,0-13.529,0-14.775,0-27.412,0-3.822,6.827-11,12.813-3.752-5.722.975-10.059,5.454-10.059,10.82,0,7.016,7.035,10.2,14.1,9.566a1.377,1.377,0,1,0-.247-2.743c-2.8.253-6.148-.2-8.459-1.821-5-3.513-2.617-11.268,4.395-12.958l-2.629,3.505a1.377,1.377,0,0,0,2.2,1.652l1.653-2.2v2.754a1.377,1.377,0,1,0,2.754,0v-2.754c1.421,1.675,1.635,2.754,2.756,2.754a1.378,1.378,0,0,0,1.1-2.2l-2.628-3.505c5.468,1.319,8.081,6.251,6.672,10.093a1.377,1.377,0,1,0,2.583.958l0-.01c2.256-6.156-2.671-13.526-10.94-14.071-3.616-5.985-10.72-8.068-16.075-2.27v-7.586a1.378,1.378,0,0,0-2.755,0v4.716a11.966,11.966,0,0,0-10.308-6.088c-4.54-3.165-9.382-.557-12.863,3.8-4.53,5.672-4.382,16.561-4.374,17.021a1.378,1.378,0,0,0,1.4,1.352,1.462,1.462,0,0,0,.255-.028c.451-.094,11.1-2.358,15.633-8.031,2.542-3.182,4.366-7.193,2.7-10.889,6.078,1.993,7.555,9.7,7.555,12.661v6.247c-5.94.829-13.849,6.609-16.071,10.95-15.144.993-16.274,22.176,2.574,20.557a1.377,1.377,0,0,0-.236-2.744c-13.663,1.172-14.077-11.878-4.5-14.655l-2.152,2.87a1.377,1.377,0,1,0,2.2,1.652l1.653-2.2v2.754a1.378,1.378,0,0,0,2.755,0V515.31l1.652,2.2a1.377,1.377,0,1,0,2.2-1.652l-2.152-2.87c5.274,1.529,7.593,6.417,6.157,10.073a1.377,1.377,0,0,0,2.564,1.007c2.259-5.746-1.894-12.847-9.581-14.089,2.376-3.216,8.348-7.535,12.93-8.32v41.275a12.375,12.375,0,0,0-6.424,2.686,12.41,12.41,0,0,0-12.781,11.009H333.93a1.378,1.378,0,0,0,0,2.755h85.4a1.378,1.378,0,0,0,0-2.755Zm-29.764-34.683c3.293-2.629,6.83-.277,9.463,3.019,2.927,3.667,3.587,10.342,3.733,13.5-3.051-.842-9.415-2.962-12.343-6.627-2.632-3.3-4.145-7.266-.852-9.9Zm-26.721-32.8c-2.927,3.667-9.292,5.785-12.343,6.627.146-3.161.805-9.837,3.733-13.5,2.645-3.313,6.179-5.642,9.462-3.019,3.3,2.632,1.776,6.606-.851,9.895Zm-4.019,67.486A9.646,9.646,0,0,1,369.18,548.4a1.37,1.37,0,0,0,1.033-.344,9.635,9.635,0,0,1,12.832,0c.564.5,1.063.307,1.847.307a9.655,9.655,0,0,1,9.541,8.265Z" transform="translate(-332.555 -471.234)" fill="#00223d"/>
      <path id="Trazado_24963" data-name="Trazado 24963" d="M395.715,565.97h-4.131a1.377,1.377,0,1,0,0,2.754h4.131a1.377,1.377,0,1,0,0-2.754Z" transform="translate(-342.001 -486.082)" fill="#00223d"/>
      <path id="Trazado_24964" data-name="Trazado 24964" d="M377.6,565.97h-4.131a1.377,1.377,0,1,0,0,2.754H377.6a1.377,1.377,0,1,0,0-2.754Z" transform="translate(-339.032 -486.082)" fill="#00223d"/>
      <path id="Trazado_24965" data-name="Trazado 24965" d="M356.518,513.227a1.377,1.377,0,1,0,.835-2.625h0c-7.621-2.427-16.566,2.4-16.566,10.381a8.536,8.536,0,0,0,3.27,6.847,1.377,1.377,0,0,0,1.731-2.143,5.787,5.787,0,0,1-2.246-4.7c0-6.026,7.086-9.632,12.975-7.756Z" transform="translate(-333.904 -476.907)" fill="#00223d"/>
      <path id="Trazado_24966" data-name="Trazado 24966" d="M423.663,500.818a1.378,1.378,0,0,0,1.729,2.145,8.978,8.978,0,0,0,2.574-10.5,1.377,1.377,0,1,0-2.563,1.011,6.22,6.22,0,0,1-1.74,7.346Z" transform="translate(-347.401 -473.895)" fill="#00223d"/>
      <path id="Trazado_24967" data-name="Trazado 24967" d="M340.6,487.4a41.6,41.6,0,0,0,5.159.888,1.378,1.378,0,0,0,.16-2.745c-1.136-.134-2.144-.3-2.928-.447,8.327-15.243,14.979-9.79,14.439-13.365a1.377,1.377,0,0,0-1.566-1.156,17.3,17.3,0,0,0-4.766,1.538c-6.562,3.106-11.21,12.954-11.405,13.372a1.377,1.377,0,0,0,.908,1.916Z" transform="translate(-333.703 -470.45)" fill="#00223d"/>
      <path id="Trazado_24968" data-name="Trazado 24968" d="M402.575,481.129a1.378,1.378,0,0,0,1.937-.211,12.5,12.5,0,0,1,4.453-3.236c4.428-2.1,11.487-.967,14.651-.3-1.272,2.459-4.095,7.338-7.676,10.019a1.377,1.377,0,1,0,1.64,2.213l.012-.008c5.48-4.1,9.126-12.266,9.279-12.612a1.378,1.378,0,0,0-.7-1.816,1.476,1.476,0,0,0-.188-.068c-.465-.129-11.446-3.115-18.192.079a15.174,15.174,0,0,0-5.422,4,1.377,1.377,0,0,0,.211,1.937Z" transform="translate(-343.944 -470.968)" fill="#00223d"/>
      <path id="Trazado_24969" data-name="Trazado 24969" d="M419.9,538.141a1.377,1.377,0,0,0,1.528,1.207h0a41.948,41.948,0,0,0,5-.878,1.378,1.378,0,0,0,.908-1.916c-.195-.417-4.843-10.265-11.4-13.373a17.326,17.326,0,0,0-4.767-1.538A1.377,1.377,0,0,0,409.6,522.8c-.534,3.538,6.144-1.8,14.438,13.365-.784.148-1.792.314-2.927.448a1.377,1.377,0,0,0-1.207,1.528Z" transform="translate(-345.173 -478.817)" fill="#00223d"/>
      <circle id="Elipse_890" data-name="Elipse 890" cx="1.377" cy="1.377" r="1.377" transform="translate(42.696)" fill="#00223d"/>
      <circle id="Elipse_891" data-name="Elipse 891" cx="1.377" cy="1.377" r="1.377" transform="translate(66.111 33.057)" fill="#00223d"/>
      <circle id="Elipse_892" data-name="Elipse 892" cx="1.377" cy="1.377" r="1.377" transform="translate(33.054 55.095)" fill="#00223d"/>
    </g>
    <g id="Grupo_16372" data-name="Grupo 16372" transform="translate(9740.309 -2641.649)">
      <path id="Trazado_24970" data-name="Trazado 24970" d="M255.19,550.613l-4.52-.9-12.3,12.919,4.805,4.805c10.224-3.409,13.417-9.813,12.015-16.82Z" transform="translate(-221.544 -519.346)" fill="#eefaff"/>
      <path id="Trazado_24971" data-name="Trazado 24971" d="M256.178,577.495v8.326l6.8-3.4,3.4,6.8-9.29,9.29a27.188,27.188,0,0,0,7.057,12.267l2.233,2.233H212l2.233-2.233a27.188,27.188,0,0,0,7.962-19.223V577.495Z" transform="translate(-211.995 -529.407)" fill="#918787"/>
      <path id="Trazado_24972" data-name="Trazado 24972" d="M256.23,506.915l-7.208,7.237-2.4,7.208-7.208,7.209-4.805-4.805,4.805-4.807,2.4-7.208,9.613-9.64Z" transform="translate(-220.181 -502.109)" fill="#fce8d0"/>
      <path id="Trazado_24973" data-name="Trazado 24973" d="M234.99,541.9l7.5,1.5c-.346,5.425-4.015,10.156-12.3,12.919h0L215.765,541.9l9.612-9.612,9.612,9.612Z" transform="translate(-213.359 -513.037)" fill="#ff9256"/>
      <path id="Trazado_24974" data-name="Trazado 24974" d="M211.993,555.917l4.805-4.805,4.8,4.805-4.8,4.805Z" transform="translate(-211.993 -519.854)" fill="#fce8d0"/>
    </g>
    <g id="Grupo_16373" data-name="Grupo 16373" transform="translate(9724 -2643.348)">
      <path id="Trazado_24975" data-name="Trazado 24975" d="M260.682,599.2V587.985a1.7,1.7,0,0,0-3.4,0V599.2a1.7,1.7,0,0,0,3.4,0Z" transform="translate(-212.084 -530.892)" fill="#00223d"/>
      <circle id="Elipse_893" data-name="Elipse 893" cx="1.699" cy="1.699" r="1.699" transform="translate(48.597 83.601)" fill="#00223d"/>
      <path id="Trazado_24976" data-name="Trazado 24976" d="M271.726,583.047H257.817l-1.735-1.735a25.521,25.521,0,0,1-6.351-10.57l8.583-8.583a1.7,1.7,0,0,0,.318-1.961l-3.4-6.8a1.7,1.7,0,0,0-2.28-.76l-4.338,2.169v-5.577a1.7,1.7,0,0,0-1.7-1.7H231.741a14.4,14.4,0,0,0,6.306-15.455,1.7,1.7,0,0,0-1.333-1.333l-11.511-2.3-.838-.838,6.006-6.008a1.711,1.711,0,0,0,.411-.664l2.278-6.829,6.926-6.954a1.7,1.7,0,0,0,0-2.4l-4.805-4.805a1.7,1.7,0,0,0-2.4,0l-9.612,9.64a1.707,1.707,0,0,0-.409.663l-2.276,6.827-3.321,3.322-1.2-1.2a1.7,1.7,0,0,0-2.4,0l-9.612,9.612a1.7,1.7,0,0,0,0,2.4l1.2,1.2-3.6,3.6a1.7,1.7,0,0,0,0,2.4l4.805,4.805a1.7,1.7,0,0,0,2.4,0l3.6-3.6,7.914,7.912h-7.33a1.7,1.7,0,0,0-1.7,1.7V563.29a25.322,25.322,0,0,1-7.465,18.022l-1.735,1.735H188.125a1.7,1.7,0,1,0,0,3.4h40.95a1.7,1.7,0,1,0,0-3.4H217.182a19.079,19.079,0,0,0,7.646-15.293,1.7,1.7,0,0,0-3.4,0A15.688,15.688,0,0,1,209.528,583l-.2.051h-2.508a28.68,28.68,0,0,0,7.815-19.757V550.932h3.4v10.025a1.7,1.7,0,1,0,3.4,0V550.932h16.992v21.92a3.4,3.4,0,1,1-6.8,0,1.7,1.7,0,1,0-3.4,0,6.8,6.8,0,1,0,13.593,0v-21.92h3.4v6.627a1.7,1.7,0,0,0,2.459,1.519l5.277-2.638,2.091,4.181-8.423,8.423a1.7,1.7,0,0,0-.441,1.637,28.931,28.931,0,0,0,6.852,12.365h-8.663a1.7,1.7,0,1,0,0,3.4h27.357a1.7,1.7,0,1,0,0-3.4Zm-48.561-63.853a1.7,1.7,0,0,0,.41-.664l2.276-6.829,8.129-8.152,2.4,2.4-6.011,6.036a1.7,1.7,0,0,0-.408.662l-2.277,6.828-5.723,5.724-2.4-2.4ZM207.544,539.62l-2.4-2.4,2.4-2.4,2.4,2.4ZM220,542.469l-12.46-12.461,7.209-7.209,8.376,8.376.035.034a1.7,1.7,0,0,0,.868.465l5.943,1.189c-.846,4.245-4.193,7.468-9.971,9.606Zm2.617,2.615c7.258-3.1,9.9-7.651,10.685-11.555l1.587.318c.748,6.08-2.713,10.694-10.082,13.428Z" transform="translate(-186.426 -499.446)" fill="#00223d"/>
    </g>
    <g id="Grupo_16375" data-name="Grupo 16375" transform="translate(9728.879 -2770.573)">
      <path id="Trazado_24977" data-name="Trazado 24977" d="M63.811,523.91H75.05v24.241H63.811Z" transform="translate(-63.811 -523.91)" fill="#bedaff"/>
    </g>
    <g id="Grupo_16376" data-name="Grupo 16376" transform="translate(9740.117 -2771.773)">
      <path id="Trazado_24978" data-name="Trazado 24978" d="M94.335,522.928a7.492,7.492,0,0,0-5.5-.37l-9.013,2.884v20.12l17.565,8.154a13.193,13.193,0,0,0,12.25-.6l24.334-14.5a5.9,5.9,0,0,0-5.981-10.167l-17.1,9.929a6.312,6.312,0,0,0-2.709-8.864Z" transform="translate(-79.818 -522.201)" fill="#ffdad5"/>
    </g>
    <g id="Grupo_16377" data-name="Grupo 16377" transform="translate(9749.131 -2775.377)">
      <path id="Trazado_24979" data-name="Trazado 24979" d="M133.641,526.232a5.908,5.908,0,0,0-1.831.691l-17.1,9.928a6.326,6.326,0,0,0-2.709-8.864L98.159,521.4a7.491,7.491,0,0,0-5.5-.369l9.195-3.643c.008,0,.017,0,.023-.008a6.356,6.356,0,0,1,4.175.091,9.6,9.6,0,0,0,2.365.646,9.116,9.116,0,0,0,2.22-.6,6.343,6.343,0,0,1,4.269-.025c.291.1,18.739,8.747,18.739,8.747Z" transform="translate(-92.655 -517.068)" fill="#b96b57"/>
    </g>
    <g id="Grupo_16378" data-name="Grupo 16378" transform="translate(9750.411 -2822.648)">
      <circle id="Elipse_894" data-name="Elipse 894" cx="14.478" cy="14.478" r="14.478" transform="translate(0)" fill="#bedaff"/>
    </g>
    <g id="Grupo_16379" data-name="Grupo 16379" transform="translate(9751.66 -2821.281)">
      <path id="Trazado_24980" data-name="Trazado 24980" d="M104.061,453.152v5.172a1.841,1.841,0,0,1-.541,1.305l-2.016,2.016a1.846,1.846,0,0,1-2.611,0l-2.316-2.316a1.854,1.854,0,0,1-.318-.425,14.54,14.54,0,0,1,7.081-7.218,1.817,1.817,0,0,1,.722,1.465Z" transform="translate(-96.258 -451.687)" fill="#89dd8e"/>
    </g>
    <g id="Grupo_16380" data-name="Grupo 16380" transform="translate(9763.317 -2822.158)">
      <path id="Trazado_24981" data-name="Trazado 24981" d="M128.9,463.8h-5.758a1.847,1.847,0,0,0-1.305.541l-2.127,2.127a1.845,1.845,0,0,0-.539,1.305v2.186a1.848,1.848,0,0,1-1.848,1.848h-1.732a1.856,1.856,0,0,1-1.307-.541l-.88-.881a1.847,1.847,0,0,1-.541-1.307v-5.462a1.841,1.841,0,0,1,.541-1.305l4.234-4.233a1.857,1.857,0,0,0,.541-1.307v-6.245c0-.031,0-.061,0-.091A14.484,14.484,0,0,1,128.9,463.8Z" transform="translate(-112.861 -450.438)" fill="#89dd8e"/>
    </g>
    <g id="Grupo_16381" data-name="Grupo 16381" transform="translate(9739.506 -2792.348)">
      <path id="Trazado_24982" data-name="Trazado 24982" d="M78.947,495.949s5.061-4.3,9.881-2.7,6.669,8.191,6.669,8.191-5.424,4.176-10.244,2.576S78.947,495.949,78.947,495.949Z" transform="translate(-78.947 -492.896)" fill="#9eeaba"/>
    </g>
    <g id="Grupo_16382" data-name="Grupo 16382" transform="translate(9773.722 -2792.348)">
      <path id="Trazado_24983" data-name="Trazado 24983" d="M144.23,495.949s-5.061-4.3-9.881-2.7-6.669,8.191-6.669,8.191,5.424,4.176,10.244,2.576S144.23,495.949,144.23,495.949Z" transform="translate(-127.68 -492.896)" fill="#9eeaba"/>
    </g>
    <g id="Grupo_16383" data-name="Grupo 16383" transform="translate(9727.179 -2824.348)">
      <path id="Trazado_24984" data-name="Trazado 24984" d="M131.884,507.191a7.568,7.568,0,0,0-7.308-3.5s-18.1-8.474-18.416-8.587a8.05,8.05,0,0,0-5.361.008v-3.174a13.763,13.763,0,0,1,3.152-1.521l3.313-.937c1.136.791,4.687,3.025,8.577,3.025a9.081,9.081,0,0,0,2.871-.45c5.662-1.88,7.357-9,7.426-9.3a1.7,1.7,0,0,0-.556-1.676c-.237-.2-5.853-4.894-11.517-3.013-4.217,1.4-6.436,5.8-7.314,8.031l-3.762,1.064-.071.022a17.239,17.239,0,0,0-2.12.864v-8.46a16.178,16.178,0,1,0-3.4,0v8.46a17.045,17.045,0,0,0-2.12-.864l-.07-.022-3.762-1.064c-.878-2.231-3.1-6.631-7.315-8.031-5.662-1.88-11.28,2.813-11.516,3.013a1.7,1.7,0,0,0-.557,1.676c.07.3,1.764,7.424,7.427,9.3a9.057,9.057,0,0,0,2.871.45c3.89,0,7.441-2.233,8.577-3.024l3.313.937a13.763,13.763,0,0,1,3.152,1.521v3.183l-.084-.03a8.09,8.09,0,0,0-5.293-.106l-.05.018-.065.024L76,500.815a1.7,1.7,0,0,0-1.675-1.42H63.09a1.7,1.7,0,0,0-1.7,1.7v24.24a1.7,1.7,0,0,0,1.7,1.7H74.328a1.7,1.7,0,0,0,1.61-1.159l15.24,7.075a15.04,15.04,0,0,0,13.836-.678l5.236-3.12a1.7,1.7,0,0,0-1.74-2.919l-5.228,3.115a11.5,11.5,0,0,1-10.672.52l-16.582-7.7V504.376l7.821-2.5.011,0a5.769,5.769,0,0,1,4.255.286l13.853,6.591a4.658,4.658,0,0,1,2.1,6.226,4.541,4.541,0,0,1-5.965,2.015l-8.264-3.931a1.7,1.7,0,1,0-1.46,3.07l8.272,3.935a8,8,0,0,0,9.95-2.719l16.751-9.728a4.2,4.2,0,0,1,4.258,7.237l-6.365,3.793a1.7,1.7,0,0,0,1.74,2.92l6.365-3.793a7.667,7.667,0,0,0,2.536-10.58Zm-16.746-25.9c2.8-.931,5.89.75,7.367,1.738-.6,1.673-2.076,4.879-4.862,5.8a8.3,8.3,0,0,1-5.766-.652l4.1-1.158a1.7,1.7,0,0,0-.925-3.271l-3.893,1.1a8.067,8.067,0,0,1,3.983-3.561Zm-28.927,6.936a8.345,8.345,0,0,1-5.653.606c-2.806-.932-4.274-4.129-4.866-5.8,1.476-.987,4.564-2.671,7.369-1.739a7.941,7.941,0,0,1,3.989,3.562l-3.9-1.1a1.7,1.7,0,0,0-.925,3.271l4.092,1.157-.108.048Zm18.332-32.381v-3.905a12.817,12.817,0,0,1,7.12,9.234h-3.857a3.572,3.572,0,0,0-2.507,1.038l-2.127,2.127a3.521,3.521,0,0,0-1.037,2.507v2.186a.149.149,0,0,1-.148.148h-1.732a.151.151,0,0,1-.1-.042l-.881-.882a.149.149,0,0,1-.044-.105v-5.462a.142.142,0,0,1,.044-.1l4.237-4.236a3.531,3.531,0,0,0,1.036-2.505Zm-12.568-2.95v4.128a.146.146,0,0,1-.043.1l-2.016,2.016a.141.141,0,0,1-.1.043.137.137,0,0,1-.1-.044l-1.8-1.8A12.868,12.868,0,0,1,91.974,452.894Zm-5.653,10.6a12.767,12.767,0,0,1,.279-2.654l.7.7a3.545,3.545,0,0,0,5.015,0l2.013-2.013a3.563,3.563,0,0,0,1.042-2.51V451.85a3.657,3.657,0,0,0-.045-.564,12.751,12.751,0,0,1,5.815-.4v4.96a.151.151,0,0,1-.044.1l-4.23,4.231a3.514,3.514,0,0,0-1.041,2.509v5.462a3.523,3.523,0,0,0,1.038,2.507l.883.885a3.53,3.53,0,0,0,2.506,1.036h1.732a3.551,3.551,0,0,0,3.547-3.548v-2.186a.148.148,0,0,1,.041-.1l2.127-2.127a.148.148,0,0,1,.1-.044h4.024A12.776,12.776,0,0,1,86.322,463.5Zm6.8,34.707a4.673,4.673,0,0,1,3.028.083,8.868,8.868,0,0,0,2.948.75,8.492,8.492,0,0,0,2.8-.7,4.641,4.641,0,0,1,3.123-.025c.239.086,15.3,7.138,15.3,7.138l-12.358,7.177a8.063,8.063,0,0,0-4.536-6.953l-10.008-4.762c-.025-.011-.048-.02-.073-.03l-3.164-1.505ZM72.629,523.635H64.79V502.794h7.84Z" transform="translate(-61.39 -447.319)" fill="#00223d"/>
      <path id="Trazado_24985" data-name="Trazado 24985" d="M139.811,554.928a1.7,1.7,0,1,0-.919,2.22A1.714,1.714,0,0,0,139.811,554.928Z" transform="translate(-83.778 -479.064)" fill="#00223d"/>
    </g>
  </g>
</svg>
