<svg xmlns="http://www.w3.org/2000/svg" width="136.477" height="138.024" viewBox="0 0 136.477 138.024">
  <g id="Grupo_16496" data-name="Grupo 16496" transform="translate(-236.4 -1138.049)">
    <circle id="Elipse_622" data-name="Elipse 622" cx="63" cy="63" r="63" transform="translate(241.638 1138.049)" fill="#e2f5ff"/>
    <g id="Grupo_9942" data-name="Grupo 9942" transform="translate(236.4 1144.927)">
      <path id="Trazado_8734" data-name="Trazado 8734" d="M567.228,461.786a15.947,15.947,0,0,0,0-31.893H506.742l4.4,4.949a15.934,15.934,0,0,1,0,22.27l-4.4,4.674Z" transform="translate(-449.555 -333.665)" fill="#f9a825"/>
      <path id="Trazado_8735" data-name="Trazado 8735" d="M595.549,446.25a16.042,16.042,0,0,0-4.674-11.272L586.2,430.3h14.022l4.949,4.674a15.934,15.934,0,0,1,0,22.27l-4.674,4.674H586.476l4.674-4.674A16.349,16.349,0,0,0,595.549,446.25Z" transform="translate(-529.289 -333.801)" fill="#ef6c00"/>
      <path id="Trazado_8736" data-name="Trazado 8736" d="M557.085,415.512a15.947,15.947,0,0,0,0-31.893h66.26V305.811a16.085,16.085,0,0,0-15.672-15.946H531.791l4.674,4.674a15.572,15.572,0,0,1,4.674,11.272v93.754A15.958,15.958,0,0,0,557.085,415.512Z" transform="translate(-506.497 -287.391)" fill="#fff"/>
      <g id="Grupo_9939" data-name="Grupo 9939" transform="translate(3.016 2.474)">
        <path id="Trazado_8737" data-name="Trazado 8737" d="M633.818,290.14l4.674,4.674a15.572,15.572,0,0,1,4.674,11.272V399.84a15.776,15.776,0,0,0,9.9,14.572,15.657,15.657,0,0,1-20.62-8.523,16.3,16.3,0,0,1-1.375-6.324V305.811a16.042,16.042,0,0,0-4.674-11.272l-4.674-4.674Z" transform="translate(-599.443 -289.865)" fill="#e5e5e5"/>
        <path id="Trazado_8738" data-name="Trazado 8738" d="M670.252,312.128H686.2v-5.774a15.81,15.81,0,0,0-31.618.275,15.875,15.875,0,0,0,12.372,15.4l3.3.275Z" transform="translate(-654.572 -290.133)" fill="#e5e5e5"/>
      </g>
      <rect id="Rectángulo_3842" data-name="Rectángulo 3842" width="15.946" height="9.898" transform="translate(18.696 24.469)" fill="#dd603e"/>
      <g id="Grupo_9940" data-name="Grupo 9940" transform="translate(0 0)">
        <path id="Trazado_8739" data-name="Trazado 8739" d="M521.171,286.17h82.48a18.715,18.715,0,0,1,18.7,18.7V380.2a18.612,18.612,0,0,1-1.925,37.117H553.338a18.715,18.715,0,0,1-18.7-18.7V323.286H521.171a18.715,18.715,0,0,1-18.7-18.7A18.481,18.481,0,0,1,521.171,286.17Zm44.815,125.371h54.163a13.2,13.2,0,0,0,13.2-13.2,13.028,13.028,0,0,0-13.2-13.2H565.985A18.424,18.424,0,0,1,565.985,411.541ZM539.866,304.59v93.754a13.2,13.2,0,0,0,13.2,13.2,13.2,13.2,0,0,0,0-26.394h0a2.749,2.749,0,1,1,0-5.5h63.51V304.59a13.326,13.326,0,0,0-12.922-13.2H534.367a18.994,18.994,0,0,1,5.5,13.2Zm-15.946,13.2h10.447v-4.4H523.92Zm-5.5-.275v-6.873a2.6,2.6,0,0,1,2.75-2.75h13.2v-3.024a13.062,13.062,0,1,0-15.946,12.647Z" transform="translate(-502.475 -286.17)" fill="#281a10"/>
        <path id="Trazado_8740" data-name="Trazado 8740" d="M601.373,332.322H561.233a2.749,2.749,0,1,1,0-5.5h40.141a2.749,2.749,0,0,1,0,5.5Z" transform="translate(-505.145 -299.604)" fill="#281a10"/>
        <path id="Trazado_8741" data-name="Trazado 8741" d="M601.373,361.477H561.233a2.749,2.749,0,1,1,0-5.5h40.141a2.749,2.749,0,0,1,0,5.5Z" transform="translate(-505.145 -309.239)" fill="#281a10"/>
        <path id="Trazado_8742" data-name="Trazado 8742" d="M601.373,391.043H561.233a2.749,2.749,0,1,1,0-5.5h40.141a2.749,2.749,0,0,1,0,5.5Z" transform="translate(-505.145 -319.01)" fill="#281a10"/>
      </g>
    </g>
  </g>
</svg>
