<svg xmlns="http://www.w3.org/2000/svg" width="178" height="178" viewBox="0 0 178 178">
  <g id="Grupo_16535" data-name="Grupo 16535" transform="translate(-4534 1083)">
    <rect id="Rectángulo_3957" data-name="Rectángulo 3957" width="178" height="178" transform="translate(4534 -1083)" fill="none"/>
    <g id="Grupo_16463" data-name="Grupo 16463" transform="translate(4556.367 -1055.646)">
      <path id="Trazado_25513" data-name="Trazado 25513" d="M175.819,695.332a7.829,7.829,0,0,0-7.83,7.831v53.513h15.663V703.162A7.831,7.831,0,0,0,175.819,695.332Z" transform="translate(-67.619 -669.881)" fill="#fff0b8"/>
      <path id="Trazado_25514" data-name="Trazado 25514" d="M128.224,695.332a7.831,7.831,0,0,0-7.832,7.831v53.513h15.663V703.162A7.829,7.829,0,0,0,128.224,695.332Z" transform="translate(-102.772 -669.881)" fill="#fff0b8"/>
      <path id="Trazado_25515" data-name="Trazado 25515" d="M159.77,694.127a15.615,15.615,0,0,0-11.075-4.588l3.915,75.59,37.459-40.7Z" transform="translate(-81.868 -674.159)" fill="#8d4426"/>
      <path id="Trazado_25516" data-name="Trazado 25516" d="M175.249,694.127a11.573,11.573,0,0,0-8.978-4.588,15.612,15.612,0,0,0-11.075,4.588l-30.3,30.3,37.459,40.7a3.915,3.915,0,1,0,7.83,0l33.3-36.179Z" transform="translate(-99.445 -674.159)" fill="#a0583b"/>
      <path id="Trazado_25517" data-name="Trazado 25517" d="M123.718,686.323a7.83,7.83,0,0,0-7.83,7.831v53.514h15.663V694.154A7.832,7.832,0,0,0,123.718,686.323Z" transform="translate(-106.098 -676.535)" fill="#ffd693"/>
      <path id="Trazado_25518" data-name="Trazado 25518" d="M140.1,743.316l3.2,12.378h7.832v-7.832Z" transform="translate(-88.218 -634.442)" fill="#fc8647"/>
      <path id="Trazado_25519" data-name="Trazado 25519" d="M160,749.335a15.621,15.621,0,0,0-4.588-11.076l-27.334-27.333,20.174,38.41,3.913,20.353a15.587,15.587,0,0,0,7.834,2.1Z" transform="translate(-97.092 -658.365)" fill="#ffa352"/>
      <path id="Trazado_25520" data-name="Trazado 25520" d="M162.547,768.876l-35.5-30.917V689.813a7.938,7.938,0,0,0-7.611-7.992,7.833,7.833,0,0,0-8.051,7.829v57.612a11.758,11.758,0,0,0,1.393,5.548L129.4,783.838a7.831,7.831,0,0,1,.56,6.073l-3.564,11.2H164.5v-9.932Z" transform="translate(-109.425 -679.861)" fill="#ffa352"/>
      <path id="Trazado_25521" data-name="Trazado 25521" d="M157.851,770.659v-20.35a18.482,18.482,0,0,0-3.461-11.076L133.762,711.9a7.832,7.832,0,0,0-11.076,11.075l27.335,27.335V757.1A15.65,15.65,0,0,0,157.851,770.659Z" transform="translate(-102.772 -659.339)" fill="#ffbc72"/>
      <path id="Trazado_25522" data-name="Trazado 25522" d="M180.325,686.323a7.832,7.832,0,0,1,7.83,7.831v45.682H172.493V694.154A7.832,7.832,0,0,1,180.325,686.323Z" transform="translate(-64.292 -676.535)" fill="#ffd693"/>
      <path id="Trazado_25523" data-name="Trazado 25523" d="M190.6,681.821a7.61,7.61,0,0,0-2.9.661v64.279L168.888,789.91h11.188a7.831,7.831,0,0,1,.56-6.073l16.622-31.028a11.757,11.757,0,0,0,1.391-5.548V689.65a7.832,7.832,0,0,0-8.051-7.829Z" transform="translate(-66.955 -679.861)" fill="#fc8647"/>
      <path id="Trazado_25524" data-name="Trazado 25524" d="M203.505,751.681a11.778,11.778,0,0,0,.563-3.594v-58.72c0-3.2-1.283-5.956-3.119-7.168a8.036,8.036,0,0,0-4.711,7.331v48.146l-35.5,30.917L150.947,793v7.832H196.89l-3.809-11.972a7.827,7.827,0,0,1,.007-4.77Z" transform="translate(-80.205 -679.58)" fill="#ffa352"/>
      <path id="Trazado_25525" data-name="Trazado 25525" d="M193.943,711.9a7.831,7.831,0,0,0-11.075,0l-27.334,27.333a15.613,15.613,0,0,0-4.588,11.076v22.45A15.663,15.663,0,0,0,166.61,757.1v-6.789l27.334-27.335a7.831,7.831,0,0,0,0-11.075Z" transform="translate(-80.205 -659.339)" fill="#ffbc72"/>
      <path id="Trazado_25526" data-name="Trazado 25526" d="M240.946,683.464a9.714,9.714,0,0,0-7.1-2.768,9.914,9.914,0,0,0-9.32,7.989,9.8,9.8,0,0,0-8.025,9.626v6.071a9.8,9.8,0,0,0-7.83,9.592V718.4l-19.128-19.128a17.622,17.622,0,0,0-24.919,0l-14.637,14.639a1.958,1.958,0,1,0,2.77,2.768l14.637-14.637a13.7,13.7,0,0,1,19.381,0l27.812,27.812a9.932,9.932,0,0,0-3.164,2.128L184.2,759.2a17.507,17.507,0,0,0-5.16,12.46,1.958,1.958,0,0,1-3.915,0,17.5,17.5,0,0,0-5.162-12.46l-27.334-27.333a9.779,9.779,0,0,0-3.008-2.055l5.3-5.3a1.957,1.957,0,0,0,.574-1.386v-9.154a9.8,9.8,0,0,0-7.83-9.592v-6.071a9.8,9.8,0,0,0-8.025-9.626,9.915,9.915,0,0,0-9.322-7.989,9.789,9.789,0,0,0-10.063,9.785v57.612a13.742,13.742,0,0,0,1.626,6.473L128.5,785.594a5.909,5.909,0,0,1,.419,4.553l-3.564,11.2a1.959,1.959,0,0,0,1.865,2.552h45.943a1.957,1.957,0,0,0,1.958-1.958V777.2a5.849,5.849,0,0,0,3.915,0v24.747A1.957,1.957,0,0,0,181,803.9h45.943a1.959,1.959,0,0,0,1.865-2.552l-3.564-11.2a5.913,5.913,0,0,1,.419-4.555l16.622-31.028a13.757,13.757,0,0,0,1.626-6.473V690.481a9.724,9.724,0,0,0-2.964-7.017ZM137.667,708.437a5.883,5.883,0,0,1,3.915,5.537v8.343l-3.915,3.915Zm-7.832-15.661a5.882,5.882,0,0,1,3.917,5.536V729.2a9.667,9.667,0,0,0-3.917,1.759Zm41.376,107.211H129.9l2.752-8.653a9.842,9.842,0,0,0-.7-7.591l-16.622-31.028a9.811,9.811,0,0,1-1.16-4.623V690.481a5.87,5.87,0,0,1,6.038-5.871,6,6,0,0,1,5.708,6.035v48.137a9.715,9.715,0,0,0,2.867,6.932l27.335,27.334a1.958,1.958,0,1,0,2.768-2.77l-27.219-27.219a6,6,0,0,1-.231-8.3,5.873,5.873,0,0,1,8.422-.12L167.2,761.972a13.614,13.614,0,0,1,4.014,9.691Zm49.2-101.676a5.883,5.883,0,0,1,3.915-5.536v38.185a9.613,9.613,0,0,0-3.915-1.719Zm-7.83,24.006v-8.343a5.879,5.879,0,0,1,3.915-5.536v17.794Zm27.408,25.776a9.832,9.832,0,0,1-1.16,4.623l-16.622,31.028a9.842,9.842,0,0,0-.7,7.591l2.752,8.653H182.956V771.663a13.614,13.614,0,0,1,4.014-9.691l27.219-27.219a6,6,0,0,1,8.3-.231,5.825,5.825,0,0,1,1.839,4.188v.073a5.828,5.828,0,0,1-1.719,4.16l-27.334,27.333a1.958,1.958,0,0,0,2.768,2.77l27.334-27.334a9.709,9.709,0,0,0,2.869-6.932V690.645a6,6,0,0,1,5.706-6.035,5.873,5.873,0,0,1,6.04,5.871Z" transform="translate(-110.257 -680.693)" fill="#00223d"/>
      <ellipse id="Elipse_911" data-name="Elipse 911" cx="1.958" cy="1.958" rx="1.958" ry="1.958" transform="translate(64.869 21.253)" fill="#00223d"/>
      <ellipse id="Elipse_912" data-name="Elipse 912" cx="1.958" cy="1.958" rx="1.958" ry="1.958" transform="translate(57.037 29.084)" fill="#00223d"/>
      <ellipse id="Elipse_913" data-name="Elipse 913" cx="1.958" cy="1.958" rx="1.958" ry="1.958" transform="translate(72.7 44.746)" fill="#00223d"/>
    </g>
  </g>
</svg>
