<svg xmlns="http://www.w3.org/2000/svg" width="178" height="178" viewBox="0 0 178 178">
  <g id="Grupo_16536" data-name="Grupo 16536" transform="translate(-4534 866)">
    <rect id="Rectángulo_3959" data-name="Rectángulo 3959" width="178" height="178" transform="translate(4534 -866)" fill="none"/>
    <g id="Grupo_16460" data-name="Grupo 16460" transform="translate(4561.612 -838.388)">
      <path id="Trazado_25480" data-name="Trazado 25480" d="M144.679,904.732a22.574,22.574,0,0,0,22.574,22.574V882.158A22.574,22.574,0,0,0,144.679,904.732Z" transform="translate(-89.27 -847.271)" fill="#ff9811"/>
      <path id="Trazado_25481" data-name="Trazado 25481" d="M160.589,882.158v45.148a22.574,22.574,0,0,0,0-45.148Z" transform="translate(-82.606 -847.271)" fill="#ffc579"/>
      <path id="Trazado_25482" data-name="Trazado 25482" d="M167.82,875.433a16.417,16.417,0,0,0,16.417,16.417V859.016A16.418,16.418,0,0,0,167.82,875.433Z" transform="translate(-79.578 -856.964)" fill="#ffa733"/>
      <path id="Trazado_25483" data-name="Trazado 25483" d="M179.391,859.016v32.835a16.418,16.418,0,0,0,0-32.835Z" transform="translate(-74.731 -856.964)" fill="#ffd094"/>
      <path id="Trazado_25484" data-name="Trazado 25484" d="M176.844,926.111l25.795-13.155a8.209,8.209,0,0,1,11.2,3.018,8.066,8.066,0,0,1,1.108,4.1,8.2,8.2,0,0,1-4.1,7.1l-44.309,25.577a8.206,8.206,0,0,1-4.1,1.1H145.121a8.278,8.278,0,0,1-1.992-.244L128.674,950a8.261,8.261,0,0,0-1.991-.244h-5.146V918.968h8.929a8.226,8.226,0,0,0,2.6-.41l8.709-2.914a8.206,8.206,0,0,1,4.721-.14l25.37,6.8a8.211,8.211,0,0,1-4.252,15.861l-17.343-4.648" transform="translate(-98.963 -834.831)" fill="#ffbcab"/>
      <path id="Trazado_25485" data-name="Trazado 25485" d="M105.627,911.085H128.2v45.148H105.627Z" transform="translate(-105.627 -835.156)" fill="#006df0"/>
      <path id="Trazado_25486" data-name="Trazado 25486" d="M117.2,911.085h6.156v45.148H117.2Z" transform="translate(-100.781 -835.156)" fill="#005fd2"/>
      <path id="Trazado_25487" data-name="Trazado 25487" d="M222.289,915.881a10.25,10.25,0,0,0-13.92-3.822l-24.237,12.357a10.2,10.2,0,0,0-5.074-3.17l-25.372-6.793a10.2,10.2,0,0,0-5.9.176l-8.71,2.9a6.216,6.216,0,0,1-1.948.315h-6.876v-8.208H105.627v4.1h20.522v41.043H105.627v4.1h24.625v-6.156h3.095a6.153,6.153,0,0,1,1.493.184l14.455,3.612a10.231,10.231,0,0,0,2.49.308H169.1a10.274,10.274,0,0,0,5.131-1.374l44.309-25.579a10.294,10.294,0,0,0,5.131-8.879A10.182,10.182,0,0,0,222.289,915.881Zm-5.8,10.45-44.309,25.583a6.186,6.186,0,0,1-3.079.82H151.785a6.147,6.147,0,0,1-1.493-.185l-14.455-3.612a10.231,10.231,0,0,0-2.49-.308h-3.095V921.952h6.877a10.3,10.3,0,0,0,3.246-.525l8.709-2.9a6.125,6.125,0,0,1,3.539-.108l25.373,6.8a6.157,6.157,0,1,1-3.241,11.88l-19.393-4.647-.956,3.994,19.337,4.631a10.26,10.26,0,0,0,12.413-13.078l24.169-12.327a6.157,6.157,0,0,1,6.158,10.664Z" transform="translate(-105.627 -835.761)" fill="#00223d"/>
      <path id="Trazado_25488" data-name="Trazado 25488" d="M167.859,880.711a24.626,24.626,0,1,0,24.626,24.627A24.627,24.627,0,0,0,167.859,880.711Zm0,45.148a20.521,20.521,0,1,1,20.521-20.521A20.52,20.52,0,0,1,167.859,925.859Z" transform="translate(-89.876 -847.878)" fill="#00223d"/>
      <path id="Trazado_25489" data-name="Trazado 25489" d="M184.843,857.57a18.469,18.469,0,1,0,18.469,18.469A18.469,18.469,0,0,0,184.843,857.57Zm0,32.833a14.365,14.365,0,1,1,14.366-14.364A14.363,14.363,0,0,1,184.843,890.4Z" transform="translate(-80.183 -857.57)" fill="#00223d"/>
      <path id="Trazado_25490" data-name="Trazado 25490" d="M181.208,868.065a2.053,2.053,0,0,1,2.053,2.052h4.1a6.158,6.158,0,0,0-4.1-5.779v-2.429h-4.1v2.429a6.142,6.142,0,0,0,2.052,11.935,2.052,2.052,0,1,1-2.052,2.053h-4.1a6.157,6.157,0,0,0,4.1,5.779v2.429h4.1v-2.429a6.142,6.142,0,0,0-2.053-11.935,2.052,2.052,0,0,1,0-4.1Z" transform="translate(-76.548 -855.753)" fill="#00223d"/>
      <path id="Trazado_25491" data-name="Trazado 25491" d="M163.012,893.259a4.1,4.1,0,0,1,4.1,4.1h4.1a8.207,8.207,0,0,0-6.156-7.917v-4.4h-4.1v4.4a8.192,8.192,0,0,0,2.053,16.125,4.1,4.1,0,1,1-4.1,4.1h-4.1a8.21,8.21,0,0,0,6.156,7.917v4.4h4.1v-4.4a8.193,8.193,0,0,0-2.052-16.127,4.1,4.1,0,1,1,0-8.208Z" transform="translate(-85.03 -846.06)" fill="#00223d"/>
    </g>
  </g>
</svg>
