<svg xmlns="http://www.w3.org/2000/svg" width="178" height="178" viewBox="0 0 178 178">
  <g id="Grupo_16534" data-name="Grupo 16534" transform="translate(-4292 1083)">
    <rect id="Rectángulo_3956" data-name="Rectángulo 3956" width="178" height="178" transform="translate(4292 -1083)" fill="none"/>
    <g id="Grupo_16533" data-name="Grupo 16533" transform="translate(3251.372 -919.595)">
      <g id="Grupo_16266" data-name="Grupo 16266" transform="translate(1069.856 -134.42)">
        <g id="Grupo_16262" data-name="Grupo 16262">
          <path id="Trazado_24799" data-name="Trazado 24799" d="M1107.964-101.1v-24.218a4.857,4.857,0,0,0-4.844-4.844,4.858,4.858,0,0,0-4.844,4.844v-4.844a4.858,4.858,0,0,0-4.844-4.844,4.858,4.858,0,0,0-4.843,4.844v4.844a4.858,4.858,0,0,0-4.844-4.844,4.857,4.857,0,0,0-4.844,4.844v4.844a4.858,4.858,0,0,0-4.844-4.844,4.858,4.858,0,0,0-4.844,4.844v26.107c0,9.723,4.275,16.034,4.844,17.487V-54.6h29.062v-22.28a17.5,17.5,0,0,0,9.688-15.695V-101.1Z" transform="translate(-1069.214 135.003)" fill="#fce8d0"/>
        </g>
        <g id="Grupo_16263" data-name="Grupo 16263" transform="translate(75.562 38.75)">
          <path id="Trazado_24800" data-name="Trazado 24800" d="M1166.68-80.594l-1.355-2.712v-22.282h-29.063v22.282a17.5,17.5,0,0,0-9.688,15.694v8.525h4.844v24.22a4.859,4.859,0,0,0,4.844,4.844,4.859,4.859,0,0,0,4.844-4.844v4.844a4.859,4.859,0,0,0,4.844,4.844,4.859,4.859,0,0,0,4.844-4.844v-4.844a4.858,4.858,0,0,0,4.844,4.844,4.859,4.859,0,0,0,4.844-4.844v-4.844a4.858,4.858,0,0,0,4.844,4.844,4.858,4.858,0,0,0,4.843-4.844V-65.821A33.288,33.288,0,0,0,1166.68-80.594Z" transform="translate(-1126.573 105.588)" fill="#fce8d0"/>
        </g>
        <g id="Grupo_16264" data-name="Grupo 16264" transform="translate(38.75)">
          <path id="Trazado_24801" data-name="Trazado 24801" d="M1174.192-115.629h-4.844a4.858,4.858,0,0,0,4.844-4.843,4.858,4.858,0,0,0-4.844-4.844H1164.5a4.859,4.859,0,0,0,4.844-4.844A4.859,4.859,0,0,0,1164.5-135H1138.4a33.289,33.289,0,0,0-14.773,3.487l-2.713,1.357h-22.282V-101.1h22.282a17.5,17.5,0,0,0,15.694,9.688h8.525v-4.844h24.22a4.859,4.859,0,0,0,4.844-4.844,4.859,4.859,0,0,0-4.844-4.844h4.844a4.857,4.857,0,0,0,4.843-4.844A4.858,4.858,0,0,0,1174.192-115.629Z" transform="translate(-1098.629 135.003)" fill="#c86e59"/>
        </g>
        <g id="Grupo_16265" data-name="Grupo 16265" transform="translate(0 75.563)">
          <path id="Trazado_24802" data-name="Trazado 24802" d="M1127.34-67.956a17.5,17.5,0,0,0-15.694-9.687h-8.526V-72.8H1078.9a4.859,4.859,0,0,0-4.844,4.844,4.858,4.858,0,0,0,4.844,4.844h-4.844a4.859,4.859,0,0,0-4.844,4.844,4.859,4.859,0,0,0,4.844,4.844h4.844a4.859,4.859,0,0,0-4.844,4.844,4.859,4.859,0,0,0,4.844,4.844h4.844a4.857,4.857,0,0,0-4.844,4.844,4.858,4.858,0,0,0,4.844,4.844H1114.7a33.29,33.29,0,0,0,14.773-3.488l2.714-1.356h17.437V-67.956Z" transform="translate(-1069.214 77.643)" fill="#c86e59"/>
        </g>
      </g>
      <g id="Grupo_16267" data-name="Grupo 16267" transform="translate(1067.192 -136.841)">
        <path id="Trazado_24803" data-name="Trazado 24803" d="M1191.192-110.2a7.277,7.277,0,0,0-5.357-7.01,7.22,7.22,0,0,0,.514-2.678,7.277,7.277,0,0,0-5.358-7.01,7.215,7.215,0,0,0,.514-2.678,7.273,7.273,0,0,0-7.265-7.265h-26.107a35.958,35.958,0,0,0-15.857,3.743l-2.2,1.1h-26.554a7.21,7.21,0,0,0-2.677.514,7.278,7.278,0,0,0-7.01-5.358,7.277,7.277,0,0,0-7.01,5.358,7.215,7.215,0,0,0-2.678-.514,7.277,7.277,0,0,0-7.01,5.356,7.243,7.243,0,0,0-2.678-.514,7.275,7.275,0,0,0-7.265,7.267v26.107a37.635,37.635,0,0,0,4.844,18.058V-49.17a7.21,7.21,0,0,0,.514,2.678,7.277,7.277,0,0,0-5.358,7.01,7.277,7.277,0,0,0,5.358,7.01,7.216,7.216,0,0,0-.514,2.678,7.277,7.277,0,0,0,5.357,7.01,7.239,7.239,0,0,0-.512,2.678,7.273,7.273,0,0,0,7.265,7.265h5.836a2.422,2.422,0,0,0,2.422-2.421,2.422,2.422,0,0,0-2.422-2.423h-5.836a2.425,2.425,0,0,1-2.423-2.421,2.425,2.425,0,0,1,2.423-2.423h4.844a2.421,2.421,0,0,0,2.421-2.421,2.422,2.422,0,0,0-2.421-2.423H1079.3a2.423,2.423,0,0,1-2.421-2.421,2.424,2.424,0,0,1,2.421-2.423h9.688a2.421,2.421,0,0,0,2.421-2.421,2.421,2.421,0,0,0-2.421-2.421h-14.532a2.424,2.424,0,0,1-2.421-2.423,2.423,2.423,0,0,1,2.421-2.421h14.532a2.422,2.422,0,0,0,2.421-2.423,2.421,2.421,0,0,0-2.421-2.421H1079.3a2.424,2.424,0,0,1-2.421-2.423,2.424,2.424,0,0,1,2.421-2.421h24.218a2.422,2.422,0,0,0,2.423-2.423v-2.421h6.1a14.983,14.983,0,0,1,13.524,8.341,2.421,2.421,0,0,0,2.17,1.346H1147.6v21.8a7.232,7.232,0,0,0,.416,2.421h-15.431a2.428,2.428,0,0,0-1.083.256l-2.7,1.352a31.059,31.059,0,0,1-13.7,3.237h-3.366a2.422,2.422,0,0,0-2.421,2.423,2.422,2.422,0,0,0,2.421,2.421h3.366a35.946,35.946,0,0,0,15.857-3.744l2.2-1.1h21.708a7.212,7.212,0,0,0,2.678-.514,7.277,7.277,0,0,0,7.01,5.358,7.277,7.277,0,0,0,7.01-5.358,7.215,7.215,0,0,0,2.678.514,7.277,7.277,0,0,0,7.01-5.358,7.216,7.216,0,0,0,2.678.514,7.273,7.273,0,0,0,7.265-7.265V-58.856a2.4,2.4,0,0,0-.232-1.029,36.21,36.21,0,0,0-3.511-11.873l-1.1-2.2v-26.554a7.213,7.213,0,0,0-.514-2.677A7.277,7.277,0,0,0,1191.192-110.2ZM1101.1-56.435h-21.8a7.224,7.224,0,0,0-2.421.416V-76.294a2.41,2.41,0,0,0-.257-1.083c-.549-1.407-4.587-7.343-4.587-16.4v-26.107a2.424,2.424,0,0,1,2.421-2.423,2.425,2.425,0,0,1,2.423,2.423v4.844a2.421,2.421,0,0,0,2.421,2.421,2.421,2.421,0,0,0,2.421-2.421v-9.688a2.425,2.425,0,0,1,2.423-2.423,2.424,2.424,0,0,1,2.421,2.423v9.688a2.422,2.422,0,0,0,2.423,2.421,2.421,2.421,0,0,0,2.421-2.421v-14.532a2.424,2.424,0,0,1,2.423-2.421,2.424,2.424,0,0,1,2.421,2.421v14.532a2.422,2.422,0,0,0,2.423,2.421,2.421,2.421,0,0,0,2.421-2.421v-9.688a2.425,2.425,0,0,1,2.421-2.423,2.426,2.426,0,0,1,2.423,2.423v24.218a2.422,2.422,0,0,0,2.421,2.423h2.423v6.1a15.182,15.182,0,0,1-8.342,13.524,2.421,2.421,0,0,0-1.346,2.17Zm10.947-4.844h-6.1V-74.857a19.8,19.8,0,0,0,9.688-17.131v-6.1h13.578a19.8,19.8,0,0,0,17.131,9.688h6.1v13.578a19.8,19.8,0,0,0-9.688,17.131v6.1h-13.578a19.8,19.8,0,0,0-17.131-9.688Zm74.3,31.485a2.424,2.424,0,0,1-2.421,2.421,2.424,2.424,0,0,1-2.423-2.421v-4.844a2.421,2.421,0,0,0-2.421-2.421,2.423,2.423,0,0,0-2.423,2.421v9.688a2.424,2.424,0,0,1-2.421,2.421,2.425,2.425,0,0,1-2.423-2.421v-9.688a2.422,2.422,0,0,0-2.421-2.421,2.421,2.421,0,0,0-2.421,2.421v14.532a2.425,2.425,0,0,1-2.422,2.421,2.424,2.424,0,0,1-2.421-2.421V-34.638a2.423,2.423,0,0,0-2.423-2.421,2.422,2.422,0,0,0-2.421,2.421v9.688a2.425,2.425,0,0,1-2.422,2.421,2.425,2.425,0,0,1-2.421-2.421V-49.17a2.422,2.422,0,0,0-2.422-2.421H1147.6v-6.1a14.983,14.983,0,0,1,8.342-13.524,2.422,2.422,0,0,0,1.346-2.17V-93.247h21.8a7.2,7.2,0,0,0,2.421-.418v20.277a2.43,2.43,0,0,0,.256,1.083l1.352,2.7a31.069,31.069,0,0,1,3.237,13.7Zm-2.421-77.985H1169.4a2.421,2.421,0,0,0-2.421,2.421,2.422,2.422,0,0,0,2.421,2.423h9.688a2.424,2.424,0,0,1,2.421,2.421,2.424,2.424,0,0,1-2.421,2.423h-24.22a2.422,2.422,0,0,0-2.421,2.421v2.423h-6.1a15.18,15.18,0,0,1-13.524-8.341,2.42,2.42,0,0,0-2.17-1.346h-19.859v-21.8a7.237,7.237,0,0,0-.417-2.423h20.276a2.414,2.414,0,0,0,1.083-.256c1.4-.549,7.343-4.587,16.4-4.587h26.109a2.423,2.423,0,0,1,2.421,2.421,2.423,2.423,0,0,1-2.421,2.421H1169.4a2.423,2.423,0,0,0-2.421,2.423,2.421,2.421,0,0,0,2.421,2.421h9.688a2.424,2.424,0,0,1,2.421,2.423,2.423,2.423,0,0,1-2.421,2.421H1169.4a2.422,2.422,0,0,0-2.421,2.423,2.421,2.421,0,0,0,2.421,2.421h14.532a2.425,2.425,0,0,1,2.421,2.423A2.425,2.425,0,0,1,1183.927-107.779Z" transform="translate(-1067.192 136.841)" fill="#00223d"/>
        <circle id="Elipse_867" data-name="Elipse 867" cx="2.422" cy="2.422" r="2.422" transform="translate(31.484 118.43)" fill="#00223d"/>
      </g>
    </g>
  </g>
</svg>
