<svg xmlns="http://www.w3.org/2000/svg" width="178" height="178" viewBox="0 0 178 178">
  <g id="Grupo_16538" data-name="Grupo 16538" transform="translate(-4292 639)">
    <rect id="Rectángulo_3960" data-name="Rectángulo 3960" width="178" height="178" transform="translate(4292 -639)" fill="none"/>
    <g id="Grupo_16469" data-name="Grupo 16469" transform="translate(4325.807 -608.564)">
      <path id="Trazado_25527" data-name="Trazado 25527" d="M130.584,996.6h-1.955a3.91,3.91,0,0,0-3.91,3.91v1.955a9.786,9.786,0,0,0,9.774,9.776h1.956a3.91,3.91,0,0,0,3.91-3.91v-1.955A9.788,9.788,0,0,0,130.584,996.6Z" transform="translate(-109.079 -941.859)" fill="#33bc00"/>
      <path id="Trazado_25528" data-name="Trazado 25528" d="M138.115,996.6H136.16a3.909,3.909,0,0,0-3.91,3.91v1.955a9.786,9.786,0,0,0,9.774,9.776h1.955a3.909,3.909,0,0,0,3.91-3.91v-1.955A9.787,9.787,0,0,0,138.115,996.6Z" transform="translate(-104.879 -941.859)" fill="#79d60d"/>
      <path id="Trazado_25529" data-name="Trazado 25529" d="M128.074,1004.131h-1.955a3.909,3.909,0,0,0-3.91,3.91V1010a9.787,9.787,0,0,0,9.774,9.776h1.955a3.911,3.911,0,0,0,3.911-3.911v-1.955A9.788,9.788,0,0,0,128.074,1004.131Z" transform="translate(-110.478 -937.659)" fill="#025902"/>
      <path id="Trazado_25530" data-name="Trazado 25530" d="M135.605,1004.131H133.65a3.911,3.911,0,0,0-3.911,3.91V1010a9.788,9.788,0,0,0,9.776,9.776h1.955a3.91,3.91,0,0,0,3.91-3.911v-1.955A9.786,9.786,0,0,0,135.605,1004.131Z" transform="translate(-106.279 -937.659)" fill="#008100"/>
      <path id="Trazado_25531" data-name="Trazado 25531" d="M143.135,1004.131H141.18a3.91,3.91,0,0,0-3.91,3.91V1010a9.787,9.787,0,0,0,9.774,9.776H149a3.91,3.91,0,0,0,3.91-3.911v-1.955A9.787,9.787,0,0,0,143.135,1004.131Z" transform="translate(-102.079 -937.659)" fill="#33bc00"/>
      <g id="Grupo_16464" data-name="Grupo 16464" transform="translate(68.526 46.295)">
        <path id="Trazado_25532" data-name="Trazado 25532" d="M158.671,997.048l1.955-5.864,3.709,1.237-1.955,5.865Z" transform="translate(-158.671 -991.175)" fill="#008100"/>
        <path id="Trazado_25533" data-name="Trazado 25533" d="M163.692,997.043l1.955-5.865,3.709,1.239-1.955,5.863Z" transform="translate(-155.871 -991.178)" fill="#008100"/>
        <path id="Trazado_25534" data-name="Trazado 25534" d="M168.714,997.046l1.956-5.863,3.709,1.237-1.956,5.865Z" transform="translate(-153.07 -991.175)" fill="#008100"/>
      </g>
      <path id="Trazado_25535" data-name="Trazado 25535" d="M161.962,994.09a5.864,5.864,0,0,0-5.865,5.864v9.776h11.729v-9.776A5.865,5.865,0,0,0,161.962,994.09Z" transform="translate(-91.58 -943.259)" fill="#f80"/>
      <path id="Trazado_25536" data-name="Trazado 25536" d="M166.982,994.09a5.865,5.865,0,0,0-5.865,5.864v9.776h11.731v-9.776A5.866,5.866,0,0,0,166.982,994.09Z" transform="translate(-88.781 -943.259)" fill="#ff6536"/>
      <path id="Trazado_25537" data-name="Trazado 25537" d="M172,994.09a5.866,5.866,0,0,0-5.866,5.864v9.776h11.731v-9.776A5.865,5.865,0,0,0,172,994.09Z" transform="translate(-85.981 -943.259)" fill="#ff421d"/>
      <path id="Trazado_25538" data-name="Trazado 25538" d="M153.586,1002.876h35.191v15.641H153.586Z" transform="translate(-92.98 -938.359)" fill="#ffa900"/>
      <g id="Grupo_16465" data-name="Grupo 16465" transform="translate(25.415 1.955)">
        <path id="Trazado_25539" data-name="Trazado 25539" d="M146.056,962.712h11.729v27.371H146.056Z" transform="translate(-122.594 -962.712)" fill="#de0418"/>
        <path id="Trazado_25540" data-name="Trazado 25540" d="M142.725,990.083V962.712h-8.689l-3.042,27.371Z" transform="translate(-130.994 -962.712)" fill="#de0418"/>
      </g>
      <g id="Grupo_16466" data-name="Grupo 16466" transform="translate(13.686 1.955)">
        <path id="Trazado_25541" data-name="Trazado 25541" d="M138.525,962.712h11.731v27.371H138.525Z" transform="translate(-115.065 -962.712)" fill="#fbbf00"/>
        <path id="Trazado_25542" data-name="Trazado 25542" d="M135.193,990.083l3.042-27.371h-8.69l-6.081,27.371Z" transform="translate(-123.464 -962.712)" fill="#fbbf00"/>
        <path id="Trazado_25543" data-name="Trazado 25543" d="M181.466,990.083l-6.081-27.371H166.7l3.042,27.371Z" transform="translate(-99.356 -962.712)" fill="#fbbf00"/>
      </g>
      <g id="Grupo_16467" data-name="Grupo 16467" transform="translate(1.955 1.955)">
        <path id="Trazado_25544" data-name="Trazado 25544" d="M133.745,962.712h-6.081l-11.731,23.462v3.91h11.731Z" transform="translate(-115.933 -962.712)" fill="#de0418"/>
        <path id="Trazado_25545" data-name="Trazado 25545" d="M172.848,990.083l-3.042-27.371h-8.689v27.371Z" transform="translate(-90.736 -962.712)" fill="#de0418"/>
      </g>
      <path id="Trazado_25546" data-name="Trazado 25546" d="M153.586,962.712h11.731v27.371H153.586Z" transform="translate(-92.98 -960.757)" fill="#fbbf00"/>
      <path id="Trazado_25547" data-name="Trazado 25547" d="M178.355,962.712h-6.081l6.081,27.371h11.731v-3.91Z" transform="translate(-82.559 -960.757)" fill="#de0418"/>
      <path id="Trazado_25548" data-name="Trazado 25548" d="M115.933,980.284v5.865a5.865,5.865,0,0,0,11.731,0v-5.865Z" transform="translate(-113.978 -950.958)" fill="#ff421d"/>
      <path id="Trazado_25549" data-name="Trazado 25549" d="M123.464,980.284v5.865a5.865,5.865,0,1,0,11.729,0v-5.865Z" transform="translate(-109.778 -950.958)" fill="#ffdb0c"/>
      <path id="Trazado_25550" data-name="Trazado 25550" d="M130.994,980.284v5.865a5.865,5.865,0,0,0,11.731,0v-5.865Z" transform="translate(-105.579 -950.958)" fill="#ff421d"/>
      <path id="Trazado_25551" data-name="Trazado 25551" d="M138.525,980.284v5.865a5.865,5.865,0,0,0,11.731,0v-5.865Z" transform="translate(-101.379 -950.958)" fill="#ffdb0c"/>
      <path id="Trazado_25552" data-name="Trazado 25552" d="M146.056,980.284v5.865a5.865,5.865,0,1,0,11.729,0v-5.865Z" transform="translate(-97.18 -950.958)" fill="#ff421d"/>
      <path id="Trazado_25553" data-name="Trazado 25553" d="M153.586,980.284v5.865a5.865,5.865,0,0,0,11.731,0v-5.865Z" transform="translate(-92.98 -950.958)" fill="#ffdb0c"/>
      <path id="Trazado_25554" data-name="Trazado 25554" d="M161.117,980.284v5.865a5.865,5.865,0,0,0,11.731,0v-5.865Z" transform="translate(-88.781 -950.958)" fill="#ff421d"/>
      <path id="Trazado_25555" data-name="Trazado 25555" d="M168.648,980.284v5.865a5.865,5.865,0,1,0,11.729,0v-5.865Z" transform="translate(-84.581 -950.958)" fill="#ffdb0c"/>
      <path id="Trazado_25556" data-name="Trazado 25556" d="M176.178,986.149a5.865,5.865,0,0,0,11.731,0v-5.865H176.178Z" transform="translate(-80.382 -950.958)" fill="#ff421d"/>
      <path id="Trazado_25557" data-name="Trazado 25557" d="M114.678,1011.661H224.16v39.1H114.678Z" transform="translate(-114.678 -933.46)" fill="#ffdb0c"/>
      <g id="Grupo_16468" data-name="Grupo 16468" transform="translate(68.998 84.643)">
        <path id="Trazado_25558" data-name="Trazado 25558" d="M158.974,1021.663l5.866-5.866,2.765,2.765-5.866,5.866Z" transform="translate(-158.974 -1015.797)" fill="#33bc00"/>
        <path id="Trazado_25559" data-name="Trazado 25559" d="M161.117,1020.447h5.865v3.91h-5.865Z" transform="translate(-157.779 -1013.204)" fill="#33bc00"/>
      </g>
      <path id="Trazado_25560" data-name="Trazado 25560" d="M162.776,1017.937h-.626a8.015,8.015,0,0,0-6.508,3.349l-7.416,10.383a4.917,4.917,0,0,0,4,7.773h.251a4.981,4.981,0,0,0,2.2-.517l11.678-5.84a8,8,0,0,0-3.578-15.148Z" transform="translate(-96.48 -929.96)" fill="#ff6536"/>
      <path id="Trazado_25561" data-name="Trazado 25561" d="M145.645,1019.192H143.69a3.91,3.91,0,0,0-3.91,3.91v1.955a13.7,13.7,0,0,0,13.686,13.686h1.955a3.91,3.91,0,0,0,3.91-3.91v-1.955A13.7,13.7,0,0,0,145.645,1019.192Z" transform="translate(-100.68 -929.261)" fill="#79d60d"/>
      <path id="Trazado_25562" data-name="Trazado 25562" d="M211.683,961.457H127.155l-12.477,24.954v10.237a7.8,7.8,0,0,0,3.91,6.734v36.276h-3.91v39.1H224.16v-39.1h-3.91v-36.276a7.8,7.8,0,0,0,3.91-6.734V986.411Zm-3.164,35.191a3.91,3.91,0,1,1-7.819,0v-3.91h7.819Zm-11.731,0a3.91,3.91,0,1,1-7.819,0v-3.91h7.819Zm-11.729,0a3.911,3.911,0,0,1-7.821,0v-3.91h7.821Zm-11.731,0a3.91,3.91,0,1,1-7.819,0v-3.91h7.819Zm-11.729,0a3.911,3.911,0,0,1-7.821,0v-3.91H161.6Zm-11.731,0a3.91,3.91,0,1,1-7.819,0v-3.91h7.819Zm-11.731,0a3.91,3.91,0,1,1-7.819,0v-3.91h7.819Zm27.371-7.819V965.367h7.819v23.461Zm-3.91,0h-7.821V965.367H161.6Zm-11.731,0h-7.52l3.351-23.461h4.17Zm-11.471,0h-7.443l6.7-23.461h4.09Zm62.3,0h-.26l-3.351-23.461h4.09l6.7,23.461Zm-7.561-23.461,3.351,23.461h-7.52V965.367Zm-8.08,23.461h-7.821V965.367h7.821Zm-66.472-1.494,10.983-21.968h4.02l-6.7,23.461h-8.3Zm7.821,5.4v3.91a3.911,3.911,0,0,1-7.821,0v-3.91Zm93.841,82.11H118.588v-31.279H220.25Zm-89.932-41.055v-1.955h1.955a5.864,5.864,0,0,1,5.865,5.865v1.955h-1.955A5.864,5.864,0,0,1,130.318,1033.793Zm31.281,5.865h-1.956a5.864,5.864,0,0,1-5.865-5.865v-1.955h1.955a5.866,5.866,0,0,1,5.866,5.865Zm-19.55-5.865v-1.955H144a5.865,5.865,0,0,1,5.865,5.865v1.955h-1.955A5.863,5.863,0,0,1,142.049,1033.793Zm11.729-5.865h-1.955a5.865,5.865,0,0,1-5.865-5.866v-1.955h1.955a5.866,5.866,0,0,1,5.865,5.866Zm-11.729,0h-1.956a5.866,5.866,0,0,1-5.865-5.866v-1.955h1.955a5.866,5.866,0,0,1,5.866,5.866Zm43.01-11.731a1.955,1.955,0,0,1,1.955,1.955v5.866H183.1v-5.866A1.955,1.955,0,0,1,185.059,1016.2Zm5.865,1.955a1.955,1.955,0,0,1,3.91,0v5.866h-3.91Zm7.821,0a1.955,1.955,0,0,1,3.91,0v5.866h-3.91Zm-11.731,9.776h21.505v11.729H177.238v-11.729Zm29.326,11.729h-3.911v-15.639h-5.865v-5.866a5.867,5.867,0,0,0-3.349-5.279l1.294-3.88-3.715-1.237-1.579,4.74a5.851,5.851,0,0,0-2.427,1.316,5.844,5.844,0,0,0-1.393-.936l1.293-3.882-3.713-1.237-1.579,4.74a5.831,5.831,0,0,0-2.427,1.315,5.853,5.853,0,0,0-1.394-.936l1.294-3.882-3.715-1.237-1.579,4.74a5.864,5.864,0,0,0-4.38,5.654v5.866h-5.866v15.639h-7.819V1037.7a9.792,9.792,0,0,0-7.84-9.58c0-.065.019-.129.019-.195v-1.955a9.787,9.787,0,0,0-9.774-9.776h-1.955a3.909,3.909,0,0,0-3.555,2.3,9.684,9.684,0,0,0-6.221-2.3h-1.955a3.91,3.91,0,0,0-3.91,3.91v1.955a9.688,9.688,0,0,0,2.009,5.866h-2.009a3.909,3.909,0,0,0-3.91,3.91v1.955a9.683,9.683,0,0,0,2,5.865H122.5v-35.191a7.767,7.767,0,0,0,5.866-2.7,7.714,7.714,0,0,0,10.876.854,7.614,7.614,0,0,0,.854-.854,7.716,7.716,0,0,0,10.877.854,7.617,7.617,0,0,0,.854-.854,7.715,7.715,0,0,0,11.731,0,7.714,7.714,0,0,0,10.876.854,7.616,7.616,0,0,0,.854-.854,7.716,7.716,0,0,0,10.877.854,7.615,7.615,0,0,0,.854-.854,7.715,7.715,0,0,0,11.731,0,7.714,7.714,0,0,0,10.876.854,7.616,7.616,0,0,0,.854-.854,7.767,7.767,0,0,0,5.866,2.7Zm3.91-43.01a3.911,3.911,0,0,1-7.821,0v-3.91h7.821Zm-7.821-7.819h-.48l-6.7-23.461h4.02l10.983,21.968v1.494Z" transform="translate(-114.678 -961.457)" fill="#00223d"/>
      <path id="Trazado_25563" data-name="Trazado 25563" d="M157.352,1006.641h23.46v3.91h-23.46Z" transform="translate(-90.88 -936.26)" fill="#00223d"/>
      <path id="Trazado_25564" data-name="Trazado 25564" d="M178.309,1018.559l-2.765-2.765-4.5,4.5a7.91,7.91,0,0,0-4.072-1.159h-.626a8.015,8.015,0,0,0-6.508,3.349l-3.1,4.343a13.566,13.566,0,0,0-11.1-5.737H143.69a3.91,3.91,0,0,0-3.91,3.91v1.955a13.7,13.7,0,0,0,13.686,13.686h1.955a2.469,2.469,0,0,0,.514-.055,4.772,4.772,0,0,0,.491.055h.251a4.926,4.926,0,0,0,2.2-.52l11.675-5.837a7.955,7.955,0,0,0,4.421-7.153c0-.061-.016-.117-.017-.176h3.927v-3.91h-5.055Zm-34.619,8.393V1025h1.955a9.8,9.8,0,0,1,9.776,9.776l-.012,1.917-1.942.037A9.789,9.789,0,0,1,143.69,1026.952Zm25.113,3.83-9.472,4.737v-.746a13.743,13.743,0,0,0-.134-1.807c-.019-.131-.036-.26-.058-.391a13.467,13.467,0,0,0-.391-1.734.126.126,0,0,0-.016-.073l4.3-6.017a4.11,4.11,0,0,1,3.316-1.709h.623a4.086,4.086,0,0,1,1.829,7.74Z" transform="translate(-100.68 -931.155)" fill="#00223d"/>
    </g>
  </g>
</svg>
