<svg xmlns="http://www.w3.org/2000/svg" width="159" height="159" viewBox="0 0 159 159">
  <g id="Grupo_16508" data-name="Grupo 16508" transform="translate(-2345 -879)">
    <rect id="Rectángulo_3952" data-name="Rectángulo 3952" width="159" height="159" transform="translate(2345 879)" fill="none"/>
    <g id="Grupo_16503" data-name="Grupo 16503" transform="translate(-69.184 -178.389)">
      <g id="Grupo_16471" data-name="Grupo 16471" transform="translate(2012.68 282.504)">
        <g id="Grupo_16470" data-name="Grupo 16470" transform="translate(420.35 806.731)">
          <path id="Trazado_25565" data-name="Trazado 25565" d="M420.128,827.162H538.2a5.02,5.02,0,0,1,4.054,4.054v64.147a5.027,5.027,0,0,1-4.054,4.054H431.865a11.74,11.74,0,0,1-11.737-11.744V827.162Z" transform="translate(-420.128 -803.682)" fill="#ecf4ff" fill-rule="evenodd"/>
          <path id="Trazado_25566" data-name="Trazado 25566" d="M431.865,806.509a11.733,11.733,0,0,0-11.737,11.737V890.5a11.734,11.734,0,0,1,11.737-11.737,10.964,10.964,0,0,1,5.823,1.539.816.816,0,0,0,1.254-.766V810.374a2.856,2.856,0,0,0-1.428-2.424,11.617,11.617,0,0,0-5.649-1.442Z" transform="translate(-420.128 -806.509)" fill="#cbe2ff" fill-rule="evenodd"/>
          <path id="Trazado_25567" data-name="Trazado 25567" d="M447.094,835.434h17.539a1.8,1.8,0,0,1,1.791,1.789v17.533a1.794,1.794,0,0,1-1.791,1.79H447.094a1.788,1.788,0,0,1-1.784-1.79V837.223a1.793,1.793,0,0,1,1.784-1.789Z" transform="translate(-416.681 -802.549)" fill="#cbe2ff" fill-rule="evenodd"/>
          <path id="Trazado_25568" data-name="Trazado 25568" d="M520.791,818.653l-8.227-2.5-7.523,2.5V877.36l7.92,2.061,7.83-2.061Z" transform="translate(-408.504 -805.189)" fill="#ff6978" fill-rule="evenodd"/>
          <path id="Trazado_25569" data-name="Trazado 25569" d="M513.91,883.537l2.946-5.795,3.936-7.753H505.042l3.936,7.753,2.947,5.795a1.081,1.081,0,0,0,1.985,0Z" transform="translate(-408.504 -797.819)" fill="#ffcbbe" fill-rule="evenodd"/>
          <path id="Trazado_25570" data-name="Trazado 25570" d="M520.791,819.973v-8.652a4.827,4.827,0,0,0-4.814-4.812h-6.115a4.829,4.829,0,0,0-4.82,4.813v8.652Z" transform="translate(-408.504 -806.509)" fill="#ff8793" fill-rule="evenodd"/>
          <path id="Trazado_25571" data-name="Trazado 25571" d="M446.531,885.024H458.54l1.971-6.519-1.971-5.072H446.531a3.735,3.735,0,0,0-3.016,3.023v5.551a3.736,3.736,0,0,0,3.016,3.016Z" transform="translate(-416.926 -797.347)" fill="#f2ce7e" fill-rule="evenodd"/>
          <path id="Trazado_25572" data-name="Trazado 25572" d="M456.731,886.51h15.032l2.054-7.411-2.054-11.4v-2.1a3.735,3.735,0,0,0-3.023-3.023h-8.986a3.735,3.735,0,0,0-3.023,3.023V886.51Z" transform="translate(-415.117 -798.834)" fill="#b3e59f" fill-rule="evenodd"/>
          <path id="Trazado_25573" data-name="Trazado 25573" d="M469.953,885.893h15.025L486.5,880.9l-1.518-6.6V870.1a3.735,3.735,0,0,0-3.023-3.016h-12Z" transform="translate(-413.307 -798.217)" fill="#f2ce7e" fill-rule="evenodd"/>
          <path id="Trazado_25574" data-name="Trazado 25574" d="M483.169,885.024h12.009a3.736,3.736,0,0,0,3.016-3.016v-5.551a3.735,3.735,0,0,0-3.016-3.023H483.169Z" transform="translate(-411.498 -797.347)" fill="#b3e59f" fill-rule="evenodd"/>
          <path id="Trazado_25575" data-name="Trazado 25575" d="M532.12,893.454H425.781a11.679,11.679,0,0,1-4.765-1.01,11.734,11.734,0,0,0,10.728,6.973H538.082a5.025,5.025,0,0,0,4.054-4.054V831.216a5.018,5.018,0,0,0-4.054-4.054h-1.908V889.4a5.026,5.026,0,0,1-4.054,4.054Z" transform="translate(-420.006 -803.682)" fill="#cbe2ff" fill-rule="evenodd"/>
          <path id="Trazado_25576" data-name="Trazado 25576" d="M431.924,829.989v48.816a10.6,10.6,0,0,1,4.709,1.5.816.816,0,0,0,1.254-.766V810.374a2.856,2.856,0,0,0-1.428-2.424,11.617,11.617,0,0,0-5.649-1.442,11.92,11.92,0,0,0-2.974.376,11.908,11.908,0,0,1,2.66,1.065,2.854,2.854,0,0,1,1.428,2.424v19.615Z" transform="translate(-419.073 -806.509)" fill="#bed8fb" fill-rule="evenodd"/>
          <path id="Trazado_25577" data-name="Trazado 25577" d="M513.65,818.352v58.707h5.963V818.352Z" transform="translate(-407.325 -804.888)" fill="#eb616f" fill-rule="evenodd"/>
          <path id="Trazado_25578" data-name="Trazado 25578" d="M514.23,811.321v8.652h5.963v-8.652a4.827,4.827,0,0,0-4.814-4.812h-5.97A4.829,4.829,0,0,1,514.23,811.321Z" transform="translate(-407.906 -806.509)" fill="#f77b87" fill-rule="evenodd"/>
        </g>
        <path id="Trazado_25579" data-name="Trazado 25579" d="M530.8,818.356v-6.812a3,3,0,0,0-2.975-2.974h-6.115a2.985,2.985,0,0,0-2.974,2.974v6.813H530.8Zm-77.042,33.122a1.843,1.843,0,0,1,2.606-2.606l1.678,1.679,4.66-4.667a1.845,1.845,0,0,1,2.606,2.611l-5.963,5.963a1.845,1.845,0,0,1-2.6,0Zm69.163-21.267a1.842,1.842,0,1,1,3.685,0v38.681a1.842,1.842,0,1,1-3.685,0Zm-29.055,62.358h11.341v-7.907H493.867Zm13.179,3.685H446.939a1.85,1.85,0,0,1-1.846-1.846V882.817a1.843,1.843,0,0,1,1.846-1.839h13.186v-10.5a1.837,1.837,0,0,1,1.839-1.838H477a1.837,1.837,0,0,1,1.84,1.838v3.274H492.02a1.849,1.849,0,0,1,1.846,1.845v5.384h13.179a1.843,1.843,0,0,1,1.846,1.839v11.591a1.85,1.85,0,0,1-1.846,1.846Zm-28.211-3.685h11.341v-15.13H478.835Zm-15.025,0H475.15V872.32H463.809Zm-15.032,0h11.347v-7.907H448.777ZM441,828.366h74.038V811.544a6.684,6.684,0,0,1,6.667-6.659h6.115a6.684,6.684,0,0,1,6.66,6.659v16.823h8a1.843,1.843,0,0,1,1.839,1.846v72.254a1.837,1.837,0,0,1-1.839,1.838H491.456a1.842,1.842,0,0,1,0-3.685h49.179v-68.57h-6.151v13.326a1.843,1.843,0,1,1-3.686,0V822.042H518.734v55.021H530.8V853.728a1.843,1.843,0,1,1,3.686,0V878.9a1.962,1.962,0,0,1-.314,1.045l-7.76,15.282a1.877,1.877,0,0,1-.822.822,1.833,1.833,0,0,1-2.465-.815l-7.788-15.324a1.954,1.954,0,0,1-.293-1.01V832.051H441V846a1.843,1.843,0,1,1-3.686,0V810.06a9.782,9.782,0,0,0-5.231-1.49,9.894,9.894,0,0,0-9.9,9.9v62.956c.1-.1.2-.209.293-.307a13.542,13.542,0,0,1,9.606-3.977,13.764,13.764,0,0,1,4.319.7c.306.1.613.223.912.349V854.348a1.842,1.842,0,1,1,3.685,0v27.006a1.843,1.843,0,0,1-2.953,1.463,9.666,9.666,0,0,0-2.815-1.484,9.9,9.9,0,1,0-3.148,19.287h51.024a1.843,1.843,0,0,1,0,3.686H432.088A13.582,13.582,0,0,1,418.5,890.723V818.467a13.583,13.583,0,0,1,21.677-10.907A1.856,1.856,0,0,1,441,809.1v19.267Zm88.638,52.381h-9.758l4.883,9.606Zm-24.631-41.216a1.842,1.842,0,0,1,0,3.685H480.068a1.842,1.842,0,0,1,0-3.685Zm-10.372,17.6a1.842,1.842,0,1,1,0,3.685H480.068a1.842,1.842,0,0,1,0-3.685Zm10.372-8.8a1.843,1.843,0,0,1,0,3.686H480.068a1.843,1.843,0,0,1,0-3.686ZM448.98,837.77h21.113a1.843,1.843,0,0,1,1.838,1.846v21.112a1.843,1.843,0,0,1-1.838,1.846H448.98a1.845,1.845,0,0,1-1.846-1.846V839.616A1.845,1.845,0,0,1,448.98,837.77Zm19.267,3.692H450.819V858.89h17.427Z" fill="#00223d"/>
      </g>
    </g>
  </g>
</svg>
