<svg xmlns="http://www.w3.org/2000/svg" width="75" height="70" viewBox="0 0 75 70">
  <g id="Grupo_16531" data-name="Grupo 16531" transform="translate(-248 -1806)">
    <g id="Grupo_16242" data-name="Grupo 16242" transform="translate(13 -284)">
      <circle id="Elipse_698" data-name="Elipse 698" cx="35" cy="35" r="35" transform="translate(235 2090)" fill="#f6ff9b"/>
      <g id="Grupo_16241" data-name="Grupo 16241" transform="translate(241.772 2090)">
        <g id="Grupo_16239" data-name="Grupo 16239" transform="translate(1.018 1.018)">
          <g id="Grupo_16235" data-name="Grupo 16235">
            <path id="Trazado_9975" data-name="Trazado 9975" d="M1378.171-210.085h-35.037a9.263,9.263,0,0,1-9.263-9.262v-41.76a9.263,9.263,0,0,1,9.263-9.263h35.037a9.263,9.263,0,0,1,9.263,9.263v41.76a9.263,9.263,0,0,1-9.263,9.262Z" transform="translate(-1333.87 277.568)" fill="#f4fbff"/>
            <path id="Trazado_9976" data-name="Trazado 9976" d="M1347.539-210.083h-4.4a9.262,9.262,0,0,1-9.264-9.264v-41.759a9.262,9.262,0,0,1,9.264-9.262h4.4a9.262,9.262,0,0,0-9.262,9.262v41.759a9.262,9.262,0,0,0,9.262,9.264Z" transform="translate(-1333.87 277.568)" fill="#e4f6ff"/>
            <path id="Trazado_9977" data-name="Trazado 9977" d="M1370.3-273.481a8.468,8.468,0,0,0-7.872-5.347,8.469,8.469,0,0,0-7.872,5.347h-2.983a5.8,5.8,0,0,0-5.795,5.8,5.8,5.8,0,0,0,5.795,5.795h21.71a5.8,5.8,0,0,0,5.795-5.795,5.794,5.794,0,0,0-5.795-5.8Z" transform="translate(-1335.643 278.828)" fill="#ffe07d"/>
            <path id="Trazado_9978" data-name="Trazado 9978" d="M1365.186-278.366a8.485,8.485,0,0,0-5.111,4.884h-2.984a5.8,5.8,0,0,0-5.8,5.8,5.778,5.778,0,0,0,1.7,4.1,5.768,5.768,0,0,0,4.1,1.7h-5.52a5.771,5.771,0,0,1-4.1-1.7,5.771,5.771,0,0,1-1.7-4.1,5.8,5.8,0,0,1,5.795-5.8h2.982a8.471,8.471,0,0,1,7.873-5.346A8.416,8.416,0,0,1,1365.186-278.366Z" transform="translate(-1335.643 278.828)" fill="#ffd064"/>
            <circle id="Elipse_697" data-name="Elipse 697" cx="3.465" cy="3.465" r="3.465" transform="translate(23.317 5.004)" fill="#365e7d"/>
          </g>
          <g id="Grupo_16236" data-name="Grupo 16236" transform="translate(7.696 23.03)">
            <path id="Trazado_9979" data-name="Trazado 9979" d="M1352.3-238.939h-5.942a3.443,3.443,0,0,1-3.443-3.443v-5.942a3.443,3.443,0,0,1,3.443-3.443h5.942a3.443,3.443,0,0,1,3.443,3.443v5.942A3.443,3.443,0,0,1,1352.3-238.939Z" transform="translate(-1342.913 251.768)" fill="#b3e59f"/>
          </g>
          <g id="Grupo_16237" data-name="Grupo 16237" transform="translate(7.696 42.421)">
            <path id="Trazado_9980" data-name="Trazado 9980" d="M1352.3-216.156h-5.942a3.443,3.443,0,0,1-3.443-3.443v-5.941a3.443,3.443,0,0,1,3.443-3.443h5.942a3.443,3.443,0,0,1,3.443,3.443v5.941A3.443,3.443,0,0,1,1352.3-216.156Z" transform="translate(-1342.913 228.984)" fill="#b3e59f"/>
          </g>
          <g id="Grupo_16238" data-name="Grupo 16238" transform="translate(32.696 7.038)">
            <path id="Trazado_9981" data-name="Trazado 9981" d="M1396.218-244.16a3.313,3.313,0,0,0,4.65-.562l7.063-9a3.313,3.313,0,0,0-.562-4.65,3.312,3.312,0,0,0-4.65.561l-7.063,9A3.312,3.312,0,0,0,1396.218-244.16Z" transform="translate(-1375.662 268.849)" fill="#80b4fb"/>
            <path id="Trazado_9982" data-name="Trazado 9982" d="M1380.641-227.082l-1.179,1.5a4.015,4.015,0,0,1-5.637.68,4.015,4.015,0,0,1-.68-5.637l1.179-1.5,6.3-.546Z" transform="translate(-1372.287 264.903)" fill="#ffe07d"/>
            <path id="Trazado_9983" data-name="Trazado 9983" d="M1374.8-225.629a4.053,4.053,0,0,0,.466,1.45,4,4,0,0,1-1.439-.72,4,4,0,0,1-1.507-2.677,4,4,0,0,1,.828-2.96l1.179-1.5,6.3-.546.009,2.163-3.823.33-1.178,1.5A4.008,4.008,0,0,0,1374.8-225.629Z" transform="translate(-1372.287 264.903)" fill="#ffd064"/>
            <path id="Trazado_9984" data-name="Trazado 9984" d="M1397.919-252.325,1381-230.755l-6.317-4.956,16.893-21.532" transform="translate(-1372.643 268.575)" fill="#e27f83"/>
            <path id="Trazado_9985" data-name="Trazado 9985" d="M1394.085-255.334l-16.925,21.571-2.482-1.947,16.893-21.532" transform="translate(-1372.643 268.575)" fill="#c8646d"/>
            <path id="Trazado_9986" data-name="Trazado 9986" d="M1402.947-257.142l6.13-9.354a2.624,2.624,0,0,0-.574-3.5,2.624,2.624,0,0,0-3.538.275l-7.627,8.18" transform="translate(-1376.018 270.558)" fill="#9dc6fb"/>
            <path id="Trazado_9987" data-name="Trazado 9987" d="M1408.5-270c-.1-.079-.354.053-.689.338a9.783,9.783,0,0,0-1.18,1.249l-7.017,8.655-2.278-1.787,7.626-8.179a2.612,2.612,0,0,1,1.715-.827,2.613,2.613,0,0,1,1.823.552Z" transform="translate(-1376.018 270.558)" fill="#80b4fb"/>
            <path id="Trazado_9988" data-name="Trazado 9988" d="M1402.374-255.641l-5.61-4.4a2.027,2.027,0,0,0-2.846.344,2.029,2.029,0,0,0,.343,2.847l5.61,4.4a2.027,2.027,0,0,0,2.846-.344A2.027,2.027,0,0,0,1402.374-255.641Z" transform="translate(-1375.444 269.057)" fill="#9dc6fb"/>
            <path id="Trazado_9989" data-name="Trazado 9989" d="M1396.289-256.015a2.019,2.019,0,0,0,.762,1.352l-2.791-2.189a2.024,2.024,0,0,1-.762-1.352,2.021,2.021,0,0,1,.419-1.494,2.027,2.027,0,0,1,2.846-.345l2.791,2.189a2.028,2.028,0,0,0-2.847.345A2.022,2.022,0,0,0,1396.289-256.015Z" transform="translate(-1375.444 269.057)" fill="#80b4fb"/>
          </g>
        </g>
        <g id="Grupo_16240" data-name="Grupo 16240" transform="translate(0 0)">
          <path id="Trazado_9990" data-name="Trazado 9990" d="M1364.553-274.145a4.489,4.489,0,0,0-4.483,4.483,4.488,4.488,0,0,0,4.483,4.483,4.488,4.488,0,0,0,4.483-4.483A4.488,4.488,0,0,0,1364.553-274.145Zm0,6.93a2.449,2.449,0,0,1-2.447-2.446,2.449,2.449,0,0,1,2.447-2.447,2.45,2.45,0,0,1,2.447,2.447A2.449,2.449,0,0,1,1364.553-267.215Z" transform="translate(-1336.754 279.148)" fill="#00223d"/>
          <path id="Trazado_9991" data-name="Trazado 9991" d="M1346.178-238.1h5.941a4.467,4.467,0,0,0,4.462-4.461V-248.5a4.466,4.466,0,0,0-4.462-4.461h-5.941a4.466,4.466,0,0,0-4.462,4.461v5.942A4.467,4.467,0,0,0,1346.178-238.1Zm-2.426-10.4a2.428,2.428,0,0,1,2.426-2.425h5.941a2.428,2.428,0,0,1,2.426,2.425v5.942a2.428,2.428,0,0,1-2.426,2.425h-5.941a2.427,2.427,0,0,1-2.426-2.425Z" transform="translate(-1334.021 275.994)" fill="#00223d"/>
          <path id="Trazado_9992" data-name="Trazado 9992" d="M1348.284-241.212a1.018,1.018,0,0,0,.786.371l.066,0a1.018,1.018,0,0,0,.8-.475l3.551-5.648a1.019,1.019,0,0,0-.32-1.4,1.018,1.018,0,0,0-1.4.32l-2.8,4.454-1.476-1.792a1.019,1.019,0,0,0-1.434-.139,1.019,1.019,0,0,0-.138,1.434Z" transform="translate(-1334.611 275.333)" fill="#00223d"/>
          <path id="Trazado_9993" data-name="Trazado 9993" d="M1363.152-246.416h15.865a1.018,1.018,0,0,0,1.018-1.018,1.018,1.018,0,0,0-1.018-1.019h-15.865a1.018,1.018,0,0,0-1.018,1.019A1.018,1.018,0,0,0,1363.152-246.416Z" transform="translate(-1337.061 275.322)" fill="#00223d"/>
          <path id="Trazado_9994" data-name="Trazado 9994" d="M1363.152-240.366h7.933a1.018,1.018,0,0,0,1.018-1.019,1.018,1.018,0,0,0-1.018-1.019h-7.933a1.018,1.018,0,0,0-1.018,1.019A1.018,1.018,0,0,0,1363.152-240.366Z" transform="translate(-1337.061 274.422)" fill="#00223d"/>
          <path id="Trazado_9995" data-name="Trazado 9995" d="M1341.716-219.777a4.467,4.467,0,0,0,4.462,4.462h5.941a4.467,4.467,0,0,0,4.462-4.462v-5.941a4.467,4.467,0,0,0-4.462-4.462h-5.941a4.467,4.467,0,0,0-4.462,4.462Zm2.037-5.941a2.429,2.429,0,0,1,2.426-2.426h5.941a2.428,2.428,0,0,1,2.426,2.426v5.941a2.428,2.428,0,0,1-2.426,2.426h-5.941a2.428,2.428,0,0,1-2.426-2.426Z" transform="translate(-1334.021 272.601)" fill="#00223d"/>
          <path id="Trazado_9996" data-name="Trazado 9996" d="M1348.284-218.428a1.018,1.018,0,0,0,.786.371l.066,0a1.017,1.017,0,0,0,.8-.474l3.551-5.649a1.018,1.018,0,0,0-.32-1.4,1.018,1.018,0,0,0-1.4.32l-2.8,4.454-1.476-1.792a1.019,1.019,0,0,0-1.434-.139,1.019,1.019,0,0,0-.138,1.434Z" transform="translate(-1334.611 271.94)" fill="#00223d"/>
          <path id="Trazado_9997" data-name="Trazado 9997" d="M1371.085-217.582a1.017,1.017,0,0,0,1.018-1.018,1.018,1.018,0,0,0-1.018-1.019h-7.933a1.018,1.018,0,0,0-1.018,1.019,1.017,1.017,0,0,0,1.018,1.018Z" transform="translate(-1337.061 271.029)" fill="#00223d"/>
          <path id="Trazado_9998" data-name="Trazado 9998" d="M1398.725-262.294a4.338,4.338,0,0,0-1.282-.7l2.856-4.358a3.622,3.622,0,0,0-.8-4.861,3.662,3.662,0,0,0-2.248-.778,3.657,3.657,0,0,0-2.663,1.159l-1.1,1.175a1.019,1.019,0,0,0,.049,1.44,1.018,1.018,0,0,0,1.439-.05l1.1-1.175a1.591,1.591,0,0,1,1.175-.511,1.594,1.594,0,0,1,.991.343,1.6,1.6,0,0,1,.351,2.143l-5.521,8.427-3.866-3.033,3-3.215a1.017,1.017,0,0,0-.05-1.439,1.017,1.017,0,0,0-1.439.05l-2.691,2.885a10.326,10.326,0,0,0-10.032-8.037h-2a6.789,6.789,0,0,0-4.662-1.852h-2.318a9.435,9.435,0,0,0-8.536-5.346,9.435,9.435,0,0,0-8.537,5.346h-2.318a6.784,6.784,0,0,0-4.662,1.852h-2a10.292,10.292,0,0,0-10.282,10.28v41.761a10.293,10.293,0,0,0,10.282,10.281h2.368a1.018,1.018,0,0,0,1.019-1.018,1.019,1.019,0,0,0-1.019-1.019h-2.368a8.254,8.254,0,0,1-8.245-8.244v-41.761a8.254,8.254,0,0,1,8.245-8.244h.51a6.772,6.772,0,0,0-.661,2.925,6.821,6.821,0,0,0,6.814,6.813h21.709a6.821,6.821,0,0,0,6.814-6.813,6.771,6.771,0,0,0-.661-2.925h.512a8.28,8.28,0,0,1,8.039,6.418,3.033,3.033,0,0,0-1.972,1.132,3.025,3.025,0,0,0-.627,2.245,3.034,3.034,0,0,0,.222.829l-17.211,21.935a5,5,0,0,0-1.037,3.711,5.067,5.067,0,0,0,.15.757h-6.792a1.018,1.018,0,0,0-1.019,1.018,1.019,1.019,0,0,0,1.019,1.019h7.679l-.62.789a1.018,1.018,0,0,0,.173,1.43,1.016,1.016,0,0,0,.628.218,1.016,1.016,0,0,0,.8-.39l.734-.936a4.975,4.975,0,0,0,2.232.527,5.135,5.135,0,0,0,.613-.037,5,5,0,0,0,3.357-1.89l11.593-14.776c.089.088.183.17.281.251v25.757a8.253,8.253,0,0,1-8.244,8.244h-28.6a1.018,1.018,0,0,0-1.018,1.019,1.017,1.017,0,0,0,1.018,1.018h28.6a10.292,10.292,0,0,0,10.28-10.281v-24.829a4.337,4.337,0,0,0,.711.059,4.326,4.326,0,0,0,3.412-1.656l7.063-9a4.3,4.3,0,0,0,.893-3.192,4.306,4.306,0,0,0-1.626-2.888Zm-27.4-.793h-21.709a4.782,4.782,0,0,1-4.777-4.776,4.783,4.783,0,0,1,4.777-4.777h2.983a1.018,1.018,0,0,0,.946-.643,7.414,7.414,0,0,1,6.926-4.7,7.412,7.412,0,0,1,6.925,4.7,1.019,1.019,0,0,0,.947.643h2.983a4.783,4.783,0,0,1,4.777,4.777A4.782,4.782,0,0,1,1371.328-263.087Zm14.334,1.106a1,1,0,0,1,.673-.38.985.985,0,0,1,.123-.007,1,1,0,0,1,.621.215l5.609,4.4h0a1,1,0,0,1,.379.673,1,1,0,0,1-.208.744,1.011,1.011,0,0,1-1.417.171l-5.609-4.4a1,1,0,0,1-.379-.672,1,1,0,0,1,.208-.744Zm-11.094,26.4-1.556-1.22,11.143-14.2a1.018,1.018,0,0,0-.173-1.43,1.018,1.018,0,0,0-1.43.173l-11.143,14.2-1.556-1.22,15.171-19.336,4.714,3.7Zm-3.805,3.429a2.976,2.976,0,0,1-2.208-.617,2.974,2.974,0,0,1-1.125-2,2.976,2.976,0,0,1,.617-2.209l.551-.7,4.714,3.7-.55.7A2.972,2.972,0,0,1,1370.762-232.148Zm27.094-25.322-7.062,9a2.3,2.3,0,0,1-3.221.389,2.3,2.3,0,0,1-.344-.335l4.345-5.538a3.049,3.049,0,0,0,.489.04,3.047,3.047,0,0,0,2.4-1.164,3.034,3.034,0,0,0,.627-2.245,3.047,3.047,0,0,0-.491-1.326l1.654-2.524a2.271,2.271,0,0,1,1.214.481,2.276,2.276,0,0,1,.861,1.53,2.274,2.274,0,0,1-.472,1.691Z" transform="translate(-1332.674 280.024)" fill="#00223d"/>
        </g>
      </g>
    </g>
  </g>
</svg>
