<svg xmlns="http://www.w3.org/2000/svg" width="159" height="159" viewBox="0 0 159 159">
  <g id="Grupo_16512" data-name="Grupo 16512" transform="translate(-2345 -1655)">
    <rect id="Rectángulo_3955" data-name="Rectángulo 3955" width="159" height="159" transform="translate(2345 1655)" fill="none"/>
    <g id="Grupo_16506" data-name="Grupo 16506" transform="translate(-65.162 69.467)">
      <g id="surface1" transform="translate(2429.655 1606.099)">
        <path id="Trazado_25602" data-name="Trazado 25602" d="M2010.185,305.592l-9.118-1.869-5.277,5.466-17.984-14.2,11.995-8.187,12.754-13.956a4.8,4.8,0,0,1,7.6.68l15.11,17.329a5.569,5.569,0,0,1-1.348,8.446l-8.9,5.3A8.27,8.27,0,0,1,2010.185,305.592Z" transform="translate(-1961.094 -197.988)" fill="#ffe7cf"/>
        <path id="Trazado_25603" data-name="Trazado 25603" d="M2023.728,288.134l-3.688-4.229-15.375,9.164a8.3,8.3,0,0,1-4.834.986l-7.987-.861-6.9,5.925,9.3,7.344,5.276-5.466,9.118,1.87a8.3,8.3,0,0,0,4.834-.986l8.9-5.3A5.57,5.57,0,0,0,2023.728,288.134Z" transform="translate(-1959.552 -195.263)" fill="#efd5bd"/>
        <path id="Trazado_25604" data-name="Trazado 25604" d="M2021.467,292.614c-1.78-2.76-3.948-1.363-5.728-4.124s.388-4.16-1.392-6.92-3.949-1.364-5.729-4.128.388-4.16-1.394-6.921c-1.088-1.689-3.059-5.173-4.26-5.653l-9.609,4.748,16.723,26.374a5.453,5.453,0,0,0,7.537,1.628l3.2-2.063a2.126,2.126,0,0,0,.669-2.917Z" transform="translate(-1957.736 -199.374)" fill="#344a5d"/>
        <path id="Trazado_25605" data-name="Trazado 25605" d="M1996.667,274.33l-7.55,4.657a3.048,3.048,0,0,1-4.194-.993l-4.268-6.916a3.049,3.049,0,0,1,.993-4.194l7.55-4.657a1.884,1.884,0,0,1,2.595.614l5.488,8.893A1.887,1.887,0,0,1,1996.667,274.33Z" transform="translate(-1960.576 -200.005)" fill="#344a5d"/>
        <path id="Trazado_25606" data-name="Trazado 25606" d="M2000.635,258.662l-15.323,9.454a4.291,4.291,0,0,0-1.4,5.9l7.556,12.244a4.29,4.29,0,0,0,5.9,1.4l15.324-9.455,48.462-10.549L2031.8,220.078Z" transform="translate(-1959.913 -209.045)" fill="#fed066"/>
        <path id="Trazado_25607" data-name="Trazado 25607" d="M2053.572,249.99l-48.214,10.955-18.973,11.707,4.414,7.153a4.289,4.289,0,0,0,5.9,1.4l15.323-9.455,48.464-10.549Z" transform="translate(-1959.241 -202.586)" fill="#f5b556"/>
        <path id="Trazado_25608" data-name="Trazado 25608" d="M2012.7,271.357l-15.324,9.455a4.29,4.29,0,0,1-5.9-1.4l-7.556-12.244a4.291,4.291,0,0,1,1.4-5.9l15.323-9.454Z" transform="translate(-1959.913 -202.193)" fill="#fd715c"/>
        <path id="Trazado_25609" data-name="Trazado 25609" d="M2005.357,259l-18.973,11.707,4.414,7.153a4.289,4.289,0,0,0,5.9,1.4l15.323-9.455Z" transform="translate(-1959.241 -200.641)" fill="#d83e3a"/>
        <path id="Trazado_25610" data-name="Trazado 25610" d="M2056.322,271.833l-2.093,1.29a2.305,2.305,0,0,1-3.174-.753l-31.562-51.151a2.306,2.306,0,0,1,.751-3.174l2.093-1.291a2.306,2.306,0,0,1,3.173.751l31.562,51.152A2.309,2.309,0,0,1,2056.322,271.833Z" transform="translate(-1952.167 -209.836)" fill="#fd715c"/>
        <path id="Trazado_25611" data-name="Trazado 25611" d="M2052.33,260.875l-5.193-8.417-6.018,3.715,5.193,8.414a2.305,2.305,0,0,0,3.174.753l2.093-1.29A2.309,2.309,0,0,0,2052.33,260.875Z" transform="translate(-1947.423 -202.053)" fill="#d83e3a"/>
        <path id="Trazado_25612" data-name="Trazado 25612" d="M2012.667,295.112a3.963,3.963,0,0,0,5.446,1.316l5.775-3.53a3.962,3.962,0,0,0-4.132-6.76l-5.775,3.531A3.96,3.96,0,0,0,2012.667,295.112Z" transform="translate(-1953.692 -194.907)" fill="#ffe7cf"/>
        <path id="Trazado_25613" data-name="Trazado 25613" d="M2025.2,287.4a3.935,3.935,0,0,0-1.93-1.618,3.962,3.962,0,0,1-1.858,3.912l-5.775,3.53a3.957,3.957,0,0,1-3.517.3,3.959,3.959,0,0,0,5.99,2.849l5.774-3.53A3.96,3.96,0,0,0,2025.2,287.4Z" transform="translate(-1953.685 -194.857)" fill="#efd5bd"/>
        <path id="Trazado_25614" data-name="Trazado 25614" d="M2010.635,288.706a4.02,4.02,0,0,0,5.529,1.335l5.672-3.466a4.021,4.021,0,0,0-4.194-6.862l-5.673,3.468A4.02,4.02,0,0,0,2010.635,288.706Z" transform="translate(-1954.132 -196.296)" fill="#ffe7cf"/>
        <path id="Trazado_25615" data-name="Trazado 25615" d="M2023.164,280.993a4.008,4.008,0,0,0-1.891-1.615,4.02,4.02,0,0,1-1.889,3.937l-5.672,3.468a4.013,4.013,0,0,1-3.638.278,4.017,4.017,0,0,0,6.084,2.924l5.672-3.467A4.02,4.02,0,0,0,2023.164,280.993Z" transform="translate(-1954.126 -196.241)" fill="#efd5bd"/>
        <path id="Trazado_25616" data-name="Trazado 25616" d="M2007.158,283.1a4.023,4.023,0,0,0,5.529,1.335l5.672-3.468a4.021,4.021,0,1,0-4.194-6.861l-5.672,3.468A4.02,4.02,0,0,0,2007.158,283.1Z" transform="translate(-1954.883 -197.506)" fill="#ffe7cf"/>
        <path id="Trazado_25617" data-name="Trazado 25617" d="M2019.689,275.383a4.012,4.012,0,0,0-1.846-1.6,4.017,4.017,0,0,1-1.9,3.879l-5.672,3.467a4.008,4.008,0,0,1-3.683.26,4.014,4.014,0,0,0,6.089,2.984l5.672-3.467A4.023,4.023,0,0,0,2019.689,275.383Z" transform="translate(-1954.878 -197.448)" fill="#efd5bd"/>
        <path id="Trazado_25618" data-name="Trazado 25618" d="M2003.88,277.35a4.021,4.021,0,0,0,5.529,1.334l5.672-3.467a4.021,4.021,0,1,0-4.194-6.861l-5.672,3.467A4.022,4.022,0,0,0,2003.88,277.35Z" transform="translate(-1955.591 -198.748)" fill="#ffe7cf"/>
        <path id="Trazado_25619" data-name="Trazado 25619" d="M2016.4,269.659a4,4,0,0,0-2.252-1.744,4.019,4.019,0,0,1-1.832,4.269l-5.672,3.468a4.014,4.014,0,0,1-3.277.407,4.013,4.013,0,0,0,6.026,2.592l5.672-3.467A4.021,4.021,0,0,0,2016.4,269.659Z" transform="translate(-1955.574 -198.716)" fill="#efd5bd"/>
        <path id="Trazado_25620" data-name="Trazado 25620" d="M2015.763,282.359l-1.052.643a3.468,3.468,0,0,1-4.78-1.083l-1.744-2.85a2.988,2.988,0,0,0-4.137-.923c-1.434,10.518-16.381,9.567-16.381,9.567l9.263-13.951a7.456,7.456,0,0,1,2.523-2.6l5.227-3.242a5.324,5.324,0,0,1,7.366,1.642l4.927,8.041A3.47,3.47,0,0,1,2015.763,282.359Z" transform="translate(-1958.964 -198.893)" fill="#ffe7cf"/>
        <path id="Trazado_25621" data-name="Trazado 25621" d="M2015.188,276.373l-.04-.066a3.58,3.58,0,0,1-1.173,1.165l-1.052.642a3.467,3.467,0,0,1-4.78-1.083l-1.742-2.849a2.99,2.99,0,0,0-4.138-.924c-.6,4.411-3.3,8.638-6.308,11.533,3.045-1.337,5.739-3.7,6.308-7.875a2.989,2.989,0,0,1,4.138.923l1.742,2.85a3.467,3.467,0,0,0,4.78,1.083l1.052-.643A3.47,3.47,0,0,0,2015.188,276.373Z" transform="translate(-1957.175 -197.663)" fill="#efd5bd"/>
        <path id="Trazado_25622" data-name="Trazado 25622" d="M1995.451,306.59l-14.733-17.509,4.85-4.082a.362.362,0,0,1,.511.044L2000.346,302a.362.362,0,0,1-.044.511Z" transform="translate(-1960.464 -195.045)" fill="#cdd6df"/>
        <path id="Trazado_25623" data-name="Trazado 25623" d="M1999.12,300.565l-7.591-9.02-5.129,4.315,7.825,9.3,4.851-4.082A.363.363,0,0,0,1999.12,300.565Z" transform="translate(-1959.238 -193.613)" fill="#96a4aa"/>
        <path id="Trazado_25624" data-name="Trazado 25624" d="M1999.789,305.947l-15.925-18.68a.382.382,0,0,0-.507-.068l-16.96,13.387a2.357,2.357,0,0,0-.9,1.852v5.447a2.36,2.36,0,0,0,2.36,2.359H1995.6a2.363,2.363,0,0,0,1.84-.882l2.331-2.9A.385.385,0,0,0,1999.789,305.947Z" transform="translate(-1963.751 -194.566)" fill="#3c5666"/>
        <path id="Trazado_25625" data-name="Trazado 25625" d="M1997.015,304.179l-7.552-8.858-11.116,13.155h14.482a2.363,2.363,0,0,0,1.84-.882l2.331-2.9A.384.384,0,0,0,1997.015,304.179Z" transform="translate(-1960.976 -192.798)" fill="#194451"/>
        <path id="Trazado_25626" data-name="Trazado 25626" d="M2041.642,236.032a1.751,1.751,0,0,0,2.406.573l9.478-5.83a1.749,1.749,0,1,0-1.834-2.978l-9.477,5.83A1.75,1.75,0,0,0,2041.642,236.032Z" transform="translate(-1947.366 -207.434)" fill="#00223d"/>
        <path id="Trazado_25627" data-name="Trazado 25627" d="M2063.734,244.319l-13.894-1.35a1.748,1.748,0,1,0-.338,3.48l13.894,1.35a1.634,1.634,0,0,0,.17.009,1.748,1.748,0,0,0,.168-3.488Z" transform="translate(-1945.954 -204.104)" fill="#00223d"/>
        <path id="Trazado_25628" data-name="Trazado 25628" d="M2035.96,227.392a1.747,1.747,0,0,0,2.263-1l5.061-13.01a1.748,1.748,0,1,0-3.259-1.267l-5.061,13.009A1.75,1.75,0,0,0,2035.96,227.392Z" transform="translate(-1948.778 -211.004)" fill="#00223d"/>
        <path id="Trazado_25629" data-name="Trazado 25629" d="M2038.895,216.9a4.06,4.06,0,0,0-5.58-1.32l-2.093,1.29a4.054,4.054,0,0,0-1.322,5.58l1.2,1.949-27.493,34.036-5.806,3.582a1.749,1.749,0,0,0,1.837,2.977l4.572-2.821,8.91,14.441a7.137,7.137,0,0,0-3.738.782l-.062.032c-.157.084-.312.17-.464.264l-5.227,3.242a9.38,9.38,0,0,0-3.087,3.16l-1.29,1.944-.948,1.429-.024-.008-.044-.02c-.073-.033-.146-.069-.216-.109l-.044-.024a2.573,2.573,0,0,1-.225-.15c-.016-.011-.031-.023-.045-.035a2.341,2.341,0,0,1-.191-.164l-.023-.021a2.541,2.541,0,0,1-.187-.2l-.036-.047a2.417,2.417,0,0,1-.164-.232L1989.55,274.2a2.543,2.543,0,0,1,.828-3.5l2.262-1.395a1.749,1.749,0,1,0-1.836-2.977l-2.262,1.4a6.04,6.04,0,0,0-2.645,6.77l-1.682,1.038a4.8,4.8,0,0,0-1.562,6.6l4.267,6.916a4.769,4.769,0,0,0,2.976,2.148,4.829,4.829,0,0,0,1.114.13,4.757,4.757,0,0,0,2.51-.716l1.684-1.038a6.135,6.135,0,0,0,1.15.823l-4.855,7.311-1.144.782a2.113,2.113,0,0,0-2.316.266l-3.012,2.535a2.129,2.129,0,0,0-2.344.036c-.033.024-.067.047-.1.073l-16.959,13.387a4.087,4.087,0,0,0-1.564,3.225v5.447a4.113,4.113,0,0,0,4.108,4.107h27.744a4.088,4.088,0,0,0,3.2-1.536l2.3-2.862a2.119,2.119,0,0,0,.513-1.623l3.1-2.606a2.11,2.11,0,0,0,.642-.945l7.135,1.463a1.645,1.645,0,0,0,.318.035c.209,0,.417.006.624.006a9.3,9.3,0,0,0,5.137-1.238l7.188-4.281c.12.007.24.012.36.012a5.668,5.668,0,0,0,2.967-.841l5.774-3.529a5.7,5.7,0,0,0-.393-9.958,5.762,5.762,0,0,0-3.7-8.269,5.751,5.751,0,0,0-4.04-6.763,5.738,5.738,0,0,0-1.419-5.447l34.646-7.541,1.2,1.949a4.057,4.057,0,0,0,5.58,1.322l2.093-1.29a4.054,4.054,0,0,0,1.32-5.581Zm-47.21,70.745a1.3,1.3,0,0,1-1.788-.424l-4.268-6.916a1.3,1.3,0,0,1,.423-1.789l1.483-.914,5.632,9.127Zm4.7,36.205a.6.6,0,0,1-.476.229h-27.744a.612.612,0,0,1-.611-.61v-5.447a.606.606,0,0,1,.232-.479l15.908-12.557,14.337,16.819Zm3.555-5.2L1987.369,303.9l1.862-1.567,12.483,14.833Zm17.138-3.381a6.38,6.38,0,0,1-3.739.737l-8.958-1.836a1.763,1.763,0,0,0-.633-.015l-11-13.065,1-.681h0l.05-.038c.036-.028.074-.056.109-.086l.05-.047c.035-.033.068-.067.1-.1.013-.013.027-.028.039-.043.039-.047.075-.1.109-.146l.01-.012.008-.012.009-.013,9.247-13.927c.019-.029.039-.061.057-.091a5.721,5.721,0,0,1,1.93-1.988l5.229-3.242c.1-.06.195-.113.294-.164.045-.022.09-.041.135-.062s.1-.047.158-.068.122-.047.185-.069l.1-.032c.077-.023.154-.046.231-.066h0a3.7,3.7,0,0,1,.853-.1h.018c.083,0,.166,0,.249.008l.08.007c.074.007.147.015.22.026l.13.024c.111.021.221.047.33.079l.125.035c.056.019.11.04.164.062s.086.033.129.051.107.049.161.075.079.039.117.061c.053.028.106.058.158.09l.1.067c.052.035.1.069.153.108.031.022.061.047.09.071.052.041.1.081.152.126a3.388,3.388,0,0,1,.619.743l.129.21,1.864,3.041,2.339,3.817.595.973a1.558,1.558,0,0,1,.139.286,1.628,1.628,0,0,1,.049.947,1.8,1.8,0,0,1-.822,1.117l-1.052.642h0a1.813,1.813,0,0,1-.223.114l-.05.021a1.991,1.991,0,0,1-.23.077l-.028.006a1.725,1.725,0,0,1-.219.038l-.042.006a1.868,1.868,0,0,1-.233,0l-.044,0a1.88,1.88,0,0,1-.234-.029h0a1.658,1.658,0,0,1-.242-.071l-.021-.007a1.662,1.662,0,0,1-.452-.261h0a1.522,1.522,0,0,1-.188-.18l-.015-.017a1.481,1.481,0,0,1-.148-.2l-1.743-2.849a4.624,4.624,0,0,0-2.9-2.1,4.777,4.777,0,0,0-3.65.6,1.754,1.754,0,0,0-.811,1.249c-.02.15-.045.3-.071.441-.021.106-.043.21-.067.314-.007.035-.014.071-.023.1-.03.131-.064.26-.1.388l0,.016a7.378,7.378,0,0,1-.824,1.859v0a8.211,8.211,0,0,1-2.776,2.659,1.748,1.748,0,1,0,1.817,2.987,12.769,12.769,0,0,0,2.266-1.74l7.3,11.516a7.247,7.247,0,0,0,6.075,3.3c.128,0,.255-.006.382-.013.051.09.1.181.156.271a5.757,5.757,0,0,0,.707.927Zm1.483-12.855v0c.029.081.061.162.095.243l.011.029c.031.073.063.145.1.216.009.016.015.033.022.05.033.067.068.134.1.2l.031.06c.046.085.095.17.146.254.087.143.184.281.282.415.035.047.072.095.108.141.064.081.131.16.2.24.049.055.1.111.146.164s.078.075.117.116a5.725,5.725,0,0,0,.444.4c.017.013.032.027.049.039a5.693,5.693,0,0,0,.966.619,5.763,5.763,0,0,0-.616,1.9,3.711,3.711,0,0,1-2.887-1.677l-8.038-12.677a11.253,11.253,0,0,0,.853-2.466,1.3,1.3,0,0,1,.375.033,1.155,1.155,0,0,1,.726.519l1.742,2.849.009.012a4.823,4.823,0,0,0,.277.4c.073.1.151.186.23.275.027.03.051.064.079.1l.012.046c.028.12.058.241.094.36.011.035.021.069.031.1.042.135.089.269.141.4a.344.344,0,0,0,.017.04c.047.12.1.237.159.354.016.034.033.067.05.1.066.128.134.254.208.377a5.737,5.737,0,0,0,3.514,2.585A5.75,5.75,0,0,0,2018.566,302.414Zm1.115-20.809.587-.359a2.273,2.273,0,1,1,2.371,3.878l-.584.356-1.729-2.82Zm13.031,21a2.213,2.213,0,0,1,.634,4.039l-5.774,3.53a2.2,2.2,0,0,1-1.533.289c-.031-.006-.061-.013-.092-.018l-.048-.01a2.2,2.2,0,0,1-1.646-1.711l0-.019a2.226,2.226,0,0,1,.587-1.963c.013-.013.026-.028.04-.041s.051-.049.078-.072.053-.047.083-.069.041-.034.063-.05a1.885,1.885,0,0,1,.159-.109l.005,0,1.146-.7a6.06,6.06,0,0,0,.594-.314l4.417-2.7A2.209,2.209,0,0,1,2032.712,302.606Zm-4.022-7.664a2.273,2.273,0,0,1,2.163,3.991l-1.04.635a5.5,5.5,0,0,0-.6.319l-4.394,2.685a2.278,2.278,0,0,1-2.372-.446h0a1.893,1.893,0,0,1-.141-.141l-.034-.043c-.033-.038-.066-.077-.1-.117-.042-.058-.083-.117-.121-.178s-.073-.128-.1-.193c-.01-.021-.018-.043-.028-.064-.021-.044-.04-.09-.058-.136l-.024-.073c-.015-.045-.028-.089-.04-.133l-.018-.075c-.01-.044-.02-.09-.027-.136l-.011-.071c-.006-.047-.011-.095-.013-.142,0-.023,0-.046,0-.068,0-.05,0-.1,0-.147,0-.022,0-.043,0-.063,0-.051.009-.1.014-.148,0-.022,0-.043.007-.063.006-.044.015-.088.024-.131a2.267,2.267,0,0,1,.728-1.243c.016-.013.029-.029.045-.043s.043-.039.064-.057c.055-.03.111-.06.164-.092l5.674-3.467C2028.531,295.048,2028.61,295,2028.69,294.943Zm-2.717-6.974a2.272,2.272,0,0,1,.858,4l-.173.1-4.381,2.677c.015-.011.029-.024.044-.035.083-.067.167-.134.246-.205.049-.044.095-.09.142-.135.072-.069.142-.14.21-.214.046-.049.09-.1.134-.152.062-.074.124-.15.183-.226.041-.053.083-.108.121-.165.056-.079.108-.16.16-.243.035-.057.071-.113.1-.171.05-.088.1-.178.14-.268.029-.058.058-.113.084-.171.046-.1.086-.206.126-.31.018-.05.04-.1.057-.15.053-.158.1-.317.141-.48a4.738,4.738,0,0,0,.089-.469c.007-.05.011-.1.019-.15.012-.108.022-.214.028-.322,0-.058,0-.117,0-.175,0-.1,0-.2,0-.3,0-.06-.006-.119-.01-.177-.007-.1-.018-.2-.031-.3-.008-.055-.014-.111-.023-.165-.018-.113-.042-.224-.069-.336-.01-.039-.017-.08-.027-.12-.041-.151-.085-.3-.14-.445-.011-.029-.023-.057-.035-.086-.038-.1-.076-.2-.121-.294l.4-.246A2.254,2.254,0,0,1,2025.973,287.968Zm41.575-17.66a.553.553,0,0,1-.25.345l-2.092,1.291a.559.559,0,0,1-.768-.181l-22.023-35.692a1.747,1.747,0,1,0-2.974,1.836l18.872,30.588-40.63,8.845L2006.921,259.9l26.128-32.347,2.111,3.423a1.749,1.749,0,0,0,2.977-1.837l-5.261-8.525a.56.56,0,0,1,.182-.77l2.091-1.29a.56.56,0,0,1,.77.182l31.561,51.151A.553.553,0,0,1,2067.548,270.308Z" transform="translate(-1964.061 -210.147)" fill="#00223d"/>
      </g>
    </g>
  </g>
</svg>
