<svg xmlns="http://www.w3.org/2000/svg" width="103.938" height="97" viewBox="0 0 103.938 97">
  <g id="Grupo_16260" data-name="Grupo 16260" transform="translate(-270.503 -3628.741)">
    <g id="Grupo_16259" data-name="Grupo 16259" transform="translate(-282.555 -158.742)">
      <circle id="Elipse_681" data-name="Elipse 681" cx="47.818" cy="47.818" r="47.818" transform="translate(553.058 3788.848)" fill="#f6ff9b"/>
      <g id="Grupo_16145" data-name="Grupo 16145" transform="translate(564.373 3787.483)">
        <g id="Grupo_16143" data-name="Grupo 16143" transform="translate(1.809 1.809)">
          <path id="Trazado_9831" data-name="Trazado 9831" d="M2363.733,546.606l-14.474,14.473v74.537h66.758v-89.01Z" transform="translate(-2349.259 -546.606)" fill="#eefaff"/>
          <path id="Trazado_9832" data-name="Trazado 9832" d="M2467.59,604.157a7.281,7.281,0,0,1-2.268,11.805c-4.408,1.92-12.343,7.838-15.74,11.237l-1.046,1.044v0l-5.118-5.118,1.055-1.053c3.435-3.442,9.389-11.287,11.333-15.68a7.267,7.267,0,0,1,11.785-2.236Z" transform="translate(-2380.718 -565.117)" fill="#ffda8f"/>
          <path id="Trazado_9833" data-name="Trazado 9833" d="M2444.667,640.323a7.239,7.239,0,0,1,0,10.235l-2.558,2.558-25.585-25.585,2.559-2.558a7.233,7.233,0,0,1,10.234,0l15.351,15.35Z" transform="translate(-2371.732 -572.08)" fill="#ff7b79"/>
          <path id="Trazado_9834" data-name="Trazado 9834" d="M2383.492,580.839h36.726v7.236h-36.726Z" transform="translate(-2360.697 -558.043)" fill="#9bc5ff"/>
          <circle id="Elipse_682" data-name="Elipse 682" cx="7.237" cy="7.237" r="7.237" transform="translate(33.651 66.215)" fill="#ff7b79"/>
          <path id="Trazado_9835" data-name="Trazado 9835" d="M2360.127,580.839h15.559v7.236h-15.559Z" transform="translate(-2352.89 -558.043)" fill="#8690a6"/>
        </g>
        <g id="Grupo_16144" data-name="Grupo 16144">
          <circle id="Elipse_683" data-name="Elipse 683" cx="1.809" cy="1.809" r="1.809" transform="translate(37.268 58.978)" fill="#00223d"/>
          <path id="Trazado_9836" data-name="Trazado 9836" d="M2357.41,579.931v7.236a1.809,1.809,0,0,0,1.809,1.809H2411.5a1.809,1.809,0,0,0,1.809-1.809v-7.236a1.809,1.809,0,0,0-1.809-1.809h-52.285A1.809,1.809,0,0,0,2357.41,579.931Zm19.177,1.809h33.108v3.619h-33.108Zm-15.559,0h11.94v3.619h-11.94Z" transform="translate(-2350.174 -555.326)" fill="#00223d"/>
          <path id="Trazado_9837" data-name="Trazado 9837" d="M2359.219,603.475H2411.5a1.809,1.809,0,1,0,0-3.618h-52.285a1.809,1.809,0,1,0,0,3.618Z" transform="translate(-2350.174 -562.588)" fill="#00223d"/>
          <path id="Trazado_9838" data-name="Trazado 9838" d="M2359.219,614.342H2411.5a1.809,1.809,0,1,0,0-3.618h-52.285a1.809,1.809,0,1,0,0,3.618Z" transform="translate(-2350.174 -566.219)" fill="#00223d"/>
          <path id="Trazado_9839" data-name="Trazado 9839" d="M2359.219,625.21h30.032a1.809,1.809,0,1,0,0-3.618h-30.032a1.809,1.809,0,1,0,0,3.618Z" transform="translate(-2350.174 -569.85)" fill="#00223d"/>
          <path id="Trazado_9840" data-name="Trazado 9840" d="M2359.219,636.077h22.8a1.809,1.809,0,0,0,0-3.618h-22.8a1.809,1.809,0,1,0,0,3.618Z" transform="translate(-2350.174 -573.481)" fill="#00223d"/>
          <path id="Trazado_9841" data-name="Trazado 9841" d="M2382.584,654.182h9.228a9.045,9.045,0,1,0,0-3.619h-9.228a1.809,1.809,0,1,0,0,3.619Zm18.092-3.619h-5.116a5.428,5.428,0,1,1,0,3.619h5.116a1.809,1.809,0,1,0,0-3.619Z" transform="translate(-2357.98 -577.112)" fill="#00223d"/>
          <path id="Trazado_9842" data-name="Trazado 9842" d="M2435.922,563.808a1.809,1.809,0,1,0,0-3.618H2432.3a1.809,1.809,0,0,0,0,3.618Z" transform="translate(-2374.592 -549.335)" fill="#00223d"/>
          <path id="Trazado_9843" data-name="Trazado 9843" d="M2419.62,563.808a1.809,1.809,0,1,0,0-3.618H2416a1.809,1.809,0,0,0,0,3.618Z" transform="translate(-2369.146 -549.335)" fill="#00223d"/>
          <path id="Trazado_9844" data-name="Trazado 9844" d="M2403.319,563.808a1.809,1.809,0,0,0,0-3.618H2399.7a1.809,1.809,0,0,0,0,3.618Z" transform="translate(-2363.699 -549.335)" fill="#00223d"/>
          <circle id="Elipse_684" data-name="Elipse 684" cx="1.809" cy="1.809" r="1.809" transform="translate(33.65 89.01)" fill="#00223d"/>
          <path id="Trazado_9845" data-name="Trazado 9845" d="M2348.352,636.518h25.509a1.809,1.809,0,0,0,0-3.618h-23.7V561.981h12.664a1.809,1.809,0,0,0,1.809-1.809V547.507H2413.3v51.136c-.82.971-1.586,1.823-2.25,2.5l-3.835-3.836a9.039,9.039,0,0,0-12.793,0l-2.558,2.558a1.809,1.809,0,0,0,0,2.558l21.436,21.437V632.9h-23.157a1.809,1.809,0,0,0,0,3.618h24.966a1.809,1.809,0,0,0,1.809-1.809v-7.225l.53.529a1.809,1.809,0,0,0,2.559,0l2.558-2.558a9.042,9.042,0,0,0,0-12.793l-3.835-3.835c3.431-3.344,10.981-8.9,14.947-10.626a9.067,9.067,0,1,0-11.893-11.96,48.4,48.4,0,0,1-4.866,7.792V545.7a1.809,1.809,0,0,0-1.809-1.809h-52.284a1.828,1.828,0,0,0-1.28.53l-14.473,14.473a1.818,1.818,0,0,0-.529,1.279v74.537a1.809,1.809,0,0,0,1.809,1.809Zm71.654-21.3a5.425,5.425,0,0,1,0,7.676l-1.278,1.279L2395.7,601.149l1.279-1.279a5.422,5.422,0,0,1,7.676,0Zm-3.478-14.795c3.135-3.781,7-9.181,8.566-12.72a5.449,5.449,0,1,1,7.139,7.178c-4.5,1.961-12.337,7.743-16.061,11.384l-2.562-2.562c.858-.878,1.86-2,2.919-3.28Zm-55.512-50.36v8.3h-8.3Z" transform="translate(-2346.543 -543.889)" fill="#00223d"/>
        </g>
      </g>
    </g>
  </g>
</svg>
