<svg xmlns="http://www.w3.org/2000/svg" width="178" height="178" viewBox="0 0 178 178">
  <g id="Grupo_16537" data-name="Grupo 16537" transform="translate(-4292 866)">
    <rect id="Rectángulo_3958" data-name="Rectángulo 3958" width="178" height="178" transform="translate(4292 -866)" fill="none"/>
    <g id="Grupo_16462" data-name="Grupo 16462" transform="translate(4318.564 -838.388)">
      <g id="Icons" transform="translate(2.083 2.082)">
        <path id="Shape" d="M179.6,766.536a1.024,1.024,0,0,1-.479.864.458.458,0,0,1-.167.1,12.293,12.293,0,0,0-5.64,10.322v3.084l-2.333-1.027-9.159.061L150.418,780a2.084,2.084,0,0,0-1.878,1.219,2.036,2.036,0,0,0,.338,2.194l7.555,8.453,6.057,6.785,10.826,4.792v23.2a30.632,30.632,0,0,0-2.478,53.094,12.412,12.412,0,0,1-10.013,5.018,12.983,12.983,0,0,1-3.122-.391,12.386,12.386,0,0,1-8.638-7.834,10.889,10.889,0,0,1-.582-2.324,2.092,2.092,0,0,0-2.061-1.788h-22.9v-8.227h18.735a4.151,4.151,0,0,0,4.163-4.113V798.388a4.153,4.153,0,0,0-4.163-4.112H123.524v-16.45a12.415,12.415,0,0,1,12.489-12.338h42.528a1.058,1.058,0,0,1,1.061,1.048Z" transform="translate(-98.749 -765.488)" fill="#00695c"/>
        <path id="Trazado_25492" data-name="Trazado 25492" d="M169.563,848.049H119.772a12.5,12.5,0,0,1-12.258-10.092,2.061,2.061,0,0,1,2.062-2.4h45.586a2.08,2.08,0,0,1,2.055,1.815,11.972,11.972,0,0,0,.592,2.348,12.452,12.452,0,0,0,11.754,8.326Z" transform="translate(-107.486 -728.783)" fill="#009688"/>
        <rect id="Rectangle-path" width="45.795" height="70.774" rx="2.695" transform="translate(1.878 28.286)" fill="#0377bc"/>
        <rect id="Rectángulo_3947" data-name="Rectángulo 3947" width="39.55" height="70.774" rx="2.695" transform="translate(1.878 28.286)" fill="#02a9f4"/>
        <rect id="Rectángulo_3948" data-name="Rectángulo 3948" width="29.142" height="8.326" rx="1.348" transform="translate(10.204 36.979)" fill="#00695c"/>
        <rect id="Rectángulo_3949" data-name="Rectángulo 3949" width="22.898" height="8.326" rx="1.348" transform="translate(10.204 36.979)" fill="#009688"/>
        <g id="Grupo_16461" data-name="Grupo 16461" transform="translate(12.286 14.572)">
          <ellipse id="Oval" cx="4.163" cy="4.163" rx="4.163" ry="4.163" transform="translate(0 39.55)" fill="#ffdc00"/>
          <ellipse id="Elipse_906" data-name="Elipse 906" cx="4.163" cy="4.163" rx="4.163" ry="4.163" transform="translate(0 54.121)" fill="#ffdc00"/>
          <ellipse id="Elipse_907" data-name="Elipse 907" cx="4.163" cy="4.163" rx="4.163" ry="4.163" transform="translate(0 68.692)" fill="#ffdc00"/>
          <ellipse id="Elipse_908" data-name="Elipse 908" cx="4.163" cy="4.163" rx="4.163" ry="4.163" transform="translate(16.653 39.55)" fill="#ffdc00"/>
          <ellipse id="Elipse_909" data-name="Elipse 909" cx="4.163" cy="4.163" rx="4.163" ry="4.163" transform="translate(16.653 54.121)" fill="#ffdc00"/>
          <ellipse id="Elipse_910" data-name="Elipse 910" cx="4.163" cy="4.163" rx="4.163" ry="4.163" transform="translate(16.653 68.692)" fill="#ffdc00"/>
          <path id="Trazado_25493" data-name="Trazado 25493" d="M194.533,789.366l-8.493,19.005-21.482-9.6-10.826-4.85-6.057-6.868L140.12,778.5a2.081,2.081,0,0,1,1.54-3.456l11.407-.062,9.159-.062,2.333,1.039Z" transform="translate(-102.276 -774.921)" fill="#ffdc00"/>
          <path id="Trazado_25494" data-name="Trazado 25494" d="M192.915,802.278a10.408,10.408,0,0,1-13.759,5.246l-1.9-.854-7.6-3.392,8.493-19.005,7.6,3.394,1.894.853a10.389,10.389,0,0,1,5.268,13.759Z" transform="translate(-85.899 -769.827)" fill="#ffdc00"/>
        </g>
        <path id="Trazado_25495" data-name="Trazado 25495" d="M169.663,803.275l8.493-19.005,7.6,3.4-8.493,19Z" transform="translate(-73.613 -755.689)" fill="#9e9e9e"/>
        <path id="Trazado_25496" data-name="Trazado 25496" d="M153.068,774.961l-5.391,12.074-7.559-8.553a2.083,2.083,0,0,1,1.543-3.46Z" transform="translate(-89.992 -760.327)" fill="#37474f"/>
        <path id="Trazado_25497" data-name="Trazado 25497" d="M159.378,774.921l-8.493,19-6.057-6.868,5.391-12.074Z" transform="translate(-87.143 -760.349)" fill="#ffe0b2"/>
        <path id="Trazado_25498" data-name="Trazado 25498" d="M190.236,801.081a10.408,10.408,0,0,1-13.759,5.246l-1.9-.854.375-.853,7.951-17.777.167-.374,1.894.853a10.389,10.389,0,0,1,5.268,13.759Z" transform="translate(-70.934 -754.534)" fill="#bb193b"/>
        <path id="Trazado_25499" data-name="Trazado 25499" d="M184.961,798.368a10.406,10.406,0,0,1-10.137,6.12l7.951-17.777a10.979,10.979,0,0,1,2.415,3.684A10.49,10.49,0,0,1,184.961,798.368Z" transform="translate(-70.802 -754.394)" fill="#ef314c"/>
        <path id="Trazado_25500" data-name="Trazado 25500" d="M207.425,834.443A31.235,31.235,0,0,1,176.2,865.667a24.716,24.716,0,0,1-3.06-.167c-.042,0-.083.02-.125,0a31.213,31.213,0,0,1-11.385-58.66,30.65,30.65,0,0,1,11.385-3.456c.042-.02.083,0,.125,0a24.716,24.716,0,0,1,3.06-.167A31.235,31.235,0,0,1,207.425,834.443Z" transform="translate(-87.062 -746.402)" fill="#fec108"/>
        <path id="Trazado_25501" data-name="Trazado 25501" d="M201.166,834.387a31.247,31.247,0,0,1-28.039,31.058c-.042,0-.083.02-.125,0a31.224,31.224,0,0,1,0-62.115c.042-.02.083,0,.125,0A31.247,31.247,0,0,1,201.166,834.387Z" transform="translate(-87.049 -746.346)" fill="#ffdc00"/>
      </g>
      <g id="Layer_10" data-name="Layer 10" transform="translate(0)">
        <path id="Trazado_25502" data-name="Trazado 25502" d="M141.886,800.885a4.163,4.163,0,0,0,4.163-4.163v-4.163a4.162,4.162,0,0,0-4.163-4.163H116.907a4.163,4.163,0,0,0-4.163,4.163v4.163a4.164,4.164,0,0,0,4.163,4.163Zm-24.979-8.326h24.979v4.163H116.907Z" transform="translate(-102.539 -751.415)" fill="#00223d"/>
        <path id="Trazado_25503" data-name="Trazado 25503" d="M120.336,799.176a6.245,6.245,0,1,0,6.246,6.244A6.244,6.244,0,0,0,120.336,799.176Zm0,8.326a2.082,2.082,0,1,1,2.082-2.082A2.082,2.082,0,0,1,120.336,807.5Z" transform="translate(-101.804 -745.76)" fill="#00223d"/>
        <path id="Trazado_25504" data-name="Trazado 25504" d="M120.336,808.608a6.245,6.245,0,1,0,6.246,6.246A6.244,6.244,0,0,0,120.336,808.608Zm0,8.326a2.082,2.082,0,1,1,2.082-2.081A2.081,2.081,0,0,1,120.336,816.934Z" transform="translate(-101.804 -740.812)" fill="#00223d"/>
        <path id="Trazado_25505" data-name="Trazado 25505" d="M120.336,818.041a6.245,6.245,0,1,0,6.246,6.244A6.244,6.244,0,0,0,120.336,818.041Zm0,8.326a2.082,2.082,0,1,1,2.082-2.082A2.081,2.081,0,0,1,120.336,826.367Z" transform="translate(-101.804 -735.864)" fill="#00223d"/>
        <path id="Trazado_25506" data-name="Trazado 25506" d="M131.116,799.176a6.245,6.245,0,1,0,6.246,6.244A6.245,6.245,0,0,0,131.116,799.176Zm0,8.326a2.082,2.082,0,1,1,2.082-2.082A2.082,2.082,0,0,1,131.116,807.5Z" transform="translate(-95.932 -745.76)" fill="#00223d"/>
        <path id="Trazado_25507" data-name="Trazado 25507" d="M131.116,808.608a6.245,6.245,0,1,0,6.246,6.246A6.245,6.245,0,0,0,131.116,808.608Zm0,8.326a2.082,2.082,0,1,1,2.082-2.081A2.081,2.081,0,0,1,131.116,816.934Z" transform="translate(-95.932 -740.812)" fill="#00223d"/>
        <path id="Trazado_25508" data-name="Trazado 25508" d="M131.116,818.041a6.245,6.245,0,1,0,6.246,6.244A6.245,6.245,0,0,0,131.116,818.041Zm0,8.326a2.082,2.082,0,1,1,2.082-2.082A2.081,2.081,0,0,1,131.116,826.367Z" transform="translate(-95.932 -735.864)" fill="#00223d"/>
        <path id="Trazado_25509" data-name="Trazado 25509" d="M177.92,823.18a2.082,2.082,0,0,0,4.163,0c0-5.146-4.511-9.422-10.407-10.253V810.69a2.082,2.082,0,1,0-4.163,0v2.237c-5.9.833-10.409,5.107-10.409,10.253s4.511,9.422,10.409,10.251v12.423c-3.581-.7-6.246-3.122-6.246-6.022a2.082,2.082,0,1,0-4.163,0c0,5.146,4.511,9.422,10.409,10.251v2.238a2.082,2.082,0,1,0,4.163,0v-2.238c5.9-.833,10.407-5.105,10.407-10.251s-4.511-9.422-10.407-10.253V817.158C175.255,817.855,177.92,820.277,177.92,823.18Zm-16.653,0c0-2.9,2.665-5.325,6.246-6.022V829.2c-3.581-.7-6.246-3.12-6.246-6.021Zm16.653,16.653c0,2.9-2.665,5.325-6.244,6.022V833.811c3.579.7,6.244,3.12,6.244,6.021Z" transform="translate(-78.373 -741.383)" fill="#00223d"/>
        <path id="Trazado_25510" data-name="Trazado 25510" d="M184.869,824.164V807.34l28.041,12.393a12.553,12.553,0,0,0,16.5-6.229,12.286,12.286,0,0,0-6.3-16.307l-38.241-16.9v-1.754a10.361,10.361,0,0,1,10.409-10.286,2.057,2.057,0,1,0,0-4.114H145.485a14.5,14.5,0,0,0-14.57,14.4v14.4H114.261a6.208,6.208,0,0,0-6.244,6.171v61.714A6.209,6.209,0,0,0,114.261,867h16.654v4.114H110.306a4.163,4.163,0,0,0-3.195,1.461,4.064,4.064,0,0,0-.908,3.362,14.552,14.552,0,0,0,14.3,11.634H170.3a14.607,14.607,0,0,0,10.458-4.423,33.57,33.57,0,0,0,41.116-6.229,32.6,32.6,0,0,0,2.861-41.009,33.513,33.513,0,0,0-39.863-11.744Zm-16.52-31.932,4.311-9.488,4.565-.052-5.852,12.923Zm-8.441-9.464h8.181l-2.762,6.081Zm17.346,9.946c12.4,5.481,11.628,5.218,12.25,5.218a2.078,2.078,0,0,0,2.038-1.628A2.05,2.05,0,0,0,190.356,794l-11.4-5.047,2.549-5.633,28.5,12.6-2.549,5.632-9.5-4.2a2.1,2.1,0,0,0-2.07.212,2.047,2.047,0,0,0,.371,3.545l9.5,4.2-2.549,5.635-28.5-12.6Zm40.351,6.568-6.8,15.016-3.8-1.678,6.8-15.017Zm8.192,6.239a8.183,8.183,0,0,1-2.073,8.906,8.426,8.426,0,0,1-9.114,1.554l6.8-15.017a8.271,8.271,0,0,1,4.389,4.548Zm-113.618,55.3V799.112a2.069,2.069,0,0,1,2.081-2.056h37.47a2.069,2.069,0,0,1,2.081,2.056v61.714a2.069,2.069,0,0,1-2.081,2.058h-37.47A2.069,2.069,0,0,1,112.18,860.825Zm-1.874,14.413h45.588a14.274,14.274,0,0,0,4.237,8.216H120.506a10.351,10.351,0,0,1-10.2-8.216Zm49.7-.571a4.133,4.133,0,0,0-4.117-3.555H135.078V867h16.653a6.209,6.209,0,0,0,6.244-6.172V799.112a6.208,6.208,0,0,0-6.244-6.171H135.078v-14.4a10.36,10.36,0,0,1,10.407-10.286h39.593a14.282,14.282,0,0,0-4.372,10.332,2.137,2.137,0,0,0-.239-.046l-.037.043H155.31a2.134,2.134,0,0,0-1.886,1.249,2.092,2.092,0,0,0,.323,2.223c19.273,21.6,16.58,18.637,17.368,19.193l9.592,4.252v20.7a32.618,32.618,0,0,0-3.482,54.618,10.485,10.485,0,0,1-10.463,2.008,10.3,10.3,0,0,1-6.746-8.152Zm37.348,8.787a29.147,29.147,0,0,1-26.924-17.779,28.554,28.554,0,0,1,6.317-31.386,29.4,29.4,0,0,1,31.759-6.242,28.749,28.749,0,0,1-11.152,55.407Z" transform="translate(-106.138 -764.14)" fill="#00223d"/>
        <path id="Trazado_25511" data-name="Trazado 25511" d="M155.29,814.787a2.083,2.083,0,0,0-2.845.751,25.476,25.476,0,0,0-1.106,23.383,2.081,2.081,0,1,0,3.78-1.738,21.332,21.332,0,0,1,.924-19.551,2.081,2.081,0,0,0-.752-2.845Z" transform="translate(-82.778 -737.854)" fill="#00223d"/>
        <path id="Trazado_25512" data-name="Trazado 25512" d="M177.666,814.787a2.081,2.081,0,0,0-.754,2.845,21.323,21.323,0,0,1,.924,19.551,2.082,2.082,0,1,0,3.78,1.738,25.475,25.475,0,0,0-1.1-23.383,2.083,2.083,0,0,0-2.845-.751Z" transform="translate(-67.735 -737.854)" fill="#00223d"/>
      </g>
    </g>
  </g>
</svg>
