<svg xmlns="http://www.w3.org/2000/svg" width="159" height="159" viewBox="0 0 159 159">
  <g id="Grupo_16510" data-name="Grupo 16510" transform="translate(-2345 -1275)">
    <rect id="Rectángulo_3953" data-name="Rectángulo 3953" width="159" height="159" transform="translate(2345 1275)" fill="none"/>
    <g id="Grupo_16504" data-name="Grupo 16504" transform="translate(-69.84 -0.497)">
      <g id="Grupo_16472" data-name="Grupo 16472" transform="translate(2139.117 447.25)">
        <path id="Trazado_25580" data-name="Trazado 25580" d="M389.1,919.971a3.358,3.358,0,0,1-4.745,0L362.375,897.99l4.745-4.745L389.1,915.226A3.358,3.358,0,0,1,389.1,919.971Z" transform="translate(20.467 13.612)" fill="#484b63"/>
        <path id="Trazado_25581" data-name="Trazado 25581" d="M299,860.862h70.447v98.849H299Z" transform="translate(0.403 3.361)" fill="#d8d5ed"/>
        <path id="Trazado_25582" data-name="Trazado 25582" d="M304.518,902.518h13.418v36.229H304.518Z" transform="translate(2.151 16.548)" fill="#ff2c5c"/>
        <path id="Trazado_25583" data-name="Trazado 25583" d="M320.485,892.326H333.9v49.648H320.485Z" transform="translate(7.206 13.321)" fill="#ffd659"/>
        <path id="Trazado_25584" data-name="Trazado 25584" d="M336.792,896.063h13.419v44.728H336.792Z" transform="translate(12.368 14.504)" fill="#4fc6f5"/>
        <path id="Trazado_25585" data-name="Trazado 25585" d="M309.614,902.518h6.709v36.229h-6.709Z" transform="translate(3.764 16.548)" fill="#e62753"/>
        <path id="Trazado_25586" data-name="Trazado 25586" d="M325.581,892.326h6.709v49.648h-6.709Z" transform="translate(8.819 13.321)" fill="#ffbd54"/>
        <path id="Trazado_25587" data-name="Trazado 25587" d="M341.888,896.063H348.6v44.728h-6.709Z" transform="translate(13.981 14.504)" fill="#3bb3e3"/>
        <path id="Trazado_25588" data-name="Trazado 25588" d="M381.682,861.935a35.558,35.558,0,1,0,0,50.286A35.558,35.558,0,0,0,381.682,861.935Z" transform="translate(7.362 0.403)" fill="#50536e"/>
        <path id="Trazado_25589" data-name="Trazado 25589" d="M375.322,905.862a28.849,28.849,0,1,1,0-40.8A28.881,28.881,0,0,1,375.322,905.862Z" transform="translate(8.979 2.02)" fill="#b5fcff"/>
        <path id="Trazado_25590" data-name="Trazado 25590" d="M369.195,865.062a28.809,28.809,0,0,0-23.754-8.242,28.835,28.835,0,0,1,0,57.283,28.839,28.839,0,0,0,23.754-49.041Z" transform="translate(15.106 2.02)" fill="#71f6fc"/>
        <path id="Trazado_25591" data-name="Trazado 25591" d="M410.757,927.213,393.548,910a37.249,37.249,0,0,0,1.493-42.969,1.678,1.678,0,0,0-2.8,1.845,33.913,33.913,0,1,1-4.382-5.373l.092.092a1.677,1.677,0,1,0,2.38-2.363l-.1-.1a37.279,37.279,0,0,0-52.662,0q-.683.685-1.324,1.394H299.4a1.678,1.678,0,0,0-1.677,1.677v7.419a1.677,1.677,0,1,0,3.355,0v-5.74h32.48a36.821,36.821,0,0,0-3.307,5.643h-20.9a1.677,1.677,0,1,0,0,3.355h19.509a37.345,37.345,0,0,0-1.2,4.1H309.352a1.677,1.677,0,1,0,0,3.355h17.686a37.2,37.2,0,0,0-.338,4.1H309.352a1.678,1.678,0,0,0,0,3.356h17.405a37.3,37.3,0,0,0,3.755,14.166h-2.82a1.678,1.678,0,0,0-1.677,1.679V955.3a1.677,1.677,0,0,0,1.677,1.677h13.419a1.677,1.677,0,0,0,1.677-1.677V918.148a36.793,36.793,0,0,0,4.7,2.75v34.4a1.677,1.677,0,0,0,1.677,1.677H362.58a1.677,1.677,0,0,0,1.677-1.677v-30.6a37.818,37.818,0,0,0,3.914-.242v25.91a1.677,1.677,0,1,0,3.355,0v-26.45a36.978,36.978,0,0,0,14.908-6.788l17.2,17.208a5.033,5.033,0,0,0,7.119-7.116Zm-71.324,26.405H329.369v-46.3h3.022a37.2,37.2,0,0,0,5.181,6.487c.606.606,1.227,1.182,1.862,1.737Zm11.407,0V922.341a37.3,37.3,0,0,0,10.064,2.23v29.046Zm57.545-21.662a1.678,1.678,0,0,1-2.372,0l-16.993-16.994c.412-.377.816-.761,1.214-1.159s.783-.8,1.16-1.214l16.99,16.994A1.679,1.679,0,0,1,408.385,931.956Z" transform="translate(0 0)" fill="#00223d"/>
        <path id="Trazado_25592" data-name="Trazado 25592" d="M369.849,949.43a1.678,1.678,0,0,0-1.677,1.677v3.8H301.078v-82.5a1.677,1.677,0,1,0-3.355,0v84.176a1.677,1.677,0,0,0,1.677,1.677h70.448a1.677,1.677,0,0,0,1.677-1.677v-5.48A1.677,1.677,0,0,0,369.849,949.43Z" transform="translate(0 6.486)" fill="#00223d"/>
        <path id="Trazado_25593" data-name="Trazado 25593" d="M303.244,902.916v36.236a1.677,1.677,0,0,0,1.677,1.677H318.34a1.677,1.677,0,0,0,1.677-1.677V902.916a1.677,1.677,0,0,0-1.677-1.677H304.921A1.677,1.677,0,0,0,303.244,902.916Zm3.355,1.677h10.064v32.88H306.6Z" transform="translate(1.748 16.143)" fill="#00223d"/>
        <path id="Trazado_25594" data-name="Trazado 25594" d="M319.5,886.756a1.678,1.678,0,0,0,0-3.356H306.959a1.678,1.678,0,0,0,0,3.356Z" transform="translate(2.393 10.496)" fill="#00223d"/>
        <path id="Trazado_25595" data-name="Trazado 25595" d="M355.327,855.34a30.483,30.483,0,1,0,21.586,8.929A30.317,30.317,0,0,0,355.327,855.34Zm19.214,49.735a27.213,27.213,0,1,1,7.945-19.217A26.986,26.986,0,0,1,374.541,905.075Z" transform="translate(8.576 1.613)" fill="#00223d"/>
      </g>
    </g>
  </g>
</svg>
