<svg xmlns="http://www.w3.org/2000/svg" width="159" height="159" viewBox="0 0 159 159">
  <g id="Grupo_16511" data-name="Grupo 16511" transform="translate(-2345 -1463)">
    <rect id="Rectángulo_3954" data-name="Rectángulo 3954" width="159" height="159" transform="translate(2345 1463)" fill="none"/>
    <g id="Grupo_16505" data-name="Grupo 16505" transform="translate(-71.507 25.44)">
      <g id="Grupo_16485" data-name="Grupo 16485" transform="translate(2436 1457.054)">
        <g id="Grupo_16473" data-name="Grupo 16473" transform="translate(2.363 11.813)">
          <circle id="Elipse_914" data-name="Elipse 914" cx="53.414" cy="53.414" r="53.414" fill="#ff7b79"/>
        </g>
        <g id="Grupo_16474" data-name="Grupo 16474" transform="translate(17.489 26.939)">
          <circle id="Elipse_915" data-name="Elipse 915" cx="38.288" cy="38.288" r="38.288" fill="#fff"/>
        </g>
        <g id="Grupo_16475" data-name="Grupo 16475" transform="translate(32.616 42.065)">
          <circle id="Elipse_916" data-name="Elipse 916" cx="23.162" cy="23.162" r="23.162" fill="#ff7b79"/>
        </g>
        <g id="Grupo_16476" data-name="Grupo 16476" transform="translate(47.742 57.191)">
          <circle id="Elipse_917" data-name="Elipse 917" cx="8.036" cy="8.036" r="8.036" fill="#fff"/>
        </g>
        <g id="Grupo_16483" data-name="Grupo 16483" transform="translate(61.488 2.358)">
          <g id="Grupo_16478" data-name="Grupo 16478" transform="translate(8.466 18.191)">
            <g id="Grupo_16477" data-name="Grupo 16477">
              <path id="Trazado_25596" data-name="Trazado 25596" d="M411.937,970.17l22.393-22.393,8.11,8.11L420.047,978.28Z" transform="translate(-411.937 -947.777)" fill="#66e0f7"/>
            </g>
          </g>
          <g id="Grupo_16479" data-name="Grupo 16479" transform="translate(0 40.58)">
            <path id="Trazado_25597" data-name="Trazado 25597" d="M413.859,980.73l-8.1-.014-.014-8.1,8.477-8.477,8.112,8.111Z" transform="translate(-405.749 -964.142)" fill="#c193dc"/>
          </g>
          <g id="Grupo_16482" data-name="Grupo 16482" transform="translate(29.1)">
            <g id="Grupo_16480" data-name="Grupo 16480" transform="translate(3.294 9.464)">
              <path id="Trazado_25598" data-name="Trazado 25598" d="M445.058,960l-15.631-3.3,13.35-13.349a6.692,6.692,0,0,1,9.463,9.463Z" transform="translate(-429.427 -941.398)" fill="#ccf5fc"/>
            </g>
            <g id="Grupo_16481" data-name="Grupo 16481">
              <path id="Trazado_25599" data-name="Trazado 25599" d="M427.019,943.623l3.294,15.631,13.35-13.35a6.691,6.691,0,0,0-9.463-9.462Z" transform="translate(-427.019 -934.481)" fill="#ccf5fc"/>
            </g>
          </g>
        </g>
        <g id="Grupo_16484" data-name="Grupo 16484" transform="translate(0 0)">
          <path id="Trazado_25600" data-name="Trazado 25600" d="M469.831,965.5a2.366,2.366,0,0,0,2.159-.642l7.181-7.181a9.056,9.056,0,0,0-6.4-15.458c-.14,0-.279,0-.417.01.005-.138.01-.278.01-.417a9.056,9.056,0,0,0-15.458-6.4l-7.181,7.182a2.36,2.36,0,0,0-.642,2.157l1.618,7.679-.814.815a55.765,55.765,0,1,0,11.452,11.454l.817-.815Zm-30.949,14.967-4.769-4.768,17.75-17.75.513,2.431A2.363,2.363,0,0,0,454.2,962.2l2.431.512Zm-1.5,17.52a20.8,20.8,0,1,1-12.971-19.27l-3.788,3.788a2.357,2.357,0,0,0-.692,1.674l.007,3.966a10.414,10.414,0,1,0,6.49,6.5l3.973.007h0a2.363,2.363,0,0,0,1.672-.692l3.784-3.784a20.832,20.832,0,0,1,1.521,7.812Zm-7.954-8.065-4.761-.008-.008-4.76,6.113-6.113,4.768,4.769Zm-7.172,8.065a5.676,5.676,0,1,1-3.691-5.314l-2.723,2.723a2.364,2.364,0,0,0,3.344,3.342l2.717-2.719A5.63,5.63,0,0,1,422.255,997.983Zm50.513-51.04a4.327,4.327,0,0,1,3.06,7.388l-6.276,6.275-10.11-2.131,10.264-10.264h0a4.3,4.3,0,0,1,3.06-1.267Zm-12.522-8.2a4.328,4.328,0,1,1,6.12,6.121h0L456.1,955.132l-2.131-10.109Zm7.386,59.236a51.05,51.05,0,1,1-51.049-51.049,50.438,50.438,0,0,1,29.922,9.685l-7.473,7.471a40.66,40.66,0,0,0-58,53.623,2.364,2.364,0,0,0,4.132-2.3,35.933,35.933,0,0,1,50.45-47.907l-7.633,7.634A25.509,25.509,0,1,0,439.431,986.6l7.634-7.634a35.935,35.935,0,0,1-47.921,50.437,2.363,2.363,0,0,0-2.3,4.13,40.658,40.658,0,0,0,53.637-57.984l7.47-7.47A51.2,51.2,0,0,1,467.632,997.983Z" transform="translate(-360.805 -932.757)" fill="#00223d"/>
          <path id="Trazado_25601" data-name="Trazado 25601" d="M382.422,998.495a2.366,2.366,0,1,0,1.67.692A2.377,2.377,0,0,0,382.422,998.495Z" transform="translate(-353.718 -908.558)" fill="#00223d"/>
        </g>
      </g>
    </g>
  </g>
</svg>
