<svg xmlns="http://www.w3.org/2000/svg" width="200" height="168" viewBox="0 0 200 168">
  <g id="Grupo_16492" data-name="Grupo 16492" transform="translate(1654 5295)">
    <path id="Trazado_25635" data-name="Trazado 25635" d="M9,0H191a9,9,0,0,1,9,9V159a9,9,0,0,1-9,9H9a9,9,0,0,1-9-9V9A9,9,0,0,1,9,0Z" transform="translate(-1654 -5295)" fill="#f3ff7e"/>
    <path id="Trazado_25639" data-name="Trazado 25639" d="M14.507,17V4.625H16.08V17Zm9.141-8.807a3.005,3.005,0,0,1,2.175.782,2.918,2.918,0,0,1,.813,2.206V17H25.115V11.524a2.043,2.043,0,0,0-.527-1.547,1.885,1.885,0,0,0-1.354-.5,2.09,2.09,0,0,0-1.538.593,2.407,2.407,0,0,0-.606,1.762V17H19.569V8.36H21.09V9.468A2.885,2.885,0,0,1,23.647,8.193ZM35.952,3.5h1.521V17H36l-.035-1.679a3.179,3.179,0,0,1-1.23,1.362,3.429,3.429,0,0,1-1.828.5,3.926,3.926,0,0,1-2.852-1.217,4.16,4.16,0,0,1-.87-1.428,5.225,5.225,0,0,1-.321-1.854,4.543,4.543,0,0,1,1.173-3.243,3.788,3.788,0,0,1,2.87-1.248,3.443,3.443,0,0,1,1.806.488A3.2,3.2,0,0,1,35.952,10ZM33.228,15.866a2.587,2.587,0,0,0,2.008-.91,3.283,3.283,0,0,0,.813-2.272,3.277,3.277,0,0,0-.817-2.268,2.586,2.586,0,0,0-2-.914,2.644,2.644,0,0,0-2.021.883,3.25,3.25,0,0,0-.817,2.3,3.25,3.25,0,0,0,.817,2.3A2.644,2.644,0,0,0,33.228,15.866ZM45.945,8.36h1.521V17H46.007l-.035-1.143a2.7,2.7,0,0,1-1.072.971,3.3,3.3,0,0,1-1.512.338,3.005,3.005,0,0,1-2.175-.782,2.918,2.918,0,0,1-.813-2.206V8.36H41.92v5.476a2.05,2.05,0,0,0,.532,1.547,1.882,1.882,0,0,0,1.358.51,2.067,2.067,0,0,0,1.534-.6,2.434,2.434,0,0,0,.6-1.767Zm7.348,8.807a4.1,4.1,0,0,1-2.329-.624,2.581,2.581,0,0,1-1.134-1.775l1.327-.378a1.851,1.851,0,0,0,.708,1.2,2.3,2.3,0,0,0,1.419.426,2.832,2.832,0,0,0,.831-.114,1.331,1.331,0,0,0,.637-.426,1.189,1.189,0,0,0,.185-1.143,1.526,1.526,0,0,0-.141-.286.87.87,0,0,0-.246-.237,3.245,3.245,0,0,0-.3-.185,3.067,3.067,0,0,0-.391-.163q-.259-.092-.417-.141t-.483-.141q-.325-.092-.5-.145a9.372,9.372,0,0,1-.9-.316,3.932,3.932,0,0,1-.729-.417,1.679,1.679,0,0,1-.567-.681,2.3,2.3,0,0,1-.189-.967,2.234,2.234,0,0,1,.422-1.38,2.374,2.374,0,0,1,1.094-.813,4.374,4.374,0,0,1,1.534-.25,3.754,3.754,0,0,1,2.1.563,2.4,2.4,0,0,1,1.05,1.688l-1.248.316a1.655,1.655,0,0,0-.659-1.094,2.1,2.1,0,0,0-1.239-.365,2.139,2.139,0,0,0-1.16.3,1.019,1.019,0,0,0-.483.927.923.923,0,0,0,.127.479,1.521,1.521,0,0,0,.259.338,1.594,1.594,0,0,0,.475.259q.343.136.51.185t.633.163q.088.026.132.035.51.132.831.233a5.105,5.105,0,0,1,.747.316,2.484,2.484,0,0,1,.672.47,2.178,2.178,0,0,1,.422.668,2.358,2.358,0,0,1,.176.932,2.516,2.516,0,0,1-.259,1.165,2.028,2.028,0,0,1-.708.8,3.422,3.422,0,0,1-1.006.435A4.8,4.8,0,0,1,53.293,17.167ZM61.625,17a2.271,2.271,0,0,1-1.687-.62,2.344,2.344,0,0,1-.615-1.727V9.573H57.556V8.36h.65a1.249,1.249,0,0,0,.954-.3,1.492,1.492,0,0,0,.277-1.015V5.478h1.415V8.36h1.986V9.573H60.852V14.5a1.31,1.31,0,0,0,.33.954,1.154,1.154,0,0,0,.866.338h.791V17Zm4.9-7.119a2.612,2.612,0,0,1,1.072-1.16,3.229,3.229,0,0,1,1.661-.457V9.7a2.846,2.846,0,0,0-2.008.642,2.68,2.68,0,0,0-.69,2.048V17H65.035V8.36h1.485ZM71.812,6.33A1.035,1.035,0,0,1,70.783,5.3a.975.975,0,0,1,.3-.721,1,1,0,0,1,.725-.3.987.987,0,0,1,.716.3.975.975,0,0,1,.3.721.989.989,0,0,1-.3.725A.979.979,0,0,1,71.812,6.33ZM71.038,17V8.36h1.529V17Zm6.618.167a2.94,2.94,0,0,1-1.894-.593A2.13,2.13,0,0,1,75.02,14.8a2.517,2.517,0,0,1,.237-1.129,1.991,1.991,0,0,1,.7-.787,4.218,4.218,0,0,1,1.015-.488,9.384,9.384,0,0,1,1.314-.312l1.4-.229q.765-.141.765-.8a1.51,1.51,0,0,0-.541-1.288,2.2,2.2,0,0,0-1.367-.409,2.243,2.243,0,0,0-1.354.4,1.655,1.655,0,0,0-.642,1.213l-1.371-.29a2.639,2.639,0,0,1,1.081-1.85,4.039,4.039,0,0,1,2.355-.62,4.777,4.777,0,0,1,1.252.154,3.4,3.4,0,0,1,1.046.483,2.168,2.168,0,0,1,.747.932,3.466,3.466,0,0,1,.268,1.419v3.568a1.46,1.46,0,0,0,.2.9.854.854,0,0,0,.681.233h.141V17h-.756a1.442,1.442,0,0,1-1.635-1.169h-.07A3.3,3.3,0,0,1,77.656,17.167Zm.352-1.23a2.305,2.305,0,0,0,1.854-.835,3.438,3.438,0,0,0,.7-2.285l-2.285.439a3.076,3.076,0,0,0-1.34.479,1.114,1.114,0,0,0-.435.945,1.1,1.1,0,0,0,.417.949A1.785,1.785,0,0,0,78.008,15.937ZM85.092,17V3.5H86.63V17ZM90.5,6.33A1.035,1.035,0,0,1,89.469,5.3a.975.975,0,0,1,.3-.721,1,1,0,0,1,.725-.3.987.987,0,0,1,.716.3.975.975,0,0,1,.3.721.989.989,0,0,1-.3.725A.979.979,0,0,1,90.5,6.33ZM89.724,17V8.36h1.529V17Zm5.818-1.23h4.605V17H93.257L97.81,9.6H93.521V8.36h6.618Zm8.4,1.4a2.94,2.94,0,0,1-1.894-.593,2.13,2.13,0,0,1-.743-1.771,2.517,2.517,0,0,1,.237-1.129,1.991,1.991,0,0,1,.7-.787,4.218,4.218,0,0,1,1.015-.488,9.384,9.384,0,0,1,1.314-.312l1.4-.229q.765-.141.765-.8a1.51,1.51,0,0,0-.541-1.288,2.2,2.2,0,0,0-1.367-.409,2.243,2.243,0,0,0-1.354.4,1.655,1.655,0,0,0-.642,1.213l-1.371-.29a2.639,2.639,0,0,1,1.081-1.85,4.039,4.039,0,0,1,2.355-.62,4.777,4.777,0,0,1,1.252.154,3.4,3.4,0,0,1,1.046.483,2.168,2.168,0,0,1,.747.932,3.466,3.466,0,0,1,.268,1.419v3.568a1.46,1.46,0,0,0,.2.9.854.854,0,0,0,.681.233h.141V17h-.756a1.442,1.442,0,0,1-1.635-1.169h-.07A3.3,3.3,0,0,1,103.944,17.167Zm.352-1.23a2.305,2.305,0,0,0,1.854-.835,3.438,3.438,0,0,0,.7-2.285l-2.285.439a3.076,3.076,0,0,0-1.34.479,1.114,1.114,0,0,0-.435.945,1.1,1.1,0,0,0,.417.949A1.785,1.785,0,0,0,104.3,15.937Zm10.494,1.222a4.161,4.161,0,0,1-3.094-1.239,4.421,4.421,0,0,1-1.222-3.243,4.43,4.43,0,0,1,1.217-3.243,4.5,4.5,0,0,1,5.6-.483,3.815,3.815,0,0,1,1.455,2.1l-1.424.229a2.63,2.63,0,0,0-.976-1.345,2.656,2.656,0,0,0-1.564-.475,2.554,2.554,0,0,0-2,.888A3.382,3.382,0,0,0,112,12.676,3.365,3.365,0,0,0,112.782,15a2.56,2.56,0,0,0,2,.883,2.656,2.656,0,0,0,1.564-.475,2.63,2.63,0,0,0,.976-1.345l1.424.237a3.819,3.819,0,0,1-1.463,2.1A4.185,4.185,0,0,1,114.79,17.158ZM121.76,6.33A1.035,1.035,0,0,1,120.731,5.3a.975.975,0,0,1,.3-.721,1,1,0,0,1,.725-.3.987.987,0,0,1,.716.3.975.975,0,0,1,.3.721.989.989,0,0,1-.3.725A.979.979,0,0,1,121.76,6.33ZM120.986,17V8.36h1.529V17Zm7.682-10.125,2.206-2.865.809.589-1.969,2.276Zm.58,10.292a4.554,4.554,0,0,1-2.215-.536,3.9,3.9,0,0,1-1.56-1.569,4.819,4.819,0,0,1-.576-2.386,4.4,4.4,0,0,1,1.226-3.256,4.6,4.6,0,0,1,6.253,0,4.41,4.41,0,0,1,1.222,3.256,4.413,4.413,0,0,1-1.226,3.265A4.232,4.232,0,0,1,129.248,17.167Zm-.009-1.266a2.654,2.654,0,0,0,2.043-.888,3.326,3.326,0,0,0,.813-2.338,3.314,3.314,0,0,0-.813-2.329,2.654,2.654,0,0,0-2.043-.888,2.617,2.617,0,0,0-2.026.888,3.336,3.336,0,0,0-.8,2.329,3.348,3.348,0,0,0,.8,2.338A2.617,2.617,0,0,0,129.239,15.9Zm10.819-7.708a3.005,3.005,0,0,1,2.175.782,2.918,2.918,0,0,1,.813,2.206V17h-1.521V11.524A2.043,2.043,0,0,0,141,9.978a1.885,1.885,0,0,0-1.354-.5,2.09,2.09,0,0,0-1.538.593,2.407,2.407,0,0,0-.606,1.762V17H135.98V8.36H137.5V9.468A2.885,2.885,0,0,1,140.059,8.193ZM43.739,27.5H45.26V41H43.792l-.035-1.679a3.179,3.179,0,0,1-1.23,1.362,3.429,3.429,0,0,1-1.828.5,3.926,3.926,0,0,1-2.852-1.217,4.16,4.16,0,0,1-.87-1.428,5.225,5.225,0,0,1-.321-1.854,4.543,4.543,0,0,1,1.173-3.243,3.788,3.788,0,0,1,2.87-1.248,3.443,3.443,0,0,1,1.806.488A3.2,3.2,0,0,1,43.739,34ZM41.015,39.866a2.587,2.587,0,0,0,2.008-.91,3.568,3.568,0,0,0,0-4.54,2.586,2.586,0,0,0-2-.914,2.644,2.644,0,0,0-2.021.883,3.64,3.64,0,0,0,0,4.6A2.644,2.644,0,0,0,41.015,39.866Zm14.9-3.357-.018.413h-6.75a3.053,3.053,0,0,0,.826,2.21,2.713,2.713,0,0,0,1.969.769,2.59,2.59,0,0,0,1.433-.413,2.68,2.68,0,0,0,.984-1.143l1.371.29a3.9,3.9,0,0,1-1.477,1.854,4.028,4.028,0,0,1-2.294.677,4.174,4.174,0,0,1-3.111-1.2,4.479,4.479,0,0,1-1.187-3.287A4.458,4.458,0,0,1,48.85,33.4a4.122,4.122,0,0,1,3.063-1.2,3.9,3.9,0,0,1,2.9,1.107A4.376,4.376,0,0,1,55.912,36.509Zm-4-3.146a2.694,2.694,0,0,0-1.8.611,2.8,2.8,0,0,0-.91,1.78h5.177a2.567,2.567,0,0,0-.756-1.78A2.441,2.441,0,0,0,51.913,33.362ZM58.294,41V27.5h1.538V41Zm12.894.158a4.161,4.161,0,0,1-3.094-1.239,4.421,4.421,0,0,1-1.222-3.243,4.43,4.43,0,0,1,1.217-3.243,4.5,4.5,0,0,1,5.6-.483,3.815,3.815,0,0,1,1.455,2.1l-1.424.229a2.63,2.63,0,0,0-.976-1.345,2.656,2.656,0,0,0-1.564-.475,2.554,2.554,0,0,0-2,.888,3.835,3.835,0,0,0,0,4.654,2.56,2.56,0,0,0,2,.883,2.656,2.656,0,0,0,1.564-.475,2.63,2.63,0,0,0,.976-1.345l1.424.237a3.819,3.819,0,0,1-1.463,2.1A4.185,4.185,0,0,1,71.188,41.158Zm8.191.009a2.94,2.94,0,0,1-1.894-.593,2.13,2.13,0,0,1-.743-1.771,2.517,2.517,0,0,1,.237-1.129,1.991,1.991,0,0,1,.7-.787A4.218,4.218,0,0,1,78.7,36.4a9.384,9.384,0,0,1,1.314-.312l1.4-.229q.765-.141.765-.8a1.51,1.51,0,0,0-.541-1.288,2.2,2.2,0,0,0-1.367-.409,2.243,2.243,0,0,0-1.354.4,1.655,1.655,0,0,0-.642,1.213l-1.371-.29a2.639,2.639,0,0,1,1.081-1.85,4.039,4.039,0,0,1,2.355-.62,4.777,4.777,0,0,1,1.252.154,3.4,3.4,0,0,1,1.046.483,2.168,2.168,0,0,1,.747.932A3.466,3.466,0,0,1,83.65,35.2v3.568a1.46,1.46,0,0,0,.2.9.854.854,0,0,0,.681.233h.141V41h-.756a1.442,1.442,0,0,1-1.635-1.169h-.07A3.3,3.3,0,0,1,79.379,41.167Zm.352-1.23a2.305,2.305,0,0,0,1.854-.835,3.438,3.438,0,0,0,.7-2.285L80,37.256a3.076,3.076,0,0,0-1.34.479,1.114,1.114,0,0,0-.435.945,1.1,1.1,0,0,0,.417.949A1.785,1.785,0,0,0,79.73,39.937Zm15.917-7.743a2.785,2.785,0,0,1,2.013.734,2.722,2.722,0,0,1,.765,2.061V41H96.9V35.384a1.952,1.952,0,0,0-.475-1.424,1.616,1.616,0,0,0-1.2-.483,1.706,1.706,0,0,0-1.318.545,2.343,2.343,0,0,0-.5,1.635V41H91.859V35.445a2.042,2.042,0,0,0-.479-1.472,1.629,1.629,0,0,0-1.226-.5,1.69,1.69,0,0,0-1.314.558,2.424,2.424,0,0,0-.505,1.674V41H86.814V32.36h1.521v1.116a2.625,2.625,0,0,1,.989-.949,2.82,2.82,0,0,1,1.375-.334,2.935,2.935,0,0,1,1.477.365,2.271,2.271,0,0,1,.958,1.05,2.689,2.689,0,0,1,1.037-1.05A2.966,2.966,0,0,1,95.647,32.193Zm10.283,0a3.93,3.93,0,0,1,1.564.316,3.848,3.848,0,0,1,1.283.888,4.149,4.149,0,0,1,.866,1.424,5.25,5.25,0,0,1,.321,1.863,4.568,4.568,0,0,1-1.165,3.261,3.782,3.782,0,0,1-2.87,1.239,3.42,3.42,0,0,1-1.806-.492,3.226,3.226,0,0,1-1.235-1.327v5.985h-1.521V32.36h1.468l.035,1.679a3.163,3.163,0,0,1,1.23-1.349A3.452,3.452,0,0,1,105.931,32.193Zm-.3,7.673a2.623,2.623,0,0,0,2-.875,3.674,3.674,0,0,0,0-4.61,2.726,2.726,0,0,0-4.03.04,3.525,3.525,0,0,0,0,4.535A2.636,2.636,0,0,0,105.632,39.866ZM116,41.167a4.554,4.554,0,0,1-2.215-.536,3.9,3.9,0,0,1-1.56-1.569,4.819,4.819,0,0,1-.576-2.386,4.4,4.4,0,0,1,1.226-3.256,4.6,4.6,0,0,1,6.253,0,4.41,4.41,0,0,1,1.222,3.256,4.413,4.413,0,0,1-1.226,3.265A4.232,4.232,0,0,1,116,41.167Zm-.009-1.266a2.654,2.654,0,0,0,2.043-.888,3.755,3.755,0,0,0,0-4.667,2.654,2.654,0,0,0-2.043-.888,2.617,2.617,0,0,0-2.026.888,3.788,3.788,0,0,0,0,4.667A2.617,2.617,0,0,0,115.994,39.9Z" transform="translate(-1632 -5185)" fill="#00223d"/>
    <g id="Grupo_15964" data-name="Grupo 15964" transform="translate(-1597.006 -5275.673)">
      <path id="Trazado_9421" data-name="Trazado 9421" d="M2184.565,428.969V406.2H2148.7l-5.906,21.8v30.119h9.537" transform="translate(-2111.386 -394.478)" fill="#eaa50c"/>
      <path id="Trazado_9422" data-name="Trazado 9422" d="M2171.176,440.7l-11.561-.113,4.759-17.566H2191.6v15.608" transform="translate(-2123.313 -406.404)" fill="#a0d9f2"/>
      <path id="Trazado_9423" data-name="Trazado 9423" d="M2201.527,497.7h4.553a25.314,25.314,0,1,0-50.629,0v7.363" transform="translate(-2120.36 -441.414)" fill="#a56b04"/>
      <path id="Trazado_9424" data-name="Trazado 9424" d="M2066.024,511.3h3.323V481.186h-24.3a5.819,5.819,0,0,0-5.82,5.821v24.3" transform="translate(-2037.935 -447.656)" fill="#eaa50c"/>
      <path id="Trazado_9425" data-name="Trazado 9425" d="M2045.048,481.186a5.819,5.819,0,0,0-5.82,5.821v6.548a5.819,5.819,0,0,1,5.82-5.821h24.3v-6.547Z" transform="translate(-2037.935 -447.656)" fill="#f7b32d"/>
      <ellipse id="Elipse_656" data-name="Elipse 656" cx="20.762" cy="20.762" rx="20.762" ry="20.762" transform="translate(39.643 35.524)" fill="#444d56"/>
      <ellipse id="Elipse_657" data-name="Elipse 657" cx="12.948" cy="12.948" rx="12.948" ry="12.948" transform="translate(47.457 43.337)" fill="#9aa7b8"/>
      <g id="Grupo_15963" data-name="Grupo 15963" transform="translate(1.292 50.25)">
        <ellipse id="Elipse_658" data-name="Elipse 658" cx="4.878" cy="4.878" rx="4.878" ry="4.878" transform="translate(54.235 1.157)" fill="#444d56"/>
        <ellipse id="Elipse_659" data-name="Elipse 659" cx="13.398" cy="13.398" rx="13.398" ry="13.398" transform="translate(0 0)" fill="#444d56"/>
      </g>
      <ellipse id="Elipse_660" data-name="Elipse 660" cx="6.487" cy="6.487" rx="6.487" ry="6.487" transform="translate(7.991 69.916) rotate(-88.093)" fill="#9aa7b8"/>
      <rect id="Rectángulo_3880" data-name="Rectángulo 3880" width="44.012" height="4.969" transform="translate(29.167 6.755)" fill="#a56b04"/>
      <path id="Trazado_9426" data-name="Trazado 9426" d="M2055.317,507.657a4.483,4.483,0,1,0,0-8.966Z" transform="translate(-2049.345 -460.071)" fill="#ffe300"/>
      <path id="Trazado_9427" data-name="Trazado 9427" d="M2082.513,418.534h-3.307a2.422,2.422,0,0,0-2.422,2.422v15.8h8.151v-15.8A2.422,2.422,0,0,0,2082.513,418.534Z" transform="translate(-2064.57 -403.223)" fill="#444d56"/>
      <path id="Trazado_9428" data-name="Trazado 9428" d="M2082.582,418.538c-.023,0-.046,0-.069,0h-3.307a2.422,2.422,0,0,0-2.422,2.422v15.8h3.446v-15.8A2.42,2.42,0,0,1,2082.582,418.538Z" transform="translate(-2064.57 -403.224)" fill="#2c343a"/>
      <path id="Trazado_9429" data-name="Trazado 9429" d="M2207.769,510.466a14.24,14.24,0,1,0,14.24,14.24A14.256,14.256,0,0,0,2207.769,510.466Zm0,25.9a11.656,11.656,0,1,1,11.655-11.656A11.669,11.669,0,0,1,2207.769,536.362Z" transform="translate(-2147.365 -468.421)" fill="#00223d"/>
      <path id="Trazado_9430" data-name="Trazado 9430" d="M2227.448,538.215a6.17,6.17,0,1,0,6.171,6.171A6.177,6.177,0,0,0,2227.448,538.215Zm0,9.757a3.586,3.586,0,1,1,3.586-3.586A3.59,3.59,0,0,1,2227.448,547.972Z" transform="translate(-2167.044 -488.1)" fill="#00223d"/>
      <path id="Trazado_9431" data-name="Trazado 9431" d="M2109.254,399.6V372.641a1.292,1.292,0,0,0-1.292-1.292h-4.775a1.292,1.292,0,0,0-1.292,1.292h0a1.292,1.292,0,0,0,1.292,1.292h3.483v2.385h-41.427v-2.385h31.914a1.292,1.292,0,0,0,1.292-1.292h0a1.292,1.292,0,0,0-1.292-1.292H2063.95a1.292,1.292,0,0,0-1.292,1.292v4.969a1.292,1.292,0,0,0,1.292,1.292h6.462l-5.207,19.221h-8.765V383.617a3.714,3.714,0,0,0-3.714-3.714h-.515v-8.4a3.032,3.032,0,0,1,3.031-3.031h1.315a1.292,1.292,0,0,0,1.292-1.292h0a1.292,1.292,0,0,0-1.292-1.292h-1.315a5.615,5.615,0,0,0-5.616,5.616v8.4h-.207a3.714,3.714,0,0,0-3.714,3.714v14.505h-3.81a7.112,7.112,0,0,0-7.112,7.112v24.279c0,.007,0,.013,0,.02a14.689,14.689,0,0,0,29.32,1.293h10.8a22.053,22.053,0,0,0,42.3-7.363h3.3a1.293,1.293,0,0,0,1.292-1.294A26.614,26.614,0,0,0,2109.254,399.6Zm-60.965-15.979a1.131,1.131,0,0,1,1.129-1.129h3.307a1.131,1.131,0,0,1,1.129,1.129v14.505h-5.566Zm1.183,58.022a12.119,12.119,0,0,1-12.106-12.105h0v-.02a12.105,12.105,0,1,1,12.1,12.125Zm15.429-24.046v10.649h-.8a14.682,14.682,0,0,0-26.735-7.018V405.236a4.528,4.528,0,0,1,4.528-4.529H2064.9v10.855a1.293,1.293,0,0,0,1.292,1.292h0a1.292,1.292,0,0,0,1.292-1.292V399.587l5.6-20.685h33.58v19.27q-1.125-.54-2.306-.976V382.5a1.292,1.292,0,0,0-1.292-1.292h-27.229a1.292,1.292,0,0,0-1.247.954l-4.759,17.566a1.3,1.3,0,0,0,.5,1.395,1.343,1.343,0,0,0,.769.235l7.433.072a26.57,26.57,0,0,0-9.96,20.741v6.071h-1.1V417.593a1.292,1.292,0,0,0-1.292-1.292h0A1.292,1.292,0,0,0,2064.9,417.593Zm17.43-18.71-9.562-.093,4.063-15h24.948v12.6a26.6,26.6,0,0,0-19.448,2.492Zm12.855,42.757a19.469,19.469,0,1,1,19.469-19.469A19.491,19.491,0,0,1,2095.187,441.639Zm22.015-20.761a22.053,22.053,0,1,0-43.218,7.363h-2.818v-6.07a24.022,24.022,0,0,1,48.01-1.292Z" transform="translate(-2034.783 -365.885)" fill="#00223d"/>
      <path id="Trazado_9432" data-name="Trazado 9432" d="M2066.327,558a7.78,7.78,0,1,0,7.78,7.78A7.788,7.788,0,0,0,2066.327,558Zm0,12.975a5.2,5.2,0,1,1,5.2-5.2A5.2,5.2,0,0,1,2066.327,570.978Z" transform="translate(-2051.636 -502.134)" fill="#00223d"/>
      <path id="Trazado_9433" data-name="Trazado 9433" d="M2052.165,494.247a1.293,1.293,0,0,0-1.292,1.292V504.5a1.292,1.292,0,0,0,1.292,1.292,5.775,5.775,0,0,0,0-11.55Zm1.292,8.692v-5.834a3.19,3.19,0,0,1,0,5.834Z" transform="translate(-2046.194 -456.918)" fill="#00223d"/>
      <path id="Trazado_9434" data-name="Trazado 9434" d="M2103.045,491.445h-5.868a1.292,1.292,0,1,0,0,2.584h5.868a1.292,1.292,0,0,0,0-2.584Z" transform="translate(-2078.115 -454.931)" fill="#00223d"/>
      <path id="Trazado_9435" data-name="Trazado 9435" d="M2103.045,505.459h-5.868a1.292,1.292,0,1,0,0,2.584h5.868a1.292,1.292,0,0,0,0-2.584Z" transform="translate(-2078.115 -464.87)" fill="#00223d"/>
      <path id="Trazado_9436" data-name="Trazado 9436" d="M2103.045,519.474h-5.868a1.292,1.292,0,1,0,0,2.584h5.868a1.292,1.292,0,0,0,0-2.584Z" transform="translate(-2078.115 -474.809)" fill="#00223d"/>
    </g>
  </g>
</svg>
