<svg xmlns="http://www.w3.org/2000/svg" width="200" height="168" viewBox="0 0 200 168">
  <g id="Grupo_16490" data-name="Grupo 16490" transform="translate(1214 5295)">
    <path id="Trazado_25638" data-name="Trazado 25638" d="M9,0H191a9,9,0,0,1,9,9V159a9,9,0,0,1-9,9H9a9,9,0,0,1-9-9V9A9,9,0,0,1,9,0Z" transform="translate(-1214 -5295)" fill="#f3ff7e"/>
    <path id="Trazado_25641" data-name="Trazado 25641" d="M22.225,17V4.625H23.8V17Zm9.141-8.807a3.005,3.005,0,0,1,2.175.782,2.918,2.918,0,0,1,.813,2.206V17H32.833V11.524a2.043,2.043,0,0,0-.527-1.547,1.885,1.885,0,0,0-1.354-.5,2.09,2.09,0,0,0-1.538.593,2.407,2.407,0,0,0-.606,1.762V17H27.288V8.36h1.521V9.468A2.885,2.885,0,0,1,31.366,8.193Zm10,0a3.005,3.005,0,0,1,2.175.782,2.918,2.918,0,0,1,.813,2.206V17H42.835V11.524a2.043,2.043,0,0,0-.527-1.547,1.885,1.885,0,0,0-1.354-.5,2.09,2.09,0,0,0-1.538.593,2.407,2.407,0,0,0-.606,1.762V17H37.29V8.36H38.81V9.468A2.885,2.885,0,0,1,41.368,8.193Zm9.563,8.974a4.554,4.554,0,0,1-2.215-.536,3.9,3.9,0,0,1-1.56-1.569,4.819,4.819,0,0,1-.576-2.386,4.4,4.4,0,0,1,1.226-3.256,4.6,4.6,0,0,1,6.253,0,4.41,4.41,0,0,1,1.222,3.256,4.413,4.413,0,0,1-1.226,3.265A4.232,4.232,0,0,1,50.93,17.167ZM50.921,15.9a2.654,2.654,0,0,0,2.043-.888,3.326,3.326,0,0,0,.813-2.338,3.314,3.314,0,0,0-.813-2.329,2.654,2.654,0,0,0-2.043-.888,2.617,2.617,0,0,0-2.026.888,3.336,3.336,0,0,0-.8,2.329,3.348,3.348,0,0,0,.8,2.338A2.617,2.617,0,0,0,50.921,15.9ZM62.708,8.36h1.626L60.818,17H59.526l-3.5-8.64h1.617l2.531,6.873Zm5.08,8.807a2.94,2.94,0,0,1-1.894-.593,2.13,2.13,0,0,1-.743-1.771,2.517,2.517,0,0,1,.237-1.129,1.991,1.991,0,0,1,.7-.787,4.218,4.218,0,0,1,1.015-.488,9.384,9.384,0,0,1,1.314-.312l1.4-.229q.765-.141.765-.8a1.51,1.51,0,0,0-.541-1.288,2.2,2.2,0,0,0-1.367-.409,2.243,2.243,0,0,0-1.354.4,1.655,1.655,0,0,0-.642,1.213l-1.371-.29a2.639,2.639,0,0,1,1.081-1.85,4.039,4.039,0,0,1,2.355-.62A4.777,4.777,0,0,1,70,8.365a3.4,3.4,0,0,1,1.046.483,2.168,2.168,0,0,1,.747.932,3.466,3.466,0,0,1,.268,1.419v3.568a1.46,1.46,0,0,0,.2.9.854.854,0,0,0,.681.233h.141V17h-.756a1.442,1.442,0,0,1-1.635-1.169h-.07A3.3,3.3,0,0,1,67.788,17.167Zm.352-1.23a2.305,2.305,0,0,0,1.854-.835,3.438,3.438,0,0,0,.7-2.285l-2.285.439a3.076,3.076,0,0,0-1.34.479,1.114,1.114,0,0,0-.435.945,1.1,1.1,0,0,0,.417.949A1.785,1.785,0,0,0,68.139,15.937Zm10.494,1.222a4.161,4.161,0,0,1-3.094-1.239,4.421,4.421,0,0,1-1.222-3.243,4.43,4.43,0,0,1,1.217-3.243,4.5,4.5,0,0,1,5.6-.483,3.815,3.815,0,0,1,1.455,2.1l-1.424.229a2.63,2.63,0,0,0-.976-1.345,2.656,2.656,0,0,0-1.564-.475,2.554,2.554,0,0,0-2,.888,3.382,3.382,0,0,0-.787,2.329A3.365,3.365,0,0,0,76.625,15a2.56,2.56,0,0,0,2,.883,2.656,2.656,0,0,0,1.564-.475,2.63,2.63,0,0,0,.976-1.345l1.424.237a3.819,3.819,0,0,1-1.463,2.1A4.185,4.185,0,0,1,78.633,17.158ZM85.6,6.33A1.035,1.035,0,0,1,84.575,5.3a.975.975,0,0,1,.3-.721,1,1,0,0,1,.725-.3.987.987,0,0,1,.716.3.975.975,0,0,1,.3.721.989.989,0,0,1-.3.725A.979.979,0,0,1,85.6,6.33ZM84.83,17V8.36h1.529V17ZM92.511,6.875,94.717,4.01l.809.589L93.557,6.875Zm.58,10.292a4.554,4.554,0,0,1-2.215-.536,3.9,3.9,0,0,1-1.56-1.569,4.819,4.819,0,0,1-.576-2.386,4.4,4.4,0,0,1,1.226-3.256,4.6,4.6,0,0,1,6.253,0,4.41,4.41,0,0,1,1.222,3.256,4.413,4.413,0,0,1-1.226,3.265A4.232,4.232,0,0,1,93.091,17.167ZM93.083,15.9a2.654,2.654,0,0,0,2.043-.888,3.326,3.326,0,0,0,.813-2.338,3.314,3.314,0,0,0-.813-2.329,2.654,2.654,0,0,0-2.043-.888,2.617,2.617,0,0,0-2.026.888,3.336,3.336,0,0,0-.8,2.329,3.348,3.348,0,0,0,.8,2.338A2.617,2.617,0,0,0,93.083,15.9ZM103.9,8.193a3.005,3.005,0,0,1,2.175.782,2.918,2.918,0,0,1,.813,2.206V17H105.37V11.524a2.043,2.043,0,0,0-.527-1.547,1.885,1.885,0,0,0-1.354-.5,2.09,2.09,0,0,0-1.538.593,2.407,2.407,0,0,0-.606,1.762V17H99.824V8.36h1.521V9.468A2.885,2.885,0,0,1,103.9,8.193Zm15.926.167h1.608l-5,12.709h-1.573l1.731-4.28L113.236,8.36h1.688l2.435,6.724ZM18.323,27.5h1.521V41H18.375l-.035-1.679a3.179,3.179,0,0,1-1.23,1.362,3.429,3.429,0,0,1-1.828.5,3.926,3.926,0,0,1-2.852-1.217,4.16,4.16,0,0,1-.87-1.428,5.225,5.225,0,0,1-.321-1.854,4.543,4.543,0,0,1,1.173-3.243,3.788,3.788,0,0,1,2.87-1.248,3.443,3.443,0,0,1,1.806.488A3.2,3.2,0,0,1,18.323,34ZM15.6,39.866a2.587,2.587,0,0,0,2.008-.91,3.568,3.568,0,0,0,0-4.54,2.586,2.586,0,0,0-2-.914,2.644,2.644,0,0,0-2.021.883,3.64,3.64,0,0,0,0,4.6A2.644,2.644,0,0,0,15.6,39.866Zm14.9-3.357-.018.413h-6.75a3.053,3.053,0,0,0,.826,2.21,2.713,2.713,0,0,0,1.969.769,2.59,2.59,0,0,0,1.433-.413,2.68,2.68,0,0,0,.984-1.143l1.371.29a3.9,3.9,0,0,1-1.477,1.854,4.028,4.028,0,0,1-2.294.677,4.174,4.174,0,0,1-3.111-1.2,4.479,4.479,0,0,1-1.187-3.287A4.458,4.458,0,0,1,23.434,33.4a4.122,4.122,0,0,1,3.063-1.2A3.9,3.9,0,0,1,29.4,33.3,4.376,4.376,0,0,1,30.5,36.509Zm-4-3.146a2.694,2.694,0,0,0-1.8.611,2.8,2.8,0,0,0-.91,1.78h5.177a2.567,2.567,0,0,0-.756-1.78A2.441,2.441,0,0,0,26.5,33.362Zm9.114,7.8a4.1,4.1,0,0,1-2.329-.624,2.581,2.581,0,0,1-1.134-1.775l1.327-.378a1.851,1.851,0,0,0,.708,1.2,2.3,2.3,0,0,0,1.419.426,2.832,2.832,0,0,0,.831-.114,1.331,1.331,0,0,0,.637-.426,1.189,1.189,0,0,0,.185-1.143,1.526,1.526,0,0,0-.141-.286.87.87,0,0,0-.246-.237,3.245,3.245,0,0,0-.3-.185,3.067,3.067,0,0,0-.391-.163q-.259-.092-.417-.141t-.483-.141q-.325-.092-.5-.145a9.372,9.372,0,0,1-.9-.316,3.932,3.932,0,0,1-.729-.417,1.679,1.679,0,0,1-.567-.681,2.3,2.3,0,0,1-.189-.967,2.234,2.234,0,0,1,.422-1.38,2.374,2.374,0,0,1,1.094-.813,4.374,4.374,0,0,1,1.534-.25,3.754,3.754,0,0,1,2.1.563,2.4,2.4,0,0,1,1.05,1.688l-1.248.316a1.655,1.655,0,0,0-.659-1.094,2.1,2.1,0,0,0-1.239-.365,2.139,2.139,0,0,0-1.16.3,1.019,1.019,0,0,0-.483.927.923.923,0,0,0,.127.479,1.521,1.521,0,0,0,.259.338,1.594,1.594,0,0,0,.475.259q.343.136.51.185t.633.163q.088.026.132.035.51.132.831.233a5.105,5.105,0,0,1,.747.316,2.484,2.484,0,0,1,.672.47,2.178,2.178,0,0,1,.422.668,2.358,2.358,0,0,1,.176.932,2.516,2.516,0,0,1-.259,1.165,2.028,2.028,0,0,1-.708.8,3.422,3.422,0,0,1-1.006.435A4.8,4.8,0,0,1,35.611,41.167Zm7.567,0a2.94,2.94,0,0,1-1.894-.593,2.13,2.13,0,0,1-.743-1.771,2.517,2.517,0,0,1,.237-1.129,1.991,1.991,0,0,1,.7-.787A4.218,4.218,0,0,1,42.5,36.4a9.384,9.384,0,0,1,1.314-.312l1.4-.229q.765-.141.765-.8a1.51,1.51,0,0,0-.541-1.288,2.2,2.2,0,0,0-1.367-.409,2.243,2.243,0,0,0-1.354.4,1.655,1.655,0,0,0-.642,1.213l-1.371-.29a2.639,2.639,0,0,1,1.081-1.85,4.039,4.039,0,0,1,2.355-.62,4.777,4.777,0,0,1,1.252.154,3.4,3.4,0,0,1,1.046.483,2.168,2.168,0,0,1,.747.932A3.466,3.466,0,0,1,47.45,35.2v3.568a1.46,1.46,0,0,0,.2.9.854.854,0,0,0,.681.233h.141V41h-.756a1.442,1.442,0,0,1-1.635-1.169h-.07A3.3,3.3,0,0,1,43.178,41.167Zm.352-1.23a2.305,2.305,0,0,0,1.854-.835,3.438,3.438,0,0,0,.7-2.285l-2.285.439a3.076,3.076,0,0,0-1.34.479,1.114,1.114,0,0,0-.435.945,1.1,1.1,0,0,0,.417.949A1.785,1.785,0,0,0,43.53,39.937ZM52.1,33.881a2.612,2.612,0,0,1,1.072-1.16,3.229,3.229,0,0,1,1.661-.457V33.7a2.846,2.846,0,0,0-2.008.642,2.68,2.68,0,0,0-.69,2.048V41H50.614V32.36H52.1Zm6,0a2.612,2.612,0,0,1,1.072-1.16,3.229,3.229,0,0,1,1.661-.457V33.7a2.846,2.846,0,0,0-2.008.642,2.68,2.68,0,0,0-.69,2.048V41H56.617V32.36H58.1Zm8.051,7.286a4.554,4.554,0,0,1-2.215-.536,3.9,3.9,0,0,1-1.56-1.569,4.819,4.819,0,0,1-.576-2.386,4.4,4.4,0,0,1,1.226-3.256,4.6,4.6,0,0,1,6.253,0A4.41,4.41,0,0,1,70.5,36.676a4.413,4.413,0,0,1-1.226,3.265A4.232,4.232,0,0,1,66.153,41.167ZM66.144,39.9a2.654,2.654,0,0,0,2.043-.888,3.755,3.755,0,0,0,0-4.667,2.654,2.654,0,0,0-2.043-.888,2.617,2.617,0,0,0-2.026.888,3.788,3.788,0,0,0,0,4.667A2.617,2.617,0,0,0,66.144,39.9ZM72.885,41V27.5h1.538V41Zm4.632,0V27.5h1.538V41Zm8.271.167a4.554,4.554,0,0,1-2.215-.536,3.9,3.9,0,0,1-1.56-1.569,4.819,4.819,0,0,1-.576-2.386,4.4,4.4,0,0,1,1.226-3.256,4.6,4.6,0,0,1,6.253,0,4.41,4.41,0,0,1,1.222,3.256,4.413,4.413,0,0,1-1.226,3.265A4.232,4.232,0,0,1,85.788,41.167ZM85.779,39.9a2.654,2.654,0,0,0,2.043-.888,3.755,3.755,0,0,0,0-4.667,2.654,2.654,0,0,0-2.043-.888,2.617,2.617,0,0,0-2.026.888,3.788,3.788,0,0,0,0,4.667A2.617,2.617,0,0,0,85.779,39.9Zm12.9-6.021a2.612,2.612,0,0,1,1.072-1.16,3.229,3.229,0,0,1,1.661-.457V33.7a2.846,2.846,0,0,0-2.008.642,2.68,2.68,0,0,0-.69,2.048V41H97.2V32.36h1.485Zm9.9-1.521H110.1V41h-1.459l-.035-1.143a2.7,2.7,0,0,1-1.072.971,3.3,3.3,0,0,1-1.512.338,3.005,3.005,0,0,1-2.175-.782,2.918,2.918,0,0,1-.813-2.206V32.36h1.521v5.476a2.05,2.05,0,0,0,.532,1.547,1.882,1.882,0,0,0,1.358.51,2.067,2.067,0,0,0,1.534-.6,2.434,2.434,0,0,0,.6-1.767Zm6.1,1.521a2.612,2.612,0,0,1,1.072-1.16,3.229,3.229,0,0,1,1.661-.457V33.7a2.846,2.846,0,0,0-2.008.642,2.68,2.68,0,0,0-.69,2.048V41h-1.521V32.36h1.485Zm6.407,7.286a2.94,2.94,0,0,1-1.894-.593,2.13,2.13,0,0,1-.743-1.771,2.517,2.517,0,0,1,.237-1.129,1.991,1.991,0,0,1,.7-.787A4.218,4.218,0,0,1,120.4,36.4a9.384,9.384,0,0,1,1.314-.312l1.4-.229q.765-.141.765-.8a1.51,1.51,0,0,0-.541-1.288,2.2,2.2,0,0,0-1.367-.409,2.243,2.243,0,0,0-1.354.4,1.655,1.655,0,0,0-.642,1.213l-1.371-.29a2.639,2.639,0,0,1,1.081-1.85,4.039,4.039,0,0,1,2.355-.62,4.777,4.777,0,0,1,1.252.154,3.4,3.4,0,0,1,1.046.483,2.168,2.168,0,0,1,.747.932,3.466,3.466,0,0,1,.268,1.419v3.568a1.46,1.46,0,0,0,.2.9.854.854,0,0,0,.681.233h.141V41h-.756a1.442,1.442,0,0,1-1.635-1.169h-.07A3.3,3.3,0,0,1,121.084,41.167Zm.352-1.23a2.305,2.305,0,0,0,1.854-.835,3.438,3.438,0,0,0,.7-2.285l-2.285.439a3.076,3.076,0,0,0-1.34.479,1.114,1.114,0,0,0-.435.945,1.1,1.1,0,0,0,.417.949A1.785,1.785,0,0,0,121.436,39.937ZM128.52,41V27.5h1.538V41Z" transform="translate(-1185 -5185)" fill="#00223d"/>
    <g id="Filled_outline" data-name="Filled outline" transform="translate(-1153.193 -5275.673)">
      <path id="Trazado_9520" data-name="Trazado 9520" d="M2585.972,817.545h65.283a5.223,5.223,0,0,1,5.223,5.223h0a5.223,5.223,0,0,1-5.223,5.223h-65.283a5.223,5.223,0,0,1-5.223-5.223h0A5.223,5.223,0,0,1,2585.972,817.545Z" transform="translate(-2579.443 -783.598)" fill="#91563a"/>
      <g id="Grupo_16020" data-name="Grupo 16020" transform="translate(11.751 1.305)">
        <path id="Trazado_9521" data-name="Trazado 9521" d="M2611.545,729.142h0v-1.306a6.528,6.528,0,0,1,6.528-6.529h0v1.306A6.528,6.528,0,0,1,2611.545,729.142Z" transform="translate(-2611.545 -721.308)" fill="#cddc39"/>
        <path id="Trazado_9522" data-name="Trazado 9522" d="M2611.545,759.938h0v-1.306a6.528,6.528,0,0,1,6.528-6.528h0v1.306A6.528,6.528,0,0,1,2611.545,759.938Z" transform="translate(-2611.545 -741.659)" fill="#cddc39"/>
        <path id="Trazado_9523" data-name="Trazado 9523" d="M2611.545,790.734h0v-1.306a6.528,6.528,0,0,1,6.528-6.528h0v1.305A6.528,6.528,0,0,1,2611.545,790.734Z" transform="translate(-2611.545 -762.009)" fill="#cddc39"/>
      </g>
      <path id="Trazado_9524" data-name="Trazado 9524" d="M2592.3,721.308a6.529,6.529,0,0,1,6.528,6.529v1.306h0a6.528,6.528,0,0,1-6.528-6.528v-1.306Z" transform="translate(-2587.074 -720.003)" fill="#cddc39"/>
      <path id="Trazado_9525" data-name="Trazado 9525" d="M2592.3,752.1a6.528,6.528,0,0,1,6.528,6.528v1.306h0a6.528,6.528,0,0,1-6.528-6.528V752.1Z" transform="translate(-2587.074 -740.353)" fill="#cddc39"/>
      <path id="Trazado_9526" data-name="Trazado 9526" d="M2592.3,782.9a6.528,6.528,0,0,1,6.528,6.528v1.306h0a6.528,6.528,0,0,1-6.528-6.528V782.9Z" transform="translate(-2587.074 -760.704)" fill="#cddc39"/>
      <path id="Trazado_9527" data-name="Trazado 9527" d="M2665.437,729.142h0v-1.306a6.528,6.528,0,0,1,6.528-6.529h0v1.306A6.528,6.528,0,0,1,2665.437,729.142Z" transform="translate(-2635.407 -720.003)" fill="#cddc39"/>
      <path id="Trazado_9528" data-name="Trazado 9528" d="M2665.437,759.938h0v-1.306a6.528,6.528,0,0,1,6.528-6.528h0v1.306A6.528,6.528,0,0,1,2665.437,759.938Z" transform="translate(-2635.407 -740.353)" fill="#cddc39"/>
      <path id="Trazado_9529" data-name="Trazado 9529" d="M2665.437,790.734h0v-1.306a6.528,6.528,0,0,1,6.528-6.528h0v1.305A6.528,6.528,0,0,1,2665.437,790.734Z" transform="translate(-2635.407 -760.704)" fill="#cddc39"/>
      <path id="Trazado_9530" data-name="Trazado 9530" d="M2646.19,721.308a6.528,6.528,0,0,1,6.528,6.529v1.306h0a6.528,6.528,0,0,1-6.528-6.528v-1.306Z" transform="translate(-2622.688 -720.003)" fill="#cddc39"/>
      <path id="Trazado_9531" data-name="Trazado 9531" d="M2646.19,752.1a6.528,6.528,0,0,1,6.528,6.528v1.306h0a6.528,6.528,0,0,1-6.528-6.528V752.1Z" transform="translate(-2622.688 -740.353)" fill="#cddc39"/>
      <path id="Trazado_9532" data-name="Trazado 9532" d="M2646.19,782.9a6.528,6.528,0,0,1,6.528,6.528v1.306h0a6.528,6.528,0,0,1-6.528-6.528V782.9Z" transform="translate(-2622.688 -760.704)" fill="#cddc39"/>
      <path id="Trazado_9533" data-name="Trazado 9533" d="M2719.33,729.142h0v-1.306a6.528,6.528,0,0,1,6.528-6.529h0v1.306A6.528,6.528,0,0,1,2719.33,729.142Z" transform="translate(-2671.021 -720.003)" fill="#cddc39"/>
      <path id="Trazado_9534" data-name="Trazado 9534" d="M2719.33,759.938h0v-1.306a6.528,6.528,0,0,1,6.528-6.528h0v1.306A6.528,6.528,0,0,1,2719.33,759.938Z" transform="translate(-2671.021 -740.353)" fill="#cddc39"/>
      <path id="Trazado_9535" data-name="Trazado 9535" d="M2719.33,790.734h0v-1.306a6.528,6.528,0,0,1,6.528-6.528h0v1.305A6.528,6.528,0,0,1,2719.33,790.734Z" transform="translate(-2671.021 -760.704)" fill="#cddc39"/>
      <path id="Trazado_9536" data-name="Trazado 9536" d="M2700.082,721.308a6.529,6.529,0,0,1,6.529,6.529v1.306h0a6.528,6.528,0,0,1-6.529-6.528v-1.306Z" transform="translate(-2658.301 -720.003)" fill="#cddc39"/>
      <path id="Trazado_9537" data-name="Trazado 9537" d="M2700.082,752.1a6.529,6.529,0,0,1,6.529,6.528v1.306h0a6.528,6.528,0,0,1-6.529-6.528V752.1Z" transform="translate(-2658.301 -740.353)" fill="#cddc39"/>
      <path id="Trazado_9538" data-name="Trazado 9538" d="M2700.082,782.9a6.529,6.529,0,0,1,6.529,6.528v1.306h0a6.529,6.529,0,0,1-6.529-6.528V782.9Z" transform="translate(-2658.301 -760.704)" fill="#cddc39"/>
      <path id="Trazado_9539" data-name="Trazado 9539" d="M2773.222,729.142h0v-1.306a6.529,6.529,0,0,1,6.528-6.529h0v1.306A6.528,6.528,0,0,1,2773.222,729.142Z" transform="translate(-2706.633 -720.003)" fill="#cddc39"/>
      <path id="Trazado_9540" data-name="Trazado 9540" d="M2773.222,759.938h0v-1.306a6.528,6.528,0,0,1,6.528-6.528h0v1.306A6.528,6.528,0,0,1,2773.222,759.938Z" transform="translate(-2706.633 -740.353)" fill="#cddc39"/>
      <path id="Trazado_9541" data-name="Trazado 9541" d="M2773.222,790.734h0v-1.306a6.528,6.528,0,0,1,6.528-6.528h0v1.305A6.528,6.528,0,0,1,2773.222,790.734Z" transform="translate(-2706.633 -760.704)" fill="#cddc39"/>
      <path id="Trazado_9542" data-name="Trazado 9542" d="M2753.975,721.308a6.528,6.528,0,0,1,6.528,6.529v1.306h0a6.528,6.528,0,0,1-6.528-6.528v-1.306Z" transform="translate(-2693.915 -720.003)" fill="#cddc39"/>
      <path id="Trazado_9543" data-name="Trazado 9543" d="M2753.975,752.1a6.528,6.528,0,0,1,6.528,6.528v1.306h0a6.528,6.528,0,0,1-6.528-6.528V752.1Z" transform="translate(-2693.915 -740.353)" fill="#cddc39"/>
      <path id="Trazado_9544" data-name="Trazado 9544" d="M2753.975,782.9a6.528,6.528,0,0,1,6.528,6.528v1.306h0a6.528,6.528,0,0,1-6.528-6.528V782.9Z" transform="translate(-2693.915 -760.704)" fill="#cddc39"/>
      <rect id="Rectángulo_3881" data-name="Rectángulo 3881" width="52.226" height="35.253" rx="11.548" transform="translate(13.057 39.17)" fill="#dfdfdd"/>
      <path id="Trazado_9545" data-name="Trazado 9545" d="M2634.641,832.943h39.17V868.2h-39.17Z" transform="translate(-2615.056 -793.773)" fill="#348ed8"/>
      <path id="Trazado_9546" data-name="Trazado 9546" d="M2706.678,852.258a3.917,3.917,0,0,0-7.834,0,2.611,2.611,0,0,0,0,5.223h7.834a2.611,2.611,0,0,0,0-5.223Z" transform="translate(-2655.757 -803.949)" fill="#2b78b7"/>
      <path id="Trazado_9547" data-name="Trazado 9547" d="M2612.894,881.815a2.773,2.773,0,0,0-1.959.811l-5.717,5.717V875.287l-3.693,3.693a5.222,5.222,0,0,0-1.53,3.693v17.421h10.445v-1.305a7.062,7.062,0,0,0,0-7.834l4.411-4.411a2.77,2.77,0,0,0-1.958-4.728Z" transform="translate(-2592.162 -821.755)" fill="#fdc8a2"/>
      <path id="Trazado_9548" data-name="Trazado 9548" d="M2752.715,878.98l-3.693-3.693v13.057l-5.717-5.717a2.77,2.77,0,0,0-4.728,1.959h0a2.769,2.769,0,0,0,.811,1.958l4.411,4.411a7.062,7.062,0,0,0,0,7.834v1.305h10.446V882.673A5.223,5.223,0,0,0,2752.715,878.98Z" transform="translate(-2683.739 -821.755)" fill="#fdc8a2"/>
      <path id="Trazado_9549" data-name="Trazado 9549" d="M2583.427,763.157h2.611v-2.611h-2.611a3.917,3.917,0,1,1,0-7.834h3.917v2.611h2.611v-2.611h15.668v2.611h-11.751a5.228,5.228,0,0,0-5.222,5.222v23.5a1.306,1.306,0,0,0,2.229.923l5.717-5.717a1.464,1.464,0,0,1,2.071,2.071l-4.411,4.411a1.305,1.305,0,0,0-.163,1.647,5.741,5.741,0,0,1,0,6.385,1.306,1.306,0,0,0-.22.724V795.8h2.612v-.928a8.382,8.382,0,0,0,.767-1.683h34.485v-2.611h-33.947v-4.682l2.723-2.724a4.075,4.075,0,0,0-2.723-6.953V757.934h36.558v18.283a4.075,4.075,0,0,0-2.723,6.953l3.705,3.7a8.341,8.341,0,0,0,.324,8v.928h2.611v-1.306a1.306,1.306,0,0,0-.219-.724,5.741,5.741,0,0,1,0-6.385,1.306,1.306,0,0,0-.164-1.647l-4.412-4.411a1.464,1.464,0,0,1,2.071-2.071h0l5.717,5.717a1.306,1.306,0,0,0,2.229-.923v-9.9l1.464,1.464a3.892,3.892,0,0,1,1.147,2.77V795.8h2.612V778.377a6.486,6.486,0,0,0-1.912-4.616l-3.311-3.31v-9.9a5.228,5.228,0,0,0-5.223-5.222h-11.751v-2.611h15.668v2.611h2.611v-2.611h3.917a3.917,3.917,0,0,1,0,7.834H2646.1v2.611h2.612a6.528,6.528,0,0,0,0-13.056h-3.917v-1.417a7.846,7.846,0,0,0,6.528-7.723v-1.306a1.306,1.306,0,0,0-1.306-1.306,7.8,7.8,0,0,0-5.222,2v-2.112a7.846,7.846,0,0,0,6.528-7.723V729.21a1.306,1.306,0,0,0-1.306-1.305,7.8,7.8,0,0,0-5.222,2v-2.112a7.846,7.846,0,0,0,6.528-7.723v-1.306a1.306,1.306,0,0,0-1.306-1.305,7.826,7.826,0,0,1-13.056,0,1.306,1.306,0,0,0-1.306,1.305v1.306a7.845,7.845,0,0,0,6.529,7.723v2.112a7.8,7.8,0,0,0-5.223-2,1.306,1.306,0,0,0-1.306,1.305v1.306a7.845,7.845,0,0,0,6.529,7.723v2.112a7.8,7.8,0,0,0-5.223-2,1.306,1.306,0,0,0-1.306,1.306v1.306a7.845,7.845,0,0,0,6.529,7.723V750.1h-15.668v-1.417a7.845,7.845,0,0,0,6.528-7.723v-1.306a1.306,1.306,0,0,0-1.306-1.306,7.8,7.8,0,0,0-5.223,2v-2.112a7.845,7.845,0,0,0,6.528-7.723V729.21a1.305,1.305,0,0,0-1.306-1.305,7.8,7.8,0,0,0-5.223,2v-2.112a7.845,7.845,0,0,0,6.528-7.723v-1.306a1.305,1.305,0,0,0-1.306-1.305,7.826,7.826,0,0,1-13.056,0,1.305,1.305,0,0,0-1.305,1.305v1.306a7.845,7.845,0,0,0,6.528,7.723v2.112a7.8,7.8,0,0,0-5.223-2,1.305,1.305,0,0,0-1.305,1.305v1.306a7.845,7.845,0,0,0,6.528,7.723v2.112a7.8,7.8,0,0,0-5.223-2,1.306,1.306,0,0,0-1.305,1.306v1.306a7.845,7.845,0,0,0,6.528,7.723V750.1h-15.668v-1.417a7.846,7.846,0,0,0,6.528-7.723v-1.306a1.306,1.306,0,0,0-1.306-1.306,7.8,7.8,0,0,0-5.222,2v-2.112a7.846,7.846,0,0,0,6.528-7.723V729.21a1.306,1.306,0,0,0-1.306-1.305,7.8,7.8,0,0,0-5.222,2v-2.112a7.846,7.846,0,0,0,6.528-7.723v-1.306a1.306,1.306,0,0,0-1.306-1.305,7.826,7.826,0,0,1-13.057,0,1.306,1.306,0,0,0-1.306,1.305v1.306a7.845,7.845,0,0,0,6.529,7.723v2.112a7.8,7.8,0,0,0-5.223-2,1.306,1.306,0,0,0-1.306,1.305v1.306a7.845,7.845,0,0,0,6.529,7.723v2.112a7.8,7.8,0,0,0-5.223-2,1.306,1.306,0,0,0-1.306,1.306v1.306a7.845,7.845,0,0,0,6.529,7.723V750.1h-15.668v-1.417a7.845,7.845,0,0,0,6.528-7.723v-1.306a1.306,1.306,0,0,0-1.306-1.306,7.8,7.8,0,0,0-5.223,2v-2.112a7.845,7.845,0,0,0,6.528-7.723V729.21a1.305,1.305,0,0,0-1.306-1.305,7.8,7.8,0,0,0-5.223,2v-2.112a7.845,7.845,0,0,0,6.528-7.723v-1.306a1.305,1.305,0,0,0-1.306-1.305,7.826,7.826,0,0,1-13.056,0,1.305,1.305,0,0,0-1.305,1.305v1.306a7.845,7.845,0,0,0,6.528,7.723v2.112a7.8,7.8,0,0,0-5.222-2,1.305,1.305,0,0,0-1.305,1.305v1.306a7.845,7.845,0,0,0,6.528,7.723v2.112a7.8,7.8,0,0,0-5.222-2,1.306,1.306,0,0,0-1.305,1.306v1.306a7.845,7.845,0,0,0,6.528,7.723V750.1h-3.917a6.528,6.528,0,1,0,0,13.056Zm11.75,13.877c-.15.114-3.917,3.861-3.917,3.861v-20.35a2.615,2.615,0,0,1,2.611-2.611h1.306Zm41.781-19.1h1.305a2.614,2.614,0,0,1,2.611,2.611V780.9s-3.767-3.748-3.917-3.861Zm11.748-16.807a5.233,5.233,0,0,1-3.912,4.891A5.233,5.233,0,0,1,2648.707,741.127Zm0-10.445a5.232,5.232,0,0,1-3.912,4.891A5.232,5.232,0,0,1,2648.707,730.681Zm0-10.445a5.232,5.232,0,0,1-3.912,4.891A5.232,5.232,0,0,1,2648.707,720.236Zm-10.44,0a5.233,5.233,0,0,1,3.912,4.891A5.233,5.233,0,0,1,2638.267,720.236Zm0,10.445a5.233,5.233,0,0,1,3.912,4.891A5.233,5.233,0,0,1,2638.267,730.681Zm0,10.445a5.233,5.233,0,0,1,3.912,4.891A5.233,5.233,0,0,1,2638.267,741.127Zm-7.839,0a5.233,5.233,0,0,1-3.912,4.891A5.233,5.233,0,0,1,2630.428,741.127Zm0-10.445a5.233,5.233,0,0,1-3.912,4.891A5.233,5.233,0,0,1,2630.428,730.681Zm0-10.445a5.233,5.233,0,0,1-3.912,4.891A5.233,5.233,0,0,1,2630.428,720.236Zm-10.44,0a5.232,5.232,0,0,1,3.912,4.891A5.232,5.232,0,0,1,2619.988,720.236Zm0,10.445a5.232,5.232,0,0,1,3.912,4.891A5.232,5.232,0,0,1,2619.988,730.681Zm0,10.445a5.232,5.232,0,0,1,3.912,4.891A5.232,5.232,0,0,1,2619.988,741.127Zm-7.839,0a5.233,5.233,0,0,1-3.912,4.891A5.233,5.233,0,0,1,2612.149,741.127Zm0-10.445a5.232,5.232,0,0,1-3.912,4.891A5.232,5.232,0,0,1,2612.149,730.681Zm0-10.445a5.232,5.232,0,0,1-3.912,4.891A5.232,5.232,0,0,1,2612.149,720.236Zm-3.914,32.476H2623.9v2.611h-15.668Zm-6.526-32.476a5.234,5.234,0,0,1,3.912,4.891A5.234,5.234,0,0,1,2601.709,720.236Zm0,10.445a5.234,5.234,0,0,1,3.912,4.891A5.234,5.234,0,0,1,2601.709,730.681Zm0,10.445a5.234,5.234,0,0,1,3.912,4.891A5.234,5.234,0,0,1,2601.709,741.127Zm-7.839,0a5.234,5.234,0,0,1-3.912,4.891A5.234,5.234,0,0,1,2593.87,741.127Zm0-10.445a5.233,5.233,0,0,1-3.912,4.891A5.233,5.233,0,0,1,2593.87,730.681Zm0-10.445a5.233,5.233,0,0,1-3.912,4.891A5.233,5.233,0,0,1,2593.87,720.236Zm-10.44,0a5.233,5.233,0,0,1,3.912,4.891A5.233,5.233,0,0,1,2583.43,720.236Zm0,10.445a5.233,5.233,0,0,1,3.912,4.891A5.233,5.233,0,0,1,2583.43,730.681Zm0,10.445a5.232,5.232,0,0,1,3.912,4.891A5.232,5.232,0,0,1,2583.43,741.127Zm2.42,32.123,1.846,1.846-.51.51a3.891,3.891,0,0,0-1.147,2.77V795.8h-2.611V778.377a6.486,6.486,0,0,1,1.912-4.616Zm17.163-12.7v2.611H2600.4v-2.611Zm5.223,2.611h-2.611v-2.611h2.611Zm5.222,0h-2.611v-2.611h2.611Zm18.279,5.223a3.923,3.923,0,0,0-2.733-3.734,5.223,5.223,0,0,0-10.2,0,3.917,3.917,0,0,0,1.184,7.651h7.834A3.921,3.921,0,0,0,2631.736,768.379Zm-13.056,0a1.307,1.307,0,0,1,1.306-1.305,1.306,1.306,0,0,0,1.305-1.306,2.611,2.611,0,1,1,5.222,0,1.306,1.306,0,0,0,1.306,1.306,1.306,1.306,0,0,1,0,2.611h-7.834A1.308,1.308,0,0,1,2618.68,768.379Zm1.306,9.14h-2.611v-2.611h2.611Zm-3.917,2.611h2.611v2.611h-2.611Zm9.14-2.611H2622.6v-2.611h2.611Zm-3.917,2.611h2.611v2.611h-2.611Zm9.139-2.611h-2.611v-2.611h2.611Zm-1.306,5.223h-2.611V780.13h2.611ZM2600.4,767.074h6.528v2.611H2600.4Zm13.057,7.834H2600.4V772.3h13.057Zm0,5.222h-9.14v-2.611h9.14Zm-10.445,2.611h10.445v2.611h-10.445Z" transform="translate(-2576.899 -717.459)" fill="#00223d"/>
    </g>
  </g>
</svg>
