<svg xmlns="http://www.w3.org/2000/svg" width="188.999" height="189" viewBox="0 0 188.999 189">
  <g id="Grupo_15957" data-name="Grupo 15957" transform="translate(-1438.332 -836.843)">
    <g id="Grupo_15955" data-name="Grupo 15955" transform="translate(1442.023 898.288)">
      <path id="Trazado_9337" data-name="Trazado 9337" d="M1477.878,987.906l-12.05-12.824a22.2,22.2,0,0,1-6.022-15.2v-45.41a8.667,8.667,0,0,0-6.789-8.46h0a8.665,8.665,0,0,0-10.543,8.46V971.7a32.255,32.255,0,0,0,5.954,18.672l6.582,9.272,15.749,22.185,5.558,7.829H1518.3l-6.048-28.826a50.956,50.956,0,0,0-21.438-31.823l-12.912-8.683a9.253,9.253,0,0,0-12.09,1.542h0a9.959,9.959,0,0,0,.21,13.438c7.071,7.493,17.592,18.7,17.592,18.7" transform="translate(-1442.474 -905.799)" fill="#ffcdac"/>
      <path id="Trazado_9338" data-name="Trazado 9338" d="M1601.618,987.906l12.049-12.824a22.2,22.2,0,0,0,6.023-15.2v-45.41a8.666,8.666,0,0,1,6.788-8.46h0a8.666,8.666,0,0,1,10.544,8.46V971.7a32.255,32.255,0,0,1-5.954,18.672l-6.583,9.272-15.749,22.185-5.557,7.829h-41.985l6.048-28.826a50.955,50.955,0,0,1,21.438-31.823l12.912-8.683a9.253,9.253,0,0,1,12.09,1.542h0a9.958,9.958,0,0,1-.21,13.438c-7.071,7.493-17.592,18.7-17.592,18.7" transform="translate(-1455.406 -905.799)" fill="#ffcdac"/>
    </g>
    <g id="Grupo_15956" data-name="Grupo 15956" transform="translate(1476.497 903.145)">
      <path id="Trazado_9339" data-name="Trazado 9339" d="M1554.382,923.09a13.615,13.615,0,0,1,6.649-3.806l9.426-2.259,0,.006,0-.006v-5.755h11.511v5.772h0l9.4,2.246a13.657,13.657,0,0,1,10.484,13.283v6.894h-20.839Z" transform="translate(-1489.138 -911.252)" fill="#7d9bff"/>
      <path id="Trazado_9340" data-name="Trazado 9340" d="M1528.633,923.069a13.622,13.622,0,0,0-6.649-3.807L1512.558,917l0,.006,0-.006V911.25h-11.511v5.772h0l-9.4,2.246a13.657,13.657,0,0,0-10.484,13.283v6.894H1502Z" transform="translate(-1481.162 -911.25)" fill="#7d9bff"/>
    </g>
    <path id="Trazado_9341" data-name="Trazado 9341" d="M1532.011,924.282l-13.129,3.146a19.022,19.022,0,0,0-14.59,18.5V959.2h71.448V945.939a19.022,19.022,0,0,0-14.6-18.5l-13.1-3.129" transform="translate(-7.185 -9.525)" fill="#cddc39"/>
    <path id="Trazado_9342" data-name="Trazado 9342" d="M1551.43,915.287v8.04l-8.012,18.221L1535.4,923.3v-8.015" transform="translate(-10.573 -8.545)" fill="#ffb487"/>
    <path id="Trazado_9343" data-name="Trazado 9343" d="M1560.12,884.3v11.1a17.87,17.87,0,0,1-17.87,17.87h0a17.87,17.87,0,0,1-17.87-17.87V884.3" transform="translate(-9.373 -5.169)" fill="#ffcdac"/>
    <path id="Trazado_9344" data-name="Trazado 9344" d="M1542.25,863.356h0a17.87,17.87,0,0,0-17.87,17.87v4.3h8.738a19.63,19.63,0,0,0,15.047-7.023h0l11.955,7.023v-4.3A17.87,17.87,0,0,0,1542.25,863.356Z" transform="translate(-9.373 -2.888)" fill="#bebebe"/>
    <path id="Trazado_9345" data-name="Trazado 9345" d="M1521.207,889.884V886.8a12.83,12.83,0,0,0-12.831-12.83h0a12.83,12.83,0,0,0-12.83,12.83v3.089h8.844a30.585,30.585,0,0,0,15.723-4.35h0" transform="translate(-6.232 -4.044)" fill="#f5b955"/>
    <path id="Trazado_9346" data-name="Trazado 9346" d="M1521.207,889v7.97a12.831,12.831,0,0,1-12.831,12.831h0a12.831,12.831,0,0,1-12.83-12.831V889" transform="translate(-6.232 -5.682)" fill="#ffcdac"/>
    <path id="Trazado_9347" data-name="Trazado 9347" d="M1564.474,889.905v-3.088a12.83,12.83,0,0,1,12.831-12.83h0a12.83,12.83,0,0,1,12.83,12.83v3.088h-8.844a30.585,30.585,0,0,1-15.723-4.35h0" transform="translate(-13.741 -4.046)" fill="#f5b955"/>
    <path id="Trazado_9348" data-name="Trazado 9348" d="M1564.474,889.022v7.971a12.831,12.831,0,0,0,12.831,12.83h0a12.831,12.831,0,0,0,12.83-12.83v-7.971" transform="translate(-13.741 -5.684)" fill="#ffcdac"/>
    <path id="Trazado_9349" data-name="Trazado 9349" d="M1476.776,1033.43a3.691,3.691,0,1,0-6.02,4.274l5.558,7.828a3.691,3.691,0,1,0,6.019-4.274Z" transform="translate(-3.457 -21.245)" fill="#00223d"/>
    <path id="Trazado_9350" data-name="Trazado 9350" d="M1515.416,999.627a54.362,54.362,0,0,0-22.991-34.129l-12.913-8.683a12.989,12.989,0,0,0-16.466,1.681v-44.48a12.357,12.357,0,1,0-24.714,0v57.235a35.761,35.761,0,0,0,6.635,20.809l6.583,9.272a3.691,3.691,0,1,0,6.019-4.273l-6.582-9.273a28.41,28.41,0,0,1-5.273-16.535V914.017a4.974,4.974,0,1,1,9.949,0v45.41a25.791,25.791,0,0,0,6.653,17.317c.183.22.372.438.572.651,2.451,2.6,5.334,5.658,8.048,8.544l3.8,4.045.038.036c3.251,3.457,5.649,6.011,5.7,6.064a3.691,3.691,0,1,0,5.381-5.053c-.067-.072-4.388-4.674-9.322-9.919l-8.464-9.008c-.021-.023-.041-.047-.062-.07a6.23,6.23,0,0,1,.12-8.164,5.582,5.582,0,0,1,7.267-.928l12.912,8.683a47.024,47.024,0,0,1,19.885,29.518l6.048,28.825a3.691,3.691,0,0,0,7.226-1.516Z" transform="translate(0 -7.06)" fill="#00223d"/>
    <path id="Trazado_9351" data-name="Trazado 9351" d="M1468.178,1021.32a3.692,3.692,0,0,0-6.01,4.288l.024.033a3.692,3.692,0,0,0,6.01-4.288Z" transform="translate(-2.522 -19.926)" fill="#00223d"/>
    <path id="Trazado_9352" data-name="Trazado 9352" d="M1635.639,904.379a12.358,12.358,0,0,0-20.092,9.638V958.5a12.99,12.99,0,0,0-16.465-1.681l-12.912,8.683a54.363,54.363,0,0,0-22.991,34.129l-6.048,28.825a3.691,3.691,0,1,0,7.225,1.516l6.049-28.825a47.014,47.014,0,0,1,19.885-29.518l12.912-8.682a5.581,5.581,0,0,1,7.267.927,6.228,6.228,0,0,1,.128,8.155c-.024.026-.046.053-.069.078l-17.787,18.926a3.691,3.691,0,1,0,5.381,5.053c.05-.053,15.134-16.091,17.585-18.688.2-.211.389-.43.573-.651a25.8,25.8,0,0,0,6.652-17.317v-45.41a4.975,4.975,0,1,1,9.95,0v57.235a28.413,28.413,0,0,1-5.272,16.536l-27.889,39.286a3.692,3.692,0,1,0,6.02,4.274l27.889-39.286a35.759,35.759,0,0,0,6.635-20.809V914.017A12.3,12.3,0,0,0,1635.639,904.379Z" transform="translate(-12.932 -7.06)" fill="#00223d"/>
    <path id="Trazado_9353" data-name="Trazado 9353" d="M1572.769,955.805a3.692,3.692,0,0,0,3.692-3.692V938.851c0-.457-.019-.911-.045-1.362h17.01a3.691,3.691,0,0,0,3.692-3.691V926.9a17.292,17.292,0,0,0-13.318-16.874l-6.568-1.569v-1.177a16.511,16.511,0,0,0,7.067-13.537v-8.537a16.508,16.508,0,0,0-27.24-12.557,21.554,21.554,0,0,0-39.947.029,16.508,16.508,0,0,0-27.275,12.527v8.538a16.51,16.51,0,0,0,7.067,13.536v1.178l-6.567,1.568a17.293,17.293,0,0,0-13.318,16.874V933.8a3.691,3.691,0,0,0,3.692,3.691h16.962c-.026.448-.045.9-.045,1.352v13.273a3.692,3.692,0,0,0,3.692,3.692h22.189a3.691,3.691,0,1,0,0-7.383H1519.7v-7.628a3.691,3.691,0,1,0-7.383,0v7.628h-7.3V938.84a15.283,15.283,0,0,1,11.759-14.909l10.13-2.427,6.779,15.423a3.69,3.69,0,0,0,3.379,2.206h0a3.693,3.693,0,0,0,3.38-2.205l6.772-15.4,10.1,2.412a15.283,15.283,0,0,1,11.769,14.912v9.571h-7.3v-7.628a3.691,3.691,0,1,0-7.382,0v7.628h-4.184a3.692,3.692,0,0,0,0,7.383Zm-47.421-44.785a17.382,17.382,0,0,0-2.956-1l-6.595-1.581v-1.15a16.645,16.645,0,0,0,3.2-2.923,21.73,21.73,0,0,0,6.351,6.366Zm-28.128-17.274v-1.759h5.152a34.29,34.29,0,0,0,13.125-2.614v4.372a9.138,9.138,0,0,1-18.277,0Zm25.692-1.079v-3.9h5.046a23.26,23.26,0,0,0,15.686-6.059l7.612,4.472v6.025a14.177,14.177,0,0,1-28.344-.54Zm25.85,18.366v-.25a21.722,21.722,0,0,0,6.4-6.381,16.606,16.606,0,0,0,3.172,2.891v1.15l-6.595,1.581A17.331,17.331,0,0,0,1548.763,911.032Zm9.877-17.287v-.539c0-.18.013-.359.013-.54v-3.287a34.291,34.291,0,0,0,13.111,2.608h5.152v1.758a9.138,9.138,0,1,1-18.277,0Zm9.138-17.676a9.149,9.149,0,0,1,9.118,8.536h-5.132a26.9,26.9,0,0,1-12.377-3.017A9.152,9.152,0,0,1,1567.777,876.069Zm-44.865,4.706a14.18,14.18,0,0,1,28.179-2.254l-6.214-3.652a3.692,3.692,0,0,0-4.7.813,15.9,15.9,0,0,1-12.219,5.7h-5.046v-.61Zm-16.554-4.706a9.152,9.152,0,0,1,8.391,5.518,26.916,26.916,0,0,1-12.377,3.016h-5.133A9.15,9.15,0,0,1,1506.358,876.069Zm8.692,40.681a22.637,22.637,0,0,0-15.686,13.355H1484.4v-3.2a9.933,9.933,0,0,1,7.65-9.693l9.4-2.246a3.691,3.691,0,0,0,2.834-3.59v-1.24a16.1,16.1,0,0,0,4.127,0v1.053c0,.054,0,.11,0,.165a3.7,3.7,0,0,0,3,3.632l5.506,1.319Zm22.009,9.518-4.33-9.85v-2.634a21.618,21.618,0,0,0,8.65.013v2.646Zm21.964-9.511-1.853-.442,5.536-1.327a3.7,3.7,0,0,0,3.015-3.636c0-.028,0-.058,0-.086v-1.133a16.1,16.1,0,0,0,4.127,0v1.24a3.691,3.691,0,0,0,2.834,3.59l9.4,2.246a9.934,9.934,0,0,1,7.651,9.693v3.2h-15.013A22.637,22.637,0,0,0,1559.023,916.757Z" transform="translate(-4.214 -2.437)" fill="#00223d"/>
    <path id="Trazado_9354" data-name="Trazado 9354" d="M1543.932,959.329a3.686,3.686,0,1,0,2.609,1.077A3.709,3.709,0,0,0,1543.932,959.329Z" transform="translate(-11.101 -13.342)"/>
    <path id="Trazado_9355" data-name="Trazado 9355" d="M1543.929,849.749a3.692,3.692,0,0,0,3.692-3.691v-5.524a3.691,3.691,0,1,0-7.382,0v5.524A3.692,3.692,0,0,0,1543.929,849.749Z" transform="translate(-11.101)" fill="#00223d"/>
    <path id="Trazado_9356" data-name="Trazado 9356" d="M1522.659,854.974a3.691,3.691,0,1,0,5.217-5.223L1524,845.883a3.691,3.691,0,1,0-5.217,5.223Z" transform="translate(-8.646 -0.867)" fill="#00223d"/>
    <path id="Trazado_9357" data-name="Trazado 9357" d="M1562.054,856.137a3.68,3.68,0,0,0,2.612-1.083l3.842-3.846a3.691,3.691,0,1,0-5.224-5.217l-3.842,3.846a3.691,3.691,0,0,0,2.612,6.3Z" transform="translate(-13.075 -0.879)" fill="#00223d"/>
  </g>
</svg>
