<svg xmlns="http://www.w3.org/2000/svg" width="200" height="168" viewBox="0 0 200 168">
  <g id="Grupo_16486" data-name="Grupo 16486" transform="translate(1764 5483)">
    <path id="Trazado_25630" data-name="Trazado 25630" d="M9,0H191a9,9,0,0,1,9,9V159a9,9,0,0,1-9,9H9a9,9,0,0,1-9-9V9A9,9,0,0,1,9,0Z" transform="translate(-1764 -5483)" fill="#f3ff7e"/>
    <path id="Trazado_25632" data-name="Trazado 25632" d="M6.76,17V4.625h3.99a5.917,5.917,0,0,1,3.151.8A4.879,4.879,0,0,1,15.834,7.6a7.642,7.642,0,0,1,.628,3.2,8.1,8.1,0,0,1-.365,2.5A5.664,5.664,0,0,1,15.03,15.26a4.685,4.685,0,0,1-1.8,1.283A6.391,6.391,0,0,1,10.75,17Zm1.573-1.433H10.7A3.769,3.769,0,0,0,13.787,14.3a5.35,5.35,0,0,0,1.042-3.5,5.305,5.305,0,0,0-1.046-3.48A3.771,3.771,0,0,0,10.7,6.058H8.333Zm18.352-3.059-.018.413h-6.75a3.053,3.053,0,0,0,.826,2.21,2.713,2.713,0,0,0,1.969.769,2.59,2.59,0,0,0,1.433-.413,2.68,2.68,0,0,0,.984-1.143l1.371.29a3.9,3.9,0,0,1-1.477,1.854,4.028,4.028,0,0,1-2.294.677,4.174,4.174,0,0,1-3.111-1.2,4.479,4.479,0,0,1-1.187-3.287A4.458,4.458,0,0,1,19.623,9.4a4.122,4.122,0,0,1,3.063-1.2A3.9,3.9,0,0,1,25.59,9.3,4.376,4.376,0,0,1,26.685,12.509Zm-4-3.146a2.694,2.694,0,0,0-1.8.611,2.8,2.8,0,0,0-.91,1.78h5.177a2.567,2.567,0,0,0-.756-1.78A2.441,2.441,0,0,0,22.686,9.362Zm9.114,7.8a4.1,4.1,0,0,1-2.329-.624,2.581,2.581,0,0,1-1.134-1.775l1.327-.378a1.851,1.851,0,0,0,.708,1.2,2.3,2.3,0,0,0,1.419.426,2.832,2.832,0,0,0,.831-.114,1.331,1.331,0,0,0,.637-.426,1.189,1.189,0,0,0,.185-1.143,1.526,1.526,0,0,0-.141-.286.87.87,0,0,0-.246-.237,3.245,3.245,0,0,0-.3-.185,3.067,3.067,0,0,0-.391-.163q-.259-.092-.417-.141t-.483-.141q-.325-.092-.5-.145a9.372,9.372,0,0,1-.9-.316,3.932,3.932,0,0,1-.729-.417,1.679,1.679,0,0,1-.567-.681,2.3,2.3,0,0,1-.189-.967A2.234,2.234,0,0,1,29,9.274,2.374,2.374,0,0,1,30.1,8.461a4.374,4.374,0,0,1,1.534-.25,3.754,3.754,0,0,1,2.1.563,2.4,2.4,0,0,1,1.05,1.688l-1.248.316a1.655,1.655,0,0,0-.659-1.094,2.1,2.1,0,0,0-1.239-.365,2.139,2.139,0,0,0-1.16.3,1.019,1.019,0,0,0-.483.927.923.923,0,0,0,.127.479,1.521,1.521,0,0,0,.259.338,1.594,1.594,0,0,0,.475.259q.343.136.51.185t.633.163q.088.026.132.035.51.132.831.233a5.105,5.105,0,0,1,.747.316,2.484,2.484,0,0,1,.672.47,2.178,2.178,0,0,1,.422.668,2.358,2.358,0,0,1,.176.932,2.516,2.516,0,0,1-.259,1.165,2.028,2.028,0,0,1-.708.8,3.422,3.422,0,0,1-1.006.435A4.8,4.8,0,0,1,31.8,17.167Zm7.567,0a2.94,2.94,0,0,1-1.894-.593A2.13,2.13,0,0,1,36.73,14.8a2.517,2.517,0,0,1,.237-1.129,1.991,1.991,0,0,1,.7-.787,4.218,4.218,0,0,1,1.015-.488A9.384,9.384,0,0,1,40,12.087l1.4-.229q.765-.141.765-.8a1.51,1.51,0,0,0-.541-1.288,2.2,2.2,0,0,0-1.367-.409,2.243,2.243,0,0,0-1.354.4,1.655,1.655,0,0,0-.642,1.213l-1.371-.29a2.639,2.639,0,0,1,1.081-1.85,4.039,4.039,0,0,1,2.355-.62,4.777,4.777,0,0,1,1.252.154,3.4,3.4,0,0,1,1.046.483,2.168,2.168,0,0,1,.747.932,3.466,3.466,0,0,1,.268,1.419v3.568a1.46,1.46,0,0,0,.2.9.854.854,0,0,0,.681.233h.141V17H43.9a1.442,1.442,0,0,1-1.635-1.169H42.2A3.3,3.3,0,0,1,39.367,17.167Zm.352-1.23a2.305,2.305,0,0,0,1.854-.835,3.438,3.438,0,0,0,.7-2.285l-2.285.439a3.076,3.076,0,0,0-1.34.479,1.114,1.114,0,0,0-.435.945,1.1,1.1,0,0,0,.417.949A1.785,1.785,0,0,0,39.719,15.937Zm8.569-6.056a2.612,2.612,0,0,1,1.072-1.16,3.229,3.229,0,0,1,1.661-.457V9.7a2.846,2.846,0,0,0-2.008.642,2.68,2.68,0,0,0-.69,2.048V17H46.8V8.36h1.485Zm6,0a2.612,2.612,0,0,1,1.072-1.16,3.229,3.229,0,0,1,1.661-.457V9.7a2.846,2.846,0,0,0-2.008.642,2.68,2.68,0,0,0-.69,2.048V17H52.806V8.36h1.485Zm8.051,7.286a4.554,4.554,0,0,1-2.215-.536,3.9,3.9,0,0,1-1.56-1.569,4.819,4.819,0,0,1-.576-2.386,4.4,4.4,0,0,1,1.226-3.256,4.6,4.6,0,0,1,6.253,0,4.41,4.41,0,0,1,1.222,3.256,4.413,4.413,0,0,1-1.226,3.265A4.232,4.232,0,0,1,62.342,17.167ZM62.333,15.9a2.654,2.654,0,0,0,2.043-.888,3.326,3.326,0,0,0,.813-2.338,3.314,3.314,0,0,0-.813-2.329,2.654,2.654,0,0,0-2.043-.888,2.617,2.617,0,0,0-2.026.888,3.336,3.336,0,0,0-.8,2.329,3.348,3.348,0,0,0,.8,2.338A2.617,2.617,0,0,0,62.333,15.9ZM69.074,17V3.5h1.538V17Zm4.632,0V3.5h1.538V17Zm8.271.167a4.554,4.554,0,0,1-2.215-.536,3.9,3.9,0,0,1-1.56-1.569,4.819,4.819,0,0,1-.576-2.386,4.4,4.4,0,0,1,1.226-3.256,4.6,4.6,0,0,1,6.253,0,4.41,4.41,0,0,1,1.222,3.256A4.413,4.413,0,0,1,85.1,15.941,4.232,4.232,0,0,1,81.977,17.167ZM81.968,15.9a2.654,2.654,0,0,0,2.043-.888,3.326,3.326,0,0,0,.813-2.338,3.314,3.314,0,0,0-.813-2.329,2.654,2.654,0,0,0-2.043-.888,2.617,2.617,0,0,0-2.026.888,3.336,3.336,0,0,0-.8,2.329,3.348,3.348,0,0,0,.8,2.338A2.617,2.617,0,0,0,81.968,15.9ZM97.516,8.193a2.886,2.886,0,0,1,2.136.8,3.1,3.1,0,0,1,.8,2.294V17H98.931V11.577A2.125,2.125,0,0,0,98.4,9.986a1.878,1.878,0,0,0-1.362-.51,2.091,2.091,0,0,0-1.525.589,2.394,2.394,0,0,0-.611,1.767V17H93.385V3.5h1.521v6a2.81,2.81,0,0,1,1.085-.967A3.31,3.31,0,0,1,97.516,8.193Zm11.241.167h1.521V17h-1.459l-.035-1.143a2.7,2.7,0,0,1-1.072.971,3.3,3.3,0,0,1-1.512.338,3.005,3.005,0,0,1-2.175-.782,2.918,2.918,0,0,1-.813-2.206V8.36h1.521v5.476a2.05,2.05,0,0,0,.532,1.547,1.882,1.882,0,0,0,1.358.51,2.067,2.067,0,0,0,1.534-.6,2.434,2.434,0,0,0,.6-1.767ZM122.2,8.193a2.785,2.785,0,0,1,2.013.734,2.722,2.722,0,0,1,.765,2.061V17h-1.521V11.384a1.952,1.952,0,0,0-.475-1.424,1.616,1.616,0,0,0-1.2-.483,1.706,1.706,0,0,0-1.318.545,2.343,2.343,0,0,0-.5,1.635V17h-1.547V11.445a2.042,2.042,0,0,0-.479-1.472,1.629,1.629,0,0,0-1.226-.5,1.69,1.69,0,0,0-1.314.558,2.424,2.424,0,0,0-.505,1.674V17h-1.521V8.36h1.521V9.477a2.625,2.625,0,0,1,.989-.949,2.82,2.82,0,0,1,1.375-.334,2.935,2.935,0,0,1,1.477.365,2.271,2.271,0,0,1,.958,1.05,2.689,2.689,0,0,1,1.037-1.05A2.966,2.966,0,0,1,122.2,8.193Zm7.717,8.974a2.94,2.94,0,0,1-1.894-.593,2.13,2.13,0,0,1-.743-1.771,2.517,2.517,0,0,1,.237-1.129,1.991,1.991,0,0,1,.7-.787,4.218,4.218,0,0,1,1.015-.488,9.384,9.384,0,0,1,1.314-.312l1.4-.229q.765-.141.765-.8a1.51,1.51,0,0,0-.541-1.288,2.2,2.2,0,0,0-1.367-.409,2.243,2.243,0,0,0-1.354.4,1.655,1.655,0,0,0-.642,1.213l-1.371-.29a2.639,2.639,0,0,1,1.081-1.85,4.039,4.039,0,0,1,2.355-.62,4.777,4.777,0,0,1,1.252.154,3.4,3.4,0,0,1,1.046.483,2.168,2.168,0,0,1,.747.932,3.466,3.466,0,0,1,.268,1.419v3.568a1.46,1.46,0,0,0,.2.9.854.854,0,0,0,.681.233h.141V17h-.756a1.442,1.442,0,0,1-1.635-1.169h-.07A3.3,3.3,0,0,1,129.921,17.167Zm.352-1.23a2.305,2.305,0,0,0,1.854-.835,3.438,3.438,0,0,0,.7-2.285l-2.285.439a3.076,3.076,0,0,0-1.34.479,1.114,1.114,0,0,0-.435.945,1.1,1.1,0,0,0,.417.949A1.785,1.785,0,0,0,130.272,15.937Zm11.162-7.743a3.005,3.005,0,0,1,2.175.782,2.918,2.918,0,0,1,.813,2.206V17H142.9V11.524a2.043,2.043,0,0,0-.527-1.547,1.885,1.885,0,0,0-1.354-.5,2.09,2.09,0,0,0-1.538.593,2.407,2.407,0,0,0-.606,1.762V17h-1.521V8.36h1.521V9.468A2.885,2.885,0,0,1,141.435,8.193ZM151,17.167a4.554,4.554,0,0,1-2.215-.536,3.9,3.9,0,0,1-1.56-1.569,4.819,4.819,0,0,1-.576-2.386,4.4,4.4,0,0,1,1.226-3.256,4.6,4.6,0,0,1,6.253,0,4.41,4.41,0,0,1,1.222,3.256,4.413,4.413,0,0,1-1.226,3.265A4.232,4.232,0,0,1,151,17.167Zm-.009-1.266a2.654,2.654,0,0,0,2.043-.888,3.326,3.326,0,0,0,.813-2.338,3.314,3.314,0,0,0-.813-2.329,2.654,2.654,0,0,0-2.043-.888,2.617,2.617,0,0,0-2.026.888,3.336,3.336,0,0,0-.8,2.329,3.348,3.348,0,0,0,.8,2.338A2.617,2.617,0,0,0,150.988,15.9Z" transform="translate(-1744 -5358.673)" fill="#00223d"/>
    <g id="Grupo_15976" data-name="Grupo 15976" transform="translate(-1933.071 -6143.502)">
      <path id="Trazado_9074" data-name="Trazado 9074" d="M262.431,751.8a11.924,11.924,0,0,0-5.821-3.332l-8.253-1.978,0,.005,0-.005v-5.038H238.28v5.054h0l-8.231,1.967A11.956,11.956,0,0,0,220.87,760.1v13.483h18.245Z" transform="translate(-0.793 -15.565)" fill="#78d2fa"/>
      <path id="Trazado_9075" data-name="Trazado 9075" d="M255.39,741.453v5.174l-5.23,12.527-5.224-12.509v-5.192Z" transform="translate(-7.61 -15.565)" fill="#ffb487"/>
      <path id="Trazado_9076" data-name="Trazado 9076" d="M258.993,717.236v6.978a11.232,11.232,0,0,1-11.233,11.232h0a11.233,11.233,0,0,1-11.233-11.232v-6.978Z" transform="translate(-5.228 -8.706)" fill="#ffcdac"/>
      <path id="Trazado_9077" data-name="Trazado 9077" d="M258.993,714.808v-2.7a11.232,11.232,0,0,0-11.233-11.232h0A11.233,11.233,0,0,0,236.527,712.1v2.7h7.743A26.783,26.783,0,0,0,258.036,711h0" transform="translate(-5.228 -4.07)" fill="#878791"/>
      <path id="Trazado_9078" data-name="Trazado 9078" d="M300.567,751.8a11.923,11.923,0,0,1,5.822-3.332l8.252-1.978,0,.005,0-.005v-5.038h10.077v5.054h0l8.231,1.967a11.956,11.956,0,0,1,9.179,11.629v13.483H323.883Z" transform="translate(-23.368 -15.565)" fill="#e9f857"/>
      <path id="Trazado_9079" data-name="Trazado 9079" d="M270.313,755.615l-11.494,2.754a16.655,16.655,0,0,0-12.774,16.2v11.056H308.6V774.575a16.654,16.654,0,0,0-12.785-16.2l-11.464-2.739Z" transform="translate(-7.924 -19.577)" fill="#ff5a5a"/>
      <g id="Grupo_15825" data-name="Grupo 15825" transform="translate(261.932 725.888)">
        <path id="Trazado_9080" data-name="Trazado 9080" d="M330.355,741.453v5.192l-5.224,12.509-5.23-12.527v-5.174Z" transform="translate(-290.776 -741.453)" fill="#ffb487"/>
        <path id="Trazado_9081" data-name="Trazado 9081" d="M286.754,769.484l7.484-16.99a6.176,6.176,0,0,1-.872-3.167v-1.633H280.135v1.633a6.175,6.175,0,0,1-.869,3.163Z" transform="translate(-279.266 -743.22)" fill="#ffb487"/>
      </g>
      <path id="Trazado_9082" data-name="Trazado 9082" d="M299.174,710.594v10.795a15.645,15.645,0,0,1-15.645,15.645h0a15.645,15.645,0,0,1-15.645-15.645V710.594Z" transform="translate(-14.11 -6.824)" fill="#ffcdac"/>
      <path id="Trazado_9083" data-name="Trazado 9083" d="M283.529,689.3h0a15.645,15.645,0,0,0-15.646,15.645v3.766h7.65a17.189,17.189,0,0,0,13.174-6.148h0l10.466,6.148v-3.766A15.644,15.644,0,0,0,283.529,689.3Z" transform="translate(-14.11 -0.793)" fill="#f9a825"/>
      <path id="Trazado_9084" data-name="Trazado 9084" d="M311.552,717.236v6.978a11.233,11.233,0,0,0,11.233,11.232h0a11.233,11.233,0,0,0,11.233-11.232v-6.978Z" transform="translate(-26.479 -8.706)" fill="#ffcdac"/>
      <path id="Trazado_9085" data-name="Trazado 9085" d="M311.552,714.808v-2.7a11.233,11.233,0,0,1,11.233-11.232h0A11.233,11.233,0,0,1,334.018,712.1v2.7h-7.743A26.783,26.783,0,0,1,312.509,711h0" transform="translate(-26.479 -4.07)" fill="#878791"/>
      <path id="Trazado_9086" data-name="Trazado 9086" d="M288.846,794.68a2.007,2.007,0,1,0,1.418.588A2.024,2.024,0,0,0,288.846,794.68Z" transform="translate(-19.479 -30.642)" fill="#00223d"/>
      <path id="Trazado_9087" data-name="Trazado 9087" d="M310.048,730.957l-6.691-1.6V726.7a13.239,13.239,0,0,0,6.188-11.2v-7.475a13.231,13.231,0,0,0-23.144-8.77A17.682,17.682,0,0,0,269.44,686.5h0a17.683,17.683,0,0,0-16.972,12.8,13.23,13.23,0,0,0-23.174,8.735v7.475a13.239,13.239,0,0,0,6.188,11.2v2.654l-6.691,1.6a13.917,13.917,0,0,0-10.72,13.58v13.483a2.006,2.006,0,0,0,2.006,2.005h16.039v6.018a2.006,2.006,0,0,0,2.005,2.005h22a2.006,2.006,0,0,0,0-4.012h-8.955V755.21a2.005,2.005,0,1,0-4.011,0v8.827h-7.033v-9.05a14.6,14.6,0,0,1,11.235-14.245l9.865-2.364,6.347,14.44a2,2,0,0,0,1.836,1.2h0a2.006,2.006,0,0,0,1.836-1.2l6.341-14.42,9.837,2.35A14.6,14.6,0,0,1,298.669,755v2.238a2.013,2.013,0,0,0,0,1.569v5.233h-6.991V755.21a2.006,2.006,0,1,0-4.012,0v8.827h-9.824a2.006,2.006,0,0,0,0,4.012h22.833a2.006,2.006,0,0,0,2.005-2.005v-6.018H318.76a2.006,2.006,0,0,0,2.006-2.005V744.537A13.917,13.917,0,0,0,310.048,730.957Zm-10.7.092-3.063,7.333-3.021-7.236a1.883,1.883,0,0,0,.014-.219c0-.019,0-.037,0-.056v-2.478a13.139,13.139,0,0,0,6.066,0v2.551C299.345,730.978,299.347,731.014,299.35,731.05Zm-38.966,1.611a13.943,13.943,0,0,0-4.1-1.709l-6.714-1.608v-2.63a13.336,13.336,0,0,0,4.146-4.133,17.784,17.784,0,0,0,6.668,7.13Zm-4.584-18.1v-4.639h5.644a19.142,19.142,0,0,0,13.556-5.6l8.068,4.739v5.975a13.638,13.638,0,0,1-27.268-.471Zm22.632,15.183a17.775,17.775,0,0,0,6.714-7.132,13.342,13.342,0,0,0,4.123,4.1v2.63l-6.714,1.608a13.931,13.931,0,0,0-4.122,1.724v-2.929Zm17.874-5.012a9.237,9.237,0,0,1-9.227-9.227v-.327c.006-.2.011-5.393.011-5.393a28.793,28.793,0,0,0,12.7,2.956h5.738v2.765A9.238,9.238,0,0,1,296.306,724.735Zm0-25.928a9.237,9.237,0,0,1,9.227,9.227v.7H299.8a24.784,24.784,0,0,1-12.345-3.294A9.245,9.245,0,0,1,296.306,698.807ZM255.8,704.153a13.64,13.64,0,0,1,27.279,0v.262l-7.444-4.374a2,2,0,0,0-2.553.441,15.148,15.148,0,0,1-11.638,5.432H255.8Zm-22.494,3.88a9.227,9.227,0,0,1,18.082-2.6,24.783,24.783,0,0,1-12.345,3.295h-5.737v-.7Zm0,4.71h5.737a28.794,28.794,0,0,0,12.717-2.961v5.726a9.227,9.227,0,0,1-18.454,0Zm9.227,16a13.219,13.219,0,0,0,3.027-.353v2.421c0,.038,0,.075,0,.113a1.837,1.837,0,0,0,.012.188l-3.035,7.266-3.046-7.3c0-.048.006-.1.006-.145v-2.551A13.2,13.2,0,0,0,242.532,728.747Zm-6.416,26.241v1.026h-6.01V747.1a2.006,2.006,0,0,0-4.012,0v8.911h-4.012V744.537a9.919,9.919,0,0,1,7.64-9.679l6.357-1.519,4.15,9.94A18.62,18.62,0,0,0,236.116,754.988Zm14.312-18.146a18.827,18.827,0,0,0-3.391,1.166l1.954-4.678,6.359,1.524a9.918,9.918,0,0,1,1.439.464Zm18.984,10.187-5.016-11.412V731.48a17.667,17.667,0,0,0,10.025.019v4.141Zm12.6-11.7a9.933,9.933,0,0,1,1.476-.479l6.343-1.52,1.962,4.7a18.881,18.881,0,0,0-3.437-1.184Zm34.742,20.682h-4.012V747.1a2.006,2.006,0,0,0-4.012,0v8.911h-6.051V755a18.621,18.621,0,0,0-4.1-11.7l4.162-9.967,6.373,1.522a9.919,9.919,0,0,1,7.64,9.679Z" fill="#00223d"/>
    </g>
  </g>
</svg>
