<svg xmlns="http://www.w3.org/2000/svg" width="107.795" height="165" viewBox="0 0 107.795 165">
  <g id="Grupo_16308" data-name="Grupo 16308" transform="translate(-269.683 -7690)">
    <circle id="Elipse_877" data-name="Elipse 877" cx="53.897" cy="53.897" r="53.897" transform="translate(269.683 7736.019)" fill="#f6ff9b"/>
    <g id="Fill_out_line" data-name="Fill out line" transform="translate(279.456 7690)">
      <path id="Trazado_24804" data-name="Trazado 24804" d="M1142.794-382.1h-42.653v-10.3h38.241Z" transform="translate(-1064.842 401.224)" fill="#ab693d"/>
      <path id="Trazado_24805" data-name="Trazado 24805" d="M1100.141-375.266h42.653v14.708h-42.653Z" transform="translate(-1064.842 394.386)" fill="#8c5428"/>
      <path id="Trazado_24806" data-name="Trazado 24806" d="M1138.382-397.283h-38.241v-7.354h25Z" transform="translate(-1064.842 406.108)" fill="#da9065"/>
      <path id="Trazado_24807" data-name="Trazado 24807" d="M1106.068-386.988l-4.412-10.3-13.237-7.354-13.237,7.354-4.412,10.3v14.708h35.3Z" transform="translate(-1053.119 406.108)" fill="#e04446"/>
      <path id="Trazado_24808" data-name="Trazado 24808" d="M1083.008-387.5h2.941v2.941h-2.941Z" transform="translate(-1058.004 399.27)" fill="#68737f"/>
      <path id="Trazado_24809" data-name="Trazado 24809" d="M1112.38-387.5h2.941v2.941h-2.941Z" transform="translate(-1069.726 399.27)" fill="#68737f"/>
      <path id="Trazado_24810" data-name="Trazado 24810" d="M1090.351-370.37h5.883V-358.6h-5.883Z" transform="translate(-1060.934 392.432)" fill="#da9065"/>
      <path id="Trazado_24811" data-name="Trazado 24811" d="M1097.694-397.294h2.942v2.941h-2.942Z" transform="translate(-1063.865 403.177)" fill="#68737f"/>
      <path id="Trazado_24812" data-name="Trazado 24812" d="M1154.517-375.266l8.825,5.883h-25l-8.825-5.883Z" transform="translate(-1076.564 394.386)" fill="#da9065"/>
      <path id="Trazado_24813" data-name="Trazado 24813" d="M1171.123-365.475h8.825v8.825h-8.825Z" transform="translate(-1093.17 390.479)" fill="#9f764a"/>
      <path id="Trazado_24814" data-name="Trazado 24814" d="M1129.513-375.266l8.825,5.883v8.825h-8.825Z" transform="translate(-1076.564 394.386)" fill="#ba8b5d"/>
      <path id="Trazado_24815" data-name="Trazado 24815" d="M1060.024-364.981h-4.412v-2.942h-2.942v2.942h-4.412v-2.942h-2.941v2.942h-1.471v2.941h1.471v4.412h2.941v-4.412h4.412v4.412h2.942v-4.412h4.412Z" transform="translate(-1042.374 391.456)" fill="#da9065"/>
      <path id="Trazado_24816" data-name="Trazado 24816" d="M1043.845-350.789h85.306v52.949h-85.306Z" transform="translate(-1042.374 384.617)" fill="#cddc39"/>
      <g id="Grupo_16269" data-name="Grupo 16269" transform="translate(1.471 50.007)">
        <path id="Trazado_24817" data-name="Trazado 24817" d="M1043.845-323.865h85.306v2.942h-85.306Z" transform="translate(-1043.845 323.865)" fill="#b5bc2e"/>
        <path id="Trazado_24818" data-name="Trazado 24818" d="M1043.845-309.179h85.306v2.942h-85.306Z" transform="translate(-1043.845 318.004)" fill="#b5bc2e"/>
        <path id="Trazado_24819" data-name="Trazado 24819" d="M1043.845-294.493h85.306v2.942h-85.306Z" transform="translate(-1043.845 312.143)" fill="#b5bc2e"/>
      </g>
      <path id="Trazado_24820" data-name="Trazado 24820" d="M1075.665-323.865h5.883l2.942,14.708h-8.825Z" transform="translate(-1055.073 373.872)" fill="#68737f"/>
      <path id="Trazado_24821" data-name="Trazado 24821" d="M1100.4-320.064l2.631,1.315" transform="translate(-1064.945 372.355)" fill="#4f5761"/>
      <path id="Trazado_24822" data-name="Trazado 24822" d="M1098.135-308.958l-2.631-1.315" transform="translate(-1062.991 368.448)" fill="#4f5761"/>
      <path id="Trazado_24823" data-name="Trazado 24823" d="M1085.96-297.9l-2.941-11.766-7.354-4.412V-297.9Z" transform="translate(-1055.073 369.964)" fill="#ce2337"/>
      <path id="Trazado_24824" data-name="Trazado 24824" d="M1108.012-310.156v13.237h-25v-7.354h14.708v-7.354Z" transform="translate(-1058.004 368.988)" fill="#e04446"/>
      <circle id="Elipse_868" data-name="Elipse 868" cx="8.825" cy="8.825" r="8.825" transform="translate(8.825 60.303)" fill="#68737f"/>
      <path id="Trazado_24825" data-name="Trazado 24825" d="M1063.931-288.588a10.3,10.3,0,0,1-10.3-10.3,10.3,10.3,0,0,1,10.3-10.3,10.3,10.3,0,0,1,10.3,10.3A10.307,10.307,0,0,1,1063.931-288.588Zm0-17.649a7.354,7.354,0,0,0-7.354,7.354,7.354,7.354,0,0,0,7.354,7.354,7.354,7.354,0,0,0,7.354-7.354A7.362,7.362,0,0,0,1063.931-306.237Z" transform="translate(-1046.281 368.011)" fill="#4f5761"/>
      <circle id="Elipse_869" data-name="Elipse 869" cx="2.942" cy="2.942" r="2.942" transform="translate(14.708 66.186)" fill="#d4e4f0"/>
      <path id="Trazado_24826" data-name="Trazado 24826" d="M1081.384-296.913l-2.774-.981a11.776,11.776,0,0,0-7.193-15.02,11.774,11.774,0,0,0-7.826,0l-.98-2.773a14.717,14.717,0,0,1,18.773,8.987,14.725,14.725,0,0,1,0,9.786Z" transform="translate(-1049.863 370.944)" fill="#d6323f"/>
      <circle id="Elipse_870" data-name="Elipse 870" cx="5.883" cy="5.883" r="5.883" transform="translate(42.654 66.186)" fill="#68737f"/>
      <path id="Trazado_24827" data-name="Trazado 24827" d="M1117.286-284.68a7.354,7.354,0,0,1-7.354-7.354,7.354,7.354,0,0,1,7.354-7.354,7.354,7.354,0,0,1,7.354,7.354A7.362,7.362,0,0,1,1117.286-284.68Zm0-11.766a4.413,4.413,0,0,0-4.412,4.412,4.412,4.412,0,0,0,4.412,4.412,4.412,4.412,0,0,0,4.412-4.412A4.417,4.417,0,0,0,1117.286-296.447Z" transform="translate(-1068.749 364.103)" fill="#4f5761"/>
      <path id="Trazado_24828" data-name="Trazado 24828" d="M1128.99-383.3l-8.461-5.641-4.241-9.894a1.47,1.47,0,0,0-.638-.707l-13.237-7.354a1.472,1.472,0,0,0-.714-.185h-25a1.461,1.461,0,0,0-.714.186h0l-13.237,7.354a1.474,1.474,0,0,0-.638.707l-4.412,10.3a1.48,1.48,0,0,0-.118.579v7.354h-2.942v-2.942h-2.941v2.942h-4.412v-2.942h-2.941v2.942H1041.4v2.941h2.942v2.941H1041.4v2.942h86.777a1.471,1.471,0,0,0,1.471-1.471v-8.825A1.469,1.469,0,0,0,1128.99-383.3Zm-33.173-1.911,5.883,3.922v6.567h-5.883Zm8.825,4.606h13.237v5.883h-13.237Zm-1.026-2.942-4.412-2.941h19.7l4.412,2.941Zm13.5-5.883h-21.8l-3.152-7.354h21.8Zm-15.8-14.708,7.943,4.412h-18.947l-7.942-4.412Zm-36.706,6.925,12.083-6.713,12.083,6.713,4.1,9.556v12.935h-8.825v-10.3a1.471,1.471,0,0,0-1.471-1.471h-11.766a1.471,1.471,0,0,0-1.471,1.471v10.3h-8.825v-12.935Zm13.554,13.666h2.941v8.825h-2.941Zm-2.941,8.825h-2.942v-8.825h2.942Zm-17.65-2.941v2.941h-2.942v-2.941Zm-10.3,0h4.412v2.941h-4.412Zm73.54,2.941v-5.883h5.883v5.883Z" transform="translate(-1041.397 407.085)" fill="#00223d"/>
      <path id="Trazado_24829" data-name="Trazado 24829" d="M1083.008-387.5h2.941v2.941h-2.941Z" transform="translate(-1058.004 399.27)"/>
      <path id="Trazado_24830" data-name="Trazado 24830" d="M1112.38-387.5h2.941v2.941h-2.941Z" transform="translate(-1069.726 399.27)"/>
      <path id="Trazado_24831" data-name="Trazado 24831" d="M1097.694-397.294h2.942v2.941h-2.942Z" transform="translate(-1063.865 403.177)"/>
      <path id="Trazado_24832" data-name="Trazado 24832" d="M1067.839-299.388a4.412,4.412,0,0,0-4.413,4.412,4.413,4.413,0,0,0,4.413,4.412,4.412,4.412,0,0,0,4.412-4.412A4.417,4.417,0,0,0,1067.839-299.388Zm0,5.883a1.471,1.471,0,0,1-1.47-1.471,1.471,1.471,0,0,1,1.47-1.471,1.471,1.471,0,0,1,1.471,1.471A1.473,1.473,0,0,1,1067.839-293.5Z" transform="translate(-1050.189 364.103)" fill="#00223d"/>
      <circle id="Elipse_871" data-name="Elipse 871" cx="1.471" cy="1.471" r="1.471" transform="translate(47.066 70.598)" fill="#00223d"/>
      <path id="Trazado_24833" data-name="Trazado 24833" d="M1097.288-302.779a7.364,7.364,0,0,0-4.412-6.738v-6.5a1.472,1.472,0,0,0-1.263-1.456l-1.679-.24V-321.9h-2.942v3.767l-5.675-.811a1.467,1.467,0,0,0-1.172.345,1.292,1.292,0,0,0-.105.1l-1.448-.965.89-1.78-2.631-1.315-2.942,5.883,2.631,1.315.726-1.452,2.371,1.581v3.625h-7.113a14.742,14.742,0,0,0-.828-1.614l-2.383-11.912a1.47,1.47,0,0,0-1.442-1.182h-5.883a1.471,1.471,0,0,0-1.471,1.47v4.487c-.489-.049-.98-.075-1.471-.075a14.66,14.66,0,0,0-4.9.838l.983,2.773a11.7,11.7,0,0,1,3.921-.669,11.732,11.732,0,0,1,10.006,5.572,11.661,11.661,0,0,1,1.091,2.27h0v0a11.827,11.827,0,0,1,.377,6.536,1.471,1.471,0,0,0,1.108,1.761,1.489,1.489,0,0,0,.326.037h10.772a7.321,7.321,0,0,0,1.327,2.941h-17.812a10.3,10.3,0,0,0,.168-14.559,10.3,10.3,0,0,0-14.559-.168,10.3,10.3,0,0,0-.168,14.559c.055.057.111.112.168.168H1041.4v2.941h88.248v-2.941h-33.833A7.319,7.319,0,0,0,1097.288-302.779Zm-45.6-2.941a7.354,7.354,0,0,1,7.354-7.354,7.354,7.354,0,0,1,7.354,7.354,7.354,7.354,0,0,1-7.354,7.354A7.363,7.363,0,0,1,1051.693-305.721Zm11.766-14.029v-3.62h3.207l1.175,5.873A14.781,14.781,0,0,0,1063.459-319.75Zm10,11.088h7.648a1.471,1.471,0,0,0,1.471-1.471v-5.658l7.354,1.05v4.608a7.367,7.367,0,0,0-7.206,5.883h-9.046c.049-.488.073-.979.073-1.471A14.773,14.773,0,0,0,1073.461-308.662Zm12.06,5.883a4.413,4.413,0,0,1,4.412-4.412,4.412,4.412,0,0,1,4.412,4.412,4.412,4.412,0,0,1-4.412,4.412A4.417,4.417,0,0,1,1085.521-302.779Z" transform="translate(-1041.397 374.849)" fill="#00223d"/>
      <path id="Trazado_24834" data-name="Trazado 24834" d="M1041.4-265.121h88.248v2.941H1041.4Z" transform="translate(-1041.397 350.427)" fill="#00223d"/>
      <path id="Trazado_24835" data-name="Trazado 24835" d="M1041.4-338.551h88.248v2.942H1041.4Z" transform="translate(-1041.397 379.733)" fill="#00223d"/>
      <path id="Trazado_24836" data-name="Trazado 24836" d="M1127.066-323.865h36.77v2.942h-36.77Z" transform="translate(-1075.587 373.872)" fill="#00223d"/>
      <path id="Trazado_24837" data-name="Trazado 24837" d="M1041.4-323.865h16.179v2.942H1041.4Z" transform="translate(-1041.397 373.872)" fill="#00223d"/>
      <path id="Trazado_24838" data-name="Trazado 24838" d="M1131.961-309.179h33.828v2.942h-33.828Z" transform="translate(-1077.541 368.011)" fill="#00223d"/>
      <path id="Trazado_24839" data-name="Trazado 24839" d="M1041.4-309.179h7.354v2.942H1041.4Z" transform="translate(-1041.397 368.011)" fill="#00223d"/>
      <path id="Trazado_24840" data-name="Trazado 24840" d="M1139.3-294.493h29.416v2.942H1139.3Z" transform="translate(-1080.471 362.15)" fill="#00223d"/>
      <path id="Trazado_24841" data-name="Trazado 24841" d="M1041.4-294.493h4.412v2.942H1041.4Z" transform="translate(-1041.397 362.15)" fill="#00223d"/>
    </g>
    <g id="Grupo_16307" data-name="Grupo 16307" transform="translate(290.953 7770.986)">
      <g id="Grupo_16306" data-name="Grupo 16306">
        <g id="Grupo_16271" data-name="Grupo 16271" transform="translate(22.039 21.387)">
          <g id="Grupo_16270" data-name="Grupo 16270" transform="translate(0 0)">
            <ellipse id="Elipse_872" data-name="Elipse 872" cx="15.193" cy="12.435" rx="15.193" ry="12.435" transform="translate(0 27.406) rotate(-64.409)" fill="#f2bb88"/>
          </g>
        </g>
        <g id="Grupo_16273" data-name="Grupo 16273" transform="translate(7.666 21.406)">
          <g id="Grupo_16272" data-name="Grupo 16272" transform="translate(0 0)">
            <ellipse id="Elipse_873" data-name="Elipse 873" cx="12.435" cy="15.193" rx="12.435" ry="15.193" transform="translate(0 10.742) rotate(-25.591)" fill="#f2bb88"/>
          </g>
        </g>
        <g id="Grupo_16275" data-name="Grupo 16275" transform="translate(39.217 50.53)">
          <g id="Grupo_16274" data-name="Grupo 16274">
            <circle id="Elipse_874" data-name="Elipse 874" cx="8.668" cy="8.668" r="8.668" fill="#f2bb88"/>
          </g>
        </g>
        <g id="Grupo_16277" data-name="Grupo 16277" transform="translate(44.481 25.388)">
          <g id="Grupo_16276" data-name="Grupo 16276">
            <circle id="Elipse_875" data-name="Elipse 875" cx="4.677" cy="4.677" r="4.677" fill="#ffcdbe"/>
          </g>
        </g>
        <g id="Grupo_16279" data-name="Grupo 16279" transform="translate(1.231 43.867)">
          <g id="Grupo_16278" data-name="Grupo 16278">
            <path id="Trazado_24842" data-name="Trazado 24842" d="M959.419-237.928a8.241,8.241,0,0,0-4.55-4.418l-14.393-5.675a2.061,2.061,0,0,1-1.3-1.917V-259.5H923.4v9.562a2.061,2.061,0,0,1-1.3,1.917l-14.393,5.675a8.24,8.24,0,0,0-4.55,4.418,40.321,40.321,0,0,0-3.264,15.893,1.452,1.452,0,0,0,1.452,1.452h59.89a1.452,1.452,0,0,0,1.452-1.452A40.332,40.332,0,0,0,959.419-237.928Z" transform="translate(-899.891 259.5)" fill="#ffcdbe"/>
          </g>
        </g>
        <g id="Grupo_16281" data-name="Grupo 16281" transform="translate(1.231 53.752)">
          <g id="Grupo_16280" data-name="Grupo 16280">
            <path id="Trazado_24843" data-name="Trazado 24843" d="M959.419-230.927a8.241,8.241,0,0,0-4.55-4.418l-6.328-2.5a.485.485,0,0,1-.6.234,18.245,18.245,0,0,1-3.786-1.909l-.955-.43-2.725-1.074a2.058,2.058,0,0,1-.882-.671c-.129-.071-.259-.142-.386-.215a.5.5,0,0,1-.265-.388l-.781.985a8.777,8.777,0,0,1-13.75,0l-1.036-1.305a2.059,2.059,0,0,1-1.278,1.593l-10.138,4a.484.484,0,0,1-.331.131l-3.924,1.547A8.173,8.173,0,0,0,903.186-231a40.325,40.325,0,0,0-3.295,15.964,1.451,1.451,0,0,0,1.451,1.452h59.89a1.451,1.451,0,0,0,1.451-1.452,40.321,40.321,0,0,0-3.264-15.893Z" transform="translate(-899.891 242.614)" fill="#ddebfd"/>
          </g>
        </g>
        <g id="Grupo_16283" data-name="Grupo 16283" transform="translate(11.609 25.385)">
          <g id="Grupo_16282" data-name="Grupo 16282">
            <circle id="Elipse_876" data-name="Elipse 876" cx="4.677" cy="4.677" r="4.677" fill="#ffcdbe"/>
          </g>
        </g>
        <g id="Grupo_16285" data-name="Grupo 16285" transform="translate(16.629 8.573)">
          <g id="Grupo_16284" data-name="Grupo 16284">
            <path id="Trazado_24844" data-name="Trazado 24844" d="M952.672-317.44a22.863,22.863,0,0,0-7.637-2.156,21.125,21.125,0,0,0-5.675,0,22.865,22.865,0,0,0-7.638,2.156,4,4,0,0,0-1.709,1.955c-2.009,4.914-9.769,26.555,5.1,35.974a13.276,13.276,0,0,0,14.177,0c14.864-9.419,7.105-31.06,5.1-35.974a4,4,0,0,0-1.709-1.955Z" transform="translate(-926.195 319.788)" fill="#ffcdbe"/>
          </g>
        </g>
        <g id="Grupo_16287" data-name="Grupo 16287" transform="translate(30.26 8.575)">
          <g id="Grupo_16286" data-name="Grupo 16286">
            <path id="Trazado_24845" data-name="Trazado 24845" d="M964.034-315.484a4,4,0,0,0-1.709-1.955,22.862,22.862,0,0,0-7.637-2.156,21.126,21.126,0,0,0-5.208-.055c.156.018.311.034.467.055a22.863,22.863,0,0,1,7.637,2.156,4,4,0,0,1,1.709,1.955c2.01,4.914,9.769,26.555-5.1,35.974a13.185,13.185,0,0,1-4.717,1.838,13.266,13.266,0,0,0,9.459-1.838C973.8-288.929,966.044-310.57,964.034-315.484Z" transform="translate(-949.479 319.785)" fill="#ebae9d"/>
          </g>
        </g>
        <g id="Grupo_16289" data-name="Grupo 16289" transform="translate(3.564 20.091)">
          <g id="Grupo_16288" data-name="Grupo 16288">
            <path id="Trazado_24846" data-name="Trazado 24846" d="M959.484-294.82H906.4a2.518,2.518,0,0,1-2.518-2.518v-.256a2.518,2.518,0,0,1,2.518-2.518h53.089A2.519,2.519,0,0,1,962-297.595v.256a2.519,2.519,0,0,1-2.519,2.518Z" transform="translate(-903.877 300.113)" fill="#f8e076"/>
          </g>
        </g>
        <g id="Grupo_16291" data-name="Grupo 16291" transform="translate(15.53 1.231)">
          <g id="Grupo_16290" data-name="Grupo 16290">
            <path id="Trazado_24847" data-name="Trazado 24847" d="M957.683-313.47H925.145a.828.828,0,0,1-.828-.828v-.936a17.1,17.1,0,0,1,17.1-17.1,17.1,17.1,0,0,1,17.1,17.1v.936A.828.828,0,0,1,957.683-313.47Z" transform="translate(-924.317 332.33)" fill="#f7d958"/>
          </g>
        </g>
        <g id="Grupo_16293" data-name="Grupo 16293" transform="translate(35.589 49.951)">
          <g id="Grupo_16292" data-name="Grupo 16292">
            <path id="Trazado_24848" data-name="Trazado 24848" d="M983.752-233.619a8.241,8.241,0,0,0-4.55-4.418l-14.393-5.675a2.06,2.06,0,0,1-1.3-1.917v-3.477h-4.922v5.118a2.06,2.06,0,0,0,1.3,1.917l14.393,5.675a8.242,8.242,0,0,1,4.551,4.418,40.323,40.323,0,0,1,3.261,15.7h3.474a1.451,1.451,0,0,0,1.451-1.451A40.322,40.322,0,0,0,983.752-233.619Z" transform="translate(-958.582 249.106)" fill="#ebae9d"/>
          </g>
        </g>
        <g id="Grupo_16295" data-name="Grupo 16295" transform="translate(37.19 53.752)">
          <g id="Grupo_16294" data-name="Grupo 16294">
            <path id="Trazado_24849" data-name="Trazado 24849" d="M984.885-230.927a8.241,8.241,0,0,0-4.55-4.418l-14.393-5.675a2.062,2.062,0,0,1-1.279-1.594l-1.036,1.305a8.774,8.774,0,0,1-2.311,2.046l14.1,5.558a8.238,8.238,0,0,1,4.55,4.418,40.314,40.314,0,0,1,3.262,15.7H986.7a1.452,1.452,0,0,0,1.452-1.451,40.323,40.323,0,0,0-3.264-15.894Z" transform="translate(-961.317 242.614)" fill="#bed9fd"/>
          </g>
        </g>
        <g id="Grupo_16297" data-name="Grupo 16297" transform="translate(54.248 20.091)">
          <g id="Grupo_16296" data-name="Grupo 16296">
            <path id="Trazado_24850" data-name="Trazado 24850" d="M995.378-300.113h-4.923a2.518,2.518,0,0,1,2.518,2.518v.256a2.518,2.518,0,0,1-2.518,2.518h4.923a2.518,2.518,0,0,0,2.518-2.518v-.256A2.518,2.518,0,0,0,995.378-300.113Z" transform="translate(-990.455 300.113)" fill="#f7d958"/>
          </g>
        </g>
        <g id="Grupo_16299" data-name="Grupo 16299" transform="translate(13.381 55.62)">
          <g id="Grupo_16298" data-name="Grupo 16298">
            <path id="Trazado_24851" data-name="Trazado 24851" d="M958.061-218.953l-1.885-1.992a6.384,6.384,0,0,1-1.746-4.386v-12.26l-4.645-1.832v12.311a3.624,3.624,0,0,1-3.624,3.624h-12.53a3.624,3.624,0,0,1-3.624-3.624v-12.311l-4.646,1.832v12.26a6.381,6.381,0,0,1-1.746,4.385l-1.884,1.993a3.961,3.961,0,0,0-1.084,2.724v3.969h38.5v-3.969a3.965,3.965,0,0,0-1.084-2.724Z" transform="translate(-920.646 239.423)" fill="#80b6fc"/>
          </g>
        </g>
        <g id="Grupo_16301" data-name="Grupo 16301" transform="translate(23.92 77.58)">
          <g id="Grupo_16300" data-name="Grupo 16300">
            <path id="Trazado_24852" data-name="Trazado 24852" d="M956.062-196.708H938.649v-3.431a1.773,1.773,0,0,1,1.773-1.773H954.29a1.772,1.772,0,0,1,1.773,1.773Z" transform="translate(-938.649 201.912)" fill="#5392f9"/>
          </g>
        </g>
        <g id="Grupo_16303" data-name="Grupo 16303" transform="translate(30.165 1.231)">
          <g id="Grupo_16302" data-name="Grupo 16302">
            <path id="Trazado_24853" data-name="Trazado 24853" d="M951.779-332.33a17.33,17.33,0,0,0-2.462.177,17.1,17.1,0,0,1,14.635,16.92v.936a.828.828,0,0,1-.828.828h4.923a.828.828,0,0,0,.828-.828v-.936A17.1,17.1,0,0,0,951.779-332.33Z" transform="translate(-949.317 332.33)" fill="#f3c625"/>
          </g>
        </g>
        <g id="Grupo_16305" data-name="Grupo 16305" transform="translate(51.302 55.905)">
          <g id="Grupo_16304" data-name="Grupo 16304">
            <path id="Trazado_24854" data-name="Trazado 24854" d="M994.071-233.957c-.505,3.435-5.41,6.915-5.41,6.915s-3.7-4.727-3.19-8.18a4.346,4.346,0,0,1,4.933-3.668A4.347,4.347,0,0,1,994.071-233.957Z" transform="translate(-985.422 238.937)" fill="#f2bb88"/>
          </g>
        </g>
        <path id="Trazado_24855" data-name="Trazado 24855" d="M970.42-235.837l4.645,1.832v-3.582l-4.645-1.832Z" transform="translate(-927.901 295.041)" fill="#62a4fb"/>
        <path id="Trazado_24856" data-name="Trazado 24856" d="M959.679-269.479a9.473,9.473,0,0,0-1.264-2.126,6.546,6.546,0,0,0,.542-1.764,5.585,5.585,0,0,0-4.407-6.277c0-.008-.007-.017-.011-.026a9.849,9.849,0,0,0-6.536-5.19,19.721,19.721,0,0,0,1.921-3.2,18.288,18.288,0,0,0,1.383-12.321,5.885,5.885,0,0,0,1.557-3.991,5.869,5.869,0,0,0-1.115-3.447h5.211a3.754,3.754,0,0,0,3.75-3.75v-.256a3.753,3.753,0,0,0-3.75-3.749h-8.217v-.533a18.348,18.348,0,0,0-18.327-18.328A18.348,18.348,0,0,0,912.089-316.1v.533h-8.217a3.754,3.754,0,0,0-3.75,3.75v.256a3.754,3.754,0,0,0,3.75,3.75h5.42a5.893,5.893,0,0,0-1.118,3.447,5.883,5.883,0,0,0,1.4,3.813,18.234,18.234,0,0,0,1.334,12.5,18.253,18.253,0,0,0,8.129,8.511l-12.653,4.99a9.534,9.534,0,0,0-5.23,5.078,41.321,41.321,0,0,0-3.364,16.378,2.686,2.686,0,0,0,2.682,2.682h59.89a2.685,2.685,0,0,0,2.682-2.682,41.327,41.327,0,0,0-3.364-16.378Zm-3.157-4.248c-.279,1.9-2.44,4.078-3.935,5.333-1.071-1.628-2.511-4.33-2.23-6.239a3.1,3.1,0,0,1,1.224-2.047,3.1,3.1,0,0,1,1.853-.616,3.126,3.126,0,0,1,.46.034A3.119,3.119,0,0,1,956.522-273.727Zm-4.745-5.78a5.6,5.6,0,0,0-1.666.851,5.565,5.565,0,0,0-1.554,1.777l-8.409-3.316a7.457,7.457,0,0,1,5.54-2.476A7.4,7.4,0,0,1,951.778-279.507Zm-5.972,20.018,1.885,1.993a2.723,2.723,0,0,1,.748,1.878v2.739h-8.085v-2.2a3.007,3.007,0,0,0-3-3H923.482a3.006,3.006,0,0,0-3,3v2.2H912.4v-2.739a2.72,2.72,0,0,1,.748-1.878l1.884-1.993a7.582,7.582,0,0,0,2.082-5.231v-11.423L919.28-277,919.3-277v10.5a4.861,4.861,0,0,0,4.855,4.855h1.619a1.23,1.23,0,0,0,1.23-1.231,1.23,1.23,0,0,0-1.23-1.231h-1.619a2.4,2.4,0,0,1-2.393-2.394v-11.477a3.336,3.336,0,0,0,.883-.553,9.951,9.951,0,0,0,7.773,3.707,9.951,9.951,0,0,0,7.772-3.707,3.3,3.3,0,0,0,.89.556V-266.5a2.4,2.4,0,0,1-2.394,2.394H930.7a1.23,1.23,0,0,0-1.231,1.231,1.231,1.231,0,0,0,1.231,1.231h5.988a4.86,4.86,0,0,0,4.855-4.855V-277l2.184.861v11.42a7.582,7.582,0,0,0,2.082,5.231Zm-7.914,6.609H922.94v-2.2a.543.543,0,0,1,.542-.542H937.35a.542.542,0,0,1,.542.542Zm-.822-28.189c-.023.025-.046.049-.067.076l-.677.853a7.5,7.5,0,0,1-5.91,2.855,7.507,7.507,0,0,1-5.911-2.855l-.687-.866c-.018-.022-.037-.043-.056-.064v-2.851a14.491,14.491,0,0,0,6.659,1.615,14.505,14.505,0,0,0,6.65-1.61Zm10.636-8.052a17.008,17.008,0,0,1-2.63,3.968c-.012.013-.022.028-.033.042a9.917,9.917,0,0,0-5.511,2.13v-2.5a19.994,19.994,0,0,0,7.686-12.984,5.873,5.873,0,0,0,1.9-.406A16.039,16.039,0,0,1,947.706-289.121Zm-.167-11.855a35.579,35.579,0,0,0-.119-6.806,3.449,3.449,0,0,1,2.983,3.412A3.45,3.45,0,0,1,947.539-300.976ZM914.55-316.1a15.884,15.884,0,0,1,15.866-15.866A15.884,15.884,0,0,1,946.282-316.1v.533H914.55Zm-11.967,4.539v-.256a1.289,1.289,0,0,1,1.288-1.288H956.96a1.289,1.289,0,0,1,1.288,1.288v.256a1.289,1.289,0,0,1-1.288,1.288H925.08a1.23,1.23,0,0,0-1.231,1.231,1.23,1.23,0,0,0,1.231,1.231h19.86a28.768,28.768,0,0,1-.655,11.172,17.052,17.052,0,0,1-7.435,10.024,12.063,12.063,0,0,1-12.859,0,17.042,17.042,0,0,1-7.4-9.9,28.647,28.647,0,0,1-.69-11.293h4.257a1.231,1.231,0,0,0,1.231-1.231,1.23,1.23,0,0,0-1.231-1.231H903.872A1.289,1.289,0,0,1,902.584-311.566Zm8.051,7.2a3.456,3.456,0,0,1,2.751-3.377l.032-.008a35.592,35.592,0,0,0-.121,6.739A3.451,3.451,0,0,1,910.634-304.37Zm2.492,15.25a16.014,16.014,0,0,1-1.4-9.832,5.862,5.862,0,0,0,1.9.472,20.008,20.008,0,0,0,7.678,12.99v4.258a15.441,15.441,0,0,1-8.174-7.887ZM900.25-253.1a38.875,38.875,0,0,1,3.165-15.408,7.053,7.053,0,0,1,3.871-3.758l7.368-2.905v10.452a5.131,5.131,0,0,1-1.41,3.54l-1.885,1.992a5.177,5.177,0,0,0-1.421,3.57v2.739h-9.467A.221.221,0,0,1,900.25-253.1Zm60.111.221H950.9v-2.739a5.174,5.174,0,0,0-1.421-3.569l-1.885-1.993a5.131,5.131,0,0,1-1.408-3.54v-10.45l1.689.666c-.224,3.763,3.092,8.124,3.486,8.629a1.229,1.229,0,0,0,.97.472,1.225,1.225,0,0,0,.711-.227,21.152,21.152,0,0,0,3.946-3.712,7.017,7.017,0,0,1,.43.833,38.877,38.877,0,0,1,3.164,15.408.221.221,0,0,1-.221.221Z" transform="translate(-897.789 334.432)" fill="#00223d"/>
      </g>
      <path id="Trazado_24857" data-name="Trazado 24857" d="M951.079-264.791a1.356,1.356,0,0,1-1.353-1.353H947.02a4.065,4.065,0,0,0,4.059,4.06,4.065,4.065,0,0,0,4.06-4.06h-2.706A1.356,1.356,0,0,1,951.079-264.791Z" transform="translate(-918.199 306.121)" fill="#00223d"/>
    </g>
  </g>
</svg>
