<svg xmlns="http://www.w3.org/2000/svg" width="491.857" height="296.172" viewBox="0 0 491.857 296.172">
  <g id="Grupo_15917" data-name="Grupo 15917" transform="translate(-429.138 -788.956)">
    <g id="Grupo_15836" data-name="Grupo 15836" transform="translate(429.138 832.799)">
      <g id="Grupo_15835" data-name="Grupo 15835">
        <g id="Grupo_15827" data-name="Grupo 15827" transform="translate(0 166.35)">
          <path id="Trazado_9088" data-name="Trazado 9088" d="M597,1009.2c-13.339-6.414-28.47,8.629-43.045,6.079-13.773-2.41-20.137-17.994-29.441-28.457-9.87-11.1-25.609-17.206-40.084-13.957s-26.556,16.6-26.79,31.465c-.127,8.024,2.778,16.725-1.228,23.672-3.424,5.941-10.615,8.252-16.7,11.4s-12.159,9.35-10.21,15.926l189.183.191C616.846,1045.339,617.137,1018.877,597,1009.2Z" transform="translate(-429.138 -971.992)" fill="#b1b727"/>
        </g>
        <g id="Grupo_15828" data-name="Grupo 15828" transform="translate(247.621 142.256)">
          <path id="Trazado_9089" data-name="Trazado 9089" d="M875.37,1037.861c-7.836-4.053-17.1-7.03-21.515-14.684-5.161-8.952-1.418-20.163-1.581-30.5-.3-19.157-15.869-36.357-34.52-40.543s-38.927,3.682-51.645,17.983c-11.988,13.481-20.187,33.56-37.934,36.665-18.779,3.286-38.275-16.1-55.464-7.832-25.94,12.474-25.566,46.567-27.944,59.676l243.759-.245C891.036,1049.907,883.207,1041.913,875.37,1037.861Z" transform="translate(-644.767 -951.011)" fill="#b1b727"/>
        </g>
        <g id="Grupo_15829" data-name="Grupo 15829" transform="translate(167.26 171.228)">
          <circle id="Elipse_641" data-name="Elipse 641" cx="3.305" cy="3.305" r="3.305" transform="translate(0 1.519) rotate(-13.283)" fill="#b1b727"/>
        </g>
        <g id="Grupo_15830" data-name="Grupo 15830" transform="translate(57.91 147.345)">
          <path id="Trazado_9090" data-name="Trazado 9090" d="M482.4,961.109a2.833,2.833,0,1,0-2.833-2.833A2.833,2.833,0,0,0,482.4,961.109Z" transform="translate(-479.566 -955.443)" fill="#b1b727"/>
        </g>
        <g id="Grupo_15831" data-name="Grupo 15831" transform="translate(65.937 126.097)">
          <path id="Trazado_9091" data-name="Trazado 9091" d="M486.556,941.189a4.25,4.25,0,1,0,4.25-4.249A4.25,4.25,0,0,0,486.556,941.189Z" transform="translate(-486.556 -936.94)" fill="#b1b727"/>
        </g>
        <g id="Grupo_15832" data-name="Grupo 15832" transform="translate(417.25 130.346)">
          <path id="Trazado_9092" data-name="Trazado 9092" d="M792.481,941.821a1.181,1.181,0,1,0,1.18-1.181A1.18,1.18,0,0,0,792.481,941.821Z" transform="translate(-792.481 -940.64)" fill="#b1b727"/>
        </g>
        <g id="Grupo_15833" data-name="Grupo 15833" transform="translate(461.637 198.343)">
          <path id="Trazado_9093" data-name="Trazado 9093" d="M838.215,1014.017a7.083,7.083,0,1,0-7.082-7.083A7.082,7.082,0,0,0,838.215,1014.017Z" transform="translate(-831.133 -999.852)" fill="#b1b727"/>
        </g>
        <g id="Grupo_15834" data-name="Grupo 15834" transform="translate(462.109 183.233)">
          <path id="Trazado_9094" data-name="Trazado 9094" d="M834.377,992.36a2.833,2.833,0,1,0-2.833-2.833A2.834,2.834,0,0,0,834.377,992.36Z" transform="translate(-831.544 -986.694)" fill="#b1b727"/>
        </g>
        <path id="Trazado_9095" data-name="Trazado 9095" d="M812.171,888.572c-4.587-.322-8.972,2.41-13.562,2.133-6.639-.4-11.117-6.62-15.782-11.373-10.863-11.069-27.253-14.05-42.682-12.676-27.5,2.451-34.426,32.619-34.426,32.619H821.8A10.761,10.761,0,0,0,812.171,888.572Z" transform="translate(-388.103 -821.317)" fill="#fcfcae" opacity="0.47"/>
        <path id="Trazado_9096" data-name="Trazado 9096" d="M664.945,921.728c-2.587-.181-5.061,1.36-7.65,1.2-3.745-.226-6.271-3.734-8.9-6.416-6.128-6.244-15.374-7.926-24.078-7.15-15.514,1.381-19.42,18.4-19.42,18.4h65.481A6.068,6.068,0,0,0,664.945,921.728Z" transform="translate(-403.062 -814.96)" fill="#fcfcae" opacity="0.47"/>
        <path id="Trazado_9097" data-name="Trazado 9097" d="M588.243,849.362c-4.588-.32-8.972,2.412-13.562,2.134-6.64-.4-11.117-6.622-15.782-11.373-10.865-11.069-27.254-14.05-42.682-12.676-27.5,2.449-34.426,32.618-34.426,32.618H597.869A10.762,10.762,0,0,0,588.243,849.362Z" transform="translate(-469.646 -841.134)" fill="#fcfcae" opacity="0.47"/>
      </g>
    </g>
    <g id="Grupo_15838" data-name="Grupo 15838" transform="translate(435.821 988.074)">
      <g id="Grupo_15837" data-name="Grupo 15837">
        <path id="Trazado_9098" data-name="Trazado 9098" d="M603.139,1047.44a160.637,160.637,0,0,1-25-39.638c-2.988-6.76-5.551-14.1-4.465-21.416a2.55,2.55,0,0,1,.621-1.541c.732-.682,1.907-.353,2.816.062,12.366,5.641,19.22,18.926,24.027,31.664,3.582,9.489,6.561,19.97,3.506,29.643" transform="translate(-414.415 -959.069)" fill="#b8d6cc"/>
        <path id="Trazado_9099" data-name="Trazado 9099" d="M495.687,1055.246c-26.648-16.661-50.1-40.791-58.893-71.014-1.789-6.147-2.905-12.958-.285-18.8a5.254,5.254,0,0,1,2.3-2.756c1.357-.643,2.959-.23,4.383.247,17.816,5.964,32,20.189,41.346,36.523s14.353,34.762,18.5,53.126" transform="translate(-434.958 -962.348)" fill="#91bdad"/>
        <path id="Trazado_9100" data-name="Trazado 9100" d="M500.921,1050.6c-7.962-13.165-5.756-29.853-3.285-45.047.307-1.891.68-3.916,2.03-5.272,1.743-1.752,4.595-1.819,6.959-1.108,6.805,2.046,10.844,8.934,13.711,15.45a142.017,142.017,0,0,1,10.255,34.86" transform="translate(-425.997 -956.948)" fill="#91bdad"/>
      </g>
      <path id="Trazado_9101" data-name="Trazado 9101" d="M786.239,1043.132a66.425,66.425,0,0,1,26.133-54.713,4.84,4.84,0,0,1,2.854-1.25c2.343.053,3.3,3.02,3.465,5.363a53.855,53.855,0,0,1-6.734,29.843c-6.063,10.785-15.689,19.141-25.96,26.015" transform="translate(-382.876 -958.666)" fill="#91bdad"/>
    </g>
    <g id="Grupo_15885" data-name="Grupo 15885" transform="translate(457.086 788.956)">
      <g id="Grupo_15871" data-name="Grupo 15871">
        <g id="Grupo_15839" data-name="Grupo 15839" transform="translate(0 290.48)">
          <path id="Trazado_9102" data-name="Trazado 9102" d="M514.372,1043.689c0,.984-13.632,1.781-30.449,1.781s-30.448-.8-30.448-1.781,13.632-1.782,30.448-1.782S514.372,1042.705,514.372,1043.689Z" transform="translate(-453.475 -1041.907)" fill="#232f33"/>
          <path id="Trazado_9103" data-name="Trazado 9103" d="M575.525,1043.689c0,.984-13.632,1.781-30.448,1.781s-30.449-.8-30.449-1.781,13.632-1.782,30.449-1.782S575.525,1042.705,575.525,1043.689Z" transform="translate(-444.402 -1041.907)" fill="#232f33"/>
        </g>
        <g id="Grupo_15867" data-name="Grupo 15867" transform="translate(26.331 9.197)">
          <g id="Grupo_15856" data-name="Grupo 15856" transform="translate(14.955)">
            <g id="Grupo_15855" data-name="Grupo 15855">
              <g id="Grupo_15854" data-name="Grupo 15854">
                <g id="Grupo_15853" data-name="Grupo 15853">
                  <g id="Grupo_15841" data-name="Grupo 15841" transform="translate(0 112.976)">
                    <g id="Grupo_15840" data-name="Grupo 15840">
                      <path id="Trazado_9104" data-name="Trazado 9104" d="M550.52,900.329,564.443,1050.2H547.2l-17.779-93.8c-1.289-3.911-5.607-3.872-6.99,0l-13.021,92.8-16.574.333s-10.918-89.647,6.3-154.187Z" transform="translate(-489.427 -895.344)" fill="#36687a"/>
                    </g>
                  </g>
                  <g id="Grupo_15843" data-name="Grupo 15843" transform="translate(0.905 219.596)" opacity="0.46" style="mix-blend-mode: multiply;isolation: isolate">
                    <g id="Grupo_15842" data-name="Grupo 15842">
                      <path id="Trazado_9105" data-name="Trazado 9105" d="M490.215,1004.017c1.012,18.757,2.508,31.058,2.508,31.058l16.574-.333,5.887-41.954C506.812,996.423,498.371,999.945,490.215,1004.017Z" transform="translate(-490.215 -987.507)" fill="#36687a"/>
                      <path id="Trazado_9106" data-name="Trazado 9106" d="M534.078,1002.115l6.5,34.305h17.238l-4.481-48.231Q543.768,995.234,534.078,1002.115Z" transform="translate(-483.707 -988.189)" fill="#36687a"/>
                    </g>
                  </g>
                  <g id="Grupo_15844" data-name="Grupo 15844" transform="translate(54.119 44.401)">
                    <path id="Trazado_9107" data-name="Trazado 9107" d="M603.179,903.03c-.13,1.208-11.141.823-11.141.823s-15.45,1.324-25.385,1.548l-20.589,1.789c-4.464-7.436-16.38-71.875-4.154-69.759,19.939,3.453,26.42,46.946,26.42,46.946l22.081,4.74-.006.161c.992-.126,10.389,1.328,10.78,1.213,0,0,18.853,7.451,20.483,10.9s-9.426-2.362-10.876-3.089S603.179,903.03,603.179,903.03Z" transform="translate(-536.554 -835.369)" fill="#f7908d"/>
                    <path id="Trazado_9108" data-name="Trazado 9108" d="M549.528,860.458c-.125,17.741-8.316,37.994-5.734,42.3l14.827-.932C554.178,895.183,552.672,889.148,549.528,860.458Z" transform="translate(-535.554 -831.945)" fill="#d46e6c"/>
                    <path id="Trazado_9109" data-name="Trazado 9109" d="M569.35,883.448s-4.438-40.305-23.11-47.573c-11.565-4.5-9.056,54.2-4.592,61.636Z" transform="translate(-536.353 -835.629)" fill="#faf1e2"/>
                    <path id="Trazado_9110" data-name="Trazado 9110" d="M562.711,885.753,541.4,896.47c-4.464-7.435-.821-50.441,11.118-53.823Z" transform="translate(-536.107 -834.588)" fill="#f1ca79" style="mix-blend-mode: multiply;isolation: isolate"/>
                    <line id="Línea_71" data-name="Línea 71" x1="29.108" y2="12.416" transform="translate(3.601 41.647)" fill="none" stroke="#fff" stroke-miterlimit="10" stroke-width="0.263"/>
                  </g>
                  <g id="Grupo_15845" data-name="Grupo 15845" transform="translate(10.706 37.145)">
                    <path id="Trazado_9111" data-name="Trazado 9111" d="M507.457,848.987c5.13-16.285,22.146-17.522,22.146-17.522l7.684-2.156.1.142,8.982,10.25,4.141-1.853.192-2.005,3.227,1.844c1.441.472,6.555,7.712,7.615,11.781a51.347,51.347,0,0,1,1.284,15.4L550.242,923.2l-51.491-3.1S502.047,866.165,507.457,848.987Z" transform="translate(-498.75 -829.31)" fill="#faf1e2"/>
                  </g>
                  <g id="Grupo_15846" data-name="Grupo 15846" transform="translate(10.706 40.957)" opacity="0.61" style="mix-blend-mode: multiply;isolation: isolate">
                    <path id="Trazado_9112" data-name="Trazado 9112" d="M538.117,915.568a5.029,5.029,0,0,1-.153-1.726c2.081-27.715-1.017-56.824-15.16-81.212a24.511,24.511,0,0,0-15.348,15.865c-5.41,17.177-8.707,71.108-8.707,71.108L537.4,921.93C537.651,919.812,537.881,917.689,538.117,915.568Z" transform="translate(-498.75 -832.63)" fill="#f1ca79"/>
                  </g>
                  <g id="Grupo_15848" data-name="Grupo 15848" transform="translate(6.286 39.759)">
                    <path id="Trazado_9113" data-name="Trazado 9113" d="M528.332,864.815c-1.925,8.579-5.226,17.46-12.085,23.253a25.221,25.221,0,0,1-15.807,5.8,340.148,340.148,0,0,1-5.539,33.809l57.238,5.539,8.951-60.491C550.142,870.232,539.239,867.519,528.332,864.815Z" transform="translate(-494.901 -826.657)" fill="#36687a"/>
                    <path id="Trazado_9114" data-name="Trazado 9114" d="M520.376,915.645c7.863-12.459,5.865-26.709,3.953-40.658a31.952,31.952,0,0,1-8.344,11.572,25.221,25.221,0,0,1-15.807,5.8c-.9,8.629-2.327,17.266-3.506,23.652C504.776,921.527,514.357,925.182,520.376,915.645Z" transform="translate(-494.638 -825.148)" fill="#36687a" opacity="0.46" style="mix-blend-mode: multiply;isolation: isolate"/>
                    <g id="Grupo_15847" data-name="Grupo 15847" transform="translate(30.277)">
                      <path id="Trazado_9115" data-name="Trazado 9115" d="M524.421,871.075s5.022-37.051-3.155-38.159L529,831.587s6.409,14.178,1.769,41.426Z" transform="translate(-521.266 -831.587)" fill="#36687a"/>
                      <path id="Trazado_9116" data-name="Trazado 9116" d="M546.283,875.921c0,2.88,4.862-35.445,2.651-38.547,0,0,4.642,3.545,5.084,5.317,0,0-1.547,23.7-3.315,34.116Z" transform="translate(-517.554 -830.728)" fill="#36687a"/>
                    </g>
                  </g>
                  <g id="Grupo_15851" data-name="Grupo 15851" transform="translate(48.416)">
                    <g id="Grupo_15850" data-name="Grupo 15850">
                      <path id="Trazado_9117" data-name="Trazado 9117" d="M542.7,817.066l1.388-2.014s11.64,2.106,14.546.55,3.033-7.242,3.033-7.242,3.839.075,1.187-1.765-.044-2.8-.044-2.8,2-1.765-1.945-5.172-20.491-.5-20.491-.5c-4.263.815-7.436,22.163-.222,21.693" transform="translate(-530.953 -796.964)" fill="#232f33"/>
                      <path id="Trazado_9118" data-name="Trazado 9118" d="M560.849,807.952s-1.685,15.5-6.253,23.448a3.92,3.92,0,0,1-5.942.985,5.019,5.019,0,0,0-2.2-1.364,53.293,53.293,0,0,0,.225,9l-.011.048a5.555,5.555,0,0,1-10.18,1.549l-4.9-8.243,5.606-15.106s-1.086.1-1.764-1.609a6.627,6.627,0,0,1,.613-5.235c1.108-1.805,4.8-.937,5.161.939.114.6.641,1.3,1.5.607.733-.594,3.117-8.667,5.488-7.975,5.13,1.494,8.027,2.429,10.542,2.8A7.914,7.914,0,0,0,560.849,807.952Z" transform="translate(-531.588 -795.778)" fill="#ff9ea0"/>
                      <path id="Trazado_9119" data-name="Trazado 9119" d="M538.669,812.38c.04.2-1.7-2.208-2.941.9" transform="translate(-530.974 -794.781)" fill="#d46e6c"/>
                      <path id="Trazado_9120" data-name="Trazado 9120" d="M546.363,828.8l-4.231-4.058,2.821,13.184Z" transform="translate(-530.024 -792.844)" fill="#d46e6c"/>
                      <g id="Grupo_15849" data-name="Grupo 15849" transform="translate(21.288 22.16)">
                        <path id="Trazado_9121" data-name="Trazado 9121" d="M553.709,818.915c-.1.549.036,1.032.3,1.081s.559-.359.658-.908-.036-1.032-.3-1.079S553.808,818.366,553.709,818.915Z" transform="translate(-549.599 -816.002)" fill="#0f1032"/>
                        <path id="Trazado_9122" data-name="Trazado 9122" d="M550.158,817.965c-.1.549.034,1.034.3,1.081s.558-.358.657-.907-.036-1.032-.3-1.081S550.257,817.416,550.158,817.965Z" transform="translate(-550.126 -816.143)" fill="#0f1032"/>
                        <path id="Trazado_9123" data-name="Trazado 9123" d="M553.282,816.261c-.144,1.581-.206,5.8-.206,5.8l-1.538-.369Z" transform="translate(-549.916 -816.261)" fill="#d46e6c"/>
                      </g>
                      <path id="Trazado_9124" data-name="Trazado 9124" d="M548.461,821.429c1.088.318,5.574,1.408,5.574,1.408s-1.587,2.271-2.947,1.772A4.792,4.792,0,0,1,548.461,821.429Z" transform="translate(-529.085 -793.335)" fill="#fff"/>
                      <path id="Trazado_9125" data-name="Trazado 9125" d="M552.077,814.787c.382.09,1.625-.909.274-1.415a4.872,4.872,0,0,0-3.8.727C548.235,814.447,549.974,814.3,552.077,814.787Z" transform="translate(-529.077 -794.553)" fill="#0f1032"/>
                      <path id="Trazado_9126" data-name="Trazado 9126" d="M556.328,815.891c.382.089,1.5-1.1.148-1.6s-2.361.845-2.673,1.192S554.225,815.4,556.328,815.891Z" transform="translate(-528.302 -794.411)" fill="#0f1032"/>
                    </g>
                  </g>
                  <path id="Trazado_9127" data-name="Trazado 9127" d="M607.827,891.021s5.439.183,3.988-1.09-12.508-3.453-12.508-3.453Z" transform="translate(-473.124 -783.684)" fill="#d46e6c"/>
                  <g id="Grupo_15852" data-name="Grupo 15852" transform="translate(103.425 98.065)">
                    <path id="Trazado_9128" data-name="Trazado 9128" d="M583.647,882.36l.394.085-.006.161c.992-.126,10.389,1.328,10.78,1.213,0,0,18.853,7.451,20.483,10.9s-9.426-2.362-10.876-3.089-7.614,4.724-7.614,4.724c-.13,1.208-11.141.823-11.141.823s-2.531.217-6.177.488Q581.829,890.1,583.647,882.36Z" transform="translate(-579.49 -882.36)" fill="#e35c3d"/>
                  </g>
                </g>
              </g>
            </g>
          </g>
          <g id="Grupo_15861" data-name="Grupo 15861" transform="translate(0 237.097)">
            <g id="Grupo_15858" data-name="Grupo 15858">
              <g id="Grupo_15857" data-name="Grupo 15857">
                <path id="Trazado_9129" data-name="Trazado 9129" d="M493.951,1038.769l-3.489-35.18c2.486-.5,27.183.332,27.183.332L514,1051.439l-37.6-.006v-2.444Z" transform="translate(-476.404 -1003.429)" fill="#edb224"/>
              </g>
            </g>
            <g id="Grupo_15860" data-name="Grupo 15860" transform="translate(0 34.186)" opacity="0.49" style="mix-blend-mode: multiply;isolation: isolate">
              <g id="Grupo_15859" data-name="Grupo 15859">
                <path id="Trazado_9130" data-name="Trazado 9130" d="M493.837,1033.2l.114,1.154-17.547,10.22v2.444l37.6.006.028-.365A211.206,211.206,0,0,0,493.837,1033.2Z" transform="translate(-476.404 -1033.198)" fill="#edb224"/>
              </g>
            </g>
            <path id="Trazado_9131" data-name="Trazado 9131" d="M491.749,1035.228l7.678.66a4.07,4.07,0,0,0,4.414-4.061h0a4.073,4.073,0,0,0-3.853-4.071l-8.745-.46" transform="translate(-474.202 -999.888)" fill="none" stroke="#fff" stroke-miterlimit="10" stroke-width="1.322"/>
          </g>
          <g id="Grupo_15866" data-name="Grupo 15866" transform="translate(63.451 236.432)">
            <g id="Grupo_15863" data-name="Grupo 15863">
              <g id="Grupo_15862" data-name="Grupo 15862">
                <path id="Trazado_9132" data-name="Trazado 9132" d="M560.519,1038.855l-1.679-35.845c-2.486-.5-27.183.332-27.183.332l8.814,48.183,37.6-.006v-2.444Z" transform="translate(-531.657 -1002.85)" fill="#edb224"/>
              </g>
            </g>
            <g id="Grupo_15865" data-name="Grupo 15865" transform="translate(0 0.483)" style="mix-blend-mode: multiply;isolation: isolate">
              <g id="Grupo_15864" data-name="Grupo 15864">
                <path id="Trazado_9133" data-name="Trazado 9133" d="M574.068,1044.614v-.347l-15.467-9.009C563.074,1039.78,568.206,1043.153,574.068,1044.614Z" transform="translate(-527.659 -998.525)" fill="#edb224"/>
                <path id="Trazado_9134" data-name="Trazado 9134" d="M531.91,1003.271l-.253.008,8.814,48.183,20.327,0C546.757,1040.281,537.472,1020.316,531.91,1003.271Z" transform="translate(-531.657 -1003.271)" fill="#edb224" opacity="0.49"/>
              </g>
            </g>
            <path id="Trazado_9135" data-name="Trazado 9135" d="M558.472,1034.821,549.2,1035a4.6,4.6,0,0,1-3.84-3.849h0a4.6,4.6,0,0,1,4.539-5.3h7.906" transform="translate(-529.632 -999.438)" fill="none" stroke="#fff" stroke-miterlimit="10" stroke-width="1.322"/>
          </g>
        </g>
        <g id="Grupo_15870" data-name="Grupo 15870" transform="translate(80.786)">
          <g id="Grupo_15869" data-name="Grupo 15869">
            <path id="Trazado_9136" data-name="Trazado 9136" d="M535.232,810.774s-2.32-11.631.664-13.292,15.912-9.969,17.237-8.307,9.614,12.628,9.614,12.628Z" transform="translate(-522.258 -788.956)" fill="#9d5131"/>
            <g id="Grupo_15868" data-name="Grupo 15868" transform="translate(12.481)" style="mix-blend-mode: multiply;isolation: isolate">
              <path id="Trazado_9137" data-name="Trazado 9137" d="M552.584,789.608c-.14-.179-.255-.326-.341-.434-.892-1.118-7.037,2.278-11.872,5.126Q546.452,791.884,552.584,789.608Z" transform="translate(-533.849 -788.956)" fill="#232f33" opacity="0.47"/>
              <path id="Trazado_9138" data-name="Trazado 9138" d="M534.692,806.524c.233,1.795.493,3.1.493,3.1l27.515-8.972s-1.318-1.743-2.986-3.945Q547.086,801.31,534.692,806.524Z" transform="translate(-534.692 -787.806)" fill="#232f33" opacity="0.47"/>
            </g>
            <path id="Trazado_9139" data-name="Trazado 9139" d="M538.455,807s-15.58,5.982-14.587,7.644,52.376-15.619,52.708-17.613-11.934,1.662-11.934,1.662Z" transform="translate(-523.823 -787.845)" fill="#9d5131"/>
          </g>
        </g>
      </g>
      <g id="Grupo_15884" data-name="Grupo 15884" transform="translate(38.955 49.421)">
        <g id="Grupo_15881" data-name="Grupo 15881" transform="translate(46.518 20.004)">
          <g id="Grupo_15879" data-name="Grupo 15879">
            <g id="Grupo_15877" data-name="Grupo 15877" transform="translate(7.872)">
              <g id="Grupo_15872" data-name="Grupo 15872" transform="translate(18.813 2.664)">
                <ellipse id="Elipse_642" data-name="Elipse 642" cx="10.276" cy="10.301" rx="10.276" ry="10.301" transform="translate(0 3.063)" fill="#e35c3d"/>
                <path id="Trazado_9140" data-name="Trazado 9140" d="M555,862.708a15.914,15.914,0,0,1-1.065-5.47,10.28,10.28,0,1,0,16.857,11.256C564.749,872.026,557.623,869.5,555,862.708Z" transform="translate(-551.142 -850.914)" fill="#e35c3d" style="mix-blend-mode: multiply;isolation: isolate"/>
                <path id="Trazado_9141" data-name="Trazado 9141" d="M560.594,856.066c-1.445-.68-3.066-1.579-3.354-3.152a5.524,5.524,0,0,1,4.153,2.667,6.839,6.839,0,0,1,.763-3.407c.1-.192.234-.4.446-.436.257-.045.482.181.6.413.524,1,.041,2.212-.441,3.233,1.167-.371,2.506-.725,3.553-.09.5.3.858,1.024.462,1.452a1.24,1.24,0,0,1-.89.281,14.932,14.932,0,0,1-5.648-.9" transform="translate(-550.237 -851.731)" fill="#36687a"/>
              </g>
              <g id="Grupo_15873" data-name="Grupo 15873" transform="translate(56.768 4.492)">
                <ellipse id="Elipse_643" data-name="Elipse 643" cx="10.276" cy="10.301" rx="10.276" ry="10.301" transform="translate(0 3.063)" fill="#e35c3d"/>
                <path id="Trazado_9142" data-name="Trazado 9142" d="M588.048,864.3a15.925,15.925,0,0,1-1.065-5.47,10.28,10.28,0,1,0,16.857,11.255C597.8,873.616,590.675,871.1,588.048,864.3Z" transform="translate(-584.194 -852.506)" fill="#e35c3d" style="mix-blend-mode: multiply;isolation: isolate"/>
                <path id="Trazado_9143" data-name="Trazado 9143" d="M593.646,857.658c-1.445-.68-3.066-1.579-3.353-3.153a5.53,5.53,0,0,1,4.151,2.667,6.868,6.868,0,0,1,.763-3.407c.1-.192.234-.4.446-.435.257-.046.482.181.6.412.524,1,.041,2.212-.44,3.234,1.166-.371,2.5-.726,3.552-.091.5.3.858,1.025.462,1.451a1.235,1.235,0,0,1-.89.281,14.888,14.888,0,0,1-5.648-.9" transform="translate(-583.289 -853.323)" fill="#36687a"/>
              </g>
              <g id="Grupo_15874" data-name="Grupo 15874" transform="translate(0 3.998)">
                <path id="Trazado_9144" data-name="Trazado 9144" d="M555.178,867.078a10.277,10.277,0,1,0-11.809,8.492A10.3,10.3,0,0,0,555.178,867.078Z" transform="translate(-534.76 -852.564)" fill="#e35c3d"/>
                <path id="Trazado_9145" data-name="Trazado 9145" d="M538.955,862.535a15.886,15.886,0,0,1-.165-5.571A10.284,10.284,0,1,0,553.6,870.813C547.069,873.316,540.447,869.668,538.955,862.535Z" transform="translate(-534.76 -852.288)" fill="#e35c3d" style="mix-blend-mode: multiply;isolation: isolate"/>
                <path id="Trazado_9146" data-name="Trazado 9146" d="M545.414,856.838c-1.315-.906-2.77-2.058-2.8-3.658a5.54,5.54,0,0,1,3.666,3.307,6.845,6.845,0,0,1,1.3-3.238.72.72,0,0,1,.512-.357c.261,0,.446.257.527.505.354,1.073-.317,2.189-.958,3.119,1.21-.177,2.59-.308,3.519.488.442.379.681,1.152.222,1.508a1.232,1.232,0,0,1-.923.133,14.912,14.912,0,0,1-5.426-1.811" transform="translate(-533.595 -852.892)" fill="#36687a"/>
              </g>
              <g id="Grupo_15875" data-name="Grupo 15875" transform="translate(39.09)">
                <ellipse id="Elipse_644" data-name="Elipse 644" cx="10.276" cy="10.301" rx="10.276" ry="10.301" transform="translate(0 2.965)" fill="#e64b40"/>
                <path id="Trazado_9147" data-name="Trazado 9147" d="M572.522,862.327a15.855,15.855,0,0,1-2.969-4.712,10.275,10.275,0,1,0,19.779,4.374C584.978,867.473,577.425,867.709,572.522,862.327Z" transform="translate(-568.799 -848.194)" fill="#e35c3d" style="mix-blend-mode: multiply;isolation: isolate"/>
                <path id="Trazado_9148" data-name="Trazado 9148" d="M575.525,854.232c-1.593-.109-3.429-.359-4.265-1.721a5.518,5.518,0,0,1,4.833.978,6.87,6.87,0,0,1-.521-3.453.725.725,0,0,1,.26-.568.637.637,0,0,1,.711.167c.849.744.837,2.046.757,3.174.953-.769,2.074-1.586,3.279-1.374.572.1,1.17.644.954,1.185a1.239,1.239,0,0,1-.727.586,14.919,14.919,0,0,1-5.591,1.207" transform="translate(-568.435 -849.411)" fill="#36687a"/>
              </g>
              <g id="Grupo_15876" data-name="Grupo 15876" transform="translate(33.978 11.973)">
                <path id="Trazado_9149" data-name="Trazado 9149" d="M584.766,874.022a10.277,10.277,0,1,0-11.809,8.493A10.3,10.3,0,0,0,584.766,874.022Z" transform="translate(-564.348 -859.509)" fill="#e35c3d"/>
                <path id="Trazado_9150" data-name="Trazado 9150" d="M568.543,869.48a15.885,15.885,0,0,1-.165-5.571,10.284,10.284,0,1,0,14.812,13.849C576.657,880.261,570.035,876.613,568.543,869.48Z" transform="translate(-564.348 -859.233)" fill="#e35c3d" style="mix-blend-mode: multiply;isolation: isolate"/>
                <path id="Trazado_9151" data-name="Trazado 9151" d="M575,863.782c-1.315-.9-2.77-2.057-2.8-3.656a5.535,5.535,0,0,1,3.666,3.307,6.841,6.841,0,0,1,1.3-3.238.716.716,0,0,1,.511-.357c.261,0,.446.257.527.505.355,1.073-.317,2.189-.958,3.119,1.21-.177,2.59-.309,3.52.488.441.379.68,1.152.22,1.508a1.237,1.237,0,0,1-.923.133,14.912,14.912,0,0,1-5.426-1.811" transform="translate(-563.183 -859.837)" fill="#36687a"/>
              </g>
            </g>
            <g id="Grupo_15878" data-name="Grupo 15878" transform="translate(0 19.85)">
              <rect id="Rectángulo_3871" data-name="Rectángulo 3871" width="93.149" height="50.066" fill="#9d5131"/>
              <rect id="Rectángulo_3872" data-name="Rectángulo 3872" width="27.026" height="50.066" fill="#232f33" opacity="0.47" style="mix-blend-mode: multiply;isolation: isolate"/>
            </g>
          </g>
          <g id="Grupo_15880" data-name="Grupo 15880" transform="translate(27.514 33.142)">
            <line id="Línea_72" data-name="Línea 72" x2="64.972" fill="none" stroke="#bf6e52" stroke-miterlimit="10" stroke-width="1.322"/>
            <line id="Línea_73" data-name="Línea 73" x2="64.972" transform="translate(0 17.28)" fill="none" stroke="#bf6e52" stroke-miterlimit="10" stroke-width="1.322"/>
          </g>
        </g>
        <g id="Grupo_15882" data-name="Grupo 15882" transform="translate(0 9.596)">
          <path id="Trazado_9152" data-name="Trazado 9152" d="M546.925,917.557c.4-.184,10.271.617,10.7-.381.639-1.5-10.383-2.2-10.568-2.218-2.8-.31,10.52,1.077,11.207.152s-5.347-1.977-5.56-2.019c0,0-5.219-.6-5.256-.986s12.026-.2,11.307-1.2-8.4-2.3-10.342-2.378-4.03-1.045-5.492-1.254c-2.015-.287,7.378-3.194,5.517-5.437,0,0-8.528,1.359-11.433,2.749-1.528.731-22.981-11.271-22.981-11.271-2.245-1.241-2.281-1.754-1.1-4.035l14.864-33.035s5.819-15.4-1.818-15.867c-11.38-.7-30.274,13.983-38.164,53.58-1.791,8.986,2.265,15.444,14.033,18.8l10.209,1.784-.087.223a251.636,251.636,0,0,0,36.756,4.667c1.424.1,5.735-.053,5.952-.6C555.16,917.577,546.523,917.741,546.925,917.557Z" transform="translate(-487.397 -840.347)" fill="#ff9ea0"/>
          <path id="Trazado_9153" data-name="Trazado 9153" d="M526.351,894.614c2.832,1.353,5,2.237,5.447,2.022,2.905-1.39,11.433-2.749,11.433-2.749,1.862,2.244-7.532,5.15-5.517,5.437,1.462.209,3.547,1.181,5.492,1.254s9.622,1.37,10.342,2.378-9.174,1.13-9.138,1.522,3.087.669,3.087.669c.214.041,6.247,1.094,5.56,2.019s-14.011-.462-11.207-.152c.185.021,11.207.717,10.568,2.218-.425,1-10.294.2-10.7.381s8.235.02,7.74,1.268c-.217.547-4.528.7-5.952.6-1.788-.125-9.289-.381-21.055-2.025C523.7,904.495,524.977,899.542,526.351,894.614Z" transform="translate(-482.196 -832.404)" fill="#e35c3d"/>
        </g>
        <g id="Grupo_15883" data-name="Grupo 15883" transform="translate(1.599)">
          <path id="Trazado_9154" data-name="Trazado 9154" d="M527.189,832.412s11.16,14.511-7.686,50.021l-30.713-7.456S508.87,827.035,527.189,832.412Z" transform="translate(-488.79 -831.992)" fill="#faf1e2"/>
          <line id="Línea_74" data-name="Línea 74" x1="31.394" y1="7.805" transform="translate(2.445 36.836)" fill="none" stroke="#fff" stroke-miterlimit="10" stroke-width="0.263"/>
        </g>
      </g>
    </g>
    <g id="Grupo_15900" data-name="Grupo 15900" transform="translate(584.796 965.851)">
      <path id="Trazado_9155" data-name="Trazado 9155" d="M574.256,1048.892a9.627,9.627,0,0,1,12.85-5.235c9.729-8.657,20.668-16.729,33.431-19.261s27.679,1.888,34,13.288a10.42,10.42,0,0,1,12.943.106c1.183,1,2.165,2.3,3.571,2.951,3.372,1.564,7.005-1.181,10.273-2.952,10.358-5.611,25.063-.135,29.255,10.892" transform="translate(-563.266 -931.023)" fill="#873e1f"/>
      <g id="Grupo_15892" data-name="Grupo 15892" transform="translate(86.317)">
        <g id="Grupo_15886" data-name="Grupo 15886" transform="translate(15.437 11.786)">
          <path id="Trazado_9156" data-name="Trazado 9156" d="M669.625,1055.837c-5.4-8.95-8.18-19.292-9.423-29.679s-2.185-62.438-1.954-72.9" transform="translate(-652.563 -953.26)" fill="none" stroke="#4e8976" stroke-miterlimit="10" stroke-width="1.133"/>
          <path id="Trazado_9157" data-name="Trazado 9157" d="M653.293,1049.842c4.423-12.138,7.784-28.131,6.687-41.008" transform="translate(-653.293 -945.015)" fill="none" stroke="#4e8976" stroke-miterlimit="10" stroke-width="0.567"/>
        </g>
        <g id="Grupo_15887" data-name="Grupo 15887" transform="translate(0.78)">
          <path id="Trazado_9158" data-name="Trazado 9158" d="M663.29,946.48c-2.3-3.184-6.835-4.087-10.635-3.108s-7.011,3.481-9.967,6.067l5.6.782a20.83,20.83,0,0,0-5.384,11.624,2.344,2.344,0,0,0,.169,1.493c.67,1.116,2.374.542,3.473-.152l8.963-5.656a2.455,2.455,0,0,0,1.5,3.434,3.781,3.781,0,0,0,3.833-1.429,8.912,8.912,0,0,0,1.6-3.99,29.159,29.159,0,0,0,.4-8.477" transform="translate(-640.21 -942.997)" fill="#4e8976"/>
          <path id="Trazado_9159" data-name="Trazado 9159" d="M660.543,960.94a75.182,75.182,0,0,1-.359-9.378,4.38,4.38,0,0,1,1.037-3.288c1.472-1.293,3.751-.179,5.292,1.029a55.074,55.074,0,0,1,9.689,9.778c.377.491.766,1.115.534,1.689-.341.842-1.587.705-2.384.272s-1.714-1.03-2.528-.629l1.922,8.892c.249,1.154.362,2.642-.66,3.229a2.634,2.634,0,0,1-2.418-.277,17.173,17.173,0,0,1-8.4-9.544" transform="translate(-637.617 -942.3)" fill="#4e8976"/>
          <path id="Trazado_9160" data-name="Trazado 9160" d="M657.468,968.606a14.814,14.814,0,0,0-16.938,14.367l2.111-1.5c.784,1.488.271,3.289.03,4.955s.054,3.756,1.612,4.385c1.256.506,2.644-.231,3.77-.984a27.735,27.735,0,0,0,8.4-8.119,14.23,14.23,0,0,0,1.932-11.276" transform="translate(-640.53 -939.22)" fill="#4e8976"/>
          <path id="Trazado_9161" data-name="Trazado 9161" d="M660.528,1018.581c-.358-3.972-2.94-7.5-6.2-9.781a30.714,30.714,0,0,0-11.035-4.357A18.459,18.459,0,0,0,649,1016.107a8.688,8.688,0,0,0,4.248,2.4,4.3,4.3,0,0,0,4.365-1.648" transform="translate(-640.12 -933.88)" fill="#4e8976"/>
          <path id="Trazado_9162" data-name="Trazado 9162" d="M658,996.8c2.966-7.987,11.682-11.974,19.573-15.146.962,1.9,1.952,3.972,1.609,6.078s-2.7,3.972-4.59,2.981c3.314.338,4.584,5.1,2.724,7.865s-5.449,3.772-8.769,4.034c-3.432.271-7.487-.379-9.146-3.4" transform="translate(-637.938 -937.262)" fill="#4e8976"/>
        </g>
        <g id="Grupo_15888" data-name="Grupo 15888" transform="translate(3.181 0.07)" opacity="0.49" style="mix-blend-mode: multiply;isolation: isolate">
          <path id="Trazado_9163" data-name="Trazado 9163" d="M663.212,946.471a8.911,8.911,0,0,0-6.411-3.413,4.156,4.156,0,0,1,.541,4.762c-3.281,6.386-7.867,12.362-14.13,15.759.768.745,2.258.229,3.257-.4l8.963-5.656a2.455,2.455,0,0,0,1.5,3.434,3.782,3.782,0,0,0,3.833-1.429,8.912,8.912,0,0,0,1.6-3.99,29.159,29.159,0,0,0,.4-8.477Z" transform="translate(-642.532 -943.058)" fill="#4e8976"/>
          <path id="Trazado_9164" data-name="Trazado 9164" d="M665.619,951.807a4.373,4.373,0,0,1,.976-2.435c-.029-.022-.054-.047-.083-.069-1.541-1.208-3.819-2.322-5.292-1.029a4.38,4.38,0,0,0-1.037,3.288,75.182,75.182,0,0,0,.359,9.378l1.728,1.774a17.173,17.173,0,0,0,8.4,9.544,2.634,2.634,0,0,0,2.418.277,1.678,1.678,0,0,0,.782-1.273C668.915,965.806,664.958,959.076,665.619,951.807Z" transform="translate(-640.017 -942.37)" fill="#4e8976"/>
          <path id="Trazado_9165" data-name="Trazado 9165" d="M658.076,970.438l-.917-1.832a14.987,14.987,0,0,0-9.279,1.707,4.4,4.4,0,0,1,.444,1.518,4.516,4.516,0,0,1,1.148,5.264c-1.9,4.3-3.824,8.687-6.852,12.253a2.478,2.478,0,0,0,1.353,1.469c1.256.505,2.644-.231,3.77-.984a27.735,27.735,0,0,0,8.4-8.119A14.23,14.23,0,0,0,658.076,970.438Z" transform="translate(-642.62 -939.29)" fill="#4e8976"/>
          <path id="Trazado_9166" data-name="Trazado 9166" d="M644.177,1004.652c-.294-.07-.589-.142-.884-.209a18.449,18.449,0,0,0,5.712,11.663,8.673,8.673,0,0,0,4.247,2.406,4.3,4.3,0,0,0,4.365-1.648l2.911,1.717a10.809,10.809,0,0,0-.3-1.71A182.087,182.087,0,0,1,644.177,1004.652Z" transform="translate(-642.52 -933.951)" fill="#4e8976"/>
          <path id="Trazado_9167" data-name="Trazado 9167" d="M663.51,993.093a4.316,4.316,0,0,1-2.076-3.068A17.008,17.008,0,0,0,658,995.559l1.4,2.409c1.658,3.025,5.713,3.675,9.146,3.4,3.32-.262,6.91-1.264,8.769-4.034a5.805,5.805,0,0,0,.436-5.222C673.387,994.518,668.755,995.713,663.51,993.093Z" transform="translate(-640.338 -936.09)" fill="#4e8976"/>
        </g>
        <g id="Grupo_15889" data-name="Grupo 15889" transform="translate(18.118 57.234)">
          <ellipse id="Elipse_645" data-name="Elipse 645" cx="8.809" cy="8.831" rx="8.809" ry="8.831" transform="translate(0 1.925)" fill="#de8b27"/>
          <path id="Trazado_9168" data-name="Trazado 9168" d="M659.053,1004.2a13.573,13.573,0,0,1-3.248-3.5,8.806,8.806,0,1,0,17.354.528C670.363,1006.547,664.039,1007.951,659.053,1004.2Z" transform="translate(-655.627 -991.669)" fill="#de8b27" style="mix-blend-mode: multiply;isolation: isolate"/>
          <path id="Trazado_9169" data-name="Trazado 9169" d="M660.293,996.986c-1.358.162-2.944.245-3.865-.769a4.73,4.73,0,0,1,4.226.053,5.881,5.881,0,0,1-.986-2.825.625.625,0,0,1,.127-.52.549.549,0,0,1,.626.028,3.216,3.216,0,0,1,1.141,2.552,3.764,3.764,0,0,1,2.544-1.68c.5-.006,1.087.356.992.846a1.067,1.067,0,0,1-.52.61,12.8,12.8,0,0,1-4.518,1.909" transform="translate(-655.509 -992.837)" fill="#36687a"/>
        </g>
        <g id="Grupo_15890" data-name="Grupo 15890" transform="translate(4.05 10.115)">
          <path id="Trazado_9170" data-name="Trazado 9170" d="M659.422,966.85a8.816,8.816,0,1,0-12.261,2.214A8.845,8.845,0,0,0,659.422,966.85Z" transform="translate(-643.377 -951.631)" fill="#e35c3d"/>
          <path id="Trazado_9171" data-name="Trazado 9171" d="M648.432,957.531a13.613,13.613,0,0,1,1.919-4.373,8.821,8.821,0,1,0,6.377,16.188C650.752,968.872,646.966,963.6,648.432,957.531Z" transform="translate(-643.377 -951.604)" fill="#e35c3d" style="mix-blend-mode: multiply;isolation: isolate"/>
          <path id="Trazado_9172" data-name="Trazado 9172" d="M655.068,955.669c-.686-1.187-1.388-2.616-.823-3.864a4.757,4.757,0,0,1,1.623,3.912,5.847,5.847,0,0,1,2.2-2.025.62.62,0,0,1,.527-.088.55.55,0,0,1,.223.587c-.121.961-1.05,1.577-1.888,2.06a3.762,3.762,0,0,1,2.545,1.678c.2.456.1,1.141-.382,1.248a1.066,1.066,0,0,1-.764-.238,12.83,12.83,0,0,1-3.535-3.406" transform="translate(-641.796 -951.805)" fill="#36687a"/>
        </g>
        <g id="Grupo_15891" data-name="Grupo 15891" transform="translate(6.627 31.045)">
          <path id="Trazado_9173" data-name="Trazado 9173" d="M661.166,985.394a8.818,8.818,0,1,0-12.414,1.06A8.845,8.845,0,0,0,661.166,985.394Z" transform="translate(-645.621 -969.906)" fill="#de8b27"/>
          <path id="Trazado_9174" data-name="Trazado 9174" d="M651.087,975.107a13.627,13.627,0,0,1,2.317-4.175,8.822,8.822,0,1,0,4.844,16.714C652.343,986.615,649.064,981.017,651.087,975.107Z" transform="translate(-645.621 -969.897)" fill="#e35c3d" style="mix-blend-mode: multiply;isolation: isolate"/>
          <path id="Trazado_9175" data-name="Trazado 9175" d="M657.773,973.955c-.573-1.246-1.14-2.734-.46-3.924a4.761,4.761,0,0,1,1.252,4.047,5.845,5.845,0,0,1,2.377-1.811.614.614,0,0,1,.533-.038.547.547,0,0,1,.167.6c-.209.945-1.192,1.472-2.07,1.875a3.765,3.765,0,0,1,2.378,1.907c.16.473,0,1.147-.5,1.207a1.056,1.056,0,0,1-.738-.308,12.821,12.821,0,0,1-3.2-3.721" transform="translate(-643.933 -970.031)" fill="#36687a"/>
        </g>
        <path id="Trazado_9176" data-name="Trazado 9176" d="M640.021,1047.353a2.849,2.849,0,0,1,1.557-3.461,5.317,5.317,0,0,1,4.074.057,3.147,3.147,0,0,0,1.511.324c1.117-.17,1.53-1.526,1.866-2.608a11.924,11.924,0,0,1,22.057-1.809,10.641,10.641,0,0,1,11.837,7.553" transform="translate(-639.85 -929.604)" fill="#9d5131"/>
      </g>
      <g id="Grupo_15899" data-name="Grupo 15899" transform="translate(37.293)">
        <g id="Grupo_15893" data-name="Grupo 15893" transform="translate(15.437 11.786)">
          <path id="Trazado_9177" data-name="Trazado 9177" d="M626.935,1055.837c-5.4-8.95-8.18-19.292-9.423-29.679s-2.185-62.438-1.955-72.9" transform="translate(-609.873 -953.26)" fill="none" stroke="#4e8976" stroke-miterlimit="10" stroke-width="1.133"/>
          <path id="Trazado_9178" data-name="Trazado 9178" d="M610.6,1049.842c4.424-12.138,7.782-28.131,6.686-41.008" transform="translate(-610.603 -945.015)" fill="none" stroke="#4e8976" stroke-miterlimit="10" stroke-width="0.567"/>
        </g>
        <g id="Grupo_15894" data-name="Grupo 15894" transform="translate(0.781)">
          <path id="Trazado_9179" data-name="Trazado 9179" d="M620.6,946.48c-2.3-3.184-6.836-4.087-10.635-3.108s-7.011,3.481-9.967,6.067l5.6.782a20.83,20.83,0,0,0-5.384,11.624,2.344,2.344,0,0,0,.169,1.493c.669,1.116,2.373.542,3.473-.152l8.963-5.656a2.454,2.454,0,0,0,1.5,3.434,3.782,3.782,0,0,0,3.833-1.429,8.912,8.912,0,0,0,1.6-3.99,29.159,29.159,0,0,0,.4-8.477" transform="translate(-597.52 -942.997)" fill="#4e8976"/>
          <path id="Trazado_9180" data-name="Trazado 9180" d="M617.852,960.94a75.193,75.193,0,0,1-.358-9.378,4.379,4.379,0,0,1,1.037-3.288c1.471-1.293,3.749-.179,5.292,1.029a55.065,55.065,0,0,1,9.688,9.778c.378.491.766,1.115.534,1.689-.34.842-1.586.705-2.383.272s-1.715-1.03-2.528-.629l1.922,8.892c.249,1.154.362,2.642-.66,3.229a2.634,2.634,0,0,1-2.419-.277,17.173,17.173,0,0,1-8.4-9.544" transform="translate(-594.927 -942.3)" fill="#4e8976"/>
          <path id="Trazado_9181" data-name="Trazado 9181" d="M614.778,968.606a14.814,14.814,0,0,0-16.938,14.367l2.111-1.5c.784,1.488.271,3.289.03,4.955s.054,3.756,1.612,4.385c1.256.506,2.643-.231,3.77-.984a27.729,27.729,0,0,0,8.4-8.119,14.225,14.225,0,0,0,1.933-11.276" transform="translate(-597.84 -939.22)" fill="#4e8976"/>
          <path id="Trazado_9182" data-name="Trazado 9182" d="M617.838,1018.581c-.358-3.972-2.94-7.5-6.2-9.781a30.715,30.715,0,0,0-11.035-4.357,18.459,18.459,0,0,0,5.711,11.664,8.682,8.682,0,0,0,4.248,2.4,4.3,4.3,0,0,0,4.365-1.648" transform="translate(-597.43 -933.88)" fill="#4e8976"/>
          <path id="Trazado_9183" data-name="Trazado 9183" d="M615.311,996.8c2.966-7.987,11.682-11.974,19.573-15.146.962,1.9,1.952,3.972,1.609,6.078s-2.706,3.972-4.59,2.981c3.313.338,4.583,5.1,2.724,7.865s-5.449,3.772-8.769,4.034c-3.432.271-7.487-.379-9.146-3.4" transform="translate(-595.248 -937.262)" fill="#4e8976"/>
        </g>
        <g id="Grupo_15895" data-name="Grupo 15895" transform="translate(3.181 0.07)" opacity="0.49" style="mix-blend-mode: multiply;isolation: isolate">
          <path id="Trazado_9184" data-name="Trazado 9184" d="M620.522,946.471a8.911,8.911,0,0,0-6.411-3.413,4.154,4.154,0,0,1,.54,4.762c-3.28,6.386-7.866,12.362-14.128,15.759.767.745,2.258.229,3.257-.4q4.48-2.829,8.963-5.656a2.454,2.454,0,0,0,1.5,3.434,3.782,3.782,0,0,0,3.833-1.429,8.912,8.912,0,0,0,1.6-3.99,29.121,29.121,0,0,0,.4-8.477Z" transform="translate(-599.842 -943.058)" fill="#4e8976"/>
          <path id="Trazado_9185" data-name="Trazado 9185" d="M622.929,951.807a4.373,4.373,0,0,1,.976-2.435c-.029-.022-.054-.047-.083-.069-1.542-1.208-3.821-2.322-5.292-1.029a4.379,4.379,0,0,0-1.037,3.288,75.193,75.193,0,0,0,.358,9.378l1.729,1.774a17.173,17.173,0,0,0,8.4,9.544,2.634,2.634,0,0,0,2.419.277,1.678,1.678,0,0,0,.782-1.273C626.225,965.806,622.266,959.076,622.929,951.807Z" transform="translate(-597.327 -942.37)" fill="#4e8976"/>
          <path id="Trazado_9186" data-name="Trazado 9186" d="M615.386,970.438l-.917-1.832a14.987,14.987,0,0,0-9.279,1.707,4.374,4.374,0,0,1,.443,1.518,4.515,4.515,0,0,1,1.149,5.264c-1.9,4.3-3.824,8.687-6.852,12.253a2.478,2.478,0,0,0,1.353,1.469c1.256.505,2.643-.231,3.77-.984a27.729,27.729,0,0,0,8.4-8.119A14.225,14.225,0,0,0,615.386,970.438Z" transform="translate(-599.93 -939.29)" fill="#4e8976"/>
          <path id="Trazado_9187" data-name="Trazado 9187" d="M601.487,1004.652c-.3-.07-.589-.142-.884-.209a18.454,18.454,0,0,0,5.711,11.663,8.676,8.676,0,0,0,4.248,2.406,4.3,4.3,0,0,0,4.365-1.648l2.911,1.717a10.936,10.936,0,0,0-.3-1.71A182.086,182.086,0,0,1,601.487,1004.652Z" transform="translate(-599.83 -933.951)" fill="#4e8976"/>
          <path id="Trazado_9188" data-name="Trazado 9188" d="M620.819,993.093a4.322,4.322,0,0,1-2.076-3.068,17.024,17.024,0,0,0-3.431,5.534l1.4,2.409c1.658,3.025,5.713,3.675,9.146,3.4,3.32-.262,6.91-1.264,8.769-4.034a5.805,5.805,0,0,0,.436-5.222C630.7,994.518,626.065,995.713,620.819,993.093Z" transform="translate(-597.648 -936.09)" fill="#4e8976"/>
        </g>
        <g id="Grupo_15896" data-name="Grupo 15896" transform="translate(18.117 57.234)">
          <path id="Trazado_9189" data-name="Trazado 9189" d="M629.223,998.674a8.815,8.815,0,1,0-2.817,12.165A8.8,8.8,0,0,0,629.223,998.674Z" transform="translate(-612.937 -992.588)" fill="#de8b27"/>
          <path id="Trazado_9190" data-name="Trazado 9190" d="M616.363,1004.2a13.572,13.572,0,0,1-3.248-3.5,8.806,8.806,0,1,0,17.354.528C627.673,1006.547,621.348,1007.951,616.363,1004.2Z" transform="translate(-612.936 -991.669)" fill="#de8b27" style="mix-blend-mode: multiply;isolation: isolate"/>
          <path id="Trazado_9191" data-name="Trazado 9191" d="M617.6,996.986c-1.359.162-2.946.245-3.865-.769a4.73,4.73,0,0,1,4.226.053,5.88,5.88,0,0,1-.986-2.825.621.621,0,0,1,.127-.52.549.549,0,0,1,.626.028,3.216,3.216,0,0,1,1.141,2.552,3.764,3.764,0,0,1,2.542-1.68c.5-.006,1.089.356.993.846a1.067,1.067,0,0,1-.52.61,12.8,12.8,0,0,1-4.518,1.909" transform="translate(-612.818 -992.837)" fill="#36687a"/>
        </g>
        <g id="Grupo_15897" data-name="Grupo 15897" transform="translate(4.05 10.115)">
          <path id="Trazado_9192" data-name="Trazado 9192" d="M616.732,966.85a8.816,8.816,0,1,0-12.261,2.214A8.844,8.844,0,0,0,616.732,966.85Z" transform="translate(-600.687 -951.631)" fill="#de8b27"/>
          <path id="Trazado_9193" data-name="Trazado 9193" d="M605.742,957.531a13.586,13.586,0,0,1,1.919-4.373,8.821,8.821,0,1,0,6.376,16.188C608.062,968.872,604.276,963.6,605.742,957.531Z" transform="translate(-600.687 -951.604)" fill="#e35c3d" style="mix-blend-mode: multiply;isolation: isolate"/>
          <path id="Trazado_9194" data-name="Trazado 9194" d="M612.378,955.669c-.686-1.187-1.39-2.616-.823-3.864a4.76,4.76,0,0,1,1.623,3.912,5.847,5.847,0,0,1,2.2-2.025.62.62,0,0,1,.527-.088.55.55,0,0,1,.223.587c-.121.961-1.051,1.577-1.888,2.06a3.762,3.762,0,0,1,2.545,1.678c.2.456.1,1.141-.382,1.248a1.064,1.064,0,0,1-.764-.238,12.812,12.812,0,0,1-3.535-3.406" transform="translate(-599.106 -951.805)" fill="#36687a"/>
        </g>
        <g id="Grupo_15898" data-name="Grupo 15898" transform="translate(6.627 31.045)">
          <ellipse id="Elipse_646" data-name="Elipse 646" cx="8.809" cy="8.831" rx="8.809" ry="8.831" transform="translate(0 0.966)" fill="#e35c3d"/>
          <path id="Trazado_9195" data-name="Trazado 9195" d="M608.4,975.107a13.627,13.627,0,0,1,2.317-4.175,8.822,8.822,0,1,0,4.844,16.714C609.653,986.615,606.373,981.017,608.4,975.107Z" transform="translate(-602.931 -969.897)" fill="#e35c3d" style="mix-blend-mode: multiply;isolation: isolate"/>
          <path id="Trazado_9196" data-name="Trazado 9196" d="M615.083,973.955c-.573-1.246-1.14-2.734-.462-3.924a4.758,4.758,0,0,1,1.253,4.047,5.845,5.845,0,0,1,2.377-1.811.613.613,0,0,1,.533-.038.549.549,0,0,1,.167.6c-.209.945-1.192,1.472-2.071,1.875a3.768,3.768,0,0,1,2.378,1.907c.16.473,0,1.147-.5,1.207a1.055,1.055,0,0,1-.737-.308,12.824,12.824,0,0,1-3.2-3.721" transform="translate(-601.243 -970.031)" fill="#36687a"/>
        </g>
        <path id="Trazado_9197" data-name="Trazado 9197" d="M597.331,1047.353a2.848,2.848,0,0,1,1.557-3.461,5.317,5.317,0,0,1,4.074.057,3.145,3.145,0,0,0,1.51.324c1.119-.17,1.531-1.526,1.867-2.608a11.924,11.924,0,0,1,22.057-1.809,10.641,10.641,0,0,1,11.837,7.553" transform="translate(-597.16 -929.604)" fill="#9d5131"/>
      </g>
      <path id="Trazado_9198" data-name="Trazado 9198" d="M564.817,1047.7c-1.2-7.469,6.062-14.522,13.609-14.642s14.389,5.287,17.821,12.026a7.742,7.742,0,0,1,14.813,2.655" transform="translate(-564.686 -929.635)" fill="#b8d6cc"/>
    </g>
    <g id="Grupo_15916" data-name="Grupo 15916" transform="translate(690.672 900.967)">
      <g id="Grupo_15901" data-name="Grupo 15901" transform="translate(124.46 178.204)">
        <path id="Trazado_9199" data-name="Trazado 9199" d="M837.279,1045.542c0,.984-13.632,1.781-30.449,1.781s-30.448-.8-30.448-1.781,13.632-1.781,30.448-1.781S837.279,1044.558,837.279,1045.542Z" transform="translate(-763.613 -1041.367)" fill="#232f33"/>
        <path id="Trazado_9200" data-name="Trazado 9200" d="M826.16,1043.457c0,.984-13.632,1.782-30.448,1.782s-30.449-.8-30.449-1.782,13.632-1.781,30.449-1.781S826.16,1042.473,826.16,1043.457Z" transform="translate(-765.263 -1041.676)" fill="#232f33"/>
      </g>
      <g id="Grupo_15915" data-name="Grupo 15915">
        <g id="Grupo_15911" data-name="Grupo 15911">
          <g id="Grupo_15907" data-name="Grupo 15907" transform="translate(86.547)">
            <path id="Trazado_9201" data-name="Trazado 9201" d="M747.734,958.589c11,2.265,46.805.323,46.805.323s-4.718-36.331-28.522-54.6c-4.844-7.869-5.75-14.189-10.554-16.2a13.749,13.749,0,0,0-9.693-.355,23.728,23.728,0,0,0-11.136,7.47c-1.377,1.735-3.12,8.082-2.059,10.02Z" transform="translate(-732.248 -886.415)" fill="#232f33"/>
            <path id="Trazado_9202" data-name="Trazado 9202" d="M760.346,902.264c18.013,5.6,29.6,36.546,32.6,53.314" transform="translate(-728.08 -884.156)" fill="none" stroke="#000" stroke-miterlimit="10" stroke-width="0.305"/>
            <path id="Trazado_9203" data-name="Trazado 9203" d="M754.688,903.515a.513.513,0,0,0,.674.3c1.131-.456,3.648-1.74,5.2,1.083,1.564,2.854-.62,5.681-2.3,6.46-.485.224-1.812.748-1.779,1.283,1.036,17.069,7.392,16.593,7.392,16.593s2.162,16.954-16.307,15.373c-2.563-.219-.218-4.746-.559-5.6,0,0-5.262-20.011-5.378-20.061-1.932-.835-7.536.71-8.709-12.106-1.088-11.871,6.989-14.214,9.1-14.651C743.809,891.82,749.745,889.876,754.688,903.515Z" transform="translate(-732.164 -885.696)" fill="#ff9ea0"/>
            <path id="Trazado_9204" data-name="Trazado 9204" d="M735.709,893.494s5.7,6.866,18.945,10.511C754.654,904,755.091,883.476,735.709,893.494Z" transform="translate(-731.735 -885.866)" fill="#232f33"/>
            <g id="Grupo_15902" data-name="Grupo 15902" transform="translate(0.941 15.732)">
              <path id="Trazado_9205" data-name="Trazado 9205" d="M756.607,904.517s-3.273-3.055-3.531,2.89" transform="translate(-730.099 -899.671)" fill="#d46e6c"/>
              <path id="Trazado_9206" data-name="Trazado 9206" d="M743.539,905.462a2.869,2.869,0,1,0,3.68,1.69A2.873,2.873,0,0,0,743.539,905.462Z" transform="translate(-731.791 -899.441)" fill="#ff8587"/>
              <path id="Trazado_9207" data-name="Trazado 9207" d="M734.127,910.832a2.872,2.872,0,0,0-1.059-5.266A14,14,0,0,0,734.127,910.832Z" transform="translate(-733.068 -899.399)" fill="#ff8587"/>
              <path id="Trazado_9208" data-name="Trazado 9208" d="M735.3,908.651l4.835-.629s-.907,2.486-2.338,2.423S735.3,908.651,735.3,908.651Z" transform="translate(-732.737 -899.034)" fill="#fff"/>
              <path id="Trazado_9209" data-name="Trazado 9209" d="M736.988,904.531l.509,3.157-1.656-.062a.4.4,0,0,1-.331-.611Z" transform="translate(-732.714 -899.552)" fill="#d46e6c"/>
              <path id="Trazado_9210" data-name="Trazado 9210" d="M741.822,901.686c.547.353-.339-1.286-1.074-1.452a1.281,1.281,0,0,0-1.588.853A4,4,0,0,1,741.822,901.686Z" transform="translate(-732.164 -900.195)"/>
              <path id="Trazado_9211" data-name="Trazado 9211" d="M733.5,902.529c-.517.4.233-1.309.953-1.533a1.28,1.28,0,0,1,1.651.721A4,4,0,0,0,733.5,902.529Z" transform="translate(-733.029 -900.087)"/>
              <path id="Trazado_9212" data-name="Trazado 9212" d="M739.636,904.5c0,.564-.227,1.02-.5,1.019s-.491-.459-.489-1.024.227-1.02.5-1.017S739.638,903.933,739.636,904.5Z" transform="translate(-732.24 -899.709)"/>
              <path id="Trazado_9213" data-name="Trazado 9213" d="M735.945,904.657c0,.539-.217.974-.477.973s-.47-.439-.467-.977.217-.974.477-.973S735.947,904.119,735.945,904.657Z" transform="translate(-732.781 -899.679)"/>
              <path id="Trazado_9214" data-name="Trazado 9214" d="M740.49,915.737s2.6.62,7.925-2.229c-4.089,11.361-5.918,8.621-5.918,8.621S741.524,918.981,740.49,915.737Z" transform="translate(-731.967 -898.22)" fill="#d46e6c"/>
            </g>
            <g id="Grupo_15906" data-name="Grupo 15906" transform="translate(0.111)">
              <g id="Grupo_15903" data-name="Grupo 15903" transform="translate(31.863 1.097)">
                <path id="Trazado_9215" data-name="Trazado 9215" d="M760.091,903.109a26.127,26.127,0,0,1,7.213-15.457.507.507,0,0,1,.357-.2.489.489,0,0,1,.314.21,9.032,9.032,0,0,1,1.96,6.862,11.741,11.741,0,0,1-3.128,6.505,6.168,6.168,0,0,1-2.056,1.566,7.957,7.957,0,0,1-3.928.251" transform="translate(-760.091 -887.451)" fill="#e35c3d"/>
              </g>
              <g id="Grupo_15904" data-name="Grupo 15904" transform="translate(33.342 15.487)">
                <path id="Trazado_9216" data-name="Trazado 9216" d="M762.345,900.67c3.32-1.414,7.125-.389,10.551.738a4.311,4.311,0,0,1,1.493.72,1.491,1.491,0,0,1,.547,1.484,1.889,1.889,0,0,1-.883.977,7.979,7.979,0,0,1-6.873.456,16.112,16.112,0,0,1-5.8-4.055" transform="translate(-761.379 -899.981)" fill="#e35c3d"/>
                <path id="Trazado_9217" data-name="Trazado 9217" d="M767.27,900.979a36.311,36.311,0,0,1,4.574.094c-3.142-.974-6.516-1.673-9.5-.4l-.966.32a23.238,23.238,0,0,0,2.169,1.96A4.613,4.613,0,0,1,767.27,900.979Z" transform="translate(-761.379 -899.981)" fill="#e35c3d" style="mix-blend-mode: multiply;isolation: isolate"/>
              </g>
              <g id="Grupo_15905" data-name="Grupo 15905">
                <path id="Trazado_9218" data-name="Trazado 9218" d="M732.345,899.97c13.043,1.452,21.472,3.4,34.515,4.848-1.287-5.8-3.186-11.548-7.935-15.048a15.018,15.018,0,0,0-15.366-2.027c-5.052,2.028-10.154,3.531-11.012,11.7" transform="translate(-732.345 -886.496)" fill="#e35c3d"/>
                <path id="Trazado_9219" data-name="Trazado 9219" d="M760.177,893.648a20.9,20.9,0,0,1-6.92,8.731c3.26.485,6.68.953,10.5,1.378" transform="translate(-729.242 -885.435)" fill="#e35c3d"/>
                <path id="Trazado_9220" data-name="Trazado 9220" d="M748.194,902.072c5.057.8,10.175,1.592,16.315,2.275-1.244-5.607-3.066-11.151-7.469-14.677C756.84,895.132,754.075,899.93,748.194,902.072Z" transform="translate(-729.994 -886.025)" fill="#e35c3d" opacity="0.55" style="mix-blend-mode: multiply;isolation: isolate"/>
              </g>
            </g>
          </g>
          <g id="Grupo_15908" data-name="Grupo 15908" transform="translate(0 65.113)">
            <path id="Trazado_9221" data-name="Trazado 9221" d="M739.258,943.2s-22.834,16.594-29.07,17.01-32.087-2.764-35.245-5.545c-1.687-1.487-6.625-5-7.526-4.332-1,.742,1.688,4.37,2.576,5.362s-10.218-2.548-10.784-1.562c-.729,1.271,4.4,3.165,6.81,4.26s-7.4-2.158-8.331-.307c-.328.653,7.78,3.783,7.673,3.962-.208.346-8.163-2.234-8.469-.859-.276,1.244,6.494,3.709,7.429,4.221s-3.816-.969-4.22-.1c-.449.961,21.658,7.041,29.619,9.55s19.2,4.047,25.46,2.707c9.047-1.937,33.6-15.535,33.6-15.535Z" transform="translate(-656.883 -943.196)" fill="#f58284"/>
            <path id="Trazado_9222" data-name="Trazado 9222" d="M691.9,955.139c-6.9-1.058-15.506-.116-16.953-1.39-1.687-1.487-6.625-5-7.526-4.332-1,.742,1.688,4.37,2.576,5.362s-10.218-2.548-10.784-1.562c-.729,1.271,4.4,3.165,6.81,4.26s-7.4-2.158-8.331-.307c-.328.653,7.78,3.783,7.673,3.962-.208.346-8.163-2.234-8.469-.859-.276,1.244,6.494,3.709,7.429,4.221s-3.816-.969-4.22-.1c-.416.889,18.417,6.144,27.565,8.917C688.387,968.031,691.415,960.444,691.9,955.139Z" transform="translate(-656.883 -942.285)" fill="#edb224"/>
          </g>
          <g id="Grupo_15909" data-name="Grupo 15909" transform="translate(61.906 44.55)">
            <path id="Trazado_9223" data-name="Trazado 9223" d="M746.467,925.29s-8.571,6.957-35.676,31.152l11.229,21.3,19.73-14.619Z" transform="translate(-710.791 -925.29)" fill="#faf1e2"/>
          </g>
          <path id="Trazado_9224" data-name="Trazado 9224" d="M774.616,929.333s-10.1-5.425-12.807-5.625c0,0-3.964,15.614-14.621,11.217-1.364-.563-.354,1-.33-.479.065-3.9-2.573-9.513-2.573-9.513-3.687,1.4-3.517,2.59-4.295,4.429a2.5,2.5,0,0,0-.287-.115c.311.757-4.695,19.143-5.771,26.5-1.124,7.676,5.713,24.363,5.713,24.363.259.372,25.565,4.172,42.806,6.556C785.128,978.021,777.913,938.6,774.616,929.333Z" transform="translate(-645.47 -880.975)" fill="#faf1e2"/>
          <path id="Trazado_9225" data-name="Trazado 9225" d="M735.984,942.9c-.892,3.853-1.692,7.545-2.051,10-1.124,7.676,5.713,24.363,5.713,24.363.259.372,14.9,2.8,32.144,5.181-.644-6.449.189-21.861-2.145-35.471C755.093,943.85,750.745,944.8,735.984,942.9Z" transform="translate(-645.47 -878.128)" fill="#36687a"/>
          <g id="Grupo_15910" data-name="Grupo 15910" transform="translate(90.514 42.733)">
            <path id="Trazado_9226" data-name="Trazado 9226" d="M735.7,945.622s4.113-18.6,6.771-20.379l1.554-.731s-5.572,19.569-5.893,23.923Z" transform="translate(-735.703 -923.589)" fill="#36687a"/>
            <path id="Trazado_9227" data-name="Trazado 9227" d="M748.114,947.506s8.831-22.523,11.573-23.8c0,0,3.868.822,4.592,1.468,0,0-12.3,20.96-12.144,22.813Z" transform="translate(-733.862 -923.708)" fill="#36687a"/>
          </g>
          <path id="Trazado_9228" data-name="Trazado 9228" d="M742.949,924.036l-.18.765-1.17.513A3.782,3.782,0,0,0,742.949,924.036Z" transform="translate(-644.314 -880.926)"/>
          <path id="Trazado_9229" data-name="Trazado 9229" d="M747.795,973.6c-28.538,30.1-42.4,38.664-51.427,51.552-5.794,8.269-4.518,28.011,5.423,27.854l86.99-1.476-2.988-10.225s-46.124-11.3-54.766-10.753c0,0,56.72-10.3,56.85-47.394l-1.3-5.144Z" transform="translate(-651.538 -873.573)" fill="#36687a"/>
          <path id="Trazado_9230" data-name="Trazado 9230" d="M779.133,1031.369l5.588-5.74a1.263,1.263,0,0,1,1.88-.37c4.019,3.168,17.573,13.671,21.959,17.07a.635.635,0,0,1-.363,1.137c-5.347.194-17.562.381-17.562.381l-37.478.419,8.926-15.4S778.732,1032.068,779.133,1031.369Z" transform="translate(-642.599 -865.948)" fill="#edb224"/>
          <path id="Trazado_9231" data-name="Trazado 9231" d="M779.133,1031.369l5.588-5.74a1.263,1.263,0,0,1,1.88-.37c4.019,3.168,17.573,13.671,21.959,17.07a.635.635,0,0,1-.363,1.137c-5.347.194-17.562.381-17.562.381l-37.478.419,8.926-15.4S778.732,1032.068,779.133,1031.369Z" transform="translate(-642.599 -865.948)" fill="#edb224" opacity="0.49" style="mix-blend-mode: multiply;isolation: isolate"/>
          <path id="Trazado_9232" data-name="Trazado 9232" d="M749.743,980.155c-1.189,3.874-4.17,10.049-7.431,12.813-11.534,9.773-28.129,19.593-37.159,32.481-5.794,8.27-4.152,31.756,5.789,31.6l86.99-1.475-4.025-9.62s-45.088-11.9-53.73-11.358c0,0,44.217-10.785,44.346-47.883l1.19-8.94L749.149,973.6Z" transform="translate(-650.216 -873.573)" fill="#36687a"/>
          <path id="Trazado_9233" data-name="Trazado 9233" d="M785.855,1035.113l5.589-5.739a1.263,1.263,0,0,1,1.879-.37c4.02,3.168,17.573,13.671,21.96,17.07a.635.635,0,0,1-.364,1.137c-5.346.194-17.561.381-17.561.381l-37.478.419,8.926-15.4S785.455,1035.811,785.855,1035.113Z" transform="translate(-641.602 -865.393)" fill="#edb224"/>
          <path id="Trazado_9234" data-name="Trazado 9234" d="M771.244,976.453l9.577.943c4.1,43.757-45.6,56.907-45.6,56.907l36.022-57.85" transform="translate(-645.26 -873.149)" fill="#36687a" opacity="0.46" style="mix-blend-mode: multiply;isolation: isolate"/>
          <path id="Trazado_9235" data-name="Trazado 9235" d="M798.185,1048.335l-86.99,1.475c-9.941.157-14.93-20.52-7.572-27.427C699.5,1035.725,744.5,1047.166,798.185,1048.335Z" transform="translate(-650.47 -866.335)" fill="#36687a" opacity="0.46" style="mix-blend-mode: multiply;isolation: isolate"/>
        </g>
        <g id="Grupo_15912" data-name="Grupo 15912" transform="translate(5.238 66.438)">
          <ellipse id="Elipse_647" data-name="Elipse 647" cx="10.276" cy="10.301" rx="10.276" ry="10.301" transform="translate(0 2.246)" fill="#e35c3d"/>
          <path id="Trazado_9236" data-name="Trazado 9236" d="M665.439,957.607a15.849,15.849,0,0,1-3.788-4.078,10.273,10.273,0,1,0,20.245.615C678.633,960.345,671.255,961.982,665.439,957.607Z" transform="translate(-661.443 -942.988)" fill="#e35c3d" style="mix-blend-mode: multiply;isolation: isolate"/>
          <path id="Trazado_9237" data-name="Trazado 9237" d="M666.887,949.19c-1.585.189-3.436.286-4.51-.9a5.519,5.519,0,0,1,4.931.061,6.84,6.84,0,0,1-1.152-3.295.723.723,0,0,1,.149-.606.634.634,0,0,1,.729.031c.973.572,1.2,1.855,1.332,2.978.794-.934,1.743-1.944,2.966-1.96.581-.008,1.269.415,1.159.986a1.241,1.241,0,0,1-.606.711,14.911,14.911,0,0,1-5.27,2.227" transform="translate(-661.306 -944.35)" fill="#36687a"/>
        </g>
        <g id="Grupo_15913" data-name="Grupo 15913" transform="translate(115.018 83.156)">
          <path id="Trazado_9238" data-name="Trazado 9238" d="M758.356,961.275s-1.813-2.131-1.18-2.348,1.728,1.634,1.728,1.634Z" transform="translate(-757.041 -958.909)"/>
        </g>
        <path id="Trazado_9239" data-name="Trazado 9239" d="M756.452,949.142s-11.4,25.577-16.712,28.88-33.075,18.866-37.167,17.9c-2.187-.518-8.191-1.294-8.675-.28-.537,1.128,3.538,3.064,4.786,3.521s-10.215,2.561-10.253,3.7c-.048,1.465,5.367.722,8.008.556s-7.544,1.579-7.5,3.651c.016.731,8.64-.324,8.63-.114-.022.4-8.253,1.871-7.879,3.228.338,1.228,7.47.217,8.536.229s-3.823.942-3.775,1.9c.053,1.06,22.419-3.981,30.623-5.513s18.847-5.467,23.746-9.6c7.08-5.97,22.387-29.536,22.387-29.536Z" transform="translate(-652.202 -877.201)" fill="#ff9ea0"/>
        <g id="Grupo_15914" data-name="Grupo 15914" transform="translate(1.71 113.053)">
          <path id="Trazado_9240" data-name="Trazado 9240" d="M703.316,1001.481h0a5.365,5.365,0,0,1-7.253,3.321l-17.488-7.585,1.934-6.152,18.676,3.507A5.383,5.383,0,0,1,703.316,1001.481Z" transform="translate(-655.374 -984.034)" fill="#9d5131"/>
          <path id="Trazado_9241" data-name="Trazado 9241" d="M688.628,997.134h0a8.142,8.142,0,0,1-12.251,4.371l-16.636-10.969a3.054,3.054,0,0,1-1.229-3.462h0a3.04,3.04,0,0,1,3.141-2.121l19.849,1.584A8.167,8.167,0,0,1,688.628,997.134Z" transform="translate(-658.372 -984.942)" fill="#faf1e2"/>
        </g>
        <path id="Trazado_9242" data-name="Trazado 9242" d="M718.474,983.323c-6.066,2.946-14.305,7.9-15.9,7.525-2.187-.518-8.191-1.294-8.675-.28-.537,1.128,3.538,3.064,4.786,3.521s-10.215,2.561-10.253,3.7c-.048,1.466,5.367.723,8.008.557s-7.544,1.579-7.5,3.651c.016.731,8.64-.324,8.63-.114-.022.4-8.253,1.871-7.879,3.228.338,1.228,7.47.217,8.536.229s-3.823.942-3.775,1.9c.049.991,21.633-.161,30.883-1.983C723.257,999.7,721.714,988.338,718.474,983.323Z" transform="translate(-652.202 -872.13)" fill="#edb224"/>
        <path id="Trazado_9243" data-name="Trazado 9243" d="M750.765,996.663s43.708-53.207,22.708-68.889c-13.942-10.411-38.463,51.606-38.463,51.606Z" transform="translate(-645.292 -880.546)" fill="#faf1e2"/>
      </g>
    </g>
  </g>
</svg>
